<svg xmlns="http://www.w3.org/2000/svg" viewBox="0 0 494 260" width="494" height="260">
  <title>Issue 10 Page 13 Panel 4 — Wren completes the device, "I have the plan."</title>
  <desc>Medium tracking Wren behind massive desk, holding completed improvised device. Telegraph wire wrapped around fairy-tech component, brass connectors, spliced power coupling. Crude purposeful — engineering under fire. Fragmentary copper-gold schematic hovers nearby. Quiet certainty of engineer who trusts physics. Solution in the engineer's hands.</desc>
  <defs>
    <linearGradient id="bgY4" x1="0" y1="0" x2="0" y2="1">
      <stop offset="0" stop-color="#040206"/>
      <stop offset="0.5" stop-color="#080404"/>
      <stop offset="1" stop-color="#020100"/>
    </linearGradient>
    <radialGradient id="copperWarmY4" cx="0.5" cy="0.45" r="0.55">
      <stop offset="0" stop-color="#a85820" stop-opacity="0.42"/>
      <stop offset="0.5" stop-color="#5a2e10" stop-opacity="0.22"/>
      <stop offset="1" stop-color="#020100" stop-opacity="0"/>
    </radialGradient>
    <radialGradient id="brassWarmY4" cx="0.7" cy="0.6" r="0.45">
      <stop offset="0" stop-color="#c87838" stop-opacity="0.35"/>
      <stop offset="0.5" stop-color="#5a3018" stop-opacity="0.18"/>
      <stop offset="1" stop-color="#020100" stop-opacity="0"/>
    </radialGradient>
    <linearGradient id="deskWoodY4" x1="0" y1="0" x2="0" y2="1">
      <stop offset="0" stop-color="#3a2010"/>
      <stop offset="0.5" stop-color="#1a1008"/>
      <stop offset="1" stop-color="#080404"/>
    </linearGradient>
    <linearGradient id="deskTopY4" x1="0" y1="0" x2="0" y2="1">
      <stop offset="0" stop-color="#5a3a20"/>
      <stop offset="1" stop-color="#3a2410"/>
    </linearGradient>
    <linearGradient id="copperFigY4" x1="0" y1="0" x2="0" y2="1">
      <stop offset="0" stop-color="#9a5828"/>
      <stop offset="0.5" stop-color="#5a2e10"/>
      <stop offset="1" stop-color="#1a0a04"/>
    </linearGradient>
    <linearGradient id="hairBlkY4" x1="0" y1="0" x2="0" y2="1">
      <stop offset="0" stop-color="#1a0808"/>
      <stop offset="1" stop-color="#3a1a14"/>
    </linearGradient>
    <linearGradient id="faceLitW_Y4" x1="0" y1="0" x2="0.7" y2="0.5">
      <stop offset="0" stop-color="#3a261a"/>
      <stop offset="0.5" stop-color="#5a3622"/>
      <stop offset="1" stop-color="#9a5828"/>
    </linearGradient>
    <linearGradient id="deviceCoreY4" x1="0" y1="0" x2="0" y2="1">
      <stop offset="0" stop-color="#d88838"/>
      <stop offset="0.5" stop-color="#a85820"/>
      <stop offset="1" stop-color="#5a2e10"/>
    </linearGradient>
    <linearGradient id="brassConnY4" x1="0" y1="0" x2="1" y2="0">
      <stop offset="0" stop-color="#5a3018"/>
      <stop offset="0.5" stop-color="#a85820"/>
      <stop offset="1" stop-color="#7a3e18"/>
    </linearGradient>
    <linearGradient id="copperWireY4" x1="0" y1="0" x2="1" y2="1">
      <stop offset="0" stop-color="#d88838"/>
      <stop offset="1" stop-color="#7a3e18"/>
    </linearGradient>
    <filter id="bloomY4" x="-20%" y="-20%" width="140%" height="140%">
      <feGaussianBlur stdDeviation="2.2"/>
    </filter>
    <filter id="strongGlowY4" x="-25%" y="-25%" width="150%" height="150%">
      <feGaussianBlur stdDeviation="4"/>
    </filter>
    <filter id="schematicShimY4" x="-30%" y="-30%" width="160%" height="160%">
      <feGaussianBlur stdDeviation="2.8"/>
    </filter>
    <filter id="softY4" x="-10%" y="-10%" width="120%" height="120%">
      <feGaussianBlur stdDeviation="0.7"/>
    </filter>
  </defs>

  <rect width="494" height="260" fill="url(#bgY4)"/>
  <rect width="494" height="260" fill="url(#copperWarmY4)"/>
  <rect width="494" height="260" fill="url(#brassWarmY4)"/>

  <g>
    <rect x="0" y="180" width="494" height="80" fill="url(#deskTopY4)"/>
    <line x1="0" y1="190" x2="494" y2="188" stroke="#1a1008" stroke-width="0.5" opacity="0.55"/>
    <rect x="0" y="216" width="494" height="44" fill="url(#deskWoodY4)"/>
    <line x1="0" y1="218" x2="494" y2="218" stroke="#080404" stroke-width="2"/>
    <line x1="0" y1="238" x2="494" y2="237" stroke="#1a0a04" stroke-width="0.5" opacity="0.65"/>
  </g>

  <g opacity="0.85">
    <rect x="40" y="190" width="56" height="22" rx="2" fill="#3a2010" stroke="#080404" stroke-width="0.6"/>
    <circle cx="50" cy="201" r="3" fill="#5a3018"/>
    <circle cx="68" cy="201" r="3" fill="#5a3018"/>
    <circle cx="86" cy="201" r="3" fill="#5a3018"/>
    <rect x="380" y="186" width="80" height="26" rx="2" fill="#3a2010" stroke="#080404" stroke-width="0.6"/>
    <line x1="386" y1="194" x2="454" y2="194" stroke="#5a3018" stroke-width="0.6"/>
    <line x1="386" y1="200" x2="454" y2="200" stroke="#5a3018" stroke-width="0.6"/>
    <line x1="386" y1="206" x2="454" y2="206" stroke="#5a3018" stroke-width="0.6"/>
  </g>

  <g>
    <ellipse cx="220" cy="86" rx="20" ry="24" fill="#3a261a"/>
    <ellipse cx="220" cy="74" rx="14" ry="16" fill="url(#faceLitW_Y4)"/>
    <path d="M 200 56 Q 220 40 240 56 Q 246 70 240 80 L 232 86 Q 226 60 220 60 Q 214 60 208 84 Z" fill="url(#hairBlkY4)"/>
    <ellipse cx="240" cy="58" rx="6" ry="4" fill="url(#hairBlkY4)"/>
    <ellipse cx="214" cy="76" rx="2.4" ry="3.4" fill="#0a0604"/>
    <ellipse cx="226" cy="76" rx="2.4" ry="3.4" fill="#0a0604"/>
    <circle cx="215" cy="75" r="1.2" fill="#a85820"/>
    <circle cx="227" cy="75" r="1.2" fill="#a85820"/>
    <path d="M 210 90 L 230 90" stroke="#0a0604" stroke-width="1.4"/>
    <path d="M 196 110 Q 220 102 244 110 L 260 156 Q 244 168 220 168 Q 196 168 180 156 Z" fill="url(#copperFigY4)"/>
    <path d="M 200 122 L 240 122 L 246 152 L 194 152 Z" fill="#5a2e10" opacity="0.65"/>
    <path d="M 206 132 L 230 138 L 224 148 L 208 144 Z" fill="#1a0a04" opacity="0.85"/>
    <path d="M 212 138 L 234 144" stroke="#3a1a08" stroke-width="0.7" opacity="0.6"/>
    <path d="M 210 142 L 228 148" stroke="#3a1a08" stroke-width="0.5" opacity="0.5"/>
  </g>

  <g>
    <path d="M 244 156 Q 260 152 274 138 Q 282 124 286 116" stroke="url(#copperFigY4)" stroke-width="14" fill="none" stroke-linecap="round"/>
    <ellipse cx="290" cy="112" rx="8" ry="6" fill="#9a5828"/>
    <g opacity="0.85">
      <rect x="282" y="106" width="3" height="2" fill="#5a3018"/>
      <rect x="287" y="104" width="3" height="2" fill="#5a3018"/>
      <rect x="292" y="105" width="3" height="2" fill="#5a3018"/>
    </g>
    <path d="M 198 156 Q 188 144 184 128 Q 184 116 188 110" stroke="url(#copperFigY4)" stroke-width="13" fill="none" stroke-linecap="round"/>
    <ellipse cx="186" cy="106" rx="8" ry="6" fill="#9a5828"/>
  </g>

  <g transform="translate(238,90)">
    <rect x="-4" y="-2" width="40" height="28" rx="2" fill="#1a0a04" stroke="#3a1a08" stroke-width="0.7"/>
    <rect x="-2" y="0" width="36" height="24" rx="1.5" fill="#3a1a08"/>
    <circle cx="16" cy="12" r="9" fill="url(#deviceCoreY4)"/>
    <circle cx="16" cy="12" r="6" fill="#d88838" opacity="0.85"/>
    <circle cx="16" cy="12" r="3" fill="#f4b860"/>
    <path d="M -2 6 L 0 4 L 4 8 L 8 4 L 12 8 L 16 4 L 20 8 L 24 4 L 28 8 L 32 4 L 34 6" stroke="url(#brassConnY4)" stroke-width="2" fill="none"/>
    <path d="M -2 18 L 0 20 L 4 16 L 8 20 L 12 16 L 16 20 L 20 16 L 24 20 L 28 16 L 32 20 L 34 18" stroke="url(#brassConnY4)" stroke-width="2" fill="none"/>
    <rect x="-6" y="10" width="6" height="4" fill="#5a3018" stroke="#080404" stroke-width="0.4"/>
    <rect x="34" y="10" width="6" height="4" fill="#5a3018" stroke="#080404" stroke-width="0.4"/>
    <path d="M -8 12 Q -16 8 -22 14 Q -28 22 -22 28" stroke="url(#copperWireY4)" stroke-width="1.6" fill="none" opacity="0.92"/>
    <path d="M 40 12 Q 48 8 54 14 Q 60 22 54 28" stroke="url(#copperWireY4)" stroke-width="1.6" fill="none" opacity="0.92"/>
    <path d="M 4 -2 L 6 -6 L 12 -8 L 18 -6 L 22 -2" stroke="#a85820" stroke-width="1.4" fill="none" opacity="0.85"/>
    <circle cx="6" cy="-6" r="1.4" fill="#5a3018"/>
    <circle cx="22" cy="-2" r="1.4" fill="#5a3018"/>
  </g>
  <g opacity="0.85" filter="url(#strongGlowY4)">
    <circle cx="254" cy="102" r="9" fill="#d88838" opacity="0.55"/>
  </g>

  <g opacity="0.65" filter="url(#schematicShimY4)">
    <rect x="320" y="40" width="120" height="68" fill="none" stroke="#a85820" stroke-width="0.6" opacity="0.55"/>
    <line x1="320" y1="58" x2="440" y2="58" stroke="#a85820" stroke-width="0.5" opacity="0.55"/>
    <line x1="320" y1="76" x2="440" y2="76" stroke="#a85820" stroke-width="0.5" opacity="0.55"/>
    <line x1="320" y1="92" x2="440" y2="92" stroke="#a85820" stroke-width="0.5" opacity="0.55"/>
    <circle cx="356" cy="68" r="6" fill="none" stroke="#a85820" stroke-width="0.5" opacity="0.65"/>
    <circle cx="380" cy="84" r="4" fill="none" stroke="#a85820" stroke-width="0.5" opacity="0.65"/>
    <circle cx="404" cy="68" r="5" fill="none" stroke="#a85820" stroke-width="0.5" opacity="0.65"/>
    <path d="M 356 68 L 380 84 L 404 68" stroke="#a85820" stroke-width="0.4" fill="none" opacity="0.55"/>
    <path d="M 332 100 L 422 100" stroke="#a85820" stroke-width="0.5" stroke-dasharray="3 2" opacity="0.5"/>
    <text x="380" y="50" text-anchor="middle" font-family="Courier New, monospace" font-size="3.4" fill="#a85820" opacity="0.7">COUNTER PULSE</text>
    <text x="380" y="106" text-anchor="middle" font-family="Courier New, monospace" font-size="3" fill="#a85820" opacity="0.6">FREQ MATCH 2.4kHz</text>
  </g>

  <g opacity="0.85" filter="url(#bloomY4)">
    <ellipse cx="380" cy="74" rx="40" ry="14" fill="#a85820" opacity="0.18"/>
  </g>

  <g opacity="0.7">
    <line x1="270" y1="106" x2="320" y2="78" stroke="#a85820" stroke-width="0.5" stroke-dasharray="2 1" opacity="0.55"/>
  </g>

  <g opacity="0.65">
    <ellipse cx="240" cy="218" rx="60" ry="3" fill="#040202"/>
  </g>

  <g transform="translate(20,12)">
    <rect x="-8" y="0" width="240" height="32" rx="3" fill="#f5ecd8" opacity="0.92" stroke="#a85820" stroke-width="1.2"/>
    <text x="112" y="11" text-anchor="middle" font-family="Helvetica Neue, Helvetica, Arial, sans-serif" font-size="7.4" fill="#a85820" font-weight="700">WREN: "I need the main</text>
    <text x="112" y="19" text-anchor="middle" font-family="Helvetica Neue, Helvetica, Arial, sans-serif" font-size="7.2" fill="#2a2a2a" font-style="italic">telegraph apparatus.</text>
    <text x="112" y="29" text-anchor="middle" font-family="Helvetica Neue, Helvetica, Arial, sans-serif" font-size="7.4" fill="#a85820" font-weight="700">I have the plan."</text>
  </g>
</svg>
