<svg xmlns="http://www.w3.org/2000/svg" viewBox="0 0 800 1200" width="800" height="1200" style="background:#ffffff">
<style>
  text { font-family: "Helvetica Neue", Helvetica, Arial, sans-serif; }
</style>
<text x="400.0" y="22" text-anchor="middle" font-size="16" fill="#888888" font-weight="500">PAGE 22  (4 panels)</text>
<rect x="29.0" y="59.0" width="742.0" height="364.0" rx="2" fill="#f5f0e8" stroke="#2a2a2a" stroke-width="1.5"/>
<path d="M341.4,321.1 L346.8,274.6 Q352.1,270.6 383.8,270.6 L416.2,270.6 Q447.9,270.6 453.2,274.6 L458.6,321.1 Z" fill="#999999" opacity="0.35"/>
<line x1="346.8" y1="296.5" x2="453.2" y2="296.5" stroke="#999999" stroke-width="1" opacity="0.3"/>
<line x1="346.8" y1="274.6" x2="325.5" y2="315.5" stroke="#999999" stroke-width="2" opacity="0.3"/>
<line x1="325.5" y1="315.5" x2="341.4" y2="340.1" stroke="#999999" stroke-width="2" opacity="0.3"/>
<line x1="453.2" y1="274.6" x2="474.5" y2="315.5" stroke="#999999" stroke-width="2" opacity="0.3"/>
<line x1="474.5" y1="315.5" x2="458.6" y2="340.1" stroke="#999999" stroke-width="2" opacity="0.3"/>
<line x1="400.0" y1="197.7" x2="400.0" y2="270.6" stroke="#999999" stroke-width="3" opacity="0.35"/>
<circle cx="400.0" cy="157.3" r="40.5" fill="#999999" opacity="0.4"/>
<rect x="35.0" y="67.0" width="730.0" height="54.0" rx="6" fill="white" stroke="#999999" stroke-width="1.0" opacity="0.92"/>
<polygon points="254.0,121.0 262.0,121.0 251.0,129.0" fill="white" stroke="#999999" stroke-width="0.8"/>
<line x1="253.5" y1="121.0" x2="262.5" y2="121.0" stroke="white" stroke-width="1.5"/>
<text x="41.0" y="84.0" font-size="11.0" fill="#999999" font-weight="700">HOBDAY</text>
<text x="41.0" y="98.0" font-size="11.0" fill="#333333">I'm telling you, I saw them. Night before last, in the gutter on Saffron Hill. Lights. Not reflections, not gas — lights that</text>
<text x="41.0" y="112.0" font-size="11.0" fill="#333333">moved.</text>
<rect x="420.2" y="131.0" width="344.8" height="40.0" rx="6" fill="white" stroke="#999999" stroke-width="1.0" opacity="0.92"/>
<polygon points="523.7,171.0 531.7,171.0 520.7,179.0" fill="white" stroke="#999999" stroke-width="0.8"/>
<line x1="523.2" y1="171.0" x2="532.2" y2="171.0" stroke="white" stroke-width="1.5"/>
<text x="426.2" y="148.0" font-size="11.0" fill="#999999" font-weight="700">SKEPTIC</text>
<text x="426.2" y="162.0" font-size="11.0" fill="#333333">You'd been in here three hours before your round, Jack.</text>
<rect x="35.0" y="181.0" width="326.6" height="40.0" rx="6" fill="white" stroke="#999999" stroke-width="1.0" opacity="0.92"/>
<polygon points="133.0,221.0 141.0,221.0 130.0,229.0" fill="white" stroke="#999999" stroke-width="0.8"/>
<line x1="132.5" y1="221.0" x2="141.5" y2="221.0" stroke="white" stroke-width="1.5"/>
<text x="41.0" y="198.0" font-size="11.0" fill="#999999" font-weight="700">AMUSED COMPANION</text>
<text x="41.0" y="212.0" font-size="11.0" fill="#333333">Will-o'-the-wisps, was it? Fairies in the drainpipe?</text>
<text x="759.0" y="75.0" text-anchor="end" font-size="12" font-weight="bold" fill="#888888" opacity="0.6">1</text>
<text x="765.0" y="417.0" text-anchor="end" font-size="9" fill="#888888" opacity="0.5">MW</text>
<rect x="29.0" y="433.0" width="366.0" height="364.0" rx="2" fill="#f5f0e8" stroke="#2a2a2a" stroke-width="1.5"/>
<path d="M110.1,706.0 Q110.1,655.0 186.5,648.7 L237.5,648.7 Q313.9,655.0 313.9,706.0 L313.9,753.3 L110.1,753.3 Z" fill="#999999" opacity="0.25"/>
<path d="M189.7,648.7 L212.0,680.5 L234.3,648.7" fill="none" stroke="#999999" stroke-width="1" opacity="0.3"/>
<circle cx="212.0" cy="578.6" r="63.7" fill="#999999" opacity="0.35"/>
<path d="M148.3,591.3 Q157.9,648.7 212.0,651.9 Q266.1,648.7 275.7,591.3" fill="none" stroke="#999999" stroke-width="1.2" opacity="0.3"/>
<path d="M145.1,572.2 Q212.0,495.8 278.9,572.2" fill="none" stroke="#999999" stroke-width="2" opacity="0.4"/>
<ellipse cx="146.3" cy="581.8" rx="2.5" ry="4" fill="#999999" opacity="0.25"/>
<ellipse cx="277.7" cy="581.8" rx="2.5" ry="4" fill="#999999" opacity="0.25"/>
<rect x="35.0" y="441.0" width="344.8" height="68.0" rx="6" fill="white" stroke="#999999" stroke-width="1.0" opacity="0.92"/>
<polygon points="138.4,509.0 146.4,509.0 135.4,517.0" fill="white" stroke="#999999" stroke-width="0.8"/>
<line x1="137.9" y1="509.0" x2="146.9" y2="509.0" stroke="white" stroke-width="1.5"/>
<text x="41.0" y="458.0" font-size="11.0" fill="#999999" font-weight="700">HOBDAY</text>
<text x="41.0" y="472.0" font-size="11.0" fill="#333333">Small lights. Blue, mostly. But coloured, too — green,</text>
<text x="41.0" y="486.0" font-size="11.0" fill="#333333">copper, red. Moving together, like... like a patrol. In</text>
<text x="41.0" y="500.0" font-size="11.0" fill="#333333">formation.</text>
<rect x="35.0" y="519.0" width="350.8" height="54.0" rx="6" fill="white" stroke="#999999" stroke-width="1.0" opacity="0.92"/>
<polygon points="140.2,573.0 148.2,573.0 137.2,581.0" fill="white" stroke="#999999" stroke-width="0.8"/>
<line x1="139.7" y1="573.0" x2="148.7" y2="573.0" stroke="white" stroke-width="1.5"/>
<text x="41.0" y="536.0" font-size="11.0" fill="#999999" font-weight="700">HOBDAY</text>
<text x="41.0" y="550.0" font-size="11.0" fill="#333333">They came down the gutter like they knew where they were</text>
<text x="41.0" y="564.0" font-size="11.0" fill="#333333">going.</text>
<text x="383.0" y="449.0" text-anchor="end" font-size="12" font-weight="bold" fill="#888888" opacity="0.6">2</text>
<text x="389.0" y="791.0" text-anchor="end" font-size="9" fill="#888888" opacity="0.5">MCU</text>
<rect x="405.0" y="433.0" width="366.0" height="364.0" rx="2" fill="#f5f0e8" stroke="#2a2a2a" stroke-width="1.5"/>
<path d="M486.1,706.0 Q486.1,655.0 562.5,648.7 L613.5,648.7 Q689.9,655.0 689.9,706.0 L689.9,753.3 L486.1,753.3 Z" fill="#999999" opacity="0.25"/>
<path d="M565.7,648.7 L588.0,680.5 L610.3,648.7" fill="none" stroke="#999999" stroke-width="1" opacity="0.3"/>
<circle cx="588.0" cy="578.6" r="63.7" fill="#999999" opacity="0.35"/>
<path d="M524.3,591.3 Q533.9,648.7 588.0,651.9 Q642.1,648.7 651.7,591.3" fill="none" stroke="#999999" stroke-width="1.2" opacity="0.3"/>
<path d="M521.1,572.2 Q588.0,495.8 654.9,572.2" fill="none" stroke="#999999" stroke-width="2" opacity="0.4"/>
<ellipse cx="522.3" cy="581.8" rx="2.5" ry="4" fill="#999999" opacity="0.25"/>
<ellipse cx="653.7" cy="581.8" rx="2.5" ry="4" fill="#999999" opacity="0.25"/>
<rect x="411.0" y="441.0" width="332.7" height="54.0" rx="6" fill="white" stroke="#999999" stroke-width="1.0" opacity="0.92"/>
<polygon points="510.8,495.0 518.8,495.0 507.8,503.0" fill="white" stroke="#999999" stroke-width="0.8"/>
<line x1="510.3" y1="495.0" x2="519.3" y2="495.0" stroke="white" stroke-width="1.5"/>
<text x="417.0" y="458.0" font-size="11.0" fill="#999999" font-weight="700">OLDER MAN</text>
<text x="417.0" y="472.0" font-size="11.0" fill="#333333">My nan told about such things. Said they lived in the</text>
<text x="417.0" y="486.0" font-size="11.0" fill="#333333">walls.</text>
<rect x="432.3" y="505.0" width="332.7" height="54.0" rx="6" fill="white" stroke="#999999" stroke-width="1.0" opacity="0.92"/>
<polygon points="532.1,559.0 540.1,559.0 529.1,567.0" fill="white" stroke="#999999" stroke-width="0.8"/>
<line x1="531.6" y1="559.0" x2="540.6" y2="559.0" stroke="white" stroke-width="1.5"/>
<text x="438.3" y="522.0" font-size="11.0" fill="#999999" font-weight="700">OLDER MAN</text>
<text x="438.3" y="536.0" font-size="11.0" fill="#333333">Said you'd hear them at night, if you listened. Small</text>
<text x="438.3" y="550.0" font-size="11.0" fill="#333333">sounds. Purposeful.</text>
<rect x="411.0" y="569.0" width="157.2" height="40.0" rx="6" fill="white" stroke="#999999" stroke-width="1.0" opacity="0.92"/>
<polygon points="458.2,609.0 466.2,609.0 455.2,617.0" fill="white" stroke="#999999" stroke-width="0.8"/>
<line x1="457.7" y1="609.0" x2="466.7" y2="609.0" stroke="white" stroke-width="1.5"/>
<text x="417.0" y="586.0" font-size="11.0" fill="#999999" font-weight="700">SKEPTIC</text>
<text x="417.0" y="600.0" font-size="11.0" fill="#333333">Tom, you're not helping.</text>
<text x="759.0" y="449.0" text-anchor="end" font-size="12" font-weight="bold" fill="#888888" opacity="0.6">3</text>
<text x="765.0" y="791.0" text-anchor="end" font-size="9" fill="#888888" opacity="0.5">MCU</text>
<rect x="29.0" y="807.0" width="742.0" height="364.0" rx="2" fill="#f5f0e8" stroke="#2a2a2a" stroke-width="1.5"/>
<line x1="35.0" y1="1090.9" x2="765.0" y2="1090.9" stroke="#a89888" stroke-width="1.0" opacity="0.5"/>
<ellipse cx="400.0" cy="1092.9" rx="11.2" ry="2.7" fill="#a89888" opacity="0.2"/>
<line x1="397.3" y1="1075.2" x2="393.2" y2="1090.9" stroke="#e8dcc8" stroke-width="2" opacity="0.5"/>
<line x1="402.7" y1="1075.2" x2="406.8" y2="1090.9" stroke="#e8dcc8" stroke-width="2" opacity="0.5"/>
<line x1="400.0" y1="1062.1" x2="400.0" y2="1075.2" stroke="#e8dcc8" stroke-width="2.5" opacity="0.6"/>
<line x1="386.5" y1="1064.1" x2="413.5" y2="1064.1" stroke="#e8dcc8" stroke-width="2" opacity="0.5"/>
<line x1="386.5" y1="1064.1" x2="382.0" y2="1075.6" stroke="#e8dcc8" stroke-width="1.5" opacity="0.4"/>
<line x1="413.5" y1="1064.1" x2="418.0" y2="1075.6" stroke="#e8dcc8" stroke-width="1.5" opacity="0.4"/>
<circle cx="400.0" cy="1045.9" r="8.1" fill="#e8dcc8" opacity="0.6"/>
<rect x="35.0" y="815.0" width="411.3" height="40.0" rx="6" fill="white" stroke="#e8dcc8" stroke-width="1.0" opacity="0.92"/>
<polygon points="158.4,855.0 166.4,855.0 155.4,863.0" fill="white" stroke="#e8dcc8" stroke-width="0.8"/>
<line x1="157.9" y1="855.0" x2="166.9" y2="855.0" stroke="white" stroke-width="1.5"/>
<text x="41.0" y="832.0" font-size="11.0" fill="#e8dcc8" font-weight="700">CAPTION</text>
<text x="41.0" y="846.0" font-size="11.0" fill="#333333">*&quot;In the pub below, a man told a story about lights in the dark.&quot;*</text>
<rect x="486.8" y="865.0" width="278.2" height="40.0" rx="6" fill="white" stroke="#e8dcc8" stroke-width="1.0" opacity="0.92"/>
<polygon points="570.3,905.0 578.3,905.0 567.3,913.0" fill="white" stroke="#e8dcc8" stroke-width="0.8"/>
<line x1="569.8" y1="905.0" x2="578.8" y2="905.0" stroke="white" stroke-width="1.5"/>
<text x="492.8" y="882.0" font-size="11.0" fill="#e8dcc8" font-weight="700">CAPTION</text>
<text x="492.8" y="896.0" font-size="11.0" fill="#333333">*&quot;In the wall above, the lights burned on.&quot;*</text>
<text x="759.0" y="823.0" text-anchor="end" font-size="12" font-weight="bold" fill="#888888" opacity="0.6">4</text>
<text x="765.0" y="1165.0" text-anchor="end" font-size="9" fill="#888888" opacity="0.5">WIDE</text>
</svg>