<svg xmlns="http://www.w3.org/2000/svg" viewBox="0 0 800 1200" width="800" height="1200" style="background:#ffffff">
<style>
  text { font-family: "Helvetica Neue", Helvetica, Arial, sans-serif; }
</style>
<text x="400.0" y="22" text-anchor="middle" font-size="16" fill="#888888" font-weight="500">PAGE 4  (5 panels)</text>
<rect x="29.0" y="59.0" width="742.0" height="364.0" rx="2" fill="#f5f0e8" stroke="#2a2a2a" stroke-width="1.5"/>
<line x1="35.0" y1="342.9" x2="765.0" y2="342.9" stroke="#a89888" stroke-width="1.0" opacity="0.5"/>
<ellipse cx="214.5" cy="344.9" rx="11.2" ry="2.7" fill="#a89888" opacity="0.2"/>
<line x1="211.8" y1="327.2" x2="207.8" y2="342.9" stroke="#c87533" stroke-width="2" opacity="0.5"/>
<line x1="217.2" y1="327.2" x2="221.2" y2="342.9" stroke="#c87533" stroke-width="2" opacity="0.5"/>
<line x1="214.5" y1="314.1" x2="214.5" y2="327.2" stroke="#c87533" stroke-width="2.5" opacity="0.6"/>
<line x1="201.0" y1="316.1" x2="228.0" y2="316.1" stroke="#c87533" stroke-width="2" opacity="0.5"/>
<line x1="201.0" y1="316.1" x2="196.5" y2="327.6" stroke="#c87533" stroke-width="1.5" opacity="0.4"/>
<line x1="228.0" y1="316.1" x2="232.5" y2="327.6" stroke="#c87533" stroke-width="1.5" opacity="0.4"/>
<circle cx="214.5" cy="297.9" r="8.1" fill="#c87533" opacity="0.6"/>
<ellipse cx="400.0" cy="344.9" rx="11.2" ry="2.7" fill="#a89888" opacity="0.2"/>
<line x1="397.3" y1="327.2" x2="393.2" y2="342.9" stroke="#b0b0b0" stroke-width="2" opacity="0.5"/>
<line x1="402.7" y1="327.2" x2="406.8" y2="342.9" stroke="#b0b0b0" stroke-width="2" opacity="0.5"/>
<line x1="400.0" y1="314.1" x2="400.0" y2="327.2" stroke="#b0b0b0" stroke-width="2.5" opacity="0.6"/>
<line x1="386.5" y1="316.1" x2="413.5" y2="316.1" stroke="#b0b0b0" stroke-width="2" opacity="0.5"/>
<line x1="386.5" y1="316.1" x2="382.0" y2="327.6" stroke="#b0b0b0" stroke-width="1.5" opacity="0.4"/>
<line x1="413.5" y1="316.1" x2="418.0" y2="327.6" stroke="#b0b0b0" stroke-width="1.5" opacity="0.4"/>
<circle cx="400.0" cy="297.9" r="8.1" fill="#b0b0b0" opacity="0.6"/>
<ellipse cx="585.5" cy="344.9" rx="11.2" ry="2.7" fill="#a89888" opacity="0.2"/>
<line x1="582.8" y1="327.2" x2="578.8" y2="342.9" stroke="#2e8b57" stroke-width="2" opacity="0.5"/>
<line x1="588.2" y1="327.2" x2="592.2" y2="342.9" stroke="#2e8b57" stroke-width="2" opacity="0.5"/>
<line x1="585.5" y1="314.1" x2="585.5" y2="327.2" stroke="#2e8b57" stroke-width="2.5" opacity="0.6"/>
<line x1="572.0" y1="316.1" x2="599.0" y2="316.1" stroke="#2e8b57" stroke-width="2" opacity="0.5"/>
<line x1="572.0" y1="316.1" x2="567.5" y2="327.6" stroke="#2e8b57" stroke-width="1.5" opacity="0.4"/>
<line x1="599.0" y1="316.1" x2="603.5" y2="327.6" stroke="#2e8b57" stroke-width="1.5" opacity="0.4"/>
<circle cx="585.5" cy="297.9" r="8.1" fill="#2e8b57" opacity="0.6"/>
<rect x="35.0" y="67.0" width="381.1" height="40.0" rx="6" fill="white" stroke="#c87533" stroke-width="1.0" opacity="0.92"/>
<polygon points="149.3,107.0 157.3,107.0 146.3,115.0" fill="white" stroke="#c87533" stroke-width="0.8"/>
<line x1="148.8" y1="107.0" x2="157.8" y2="107.0" stroke="white" stroke-width="1.5"/>
<text x="41.0" y="84.0" font-size="11.0" fill="#c87533" font-weight="700">WREN</text>
<text x="41.0" y="98.0" font-size="11.0" fill="#333333">Next joint in three body-lengths. Good iron on the left wall.</text>
<rect x="619.9" y="117.0" width="145.1" height="40.0" rx="6" fill="white" stroke="#b0b0b0" stroke-width="1.0" opacity="0.92"/>
<polygon points="663.4,157.0 671.4,157.0 660.4,165.0" fill="white" stroke="#b0b0b0" stroke-width="0.8"/>
<line x1="662.9" y1="157.0" x2="671.9" y2="157.0" stroke="white" stroke-width="1.5"/>
<text x="625.9" y="134.0" font-size="11.0" fill="#b0b0b0" font-weight="700">SABLE</text>
<text x="625.9" y="148.0" font-size="11.0" fill="#333333">Jink. How's the water?</text>
<rect x="35.0" y="167.0" width="260.1" height="40.0" rx="6" fill="white" stroke="#2e8b57" stroke-width="1.0" opacity="0.92"/>
<polygon points="113.0,207.0 121.0,207.0 110.0,215.0" fill="white" stroke="#2e8b57" stroke-width="0.8"/>
<line x1="112.5" y1="207.0" x2="121.5" y2="207.0" stroke="white" stroke-width="1.5"/>
<text x="41.0" y="184.0" font-size="11.0" fill="#2e8b57" font-weight="700">JINK</text>
<text x="41.0" y="198.0" font-size="11.0" fill="#333333">Getting friendly. It's following us down.</text>
<text x="759.0" y="75.0" text-anchor="end" font-size="12" font-weight="bold" fill="#888888" opacity="0.6">1</text>
<text x="765.0" y="417.0" text-anchor="end" font-size="9" fill="#888888" opacity="0.5">WIDE</text>
<rect x="29.0" y="433.0" width="240.7" height="364.0" rx="2" fill="#f5f0e8" stroke="#2a2a2a" stroke-width="1.5"/>
<ellipse cx="149.3" cy="585.9" rx="96.3" ry="163.8" fill="#c87533" opacity="0.18"/>
<path d="M48.3,528.5 Q149.3,397.5 250.4,528.5" fill="none" stroke="#c87533" stroke-width="3" opacity="0.35"/>
<line x1="115.6" y1="549.8" x2="144.5" y2="547.8" stroke="#a89888" stroke-width="1.5" opacity="0.45"/>
<line x1="154.1" y1="547.8" x2="183.0" y2="549.8" stroke="#a89888" stroke-width="1.5" opacity="0.45"/>
<ellipse cx="122.4" cy="566.2" rx="11.6" ry="8.2" fill="#a89888" opacity="0.45"/>
<ellipse cx="176.3" cy="566.2" rx="11.6" ry="8.2" fill="#a89888" opacity="0.45"/>
<line x1="149.3" y1="589.2" x2="149.3" y2="615.4" stroke="#a89888" stroke-width="1.2" opacity="0.35"/>
<path d="M143.6,615.4 Q149.3,618.4 155.1,615.4" fill="none" stroke="#a89888" stroke-width="1" opacity="0.3"/>
<line x1="125.3" y1="638.3" x2="173.4" y2="638.3" stroke="#a89888" stroke-width="1.2" opacity="0.35"/>
<rect x="35.0" y="441.0" width="226.5" height="64.0" rx="6" fill="white" stroke="#c87533" stroke-width="1.0" opacity="0.92"/>
<polygon points="103.0,505.0 111.0,505.0 100.0,513.0" fill="white" stroke="#c87533" stroke-width="0.8"/>
<line x1="102.5" y1="505.0" x2="111.5" y2="505.0" stroke="white" stroke-width="1.5"/>
<text x="41.0" y="457.0" font-size="10.0" fill="#c87533" font-weight="700">WREN</text>
<text x="41.0" y="470.0" font-size="10.0" fill="#333333">Wall thickness drops at the next joint.</text>
<text x="41.0" y="483.0" font-size="10.0" fill="#333333">Rain exposure — fifty years of it. Go</text>
<text x="41.0" y="496.0" font-size="10.0" fill="#333333">slow.</text>
<text x="257.7" y="449.0" text-anchor="end" font-size="12" font-weight="bold" fill="#888888" opacity="0.6">2</text>
<text x="263.7" y="791.0" text-anchor="end" font-size="9" fill="#888888" opacity="0.5">CU</text>
<rect x="279.7" y="433.0" width="240.7" height="364.0" rx="2" fill="#f5f0e8" stroke="#2a2a2a" stroke-width="1.5"/>
<path d="M330.7,665.2 Q330.7,630.6 382.7,626.3 L417.3,626.3 Q469.3,630.6 469.3,665.2 L469.3,753.3 L330.7,753.3 Z" fill="#c0b8a8" opacity="0.25"/>
<path d="M384.8,626.3 L400.0,647.9 L415.2,626.3" fill="none" stroke="#c0b8a8" stroke-width="1" opacity="0.3"/>
<circle cx="400.0" cy="578.6" r="43.3" fill="#c0b8a8" opacity="0.35"/>
<path d="M356.7,587.3 Q363.2,626.3 400.0,628.4 Q436.8,626.3 443.3,587.3" fill="none" stroke="#c0b8a8" stroke-width="1.2" opacity="0.3"/>
<path d="M354.5,574.3 Q400.0,522.3 445.5,574.3" fill="none" stroke="#c0b8a8" stroke-width="2" opacity="0.4"/>
<ellipse cx="354.7" cy="580.8" rx="2.5" ry="4" fill="#c0b8a8" opacity="0.25"/>
<ellipse cx="445.3" cy="580.8" rx="2.5" ry="4" fill="#c0b8a8" opacity="0.25"/>
<text x="508.3" y="449.0" text-anchor="end" font-size="12" font-weight="bold" fill="#888888" opacity="0.6">3</text>
<text x="514.3" y="791.0" text-anchor="end" font-size="9" fill="#888888" opacity="0.5">MCU</text>
<rect x="530.3" y="433.0" width="240.7" height="364.0" rx="2" fill="#f5f0e8" stroke="#2a2a2a" stroke-width="1.5"/>
<path d="M604.3,695.1 L608.6,624.9 Q612.8,620.9 637.9,620.9 L663.5,620.9 Q688.6,620.9 692.8,624.9 L697.0,695.1 Z" fill="#2e8b57" opacity="0.35"/>
<line x1="608.6" y1="670.5" x2="692.8" y2="670.5" stroke="#2e8b57" stroke-width="1" opacity="0.3"/>
<line x1="608.6" y1="624.9" x2="591.7" y2="665.9" stroke="#2e8b57" stroke-width="2" opacity="0.3"/>
<line x1="591.7" y1="665.9" x2="604.3" y2="690.4" stroke="#2e8b57" stroke-width="2" opacity="0.3"/>
<line x1="692.8" y1="624.9" x2="709.6" y2="665.9" stroke="#2e8b57" stroke-width="2" opacity="0.3"/>
<line x1="709.6" y1="665.9" x2="697.0" y2="690.4" stroke="#2e8b57" stroke-width="2" opacity="0.3"/>
<line x1="650.7" y1="563.3" x2="650.7" y2="620.9" stroke="#2e8b57" stroke-width="3" opacity="0.35"/>
<circle cx="650.7" cy="531.3" r="32.0" fill="#2e8b57" opacity="0.4"/>
<rect x="536.3" y="441.0" width="221.0" height="38.0" rx="6" fill="white" stroke="#2e8b57" stroke-width="1.0" opacity="0.92"/>
<polygon points="602.6,479.0 610.6,479.0 599.6,487.0" fill="white" stroke="#2e8b57" stroke-width="0.8"/>
<line x1="602.1" y1="479.0" x2="611.1" y2="479.0" stroke="white" stroke-width="1.5"/>
<text x="542.3" y="457.0" font-size="10.0" fill="#2e8b57" font-weight="700">JINK</text>
<text x="542.3" y="470.0" font-size="10.0" fill="#333333">This is the best shower I've ever had!</text>
<rect x="687.0" y="489.0" width="78.0" height="38.0" rx="6" fill="white" stroke="#b0b0b0" stroke-width="1.0" opacity="0.92"/>
<polygon points="710.4,527.0 718.4,527.0 707.4,535.0" fill="white" stroke="#b0b0b0" stroke-width="0.8"/>
<line x1="709.9" y1="527.0" x2="718.9" y2="527.0" stroke="white" stroke-width="1.5"/>
<text x="693.0" y="505.0" font-size="10.0" fill="#b0b0b0" font-weight="700">SABLE</text>
<text x="693.0" y="518.0" font-size="10.0" fill="#333333">Jink. Focus.</text>
<rect x="536.3" y="537.0" width="149.5" height="38.0" rx="6" fill="white" stroke="#2e8b57" stroke-width="1.0" opacity="0.92"/>
<polygon points="581.2,575.0 589.2,575.0 578.2,583.0" fill="white" stroke="#2e8b57" stroke-width="0.8"/>
<line x1="580.7" y1="575.0" x2="589.7" y2="575.0" stroke="white" stroke-width="1.5"/>
<text x="542.3" y="553.0" font-size="10.0" fill="#2e8b57" font-weight="700">JINK</text>
<text x="542.3" y="566.0" font-size="10.0" fill="#333333">Focused! Happily focused!</text>
<text x="759.0" y="449.0" text-anchor="end" font-size="12" font-weight="bold" fill="#888888" opacity="0.6">4</text>
<text x="765.0" y="791.0" text-anchor="end" font-size="9" fill="#888888" opacity="0.5">MED</text>
<rect x="29.0" y="807.0" width="742.0" height="364.0" rx="2" fill="#f5f0e8" stroke="#2a2a2a" stroke-width="1.5"/>
<line x1="35.0" y1="1090.9" x2="765.0" y2="1090.9" stroke="#a89888" stroke-width="1.0" opacity="0.5"/>
<ellipse cx="400.0" cy="1092.9" rx="11.2" ry="2.7" fill="#a89888" opacity="0.2"/>
<line x1="397.3" y1="1075.2" x2="393.2" y2="1090.9" stroke="#999999" stroke-width="2" opacity="0.5"/>
<line x1="402.7" y1="1075.2" x2="406.8" y2="1090.9" stroke="#999999" stroke-width="2" opacity="0.5"/>
<line x1="400.0" y1="1062.1" x2="400.0" y2="1075.2" stroke="#999999" stroke-width="2.5" opacity="0.6"/>
<line x1="386.5" y1="1064.1" x2="413.5" y2="1064.1" stroke="#999999" stroke-width="2" opacity="0.5"/>
<line x1="386.5" y1="1064.1" x2="382.0" y2="1075.6" stroke="#999999" stroke-width="1.5" opacity="0.4"/>
<line x1="413.5" y1="1064.1" x2="418.0" y2="1075.6" stroke="#999999" stroke-width="1.5" opacity="0.4"/>
<circle cx="400.0" cy="1045.9" r="8.1" fill="#999999" opacity="0.6"/>
<rect x="35.0" y="815.0" width="193.5" height="40.0" rx="6" fill="white" stroke="#999999" stroke-width="1.0" opacity="0.92"/>
<polygon points="93.1,855.0 101.1,855.0 90.1,863.0" fill="white" stroke="#999999" stroke-width="0.8"/>
<line x1="92.6" y1="855.0" x2="101.6" y2="855.0" stroke="white" stroke-width="1.5"/>
<text x="41.0" y="832.0" font-size="11.0" fill="#999999" font-weight="700">SFX</text>
<text x="41.0" y="846.0" font-size="11.0" fill="#333333">**SHHHHHHH** (water, constant)</text>
<rect x="35.0" y="865.0" width="181.4" height="40.0" rx="2" fill="#f5ecd8" stroke="#c8b898" stroke-width="0.8" opacity="0.92"/>
<text x="41.0" y="882.0" font-size="11.0" fill="#5a4a30" font-style="italic" font-weight="500">CAPTION</text>
<text x="41.0" y="896.0" font-size="11.0" fill="#5a4a30" font-style="italic">One block down. Three to go.</text>
<text x="759.0" y="823.0" text-anchor="end" font-size="12" font-weight="bold" fill="#888888" opacity="0.6">5</text>
<text x="765.0" y="1165.0" text-anchor="end" font-size="9" fill="#888888" opacity="0.5">WIDE</text>
</svg>