<svg xmlns="http://www.w3.org/2000/svg" viewBox="0 0 800 1200" width="800" height="1200" style="background:#ffffff">
<style>
  text { font-family: "Helvetica Neue", Helvetica, Arial, sans-serif; }
</style>
<text x="400.0" y="22" text-anchor="middle" font-size="16" fill="#888888" font-weight="500">PAGE 3  (5 panels)</text>
<rect x="29.0" y="59.0" width="493.8" height="364.0" rx="2" fill="#f5f0e8" stroke="#2a2a2a" stroke-width="1.5"/>
<path d="M217.4,321.1 L222.7,274.6 Q228.0,270.6 259.7,270.6 L292.1,270.6 Q323.8,270.6 329.2,274.6 L334.5,321.1 Z" fill="#c87533" opacity="0.35"/>
<line x1="222.7" y1="296.5" x2="329.2" y2="296.5" stroke="#c87533" stroke-width="1" opacity="0.3"/>
<line x1="222.7" y1="274.6" x2="201.4" y2="315.5" stroke="#c87533" stroke-width="2" opacity="0.3"/>
<line x1="201.4" y1="315.5" x2="217.4" y2="340.1" stroke="#c87533" stroke-width="2" opacity="0.3"/>
<line x1="329.2" y1="274.6" x2="350.4" y2="315.5" stroke="#c87533" stroke-width="2" opacity="0.3"/>
<line x1="350.4" y1="315.5" x2="334.5" y2="340.1" stroke="#c87533" stroke-width="2" opacity="0.3"/>
<line x1="275.9" y1="197.7" x2="275.9" y2="270.6" stroke="#c87533" stroke-width="3" opacity="0.35"/>
<circle cx="275.9" cy="157.3" r="40.5" fill="#c87533" opacity="0.4"/>
<rect x="35.0" y="67.0" width="481.8" height="54.0" rx="6" fill="white" stroke="#c87533" stroke-width="1.0" opacity="0.92"/>
<polygon points="179.6,121.0 187.6,121.0 176.6,129.0" fill="white" stroke="#c87533" stroke-width="0.8"/>
<line x1="179.1" y1="121.0" x2="188.1" y2="121.0" stroke="white" stroke-width="1.5"/>
<text x="41.0" y="84.0" font-size="11.0" fill="#c87533" font-weight="700">WREN</text>
<text x="41.0" y="98.0" font-size="11.0" fill="#333333">First joint is two body-lengths down. The iron's pitted — good grip. Watch the</text>
<text x="41.0" y="112.0" font-size="11.0" fill="#333333">seam on your left, it's corroded.</text>
<rect x="454.8" y="131.0" width="62.0" height="40.0" rx="6" fill="white" stroke="#b22222" stroke-width="1.0" opacity="0.92"/>
<polygon points="473.4,171.0 481.4,171.0 470.4,179.0" fill="white" stroke="#b22222" stroke-width="0.8"/>
<line x1="472.9" y1="171.0" x2="481.9" y2="171.0" stroke="white" stroke-width="1.5"/>
<text x="460.8" y="148.0" font-size="11.0" fill="#b22222" font-weight="700">THRESH</text>
<text x="460.8" y="162.0" font-size="11.0" fill="#333333">Copy.</text>
<text x="510.8" y="75.0" text-anchor="end" font-size="12" font-weight="bold" fill="#888888" opacity="0.6">1</text>
<text x="516.8" y="417.0" text-anchor="end" font-size="9" fill="#888888" opacity="0.5">MW</text>
<rect x="532.8" y="59.0" width="238.2" height="364.0" rx="2" fill="#f5f0e8" stroke="#2a2a2a" stroke-width="1.5"/>
<ellipse cx="651.9" cy="211.9" rx="95.3" ry="163.8" fill="#b22222" opacity="0.18"/>
<path d="M551.9,154.6 Q651.9,23.5 751.9,154.6" fill="none" stroke="#b22222" stroke-width="3" opacity="0.35"/>
<line x1="618.6" y1="175.8" x2="647.2" y2="173.8" stroke="#a89888" stroke-width="1.5" opacity="0.45"/>
<line x1="656.7" y1="173.8" x2="685.3" y2="175.8" stroke="#a89888" stroke-width="1.5" opacity="0.45"/>
<ellipse cx="625.2" cy="192.2" rx="11.4" ry="8.2" fill="#a89888" opacity="0.45"/>
<ellipse cx="678.6" cy="192.2" rx="11.4" ry="8.2" fill="#a89888" opacity="0.45"/>
<line x1="651.9" y1="215.2" x2="651.9" y2="241.4" stroke="#a89888" stroke-width="1.2" opacity="0.35"/>
<path d="M646.2,241.4 Q651.9,244.4 657.6,241.4" fill="none" stroke="#a89888" stroke-width="1" opacity="0.3"/>
<line x1="628.1" y1="264.3" x2="675.7" y2="264.3" stroke="#a89888" stroke-width="1.2" opacity="0.35"/>
<rect x="538.8" y="67.0" width="193.5" height="38.0" rx="6" fill="white" stroke="#b22222" stroke-width="1.0" opacity="0.92"/>
<polygon points="596.9,105.0 604.9,105.0 593.9,113.0" fill="white" stroke="#b22222" stroke-width="0.8"/>
<line x1="596.4" y1="105.0" x2="605.4" y2="105.0" stroke="white" stroke-width="1.5"/>
<text x="544.8" y="83.0" font-size="10.0" fill="#b22222" font-weight="700">THRESH</text>
<text x="544.8" y="96.0" font-size="10.0" fill="#333333">One joint. Two joint. Just rungs.</text>
<text x="759.0" y="75.0" text-anchor="end" font-size="12" font-weight="bold" fill="#888888" opacity="0.6">2</text>
<text x="765.0" y="417.0" text-anchor="end" font-size="9" fill="#888888" opacity="0.5">CU</text>
<rect x="29.0" y="433.0" width="742.0" height="364.0" rx="2" fill="#f5f0e8" stroke="#2a2a2a" stroke-width="1.5"/>
<line x1="35.0" y1="716.9" x2="765.0" y2="716.9" stroke="#a89888" stroke-width="1.0" opacity="0.5"/>
<ellipse cx="214.5" cy="718.9" rx="11.2" ry="2.7" fill="#a89888" opacity="0.2"/>
<line x1="211.8" y1="701.2" x2="207.8" y2="716.9" stroke="#999999" stroke-width="2" opacity="0.5"/>
<line x1="217.2" y1="701.2" x2="221.2" y2="716.9" stroke="#999999" stroke-width="2" opacity="0.5"/>
<line x1="214.5" y1="688.1" x2="214.5" y2="701.2" stroke="#999999" stroke-width="2.5" opacity="0.6"/>
<line x1="201.0" y1="690.1" x2="228.0" y2="690.1" stroke="#999999" stroke-width="2" opacity="0.5"/>
<line x1="201.0" y1="690.1" x2="196.5" y2="701.6" stroke="#999999" stroke-width="1.5" opacity="0.4"/>
<line x1="228.0" y1="690.1" x2="232.5" y2="701.6" stroke="#999999" stroke-width="1.5" opacity="0.4"/>
<circle cx="214.5" cy="671.9" r="8.1" fill="#999999" opacity="0.6"/>
<ellipse cx="400.0" cy="718.9" rx="11.2" ry="2.7" fill="#a89888" opacity="0.2"/>
<line x1="397.3" y1="701.2" x2="393.2" y2="716.9" stroke="#2e8b57" stroke-width="2" opacity="0.5"/>
<line x1="402.7" y1="701.2" x2="406.8" y2="716.9" stroke="#2e8b57" stroke-width="2" opacity="0.5"/>
<line x1="400.0" y1="688.1" x2="400.0" y2="701.2" stroke="#2e8b57" stroke-width="2.5" opacity="0.6"/>
<line x1="386.5" y1="690.1" x2="413.5" y2="690.1" stroke="#2e8b57" stroke-width="2" opacity="0.5"/>
<line x1="386.5" y1="690.1" x2="382.0" y2="701.6" stroke="#2e8b57" stroke-width="1.5" opacity="0.4"/>
<line x1="413.5" y1="690.1" x2="418.0" y2="701.6" stroke="#2e8b57" stroke-width="1.5" opacity="0.4"/>
<circle cx="400.0" cy="671.9" r="8.1" fill="#2e8b57" opacity="0.6"/>
<ellipse cx="585.5" cy="718.9" rx="11.2" ry="2.7" fill="#a89888" opacity="0.2"/>
<line x1="582.8" y1="701.2" x2="578.8" y2="716.9" stroke="#6a5acd" stroke-width="2" opacity="0.5"/>
<line x1="588.2" y1="701.2" x2="592.2" y2="716.9" stroke="#6a5acd" stroke-width="2" opacity="0.5"/>
<line x1="585.5" y1="688.1" x2="585.5" y2="701.2" stroke="#6a5acd" stroke-width="2.5" opacity="0.6"/>
<line x1="572.0" y1="690.1" x2="599.0" y2="690.1" stroke="#6a5acd" stroke-width="2" opacity="0.5"/>
<line x1="572.0" y1="690.1" x2="567.5" y2="701.6" stroke="#6a5acd" stroke-width="1.5" opacity="0.4"/>
<line x1="599.0" y1="690.1" x2="603.5" y2="701.6" stroke="#6a5acd" stroke-width="1.5" opacity="0.4"/>
<circle cx="585.5" cy="671.9" r="8.1" fill="#6a5acd" opacity="0.6"/>
<rect x="35.0" y="441.0" width="181.4" height="40.0" rx="6" fill="white" stroke="#999999" stroke-width="1.0" opacity="0.92"/>
<polygon points="89.4,481.0 97.4,481.0 86.4,489.0" fill="white" stroke="#999999" stroke-width="0.8"/>
<line x1="88.9" y1="481.0" x2="97.9" y2="481.0" stroke="white" stroke-width="1.5"/>
<text x="41.0" y="458.0" font-size="11.0" fill="#999999" font-weight="700">SFX</text>
<text x="41.0" y="472.0" font-size="11.0" fill="#333333">**THWACK** (raindrop impact)</text>
<rect x="559.4" y="491.0" width="205.6" height="40.0" rx="6" fill="white" stroke="#2e8b57" stroke-width="1.0" opacity="0.92"/>
<polygon points="621.1,531.0 629.1,531.0 618.1,539.0" fill="white" stroke="#2e8b57" stroke-width="0.8"/>
<line x1="620.6" y1="531.0" x2="629.6" y2="531.0" stroke="white" stroke-width="1.5"/>
<text x="565.4" y="508.0" font-size="11.0" fill="#2e8b57" font-weight="700">JINK</text>
<text x="565.4" y="522.0" font-size="11.0" fill="#333333">Ha! They're the size of my HEAD.</text>
<rect x="35.0" y="541.0" width="338.7" height="40.0" rx="6" fill="white" stroke="#6a5acd" stroke-width="1.0" opacity="0.92"/>
<polygon points="136.6,581.0 144.6,581.0 133.6,589.0" fill="white" stroke="#6a5acd" stroke-width="0.8"/>
<line x1="136.1" y1="581.0" x2="145.1" y2="581.0" stroke="white" stroke-width="1.5"/>
<text x="41.0" y="558.0" font-size="11.0" fill="#6a5acd" font-weight="700">LUMA</text>
<text x="41.0" y="572.0" font-size="11.0" fill="#333333">The gutter will flood. We need to be in the pipe. Now.</text>
<text x="759.0" y="449.0" text-anchor="end" font-size="12" font-weight="bold" fill="#888888" opacity="0.6">3</text>
<text x="765.0" y="791.0" text-anchor="end" font-size="9" fill="#888888" opacity="0.5">WIDE</text>
<rect x="29.0" y="807.0" width="366.0" height="364.0" rx="2" fill="#f5f0e8" stroke="#2a2a2a" stroke-width="1.5"/>
<path d="M153.4,1069.1 L158.8,1022.6 Q164.1,1018.6 195.8,1018.6 L228.2,1018.6 Q259.9,1018.6 265.2,1022.6 L270.6,1069.1 Z" fill="#b0b0b0" opacity="0.35"/>
<line x1="158.8" y1="1044.5" x2="265.2" y2="1044.5" stroke="#b0b0b0" stroke-width="1" opacity="0.3"/>
<line x1="158.8" y1="1022.6" x2="137.5" y2="1063.5" stroke="#b0b0b0" stroke-width="2" opacity="0.3"/>
<line x1="137.5" y1="1063.5" x2="153.4" y2="1088.1" stroke="#b0b0b0" stroke-width="2" opacity="0.3"/>
<line x1="265.2" y1="1022.6" x2="286.5" y2="1063.5" stroke="#b0b0b0" stroke-width="2" opacity="0.3"/>
<line x1="286.5" y1="1063.5" x2="270.6" y2="1088.1" stroke="#b0b0b0" stroke-width="2" opacity="0.3"/>
<line x1="212.0" y1="945.7" x2="212.0" y2="1018.6" stroke="#b0b0b0" stroke-width="3" opacity="0.35"/>
<circle cx="212.0" cy="905.3" r="40.5" fill="#b0b0b0" opacity="0.4"/>
<rect x="35.0" y="815.0" width="114.9" height="40.0" rx="6" fill="white" stroke="#b0b0b0" stroke-width="1.0" opacity="0.92"/>
<polygon points="69.5,855.0 77.5,855.0 66.5,863.0" fill="white" stroke="#b0b0b0" stroke-width="0.8"/>
<line x1="69.0" y1="855.0" x2="78.0" y2="855.0" stroke="white" stroke-width="1.5"/>
<text x="41.0" y="832.0" font-size="11.0" fill="#b0b0b0" font-weight="700">SABLE</text>
<text x="41.0" y="846.0" font-size="11.0" fill="#333333">Jink. Luma. Move.</text>
<text x="383.0" y="823.0" text-anchor="end" font-size="12" font-weight="bold" fill="#888888" opacity="0.6">4</text>
<text x="389.0" y="1165.0" text-anchor="end" font-size="9" fill="#888888" opacity="0.5">MED</text>
<rect x="405.0" y="807.0" width="366.0" height="364.0" rx="2" fill="#f5f0e8" stroke="#2a2a2a" stroke-width="1.5"/>
<line x1="413.0" y1="934.4" x2="763.0" y2="934.4" stroke="#a89888" stroke-width="0.6" opacity="0.2"/>
<line x1="588.0" y1="934.4" x2="441.6" y2="1134.6" stroke="#a89888" stroke-width="0.8" opacity="0.25"/>
<line x1="588.0" y1="934.4" x2="514.8" y2="1134.6" stroke="#a89888" stroke-width="0.8" opacity="0.25"/>
<line x1="588.0" y1="934.4" x2="562.4" y2="1134.6" stroke="#a89888" stroke-width="0.8" opacity="0.25"/>
<line x1="588.0" y1="934.4" x2="613.6" y2="1134.6" stroke="#a89888" stroke-width="0.8" opacity="0.25"/>
<line x1="588.0" y1="934.4" x2="661.2" y2="1134.6" stroke="#a89888" stroke-width="0.8" opacity="0.25"/>
<line x1="588.0" y1="934.4" x2="734.4" y2="1134.6" stroke="#a89888" stroke-width="0.8" opacity="0.25"/>
<circle cx="588.0" cy="934.4" r="3" fill="#a89888" opacity="0.3"/>
<rect x="411.0" y="815.0" width="169.3" height="40.0" rx="6" fill="white" stroke="#2e8b57" stroke-width="1.0" opacity="0.92"/>
<polygon points="461.8,855.0 469.8,855.0 458.8,863.0" fill="white" stroke="#2e8b57" stroke-width="0.8"/>
<line x1="461.3" y1="855.0" x2="470.3" y2="855.0" stroke="white" stroke-width="1.5"/>
<text x="417.0" y="832.0" font-size="11.0" fill="#2e8b57" font-weight="700">JINK</text>
<text x="417.0" y="846.0" font-size="11.0" fill="#333333">*&quot;Okay. So it does that.&quot;*</text>
<text x="759.0" y="823.0" text-anchor="end" font-size="12" font-weight="bold" fill="#888888" opacity="0.6">5</text>
<text x="765.0" y="1165.0" text-anchor="end" font-size="9" fill="#888888" opacity="0.5">POV</text>
</svg>