<svg xmlns="http://www.w3.org/2000/svg" viewBox="0 0 800 1200" width="800" height="1200" style="background:#ffffff">
<style>
  text { font-family: "Helvetica Neue", Helvetica, Arial, sans-serif; }
</style>
<text x="400.0" y="22" text-anchor="middle" font-size="16" fill="#888888" font-weight="500">PAGE 12  (5 panels)</text>
<rect x="29.0" y="59.0" width="742.0" height="364.0" rx="2" fill="#f5f0e8" stroke="#2a2a2a" stroke-width="1.5"/>
<line x1="35.0" y1="342.9" x2="765.0" y2="342.9" stroke="#a89888" stroke-width="1.0" opacity="0.5"/>
<ellipse cx="276.3" cy="344.9" rx="11.2" ry="2.7" fill="#a89888" opacity="0.2"/>
<line x1="273.6" y1="327.2" x2="269.6" y2="342.9" stroke="#b0b0b0" stroke-width="2" opacity="0.5"/>
<line x1="279.0" y1="327.2" x2="283.1" y2="342.9" stroke="#b0b0b0" stroke-width="2" opacity="0.5"/>
<line x1="276.3" y1="314.1" x2="276.3" y2="327.2" stroke="#b0b0b0" stroke-width="2.5" opacity="0.6"/>
<line x1="262.8" y1="316.1" x2="289.8" y2="316.1" stroke="#b0b0b0" stroke-width="2" opacity="0.5"/>
<line x1="262.8" y1="316.1" x2="258.3" y2="327.6" stroke="#b0b0b0" stroke-width="1.5" opacity="0.4"/>
<line x1="289.8" y1="316.1" x2="294.3" y2="327.6" stroke="#b0b0b0" stroke-width="1.5" opacity="0.4"/>
<circle cx="276.3" cy="297.9" r="8.1" fill="#b0b0b0" opacity="0.6"/>
<ellipse cx="523.7" cy="344.9" rx="11.2" ry="2.7" fill="#a89888" opacity="0.2"/>
<line x1="521.0" y1="327.2" x2="516.9" y2="342.9" stroke="#c87533" stroke-width="2" opacity="0.5"/>
<line x1="526.4" y1="327.2" x2="530.4" y2="342.9" stroke="#c87533" stroke-width="2" opacity="0.5"/>
<line x1="523.7" y1="314.1" x2="523.7" y2="327.2" stroke="#c87533" stroke-width="2.5" opacity="0.6"/>
<line x1="510.2" y1="316.1" x2="537.2" y2="316.1" stroke="#c87533" stroke-width="2" opacity="0.5"/>
<line x1="510.2" y1="316.1" x2="505.7" y2="327.6" stroke="#c87533" stroke-width="1.5" opacity="0.4"/>
<line x1="537.2" y1="316.1" x2="541.7" y2="327.6" stroke="#c87533" stroke-width="1.5" opacity="0.4"/>
<circle cx="523.7" cy="297.9" r="8.1" fill="#c87533" opacity="0.6"/>
<rect x="35.0" y="67.0" width="205.6" height="40.0" rx="6" fill="white" stroke="#b0b0b0" stroke-width="1.0" opacity="0.92"/>
<polygon points="96.7,107.0 104.7,107.0 93.7,115.0" fill="white" stroke="#b0b0b0" stroke-width="0.8"/>
<line x1="96.2" y1="107.0" x2="105.2" y2="107.0" stroke="white" stroke-width="1.5"/>
<text x="41.0" y="84.0" font-size="11.0" fill="#b0b0b0" font-weight="700">SABLE</text>
<text x="41.0" y="98.0" font-size="11.0" fill="#333333">That's the primary hull section.</text>
<rect x="377.9" y="117.0" width="387.1" height="40.0" rx="6" fill="white" stroke="#c87533" stroke-width="1.0" opacity="0.92"/>
<polygon points="494.0,157.0 502.0,157.0 491.0,165.0" fill="white" stroke="#c87533" stroke-width="0.8"/>
<line x1="493.5" y1="157.0" x2="502.5" y2="157.0" stroke="white" stroke-width="1.5"/>
<text x="383.9" y="134.0" font-size="11.0" fill="#c87533" font-weight="700">WREN</text>
<text x="383.9" y="148.0" font-size="11.0" fill="#333333">I can see the drive housing from here. Give me twenty minutes.</text>
<text x="759.0" y="75.0" text-anchor="end" font-size="12" font-weight="bold" fill="#888888" opacity="0.6">1</text>
<text x="765.0" y="417.0" text-anchor="end" font-size="9" fill="#888888" opacity="0.5">EST</text>
<rect x="29.0" y="433.0" width="366.0" height="364.0" rx="2" fill="#f5f0e8" stroke="#2a2a2a" stroke-width="1.5"/>
<path d="M153.4,695.1 L158.8,648.6 Q164.1,644.6 195.8,644.6 L228.2,644.6 Q259.9,644.6 265.2,648.6 L270.6,695.1 Z" fill="#c87533" opacity="0.35"/>
<line x1="158.8" y1="670.5" x2="265.2" y2="670.5" stroke="#c87533" stroke-width="1" opacity="0.3"/>
<line x1="158.8" y1="648.6" x2="137.5" y2="689.5" stroke="#c87533" stroke-width="2" opacity="0.3"/>
<line x1="137.5" y1="689.5" x2="153.4" y2="714.1" stroke="#c87533" stroke-width="2" opacity="0.3"/>
<line x1="265.2" y1="648.6" x2="286.5" y2="689.5" stroke="#c87533" stroke-width="2" opacity="0.3"/>
<line x1="286.5" y1="689.5" x2="270.6" y2="714.1" stroke="#c87533" stroke-width="2" opacity="0.3"/>
<line x1="212.0" y1="571.7" x2="212.0" y2="644.6" stroke="#c87533" stroke-width="3" opacity="0.35"/>
<circle cx="212.0" cy="531.3" r="40.5" fill="#c87533" opacity="0.4"/>
<rect x="35.0" y="441.0" width="354.0" height="68.0" rx="6" fill="white" stroke="#c87533" stroke-width="1.0" opacity="0.92"/>
<polygon points="141.2,509.0 149.2,509.0 138.2,517.0" fill="white" stroke="#c87533" stroke-width="0.8"/>
<line x1="140.7" y1="509.0" x2="149.7" y2="509.0" stroke="white" stroke-width="1.5"/>
<text x="41.0" y="458.0" font-size="11.0" fill="#c87533" font-weight="700">WREN</text>
<text x="41.0" y="472.0" font-size="11.0" fill="#333333">Sable. I need everyone clear of the drive housing. If the</text>
<text x="41.0" y="486.0" font-size="11.0" fill="#333333">core containment failed, we're standing in a radiation</text>
<text x="41.0" y="500.0" font-size="11.0" fill="#333333">zone.</text>
<text x="383.0" y="449.0" text-anchor="end" font-size="12" font-weight="bold" fill="#888888" opacity="0.6">2</text>
<text x="389.0" y="791.0" text-anchor="end" font-size="9" fill="#888888" opacity="0.5">MED</text>
<rect x="405.0" y="433.0" width="366.0" height="364.0" rx="2" fill="#f5f0e8" stroke="#2a2a2a" stroke-width="1.5"/>
<path d="M486.1,706.0 Q486.1,655.0 562.5,648.7 L613.5,648.7 Q689.9,655.0 689.9,706.0 L689.9,753.3 L486.1,753.3 Z" fill="#2e8b57" opacity="0.25"/>
<path d="M565.7,648.7 L588.0,680.5 L610.3,648.7" fill="none" stroke="#2e8b57" stroke-width="1" opacity="0.3"/>
<circle cx="588.0" cy="578.6" r="63.7" fill="#2e8b57" opacity="0.35"/>
<path d="M524.3,591.3 Q533.9,648.7 588.0,651.9 Q642.1,648.7 651.7,591.3" fill="none" stroke="#2e8b57" stroke-width="1.2" opacity="0.3"/>
<path d="M521.1,572.2 Q588.0,495.8 654.9,572.2" fill="none" stroke="#2e8b57" stroke-width="2" opacity="0.4"/>
<ellipse cx="522.3" cy="581.8" rx="2.5" ry="4" fill="#2e8b57" opacity="0.25"/>
<ellipse cx="653.7" cy="581.8" rx="2.5" ry="4" fill="#2e8b57" opacity="0.25"/>
<rect x="411.0" y="441.0" width="290.3" height="40.0" rx="6" fill="white" stroke="#2e8b57" stroke-width="1.0" opacity="0.92"/>
<polygon points="498.1,481.0 506.1,481.0 495.1,489.0" fill="white" stroke="#2e8b57" stroke-width="0.8"/>
<line x1="497.6" y1="481.0" x2="506.6" y2="481.0" stroke="white" stroke-width="1.5"/>
<text x="417.0" y="458.0" font-size="11.0" fill="#2e8b57" font-weight="700">JINK</text>
<text x="417.0" y="472.0" font-size="11.0" fill="#333333">If the core blew, wouldn't we already be dead?</text>
<rect x="420.2" y="491.0" width="344.8" height="54.0" rx="6" fill="white" stroke="#6a5acd" stroke-width="1.0" opacity="0.92"/>
<polygon points="523.7,545.0 531.7,545.0 520.7,553.0" fill="white" stroke="#6a5acd" stroke-width="0.8"/>
<line x1="523.2" y1="545.0" x2="532.2" y2="545.0" stroke="white" stroke-width="1.5"/>
<text x="426.2" y="508.0" font-size="11.0" fill="#6a5acd" font-weight="700">LUMA</text>
<text x="426.2" y="522.0" font-size="11.0" fill="#333333">Depends on the failure mode. Temporal radiation doesn't</text>
<text x="426.2" y="536.0" font-size="11.0" fill="#333333">always announce itself.</text>
<rect x="411.0" y="555.0" width="66.5" height="40.0" rx="6" fill="white" stroke="#2e8b57" stroke-width="1.0" opacity="0.92"/>
<polygon points="430.9,595.0 438.9,595.0 427.9,603.0" fill="white" stroke="#2e8b57" stroke-width="0.8"/>
<line x1="430.4" y1="595.0" x2="439.4" y2="595.0" stroke="white" stroke-width="1.5"/>
<text x="417.0" y="572.0" font-size="11.0" fill="#2e8b57" font-weight="700">JINK</text>
<text x="417.0" y="586.0" font-size="11.0" fill="#333333">...great.</text>
<text x="759.0" y="449.0" text-anchor="end" font-size="12" font-weight="bold" fill="#888888" opacity="0.6">3</text>
<text x="765.0" y="791.0" text-anchor="end" font-size="9" fill="#888888" opacity="0.5">MCU</text>
<rect x="29.0" y="807.0" width="493.8" height="364.0" rx="2" fill="#f5f0e8" stroke="#2a2a2a" stroke-width="1.5"/>
<ellipse cx="275.9" cy="959.9" rx="114.7" ry="163.8" fill="#c87533" opacity="0.18"/>
<path d="M155.5,902.5 Q275.9,771.5 396.3,902.5" fill="none" stroke="#c87533" stroke-width="3" opacity="0.35"/>
<line x1="235.8" y1="923.8" x2="270.2" y2="921.8" stroke="#a89888" stroke-width="1.5" opacity="0.45"/>
<line x1="281.7" y1="921.8" x2="316.1" y2="923.8" stroke="#a89888" stroke-width="1.5" opacity="0.45"/>
<ellipse cx="243.8" cy="940.2" rx="13.8" ry="8.2" fill="#a89888" opacity="0.45"/>
<ellipse cx="308.0" cy="940.2" rx="13.8" ry="8.2" fill="#a89888" opacity="0.45"/>
<line x1="275.9" y1="963.2" x2="275.9" y2="989.4" stroke="#a89888" stroke-width="1.2" opacity="0.35"/>
<path d="M269.0,989.4 Q275.9,992.4 282.8,989.4" fill="none" stroke="#a89888" stroke-width="1" opacity="0.3"/>
<line x1="247.3" y1="1012.3" x2="304.6" y2="1012.3" stroke="#a89888" stroke-width="1.2" opacity="0.35"/>
<rect x="35.0" y="815.0" width="369.0" height="40.0" rx="6" fill="white" stroke="#c87533" stroke-width="1.0" opacity="0.92"/>
<polygon points="145.7,855.0 153.7,855.0 142.7,863.0" fill="white" stroke="#c87533" stroke-width="0.8"/>
<line x1="145.2" y1="855.0" x2="154.2" y2="855.0" stroke="white" stroke-width="1.5"/>
<text x="41.0" y="832.0" font-size="11.0" fill="#c87533" font-weight="700">WREN</text>
<text x="41.0" y="846.0" font-size="11.0" fill="#333333">Core containment is intact. No radiation. You can approach.</text>
<rect x="256.8" y="865.0" width="260.1" height="40.0" rx="6" fill="white" stroke="#c87533" stroke-width="1.0" opacity="0.92"/>
<polygon points="334.8,905.0 342.8,905.0 331.8,913.0" fill="white" stroke="#c87533" stroke-width="0.8"/>
<line x1="334.3" y1="905.0" x2="343.3" y2="905.0" stroke="white" stroke-width="1.5"/>
<text x="262.8" y="882.0" font-size="11.0" fill="#c87533" font-weight="700">WREN</text>
<text x="262.8" y="896.0" font-size="11.0" fill="#333333">The core held. That's the only good news.</text>
<text x="510.8" y="823.0" text-anchor="end" font-size="12" font-weight="bold" fill="#888888" opacity="0.6">4</text>
<text x="516.8" y="1165.0" text-anchor="end" font-size="9" fill="#888888" opacity="0.5">CU</text>
<rect x="532.8" y="807.0" width="238.2" height="364.0" rx="2" fill="#f5f0e8" stroke="#2a2a2a" stroke-width="1.5"/>
<path d="M606.1,1069.1 L610.2,998.0 Q614.4,994.0 639.2,994.0 L664.6,994.0 Q689.4,994.0 693.6,998.0 L697.8,1069.1 Z" fill="#c87533" opacity="0.35"/>
<line x1="610.2" y1="1044.5" x2="693.6" y2="1044.5" stroke="#c87533" stroke-width="1" opacity="0.3"/>
<line x1="610.2" y1="998.0" x2="593.6" y2="1038.9" stroke="#c87533" stroke-width="2" opacity="0.3"/>
<line x1="593.6" y1="1038.9" x2="606.1" y2="1063.5" stroke="#c87533" stroke-width="2" opacity="0.3"/>
<line x1="693.6" y1="998.0" x2="710.3" y2="1038.9" stroke="#c87533" stroke-width="2" opacity="0.3"/>
<line x1="710.3" y1="1038.9" x2="697.8" y2="1063.5" stroke="#c87533" stroke-width="2" opacity="0.3"/>
<line x1="651.9" y1="937.0" x2="651.9" y2="994.0" stroke="#c87533" stroke-width="3" opacity="0.35"/>
<circle cx="651.9" cy="905.3" r="31.7" fill="#c87533" opacity="0.4"/>
<rect x="538.8" y="815.0" width="210.0" height="51.0" rx="6" fill="white" stroke="#c87533" stroke-width="1.0" opacity="0.92"/>
<polygon points="601.8,866.0 609.8,866.0 598.8,874.0" fill="white" stroke="#c87533" stroke-width="0.8"/>
<line x1="601.3" y1="866.0" x2="610.3" y2="866.0" stroke="white" stroke-width="1.5"/>
<text x="544.8" y="831.0" font-size="10.0" fill="#c87533" font-weight="700">WREN</text>
<text x="544.8" y="844.0" font-size="10.0" fill="#333333">Alright. Gather round. I'll say this</text>
<text x="544.8" y="857.0" font-size="10.0" fill="#333333">once.</text>
<text x="759.0" y="823.0" text-anchor="end" font-size="12" font-weight="bold" fill="#888888" opacity="0.6">5</text>
<text x="765.0" y="1165.0" text-anchor="end" font-size="9" fill="#888888" opacity="0.5">MED</text>
</svg>