<svg xmlns="http://www.w3.org/2000/svg" viewBox="0 0 800 1200" width="800" height="1200" style="background:#ffffff">
<style>
  text { font-family: "Helvetica Neue", Helvetica, Arial, sans-serif; }
</style>
<text x="400.0" y="22" text-anchor="middle" font-size="16" fill="#888888" font-weight="500">PAGE 21  (2 panels)</text>
<rect x="29.0" y="59.0" width="742.0" height="551.0" rx="2" fill="#f5f0e8" stroke="#2a2a2a" stroke-width="1.5"/>
<path d="M245.7,472.2 Q245.7,395.1 361.4,385.5 L438.6,385.5 Q554.3,395.1 554.3,472.2 L554.3,543.9 L245.7,543.9 Z" fill="#b0b0b0" opacity="0.25"/>
<path d="M366.3,385.5 L400.0,433.7 L433.7,385.5" fill="none" stroke="#b0b0b0" stroke-width="1" opacity="0.3"/>
<circle cx="400.0" cy="279.4" r="96.4" fill="#b0b0b0" opacity="0.35"/>
<path d="M303.6,298.7 Q318.0,385.5 400.0,390.3 Q482.0,385.5 496.4,298.7" fill="none" stroke="#b0b0b0" stroke-width="1.2" opacity="0.3"/>
<path d="M298.8,269.8 Q400.0,154.0 501.2,269.8" fill="none" stroke="#b0b0b0" stroke-width="2" opacity="0.4"/>
<ellipse cx="301.6" cy="284.2" rx="2.5" ry="4" fill="#b0b0b0" opacity="0.25"/>
<ellipse cx="498.4" cy="284.2" rx="2.5" ry="4" fill="#b0b0b0" opacity="0.25"/>
<rect x="35.0" y="67.0" width="145.1" height="40.0" rx="6" fill="white" stroke="#b0b0b0" stroke-width="1.0" opacity="0.92"/>
<polygon points="78.5,107.0 86.5,107.0 75.5,115.0" fill="white" stroke="#b0b0b0" stroke-width="0.8"/>
<line x1="78.0" y1="107.0" x2="87.0" y2="107.0" stroke="white" stroke-width="1.5"/>
<text x="41.0" y="84.0" font-size="11.0" fill="#b0b0b0" font-weight="700">SABLE</text>
<text x="41.0" y="98.0" font-size="11.0" fill="#333333">What happened to them?</text>
<text x="759.0" y="75.0" text-anchor="end" font-size="12" font-weight="bold" fill="#888888" opacity="0.6">1</text>
<text x="765.0" y="604.0" text-anchor="end" font-size="9" fill="#888888" opacity="0.5">MCU</text>
<rect x="29.0" y="620.0" width="742.0" height="551.0" rx="2" fill="#f5f0e8" stroke="#2a2a2a" stroke-width="1.5"/>
<path d="M311.4,1016.7 L319.4,944.3 Q327.5,940.3 375.5,940.3 L424.5,940.3 Q472.5,940.3 480.6,944.3 L488.6,1016.7 Z" fill="#c0b8a8" opacity="0.35"/>
<line x1="319.4" y1="979.5" x2="480.6" y2="979.5" stroke="#c0b8a8" stroke-width="1" opacity="0.3"/>
<line x1="319.4" y1="944.3" x2="287.2" y2="1006.2" stroke="#c0b8a8" stroke-width="2" opacity="0.3"/>
<line x1="287.2" y1="1006.2" x2="311.4" y2="1043.4" stroke="#c0b8a8" stroke-width="2" opacity="0.3"/>
<line x1="480.6" y1="944.3" x2="512.8" y2="1006.2" stroke="#c0b8a8" stroke-width="2" opacity="0.3"/>
<line x1="512.8" y1="1006.2" x2="488.6" y2="1043.4" stroke="#c0b8a8" stroke-width="2" opacity="0.3"/>
<line x1="400.0" y1="830.0" x2="400.0" y2="940.3" stroke="#c0b8a8" stroke-width="3" opacity="0.35"/>
<circle cx="400.0" cy="768.8" r="61.2" fill="#c0b8a8" opacity="0.4"/>
<rect x="35.0" y="628.0" width="260.1" height="40.0" rx="2" fill="#f5ecd8" stroke="#c8b898" stroke-width="0.8" opacity="0.92"/>
<text x="41.0" y="645.0" font-size="11.0" fill="#5a4a30" font-style="italic" font-weight="500">CAPTION</text>
<text x="41.0" y="659.0" font-size="11.0" fill="#5a4a30" font-style="italic">She locked the file. She locked her face.</text>
<rect x="35.0" y="672.0" width="108.8" height="40.0" rx="2" fill="#f5ecd8" stroke="#c8b898" stroke-width="0.8" opacity="0.92"/>
<text x="41.0" y="689.0" font-size="11.0" fill="#5a4a30" font-style="italic" font-weight="500">CAPTION</text>
<text x="41.0" y="703.0" font-size="11.0" fill="#5a4a30" font-style="italic">Same encryption.</text>
<text x="759.0" y="636.0" text-anchor="end" font-size="12" font-weight="bold" fill="#888888" opacity="0.6">2</text>
<text x="765.0" y="1165.0" text-anchor="end" font-size="9" fill="#888888" opacity="0.5">MED</text>
</svg>