<svg xmlns="http://www.w3.org/2000/svg" viewBox="0 0 800 1200" width="800" height="1200" style="background:#ffffff">
<style>
  text { font-family: "Helvetica Neue", Helvetica, Arial, sans-serif; }
</style>
<text x="400.0" y="22" text-anchor="middle" font-size="16" fill="#888888" font-weight="500">PAGE 14  (4 panels)</text>
<rect x="29.0" y="59.0" width="742.0" height="364.0" rx="2" fill="#f5f0e8" stroke="#2a2a2a" stroke-width="1.5"/>
<path d="M341.4,321.1 L346.8,274.6 Q352.1,270.6 383.8,270.6 L416.2,270.6 Q447.9,270.6 453.2,274.6 L458.6,321.1 Z" fill="#c87533" opacity="0.35"/>
<line x1="346.8" y1="296.5" x2="453.2" y2="296.5" stroke="#c87533" stroke-width="1" opacity="0.3"/>
<line x1="346.8" y1="274.6" x2="325.5" y2="315.5" stroke="#c87533" stroke-width="2" opacity="0.3"/>
<line x1="325.5" y1="315.5" x2="341.4" y2="340.1" stroke="#c87533" stroke-width="2" opacity="0.3"/>
<line x1="453.2" y1="274.6" x2="474.5" y2="315.5" stroke="#c87533" stroke-width="2" opacity="0.3"/>
<line x1="474.5" y1="315.5" x2="458.6" y2="340.1" stroke="#c87533" stroke-width="2" opacity="0.3"/>
<line x1="400.0" y1="197.7" x2="400.0" y2="270.6" stroke="#c87533" stroke-width="3" opacity="0.35"/>
<circle cx="400.0" cy="157.3" r="40.5" fill="#c87533" opacity="0.4"/>
<rect x="35.0" y="67.0" width="647.2" height="40.0" rx="6" fill="white" stroke="#c87533" stroke-width="1.0" opacity="0.92"/>
<polygon points="229.2,107.0 237.2,107.0 226.2,115.0" fill="white" stroke="#c87533" stroke-width="0.8"/>
<line x1="228.7" y1="107.0" x2="237.7" y2="107.0" stroke="white" stroke-width="1.5"/>
<text x="41.0" y="84.0" font-size="11.0" fill="#c87533" font-weight="700">WREN</text>
<text x="41.0" y="98.0" font-size="11.0" fill="#333333">The core works. It just needs a new drive assembly to channel it. I can build one — but not from nothing.</text>
<rect x="311.3" y="117.0" width="453.7" height="40.0" rx="6" fill="white" stroke="#c87533" stroke-width="1.0" opacity="0.92"/>
<polygon points="447.4,157.0 455.4,157.0 444.4,165.0" fill="white" stroke="#c87533" stroke-width="0.8"/>
<line x1="446.9" y1="157.0" x2="455.9" y2="157.0" stroke="white" stroke-width="1.5"/>
<text x="317.3" y="134.0" font-size="11.0" fill="#c87533" font-weight="700">WREN</text>
<text x="317.3" y="148.0" font-size="11.0" fill="#333333">I need four things. Four components I can adapt from the technology here.</text>
<text x="759.0" y="75.0" text-anchor="end" font-size="12" font-weight="bold" fill="#888888" opacity="0.6">1</text>
<text x="765.0" y="417.0" text-anchor="end" font-size="9" fill="#888888" opacity="0.5">MED</text>
<rect x="29.0" y="433.0" width="742.0" height="364.0" rx="2" fill="#f5f0e8" stroke="#2a2a2a" stroke-width="1.5"/>
<ellipse cx="400.0" cy="585.9" rx="114.7" ry="163.8" fill="#c87533" opacity="0.18"/>
<path d="M279.6,528.5 Q400.0,397.5 520.4,528.5" fill="none" stroke="#c87533" stroke-width="3" opacity="0.35"/>
<line x1="359.9" y1="549.8" x2="394.3" y2="547.8" stroke="#a89888" stroke-width="1.5" opacity="0.45"/>
<line x1="405.7" y1="547.8" x2="440.1" y2="549.8" stroke="#a89888" stroke-width="1.5" opacity="0.45"/>
<ellipse cx="367.9" cy="566.2" rx="13.8" ry="8.2" fill="#a89888" opacity="0.45"/>
<ellipse cx="432.1" cy="566.2" rx="13.8" ry="8.2" fill="#a89888" opacity="0.45"/>
<line x1="400.0" y1="589.2" x2="400.0" y2="615.4" stroke="#a89888" stroke-width="1.2" opacity="0.35"/>
<path d="M393.1,615.4 Q400.0,618.4 406.9,615.4" fill="none" stroke="#a89888" stroke-width="1" opacity="0.3"/>
<line x1="371.3" y1="638.3" x2="428.7" y2="638.3" stroke="#a89888" stroke-width="1.2" opacity="0.35"/>
<rect x="35.0" y="441.0" width="730.0" height="68.0" rx="6" fill="white" stroke="#c87533" stroke-width="1.0" opacity="0.92"/>
<polygon points="254.0,509.0 262.0,509.0 251.0,517.0" fill="white" stroke="#c87533" stroke-width="0.8"/>
<line x1="253.5" y1="509.0" x2="262.5" y2="509.0" stroke="white" stroke-width="1.5"/>
<text x="41.0" y="458.0" font-size="11.0" fill="#c87533" font-weight="700">WREN</text>
<text x="41.0" y="472.0" font-size="11.0" fill="#333333">One: a precision gear assembly. Clockwork quality — the finest they make. Two: copper induction coils. Tightly wound,</text>
<text x="41.0" y="486.0" font-size="11.0" fill="#333333">consistent gauge. Three: an optical lens. Glass, ground to specification. Four: conductor wire. Copper or silver, as thin as</text>
<text x="41.0" y="500.0" font-size="11.0" fill="#333333">they have.</text>
<rect x="238.8" y="519.0" width="526.2" height="40.0" rx="6" fill="white" stroke="#c87533" stroke-width="1.0" opacity="0.92"/>
<polygon points="396.6,559.0 404.6,559.0 393.6,567.0" fill="white" stroke="#c87533" stroke-width="0.8"/>
<line x1="396.1" y1="559.0" x2="405.1" y2="559.0" stroke="white" stroke-width="1.5"/>
<text x="244.8" y="536.0" font-size="11.0" fill="#c87533" font-weight="700">WREN</text>
<text x="244.8" y="550.0" font-size="11.0" fill="#333333">Each one exists somewhere in this city. Each one means going out there and taking it.</text>
<text x="759.0" y="449.0" text-anchor="end" font-size="12" font-weight="bold" fill="#888888" opacity="0.6">2</text>
<text x="765.0" y="791.0" text-anchor="end" font-size="9" fill="#888888" opacity="0.5">CU</text>
<rect x="29.0" y="807.0" width="366.0" height="364.0" rx="2" fill="#f5f0e8" stroke="#2a2a2a" stroke-width="1.5"/>
<path d="M110.1,1080.0 Q110.1,1029.0 186.5,1022.7 L237.5,1022.7 Q313.9,1029.0 313.9,1080.0 L313.9,1127.3 L110.1,1127.3 Z" fill="#b0b0b0" opacity="0.25"/>
<path d="M189.7,1022.7 L212.0,1054.5 L234.3,1022.7" fill="none" stroke="#b0b0b0" stroke-width="1" opacity="0.3"/>
<circle cx="212.0" cy="952.6" r="63.7" fill="#b0b0b0" opacity="0.35"/>
<path d="M148.3,965.3 Q157.9,1022.7 212.0,1025.9 Q266.1,1022.7 275.7,965.3" fill="none" stroke="#b0b0b0" stroke-width="1.2" opacity="0.3"/>
<path d="M145.1,946.2 Q212.0,869.8 278.9,946.2" fill="none" stroke="#b0b0b0" stroke-width="2" opacity="0.4"/>
<ellipse cx="146.3" cy="955.8" rx="2.5" ry="4" fill="#b0b0b0" opacity="0.25"/>
<ellipse cx="277.7" cy="955.8" rx="2.5" ry="4" fill="#b0b0b0" opacity="0.25"/>
<rect x="35.0" y="815.0" width="338.7" height="54.0" rx="6" fill="white" stroke="#b0b0b0" stroke-width="1.0" opacity="0.92"/>
<polygon points="136.6,869.0 144.6,869.0 133.6,877.0" fill="white" stroke="#b0b0b0" stroke-width="0.8"/>
<line x1="136.1" y1="869.0" x2="145.1" y2="869.0" stroke="white" stroke-width="1.5"/>
<text x="41.0" y="832.0" font-size="11.0" fill="#b0b0b0" font-weight="700">SABLE</text>
<text x="41.0" y="846.0" font-size="11.0" fill="#333333">Four components. Four operations. We'll plan each one,</text>
<text x="41.0" y="860.0" font-size="11.0" fill="#333333">execute it clean, and bring what Wren needs.</text>
<rect x="35.0" y="879.0" width="354.0" height="54.0" rx="6" fill="white" stroke="#b0b0b0" stroke-width="1.0" opacity="0.92"/>
<polygon points="141.2,933.0 149.2,933.0 138.2,941.0" fill="white" stroke="#b0b0b0" stroke-width="0.8"/>
<line x1="140.7" y1="933.0" x2="149.7" y2="933.0" stroke="white" stroke-width="1.5"/>
<text x="41.0" y="896.0" font-size="11.0" fill="#b0b0b0" font-weight="700">SABLE</text>
<text x="41.0" y="910.0" font-size="11.0" fill="#333333">But first — we need a base. Somewhere hidden, defensible,</text>
<text x="41.0" y="924.0" font-size="11.0" fill="#333333">close to the wreckage. Tonight, we dig in.</text>
<text x="383.0" y="823.0" text-anchor="end" font-size="12" font-weight="bold" fill="#888888" opacity="0.6">3</text>
<text x="389.0" y="1165.0" text-anchor="end" font-size="9" fill="#888888" opacity="0.5">MCU</text>
<rect x="405.0" y="807.0" width="366.0" height="364.0" rx="2" fill="#f5f0e8" stroke="#2a2a2a" stroke-width="1.5"/>
<path d="M529.4,1069.1 L534.8,1022.6 Q540.1,1018.6 571.8,1018.6 L604.2,1018.6 Q635.9,1018.6 641.2,1022.6 L646.6,1069.1 Z" fill="#c87533" opacity="0.35"/>
<line x1="534.8" y1="1044.5" x2="641.2" y2="1044.5" stroke="#c87533" stroke-width="1" opacity="0.3"/>
<line x1="534.8" y1="1022.6" x2="513.5" y2="1063.5" stroke="#c87533" stroke-width="2" opacity="0.3"/>
<line x1="513.5" y1="1063.5" x2="529.4" y2="1088.1" stroke="#c87533" stroke-width="2" opacity="0.3"/>
<line x1="641.2" y1="1022.6" x2="662.5" y2="1063.5" stroke="#c87533" stroke-width="2" opacity="0.3"/>
<line x1="662.5" y1="1063.5" x2="646.6" y2="1088.1" stroke="#c87533" stroke-width="2" opacity="0.3"/>
<line x1="588.0" y1="945.7" x2="588.0" y2="1018.6" stroke="#c87533" stroke-width="3" opacity="0.35"/>
<circle cx="588.0" cy="905.3" r="40.5" fill="#c87533" opacity="0.4"/>
<rect x="411.0" y="815.0" width="272.2" height="40.0" rx="6" fill="white" stroke="#c87533" stroke-width="1.0" opacity="0.92"/>
<polygon points="492.6,855.0 500.6,855.0 489.6,863.0" fill="white" stroke="#c87533" stroke-width="0.8"/>
<line x1="492.1" y1="855.0" x2="501.1" y2="855.0" stroke="white" stroke-width="1.5"/>
<text x="417.0" y="832.0" font-size="11.0" fill="#c87533" font-weight="700">WREN</text>
<text x="417.0" y="846.0" font-size="11.0" fill="#333333">I'll get you running. Just... give me time.</text>
<text x="759.0" y="823.0" text-anchor="end" font-size="12" font-weight="bold" fill="#888888" opacity="0.6">4</text>
<text x="765.0" y="1165.0" text-anchor="end" font-size="9" fill="#888888" opacity="0.5">MED</text>
</svg>