<svg xmlns="http://www.w3.org/2000/svg" viewBox="0 0 800 1200" width="800" height="1200" style="background:#ffffff">
<style>
  text { font-family: "Helvetica Neue", Helvetica, Arial, sans-serif; }
</style>
<text x="400.0" y="22" text-anchor="middle" font-size="16" fill="#888888" font-weight="500">PAGE 17  (5 panels)</text>
<rect x="29.0" y="59.0" width="742.0" height="364.0" rx="2" fill="#f5f0e8" stroke="#2a2a2a" stroke-width="1.5"/>
<path d="M341.4,321.1 L346.8,274.6 Q352.1,270.6 383.8,270.6 L416.2,270.6 Q447.9,270.6 453.2,274.6 L458.6,321.1 Z" fill="#b0b0b0" opacity="0.35"/>
<line x1="346.8" y1="296.5" x2="453.2" y2="296.5" stroke="#b0b0b0" stroke-width="1" opacity="0.3"/>
<line x1="346.8" y1="274.6" x2="325.5" y2="315.5" stroke="#b0b0b0" stroke-width="2" opacity="0.3"/>
<line x1="325.5" y1="315.5" x2="341.4" y2="340.1" stroke="#b0b0b0" stroke-width="2" opacity="0.3"/>
<line x1="453.2" y1="274.6" x2="474.5" y2="315.5" stroke="#b0b0b0" stroke-width="2" opacity="0.3"/>
<line x1="474.5" y1="315.5" x2="458.6" y2="340.1" stroke="#b0b0b0" stroke-width="2" opacity="0.3"/>
<line x1="400.0" y1="197.7" x2="400.0" y2="270.6" stroke="#b0b0b0" stroke-width="3" opacity="0.35"/>
<circle cx="400.0" cy="157.3" r="40.5" fill="#b0b0b0" opacity="0.4"/>
<rect x="35.0" y="67.0" width="187.5" height="40.0" rx="6" fill="white" stroke="#b0b0b0" stroke-width="1.0" opacity="0.92"/>
<polygon points="91.2,107.0 99.2,107.0 88.2,115.0" fill="white" stroke="#b0b0b0" stroke-width="0.8"/>
<line x1="90.7" y1="107.0" x2="99.7" y2="107.0" stroke="white" stroke-width="1.5"/>
<text x="41.0" y="84.0" font-size="11.0" fill="#b0b0b0" font-weight="700">SABLE</text>
<text x="41.0" y="98.0" font-size="11.0" fill="#333333">Status check. Injuries first.</text>
<rect x="35.0" y="117.0" width="730.0" height="54.0" rx="6" fill="white" stroke="#6a5acd" stroke-width="1.0" opacity="0.92"/>
<polygon points="254.0,171.0 262.0,171.0 251.0,179.0" fill="white" stroke="#6a5acd" stroke-width="0.8"/>
<line x1="253.5" y1="171.0" x2="262.5" y2="171.0" stroke="white" stroke-width="1.5"/>
<text x="41.0" y="134.0" font-size="11.0" fill="#6a5acd" font-weight="700">LUMA</text>
<text x="41.0" y="148.0" font-size="11.0" fill="#333333">Thresh has a bone bruise on her left forearm from the cat encounter. Jink has a laceration on the right palm — superficial.</text>
<text x="41.0" y="162.0" font-size="11.0" fill="#333333">Everyone has contusions from the crossing. Nothing disabling.</text>
<rect x="35.0" y="181.0" width="62.0" height="40.0" rx="6" fill="white" stroke="#b0b0b0" stroke-width="1.0" opacity="0.92"/>
<polygon points="53.6,221.0 61.6,221.0 50.6,229.0" fill="white" stroke="#b0b0b0" stroke-width="0.8"/>
<line x1="53.1" y1="221.0" x2="62.1" y2="221.0" stroke="white" stroke-width="1.5"/>
<text x="41.0" y="198.0" font-size="11.0" fill="#b0b0b0" font-weight="700">SABLE</text>
<text x="41.0" y="212.0" font-size="11.0" fill="#333333">Weapons?</text>
<rect x="196.4" y="231.0" width="568.6" height="40.0" rx="6" fill="white" stroke="#b22222" stroke-width="1.0" opacity="0.92"/>
<polygon points="367.0,271.0 375.0,271.0 364.0,279.0" fill="white" stroke="#b22222" stroke-width="0.8"/>
<line x1="366.5" y1="271.0" x2="375.5" y2="271.0" stroke="white" stroke-width="1.5"/>
<text x="202.4" y="248.0" font-size="11.0" fill="#b22222" font-weight="700">THRESH</text>
<text x="202.4" y="262.0" font-size="11.0" fill="#333333">My sidearm and the pulse rifle. Full charge on both. Jink's got a blade. That's our arsenal.</text>
<text x="759.0" y="75.0" text-anchor="end" font-size="12" font-weight="bold" fill="#888888" opacity="0.6">1</text>
<text x="765.0" y="417.0" text-anchor="end" font-size="9" fill="#888888" opacity="0.5">MW</text>
<rect x="29.0" y="433.0" width="366.0" height="364.0" rx="2" fill="#f5f0e8" stroke="#2a2a2a" stroke-width="1.5"/>
<path d="M110.1,706.0 Q110.1,655.0 186.5,648.7 L237.5,648.7 Q313.9,655.0 313.9,706.0 L313.9,753.3 L110.1,753.3 Z" fill="#b0b0b0" opacity="0.25"/>
<path d="M189.7,648.7 L212.0,680.5 L234.3,648.7" fill="none" stroke="#b0b0b0" stroke-width="1" opacity="0.3"/>
<circle cx="212.0" cy="578.6" r="63.7" fill="#b0b0b0" opacity="0.35"/>
<path d="M148.3,591.3 Q157.9,648.7 212.0,651.9 Q266.1,648.7 275.7,591.3" fill="none" stroke="#b0b0b0" stroke-width="1.2" opacity="0.3"/>
<path d="M145.1,572.2 Q212.0,495.8 278.9,572.2" fill="none" stroke="#b0b0b0" stroke-width="2" opacity="0.4"/>
<ellipse cx="146.3" cy="581.8" rx="2.5" ry="4" fill="#b0b0b0" opacity="0.25"/>
<ellipse cx="277.7" cy="581.8" rx="2.5" ry="4" fill="#b0b0b0" opacity="0.25"/>
<rect x="35.0" y="441.0" width="354.0" height="54.0" rx="6" fill="white" stroke="#b0b0b0" stroke-width="1.0" opacity="0.92"/>
<polygon points="141.2,495.0 149.2,495.0 138.2,503.0" fill="white" stroke="#b0b0b0" stroke-width="0.8"/>
<line x1="140.7" y1="495.0" x2="149.7" y2="495.0" stroke="white" stroke-width="1.5"/>
<text x="41.0" y="458.0" font-size="11.0" fill="#b0b0b0" font-weight="700">SABLE</text>
<text x="41.0" y="472.0" font-size="11.0" fill="#333333">Wren. The gear assembly. Where do they make precision gears</text>
<text x="41.0" y="486.0" font-size="11.0" fill="#333333">in this era?</text>
<rect x="35.0" y="505.0" width="354.0" height="54.0" rx="6" fill="white" stroke="#c87533" stroke-width="1.0" opacity="0.92"/>
<polygon points="141.2,559.0 149.2,559.0 138.2,567.0" fill="white" stroke="#c87533" stroke-width="0.8"/>
<line x1="140.7" y1="559.0" x2="149.7" y2="559.0" stroke="white" stroke-width="1.5"/>
<text x="41.0" y="522.0" font-size="11.0" fill="#c87533" font-weight="700">WREN</text>
<text x="41.0" y="536.0" font-size="11.0" fill="#333333">Clockmakers. Watchmakers. Instrument makers. Any workshop</text>
<text x="41.0" y="550.0" font-size="11.0" fill="#333333">with lathe-cut brass.</text>
<rect x="35.0" y="569.0" width="157.2" height="40.0" rx="6" fill="white" stroke="#b0b0b0" stroke-width="1.0" opacity="0.92"/>
<polygon points="82.2,609.0 90.2,609.0 79.2,617.0" fill="white" stroke="#b0b0b0" stroke-width="0.8"/>
<line x1="81.7" y1="609.0" x2="90.7" y2="609.0" stroke="white" stroke-width="1.5"/>
<text x="41.0" y="586.0" font-size="11.0" fill="#b0b0b0" font-weight="700">SABLE</text>
<text x="41.0" y="600.0" font-size="11.0" fill="#333333">And we find those by...?</text>
<rect x="207.6" y="619.0" width="181.4" height="40.0" rx="6" fill="white" stroke="#c87533" stroke-width="1.0" opacity="0.92"/>
<polygon points="262.0,659.0 270.0,659.0 259.0,667.0" fill="white" stroke="#c87533" stroke-width="0.8"/>
<line x1="261.5" y1="659.0" x2="270.5" y2="659.0" stroke="white" stroke-width="1.5"/>
<text x="213.6" y="636.0" font-size="11.0" fill="#c87533" font-weight="700">WREN</text>
<text x="213.6" y="650.0" font-size="11.0" fill="#333333">Going out there and looking.</text>
<text x="383.0" y="449.0" text-anchor="end" font-size="12" font-weight="bold" fill="#888888" opacity="0.6">2</text>
<text x="389.0" y="791.0" text-anchor="end" font-size="9" fill="#888888" opacity="0.5">MCU</text>
<rect x="405.0" y="433.0" width="366.0" height="364.0" rx="2" fill="#f5f0e8" stroke="#2a2a2a" stroke-width="1.5"/>
<path d="M529.4,695.1 L534.8,648.6 Q540.1,644.6 571.8,644.6 L604.2,644.6 Q635.9,644.6 641.2,648.6 L646.6,695.1 Z" fill="#2e8b57" opacity="0.35"/>
<line x1="534.8" y1="670.5" x2="641.2" y2="670.5" stroke="#2e8b57" stroke-width="1" opacity="0.3"/>
<line x1="534.8" y1="648.6" x2="513.5" y2="689.5" stroke="#2e8b57" stroke-width="2" opacity="0.3"/>
<line x1="513.5" y1="689.5" x2="529.4" y2="714.1" stroke="#2e8b57" stroke-width="2" opacity="0.3"/>
<line x1="641.2" y1="648.6" x2="662.5" y2="689.5" stroke="#2e8b57" stroke-width="2" opacity="0.3"/>
<line x1="662.5" y1="689.5" x2="646.6" y2="714.1" stroke="#2e8b57" stroke-width="2" opacity="0.3"/>
<line x1="588.0" y1="571.7" x2="588.0" y2="644.6" stroke="#2e8b57" stroke-width="3" opacity="0.35"/>
<circle cx="588.0" cy="531.3" r="40.5" fill="#2e8b57" opacity="0.4"/>
<rect x="411.0" y="441.0" width="344.8" height="54.0" rx="6" fill="white" stroke="#2e8b57" stroke-width="1.0" opacity="0.92"/>
<polygon points="514.4,495.0 522.4,495.0 511.4,503.0" fill="white" stroke="#2e8b57" stroke-width="0.8"/>
<line x1="513.9" y1="495.0" x2="522.9" y2="495.0" stroke="white" stroke-width="1.5"/>
<text x="417.0" y="458.0" font-size="11.0" fill="#2e8b57" font-weight="700">JINK</text>
<text x="417.0" y="472.0" font-size="11.0" fill="#333333">I can scout. The gear thing — I'll find it. I can cover</text>
<text x="417.0" y="486.0" font-size="11.0" fill="#333333">more ground from the air than anyone.</text>
<rect x="577.5" y="505.0" width="187.5" height="40.0" rx="6" fill="white" stroke="#b0b0b0" stroke-width="1.0" opacity="0.92"/>
<polygon points="633.8,545.0 641.8,545.0 630.8,553.0" fill="white" stroke="#b0b0b0" stroke-width="0.8"/>
<line x1="633.3" y1="545.0" x2="642.3" y2="545.0" stroke="white" stroke-width="1.5"/>
<text x="583.5" y="522.0" font-size="11.0" fill="#b0b0b0" font-weight="700">SABLE</text>
<text x="583.5" y="536.0" font-size="11.0" fill="#333333">Not tonight. Tonight we rest.</text>
<rect x="411.0" y="555.0" width="120.9" height="40.0" rx="6" fill="white" stroke="#2e8b57" stroke-width="1.0" opacity="0.92"/>
<polygon points="447.3,595.0 455.3,595.0 444.3,603.0" fill="white" stroke="#2e8b57" stroke-width="0.8"/>
<line x1="446.8" y1="595.0" x2="455.8" y2="595.0" stroke="white" stroke-width="1.5"/>
<text x="417.0" y="572.0" font-size="11.0" fill="#2e8b57" font-weight="700">JINK</text>
<text x="417.0" y="586.0" font-size="11.0" fill="#333333">First light, then.</text>
<rect x="692.5" y="605.0" width="72.5" height="40.0" rx="6" fill="white" stroke="#b0b0b0" stroke-width="1.0" opacity="0.92"/>
<polygon points="714.2,645.0 722.2,645.0 711.2,653.0" fill="white" stroke="#b0b0b0" stroke-width="0.8"/>
<line x1="713.8" y1="645.0" x2="722.8" y2="645.0" stroke="white" stroke-width="1.5"/>
<text x="698.5" y="622.0" font-size="11.0" fill="#b0b0b0" font-weight="700">SABLE</text>
<text x="698.5" y="636.0" font-size="11.0" fill="#333333">We'll see.</text>
<text x="759.0" y="449.0" text-anchor="end" font-size="12" font-weight="bold" fill="#888888" opacity="0.6">3</text>
<text x="765.0" y="791.0" text-anchor="end" font-size="9" fill="#888888" opacity="0.5">MED</text>
<rect x="29.0" y="807.0" width="366.0" height="364.0" rx="2" fill="#f5f0e8" stroke="#2a2a2a" stroke-width="1.5"/>
<path d="M110.1,1080.0 Q110.1,1029.0 186.5,1022.7 L237.5,1022.7 Q313.9,1029.0 313.9,1080.0 L313.9,1127.3 L110.1,1127.3 Z" fill="#c0b8a8" opacity="0.25"/>
<path d="M189.7,1022.7 L212.0,1054.5 L234.3,1022.7" fill="none" stroke="#c0b8a8" stroke-width="1" opacity="0.3"/>
<circle cx="212.0" cy="952.6" r="63.7" fill="#c0b8a8" opacity="0.35"/>
<path d="M148.3,965.3 Q157.9,1022.7 212.0,1025.9 Q266.1,1022.7 275.7,965.3" fill="none" stroke="#c0b8a8" stroke-width="1.2" opacity="0.3"/>
<path d="M145.1,946.2 Q212.0,869.8 278.9,946.2" fill="none" stroke="#c0b8a8" stroke-width="2" opacity="0.4"/>
<ellipse cx="146.3" cy="955.8" rx="2.5" ry="4" fill="#c0b8a8" opacity="0.25"/>
<ellipse cx="277.7" cy="955.8" rx="2.5" ry="4" fill="#c0b8a8" opacity="0.25"/>
<text x="383.0" y="823.0" text-anchor="end" font-size="12" font-weight="bold" fill="#888888" opacity="0.6">4</text>
<text x="389.0" y="1165.0" text-anchor="end" font-size="9" fill="#888888" opacity="0.5">MCU</text>
<rect x="405.0" y="807.0" width="366.0" height="364.0" rx="2" fill="#f5f0e8" stroke="#2a2a2a" stroke-width="1.5"/>
<ellipse cx="588.0" cy="959.9" rx="114.7" ry="163.8" fill="#c87533" opacity="0.18"/>
<path d="M467.6,902.5 Q588.0,771.5 708.4,902.5" fill="none" stroke="#c87533" stroke-width="3" opacity="0.35"/>
<line x1="547.9" y1="923.8" x2="582.3" y2="921.8" stroke="#a89888" stroke-width="1.5" opacity="0.45"/>
<line x1="593.7" y1="921.8" x2="628.1" y2="923.8" stroke="#a89888" stroke-width="1.5" opacity="0.45"/>
<ellipse cx="555.9" cy="940.2" rx="13.8" ry="8.2" fill="#a89888" opacity="0.45"/>
<ellipse cx="620.1" cy="940.2" rx="13.8" ry="8.2" fill="#a89888" opacity="0.45"/>
<line x1="588.0" y1="963.2" x2="588.0" y2="989.4" stroke="#a89888" stroke-width="1.2" opacity="0.35"/>
<path d="M581.1,989.4 Q588.0,992.4 594.9,989.4" fill="none" stroke="#a89888" stroke-width="1" opacity="0.3"/>
<line x1="559.3" y1="1012.3" x2="616.7" y2="1012.3" stroke="#a89888" stroke-width="1.2" opacity="0.35"/>
<rect x="411.0" y="815.0" width="354.0" height="54.0" rx="6" fill="white" stroke="#c87533" stroke-width="1.0" opacity="0.92"/>
<polygon points="517.2,869.0 525.2,869.0 514.2,877.0" fill="white" stroke="#c87533" stroke-width="0.8"/>
<line x1="516.7" y1="869.0" x2="525.7" y2="869.0" stroke="white" stroke-width="1.5"/>
<text x="417.0" y="832.0" font-size="11.0" fill="#c87533" font-weight="700">WREN</text>
<text x="417.0" y="846.0" font-size="11.0" fill="#333333">Seventeen connections. Reroute through the secondary bus.</text>
<text x="417.0" y="860.0" font-size="11.0" fill="#333333">Adapt the crystalline interface to copper conductors...</text>
<text x="759.0" y="823.0" text-anchor="end" font-size="12" font-weight="bold" fill="#888888" opacity="0.6">5</text>
<text x="765.0" y="1165.0" text-anchor="end" font-size="9" fill="#888888" opacity="0.5">CU</text>
</svg>