<svg xmlns="http://www.w3.org/2000/svg" viewBox="0 0 800 1200" width="800" height="1200" style="background:#ffffff">
<style>
  text { font-family: "Helvetica Neue", Helvetica, Arial, sans-serif; }
</style>
<text x="400.0" y="22" text-anchor="middle" font-size="16" fill="#888888" font-weight="500">PAGE 11  (5 panels)</text>
<rect x="29.0" y="59.0" width="742.0" height="364.0" rx="2" fill="#f5f0e8" stroke="#2a2a2a" stroke-width="1.5"/>
<line x1="35.0" y1="342.9" x2="765.0" y2="342.9" stroke="#a89888" stroke-width="1.0" opacity="0.5"/>
<ellipse cx="214.5" cy="344.9" rx="11.2" ry="2.7" fill="#a89888" opacity="0.2"/>
<line x1="211.8" y1="327.2" x2="207.8" y2="342.9" stroke="#c0b8a8" stroke-width="2" opacity="0.5"/>
<line x1="217.2" y1="327.2" x2="221.2" y2="342.9" stroke="#c0b8a8" stroke-width="2" opacity="0.5"/>
<line x1="214.5" y1="314.1" x2="214.5" y2="327.2" stroke="#c0b8a8" stroke-width="2.5" opacity="0.6"/>
<line x1="201.0" y1="316.1" x2="228.0" y2="316.1" stroke="#c0b8a8" stroke-width="2" opacity="0.5"/>
<line x1="201.0" y1="316.1" x2="196.5" y2="327.6" stroke="#c0b8a8" stroke-width="1.5" opacity="0.4"/>
<line x1="228.0" y1="316.1" x2="232.5" y2="327.6" stroke="#c0b8a8" stroke-width="1.5" opacity="0.4"/>
<circle cx="214.5" cy="297.9" r="8.1" fill="#c0b8a8" opacity="0.6"/>
<ellipse cx="400.0" cy="344.9" rx="11.2" ry="2.7" fill="#a89888" opacity="0.2"/>
<line x1="397.3" y1="327.2" x2="393.2" y2="342.9" stroke="#c0b8a8" stroke-width="2" opacity="0.5"/>
<line x1="402.7" y1="327.2" x2="406.8" y2="342.9" stroke="#c0b8a8" stroke-width="2" opacity="0.5"/>
<line x1="400.0" y1="314.1" x2="400.0" y2="327.2" stroke="#c0b8a8" stroke-width="2.5" opacity="0.6"/>
<line x1="386.5" y1="316.1" x2="413.5" y2="316.1" stroke="#c0b8a8" stroke-width="2" opacity="0.5"/>
<line x1="386.5" y1="316.1" x2="382.0" y2="327.6" stroke="#c0b8a8" stroke-width="1.5" opacity="0.4"/>
<line x1="413.5" y1="316.1" x2="418.0" y2="327.6" stroke="#c0b8a8" stroke-width="1.5" opacity="0.4"/>
<circle cx="400.0" cy="297.9" r="8.1" fill="#c0b8a8" opacity="0.6"/>
<ellipse cx="585.5" cy="344.9" rx="11.2" ry="2.7" fill="#a89888" opacity="0.2"/>
<line x1="582.8" y1="327.2" x2="578.8" y2="342.9" stroke="#c0b8a8" stroke-width="2" opacity="0.5"/>
<line x1="588.2" y1="327.2" x2="592.2" y2="342.9" stroke="#c0b8a8" stroke-width="2" opacity="0.5"/>
<line x1="585.5" y1="314.1" x2="585.5" y2="327.2" stroke="#c0b8a8" stroke-width="2.5" opacity="0.6"/>
<line x1="572.0" y1="316.1" x2="599.0" y2="316.1" stroke="#c0b8a8" stroke-width="2" opacity="0.5"/>
<line x1="572.0" y1="316.1" x2="567.5" y2="327.6" stroke="#c0b8a8" stroke-width="1.5" opacity="0.4"/>
<line x1="599.0" y1="316.1" x2="603.5" y2="327.6" stroke="#c0b8a8" stroke-width="1.5" opacity="0.4"/>
<circle cx="585.5" cy="297.9" r="8.1" fill="#c0b8a8" opacity="0.6"/>
<rect x="35.0" y="67.0" width="593.6" height="54.0" rx="2" fill="#f5ecd8" stroke="#c8b898" stroke-width="0.8" opacity="0.92"/>
<text x="41.0" y="84.0" font-size="11.0" fill="#5a4a30" font-style="italic" font-weight="500">CAPTION</text>
<text x="41.0" y="98.0" font-size="11.0" fill="#5a4a30" font-style="italic">One city block. One hour. Five people who could fight a war in the thirty-second century, brought to the edge by a house cat</text>
<text x="41.0" y="112.0" font-size="11.0" fill="#5a4a30" font-style="italic">and a rain puddle.</text>
<text x="759.0" y="75.0" text-anchor="end" font-size="12" font-weight="bold" fill="#888888" opacity="0.6">1</text>
<text x="765.0" y="417.0" text-anchor="end" font-size="9" fill="#888888" opacity="0.5">WIDE</text>
<rect x="29.0" y="433.0" width="742.0" height="364.0" rx="2" fill="#f5f0e8" stroke="#2a2a2a" stroke-width="1.5"/>
<path d="M341.4,695.1 L346.8,648.6 Q352.1,644.6 383.8,644.6 L416.2,644.6 Q447.9,644.6 453.2,648.6 L458.6,695.1 Z" fill="#c0b8a8" opacity="0.35"/>
<line x1="346.8" y1="670.5" x2="453.2" y2="670.5" stroke="#c0b8a8" stroke-width="1" opacity="0.3"/>
<line x1="346.8" y1="648.6" x2="325.5" y2="689.5" stroke="#c0b8a8" stroke-width="2" opacity="0.3"/>
<line x1="325.5" y1="689.5" x2="341.4" y2="714.1" stroke="#c0b8a8" stroke-width="2" opacity="0.3"/>
<line x1="453.2" y1="648.6" x2="474.5" y2="689.5" stroke="#c0b8a8" stroke-width="2" opacity="0.3"/>
<line x1="474.5" y1="689.5" x2="458.6" y2="714.1" stroke="#c0b8a8" stroke-width="2" opacity="0.3"/>
<line x1="400.0" y1="571.7" x2="400.0" y2="644.6" stroke="#c0b8a8" stroke-width="3" opacity="0.35"/>
<circle cx="400.0" cy="531.3" r="40.5" fill="#c0b8a8" opacity="0.4"/>
<text x="759.0" y="449.0" text-anchor="end" font-size="12" font-weight="bold" fill="#888888" opacity="0.6">2</text>
<text x="765.0" y="791.0" text-anchor="end" font-size="9" fill="#888888" opacity="0.5">MW</text>
<rect x="29.0" y="807.0" width="240.7" height="364.0" rx="2" fill="#f5f0e8" stroke="#2a2a2a" stroke-width="1.5"/>
<ellipse cx="149.3" cy="959.9" rx="96.3" ry="163.8" fill="#c0b8a8" opacity="0.18"/>
<path d="M48.3,902.5 Q149.3,771.5 250.4,902.5" fill="none" stroke="#c0b8a8" stroke-width="3" opacity="0.35"/>
<line x1="115.6" y1="923.8" x2="144.5" y2="921.8" stroke="#a89888" stroke-width="1.5" opacity="0.45"/>
<line x1="154.1" y1="921.8" x2="183.0" y2="923.8" stroke="#a89888" stroke-width="1.5" opacity="0.45"/>
<ellipse cx="122.4" cy="940.2" rx="11.6" ry="8.2" fill="#a89888" opacity="0.45"/>
<ellipse cx="176.3" cy="940.2" rx="11.6" ry="8.2" fill="#a89888" opacity="0.45"/>
<line x1="149.3" y1="963.2" x2="149.3" y2="989.4" stroke="#a89888" stroke-width="1.2" opacity="0.35"/>
<path d="M143.6,989.4 Q149.3,992.4 155.1,989.4" fill="none" stroke="#a89888" stroke-width="1" opacity="0.3"/>
<line x1="125.3" y1="1012.3" x2="173.4" y2="1012.3" stroke="#a89888" stroke-width="1.2" opacity="0.35"/>
<text x="257.7" y="823.0" text-anchor="end" font-size="12" font-weight="bold" fill="#888888" opacity="0.6">3</text>
<text x="263.7" y="1165.0" text-anchor="end" font-size="9" fill="#888888" opacity="0.5">CU</text>
<rect x="279.7" y="807.0" width="240.7" height="364.0" rx="2" fill="#f5f0e8" stroke="#2a2a2a" stroke-width="1.5"/>
<path d="M330.7,1039.2 Q330.7,1004.6 382.7,1000.3 L417.3,1000.3 Q469.3,1004.6 469.3,1039.2 L469.3,1127.3 L330.7,1127.3 Z" fill="#c87533" opacity="0.25"/>
<path d="M384.8,1000.3 L400.0,1021.9 L415.2,1000.3" fill="none" stroke="#c87533" stroke-width="1" opacity="0.3"/>
<circle cx="400.0" cy="952.6" r="43.3" fill="#c87533" opacity="0.35"/>
<path d="M356.7,961.3 Q363.2,1000.3 400.0,1002.4 Q436.8,1000.3 443.3,961.3" fill="none" stroke="#c87533" stroke-width="1.2" opacity="0.3"/>
<path d="M354.5,948.3 Q400.0,896.3 445.5,948.3" fill="none" stroke="#c87533" stroke-width="2" opacity="0.4"/>
<ellipse cx="354.7" cy="954.8" rx="2.5" ry="4" fill="#c87533" opacity="0.25"/>
<ellipse cx="445.3" cy="954.8" rx="2.5" ry="4" fill="#c87533" opacity="0.25"/>
<rect x="285.7" y="815.0" width="228.7" height="64.0" rx="6" fill="white" stroke="#c87533" stroke-width="1.0" opacity="0.92"/>
<polygon points="354.3,879.0 362.3,879.0 351.3,887.0" fill="white" stroke="#c87533" stroke-width="0.8"/>
<line x1="353.8" y1="879.0" x2="362.8" y2="879.0" stroke="white" stroke-width="1.5"/>
<text x="291.7" y="831.0" font-size="10.0" fill="#c87533" font-weight="700">WREN</text>
<text x="291.7" y="844.0" font-size="10.0" fill="#333333">The core responded to my suit frequency.</text>
<text x="291.7" y="857.0" font-size="10.0" fill="#333333">It's not dead. That changes the</text>
<text x="291.7" y="870.0" font-size="10.0" fill="#333333">assessment.</text>
<rect x="370.3" y="889.0" width="144.0" height="38.0" rx="6" fill="white" stroke="#b0b0b0" stroke-width="1.0" opacity="0.92"/>
<polygon points="413.5,927.0 421.5,927.0 410.5,935.0" fill="white" stroke="#b0b0b0" stroke-width="0.8"/>
<line x1="413.0" y1="927.0" x2="422.0" y2="927.0" stroke="white" stroke-width="1.5"/>
<text x="376.3" y="905.0" font-size="10.0" fill="#b0b0b0" font-weight="700">SABLE</text>
<text x="376.3" y="918.0" font-size="10.0" fill="#333333">How much does it change?</text>
<rect x="285.7" y="937.0" width="149.5" height="38.0" rx="6" fill="white" stroke="#c87533" stroke-width="1.0" opacity="0.92"/>
<polygon points="330.5,975.0 338.5,975.0 327.5,983.0" fill="white" stroke="#c87533" stroke-width="0.8"/>
<line x1="330.0" y1="975.0" x2="339.0" y2="975.0" stroke="white" stroke-width="1.5"/>
<text x="291.7" y="953.0" font-size="10.0" fill="#c87533" font-weight="700">WREN</text>
<text x="291.7" y="966.0" font-size="10.0" fill="#333333">Ask me in twenty minutes.</text>
<text x="508.3" y="823.0" text-anchor="end" font-size="12" font-weight="bold" fill="#888888" opacity="0.6">4</text>
<text x="514.3" y="1165.0" text-anchor="end" font-size="9" fill="#888888" opacity="0.5">MCU</text>
<rect x="530.3" y="807.0" width="240.7" height="364.0" rx="2" fill="#f5f0e8" stroke="#2a2a2a" stroke-width="1.5"/>
<path d="M604.3,1069.1 L608.6,998.9 Q612.8,994.9 637.9,994.9 L663.5,994.9 Q688.6,994.9 692.8,998.9 L697.0,1069.1 Z" fill="#6a5acd" opacity="0.35"/>
<line x1="608.6" y1="1044.5" x2="692.8" y2="1044.5" stroke="#6a5acd" stroke-width="1" opacity="0.3"/>
<line x1="608.6" y1="998.9" x2="591.7" y2="1039.9" stroke="#6a5acd" stroke-width="2" opacity="0.3"/>
<line x1="591.7" y1="1039.9" x2="604.3" y2="1064.4" stroke="#6a5acd" stroke-width="2" opacity="0.3"/>
<line x1="692.8" y1="998.9" x2="709.6" y2="1039.9" stroke="#6a5acd" stroke-width="2" opacity="0.3"/>
<line x1="709.6" y1="1039.9" x2="697.0" y2="1064.4" stroke="#6a5acd" stroke-width="2" opacity="0.3"/>
<line x1="650.7" y1="937.3" x2="650.7" y2="994.9" stroke="#6a5acd" stroke-width="3" opacity="0.35"/>
<circle cx="650.7" cy="905.3" r="32.0" fill="#6a5acd" opacity="0.4"/>
<rect x="536.3" y="815.0" width="62.0" height="38.0" rx="6" fill="white" stroke="#6a5acd" stroke-width="1.0" opacity="0.92"/>
<polygon points="554.9,853.0 562.9,853.0 551.9,861.0" fill="white" stroke="#6a5acd" stroke-width="0.8"/>
<line x1="554.4" y1="853.0" x2="563.4" y2="853.0" stroke="white" stroke-width="1.5"/>
<text x="542.3" y="831.0" font-size="10.0" fill="#6a5acd" font-weight="700">LUMA</text>
<text x="542.3" y="844.0" font-size="10.0" fill="#333333">Yes.</text>
<rect x="566.0" y="863.0" width="199.0" height="38.0" rx="6" fill="white" stroke="#2e8b57" stroke-width="1.0" opacity="0.92"/>
<polygon points="625.7,901.0 633.7,901.0 622.7,909.0" fill="white" stroke="#2e8b57" stroke-width="0.8"/>
<line x1="625.2" y1="901.0" x2="634.2" y2="901.0" stroke="white" stroke-width="1.5"/>
<text x="572.0" y="879.0" font-size="10.0" fill="#2e8b57" font-weight="700">JINK</text>
<text x="572.0" y="892.0" font-size="10.0" fill="#333333">One block and it nearly killed us.</text>
<rect x="536.3" y="911.0" width="62.0" height="38.0" rx="6" fill="white" stroke="#6a5acd" stroke-width="1.0" opacity="0.92"/>
<polygon points="554.9,949.0 562.9,949.0 551.9,957.0" fill="white" stroke="#6a5acd" stroke-width="0.8"/>
<line x1="554.4" y1="949.0" x2="563.4" y2="949.0" stroke="white" stroke-width="1.5"/>
<text x="542.3" y="927.0" font-size="10.0" fill="#6a5acd" font-weight="700">LUMA</text>
<text x="542.3" y="940.0" font-size="10.0" fill="#333333">Yes.</text>
<text x="759.0" y="823.0" text-anchor="end" font-size="12" font-weight="bold" fill="#888888" opacity="0.6">5</text>
<text x="765.0" y="1165.0" text-anchor="end" font-size="9" fill="#888888" opacity="0.5">MED</text>
</svg>