<svg xmlns="http://www.w3.org/2000/svg" viewBox="0 0 800 1200" width="800" height="1200" style="background:#ffffff">
<style>
  text { font-family: "Helvetica Neue", Helvetica, Arial, sans-serif; }
</style>
<text x="400.0" y="22" text-anchor="middle" font-size="16" fill="#888888" font-weight="500">PAGE 5  (5 panels)</text>
<rect x="29.0" y="59.0" width="742.0" height="663.2" rx="2" fill="#f5f0e8" stroke="#2a2a2a" stroke-width="1.5"/>
<line x1="35.0" y1="576.3" x2="765.0" y2="576.3" stroke="#a89888" stroke-width="1.0" opacity="0.5"/>
<ellipse cx="214.5" cy="578.3" rx="11.2" ry="2.7" fill="#a89888" opacity="0.2"/>
<line x1="211.8" y1="560.5" x2="207.8" y2="576.3" stroke="#b0b0b0" stroke-width="2" opacity="0.5"/>
<line x1="217.2" y1="560.5" x2="221.2" y2="576.3" stroke="#b0b0b0" stroke-width="2" opacity="0.5"/>
<line x1="214.5" y1="547.5" x2="214.5" y2="560.5" stroke="#b0b0b0" stroke-width="2.5" opacity="0.6"/>
<line x1="201.0" y1="549.5" x2="228.0" y2="549.5" stroke="#b0b0b0" stroke-width="2" opacity="0.5"/>
<line x1="201.0" y1="549.5" x2="196.5" y2="561.0" stroke="#b0b0b0" stroke-width="1.5" opacity="0.4"/>
<line x1="228.0" y1="549.5" x2="232.5" y2="561.0" stroke="#b0b0b0" stroke-width="1.5" opacity="0.4"/>
<circle cx="214.5" cy="531.3" r="8.1" fill="#b0b0b0" opacity="0.6"/>
<ellipse cx="400.0" cy="578.3" rx="11.2" ry="2.7" fill="#a89888" opacity="0.2"/>
<line x1="397.3" y1="560.5" x2="393.2" y2="576.3" stroke="#c87533" stroke-width="2" opacity="0.5"/>
<line x1="402.7" y1="560.5" x2="406.8" y2="576.3" stroke="#c87533" stroke-width="2" opacity="0.5"/>
<line x1="400.0" y1="547.5" x2="400.0" y2="560.5" stroke="#c87533" stroke-width="2.5" opacity="0.6"/>
<line x1="386.5" y1="549.5" x2="413.5" y2="549.5" stroke="#c87533" stroke-width="2" opacity="0.5"/>
<line x1="386.5" y1="549.5" x2="382.0" y2="561.0" stroke="#c87533" stroke-width="1.5" opacity="0.4"/>
<line x1="413.5" y1="549.5" x2="418.0" y2="561.0" stroke="#c87533" stroke-width="1.5" opacity="0.4"/>
<circle cx="400.0" cy="531.3" r="8.1" fill="#c87533" opacity="0.6"/>
<ellipse cx="585.5" cy="578.3" rx="11.2" ry="2.7" fill="#a89888" opacity="0.2"/>
<line x1="582.8" y1="560.5" x2="578.8" y2="576.3" stroke="#2e8b57" stroke-width="2" opacity="0.5"/>
<line x1="588.2" y1="560.5" x2="592.2" y2="576.3" stroke="#2e8b57" stroke-width="2" opacity="0.5"/>
<line x1="585.5" y1="547.5" x2="585.5" y2="560.5" stroke="#2e8b57" stroke-width="2.5" opacity="0.6"/>
<line x1="572.0" y1="549.5" x2="599.0" y2="549.5" stroke="#2e8b57" stroke-width="2" opacity="0.5"/>
<line x1="572.0" y1="549.5" x2="567.5" y2="561.0" stroke="#2e8b57" stroke-width="1.5" opacity="0.4"/>
<line x1="599.0" y1="549.5" x2="603.5" y2="561.0" stroke="#2e8b57" stroke-width="1.5" opacity="0.4"/>
<circle cx="585.5" cy="531.3" r="8.1" fill="#2e8b57" opacity="0.6"/>
<rect x="35.0" y="67.0" width="62.0" height="40.0" rx="6" fill="white" stroke="#b0b0b0" stroke-width="1.0" opacity="0.92"/>
<polygon points="53.6,107.0 61.6,107.0 50.6,115.0" fill="white" stroke="#b0b0b0" stroke-width="0.8"/>
<line x1="53.1" y1="107.0" x2="62.1" y2="107.0" stroke="white" stroke-width="1.5"/>
<text x="41.0" y="84.0" font-size="11.0" fill="#b0b0b0" font-weight="700">SABLE</text>
<text x="41.0" y="98.0" font-size="11.0" fill="#333333">...</text>
<rect x="650.1" y="117.0" width="114.9" height="40.0" rx="6" fill="white" stroke="#c87533" stroke-width="1.0" opacity="0.92"/>
<polygon points="684.6,157.0 692.6,157.0 681.6,165.0" fill="white" stroke="#c87533" stroke-width="0.8"/>
<line x1="684.1" y1="157.0" x2="693.1" y2="157.0" stroke="white" stroke-width="1.5"/>
<text x="656.1" y="134.0" font-size="11.0" fill="#c87533" font-weight="700">WREN</text>
<text x="656.1" y="148.0" font-size="11.0" fill="#333333">That's our route.</text>
<rect x="35.0" y="167.0" width="145.1" height="40.0" rx="6" fill="white" stroke="#2e8b57" stroke-width="1.0" opacity="0.92"/>
<polygon points="78.5,207.0 86.5,207.0 75.5,215.0" fill="white" stroke="#2e8b57" stroke-width="0.8"/>
<line x1="78.0" y1="207.0" x2="87.0" y2="207.0" stroke="white" stroke-width="1.5"/>
<text x="41.0" y="184.0" font-size="11.0" fill="#2e8b57" font-weight="700">JINK</text>
<text x="41.0" y="198.0" font-size="11.0" fill="#333333">That is *magnificent.*</text>
<rect x="703.0" y="217.0" width="62.0" height="40.0" rx="6" fill="white" stroke="#b22222" stroke-width="1.0" opacity="0.92"/>
<polygon points="721.6,257.0 729.6,257.0 718.6,265.0" fill="white" stroke="#b22222" stroke-width="0.8"/>
<line x1="721.1" y1="257.0" x2="730.1" y2="257.0" stroke="white" stroke-width="1.5"/>
<text x="709.0" y="234.0" font-size="11.0" fill="#b22222" font-weight="700">THRESH</text>
<text x="709.0" y="248.0" font-size="11.0" fill="#333333">...yeah.</text>
<text x="759.0" y="75.0" text-anchor="end" font-size="12" font-weight="bold" fill="#888888" opacity="0.6">1</text>
<text x="765.0" y="716.2" text-anchor="end" font-size="9" fill="#888888" opacity="0.5">EST</text>
<rect x="29.0" y="732.2" width="366.0" height="214.4" rx="2" fill="#f5f0e8" stroke="#2a2a2a" stroke-width="1.5"/>
<path d="M177.5,886.6 L180.6,860.8 Q183.8,856.8 202.5,856.8 L221.5,856.8 Q240.2,856.8 243.4,860.8 L246.5,886.6 Z" fill="#c87533" opacity="0.35"/>
<line x1="180.6" y1="872.1" x2="243.4" y2="872.1" stroke="#c87533" stroke-width="1" opacity="0.3"/>
<line x1="180.6" y1="860.8" x2="168.1" y2="884.9" stroke="#c87533" stroke-width="2" opacity="0.3"/>
<line x1="168.1" y1="884.9" x2="177.5" y2="899.4" stroke="#c87533" stroke-width="2" opacity="0.3"/>
<line x1="243.4" y1="860.8" x2="255.9" y2="884.9" stroke="#c87533" stroke-width="2" opacity="0.3"/>
<line x1="255.9" y1="884.9" x2="246.5" y2="899.4" stroke="#c87533" stroke-width="2" opacity="0.3"/>
<line x1="212.0" y1="813.9" x2="212.0" y2="856.8" stroke="#c87533" stroke-width="3" opacity="0.35"/>
<circle cx="212.0" cy="790.1" r="23.8" fill="#c87533" opacity="0.4"/>
<rect x="35.0" y="740.2" width="354.0" height="68.0" rx="6" fill="white" stroke="#c87533" stroke-width="1.0" opacity="0.92"/>
<polygon points="141.2,808.2 149.2,808.2 138.2,816.2" fill="white" stroke="#c87533" stroke-width="0.8"/>
<line x1="140.7" y1="808.2" x2="149.7" y2="808.2" stroke="white" stroke-width="1.5"/>
<text x="41.0" y="757.2" font-size="11.0" fill="#c87533" font-weight="700">WREN</text>
<text x="41.0" y="771.2" font-size="11.0" fill="#333333">Four blocks southwest. Down to street, cross at the drain</text>
<text x="41.0" y="785.2" font-size="11.0" fill="#333333">grate, cut through the courtyard gap. Twenty minutes if</text>
<text x="41.0" y="799.2" font-size="11.0" fill="#333333">nothing goes wrong.</text>
<rect x="249.9" y="818.2" width="139.1" height="40.0" rx="6" fill="white" stroke="#b0b0b0" stroke-width="1.0" opacity="0.92"/>
<polygon points="291.7,858.2 299.7,858.2 288.7,866.2" fill="white" stroke="#b0b0b0" stroke-width="0.8"/>
<line x1="291.2" y1="858.2" x2="300.2" y2="858.2" stroke="white" stroke-width="1.5"/>
<text x="255.9" y="835.2" font-size="11.0" fill="#b0b0b0" font-weight="700">SABLE</text>
<text x="255.9" y="849.2" font-size="11.0" fill="#333333">Things will go wrong.</text>
<rect x="35.0" y="868.2" width="66.5" height="40.0" rx="6" fill="white" stroke="#c87533" stroke-width="1.0" opacity="0.92"/>
<polygon points="54.9,908.2 62.9,908.2 51.9,916.2" fill="white" stroke="#c87533" stroke-width="0.8"/>
<line x1="54.4" y1="908.2" x2="63.4" y2="908.2" stroke="white" stroke-width="1.5"/>
<text x="41.0" y="885.2" font-size="11.0" fill="#c87533" font-weight="700">WREN</text>
<text x="41.0" y="899.2" font-size="11.0" fill="#333333">So forty.</text>
<text x="383.0" y="748.2" text-anchor="end" font-size="12" font-weight="bold" fill="#888888" opacity="0.6">2</text>
<text x="389.0" y="940.6" text-anchor="end" font-size="9" fill="#888888" opacity="0.5">MED</text>
<rect x="405.0" y="732.2" width="366.0" height="214.4" rx="2" fill="#f5f0e8" stroke="#2a2a2a" stroke-width="1.5"/>
<line x1="411.0" y1="899.4" x2="765.0" y2="899.4" stroke="#a89888" stroke-width="1.0" opacity="0.5"/>
<ellipse cx="527.0" cy="901.4" rx="9.6" ry="2.3" fill="#a89888" opacity="0.2"/>
<line x1="524.7" y1="885.9" x2="521.2" y2="899.4" stroke="#6a5acd" stroke-width="2" opacity="0.5"/>
<line x1="529.3" y1="885.9" x2="532.8" y2="899.4" stroke="#6a5acd" stroke-width="2" opacity="0.5"/>
<line x1="527.0" y1="874.7" x2="527.0" y2="885.9" stroke="#6a5acd" stroke-width="2.5" opacity="0.6"/>
<line x1="515.4" y1="876.7" x2="538.6" y2="876.7" stroke="#6a5acd" stroke-width="2" opacity="0.5"/>
<line x1="515.4" y1="876.7" x2="511.6" y2="886.3" stroke="#6a5acd" stroke-width="1.5" opacity="0.4"/>
<line x1="538.6" y1="876.7" x2="542.4" y2="886.3" stroke="#6a5acd" stroke-width="1.5" opacity="0.4"/>
<circle cx="527.0" cy="860.8" r="6.9" fill="#6a5acd" opacity="0.6"/>
<ellipse cx="649.0" cy="901.4" rx="9.6" ry="2.3" fill="#a89888" opacity="0.2"/>
<line x1="646.7" y1="885.9" x2="643.2" y2="899.4" stroke="#b0b0b0" stroke-width="2" opacity="0.5"/>
<line x1="651.3" y1="885.9" x2="654.8" y2="899.4" stroke="#b0b0b0" stroke-width="2" opacity="0.5"/>
<line x1="649.0" y1="874.7" x2="649.0" y2="885.9" stroke="#b0b0b0" stroke-width="2.5" opacity="0.6"/>
<line x1="637.4" y1="876.7" x2="660.6" y2="876.7" stroke="#b0b0b0" stroke-width="2" opacity="0.5"/>
<line x1="637.4" y1="876.7" x2="633.6" y2="886.3" stroke="#b0b0b0" stroke-width="1.5" opacity="0.4"/>
<line x1="660.6" y1="876.7" x2="664.4" y2="886.3" stroke="#b0b0b0" stroke-width="1.5" opacity="0.4"/>
<circle cx="649.0" cy="860.8" r="6.9" fill="#b0b0b0" opacity="0.6"/>
<rect x="411.0" y="740.2" width="344.8" height="54.0" rx="6" fill="white" stroke="#6a5acd" stroke-width="1.0" opacity="0.92"/>
<polygon points="514.4,794.2 522.4,794.2 511.4,802.2" fill="white" stroke="#6a5acd" stroke-width="0.8"/>
<line x1="513.9" y1="794.2" x2="522.9" y2="794.2" stroke="white" stroke-width="1.5"/>
<text x="417.0" y="757.2" font-size="11.0" fill="#6a5acd" font-weight="700">LUMA</text>
<text x="417.0" y="771.2" font-size="11.0" fill="#333333">I'm counting foot traffic. Every eight seconds, someone</text>
<text x="417.0" y="785.2" font-size="11.0" fill="#333333">passes.</text>
<rect x="492.8" y="804.2" width="272.2" height="40.0" rx="6" fill="white" stroke="#b0b0b0" stroke-width="1.0" opacity="0.92"/>
<polygon points="574.5,844.2 582.5,844.2 571.5,852.2" fill="white" stroke="#b0b0b0" stroke-width="0.8"/>
<line x1="574.0" y1="844.2" x2="583.0" y2="844.2" stroke="white" stroke-width="1.5"/>
<text x="498.8" y="821.2" font-size="11.0" fill="#b0b0b0" font-weight="700">SABLE</text>
<text x="498.8" y="835.2" font-size="11.0" fill="#333333">Between steps, then. We move between steps.</text>
<text x="759.0" y="748.2" text-anchor="end" font-size="12" font-weight="bold" fill="#888888" opacity="0.6">3</text>
<text x="765.0" y="940.6" text-anchor="end" font-size="9" fill="#888888" opacity="0.5">WIDE</text>
<rect x="29.0" y="956.6" width="238.2" height="214.4" rx="2" fill="#f5f0e8" stroke="#2a2a2a" stroke-width="1.5"/>
<ellipse cx="148.1" cy="1046.6" rx="67.5" ry="96.5" fill="#2e8b57" opacity="0.18"/>
<path d="M77.2,1012.9 Q148.1,935.7 219.0,1012.9" fill="none" stroke="#2e8b57" stroke-width="3" opacity="0.35"/>
<line x1="124.4" y1="1025.4" x2="144.7" y2="1023.4" stroke="#a89888" stroke-width="1.5" opacity="0.45"/>
<line x1="151.5" y1="1023.4" x2="171.7" y2="1025.4" stroke="#a89888" stroke-width="1.5" opacity="0.45"/>
<ellipse cx="129.2" cy="1035.1" rx="8.1" ry="4.8" fill="#a89888" opacity="0.45"/>
<ellipse cx="167.0" cy="1035.1" rx="8.1" ry="4.8" fill="#a89888" opacity="0.45"/>
<line x1="148.1" y1="1048.6" x2="148.1" y2="1064.0" stroke="#a89888" stroke-width="1.2" opacity="0.35"/>
<path d="M144.0,1064.0 Q148.1,1067.0 152.1,1064.0" fill="none" stroke="#a89888" stroke-width="1" opacity="0.3"/>
<line x1="131.2" y1="1077.5" x2="165.0" y2="1077.5" stroke="#a89888" stroke-width="1.2" opacity="0.35"/>
<rect x="35.0" y="964.6" width="144.0" height="38.0" rx="6" fill="white" stroke="#2e8b57" stroke-width="1.0" opacity="0.92"/>
<polygon points="78.2,1002.6 86.2,1002.6 75.2,1010.6" fill="white" stroke="#2e8b57" stroke-width="0.8"/>
<line x1="77.7" y1="1002.6" x2="86.7" y2="1002.6" stroke="white" stroke-width="1.5"/>
<text x="41.0" y="980.6" font-size="10.0" fill="#2e8b57" font-weight="700">JINK</text>
<text x="41.0" y="993.6" font-size="10.0" fill="#333333">Sable. Let me fly point.</text>
<text x="255.2" y="972.6" text-anchor="end" font-size="12" font-weight="bold" fill="#888888" opacity="0.6">4</text>
<text x="261.2" y="1165.0" text-anchor="end" font-size="9" fill="#888888" opacity="0.5">CU</text>
<rect x="277.2" y="956.6" width="493.8" height="214.4" rx="2" fill="#f5f0e8" stroke="#2a2a2a" stroke-width="1.5"/>
<path d="M489.6,1111.0 L492.7,1085.2 Q495.9,1081.2 514.5,1081.2 L533.6,1081.2 Q552.3,1081.2 555.4,1085.2 L558.6,1111.0 Z" fill="#b0b0b0" opacity="0.35"/>
<line x1="492.7" y1="1096.5" x2="555.4" y2="1096.5" stroke="#b0b0b0" stroke-width="1" opacity="0.3"/>
<line x1="492.7" y1="1085.2" x2="480.2" y2="1109.3" stroke="#b0b0b0" stroke-width="2" opacity="0.3"/>
<line x1="480.2" y1="1109.3" x2="489.6" y2="1123.8" stroke="#b0b0b0" stroke-width="2" opacity="0.3"/>
<line x1="555.4" y1="1085.2" x2="568.0" y2="1109.3" stroke="#b0b0b0" stroke-width="2" opacity="0.3"/>
<line x1="568.0" y1="1109.3" x2="558.6" y2="1123.8" stroke="#b0b0b0" stroke-width="2" opacity="0.3"/>
<line x1="524.1" y1="1038.3" x2="524.1" y2="1081.2" stroke="#b0b0b0" stroke-width="3" opacity="0.35"/>
<circle cx="524.1" cy="1014.5" r="23.8" fill="#b0b0b0" opacity="0.4"/>
<rect x="283.2" y="964.6" width="481.8" height="54.0" rx="6" fill="white" stroke="#b0b0b0" stroke-width="1.0" opacity="0.92"/>
<polygon points="427.7,1018.6 435.7,1018.6 424.7,1026.6" fill="white" stroke="#b0b0b0" stroke-width="0.8"/>
<line x1="427.2" y1="1018.6" x2="436.2" y2="1018.6" stroke="white" stroke-width="1.5"/>
<text x="289.2" y="981.6" font-size="11.0" fill="#b0b0b0" font-weight="700">SABLE</text>
<text x="289.2" y="995.6" font-size="11.0" fill="#333333">Low and fast. Map the route to the crash site. Identify cover positions. Do NOT</text>
<text x="289.2" y="1009.6" font-size="11.0" fill="#333333">engage anything.</text>
<rect x="703.0" y="1028.6" width="62.0" height="40.0" rx="6" fill="white" stroke="#2e8b57" stroke-width="1.0" opacity="0.92"/>
<polygon points="721.6,1068.6 729.6,1068.6 718.6,1076.6" fill="white" stroke="#2e8b57" stroke-width="0.8"/>
<line x1="721.1" y1="1068.6" x2="730.1" y2="1068.6" stroke="white" stroke-width="1.5"/>
<text x="709.0" y="1045.6" font-size="11.0" fill="#2e8b57" font-weight="700">JINK</text>
<text x="709.0" y="1059.6" font-size="11.0" fill="#333333">Copy!</text>
<rect x="283.2" y="1078.6" width="163.2" height="40.0" rx="6" fill="white" stroke="#b0b0b0" stroke-width="1.0" opacity="0.92"/>
<polygon points="332.1,1118.6 340.1,1118.6 329.1,1126.6" fill="white" stroke="#b0b0b0" stroke-width="0.8"/>
<line x1="331.6" y1="1118.6" x2="340.6" y2="1118.6" stroke="white" stroke-width="1.5"/>
<text x="289.2" y="1095.6" font-size="11.0" fill="#b0b0b0" font-weight="700">SABLE</text>
<text x="289.2" y="1109.6" font-size="11.0" fill="#333333">Jink. I mean it. Nothing.</text>
<rect x="703.0" y="1128.6" width="62.0" height="40.0" rx="6" fill="white" stroke="#2e8b57" stroke-width="1.0" opacity="0.92"/>
<polygon points="721.6,1168.6 729.6,1168.6 718.6,1176.6" fill="white" stroke="#2e8b57" stroke-width="0.8"/>
<line x1="721.1" y1="1168.6" x2="730.1" y2="1168.6" stroke="white" stroke-width="1.5"/>
<text x="709.0" y="1145.6" font-size="11.0" fill="#2e8b57" font-weight="700">JINK</text>
<text x="709.0" y="1159.6" font-size="11.0" fill="#333333">...copy.</text>
<text x="759.0" y="972.6" text-anchor="end" font-size="12" font-weight="bold" fill="#888888" opacity="0.6">5</text>
<text x="765.0" y="1165.0" text-anchor="end" font-size="9" fill="#888888" opacity="0.5">MW</text>
</svg>