<svg xmlns="http://www.w3.org/2000/svg" viewBox="0 0 800 1200" width="800" height="1200" style="background:#ffffff">
<style>
  text { font-family: "Helvetica Neue", Helvetica, Arial, sans-serif; }
</style>
<text x="400.0" y="22" text-anchor="middle" font-size="16" fill="#888888" font-weight="500">PAGE 8  (6 panels)</text>
<rect x="29.0" y="59.0" width="742.0" height="364.0" rx="2" fill="#f5f0e8" stroke="#2a2a2a" stroke-width="1.5"/>
<line x1="35.0" y1="342.9" x2="765.0" y2="342.9" stroke="#a89888" stroke-width="1.0" opacity="0.5"/>
<ellipse cx="276.3" cy="344.9" rx="11.2" ry="2.7" fill="#a89888" opacity="0.2"/>
<line x1="273.6" y1="327.2" x2="269.6" y2="342.9" stroke="#999999" stroke-width="2" opacity="0.5"/>
<line x1="279.0" y1="327.2" x2="283.1" y2="342.9" stroke="#999999" stroke-width="2" opacity="0.5"/>
<line x1="276.3" y1="314.1" x2="276.3" y2="327.2" stroke="#999999" stroke-width="2.5" opacity="0.6"/>
<line x1="262.8" y1="316.1" x2="289.8" y2="316.1" stroke="#999999" stroke-width="2" opacity="0.5"/>
<line x1="262.8" y1="316.1" x2="258.3" y2="327.6" stroke="#999999" stroke-width="1.5" opacity="0.4"/>
<line x1="289.8" y1="316.1" x2="294.3" y2="327.6" stroke="#999999" stroke-width="1.5" opacity="0.4"/>
<circle cx="276.3" cy="297.9" r="8.1" fill="#999999" opacity="0.6"/>
<ellipse cx="523.7" cy="344.9" rx="11.2" ry="2.7" fill="#a89888" opacity="0.2"/>
<line x1="521.0" y1="327.2" x2="516.9" y2="342.9" stroke="#2e8b57" stroke-width="2" opacity="0.5"/>
<line x1="526.4" y1="327.2" x2="530.4" y2="342.9" stroke="#2e8b57" stroke-width="2" opacity="0.5"/>
<line x1="523.7" y1="314.1" x2="523.7" y2="327.2" stroke="#2e8b57" stroke-width="2.5" opacity="0.6"/>
<line x1="510.2" y1="316.1" x2="537.2" y2="316.1" stroke="#2e8b57" stroke-width="2" opacity="0.5"/>
<line x1="510.2" y1="316.1" x2="505.7" y2="327.6" stroke="#2e8b57" stroke-width="1.5" opacity="0.4"/>
<line x1="537.2" y1="316.1" x2="541.7" y2="327.6" stroke="#2e8b57" stroke-width="1.5" opacity="0.4"/>
<circle cx="523.7" cy="297.9" r="8.1" fill="#2e8b57" opacity="0.6"/>
<rect x="35.0" y="67.0" width="169.3" height="40.0" rx="6" fill="white" stroke="#999999" stroke-width="1.0" opacity="0.92"/>
<polygon points="85.8,107.0 93.8,107.0 82.8,115.0" fill="white" stroke="#999999" stroke-width="0.8"/>
<line x1="85.3" y1="107.0" x2="94.3" y2="107.0" stroke="white" stroke-width="1.5"/>
<text x="41.0" y="84.0" font-size="11.0" fill="#999999" font-weight="700">SFX</text>
<text x="41.0" y="98.0" font-size="11.0" fill="#333333">*SCRRRK* (claw on granite)</text>
<rect x="703.0" y="117.0" width="62.0" height="40.0" rx="6" fill="white" stroke="#2e8b57" stroke-width="1.0" opacity="0.92"/>
<polygon points="721.6,157.0 729.6,157.0 718.6,165.0" fill="white" stroke="#2e8b57" stroke-width="0.8"/>
<line x1="721.1" y1="157.0" x2="730.1" y2="157.0" stroke="white" stroke-width="1.5"/>
<text x="709.0" y="134.0" font-size="11.0" fill="#2e8b57" font-weight="700">JINK</text>
<text x="709.0" y="148.0" font-size="11.0" fill="#333333">MOVE!</text>
<text x="759.0" y="75.0" text-anchor="end" font-size="12" font-weight="bold" fill="#888888" opacity="0.6">1</text>
<text x="765.0" y="417.0" text-anchor="end" font-size="9" fill="#888888" opacity="0.5">WIDE</text>
<rect x="29.0" y="433.0" width="178.0" height="364.0" rx="2" fill="#f5f0e8" stroke="#2a2a2a" stroke-width="1.5"/>
<ellipse cx="118.0" cy="585.9" rx="71.2" ry="163.8" fill="#c0b8a8" opacity="0.18"/>
<path d="M43.2,528.5 Q118.0,397.5 192.8,528.5" fill="none" stroke="#c0b8a8" stroke-width="3" opacity="0.35"/>
<line x1="93.1" y1="549.8" x2="114.4" y2="547.8" stroke="#a89888" stroke-width="1.5" opacity="0.45"/>
<line x1="121.6" y1="547.8" x2="142.9" y2="549.8" stroke="#a89888" stroke-width="1.5" opacity="0.45"/>
<ellipse cx="98.1" cy="566.2" rx="8.5" ry="8.2" fill="#a89888" opacity="0.45"/>
<ellipse cx="137.9" cy="566.2" rx="8.5" ry="8.2" fill="#a89888" opacity="0.45"/>
<line x1="118.0" y1="589.2" x2="118.0" y2="615.4" stroke="#a89888" stroke-width="1.2" opacity="0.35"/>
<path d="M113.7,615.4 Q118.0,618.4 122.3,615.4" fill="none" stroke="#a89888" stroke-width="1" opacity="0.3"/>
<line x1="100.2" y1="638.3" x2="135.8" y2="638.3" stroke="#a89888" stroke-width="1.2" opacity="0.35"/>
<text x="195.0" y="449.0" text-anchor="end" font-size="12" font-weight="bold" fill="#888888" opacity="0.6">2</text>
<text x="201.0" y="791.0" text-anchor="end" font-size="9" fill="#888888" opacity="0.5">CU</text>
<rect x="217.0" y="433.0" width="366.0" height="364.0" rx="2" fill="#f5f0e8" stroke="#2a2a2a" stroke-width="1.5"/>
<line x1="223.0" y1="716.9" x2="577.0" y2="716.9" stroke="#a89888" stroke-width="1.0" opacity="0.5"/>
<ellipse cx="339.0" cy="718.9" rx="11.2" ry="2.7" fill="#a89888" opacity="0.2"/>
<line x1="336.3" y1="701.2" x2="332.2" y2="716.9" stroke="#2e8b57" stroke-width="2" opacity="0.5"/>
<line x1="341.7" y1="701.2" x2="345.8" y2="716.9" stroke="#2e8b57" stroke-width="2" opacity="0.5"/>
<line x1="339.0" y1="688.1" x2="339.0" y2="701.2" stroke="#2e8b57" stroke-width="2.5" opacity="0.6"/>
<line x1="325.5" y1="690.1" x2="352.5" y2="690.1" stroke="#2e8b57" stroke-width="2" opacity="0.5"/>
<line x1="325.5" y1="690.1" x2="321.0" y2="701.6" stroke="#2e8b57" stroke-width="1.5" opacity="0.4"/>
<line x1="352.5" y1="690.1" x2="357.0" y2="701.6" stroke="#2e8b57" stroke-width="1.5" opacity="0.4"/>
<circle cx="339.0" cy="671.9" r="8.1" fill="#2e8b57" opacity="0.6"/>
<ellipse cx="461.0" cy="718.9" rx="11.2" ry="2.7" fill="#a89888" opacity="0.2"/>
<line x1="458.3" y1="701.2" x2="454.2" y2="716.9" stroke="#b0b0b0" stroke-width="2" opacity="0.5"/>
<line x1="463.7" y1="701.2" x2="467.8" y2="716.9" stroke="#b0b0b0" stroke-width="2" opacity="0.5"/>
<line x1="461.0" y1="688.1" x2="461.0" y2="701.2" stroke="#b0b0b0" stroke-width="2.5" opacity="0.6"/>
<line x1="447.5" y1="690.1" x2="474.5" y2="690.1" stroke="#b0b0b0" stroke-width="2" opacity="0.5"/>
<line x1="447.5" y1="690.1" x2="443.0" y2="701.6" stroke="#b0b0b0" stroke-width="1.5" opacity="0.4"/>
<line x1="474.5" y1="690.1" x2="479.0" y2="701.6" stroke="#b0b0b0" stroke-width="1.5" opacity="0.4"/>
<circle cx="461.0" cy="671.9" r="8.1" fill="#b0b0b0" opacity="0.6"/>
<rect x="223.0" y="441.0" width="223.8" height="40.0" rx="6" fill="white" stroke="#2e8b57" stroke-width="1.0" opacity="0.92"/>
<polygon points="290.1,481.0 298.1,481.0 287.1,489.0" fill="white" stroke="#2e8b57" stroke-width="0.8"/>
<line x1="289.6" y1="481.0" x2="298.6" y2="481.0" stroke="white" stroke-width="1.5"/>
<text x="229.0" y="458.0" font-size="11.0" fill="#2e8b57" font-weight="700">JINK</text>
<text x="229.0" y="472.0" font-size="11.0" fill="#333333">Hey! HEY! Over here, you overgrown—</text>
<rect x="335.1" y="491.0" width="241.9" height="40.0" rx="6" fill="white" stroke="#b0b0b0" stroke-width="1.0" opacity="0.92"/>
<polygon points="407.7,531.0 415.7,531.0 404.7,539.0" fill="white" stroke="#b0b0b0" stroke-width="0.8"/>
<line x1="407.2" y1="531.0" x2="416.2" y2="531.0" stroke="white" stroke-width="1.5"/>
<text x="341.1" y="508.0" font-size="11.0" fill="#b0b0b0" font-weight="700">SABLE</text>
<text x="341.1" y="522.0" font-size="11.0" fill="#333333">Jink, don't engage — divert and break!</text>
<text x="571.0" y="449.0" text-anchor="end" font-size="12" font-weight="bold" fill="#888888" opacity="0.6">3</text>
<text x="577.0" y="791.0" text-anchor="end" font-size="9" fill="#888888" opacity="0.5">WIDE</text>
<rect x="593.0" y="433.0" width="178.0" height="364.0" rx="2" fill="#f5f0e8" stroke="#2a2a2a" stroke-width="1.5"/>
<path d="M630.7,642.7 Q630.7,617.0 669.2,613.8 L694.8,613.8 Q733.3,617.0 733.3,642.7 L733.3,753.3 L630.7,753.3 Z" fill="#2e8b57" opacity="0.25"/>
<path d="M670.8,613.8 L682.0,629.9 L693.2,613.8" fill="none" stroke="#2e8b57" stroke-width="1" opacity="0.3"/>
<circle cx="682.0" cy="578.6" r="32.0" fill="#2e8b57" opacity="0.35"/>
<path d="M650.0,585.0 Q654.8,613.8 682.0,615.4 Q709.2,613.8 714.0,585.0" fill="none" stroke="#2e8b57" stroke-width="1.2" opacity="0.3"/>
<path d="M648.4,575.4 Q682.0,536.9 715.6,575.4" fill="none" stroke="#2e8b57" stroke-width="2" opacity="0.4"/>
<ellipse cx="648.0" cy="580.2" rx="2.5" ry="4" fill="#2e8b57" opacity="0.25"/>
<ellipse cx="716.0" cy="580.2" rx="2.5" ry="4" fill="#2e8b57" opacity="0.25"/>
<rect x="599.0" y="441.0" width="62.0" height="38.0" rx="6" fill="white" stroke="#2e8b57" stroke-width="1.0" opacity="0.92"/>
<polygon points="617.6,479.0 625.6,479.0 614.6,487.0" fill="white" stroke="#2e8b57" stroke-width="0.8"/>
<line x1="617.1" y1="479.0" x2="626.1" y2="479.0" stroke="white" stroke-width="1.5"/>
<text x="605.0" y="457.0" font-size="10.0" fill="#2e8b57" font-weight="700">JINK</text>
<text x="605.0" y="470.0" font-size="10.0" fill="#333333">HA!</text>
<text x="759.0" y="449.0" text-anchor="end" font-size="12" font-weight="bold" fill="#888888" opacity="0.6">4</text>
<text x="765.0" y="791.0" text-anchor="end" font-size="9" fill="#888888" opacity="0.5">MCU</text>
<rect x="29.0" y="807.0" width="366.0" height="364.0" rx="2" fill="#f5f0e8" stroke="#2a2a2a" stroke-width="1.5"/>
<line x1="35.0" y1="1090.9" x2="389.0" y2="1090.9" stroke="#a89888" stroke-width="1.0" opacity="0.5"/>
<ellipse cx="212.0" cy="1092.9" rx="11.2" ry="2.7" fill="#a89888" opacity="0.2"/>
<line x1="209.3" y1="1075.2" x2="205.2" y2="1090.9" stroke="#999999" stroke-width="2" opacity="0.5"/>
<line x1="214.7" y1="1075.2" x2="218.8" y2="1090.9" stroke="#999999" stroke-width="2" opacity="0.5"/>
<line x1="212.0" y1="1062.1" x2="212.0" y2="1075.2" stroke="#999999" stroke-width="2.5" opacity="0.6"/>
<line x1="198.5" y1="1064.1" x2="225.5" y2="1064.1" stroke="#999999" stroke-width="2" opacity="0.5"/>
<line x1="198.5" y1="1064.1" x2="194.0" y2="1075.6" stroke="#999999" stroke-width="1.5" opacity="0.4"/>
<line x1="225.5" y1="1064.1" x2="230.0" y2="1075.6" stroke="#999999" stroke-width="1.5" opacity="0.4"/>
<circle cx="212.0" cy="1045.9" r="8.1" fill="#999999" opacity="0.6"/>
<rect x="35.0" y="815.0" width="62.0" height="40.0" rx="6" fill="white" stroke="#999999" stroke-width="1.0" opacity="0.92"/>
<polygon points="53.6,855.0 61.6,855.0 50.6,863.0" fill="white" stroke="#999999" stroke-width="0.8"/>
<line x1="53.1" y1="855.0" x2="62.1" y2="855.0" stroke="white" stroke-width="1.5"/>
<text x="41.0" y="832.0" font-size="11.0" fill="#999999" font-weight="700">SFX</text>
<text x="41.0" y="846.0" font-size="11.0" fill="#333333">*CLANG*</text>
<text x="383.0" y="823.0" text-anchor="end" font-size="12" font-weight="bold" fill="#888888" opacity="0.6">5</text>
<text x="389.0" y="1165.0" text-anchor="end" font-size="9" fill="#888888" opacity="0.5">WIDE</text>
<rect x="405.0" y="807.0" width="366.0" height="364.0" rx="2" fill="#f5f0e8" stroke="#2a2a2a" stroke-width="1.5"/>
<line x1="411.0" y1="1090.9" x2="765.0" y2="1090.9" stroke="#a89888" stroke-width="1.0" opacity="0.5"/>
<ellipse cx="496.5" cy="1092.9" rx="11.2" ry="2.7" fill="#a89888" opacity="0.2"/>
<line x1="493.8" y1="1075.2" x2="489.8" y2="1090.9" stroke="#b0b0b0" stroke-width="2" opacity="0.5"/>
<line x1="499.2" y1="1075.2" x2="503.2" y2="1090.9" stroke="#b0b0b0" stroke-width="2" opacity="0.5"/>
<line x1="496.5" y1="1062.1" x2="496.5" y2="1075.2" stroke="#b0b0b0" stroke-width="2.5" opacity="0.6"/>
<line x1="483.0" y1="1064.1" x2="510.0" y2="1064.1" stroke="#b0b0b0" stroke-width="2" opacity="0.5"/>
<line x1="483.0" y1="1064.1" x2="478.5" y2="1075.6" stroke="#b0b0b0" stroke-width="1.5" opacity="0.4"/>
<line x1="510.0" y1="1064.1" x2="514.5" y2="1075.6" stroke="#b0b0b0" stroke-width="1.5" opacity="0.4"/>
<circle cx="496.5" cy="1045.9" r="8.1" fill="#b0b0b0" opacity="0.6"/>
<ellipse cx="588.0" cy="1092.9" rx="11.2" ry="2.7" fill="#a89888" opacity="0.2"/>
<line x1="585.3" y1="1075.2" x2="581.2" y2="1090.9" stroke="#c87533" stroke-width="2" opacity="0.5"/>
<line x1="590.7" y1="1075.2" x2="594.8" y2="1090.9" stroke="#c87533" stroke-width="2" opacity="0.5"/>
<line x1="588.0" y1="1062.1" x2="588.0" y2="1075.2" stroke="#c87533" stroke-width="2.5" opacity="0.6"/>
<line x1="574.5" y1="1064.1" x2="601.5" y2="1064.1" stroke="#c87533" stroke-width="2" opacity="0.5"/>
<line x1="574.5" y1="1064.1" x2="570.0" y2="1075.6" stroke="#c87533" stroke-width="1.5" opacity="0.4"/>
<line x1="601.5" y1="1064.1" x2="606.0" y2="1075.6" stroke="#c87533" stroke-width="1.5" opacity="0.4"/>
<circle cx="588.0" cy="1045.9" r="8.1" fill="#c87533" opacity="0.6"/>
<ellipse cx="679.5" cy="1092.9" rx="11.2" ry="2.7" fill="#a89888" opacity="0.2"/>
<line x1="676.8" y1="1075.2" x2="672.8" y2="1090.9" stroke="#2e8b57" stroke-width="2" opacity="0.5"/>
<line x1="682.2" y1="1075.2" x2="686.2" y2="1090.9" stroke="#2e8b57" stroke-width="2" opacity="0.5"/>
<line x1="679.5" y1="1062.1" x2="679.5" y2="1075.2" stroke="#2e8b57" stroke-width="2.5" opacity="0.6"/>
<line x1="666.0" y1="1064.1" x2="693.0" y2="1064.1" stroke="#2e8b57" stroke-width="2" opacity="0.5"/>
<line x1="666.0" y1="1064.1" x2="661.5" y2="1075.6" stroke="#2e8b57" stroke-width="1.5" opacity="0.4"/>
<line x1="693.0" y1="1064.1" x2="697.5" y2="1075.6" stroke="#2e8b57" stroke-width="1.5" opacity="0.4"/>
<circle cx="679.5" cy="1045.9" r="8.1" fill="#2e8b57" opacity="0.6"/>
<rect x="411.0" y="815.0" width="72.5" height="40.0" rx="6" fill="white" stroke="#b0b0b0" stroke-width="1.0" opacity="0.92"/>
<polygon points="432.8,855.0 440.8,855.0 429.8,863.0" fill="white" stroke="#b0b0b0" stroke-width="0.8"/>
<line x1="432.2" y1="855.0" x2="441.2" y2="855.0" stroke="white" stroke-width="1.5"/>
<text x="417.0" y="832.0" font-size="11.0" fill="#b0b0b0" font-weight="700">SABLE</text>
<text x="417.0" y="846.0" font-size="11.0" fill="#333333">Sound off.</text>
<rect x="703.0" y="865.0" width="62.0" height="40.0" rx="6" fill="white" stroke="#c87533" stroke-width="1.0" opacity="0.92"/>
<polygon points="721.6,905.0 729.6,905.0 718.6,913.0" fill="white" stroke="#c87533" stroke-width="0.8"/>
<line x1="721.1" y1="905.0" x2="730.1" y2="905.0" stroke="white" stroke-width="1.5"/>
<text x="709.0" y="882.0" font-size="11.0" fill="#c87533" font-weight="700">WREN</text>
<text x="709.0" y="896.0" font-size="11.0" fill="#333333">Here.</text>
<rect x="411.0" y="915.0" width="62.0" height="40.0" rx="6" fill="white" stroke="#2e8b57" stroke-width="1.0" opacity="0.92"/>
<polygon points="429.6,955.0 437.6,955.0 426.6,963.0" fill="white" stroke="#2e8b57" stroke-width="0.8"/>
<line x1="429.1" y1="955.0" x2="438.1" y2="955.0" stroke="white" stroke-width="1.5"/>
<text x="417.0" y="932.0" font-size="11.0" fill="#2e8b57" font-weight="700">JINK</text>
<text x="417.0" y="946.0" font-size="11.0" fill="#333333">Here.</text>
<rect x="703.0" y="965.0" width="62.0" height="40.0" rx="6" fill="white" stroke="#6a5acd" stroke-width="1.0" opacity="0.92"/>
<polygon points="721.6,1005.0 729.6,1005.0 718.6,1013.0" fill="white" stroke="#6a5acd" stroke-width="0.8"/>
<line x1="721.1" y1="1005.0" x2="730.1" y2="1005.0" stroke="white" stroke-width="1.5"/>
<text x="709.0" y="982.0" font-size="11.0" fill="#6a5acd" font-weight="700">LUMA</text>
<text x="709.0" y="996.0" font-size="11.0" fill="#333333">Here.</text>
<rect x="411.0" y="1015.0" width="62.0" height="40.0" rx="6" fill="white" stroke="#b22222" stroke-width="1.0" opacity="0.92"/>
<polygon points="429.6,1055.0 437.6,1055.0 426.6,1063.0" fill="white" stroke="#b22222" stroke-width="0.8"/>
<line x1="429.1" y1="1055.0" x2="438.1" y2="1055.0" stroke="white" stroke-width="1.5"/>
<text x="417.0" y="1032.0" font-size="11.0" fill="#b22222" font-weight="700">THRESH</text>
<text x="417.0" y="1046.0" font-size="11.0" fill="#333333">...here.</text>
<text x="759.0" y="823.0" text-anchor="end" font-size="12" font-weight="bold" fill="#888888" opacity="0.6">6</text>
<text x="765.0" y="1165.0" text-anchor="end" font-size="9" fill="#888888" opacity="0.5">WIDE</text>
</svg>