<svg xmlns="http://www.w3.org/2000/svg" viewBox="0 0 800 1200" width="800" height="1200" style="background:#ffffff">
<style>
  text { font-family: "Helvetica Neue", Helvetica, Arial, sans-serif; }
</style>
<text x="400.0" y="22" text-anchor="middle" font-size="16" fill="#888888" font-weight="500">PAGE 13  (4 panels)</text>
<rect x="29.0" y="59.0" width="742.0" height="364.0" rx="2" fill="#f5f0e8" stroke="#2a2a2a" stroke-width="1.5"/>
<path d="M341.4,321.1 L346.8,274.6 Q352.1,270.6 383.8,270.6 L416.2,270.6 Q447.9,270.6 453.2,274.6 L458.6,321.1 Z" fill="#c87533" opacity="0.35"/>
<line x1="346.8" y1="296.5" x2="453.2" y2="296.5" stroke="#c87533" stroke-width="1" opacity="0.3"/>
<line x1="346.8" y1="274.6" x2="325.5" y2="315.5" stroke="#c87533" stroke-width="2" opacity="0.3"/>
<line x1="325.5" y1="315.5" x2="341.4" y2="340.1" stroke="#c87533" stroke-width="2" opacity="0.3"/>
<line x1="453.2" y1="274.6" x2="474.5" y2="315.5" stroke="#c87533" stroke-width="2" opacity="0.3"/>
<line x1="474.5" y1="315.5" x2="458.6" y2="340.1" stroke="#c87533" stroke-width="2" opacity="0.3"/>
<line x1="400.0" y1="197.7" x2="400.0" y2="270.6" stroke="#c87533" stroke-width="3" opacity="0.35"/>
<circle cx="400.0" cy="157.3" r="40.5" fill="#c87533" opacity="0.4"/>
<rect x="35.0" y="67.0" width="665.4" height="40.0" rx="6" fill="white" stroke="#c87533" stroke-width="1.0" opacity="0.92"/>
<polygon points="234.6,107.0 242.6,107.0 231.6,115.0" fill="white" stroke="#c87533" stroke-width="0.8"/>
<line x1="234.1" y1="107.0" x2="243.1" y2="107.0" stroke="white" stroke-width="1.5"/>
<text x="41.0" y="84.0" font-size="11.0" fill="#c87533" font-weight="700">WREN</text>
<text x="41.0" y="98.0" font-size="11.0" fill="#333333">The temporal drive core is intact. It survived the crash inside its containment housing. That's the miracle.</text>
<rect x="577.5" y="117.0" width="187.5" height="40.0" rx="6" fill="white" stroke="#c87533" stroke-width="1.0" opacity="0.92"/>
<polygon points="633.8,157.0 641.8,157.0 630.8,165.0" fill="white" stroke="#c87533" stroke-width="0.8"/>
<line x1="633.3" y1="157.0" x2="642.3" y2="157.0" stroke="white" stroke-width="1.5"/>
<text x="583.5" y="134.0" font-size="11.0" fill="#c87533" font-weight="700">WREN</text>
<text x="583.5" y="148.0" font-size="11.0" fill="#333333">Everything around it is gone.</text>
<text x="759.0" y="75.0" text-anchor="end" font-size="12" font-weight="bold" fill="#888888" opacity="0.6">1</text>
<text x="765.0" y="417.0" text-anchor="end" font-size="9" fill="#888888" opacity="0.5">MW</text>
<rect x="29.0" y="433.0" width="742.0" height="364.0" rx="2" fill="#f5f0e8" stroke="#2a2a2a" stroke-width="1.5"/>
<ellipse cx="400.0" cy="585.9" rx="114.7" ry="163.8" fill="#c87533" opacity="0.18"/>
<path d="M279.6,528.5 Q400.0,397.5 520.4,528.5" fill="none" stroke="#c87533" stroke-width="3" opacity="0.35"/>
<line x1="359.9" y1="549.8" x2="394.3" y2="547.8" stroke="#a89888" stroke-width="1.5" opacity="0.45"/>
<line x1="405.7" y1="547.8" x2="440.1" y2="549.8" stroke="#a89888" stroke-width="1.5" opacity="0.45"/>
<ellipse cx="367.9" cy="566.2" rx="13.8" ry="8.2" fill="#a89888" opacity="0.45"/>
<ellipse cx="432.1" cy="566.2" rx="13.8" ry="8.2" fill="#a89888" opacity="0.45"/>
<line x1="400.0" y1="589.2" x2="400.0" y2="615.4" stroke="#a89888" stroke-width="1.2" opacity="0.35"/>
<path d="M393.1,615.4 Q400.0,618.4 406.9,615.4" fill="none" stroke="#a89888" stroke-width="1" opacity="0.3"/>
<line x1="371.3" y1="638.3" x2="428.7" y2="638.3" stroke="#a89888" stroke-width="1.2" opacity="0.35"/>
<rect x="35.0" y="441.0" width="550.5" height="40.0" rx="6" fill="white" stroke="#c87533" stroke-width="1.0" opacity="0.92"/>
<polygon points="200.1,481.0 208.1,481.0 197.1,489.0" fill="white" stroke="#c87533" stroke-width="0.8"/>
<line x1="199.6" y1="481.0" x2="208.6" y2="481.0" stroke="white" stroke-width="1.5"/>
<text x="41.0" y="458.0" font-size="11.0" fill="#c87533" font-weight="700">WREN</text>
<text x="41.0" y="472.0" font-size="11.0" fill="#333333">Drive core: intact but inert. No power, no field generation. It's an engine without fuel.</text>
<rect x="35.0" y="491.0" width="730.0" height="40.0" rx="6" fill="white" stroke="#c87533" stroke-width="1.0" opacity="0.92"/>
<polygon points="254.0,531.0 262.0,531.0 251.0,539.0" fill="white" stroke="#c87533" stroke-width="0.8"/>
<line x1="253.5" y1="531.0" x2="262.5" y2="531.0" stroke="white" stroke-width="1.5"/>
<text x="41.0" y="508.0" font-size="11.0" fill="#c87533" font-weight="700">WREN</text>
<text x="41.0" y="522.0" font-size="11.0" fill="#333333">Drive assembly: destroyed. The components that translate the core's output into a temporal field — shattered on impact.</text>
<rect x="35.0" y="541.0" width="617.0" height="40.0" rx="6" fill="white" stroke="#c87533" stroke-width="1.0" opacity="0.92"/>
<polygon points="220.1,581.0 228.1,581.0 217.1,589.0" fill="white" stroke="#c87533" stroke-width="0.8"/>
<line x1="219.6" y1="581.0" x2="228.6" y2="581.0" stroke="white" stroke-width="1.5"/>
<text x="41.0" y="558.0" font-size="11.0" fill="#c87533" font-weight="700">WREN</text>
<text x="41.0" y="572.0" font-size="11.0" fill="#333333">Navigation array: gone. Scattered across half of wherever we are. I haven't found a single fragment.</text>
<rect x="492.8" y="591.0" width="272.2" height="40.0" rx="6" fill="white" stroke="#c87533" stroke-width="1.0" opacity="0.92"/>
<polygon points="574.5,631.0 582.5,631.0 571.5,639.0" fill="white" stroke="#c87533" stroke-width="0.8"/>
<line x1="574.0" y1="631.0" x2="583.0" y2="631.0" stroke="white" stroke-width="1.5"/>
<text x="498.8" y="608.0" font-size="11.0" fill="#c87533" font-weight="700">WREN</text>
<text x="498.8" y="622.0" font-size="11.0" fill="#333333">Comms: also gone. We're not calling anyone.</text>
<text x="759.0" y="449.0" text-anchor="end" font-size="12" font-weight="bold" fill="#888888" opacity="0.6">2</text>
<text x="765.0" y="791.0" text-anchor="end" font-size="9" fill="#888888" opacity="0.5">CU</text>
<rect x="29.0" y="807.0" width="366.0" height="364.0" rx="2" fill="#f5f0e8" stroke="#2a2a2a" stroke-width="1.5"/>
<path d="M110.1,1080.0 Q110.1,1029.0 186.5,1022.7 L237.5,1022.7 Q313.9,1029.0 313.9,1080.0 L313.9,1127.3 L110.1,1127.3 Z" fill="#2e8b57" opacity="0.25"/>
<path d="M189.7,1022.7 L212.0,1054.5 L234.3,1022.7" fill="none" stroke="#2e8b57" stroke-width="1" opacity="0.3"/>
<circle cx="212.0" cy="952.6" r="63.7" fill="#2e8b57" opacity="0.35"/>
<path d="M148.3,965.3 Q157.9,1022.7 212.0,1025.9 Q266.1,1022.7 275.7,965.3" fill="none" stroke="#2e8b57" stroke-width="1.2" opacity="0.3"/>
<path d="M145.1,946.2 Q212.0,869.8 278.9,946.2" fill="none" stroke="#2e8b57" stroke-width="2" opacity="0.4"/>
<ellipse cx="146.3" cy="955.8" rx="2.5" ry="4" fill="#2e8b57" opacity="0.25"/>
<ellipse cx="277.7" cy="955.8" rx="2.5" ry="4" fill="#2e8b57" opacity="0.25"/>
<rect x="35.0" y="815.0" width="344.8" height="54.0" rx="6" fill="white" stroke="#2e8b57" stroke-width="1.0" opacity="0.92"/>
<polygon points="138.4,869.0 146.4,869.0 135.4,877.0" fill="white" stroke="#2e8b57" stroke-width="0.8"/>
<line x1="137.9" y1="869.0" x2="146.9" y2="869.0" stroke="white" stroke-width="1.5"/>
<text x="41.0" y="832.0" font-size="11.0" fill="#2e8b57" font-weight="700">JINK</text>
<text x="41.0" y="846.0" font-size="11.0" fill="#333333">So when you say gone... you mean we can't just find the</text>
<text x="41.0" y="860.0" font-size="11.0" fill="#333333">pieces?</text>
<rect x="35.0" y="879.0" width="350.8" height="54.0" rx="6" fill="white" stroke="#c87533" stroke-width="1.0" opacity="0.92"/>
<polygon points="140.2,933.0 148.2,933.0 137.2,941.0" fill="white" stroke="#c87533" stroke-width="0.8"/>
<line x1="139.7" y1="933.0" x2="148.7" y2="933.0" stroke="white" stroke-width="1.5"/>
<text x="41.0" y="896.0" font-size="11.0" fill="#c87533" font-weight="700">WREN</text>
<text x="41.0" y="910.0" font-size="11.0" fill="#333333">I mean atomised. Scattered at the molecular level across</text>
<text x="41.0" y="924.0" font-size="11.0" fill="#333333">the impact trajectory. There are no pieces.</text>
<text x="383.0" y="823.0" text-anchor="end" font-size="12" font-weight="bold" fill="#888888" opacity="0.6">3</text>
<text x="389.0" y="1165.0" text-anchor="end" font-size="9" fill="#888888" opacity="0.5">MCU</text>
<rect x="405.0" y="807.0" width="366.0" height="364.0" rx="2" fill="#f5f0e8" stroke="#2a2a2a" stroke-width="1.5"/>
<path d="M486.1,1080.0 Q486.1,1029.0 562.5,1022.7 L613.5,1022.7 Q689.9,1029.0 689.9,1080.0 L689.9,1127.3 L486.1,1127.3 Z" fill="#c0b8a8" opacity="0.25"/>
<path d="M565.7,1022.7 L588.0,1054.5 L610.3,1022.7" fill="none" stroke="#c0b8a8" stroke-width="1" opacity="0.3"/>
<circle cx="588.0" cy="952.6" r="63.7" fill="#c0b8a8" opacity="0.35"/>
<path d="M524.3,965.3 Q533.9,1022.7 588.0,1025.9 Q642.1,1022.7 651.7,965.3" fill="none" stroke="#c0b8a8" stroke-width="1.2" opacity="0.3"/>
<path d="M521.1,946.2 Q588.0,869.8 654.9,946.2" fill="none" stroke="#c0b8a8" stroke-width="2" opacity="0.4"/>
<ellipse cx="522.3" cy="955.8" rx="2.5" ry="4" fill="#c0b8a8" opacity="0.25"/>
<ellipse cx="653.7" cy="955.8" rx="2.5" ry="4" fill="#c0b8a8" opacity="0.25"/>
<text x="759.0" y="823.0" text-anchor="end" font-size="12" font-weight="bold" fill="#888888" opacity="0.6">4</text>
<text x="765.0" y="1165.0" text-anchor="end" font-size="9" fill="#888888" opacity="0.5">MCU</text>
</svg>