<svg xmlns="http://www.w3.org/2000/svg" viewBox="0 0 800 1200" width="800" height="1200" style="background:#ffffff">
<style>
  text { font-family: "Helvetica Neue", Helvetica, Arial, sans-serif; }
</style>
<text x="400.0" y="22" text-anchor="middle" font-size="16" fill="#888888" font-weight="500">PAGE 6  (5 panels)</text>
<rect x="29.0" y="59.0" width="742.0" height="364.0" rx="2" fill="#f5f0e8" stroke="#2a2a2a" stroke-width="1.5"/>
<line x1="377.7" y1="272.9" x2="311.0" y2="312.9" stroke="#999999" stroke-width="3" opacity="0.35"/>
<line x1="311.0" y1="312.9" x2="355.5" y2="342.9" stroke="#999999" stroke-width="3" opacity="0.35"/>
<line x1="422.3" y1="272.9" x2="511.3" y2="302.9" stroke="#999999" stroke-width="3" opacity="0.35"/>
<line x1="511.3" y1="302.9" x2="533.6" y2="326.9" stroke="#999999" stroke-width="3" opacity="0.35"/>
<line x1="444.5" y1="186.7" x2="386.6" y2="272.9" stroke="#999999" stroke-width="3.5" opacity="0.4"/>
<circle cx="444.5" cy="142.7" r="20.0" fill="#999999" opacity="0.4"/>
<line x1="422.3" y1="216.8" x2="533.6" y2="187.6" stroke="#999999" stroke-width="2.5" opacity="0.35"/>
<line x1="422.3" y1="216.8" x2="296.1" y2="238.6" stroke="#999999" stroke-width="2.5" opacity="0.35"/>
<path d="M422.3,206.7 Q333.2,170.3 362.9,141.2" fill="none" stroke="#999999" stroke-width="1.5" opacity="0.25"/>
<path d="M422.3,206.7 Q511.3,170.3 481.6,141.2" fill="none" stroke="#999999" stroke-width="1.5" opacity="0.25"/>
<line x1="607.8" y1="175.5" x2="733.9" y2="175.5" stroke="#a89888" stroke-width="1.2" opacity="0.3"/>
<line x1="607.8" y1="211.9" x2="733.9" y2="211.9" stroke="#a89888" stroke-width="1.2" opacity="0.3"/>
<line x1="607.8" y1="248.3" x2="733.9" y2="248.3" stroke="#a89888" stroke-width="1.2" opacity="0.3"/>
<line x1="607.8" y1="284.7" x2="733.9" y2="284.7" stroke="#a89888" stroke-width="1.2" opacity="0.3"/>
<line x1="66.1" y1="131.8" x2="162.6" y2="131.8" stroke="#a89888" stroke-width="1" opacity="0.2"/>
<line x1="66.1" y1="186.4" x2="162.6" y2="186.4" stroke="#a89888" stroke-width="1" opacity="0.2"/>
<line x1="66.1" y1="295.6" x2="162.6" y2="295.6" stroke="#a89888" stroke-width="1" opacity="0.2"/>
<line x1="66.1" y1="350.2" x2="162.6" y2="350.2" stroke="#a89888" stroke-width="1" opacity="0.2"/>
<rect x="35.0" y="67.0" width="169.3" height="40.0" rx="6" fill="white" stroke="#999999" stroke-width="1.0" opacity="0.92"/>
<polygon points="85.8,107.0 93.8,107.0 82.8,115.0" fill="white" stroke="#999999" stroke-width="0.8"/>
<line x1="85.3" y1="107.0" x2="94.3" y2="107.0" stroke="white" stroke-width="1.5"/>
<text x="41.0" y="84.0" font-size="11.0" fill="#999999" font-weight="700">SFX</text>
<text x="41.0" y="98.0" font-size="11.0" fill="#333333">**VWWMMM** (wing-pack hum)</text>
<rect x="703.0" y="117.0" width="62.0" height="40.0" rx="6" fill="white" stroke="#2e8b57" stroke-width="1.0" opacity="0.92"/>
<polygon points="721.6,157.0 729.6,157.0 718.6,165.0" fill="white" stroke="#2e8b57" stroke-width="0.8"/>
<line x1="721.1" y1="157.0" x2="730.1" y2="157.0" stroke="white" stroke-width="1.5"/>
<text x="709.0" y="134.0" font-size="11.0" fill="#2e8b57" font-weight="700">JINK</text>
<text x="709.0" y="148.0" font-size="11.0" fill="#333333">WHOOOO!</text>
<rect x="35.0" y="167.0" width="211.7" height="40.0" rx="6" fill="white" stroke="#b0b0b0" stroke-width="1.0" opacity="0.92"/>
<polygon points="98.5,207.0 106.5,207.0 95.5,215.0" fill="white" stroke="#b0b0b0" stroke-width="0.8"/>
<line x1="98.0" y1="207.0" x2="107.0" y2="207.0" stroke="white" stroke-width="1.5"/>
<text x="41.0" y="184.0" font-size="11.0" fill="#b0b0b0" font-weight="700">SABLE</text>
<text x="41.0" y="198.0" font-size="11.0" fill="#333333">Low and fast, Jink. LOW and FAST.</text>
<text x="759.0" y="75.0" text-anchor="end" font-size="12" font-weight="bold" fill="#888888" opacity="0.6">1</text>
<text x="765.0" y="417.0" text-anchor="end" font-size="9" fill="#888888" opacity="0.5">DYN</text>
<rect x="29.0" y="433.0" width="238.2" height="364.0" rx="2" fill="#f5f0e8" stroke="#2a2a2a" stroke-width="1.5"/>
<circle cx="148.1" cy="615.0" r="45.0" fill="#c0b8a8" opacity="0.22"/>
<line x1="123.3" y1="603.8" x2="141.3" y2="596.1" stroke="#a89888" stroke-width="1.5" opacity="0.5"/>
<line x1="154.8" y1="596.1" x2="172.8" y2="603.8" stroke="#a89888" stroke-width="1.5" opacity="0.5"/>
<ellipse cx="134.6" cy="610.5" rx="4.5" ry="2.7" fill="#a89888" opacity="0.5"/>
<ellipse cx="161.6" cy="610.5" rx="4.5" ry="2.7" fill="#a89888" opacity="0.5"/>
<line x1="148.1" y1="615.9" x2="148.1" y2="624.0" stroke="#a89888" stroke-width="1" opacity="0.35"/>
<ellipse cx="148.1" cy="632.1" rx="6.8" ry="3.6" fill="#a89888" opacity="0.25"/>
<line x1="192.9" y1="640.9" x2="200.7" y2="645.4" stroke="#a89888" stroke-width="1" opacity="0.3"/>
<line x1="174.0" y1="659.8" x2="178.5" y2="667.6" stroke="#a89888" stroke-width="1" opacity="0.3"/>
<line x1="122.2" y1="659.8" x2="117.7" y2="667.6" stroke="#a89888" stroke-width="1" opacity="0.3"/>
<line x1="103.3" y1="640.9" x2="95.5" y2="645.4" stroke="#a89888" stroke-width="1" opacity="0.3"/>
<line x1="103.3" y1="589.1" x2="95.5" y2="584.6" stroke="#a89888" stroke-width="1" opacity="0.3"/>
<line x1="122.2" y1="570.2" x2="117.7" y2="562.4" stroke="#a89888" stroke-width="1" opacity="0.3"/>
<line x1="174.0" y1="570.2" x2="178.5" y2="562.4" stroke="#a89888" stroke-width="1" opacity="0.3"/>
<line x1="192.9" y1="589.1" x2="200.7" y2="584.6" stroke="#a89888" stroke-width="1" opacity="0.3"/>
<text x="255.2" y="449.0" text-anchor="end" font-size="12" font-weight="bold" fill="#888888" opacity="0.6">2</text>
<text x="261.2" y="791.0" text-anchor="end" font-size="9" fill="#888888" opacity="0.5">RXN</text>
<rect x="277.2" y="433.0" width="493.8" height="364.0" rx="2" fill="#f5f0e8" stroke="#2a2a2a" stroke-width="1.5"/>
<line x1="285.2" y1="560.4" x2="763.0" y2="560.4" stroke="#a89888" stroke-width="0.6" opacity="0.2"/>
<line x1="524.1" y1="560.4" x2="326.5" y2="760.6" stroke="#a89888" stroke-width="0.8" opacity="0.25"/>
<line x1="524.1" y1="560.4" x2="425.3" y2="760.6" stroke="#a89888" stroke-width="0.8" opacity="0.25"/>
<line x1="524.1" y1="560.4" x2="489.5" y2="760.6" stroke="#a89888" stroke-width="0.8" opacity="0.25"/>
<line x1="524.1" y1="560.4" x2="558.6" y2="760.6" stroke="#a89888" stroke-width="0.8" opacity="0.25"/>
<line x1="524.1" y1="560.4" x2="622.8" y2="760.6" stroke="#a89888" stroke-width="0.8" opacity="0.25"/>
<line x1="524.1" y1="560.4" x2="721.6" y2="760.6" stroke="#a89888" stroke-width="0.8" opacity="0.25"/>
<circle cx="524.1" cy="560.4" r="3" fill="#a89888" opacity="0.3"/>
<rect x="283.2" y="441.0" width="481.8" height="54.0" rx="6" fill="white" stroke="#2e8b57" stroke-width="1.0" opacity="0.92"/>
<polygon points="427.7,495.0 435.7,495.0 424.7,503.0" fill="white" stroke="#2e8b57" stroke-width="0.8"/>
<line x1="427.2" y1="495.0" x2="436.2" y2="495.0" stroke="white" stroke-width="1.5"/>
<text x="289.2" y="458.0" font-size="11.0" fill="#2e8b57" font-weight="700">JINK</text>
<text x="289.2" y="472.0" font-size="11.0" fill="#333333">*&quot;Street's a boulder field. Good cover between the setts. There's a drain grate</text>
<text x="289.2" y="486.0" font-size="11.0" fill="#333333">forty metres ahead — big enough to shelter in.&quot;*</text>
<rect x="283.2" y="505.0" width="481.8" height="54.0" rx="6" fill="white" stroke="#2e8b57" stroke-width="1.0" opacity="0.92"/>
<polygon points="427.7,559.0 435.7,559.0 424.7,567.0" fill="white" stroke="#2e8b57" stroke-width="0.8"/>
<line x1="427.2" y1="559.0" x2="436.2" y2="559.0" stroke="white" stroke-width="1.5"/>
<text x="289.2" y="522.0" font-size="11.0" fill="#2e8b57" font-weight="700">JINK</text>
<text x="289.2" y="536.0" font-size="11.0" fill="#333333">*&quot;One gas lamp on this block. Another on the corner. Foot traffic's light — rain's</text>
<text x="289.2" y="550.0" font-size="11.0" fill="#333333">keeping people off the street.&quot;*</text>
<text x="759.0" y="449.0" text-anchor="end" font-size="12" font-weight="bold" fill="#888888" opacity="0.6">3</text>
<text x="765.0" y="791.0" text-anchor="end" font-size="9" fill="#888888" opacity="0.5">POV</text>
<rect x="29.0" y="807.0" width="366.0" height="364.0" rx="2" fill="#f5f0e8" stroke="#2a2a2a" stroke-width="1.5"/>
<path d="M153.4,1069.1 L158.8,1022.6 Q164.1,1018.6 195.8,1018.6 L228.2,1018.6 Q259.9,1018.6 265.2,1022.6 L270.6,1069.1 Z" fill="#2e8b57" opacity="0.35"/>
<line x1="158.8" y1="1044.5" x2="265.2" y2="1044.5" stroke="#2e8b57" stroke-width="1" opacity="0.3"/>
<line x1="158.8" y1="1022.6" x2="137.5" y2="1063.5" stroke="#2e8b57" stroke-width="2" opacity="0.3"/>
<line x1="137.5" y1="1063.5" x2="153.4" y2="1088.1" stroke="#2e8b57" stroke-width="2" opacity="0.3"/>
<line x1="265.2" y1="1022.6" x2="286.5" y2="1063.5" stroke="#2e8b57" stroke-width="2" opacity="0.3"/>
<line x1="286.5" y1="1063.5" x2="270.6" y2="1088.1" stroke="#2e8b57" stroke-width="2" opacity="0.3"/>
<line x1="212.0" y1="945.7" x2="212.0" y2="1018.6" stroke="#2e8b57" stroke-width="3" opacity="0.35"/>
<circle cx="212.0" cy="905.3" r="40.5" fill="#2e8b57" opacity="0.4"/>
<rect x="35.0" y="815.0" width="181.4" height="40.0" rx="6" fill="white" stroke="#2e8b57" stroke-width="1.0" opacity="0.92"/>
<polygon points="89.4,855.0 97.4,855.0 86.4,863.0" fill="white" stroke="#2e8b57" stroke-width="0.8"/>
<line x1="88.9" y1="855.0" x2="97.9" y2="855.0" stroke="white" stroke-width="1.5"/>
<text x="41.0" y="832.0" font-size="11.0" fill="#2e8b57" font-weight="700">JINK</text>
<text x="41.0" y="846.0" font-size="11.0" fill="#333333">Left. Right. Under. Through.</text>
<text x="383.0" y="823.0" text-anchor="end" font-size="12" font-weight="bold" fill="#888888" opacity="0.6">4</text>
<text x="389.0" y="1165.0" text-anchor="end" font-size="9" fill="#888888" opacity="0.5">MED</text>
<rect x="405.0" y="807.0" width="366.0" height="364.0" rx="2" fill="#f5f0e8" stroke="#2a2a2a" stroke-width="1.5"/>
<path d="M529.4,1069.1 L534.8,1022.6 Q540.1,1018.6 571.8,1018.6 L604.2,1018.6 Q635.9,1018.6 641.2,1022.6 L646.6,1069.1 Z" fill="#6a5acd" opacity="0.35"/>
<line x1="534.8" y1="1044.5" x2="641.2" y2="1044.5" stroke="#6a5acd" stroke-width="1" opacity="0.3"/>
<line x1="534.8" y1="1022.6" x2="513.5" y2="1063.5" stroke="#6a5acd" stroke-width="2" opacity="0.3"/>
<line x1="513.5" y1="1063.5" x2="529.4" y2="1088.1" stroke="#6a5acd" stroke-width="2" opacity="0.3"/>
<line x1="641.2" y1="1022.6" x2="662.5" y2="1063.5" stroke="#6a5acd" stroke-width="2" opacity="0.3"/>
<line x1="662.5" y1="1063.5" x2="646.6" y2="1088.1" stroke="#6a5acd" stroke-width="2" opacity="0.3"/>
<line x1="588.0" y1="945.7" x2="588.0" y2="1018.6" stroke="#6a5acd" stroke-width="3" opacity="0.35"/>
<circle cx="588.0" cy="905.3" r="40.5" fill="#6a5acd" opacity="0.4"/>
<rect x="411.0" y="815.0" width="266.1" height="40.0" rx="6" fill="white" stroke="#6a5acd" stroke-width="1.0" opacity="0.92"/>
<polygon points="490.8,855.0 498.8,855.0 487.8,863.0" fill="white" stroke="#6a5acd" stroke-width="0.8"/>
<line x1="490.3" y1="855.0" x2="499.3" y2="855.0" stroke="white" stroke-width="1.5"/>
<text x="417.0" y="832.0" font-size="11.0" fill="#6a5acd" font-weight="700">LUMA</text>
<text x="417.0" y="846.0" font-size="11.0" fill="#333333">Hold still. This will seal in ten seconds.</text>
<rect x="589.6" y="865.0" width="175.4" height="40.0" rx="6" fill="white" stroke="#b0b0b0" stroke-width="1.0" opacity="0.92"/>
<polygon points="642.3,905.0 650.3,905.0 639.3,913.0" fill="white" stroke="#b0b0b0" stroke-width="0.8"/>
<line x1="641.8" y1="905.0" x2="650.8" y2="905.0" stroke="white" stroke-width="1.5"/>
<text x="595.6" y="882.0" font-size="11.0" fill="#b0b0b0" font-weight="700">SABLE</text>
<text x="595.6" y="896.0" font-size="11.0" fill="#333333">We do not have ten seconds.</text>
<rect x="411.0" y="915.0" width="272.2" height="40.0" rx="6" fill="white" stroke="#6a5acd" stroke-width="1.0" opacity="0.92"/>
<polygon points="492.6,955.0 500.6,955.0 489.6,963.0" fill="white" stroke="#6a5acd" stroke-width="0.8"/>
<line x1="492.1" y1="955.0" x2="501.1" y2="955.0" stroke="white" stroke-width="1.5"/>
<text x="417.0" y="932.0" font-size="11.0" fill="#6a5acd" font-weight="700">LUMA</text>
<text x="417.0" y="946.0" font-size="11.0" fill="#333333">You have ten seconds. The street will wait.</text>
<text x="759.0" y="823.0" text-anchor="end" font-size="12" font-weight="bold" fill="#888888" opacity="0.6">5</text>
<text x="765.0" y="1165.0" text-anchor="end" font-size="9" fill="#888888" opacity="0.5">MW</text>
</svg>