<svg xmlns="http://www.w3.org/2000/svg" viewBox="0 0 800 1200" width="800" height="1200" style="background:#ffffff">
<style>
  text { font-family: "Helvetica Neue", Helvetica, Arial, sans-serif; }
</style>
<text x="400.0" y="22" text-anchor="middle" font-size="16" fill="#888888" font-weight="500">PAGE 18  (4 panels)</text>
<rect x="29.0" y="59.0" width="493.8" height="551.0" rx="2" fill="#f5f0e8" stroke="#2a2a2a" stroke-width="1.5"/>
<path d="M187.3,455.7 L195.3,383.3 Q203.4,379.3 251.4,379.3 L300.4,379.3 Q348.4,379.3 356.5,383.3 L364.6,455.7 Z" fill="#b0b0b0" opacity="0.35"/>
<line x1="195.3" y1="418.5" x2="356.5" y2="418.5" stroke="#b0b0b0" stroke-width="1" opacity="0.3"/>
<line x1="195.3" y1="383.3" x2="163.1" y2="445.2" stroke="#b0b0b0" stroke-width="2" opacity="0.3"/>
<line x1="163.1" y1="445.2" x2="187.3" y2="482.4" stroke="#b0b0b0" stroke-width="2" opacity="0.3"/>
<line x1="356.5" y1="383.3" x2="388.7" y2="445.2" stroke="#b0b0b0" stroke-width="2" opacity="0.3"/>
<line x1="388.7" y1="445.2" x2="364.6" y2="482.4" stroke="#b0b0b0" stroke-width="2" opacity="0.3"/>
<line x1="275.9" y1="269.0" x2="275.9" y2="379.3" stroke="#b0b0b0" stroke-width="3" opacity="0.35"/>
<circle cx="275.9" cy="207.8" r="61.2" fill="#b0b0b0" opacity="0.4"/>
<rect x="35.0" y="67.0" width="296.4" height="40.0" rx="6" fill="white" stroke="#b0b0b0" stroke-width="1.0" opacity="0.92"/>
<polygon points="123.9,107.0 131.9,107.0 120.9,115.0" fill="white" stroke="#b0b0b0" stroke-width="0.8"/>
<line x1="123.4" y1="107.0" x2="132.4" y2="107.0" stroke="white" stroke-width="1.5"/>
<text x="41.0" y="84.0" font-size="11.0" fill="#b0b0b0" font-weight="700">SABLE</text>
<text x="41.0" y="98.0" font-size="11.0" fill="#333333">Clockmakers. Watch repairers. Instrument shops.</text>
<rect x="377.8" y="117.0" width="139.1" height="40.0" rx="6" fill="white" stroke="#b0b0b0" stroke-width="1.0" opacity="0.92"/>
<polygon points="419.5,157.0 427.5,157.0 416.5,165.0" fill="white" stroke="#b0b0b0" stroke-width="0.8"/>
<line x1="419.0" y1="157.0" x2="428.0" y2="157.0" stroke="white" stroke-width="1.5"/>
<text x="383.8" y="134.0" font-size="11.0" fill="#b0b0b0" font-weight="700">SABLE</text>
<text x="383.8" y="148.0" font-size="11.0" fill="#333333">A city full of gears.</text>
<text x="510.8" y="75.0" text-anchor="end" font-size="12" font-weight="bold" fill="#888888" opacity="0.6">1</text>
<text x="516.8" y="604.0" text-anchor="end" font-size="9" fill="#888888" opacity="0.5">MED</text>
<rect x="532.8" y="59.0" width="238.2" height="551.0" rx="2" fill="#f5f0e8" stroke="#2a2a2a" stroke-width="1.5"/>
<ellipse cx="651.9" cy="290.4" rx="95.3" ry="248.0" fill="#b0b0b0" opacity="0.18"/>
<path d="M551.9,203.6 Q651.9,5.3 751.9,203.6" fill="none" stroke="#b0b0b0" stroke-width="3" opacity="0.35"/>
<line x1="618.6" y1="235.9" x2="647.2" y2="233.9" stroke="#a89888" stroke-width="1.5" opacity="0.45"/>
<line x1="656.7" y1="233.9" x2="685.3" y2="235.9" stroke="#a89888" stroke-width="1.5" opacity="0.45"/>
<ellipse cx="625.2" cy="260.7" rx="11.4" ry="12.4" fill="#a89888" opacity="0.45"/>
<ellipse cx="678.6" cy="260.7" rx="11.4" ry="12.4" fill="#a89888" opacity="0.45"/>
<line x1="651.9" y1="295.4" x2="651.9" y2="335.1" stroke="#a89888" stroke-width="1.2" opacity="0.35"/>
<path d="M646.2,335.1 Q651.9,338.1 657.6,335.1" fill="none" stroke="#a89888" stroke-width="1" opacity="0.3"/>
<line x1="628.1" y1="369.8" x2="675.7" y2="369.8" stroke="#a89888" stroke-width="1.2" opacity="0.35"/>
<rect x="538.8" y="67.0" width="215.5" height="51.0" rx="6" fill="white" stroke="#b0b0b0" stroke-width="1.0" opacity="0.92"/>
<polygon points="603.5,118.0 611.5,118.0 600.5,126.0" fill="white" stroke="#b0b0b0" stroke-width="0.8"/>
<line x1="603.0" y1="118.0" x2="612.0" y2="118.0" stroke="white" stroke-width="1.5"/>
<text x="544.8" y="83.0" font-size="10.0" fill="#b0b0b0" font-weight="700">SABLE</text>
<text x="544.8" y="96.0" font-size="10.0" fill="#333333">Waypoint set. This is home base. Code</text>
<text x="544.8" y="109.0" font-size="10.0" fill="#333333">designation: the Wall.</text>
<text x="759.0" y="75.0" text-anchor="end" font-size="12" font-weight="bold" fill="#888888" opacity="0.6">2</text>
<text x="765.0" y="604.0" text-anchor="end" font-size="9" fill="#888888" opacity="0.5">CU</text>
<rect x="29.0" y="620.0" width="366.0" height="551.0" rx="2" fill="#f5f0e8" stroke="#2a2a2a" stroke-width="1.5"/>
<path d="M141.5,1016.7 L147.9,909.1 Q154.4,905.1 192.5,905.1 L231.5,905.1 Q269.6,905.1 276.1,909.1 L282.5,1016.7 Z" fill="#c0b8a8" opacity="0.35"/>
<line x1="147.9" y1="979.5" x2="276.1" y2="979.5" stroke="#c0b8a8" stroke-width="1" opacity="0.3"/>
<line x1="147.9" y1="909.1" x2="122.3" y2="971.1" stroke="#c0b8a8" stroke-width="2" opacity="0.3"/>
<line x1="122.3" y1="971.1" x2="141.5" y2="1008.2" stroke="#c0b8a8" stroke-width="2" opacity="0.3"/>
<line x1="276.1" y1="909.1" x2="301.7" y2="971.1" stroke="#c0b8a8" stroke-width="2" opacity="0.3"/>
<line x1="301.7" y1="971.1" x2="282.5" y2="1008.2" stroke="#c0b8a8" stroke-width="2" opacity="0.3"/>
<line x1="212.0" y1="817.4" x2="212.0" y2="905.1" stroke="#c0b8a8" stroke-width="3" opacity="0.35"/>
<circle cx="212.0" cy="768.8" r="48.7" fill="#c0b8a8" opacity="0.4"/>
<text x="383.0" y="636.0" text-anchor="end" font-size="12" font-weight="bold" fill="#888888" opacity="0.6">3</text>
<text x="389.0" y="1165.0" text-anchor="end" font-size="9" fill="#888888" opacity="0.5">MED</text>
<rect x="405.0" y="620.0" width="366.0" height="551.0" rx="2" fill="#f5f0e8" stroke="#2a2a2a" stroke-width="1.5"/>
<path d="M482.6,972.2 Q482.6,919.5 561.6,912.9 L614.4,912.9 Q693.4,919.5 693.4,972.2 L693.4,1104.9 L482.6,1104.9 Z" fill="#c0b8a8" opacity="0.25"/>
<path d="M564.9,912.9 L588.0,945.8 L611.1,912.9" fill="none" stroke="#c0b8a8" stroke-width="1" opacity="0.3"/>
<circle cx="588.0" cy="840.4" r="65.9" fill="#c0b8a8" opacity="0.35"/>
<path d="M522.1,853.6 Q532.0,912.9 588.0,916.2 Q644.0,912.9 653.9,853.6" fill="none" stroke="#c0b8a8" stroke-width="1.2" opacity="0.3"/>
<path d="M518.8,833.8 Q588.0,754.8 657.2,833.8" fill="none" stroke="#c0b8a8" stroke-width="2" opacity="0.4"/>
<ellipse cx="520.1" cy="843.7" rx="2.5" ry="4" fill="#c0b8a8" opacity="0.25"/>
<ellipse cx="655.9" cy="843.7" rx="2.5" ry="4" fill="#c0b8a8" opacity="0.25"/>
<text x="759.0" y="636.0" text-anchor="end" font-size="12" font-weight="bold" fill="#888888" opacity="0.6">4</text>
<text x="765.0" y="1165.0" text-anchor="end" font-size="9" fill="#888888" opacity="0.5">MCU</text>
</svg>