<svg xmlns="http://www.w3.org/2000/svg" viewBox="0 0 800 1200" width="800" height="1200" style="background:#ffffff">
<style>
  text { font-family: "Helvetica Neue", Helvetica, Arial, sans-serif; }
</style>
<text x="400.0" y="22" text-anchor="middle" font-size="16" fill="#888888" font-weight="500">PAGE 16  (5 panels)</text>
<rect x="29.0" y="59.0" width="366.0" height="364.0" rx="2" fill="#f5f0e8" stroke="#2a2a2a" stroke-width="1.5"/>
<path d="M153.4,321.1 L158.8,274.6 Q164.1,270.6 195.8,270.6 L228.2,270.6 Q259.9,270.6 265.2,274.6 L270.6,321.1 Z" fill="#2e8b57" opacity="0.35"/>
<line x1="158.8" y1="296.5" x2="265.2" y2="296.5" stroke="#2e8b57" stroke-width="1" opacity="0.3"/>
<line x1="158.8" y1="274.6" x2="137.5" y2="315.5" stroke="#2e8b57" stroke-width="2" opacity="0.3"/>
<line x1="137.5" y1="315.5" x2="153.4" y2="340.1" stroke="#2e8b57" stroke-width="2" opacity="0.3"/>
<line x1="265.2" y1="274.6" x2="286.5" y2="315.5" stroke="#2e8b57" stroke-width="2" opacity="0.3"/>
<line x1="286.5" y1="315.5" x2="270.6" y2="340.1" stroke="#2e8b57" stroke-width="2" opacity="0.3"/>
<line x1="212.0" y1="197.7" x2="212.0" y2="270.6" stroke="#2e8b57" stroke-width="3" opacity="0.35"/>
<circle cx="212.0" cy="157.3" r="40.5" fill="#2e8b57" opacity="0.4"/>
<rect x="35.0" y="67.0" width="223.8" height="40.0" rx="6" fill="white" stroke="#2e8b57" stroke-width="1.0" opacity="0.92"/>
<polygon points="102.1,107.0 110.1,107.0 99.1,115.0" fill="white" stroke="#2e8b57" stroke-width="0.8"/>
<line x1="101.6" y1="107.0" x2="110.6" y2="107.0" stroke="white" stroke-width="1.5"/>
<text x="41.0" y="84.0" font-size="11.0" fill="#2e8b57" font-weight="700">JINK</text>
<text x="41.0" y="98.0" font-size="11.0" fill="#333333">So we just... wait here? In a wall?</text>
<rect x="110.8" y="117.0" width="278.2" height="40.0" rx="6" fill="white" stroke="#b0b0b0" stroke-width="1.0" opacity="0.92"/>
<polygon points="194.3,157.0 202.3,157.0 191.3,165.0" fill="white" stroke="#b0b0b0" stroke-width="0.8"/>
<line x1="193.8" y1="157.0" x2="202.8" y2="157.0" stroke="white" stroke-width="1.5"/>
<text x="116.8" y="134.0" font-size="11.0" fill="#b0b0b0" font-weight="700">SABLE</text>
<text x="116.8" y="148.0" font-size="11.0" fill="#333333">We rest. We plan. We prepare. In that order.</text>
<rect x="35.0" y="167.0" width="193.5" height="40.0" rx="6" fill="white" stroke="#2e8b57" stroke-width="1.0" opacity="0.92"/>
<polygon points="93.1,207.0 101.1,207.0 90.1,215.0" fill="white" stroke="#2e8b57" stroke-width="0.8"/>
<line x1="92.6" y1="207.0" x2="101.6" y2="207.0" stroke="white" stroke-width="1.5"/>
<text x="41.0" y="184.0" font-size="11.0" fill="#2e8b57" font-weight="700">JINK</text>
<text x="41.0" y="198.0" font-size="11.0" fill="#333333">I'm not good at the first one.</text>
<text x="383.0" y="75.0" text-anchor="end" font-size="12" font-weight="bold" fill="#888888" opacity="0.6">1</text>
<text x="389.0" y="417.0" text-anchor="end" font-size="9" fill="#888888" opacity="0.5">MED</text>
<rect x="405.0" y="59.0" width="366.0" height="364.0" rx="2" fill="#f5f0e8" stroke="#2a2a2a" stroke-width="1.5"/>
<path d="M486.1,332.0 Q486.1,281.0 562.5,274.7 L613.5,274.7 Q689.9,281.0 689.9,332.0 L689.9,379.3 L486.1,379.3 Z" fill="#c0b8a8" opacity="0.25"/>
<path d="M565.7,274.7 L588.0,306.5 L610.3,274.7" fill="none" stroke="#c0b8a8" stroke-width="1" opacity="0.3"/>
<circle cx="588.0" cy="204.6" r="63.7" fill="#c0b8a8" opacity="0.35"/>
<path d="M524.3,217.3 Q533.9,274.7 588.0,277.9 Q642.1,274.7 651.7,217.3" fill="none" stroke="#c0b8a8" stroke-width="1.2" opacity="0.3"/>
<path d="M521.1,198.2 Q588.0,121.8 654.9,198.2" fill="none" stroke="#c0b8a8" stroke-width="2" opacity="0.4"/>
<ellipse cx="522.3" cy="207.8" rx="2.5" ry="4" fill="#c0b8a8" opacity="0.25"/>
<ellipse cx="653.7" cy="207.8" rx="2.5" ry="4" fill="#c0b8a8" opacity="0.25"/>
<text x="759.0" y="75.0" text-anchor="end" font-size="12" font-weight="bold" fill="#888888" opacity="0.6">2</text>
<text x="765.0" y="417.0" text-anchor="end" font-size="9" fill="#888888" opacity="0.5">MCU</text>
<rect x="29.0" y="433.0" width="742.0" height="364.0" rx="2" fill="#f5f0e8" stroke="#2a2a2a" stroke-width="1.5"/>
<path d="M341.4,695.1 L346.8,648.6 Q352.1,644.6 383.8,644.6 L416.2,644.6 Q447.9,644.6 453.2,648.6 L458.6,695.1 Z" fill="#6a5acd" opacity="0.35"/>
<line x1="346.8" y1="670.5" x2="453.2" y2="670.5" stroke="#6a5acd" stroke-width="1" opacity="0.3"/>
<line x1="346.8" y1="648.6" x2="325.5" y2="689.5" stroke="#6a5acd" stroke-width="2" opacity="0.3"/>
<line x1="325.5" y1="689.5" x2="341.4" y2="714.1" stroke="#6a5acd" stroke-width="2" opacity="0.3"/>
<line x1="453.2" y1="648.6" x2="474.5" y2="689.5" stroke="#6a5acd" stroke-width="2" opacity="0.3"/>
<line x1="474.5" y1="689.5" x2="458.6" y2="714.1" stroke="#6a5acd" stroke-width="2" opacity="0.3"/>
<line x1="400.0" y1="571.7" x2="400.0" y2="644.6" stroke="#6a5acd" stroke-width="3" opacity="0.35"/>
<circle cx="400.0" cy="531.3" r="40.5" fill="#6a5acd" opacity="0.4"/>
<rect x="35.0" y="441.0" width="719.9" height="54.0" rx="6" fill="white" stroke="#6a5acd" stroke-width="1.0" opacity="0.92"/>
<polygon points="251.0,495.0 259.0,495.0 248.0,503.0" fill="white" stroke="#6a5acd" stroke-width="0.8"/>
<line x1="250.5" y1="495.0" x2="259.5" y2="495.0" stroke="white" stroke-width="1.5"/>
<text x="41.0" y="458.0" font-size="11.0" fill="#6a5acd" font-weight="700">LUMA</text>
<text x="41.0" y="472.0" font-size="11.0" fill="#333333">Wren, look at this. They mix animal hair into their plaster. Horsehair. For tensile strength. It's... it's brilliant,</text>
<text x="41.0" y="486.0" font-size="11.0" fill="#333333">actually.</text>
<rect x="703.0" y="505.0" width="62.0" height="40.0" rx="6" fill="white" stroke="#c87533" stroke-width="1.0" opacity="0.92"/>
<polygon points="721.6,545.0 729.6,545.0 718.6,553.0" fill="white" stroke="#c87533" stroke-width="0.8"/>
<line x1="721.1" y1="545.0" x2="730.1" y2="545.0" stroke="white" stroke-width="1.5"/>
<text x="709.0" y="522.0" font-size="11.0" fill="#c87533" font-weight="700">WREN</text>
<text x="709.0" y="536.0" font-size="11.0" fill="#333333">Mm.</text>
<rect x="35.0" y="555.0" width="713.8" height="54.0" rx="6" fill="white" stroke="#6a5acd" stroke-width="1.0" opacity="0.92"/>
<polygon points="249.1,609.0 257.1,609.0 246.1,617.0" fill="white" stroke="#6a5acd" stroke-width="0.8"/>
<line x1="248.6" y1="609.0" x2="257.6" y2="609.0" stroke="white" stroke-width="1.5"/>
<text x="41.0" y="572.0" font-size="11.0" fill="#6a5acd" font-weight="700">LUMA</text>
<text x="41.0" y="586.0" font-size="11.0" fill="#333333">They solved a materials science problem with biology. Without any computational modelling. Just trial and error over</text>
<text x="41.0" y="600.0" font-size="11.0" fill="#333333">generations.</text>
<rect x="335.5" y="619.0" width="429.5" height="40.0" rx="6" fill="white" stroke="#c87533" stroke-width="1.0" opacity="0.92"/>
<polygon points="464.4,659.0 472.4,659.0 461.4,667.0" fill="white" stroke="#c87533" stroke-width="0.8"/>
<line x1="463.9" y1="659.0" x2="472.9" y2="659.0" stroke="white" stroke-width="1.5"/>
<text x="341.5" y="636.0" font-size="11.0" fill="#c87533" font-weight="700">WREN</text>
<text x="341.5" y="650.0" font-size="11.0" fill="#333333">Luma. I need the spectrum analyser when you're done with the scanner.</text>
<text x="759.0" y="449.0" text-anchor="end" font-size="12" font-weight="bold" fill="#888888" opacity="0.6">3</text>
<text x="765.0" y="791.0" text-anchor="end" font-size="9" fill="#888888" opacity="0.5">MED</text>
<rect x="29.0" y="807.0" width="493.8" height="364.0" rx="2" fill="#f5f0e8" stroke="#2a2a2a" stroke-width="1.5"/>
<path d="M217.4,1069.1 L222.7,1022.6 Q228.0,1018.6 259.7,1018.6 L292.1,1018.6 Q323.8,1018.6 329.2,1022.6 L334.5,1069.1 Z" fill="#6a5acd" opacity="0.35"/>
<line x1="222.7" y1="1044.5" x2="329.2" y2="1044.5" stroke="#6a5acd" stroke-width="1" opacity="0.3"/>
<line x1="222.7" y1="1022.6" x2="201.4" y2="1063.5" stroke="#6a5acd" stroke-width="2" opacity="0.3"/>
<line x1="201.4" y1="1063.5" x2="217.4" y2="1088.1" stroke="#6a5acd" stroke-width="2" opacity="0.3"/>
<line x1="329.2" y1="1022.6" x2="350.4" y2="1063.5" stroke="#6a5acd" stroke-width="2" opacity="0.3"/>
<line x1="350.4" y1="1063.5" x2="334.5" y2="1088.1" stroke="#6a5acd" stroke-width="2" opacity="0.3"/>
<line x1="275.9" y1="945.7" x2="275.9" y2="1018.6" stroke="#6a5acd" stroke-width="3" opacity="0.35"/>
<circle cx="275.9" cy="905.3" r="40.5" fill="#6a5acd" opacity="0.4"/>
<rect x="35.0" y="815.0" width="481.8" height="54.0" rx="6" fill="white" stroke="#6a5acd" stroke-width="1.0" opacity="0.92"/>
<polygon points="179.6,869.0 187.6,869.0 176.6,877.0" fill="white" stroke="#6a5acd" stroke-width="0.8"/>
<line x1="179.1" y1="869.0" x2="188.1" y2="869.0" stroke="white" stroke-width="1.5"/>
<text x="41.0" y="832.0" font-size="11.0" fill="#6a5acd" font-weight="700">LUMA</text>
<text x="41.0" y="846.0" font-size="11.0" fill="#333333">Sable. There's a gas supply pipe running through our wall. Iron. Town gas — coal</text>
<text x="41.0" y="860.0" font-size="11.0" fill="#333333">gas, hydrogen, carbon monoxide.</text>
<rect x="35.0" y="879.0" width="481.8" height="54.0" rx="6" fill="white" stroke="#6a5acd" stroke-width="1.0" opacity="0.92"/>
<polygon points="179.6,933.0 187.6,933.0 176.6,941.0" fill="white" stroke="#6a5acd" stroke-width="0.8"/>
<line x1="179.1" y1="933.0" x2="188.1" y2="933.0" stroke="white" stroke-width="1.5"/>
<text x="41.0" y="896.0" font-size="11.0" fill="#6a5acd" font-weight="700">LUMA</text>
<text x="41.0" y="910.0" font-size="11.0" fill="#333333">There's a seep at the upper joint. Slow, but if it accumulates in this enclosed</text>
<text x="41.0" y="924.0" font-size="11.0" fill="#333333">space...</text>
<rect x="35.0" y="943.0" width="102.8" height="40.0" rx="6" fill="white" stroke="#b0b0b0" stroke-width="1.0" opacity="0.92"/>
<polygon points="65.8,983.0 73.8,983.0 62.8,991.0" fill="white" stroke="#b0b0b0" stroke-width="0.8"/>
<line x1="65.3" y1="983.0" x2="74.3" y2="983.0" stroke="white" stroke-width="1.5"/>
<text x="41.0" y="960.0" font-size="11.0" fill="#b0b0b0" font-weight="700">SABLE</text>
<text x="41.0" y="974.0" font-size="11.0" fill="#333333">Can we seal it?</text>
<rect x="35.0" y="993.0" width="481.8" height="54.0" rx="6" fill="white" stroke="#6a5acd" stroke-width="1.0" opacity="0.92"/>
<polygon points="179.6,1047.0 187.6,1047.0 176.6,1055.0" fill="white" stroke="#6a5acd" stroke-width="0.8"/>
<line x1="179.1" y1="1047.0" x2="188.1" y2="1047.0" stroke="white" stroke-width="1.5"/>
<text x="41.0" y="1010.0" font-size="11.0" fill="#6a5acd" font-weight="700">LUMA</text>
<text x="41.0" y="1024.0" font-size="11.0" fill="#333333">I can monitor it. Wren can patch the joint when she has time. For now, we need</text>
<text x="41.0" y="1038.0" font-size="11.0" fill="#333333">ventilation — keep the entrance gap clear.</text>
<text x="510.8" y="823.0" text-anchor="end" font-size="12" font-weight="bold" fill="#888888" opacity="0.6">4</text>
<text x="516.8" y="1165.0" text-anchor="end" font-size="9" fill="#888888" opacity="0.5">MED</text>
<rect x="532.8" y="807.0" width="238.2" height="364.0" rx="2" fill="#f5f0e8" stroke="#2a2a2a" stroke-width="1.5"/>
<ellipse cx="651.9" cy="959.9" rx="95.3" ry="163.8" fill="#c0b8a8" opacity="0.18"/>
<path d="M551.9,902.5 Q651.9,771.5 751.9,902.5" fill="none" stroke="#c0b8a8" stroke-width="3" opacity="0.35"/>
<line x1="618.6" y1="923.8" x2="647.2" y2="921.8" stroke="#a89888" stroke-width="1.5" opacity="0.45"/>
<line x1="656.7" y1="921.8" x2="685.3" y2="923.8" stroke="#a89888" stroke-width="1.5" opacity="0.45"/>
<ellipse cx="625.2" cy="940.2" rx="11.4" ry="8.2" fill="#a89888" opacity="0.45"/>
<ellipse cx="678.6" cy="940.2" rx="11.4" ry="8.2" fill="#a89888" opacity="0.45"/>
<line x1="651.9" y1="963.2" x2="651.9" y2="989.4" stroke="#a89888" stroke-width="1.2" opacity="0.35"/>
<path d="M646.2,989.4 Q651.9,992.4 657.6,989.4" fill="none" stroke="#a89888" stroke-width="1" opacity="0.3"/>
<line x1="628.1" y1="1012.3" x2="675.7" y2="1012.3" stroke="#a89888" stroke-width="1.2" opacity="0.35"/>
<rect x="538.8" y="815.0" width="190.5" height="51.0" rx="2" fill="#f5ecd8" stroke="#c8b898" stroke-width="0.8" opacity="0.92"/>
<text x="544.8" y="831.0" font-size="10.0" fill="#5a4a30" font-style="italic" font-weight="500">CAPTION</text>
<text x="544.8" y="844.0" font-size="10.0" fill="#5a4a30" font-style="italic">The city wanted to kill them a hundred</text>
<text x="544.8" y="857.0" font-size="10.0" fill="#5a4a30" font-style="italic">different ways. Most of them were quiet.</text>
<text x="759.0" y="823.0" text-anchor="end" font-size="12" font-weight="bold" fill="#888888" opacity="0.6">5</text>
<text x="765.0" y="1165.0" text-anchor="end" font-size="9" fill="#888888" opacity="0.5">CU</text>
</svg>