<svg xmlns="http://www.w3.org/2000/svg" viewBox="0 0 800 1200" width="800" height="1200" style="background:#ffffff">
<style>
  text { font-family: "Helvetica Neue", Helvetica, Arial, sans-serif; }
</style>
<text x="400.0" y="22" text-anchor="middle" font-size="16" fill="#888888" font-weight="500">PAGE 7  (5 panels)</text>
<rect x="29.0" y="59.0" width="742.0" height="364.0" rx="2" fill="#f5f0e8" stroke="#2a2a2a" stroke-width="1.5"/>
<rect x="35.0" y="67.0" width="96.7" height="40.0" rx="6" fill="white" stroke="#6a5acd" stroke-width="1.0" opacity="0.92"/>
<polygon points="64.0,107.0 72.0,107.0 61.0,115.0" fill="white" stroke="#6a5acd" stroke-width="0.8"/>
<line x1="63.5" y1="107.0" x2="72.5" y2="107.0" stroke="white" stroke-width="1.5"/>
<text x="41.0" y="84.0" font-size="11.0" fill="#6a5acd" font-weight="700">LUMA</text>
<text x="41.0" y="98.0" font-size="11.0" fill="#333333">Everyone stop.</text>
<rect x="656.2" y="117.0" width="108.8" height="40.0" rx="6" fill="white" stroke="#b0b0b0" stroke-width="1.0" opacity="0.92"/>
<polygon points="688.8,157.0 696.8,157.0 685.8,165.0" fill="white" stroke="#b0b0b0" stroke-width="0.8"/>
<line x1="688.3" y1="157.0" x2="697.3" y2="157.0" stroke="white" stroke-width="1.5"/>
<text x="662.2" y="134.0" font-size="11.0" fill="#b0b0b0" font-weight="700">SABLE</text>
<text x="662.2" y="148.0" font-size="11.0" fill="#333333">What do you see?</text>
<rect x="35.0" y="167.0" width="683.6" height="40.0" rx="6" fill="white" stroke="#6a5acd" stroke-width="1.0" opacity="0.92"/>
<polygon points="240.1,207.0 248.1,207.0 237.1,215.0" fill="white" stroke="#6a5acd" stroke-width="0.8"/>
<line x1="239.6" y1="207.0" x2="248.6" y2="207.0" stroke="white" stroke-width="1.5"/>
<text x="41.0" y="184.0" font-size="11.0" fill="#6a5acd" font-weight="700">LUMA</text>
<text x="41.0" y="198.0" font-size="11.0" fill="#333333">Ten o'clock. The eyes. Something is watching us and it hasn't blinked in six seconds. That's hunting behaviour.</text>
<text x="759.0" y="75.0" text-anchor="end" font-size="12" font-weight="bold" fill="#888888" opacity="0.6">1</text>
<rect x="29.0" y="433.0" width="366.0" height="364.0" rx="2" fill="#f5f0e8" stroke="#2a2a2a" stroke-width="1.5"/>
<path d="M110.1,706.0 Q110.1,655.0 186.5,648.7 L237.5,648.7 Q313.9,655.0 313.9,706.0 L313.9,753.3 L110.1,753.3 Z" fill="#6a5acd" opacity="0.25"/>
<path d="M189.7,648.7 L212.0,680.5 L234.3,648.7" fill="none" stroke="#6a5acd" stroke-width="1" opacity="0.3"/>
<circle cx="212.0" cy="578.6" r="63.7" fill="#6a5acd" opacity="0.35"/>
<path d="M148.3,591.3 Q157.9,648.7 212.0,651.9 Q266.1,648.7 275.7,591.3" fill="none" stroke="#6a5acd" stroke-width="1.2" opacity="0.3"/>
<path d="M145.1,572.2 Q212.0,495.8 278.9,572.2" fill="none" stroke="#6a5acd" stroke-width="2" opacity="0.4"/>
<ellipse cx="146.3" cy="581.8" rx="2.5" ry="4" fill="#6a5acd" opacity="0.25"/>
<ellipse cx="277.7" cy="581.8" rx="2.5" ry="4" fill="#6a5acd" opacity="0.25"/>
<rect x="35.0" y="441.0" width="326.6" height="68.0" rx="6" fill="white" stroke="#6a5acd" stroke-width="1.0" opacity="0.92"/>
<polygon points="133.0,509.0 141.0,509.0 130.0,517.0" fill="white" stroke="#6a5acd" stroke-width="0.8"/>
<line x1="132.5" y1="509.0" x2="141.5" y2="509.0" stroke="white" stroke-width="1.5"/>
<text x="41.0" y="458.0" font-size="11.0" fill="#6a5acd" font-weight="700">LUMA</text>
<text x="41.0" y="472.0" font-size="11.0" fill="#333333">Felis catus. Domestic cat. Body length approximately</text>
<text x="41.0" y="486.0" font-size="11.0" fill="#333333">eighteen inches — four and a half times our height.&quot;</text>
<text x="41.0" y="500.0" font-size="11.0" fill="#333333">*(beat)* &quot;It's in a hunting crouch.</text>
<text x="383.0" y="449.0" text-anchor="end" font-size="12" font-weight="bold" fill="#888888" opacity="0.6">2</text>
<text x="389.0" y="791.0" text-anchor="end" font-size="9" fill="#888888" opacity="0.5">MCU</text>
<rect x="405.0" y="433.0" width="366.0" height="364.0" rx="2" fill="#f5f0e8" stroke="#2a2a2a" stroke-width="1.5"/>
<line x1="411.0" y1="716.9" x2="765.0" y2="716.9" stroke="#a89888" stroke-width="1.0" opacity="0.5"/>
<ellipse cx="527.0" cy="718.9" rx="11.2" ry="2.7" fill="#a89888" opacity="0.2"/>
<line x1="524.3" y1="701.2" x2="520.2" y2="716.9" stroke="#b22222" stroke-width="2" opacity="0.5"/>
<line x1="529.7" y1="701.2" x2="533.8" y2="716.9" stroke="#b22222" stroke-width="2" opacity="0.5"/>
<line x1="527.0" y1="688.1" x2="527.0" y2="701.2" stroke="#b22222" stroke-width="2.5" opacity="0.6"/>
<line x1="513.5" y1="690.1" x2="540.5" y2="690.1" stroke="#b22222" stroke-width="2" opacity="0.5"/>
<line x1="513.5" y1="690.1" x2="509.0" y2="701.6" stroke="#b22222" stroke-width="1.5" opacity="0.4"/>
<line x1="540.5" y1="690.1" x2="545.0" y2="701.6" stroke="#b22222" stroke-width="1.5" opacity="0.4"/>
<circle cx="527.0" cy="671.9" r="8.1" fill="#b22222" opacity="0.6"/>
<ellipse cx="649.0" cy="718.9" rx="11.2" ry="2.7" fill="#a89888" opacity="0.2"/>
<line x1="646.3" y1="701.2" x2="642.2" y2="716.9" stroke="#b0b0b0" stroke-width="2" opacity="0.5"/>
<line x1="651.7" y1="701.2" x2="655.8" y2="716.9" stroke="#b0b0b0" stroke-width="2" opacity="0.5"/>
<line x1="649.0" y1="688.1" x2="649.0" y2="701.2" stroke="#b0b0b0" stroke-width="2.5" opacity="0.6"/>
<line x1="635.5" y1="690.1" x2="662.5" y2="690.1" stroke="#b0b0b0" stroke-width="2" opacity="0.5"/>
<line x1="635.5" y1="690.1" x2="631.0" y2="701.6" stroke="#b0b0b0" stroke-width="1.5" opacity="0.4"/>
<line x1="662.5" y1="690.1" x2="667.0" y2="701.6" stroke="#b0b0b0" stroke-width="1.5" opacity="0.4"/>
<circle cx="649.0" cy="671.9" r="8.1" fill="#b0b0b0" opacity="0.6"/>
<rect x="411.0" y="441.0" width="157.2" height="40.0" rx="6" fill="white" stroke="#b22222" stroke-width="1.0" opacity="0.92"/>
<polygon points="458.2,481.0 466.2,481.0 455.2,489.0" fill="white" stroke="#b22222" stroke-width="0.8"/>
<line x1="457.7" y1="481.0" x2="466.7" y2="481.0" stroke="white" stroke-width="1.5"/>
<text x="417.0" y="458.0" font-size="11.0" fill="#b22222" font-weight="700">THRESH</text>
<text x="417.0" y="472.0" font-size="11.0" fill="#333333">That's... how is that...</text>
<rect x="571.5" y="491.0" width="193.5" height="40.0" rx="6" fill="white" stroke="#b0b0b0" stroke-width="1.0" opacity="0.92"/>
<polygon points="629.5,531.0 637.5,531.0 626.5,539.0" fill="white" stroke="#b0b0b0" stroke-width="0.8"/>
<line x1="629.0" y1="531.0" x2="638.0" y2="531.0" stroke="white" stroke-width="1.5"/>
<text x="577.5" y="508.0" font-size="11.0" fill="#b0b0b0" font-weight="700">SABLE</text>
<text x="577.5" y="522.0" font-size="11.0" fill="#333333">Thresh. Eyes on me. Not on it.</text>
<text x="759.0" y="449.0" text-anchor="end" font-size="12" font-weight="bold" fill="#888888" opacity="0.6">3</text>
<text x="765.0" y="791.0" text-anchor="end" font-size="9" fill="#888888" opacity="0.5">WIDE</text>
<rect x="29.0" y="807.0" width="238.2" height="364.0" rx="2" fill="#f5f0e8" stroke="#2a2a2a" stroke-width="1.5"/>
<ellipse cx="148.1" cy="959.9" rx="95.3" ry="163.8" fill="#b0b0b0" opacity="0.18"/>
<path d="M48.1,902.5 Q148.1,771.5 248.1,902.5" fill="none" stroke="#b0b0b0" stroke-width="3" opacity="0.35"/>
<line x1="114.7" y1="923.8" x2="143.3" y2="921.8" stroke="#a89888" stroke-width="1.5" opacity="0.45"/>
<line x1="152.8" y1="921.8" x2="181.4" y2="923.8" stroke="#a89888" stroke-width="1.5" opacity="0.45"/>
<ellipse cx="121.4" cy="940.2" rx="11.4" ry="8.2" fill="#a89888" opacity="0.45"/>
<ellipse cx="174.8" cy="940.2" rx="11.4" ry="8.2" fill="#a89888" opacity="0.45"/>
<line x1="148.1" y1="963.2" x2="148.1" y2="989.4" stroke="#a89888" stroke-width="1.2" opacity="0.35"/>
<path d="M142.4,989.4 Q148.1,992.4 153.8,989.4" fill="none" stroke="#a89888" stroke-width="1" opacity="0.3"/>
<line x1="124.3" y1="1012.3" x2="171.9" y2="1012.3" stroke="#a89888" stroke-width="1.2" opacity="0.35"/>
<rect x="35.0" y="815.0" width="182.5" height="38.0" rx="6" fill="white" stroke="#b0b0b0" stroke-width="1.0" opacity="0.92"/>
<polygon points="89.8,853.0 97.8,853.0 86.8,861.0" fill="white" stroke="#b0b0b0" stroke-width="0.8"/>
<line x1="89.2" y1="853.0" x2="98.2" y2="853.0" stroke="white" stroke-width="1.5"/>
<text x="41.0" y="831.0" font-size="10.0" fill="#b0b0b0" font-weight="700">SABLE</text>
<text x="41.0" y="844.0" font-size="10.0" fill="#333333">Negative. You'll draw it to us.</text>
<text x="255.2" y="823.0" text-anchor="end" font-size="12" font-weight="bold" fill="#888888" opacity="0.6">4</text>
<text x="261.2" y="1165.0" text-anchor="end" font-size="9" fill="#888888" opacity="0.5">ECU</text>
<rect x="277.2" y="807.0" width="493.8" height="364.0" rx="2" fill="#f5f0e8" stroke="#2a2a2a" stroke-width="1.5"/>
<path d="M465.5,1069.1 L470.8,1022.6 Q476.2,1018.6 507.9,1018.6 L540.3,1018.6 Q572.0,1018.6 577.3,1022.6 L582.6,1069.1 Z" fill="#c87533" opacity="0.35"/>
<line x1="470.8" y1="1044.5" x2="577.3" y2="1044.5" stroke="#c87533" stroke-width="1" opacity="0.3"/>
<line x1="470.8" y1="1022.6" x2="449.6" y2="1063.5" stroke="#c87533" stroke-width="2" opacity="0.3"/>
<line x1="449.6" y1="1063.5" x2="465.5" y2="1088.1" stroke="#c87533" stroke-width="2" opacity="0.3"/>
<line x1="577.3" y1="1022.6" x2="598.6" y2="1063.5" stroke="#c87533" stroke-width="2" opacity="0.3"/>
<line x1="598.6" y1="1063.5" x2="582.6" y2="1088.1" stroke="#c87533" stroke-width="2" opacity="0.3"/>
<line x1="524.1" y1="945.7" x2="524.1" y2="1018.6" stroke="#c87533" stroke-width="3" opacity="0.35"/>
<circle cx="524.1" cy="905.3" r="40.5" fill="#c87533" opacity="0.4"/>
<rect x="283.2" y="815.0" width="278.2" height="40.0" rx="6" fill="white" stroke="#c87533" stroke-width="1.0" opacity="0.92"/>
<polygon points="366.6,855.0 374.6,855.0 363.6,863.0" fill="white" stroke="#c87533" stroke-width="0.8"/>
<line x1="366.1" y1="855.0" x2="375.1" y2="855.0" stroke="white" stroke-width="1.5"/>
<text x="289.2" y="832.0" font-size="11.0" fill="#c87533" font-weight="700">WREN</text>
<text x="289.2" y="846.0" font-size="11.0" fill="#333333">Sable, if it charges, we have three seconds.</text>
<text x="759.0" y="823.0" text-anchor="end" font-size="12" font-weight="bold" fill="#888888" opacity="0.6">5</text>
<text x="765.0" y="1165.0" text-anchor="end" font-size="9" fill="#888888" opacity="0.5">MW</text>
</svg>