<svg xmlns="http://www.w3.org/2000/svg" viewBox="0 0 1600 1400" width="1600" height="1400" style="background:#ffffff">
<style>
  text { font-family: "Helvetica Neue", Helvetica, Arial, sans-serif; }
</style>
<text x="800.0" y="48" text-anchor="middle" font-size="26" font-weight="bold" fill="#2a2a2a">GRIMGLOW — Issue 6 — Traces</text>
<rect x="498.8" y="60.0" width="135.6" height="203.3" rx="1" fill="#ffffff" stroke="#2a2a2a" stroke-width="0.5"/>
<rect x="502.8" y="64.0" width="127.6" height="63.8" rx="1" fill="#f5f0e8" stroke="#2a2a2a" stroke-width="0.5"/>
<rect x="502.8" y="129.8" width="62.8" height="63.8" rx="1" fill="#f5f0e8" stroke="#2a2a2a" stroke-width="0.5"/>
<rect x="567.6" y="129.8" width="62.8" height="63.8" rx="1" fill="#f5f0e8" stroke="#2a2a2a" stroke-width="0.5"/>
<rect x="502.8" y="195.6" width="84.8" height="63.8" rx="1" fill="#f5f0e8" stroke="#2a2a2a" stroke-width="0.5"/>
<rect x="589.6" y="195.6" width="40.8" height="63.8" rx="1" fill="#f5f0e8" stroke="#2a2a2a" stroke-width="0.5"/>
<text x="566.6" y="274.3" text-anchor="middle" font-size="9" fill="#888888">P1</text>
<rect x="654.4" y="60.0" width="135.6" height="203.3" rx="1" fill="#ffffff" stroke="#2a2a2a" stroke-width="0.5"/>
<rect x="658.4" y="64.0" width="127.6" height="63.8" rx="1" fill="#f5f0e8" stroke="#2a2a2a" stroke-width="0.5"/>
<rect x="658.4" y="129.8" width="41.2" height="63.8" rx="1" fill="#f5f0e8" stroke="#2a2a2a" stroke-width="0.5"/>
<rect x="701.6" y="129.8" width="41.2" height="63.8" rx="1" fill="#f5f0e8" stroke="#2a2a2a" stroke-width="0.5"/>
<rect x="744.8" y="129.8" width="41.2" height="63.8" rx="1" fill="#f5f0e8" stroke="#2a2a2a" stroke-width="0.5"/>
<rect x="658.4" y="195.6" width="127.6" height="63.8" rx="1" fill="#f5f0e8" stroke="#2a2a2a" stroke-width="0.5"/>
<text x="722.2" y="274.3" text-anchor="middle" font-size="9" fill="#888888">P2</text>
<rect x="810.0" y="60.0" width="135.6" height="203.3" rx="1" fill="#ffffff" stroke="#2a2a2a" stroke-width="0.5"/>
<rect x="814.0" y="64.0" width="62.8" height="96.7" rx="1" fill="#f5f0e8" stroke="#2a2a2a" stroke-width="0.5"/>
<rect x="878.8" y="64.0" width="62.8" height="96.7" rx="1" fill="#f5f0e8" stroke="#2a2a2a" stroke-width="0.5"/>
<rect x="814.0" y="162.7" width="84.8" height="96.7" rx="1" fill="#f5f0e8" stroke="#2a2a2a" stroke-width="0.5"/>
<rect x="900.8" y="162.7" width="40.8" height="96.7" rx="1" fill="#f5f0e8" stroke="#2a2a2a" stroke-width="0.5"/>
<text x="877.8" y="274.3" text-anchor="middle" font-size="9" fill="#888888">P3</text>
<rect x="965.6" y="60.0" width="135.6" height="203.3" rx="1" fill="#ffffff" stroke="#2a2a2a" stroke-width="0.5"/>
<rect x="969.6" y="64.0" width="127.6" height="63.8" rx="1" fill="#f5f0e8" stroke="#2a2a2a" stroke-width="0.5"/>
<rect x="969.6" y="129.8" width="62.8" height="63.8" rx="1" fill="#f5f0e8" stroke="#2a2a2a" stroke-width="0.5"/>
<rect x="1034.4" y="129.8" width="62.8" height="63.8" rx="1" fill="#f5f0e8" stroke="#2a2a2a" stroke-width="0.5"/>
<rect x="969.6" y="195.6" width="84.8" height="63.8" rx="1" fill="#f5f0e8" stroke="#2a2a2a" stroke-width="0.5"/>
<rect x="1056.5" y="195.6" width="40.8" height="63.8" rx="1" fill="#f5f0e8" stroke="#2a2a2a" stroke-width="0.5"/>
<text x="1033.4" y="274.3" text-anchor="middle" font-size="9" fill="#888888">P4</text>
<rect x="498.8" y="297.3" width="135.6" height="203.3" rx="1" fill="#ffffff" stroke="#2a2a2a" stroke-width="0.5"/>
<rect x="502.8" y="301.3" width="62.8" height="63.8" rx="1" fill="#f5f0e8" stroke="#2a2a2a" stroke-width="0.5"/>
<rect x="567.6" y="301.3" width="62.8" height="63.8" rx="1" fill="#f5f0e8" stroke="#2a2a2a" stroke-width="0.5"/>
<rect x="502.8" y="367.1" width="127.6" height="63.8" rx="1" fill="#f5f0e8" stroke="#2a2a2a" stroke-width="0.5"/>
<rect x="502.8" y="432.9" width="62.8" height="63.8" rx="1" fill="#f5f0e8" stroke="#2a2a2a" stroke-width="0.5"/>
<rect x="567.6" y="432.9" width="62.8" height="63.8" rx="1" fill="#f5f0e8" stroke="#2a2a2a" stroke-width="0.5"/>
<text x="566.6" y="511.7" text-anchor="middle" font-size="9" fill="#888888">P5</text>
<rect x="654.4" y="297.3" width="135.6" height="203.3" rx="1" fill="#ffffff" stroke="#2a2a2a" stroke-width="0.5"/>
<rect x="658.4" y="301.3" width="127.6" height="43.5" rx="1" fill="#f5f0e8" stroke="#2a2a2a" stroke-width="0.5"/>
<rect x="658.4" y="346.9" width="62.8" height="73.9" rx="1" fill="#f5f0e8" stroke="#2a2a2a" stroke-width="0.5"/>
<rect x="723.2" y="346.9" width="62.8" height="73.9" rx="1" fill="#f5f0e8" stroke="#2a2a2a" stroke-width="0.5"/>
<rect x="658.4" y="422.8" width="127.6" height="73.9" rx="1" fill="#f5f0e8" stroke="#2a2a2a" stroke-width="0.5"/>
<text x="722.2" y="511.7" text-anchor="middle" font-size="9" fill="#888888">P6</text>
<rect x="810.0" y="297.3" width="135.6" height="203.3" rx="1" fill="#ffffff" stroke="#2a2a2a" stroke-width="0.5"/>
<rect x="814.0" y="301.3" width="84.8" height="63.8" rx="1" fill="#f5f0e8" stroke="#2a2a2a" stroke-width="0.5"/>
<rect x="900.8" y="301.3" width="40.8" height="63.8" rx="1" fill="#f5f0e8" stroke="#2a2a2a" stroke-width="0.5"/>
<rect x="814.0" y="367.1" width="127.6" height="63.8" rx="1" fill="#f5f0e8" stroke="#2a2a2a" stroke-width="0.5"/>
<rect x="814.0" y="432.9" width="62.8" height="63.8" rx="1" fill="#f5f0e8" stroke="#2a2a2a" stroke-width="0.5"/>
<rect x="878.8" y="432.9" width="62.8" height="63.8" rx="1" fill="#f5f0e8" stroke="#2a2a2a" stroke-width="0.5"/>
<text x="877.8" y="511.7" text-anchor="middle" font-size="9" fill="#888888">P7</text>
<rect x="965.6" y="297.3" width="135.6" height="203.3" rx="1" fill="#ffffff" stroke="#2a2a2a" stroke-width="0.5"/>
<rect x="969.6" y="301.3" width="127.6" height="43.5" rx="1" fill="#f5f0e8" stroke="#2a2a2a" stroke-width="0.5"/>
<rect x="969.6" y="346.9" width="127.6" height="73.9" rx="1" fill="#f5f0e8" stroke="#2a2a2a" stroke-width="0.5"/>
<rect x="969.6" y="422.8" width="62.8" height="73.9" rx="1" fill="#f5f0e8" stroke="#2a2a2a" stroke-width="0.5"/>
<rect x="1034.4" y="422.8" width="62.8" height="73.9" rx="1" fill="#f5f0e8" stroke="#2a2a2a" stroke-width="0.5"/>
<text x="1033.4" y="511.7" text-anchor="middle" font-size="9" fill="#888888">P8</text>
<rect x="498.8" y="534.7" width="135.6" height="203.3" rx="1" fill="#ffffff" stroke="#2a2a2a" stroke-width="0.5"/>
<rect x="502.8" y="538.7" width="127.6" height="96.7" rx="1" fill="#f5f0e8" stroke="#2a2a2a" stroke-width="0.5"/>
<rect x="502.8" y="637.3" width="49.8" height="96.7" rx="1" fill="#f5f0e8" stroke="#2a2a2a" stroke-width="0.5"/>
<rect x="554.6" y="637.3" width="23.9" height="96.7" rx="1" fill="#f5f0e8" stroke="#2a2a2a" stroke-width="0.5"/>
<rect x="580.5" y="637.3" width="49.8" height="96.7" rx="1" fill="#f5f0e8" stroke="#2a2a2a" stroke-width="0.5"/>
<text x="566.6" y="749.0" text-anchor="middle" font-size="9" fill="#888888">P9</text>
<rect x="654.4" y="534.7" width="135.6" height="203.3" rx="1" fill="#ffffff" stroke="#2a2a2a" stroke-width="0.5"/>
<rect x="658.4" y="538.7" width="127.6" height="73.9" rx="1" fill="#f5f0e8" stroke="#2a2a2a" stroke-width="0.5"/>
<rect x="658.4" y="614.6" width="127.6" height="43.5" rx="1" fill="#f5f0e8" stroke="#2a2a2a" stroke-width="0.5"/>
<rect x="658.4" y="660.1" width="62.8" height="73.9" rx="1" fill="#f5f0e8" stroke="#2a2a2a" stroke-width="0.5"/>
<rect x="723.2" y="660.1" width="62.8" height="73.9" rx="1" fill="#f5f0e8" stroke="#2a2a2a" stroke-width="0.5"/>
<text x="722.2" y="749.0" text-anchor="middle" font-size="9" fill="#888888">P10</text>
<rect x="810.0" y="534.7" width="135.6" height="203.3" rx="1" fill="#ffffff" stroke="#2a2a2a" stroke-width="0.5"/>
<rect x="814.0" y="538.7" width="127.6" height="63.8" rx="1" fill="#f5f0e8" stroke="#2a2a2a" stroke-width="0.5"/>
<rect x="814.0" y="604.4" width="62.8" height="63.8" rx="1" fill="#f5f0e8" stroke="#2a2a2a" stroke-width="0.5"/>
<rect x="878.8" y="604.4" width="62.8" height="63.8" rx="1" fill="#f5f0e8" stroke="#2a2a2a" stroke-width="0.5"/>
<rect x="814.0" y="670.2" width="127.6" height="63.8" rx="1" fill="#f5f0e8" stroke="#2a2a2a" stroke-width="0.5"/>
<text x="877.8" y="749.0" text-anchor="middle" font-size="9" fill="#888888">P11</text>
<rect x="965.6" y="534.7" width="135.6" height="203.3" rx="1" fill="#ffffff" stroke="#2a2a2a" stroke-width="0.5"/>
<rect x="969.6" y="538.7" width="127.6" height="47.3" rx="1" fill="#f5f0e8" stroke="#2a2a2a" stroke-width="0.5"/>
<rect x="969.6" y="588.0" width="40.8" height="47.3" rx="1" fill="#f5f0e8" stroke="#2a2a2a" stroke-width="0.5"/>
<rect x="1012.4" y="588.0" width="84.8" height="47.3" rx="1" fill="#f5f0e8" stroke="#2a2a2a" stroke-width="0.5"/>
<rect x="969.6" y="637.3" width="127.6" height="47.3" rx="1" fill="#f5f0e8" stroke="#2a2a2a" stroke-width="0.5"/>
<rect x="969.6" y="686.7" width="127.6" height="47.3" rx="1" fill="#f5f0e8" stroke="#2a2a2a" stroke-width="0.5"/>
<text x="1033.4" y="749.0" text-anchor="middle" font-size="9" fill="#888888">P12</text>
<rect x="498.8" y="772.0" width="135.6" height="203.3" rx="1" fill="#ffffff" stroke="#2a2a2a" stroke-width="0.5"/>
<rect x="502.8" y="776.0" width="127.6" height="43.5" rx="1" fill="#f5f0e8" stroke="#2a2a2a" stroke-width="0.5"/>
<rect x="502.8" y="821.5" width="62.8" height="73.9" rx="1" fill="#f5f0e8" stroke="#2a2a2a" stroke-width="0.5"/>
<rect x="567.6" y="821.5" width="62.8" height="73.9" rx="1" fill="#f5f0e8" stroke="#2a2a2a" stroke-width="0.5"/>
<rect x="502.8" y="897.4" width="127.6" height="73.9" rx="1" fill="#f5f0e8" stroke="#2a2a2a" stroke-width="0.5"/>
<text x="566.6" y="986.3" text-anchor="middle" font-size="9" fill="#888888">P13</text>
<rect x="654.4" y="772.0" width="135.6" height="203.3" rx="1" fill="#ffffff" stroke="#2a2a2a" stroke-width="0.5"/>
<rect x="658.4" y="776.0" width="127.6" height="54.4" rx="1" fill="#f5f0e8" stroke="#2a2a2a" stroke-width="0.5"/>
<rect x="658.4" y="832.4" width="127.6" height="82.6" rx="1" fill="#f5f0e8" stroke="#2a2a2a" stroke-width="0.5"/>
<rect x="658.4" y="917.0" width="62.8" height="54.4" rx="1" fill="#f5f0e8" stroke="#2a2a2a" stroke-width="0.5"/>
<rect x="723.2" y="917.0" width="62.8" height="54.4" rx="1" fill="#f5f0e8" stroke="#2a2a2a" stroke-width="0.5"/>
<text x="722.2" y="986.3" text-anchor="middle" font-size="9" fill="#888888">P14</text>
<rect x="810.0" y="772.0" width="135.6" height="203.3" rx="1" fill="#ffffff" stroke="#2a2a2a" stroke-width="0.5"/>
<rect x="814.0" y="776.0" width="62.8" height="63.8" rx="1" fill="#f5f0e8" stroke="#2a2a2a" stroke-width="0.5"/>
<rect x="878.8" y="776.0" width="62.8" height="63.8" rx="1" fill="#f5f0e8" stroke="#2a2a2a" stroke-width="0.5"/>
<rect x="814.0" y="841.8" width="127.6" height="63.8" rx="1" fill="#f5f0e8" stroke="#2a2a2a" stroke-width="0.5"/>
<rect x="814.0" y="907.6" width="127.6" height="63.8" rx="1" fill="#f5f0e8" stroke="#2a2a2a" stroke-width="0.5"/>
<text x="877.8" y="986.3" text-anchor="middle" font-size="9" fill="#888888">P15</text>
<rect x="965.6" y="772.0" width="135.6" height="203.3" rx="1" fill="#ffffff" stroke="#2a2a2a" stroke-width="0.5"/>
<rect x="969.6" y="776.0" width="127.6" height="63.8" rx="1" fill="#f5f0e8" stroke="#2a2a2a" stroke-width="0.5"/>
<rect x="969.6" y="841.8" width="62.8" height="63.8" rx="1" fill="#f5f0e8" stroke="#2a2a2a" stroke-width="0.5"/>
<rect x="1034.4" y="841.8" width="62.8" height="63.8" rx="1" fill="#f5f0e8" stroke="#2a2a2a" stroke-width="0.5"/>
<rect x="969.6" y="907.6" width="127.6" height="63.8" rx="1" fill="#f5f0e8" stroke="#2a2a2a" stroke-width="0.5"/>
<text x="1033.4" y="986.3" text-anchor="middle" font-size="9" fill="#888888">P16</text>
<rect x="498.8" y="1009.3" width="135.6" height="203.3" rx="1" fill="#ffffff" stroke="#2a2a2a" stroke-width="0.5"/>
<rect x="502.8" y="1013.3" width="127.6" height="43.5" rx="1" fill="#f5f0e8" stroke="#2a2a2a" stroke-width="0.5"/>
<rect x="502.8" y="1058.9" width="127.6" height="73.9" rx="1" fill="#f5f0e8" stroke="#2a2a2a" stroke-width="0.5"/>
<rect x="502.8" y="1134.8" width="62.8" height="73.9" rx="1" fill="#f5f0e8" stroke="#2a2a2a" stroke-width="0.5"/>
<rect x="567.6" y="1134.8" width="62.8" height="73.9" rx="1" fill="#f5f0e8" stroke="#2a2a2a" stroke-width="0.5"/>
<text x="566.6" y="1223.7" text-anchor="middle" font-size="9" fill="#888888">P17</text>
<rect x="654.4" y="1009.3" width="135.6" height="203.3" rx="1" fill="#ffffff" stroke="#2a2a2a" stroke-width="0.5"/>
<rect x="658.4" y="1013.3" width="127.6" height="73.9" rx="1" fill="#f5f0e8" stroke="#2a2a2a" stroke-width="0.5"/>
<rect x="658.4" y="1089.2" width="62.8" height="73.9" rx="1" fill="#f5f0e8" stroke="#2a2a2a" stroke-width="0.5"/>
<rect x="723.2" y="1089.2" width="62.8" height="73.9" rx="1" fill="#f5f0e8" stroke="#2a2a2a" stroke-width="0.5"/>
<rect x="658.4" y="1165.1" width="127.6" height="43.5" rx="1" fill="#f5f0e8" stroke="#2a2a2a" stroke-width="0.5"/>
<text x="722.2" y="1223.7" text-anchor="middle" font-size="9" fill="#888888">P18</text>
<rect x="810.0" y="1009.3" width="135.6" height="203.3" rx="1" fill="#ffffff" stroke="#2a2a2a" stroke-width="0.5"/>
<rect x="814.0" y="1013.3" width="127.6" height="63.8" rx="1" fill="#f5f0e8" stroke="#2a2a2a" stroke-width="0.5"/>
<rect x="814.0" y="1079.1" width="127.6" height="63.8" rx="1" fill="#f5f0e8" stroke="#2a2a2a" stroke-width="0.5"/>
<rect x="814.0" y="1144.9" width="62.8" height="63.8" rx="1" fill="#f5f0e8" stroke="#2a2a2a" stroke-width="0.5"/>
<rect x="878.8" y="1144.9" width="62.8" height="63.8" rx="1" fill="#f5f0e8" stroke="#2a2a2a" stroke-width="0.5"/>
<text x="877.8" y="1223.7" text-anchor="middle" font-size="9" fill="#888888">P19</text>
<rect x="965.6" y="1009.3" width="135.6" height="203.3" rx="1" fill="#ffffff" stroke="#2a2a2a" stroke-width="0.5"/>
<rect x="969.6" y="1013.3" width="127.6" height="43.5" rx="1" fill="#f5f0e8" stroke="#2a2a2a" stroke-width="0.5"/>
<rect x="969.6" y="1058.9" width="62.8" height="73.9" rx="1" fill="#f5f0e8" stroke="#2a2a2a" stroke-width="0.5"/>
<rect x="1034.4" y="1058.9" width="62.8" height="73.9" rx="1" fill="#f5f0e8" stroke="#2a2a2a" stroke-width="0.5"/>
<rect x="969.6" y="1134.8" width="127.6" height="73.9" rx="1" fill="#f5f0e8" stroke="#2a2a2a" stroke-width="0.5"/>
<text x="1033.4" y="1223.7" text-anchor="middle" font-size="9" fill="#888888">P20</text>
<rect x="498.8" y="1246.7" width="135.6" height="203.3" rx="1" fill="#ffffff" stroke="#2a2a2a" stroke-width="0.5"/>
<rect x="502.8" y="1250.7" width="127.6" height="63.8" rx="1" fill="#f5f0e8" stroke="#2a2a2a" stroke-width="0.5"/>
<rect x="502.8" y="1316.4" width="62.8" height="63.8" rx="1" fill="#f5f0e8" stroke="#2a2a2a" stroke-width="0.5"/>
<rect x="567.6" y="1316.4" width="62.8" height="63.8" rx="1" fill="#f5f0e8" stroke="#2a2a2a" stroke-width="0.5"/>
<rect x="502.8" y="1382.2" width="127.6" height="63.8" rx="1" fill="#f5f0e8" stroke="#2a2a2a" stroke-width="0.5"/>
<text x="566.6" y="1461.0" text-anchor="middle" font-size="9" fill="#888888">P21</text>
<rect x="654.4" y="1246.7" width="135.6" height="203.3" rx="1" fill="#ffffff" stroke="#2a2a2a" stroke-width="0.5"/>
<rect x="658.4" y="1250.7" width="127.6" height="54.4" rx="1" fill="#f5f0e8" stroke="#2a2a2a" stroke-width="0.5"/>
<rect x="658.4" y="1307.0" width="62.8" height="54.4" rx="1" fill="#f5f0e8" stroke="#2a2a2a" stroke-width="0.5"/>
<rect x="723.2" y="1307.0" width="62.8" height="54.4" rx="1" fill="#f5f0e8" stroke="#2a2a2a" stroke-width="0.5"/>
<rect x="658.4" y="1363.4" width="62.8" height="82.6" rx="1" fill="#f5f0e8" stroke="#2a2a2a" stroke-width="0.5"/>
<rect x="723.2" y="1363.4" width="62.8" height="82.6" rx="1" fill="#f5f0e8" stroke="#2a2a2a" stroke-width="0.5"/>
<text x="722.2" y="1461.0" text-anchor="middle" font-size="9" fill="#888888">P22</text>
</svg>