<svg xmlns="http://www.w3.org/2000/svg" viewBox="0 0 800 1200" width="800" height="1200" style="background:#ffffff">
<style>
  text { font-family: "Helvetica Neue", Helvetica, Arial, sans-serif; }
</style>
<text x="400.0" y="22" text-anchor="middle" font-size="16" fill="#888888" font-weight="500">PAGE 8  (4 panels)</text>
<rect x="29.0" y="59.0" width="742.0" height="248.9" rx="2" fill="#f5f0e8" stroke="#2a2a2a" stroke-width="1.5"/>
<line x1="35.0" y1="253.2" x2="765.0" y2="253.2" stroke="#a89888" stroke-width="1.0" opacity="0.5"/>
<ellipse cx="400.0" cy="255.2" rx="11.2" ry="2.7" fill="#a89888" opacity="0.2"/>
<line x1="397.3" y1="237.5" x2="393.3" y2="253.2" stroke="#6a5acd" stroke-width="2" opacity="0.5"/>
<line x1="402.7" y1="237.5" x2="406.7" y2="253.2" stroke="#6a5acd" stroke-width="2" opacity="0.5"/>
<line x1="400.0" y1="224.5" x2="400.0" y2="237.5" stroke="#6a5acd" stroke-width="2.5" opacity="0.6"/>
<line x1="386.6" y1="226.5" x2="413.4" y2="226.5" stroke="#6a5acd" stroke-width="2" opacity="0.5"/>
<line x1="386.6" y1="226.5" x2="382.1" y2="237.9" stroke="#6a5acd" stroke-width="1.5" opacity="0.4"/>
<line x1="413.4" y1="226.5" x2="417.9" y2="237.9" stroke="#6a5acd" stroke-width="1.5" opacity="0.4"/>
<circle cx="400.0" cy="208.4" r="8.1" fill="#6a5acd" opacity="0.6"/>
<rect x="35.0" y="67.0" width="241.9" height="40.0" rx="2" fill="#f5ecd8" stroke="#c8b898" stroke-width="0.8" opacity="0.92"/>
<text x="41.0" y="84.0" font-size="11.0" fill="#5a4a30" font-style="italic" font-weight="500">CAPTION</text>
<text x="41.0" y="98.0" font-size="11.0" fill="#5a4a30" font-style="italic">Sekforde Street. East end. Nine-forty.</text>
<rect x="35.0" y="111.0" width="96.7" height="40.0" rx="6" fill="white" stroke="#6a5acd" stroke-width="1.0" opacity="0.92"/>
<polygon points="64.0,151.0 72.0,151.0 61.0,159.0" fill="white" stroke="#6a5acd" stroke-width="0.8"/>
<line x1="63.5" y1="151.0" x2="72.5" y2="151.0" stroke="white" stroke-width="1.5"/>
<text x="41.0" y="128.0" font-size="11.0" fill="#6a5acd" font-weight="700">LUMA</text>
<text x="41.0" y="142.0" font-size="11.0" fill="#333333">Stop. Look up.</text>
<text x="759.0" y="75.0" text-anchor="end" font-size="12" font-weight="bold" fill="#888888" opacity="0.6">1</text>
<text x="765.0" y="301.9" text-anchor="end" font-size="9" fill="#888888" opacity="0.5">EST</text>
<rect x="29.0" y="317.9" width="742.0" height="421.5" rx="2" fill="#f5f0e8" stroke="#2a2a2a" stroke-width="1.5"/>
<rect x="35.0" y="325.9" width="266.1" height="40.0" rx="6" fill="white" stroke="#c49a6c" stroke-width="1.0" opacity="0.92"/>
<polygon points="114.8,365.9 122.8,365.9 111.8,373.9" fill="white" stroke="#c49a6c" stroke-width="0.8"/>
<line x1="114.3" y1="365.9" x2="123.3" y2="365.9" stroke="white" stroke-width="1.5"/>
<text x="41.0" y="342.9" font-size="11.0" fill="#c49a6c" font-weight="700">THEODORE</text>
<text x="41.0" y="356.9" font-size="11.0" fill="#333333">Those aren't... those can't be from a cat.</text>
<rect x="35.0" y="375.9" width="730.0" height="54.0" rx="6" fill="white" stroke="#6a5acd" stroke-width="1.0" opacity="0.92"/>
<polygon points="254.0,429.9 262.0,429.9 251.0,437.9" fill="white" stroke="#6a5acd" stroke-width="0.8"/>
<line x1="253.5" y1="429.9" x2="262.5" y2="429.9" stroke="white" stroke-width="1.5"/>
<text x="41.0" y="392.9" font-size="11.0" fill="#6a5acd" font-weight="700">LUMA</text>
<text x="41.0" y="406.9" font-size="11.0" fill="#333333">No. Those are from something much larger. And much heavier. The depth of the gouges indicates significant force applied</text>
<text x="41.0" y="420.9" font-size="11.0" fill="#333333">vertically.</text>
<text x="759.0" y="333.9" text-anchor="end" font-size="12" font-weight="bold" fill="#888888" opacity="0.6">2</text>
<rect x="29.0" y="749.5" width="366.0" height="421.5" rx="2" fill="#f5f0e8" stroke="#2a2a2a" stroke-width="1.5"/>
<ellipse cx="212.0" cy="926.5" rx="132.8" ry="189.7" fill="#6a5acd" opacity="0.18"/>
<path d="M72.6,860.1 Q212.0,708.4 351.4,860.1" fill="none" stroke="#6a5acd" stroke-width="3" opacity="0.35"/>
<line x1="165.5" y1="884.8" x2="205.4" y2="882.8" stroke="#a89888" stroke-width="1.5" opacity="0.45"/>
<line x1="218.6" y1="882.8" x2="258.5" y2="884.8" stroke="#a89888" stroke-width="1.5" opacity="0.45"/>
<ellipse cx="174.8" cy="903.7" rx="15.9" ry="9.5" fill="#a89888" opacity="0.45"/>
<ellipse cx="249.2" cy="903.7" rx="15.9" ry="9.5" fill="#a89888" opacity="0.45"/>
<line x1="212.0" y1="930.3" x2="212.0" y2="960.7" stroke="#a89888" stroke-width="1.2" opacity="0.35"/>
<path d="M204.0,960.7 Q212.0,963.7 220.0,960.7" fill="none" stroke="#a89888" stroke-width="1" opacity="0.3"/>
<line x1="178.8" y1="987.2" x2="245.2" y2="987.2" stroke="#a89888" stroke-width="1.2" opacity="0.35"/>
<rect x="35.0" y="757.5" width="338.7" height="54.0" rx="6" fill="white" stroke="#6a5acd" stroke-width="1.0" opacity="0.92"/>
<polygon points="136.6,811.5 144.6,811.5 133.6,819.5" fill="white" stroke="#6a5acd" stroke-width="0.8"/>
<line x1="136.1" y1="811.5" x2="145.1" y2="811.5" stroke="white" stroke-width="1.5"/>
<text x="41.0" y="774.5" font-size="11.0" fill="#6a5acd" font-weight="700">LUMA</text>
<text x="41.0" y="788.5" font-size="11.0" fill="#333333">Titan bio-trace in the grooves. Concentrated. This was</text>
<text x="41.0" y="802.5" font-size="11.0" fill="#333333">recent — within the week.</text>
<rect x="62.4" y="821.5" width="326.6" height="54.0" rx="6" fill="white" stroke="#6a5acd" stroke-width="1.0" opacity="0.92"/>
<polygon points="160.4,875.5 168.4,875.5 157.4,883.5" fill="white" stroke="#6a5acd" stroke-width="0.8"/>
<line x1="159.9" y1="875.5" x2="168.9" y2="875.5" stroke="white" stroke-width="1.5"/>
<text x="68.4" y="838.5" font-size="11.0" fill="#6a5acd" font-weight="700">LUMA</text>
<text x="68.4" y="852.5" font-size="11.0" fill="#333333">The claw geometry matches nothing in our xenobiology</text>
<text x="68.4" y="866.5" font-size="11.0" fill="#333333">database except Titan appendage structures.</text>
<text x="383.0" y="765.5" text-anchor="end" font-size="12" font-weight="bold" fill="#888888" opacity="0.6">3</text>
<text x="389.0" y="1165.0" text-anchor="end" font-size="9" fill="#888888" opacity="0.5">CU</text>
<rect x="405.0" y="749.5" width="366.0" height="421.5" rx="2" fill="#f5f0e8" stroke="#2a2a2a" stroke-width="1.5"/>
<path d="M520.2,1053.0 L526.4,998.5 Q532.5,994.5 569.3,994.5 L606.7,994.5 Q643.5,994.5 649.6,998.5 L655.8,1053.0 Z" fill="#6a5acd" opacity="0.35"/>
<line x1="526.4" y1="1024.5" x2="649.6" y2="1024.5" stroke="#6a5acd" stroke-width="1" opacity="0.3"/>
<line x1="526.4" y1="998.5" x2="501.7" y2="1045.9" stroke="#6a5acd" stroke-width="2" opacity="0.3"/>
<line x1="501.7" y1="1045.9" x2="520.2" y2="1074.3" stroke="#6a5acd" stroke-width="2" opacity="0.3"/>
<line x1="649.6" y1="998.5" x2="674.3" y2="1045.9" stroke="#6a5acd" stroke-width="2" opacity="0.3"/>
<line x1="674.3" y1="1045.9" x2="655.8" y2="1074.3" stroke="#6a5acd" stroke-width="2" opacity="0.3"/>
<line x1="588.0" y1="910.1" x2="588.0" y2="994.5" stroke="#6a5acd" stroke-width="3" opacity="0.35"/>
<circle cx="588.0" cy="863.3" r="46.9" fill="#6a5acd" opacity="0.4"/>
<rect x="411.0" y="757.5" width="272.2" height="40.0" rx="6" fill="white" stroke="#6a5acd" stroke-width="1.0" opacity="0.92"/>
<polygon points="492.6,797.5 500.6,797.5 489.6,805.5" fill="white" stroke="#6a5acd" stroke-width="0.8"/>
<line x1="492.1" y1="797.5" x2="501.1" y2="797.5" stroke="white" stroke-width="1.5"/>
<text x="417.0" y="774.5" font-size="11.0" fill="#6a5acd" font-weight="700">LUMA</text>
<text x="417.0" y="788.5" font-size="11.0" fill="#333333">The basement window. The bars are deformed.</text>
<rect x="595.7" y="807.5" width="169.3" height="40.0" rx="6" fill="white" stroke="#c49a6c" stroke-width="1.0" opacity="0.92"/>
<polygon points="646.5,847.5 654.5,847.5 643.5,855.5" fill="white" stroke="#c49a6c" stroke-width="0.8"/>
<line x1="646.0" y1="847.5" x2="655.0" y2="847.5" stroke="white" stroke-width="1.5"/>
<text x="601.7" y="824.5" font-size="11.0" fill="#c49a6c" font-weight="700">THEODORE</text>
<text x="601.7" y="838.5" font-size="11.0" fill="#333333">You want to go down there.</text>
<rect x="411.0" y="857.5" width="157.2" height="40.0" rx="6" fill="white" stroke="#6a5acd" stroke-width="1.0" opacity="0.92"/>
<polygon points="458.2,897.5 466.2,897.5 455.2,905.5" fill="white" stroke="#6a5acd" stroke-width="0.8"/>
<line x1="457.7" y1="897.5" x2="466.7" y2="897.5" stroke="white" stroke-width="1.5"/>
<text x="417.0" y="874.5" font-size="11.0" fill="#6a5acd" font-weight="700">LUMA</text>
<text x="417.0" y="888.5" font-size="11.0" fill="#333333">I need to go down there.</text>
<text x="759.0" y="765.5" text-anchor="end" font-size="12" font-weight="bold" fill="#888888" opacity="0.6">4</text>
<text x="765.0" y="1165.0" text-anchor="end" font-size="9" fill="#888888" opacity="0.5">MED</text>
</svg>