<svg xmlns="http://www.w3.org/2000/svg" viewBox="0 0 800 1200" width="800" height="1200" style="background:#ffffff">
<style>
  text { font-family: "Helvetica Neue", Helvetica, Arial, sans-serif; }
</style>
<text x="400.0" y="22" text-anchor="middle" font-size="16" fill="#888888" font-weight="500">PAGE 12  (5 panels)</text>
<rect x="29.0" y="59.0" width="742.0" height="270.5" rx="2" fill="#f5f0e8" stroke="#2a2a2a" stroke-width="1.5"/>
<ellipse cx="400.0" cy="172.6" rx="85.2" ry="121.7" fill="#6a5acd" opacity="0.18"/>
<path d="M310.5,130.0 Q400.0,32.6 489.5,130.0" fill="none" stroke="#6a5acd" stroke-width="3" opacity="0.35"/>
<line x1="370.2" y1="145.8" x2="395.7" y2="143.8" stroke="#a89888" stroke-width="1.5" opacity="0.45"/>
<line x1="404.3" y1="143.8" x2="429.8" y2="145.8" stroke="#a89888" stroke-width="1.5" opacity="0.45"/>
<ellipse cx="376.1" cy="158.0" rx="10.2" ry="6.1" fill="#a89888" opacity="0.45"/>
<ellipse cx="423.9" cy="158.0" rx="10.2" ry="6.1" fill="#a89888" opacity="0.45"/>
<line x1="400.0" y1="175.0" x2="400.0" y2="194.5" stroke="#a89888" stroke-width="1.2" opacity="0.35"/>
<path d="M394.9,194.5 Q400.0,197.5 405.1,194.5" fill="none" stroke="#a89888" stroke-width="1" opacity="0.3"/>
<line x1="378.7" y1="211.6" x2="421.3" y2="211.6" stroke="#a89888" stroke-width="1.2" opacity="0.35"/>
<rect x="35.0" y="67.0" width="556.5" height="40.0" rx="6" fill="white" stroke="#6a5acd" stroke-width="1.0" opacity="0.92"/>
<polygon points="201.9,107.0 209.9,107.0 198.9,115.0" fill="white" stroke="#6a5acd" stroke-width="0.8"/>
<line x1="201.4" y1="107.0" x2="210.4" y2="107.0" stroke="white" stroke-width="1.5"/>
<text x="41.0" y="84.0" font-size="11.0" fill="#6a5acd" font-weight="700">LUMA</text>
<text x="41.0" y="98.0" font-size="11.0" fill="#333333">The glyph says 'danger-remain-hidden.' A warning. Adapted for human grammatical structure.</text>
<rect x="504.9" y="117.0" width="260.1" height="40.0" rx="6" fill="white" stroke="#6a5acd" stroke-width="1.0" opacity="0.92"/>
<polygon points="583.0,157.0 591.0,157.0 580.0,165.0" fill="white" stroke="#6a5acd" stroke-width="0.8"/>
<line x1="582.5" y1="157.0" x2="591.5" y2="157.0" stroke="white" stroke-width="1.5"/>
<text x="510.9" y="134.0" font-size="11.0" fill="#6a5acd" font-weight="700">LUMA</text>
<text x="510.9" y="148.0" font-size="11.0" fill="#333333">And the response... the human response...</text>
<rect x="35.0" y="167.0" width="387.1" height="40.0" rx="6" fill="white" stroke="#c49a6c" stroke-width="1.0" opacity="0.92"/>
<polygon points="151.1,207.0 159.1,207.0 148.1,215.0" fill="white" stroke="#c49a6c" stroke-width="0.8"/>
<line x1="150.6" y1="207.0" x2="159.6" y2="207.0" stroke="white" stroke-width="1.5"/>
<text x="41.0" y="184.0" font-size="11.0" fill="#c49a6c" font-weight="700">THEODORE</text>
<text x="41.0" y="198.0" font-size="11.0" fill="#333333">It says 'we understand.' That's what it says. 'We understand.'</text>
<text x="759.0" y="75.0" text-anchor="end" font-size="12" font-weight="bold" fill="#888888" opacity="0.6">1</text>
<text x="765.0" y="323.5" text-anchor="end" font-size="9" fill="#888888" opacity="0.5">CU</text>
<rect x="29.0" y="339.5" width="238.2" height="270.5" rx="2" fill="#f5f0e8" stroke="#2a2a2a" stroke-width="1.5"/>
<ellipse cx="148.1" cy="453.1" rx="85.2" ry="121.7" fill="#6a5acd" opacity="0.18"/>
<path d="M58.6,410.5 Q148.1,313.1 237.5,410.5" fill="none" stroke="#6a5acd" stroke-width="3" opacity="0.35"/>
<line x1="118.3" y1="426.3" x2="143.8" y2="424.3" stroke="#a89888" stroke-width="1.5" opacity="0.45"/>
<line x1="152.3" y1="424.3" x2="177.9" y2="426.3" stroke="#a89888" stroke-width="1.5" opacity="0.45"/>
<ellipse cx="124.2" cy="438.5" rx="10.2" ry="6.1" fill="#a89888" opacity="0.45"/>
<ellipse cx="171.9" cy="438.5" rx="10.2" ry="6.1" fill="#a89888" opacity="0.45"/>
<line x1="148.1" y1="455.5" x2="148.1" y2="475.0" stroke="#a89888" stroke-width="1.2" opacity="0.35"/>
<path d="M143.0,475.0 Q148.1,478.0 153.2,475.0" fill="none" stroke="#a89888" stroke-width="1" opacity="0.3"/>
<line x1="126.8" y1="492.1" x2="169.4" y2="492.1" stroke="#a89888" stroke-width="1.2" opacity="0.35"/>
<rect x="35.0" y="347.5" width="215.5" height="64.0" rx="6" fill="white" stroke="#6a5acd" stroke-width="1.0" opacity="0.92"/>
<polygon points="99.7,411.5 107.7,411.5 96.7,419.5" fill="white" stroke="#6a5acd" stroke-width="0.8"/>
<line x1="99.2" y1="411.5" x2="108.2" y2="411.5" stroke="white" stroke-width="1.5"/>
<text x="41.0" y="363.5" font-size="10.0" fill="#6a5acd" font-weight="700">LUMA</text>
<text x="41.0" y="376.5" font-size="10.0" fill="#333333">This matches the glyph I found in the</text>
<text x="41.0" y="389.5" font-size="10.0" fill="#333333">wall. Issue 4's glyph. Same script</text>
<text x="41.0" y="402.5" font-size="10.0" fill="#333333">family, same dialect.</text>
<rect x="35.0" y="421.5" width="221.0" height="64.0" rx="6" fill="white" stroke="#6a5acd" stroke-width="1.0" opacity="0.92"/>
<polygon points="101.3,485.5 109.3,485.5 98.3,493.5" fill="white" stroke="#6a5acd" stroke-width="0.8"/>
<line x1="100.8" y1="485.5" x2="109.8" y2="485.5" stroke="white" stroke-width="1.5"/>
<text x="41.0" y="437.5" font-size="10.0" fill="#6a5acd" font-weight="700">LUMA</text>
<text x="41.0" y="450.5" font-size="10.0" fill="#333333">This was written by one of us. A prior</text>
<text x="41.0" y="463.5" font-size="10.0" fill="#333333">operative. And they weren't just</text>
<text x="41.0" y="476.5" font-size="10.0" fill="#333333">observing.</text>
<rect x="35.0" y="495.5" width="116.5" height="38.0" rx="6" fill="white" stroke="#6a5acd" stroke-width="1.0" opacity="0.92"/>
<polygon points="70.0,533.5 78.0,533.5 67.0,541.5" fill="white" stroke="#6a5acd" stroke-width="0.8"/>
<line x1="69.5" y1="533.5" x2="78.5" y2="533.5" stroke="white" stroke-width="1.5"/>
<text x="41.0" y="511.5" font-size="10.0" fill="#6a5acd" font-weight="700">LUMA</text>
<text x="41.0" y="524.5" font-size="10.0" fill="#333333">They were teaching.</text>
<text x="255.2" y="355.5" text-anchor="end" font-size="12" font-weight="bold" fill="#888888" opacity="0.6">2</text>
<text x="261.2" y="604.0" text-anchor="end" font-size="9" fill="#888888" opacity="0.5">CU</text>
<rect x="277.2" y="339.5" width="493.8" height="270.5" rx="2" fill="#f5f0e8" stroke="#2a2a2a" stroke-width="1.5"/>
<path d="M480.6,534.3 L484.5,500.7 Q488.5,496.7 512.1,496.7 L536.1,496.7 Q559.7,496.7 563.6,500.7 L567.6,534.3 Z" fill="#c49a6c" opacity="0.35"/>
<line x1="484.5" y1="516.0" x2="563.6" y2="516.0" stroke="#c49a6c" stroke-width="1" opacity="0.3"/>
<line x1="484.5" y1="500.7" x2="468.7" y2="531.2" stroke="#c49a6c" stroke-width="2" opacity="0.3"/>
<line x1="468.7" y1="531.2" x2="480.6" y2="549.4" stroke="#c49a6c" stroke-width="2" opacity="0.3"/>
<line x1="563.6" y1="500.7" x2="579.5" y2="531.2" stroke="#c49a6c" stroke-width="2" opacity="0.3"/>
<line x1="579.5" y1="531.2" x2="567.6" y2="549.4" stroke="#c49a6c" stroke-width="2" opacity="0.3"/>
<line x1="524.1" y1="442.6" x2="524.1" y2="496.7" stroke="#c49a6c" stroke-width="3" opacity="0.35"/>
<circle cx="524.1" cy="412.5" r="30.1" fill="#c49a6c" opacity="0.4"/>
<rect x="283.2" y="347.5" width="223.8" height="40.0" rx="6" fill="white" stroke="#c49a6c" stroke-width="1.0" opacity="0.92"/>
<polygon points="350.3,387.5 358.3,387.5 347.3,395.5" fill="white" stroke="#c49a6c" stroke-width="0.8"/>
<line x1="349.8" y1="387.5" x2="358.8" y2="387.5" stroke="white" stroke-width="1.5"/>
<text x="289.2" y="364.5" font-size="11.0" fill="#c49a6c" font-weight="700">THEODORE</text>
<text x="289.2" y="378.5" font-size="11.0" fill="#333333">There were others like you. Before.</text>
<rect x="703.0" y="397.5" width="62.0" height="40.0" rx="6" fill="white" stroke="#6a5acd" stroke-width="1.0" opacity="0.92"/>
<polygon points="721.6,437.5 729.6,437.5 718.6,445.5" fill="white" stroke="#6a5acd" stroke-width="0.8"/>
<line x1="721.1" y1="437.5" x2="730.1" y2="437.5" stroke="white" stroke-width="1.5"/>
<text x="709.0" y="414.5" font-size="11.0" fill="#6a5acd" font-weight="700">LUMA</text>
<text x="709.0" y="428.5" font-size="11.0" fill="#333333">Yes.</text>
<rect x="283.2" y="447.5" width="145.1" height="40.0" rx="6" fill="white" stroke="#c49a6c" stroke-width="1.0" opacity="0.92"/>
<polygon points="326.7,487.5 334.7,487.5 323.7,495.5" fill="white" stroke="#c49a6c" stroke-width="0.8"/>
<line x1="326.2" y1="487.5" x2="335.2" y2="487.5" stroke="white" stroke-width="1.5"/>
<text x="289.2" y="464.5" font-size="11.0" fill="#c49a6c" font-weight="700">THEODORE</text>
<text x="289.2" y="478.5" font-size="11.0" fill="#333333">What happened to them?</text>
<rect x="492.8" y="497.5" width="272.2" height="40.0" rx="6" fill="white" stroke="#6a5acd" stroke-width="1.0" opacity="0.92"/>
<polygon points="574.5,537.5 582.5,537.5 571.5,545.5" fill="white" stroke="#6a5acd" stroke-width="0.8"/>
<line x1="574.0" y1="537.5" x2="583.0" y2="537.5" stroke="white" stroke-width="1.5"/>
<text x="498.8" y="514.5" font-size="11.0" fill="#6a5acd" font-weight="700">LUMA</text>
<text x="498.8" y="528.5" font-size="11.0" fill="#333333">I don't know yet. But I intend to find out.</text>
<text x="759.0" y="355.5" text-anchor="end" font-size="12" font-weight="bold" fill="#888888" opacity="0.6">3</text>
<text x="765.0" y="604.0" text-anchor="end" font-size="9" fill="#888888" opacity="0.5">MED</text>
<rect x="29.0" y="620.0" width="742.0" height="270.5" rx="2" fill="#f5f0e8" stroke="#2a2a2a" stroke-width="1.5"/>
<line x1="35.0" y1="831.0" x2="765.0" y2="831.0" stroke="#a89888" stroke-width="1.0" opacity="0.5"/>
<ellipse cx="214.5" cy="833.0" rx="11.2" ry="2.7" fill="#a89888" opacity="0.2"/>
<line x1="211.8" y1="815.2" x2="207.8" y2="831.0" stroke="#c0b8a8" stroke-width="2" opacity="0.5"/>
<line x1="217.2" y1="815.2" x2="221.2" y2="831.0" stroke="#c0b8a8" stroke-width="2" opacity="0.5"/>
<line x1="214.5" y1="802.2" x2="214.5" y2="815.2" stroke="#c0b8a8" stroke-width="2.5" opacity="0.6"/>
<line x1="201.0" y1="804.2" x2="228.0" y2="804.2" stroke="#c0b8a8" stroke-width="2" opacity="0.5"/>
<line x1="201.0" y1="804.2" x2="196.5" y2="815.7" stroke="#c0b8a8" stroke-width="1.5" opacity="0.4"/>
<line x1="228.0" y1="804.2" x2="232.5" y2="815.7" stroke="#c0b8a8" stroke-width="1.5" opacity="0.4"/>
<circle cx="214.5" cy="786.0" r="8.1" fill="#c0b8a8" opacity="0.6"/>
<ellipse cx="400.0" cy="833.0" rx="11.2" ry="2.7" fill="#a89888" opacity="0.2"/>
<line x1="397.3" y1="815.2" x2="393.2" y2="831.0" stroke="#c0b8a8" stroke-width="2" opacity="0.5"/>
<line x1="402.7" y1="815.2" x2="406.8" y2="831.0" stroke="#c0b8a8" stroke-width="2" opacity="0.5"/>
<line x1="400.0" y1="802.2" x2="400.0" y2="815.2" stroke="#c0b8a8" stroke-width="2.5" opacity="0.6"/>
<line x1="386.5" y1="804.2" x2="413.5" y2="804.2" stroke="#c0b8a8" stroke-width="2" opacity="0.5"/>
<line x1="386.5" y1="804.2" x2="382.0" y2="815.7" stroke="#c0b8a8" stroke-width="1.5" opacity="0.4"/>
<line x1="413.5" y1="804.2" x2="418.0" y2="815.7" stroke="#c0b8a8" stroke-width="1.5" opacity="0.4"/>
<circle cx="400.0" cy="786.0" r="8.1" fill="#c0b8a8" opacity="0.6"/>
<ellipse cx="585.5" cy="833.0" rx="11.2" ry="2.7" fill="#a89888" opacity="0.2"/>
<line x1="582.8" y1="815.2" x2="578.8" y2="831.0" stroke="#c0b8a8" stroke-width="2" opacity="0.5"/>
<line x1="588.2" y1="815.2" x2="592.2" y2="831.0" stroke="#c0b8a8" stroke-width="2" opacity="0.5"/>
<line x1="585.5" y1="802.2" x2="585.5" y2="815.2" stroke="#c0b8a8" stroke-width="2.5" opacity="0.6"/>
<line x1="572.0" y1="804.2" x2="599.0" y2="804.2" stroke="#c0b8a8" stroke-width="2" opacity="0.5"/>
<line x1="572.0" y1="804.2" x2="567.5" y2="815.7" stroke="#c0b8a8" stroke-width="1.5" opacity="0.4"/>
<line x1="599.0" y1="804.2" x2="603.5" y2="815.7" stroke="#c0b8a8" stroke-width="1.5" opacity="0.4"/>
<circle cx="585.5" cy="786.0" r="8.1" fill="#c0b8a8" opacity="0.6"/>
<text x="759.0" y="636.0" text-anchor="end" font-size="12" font-weight="bold" fill="#888888" opacity="0.6">4</text>
<text x="765.0" y="884.5" text-anchor="end" font-size="9" fill="#888888" opacity="0.5">WIDE</text>
<rect x="29.0" y="900.5" width="742.0" height="270.5" rx="2" fill="#f5f0e8" stroke="#2a2a2a" stroke-width="1.5"/>
<ellipse cx="400.0" cy="1014.1" rx="85.2" ry="121.7" fill="#6a5acd" opacity="0.18"/>
<path d="M310.5,971.5 Q400.0,874.1 489.5,971.5" fill="none" stroke="#6a5acd" stroke-width="3" opacity="0.35"/>
<line x1="370.2" y1="987.3" x2="395.7" y2="985.3" stroke="#a89888" stroke-width="1.5" opacity="0.45"/>
<line x1="404.3" y1="985.3" x2="429.8" y2="987.3" stroke="#a89888" stroke-width="1.5" opacity="0.45"/>
<ellipse cx="376.1" cy="999.5" rx="10.2" ry="6.1" fill="#a89888" opacity="0.45"/>
<ellipse cx="423.9" cy="999.5" rx="10.2" ry="6.1" fill="#a89888" opacity="0.45"/>
<line x1="400.0" y1="1016.5" x2="400.0" y2="1036.0" stroke="#a89888" stroke-width="1.2" opacity="0.35"/>
<path d="M394.9,1036.0 Q400.0,1039.0 405.1,1036.0" fill="none" stroke="#a89888" stroke-width="1" opacity="0.3"/>
<line x1="378.7" y1="1053.1" x2="421.3" y2="1053.1" stroke="#a89888" stroke-width="1.2" opacity="0.35"/>
<rect x="35.0" y="908.5" width="369.0" height="40.0" rx="6" fill="white" stroke="#6a5acd" stroke-width="1.0" opacity="0.92"/>
<polygon points="145.7,948.5 153.7,948.5 142.7,956.5" fill="white" stroke="#6a5acd" stroke-width="0.8"/>
<line x1="145.2" y1="948.5" x2="154.2" y2="948.5" stroke="white" stroke-width="1.5"/>
<text x="41.0" y="925.5" font-size="11.0" fill="#6a5acd" font-weight="700">LUMA</text>
<text x="41.0" y="939.5" font-size="11.0" fill="#333333">Prior operative. Titan presence. Communication with humans.</text>
<rect x="607.8" y="958.5" width="157.2" height="40.0" rx="6" fill="white" stroke="#6a5acd" stroke-width="1.0" opacity="0.92"/>
<polygon points="655.0,998.5 663.0,998.5 652.0,1006.5" fill="white" stroke="#6a5acd" stroke-width="0.8"/>
<line x1="654.5" y1="998.5" x2="663.5" y2="998.5" stroke="white" stroke-width="1.5"/>
<text x="613.8" y="975.5" font-size="11.0" fill="#6a5acd" font-weight="700">LUMA</text>
<text x="613.8" y="989.5" font-size="11.0" fill="#333333">This changes everything.</text>
<text x="759.0" y="916.5" text-anchor="end" font-size="12" font-weight="bold" fill="#888888" opacity="0.6">5</text>
<text x="765.0" y="1165.0" text-anchor="end" font-size="9" fill="#888888" opacity="0.5">CU</text>
</svg>