<svg xmlns="http://www.w3.org/2000/svg" viewBox="0 0 800 1200" width="800" height="1200" style="background:#ffffff">
<style>
  text { font-family: "Helvetica Neue", Helvetica, Arial, sans-serif; }
</style>
<text x="400.0" y="22" text-anchor="middle" font-size="16" fill="#888888" font-weight="500">PAGE 17  (4 panels)</text>
<rect x="29.0" y="59.0" width="742.0" height="248.9" rx="2" fill="#f5f0e8" stroke="#2a2a2a" stroke-width="1.5"/>
<line x1="35.0" y1="253.2" x2="765.0" y2="253.2" stroke="#a89888" stroke-width="1.0" opacity="0.5"/>
<ellipse cx="214.5" cy="255.2" rx="11.2" ry="2.7" fill="#a89888" opacity="0.2"/>
<line x1="211.8" y1="237.5" x2="207.8" y2="253.2" stroke="#c0b8a8" stroke-width="2" opacity="0.5"/>
<line x1="217.2" y1="237.5" x2="221.2" y2="253.2" stroke="#c0b8a8" stroke-width="2" opacity="0.5"/>
<line x1="214.5" y1="224.5" x2="214.5" y2="237.5" stroke="#c0b8a8" stroke-width="2.5" opacity="0.6"/>
<line x1="201.1" y1="226.5" x2="227.9" y2="226.5" stroke="#c0b8a8" stroke-width="2" opacity="0.5"/>
<line x1="201.1" y1="226.5" x2="196.6" y2="237.9" stroke="#c0b8a8" stroke-width="1.5" opacity="0.4"/>
<line x1="227.9" y1="226.5" x2="232.4" y2="237.9" stroke="#c0b8a8" stroke-width="1.5" opacity="0.4"/>
<circle cx="214.5" cy="208.4" r="8.1" fill="#c0b8a8" opacity="0.6"/>
<ellipse cx="400.0" cy="255.2" rx="11.2" ry="2.7" fill="#a89888" opacity="0.2"/>
<line x1="397.3" y1="237.5" x2="393.3" y2="253.2" stroke="#c0b8a8" stroke-width="2" opacity="0.5"/>
<line x1="402.7" y1="237.5" x2="406.7" y2="253.2" stroke="#c0b8a8" stroke-width="2" opacity="0.5"/>
<line x1="400.0" y1="224.5" x2="400.0" y2="237.5" stroke="#c0b8a8" stroke-width="2.5" opacity="0.6"/>
<line x1="386.6" y1="226.5" x2="413.4" y2="226.5" stroke="#c0b8a8" stroke-width="2" opacity="0.5"/>
<line x1="386.6" y1="226.5" x2="382.1" y2="237.9" stroke="#c0b8a8" stroke-width="1.5" opacity="0.4"/>
<line x1="413.4" y1="226.5" x2="417.9" y2="237.9" stroke="#c0b8a8" stroke-width="1.5" opacity="0.4"/>
<circle cx="400.0" cy="208.4" r="8.1" fill="#c0b8a8" opacity="0.6"/>
<ellipse cx="585.5" cy="255.2" rx="11.2" ry="2.7" fill="#a89888" opacity="0.2"/>
<line x1="582.8" y1="237.5" x2="578.8" y2="253.2" stroke="#c0b8a8" stroke-width="2" opacity="0.5"/>
<line x1="588.2" y1="237.5" x2="592.2" y2="253.2" stroke="#c0b8a8" stroke-width="2" opacity="0.5"/>
<line x1="585.5" y1="224.5" x2="585.5" y2="237.5" stroke="#c0b8a8" stroke-width="2.5" opacity="0.6"/>
<line x1="572.1" y1="226.5" x2="598.9" y2="226.5" stroke="#c0b8a8" stroke-width="2" opacity="0.5"/>
<line x1="572.1" y1="226.5" x2="567.6" y2="237.9" stroke="#c0b8a8" stroke-width="1.5" opacity="0.4"/>
<line x1="598.9" y1="226.5" x2="603.4" y2="237.9" stroke="#c0b8a8" stroke-width="1.5" opacity="0.4"/>
<circle cx="585.5" cy="208.4" r="8.1" fill="#c0b8a8" opacity="0.6"/>
<text x="759.0" y="75.0" text-anchor="end" font-size="12" font-weight="bold" fill="#888888" opacity="0.6">1</text>
<text x="765.0" y="301.9" text-anchor="end" font-size="9" fill="#888888" opacity="0.5">EST</text>
<rect x="29.0" y="317.9" width="742.0" height="421.5" rx="2" fill="#f5f0e8" stroke="#2a2a2a" stroke-width="1.5"/>
<path d="M332.2,621.4 L338.4,566.9 Q344.5,562.9 381.3,562.9 L418.7,562.9 Q455.5,562.9 461.6,566.9 L467.8,621.4 Z" fill="#b0b0b0" opacity="0.35"/>
<line x1="338.4" y1="593.0" x2="461.6" y2="593.0" stroke="#b0b0b0" stroke-width="1" opacity="0.3"/>
<line x1="338.4" y1="566.9" x2="313.7" y2="614.4" stroke="#b0b0b0" stroke-width="2" opacity="0.3"/>
<line x1="313.7" y1="614.4" x2="332.2" y2="642.8" stroke="#b0b0b0" stroke-width="2" opacity="0.3"/>
<line x1="461.6" y1="566.9" x2="486.3" y2="614.4" stroke="#b0b0b0" stroke-width="2" opacity="0.3"/>
<line x1="486.3" y1="614.4" x2="467.8" y2="642.8" stroke="#b0b0b0" stroke-width="2" opacity="0.3"/>
<line x1="400.0" y1="478.6" x2="400.0" y2="562.9" stroke="#b0b0b0" stroke-width="3" opacity="0.35"/>
<circle cx="400.0" cy="431.7" r="46.9" fill="#b0b0b0" opacity="0.4"/>
<rect x="35.0" y="325.9" width="163.2" height="40.0" rx="6" fill="white" stroke="#b0b0b0" stroke-width="1.0" opacity="0.92"/>
<polygon points="84.0,365.9 92.0,365.9 81.0,373.9" fill="white" stroke="#b0b0b0" stroke-width="0.8"/>
<line x1="83.5" y1="365.9" x2="92.5" y2="365.9" stroke="white" stroke-width="1.5"/>
<text x="41.0" y="342.9" font-size="11.0" fill="#b0b0b0" font-weight="700">SABLE</text>
<text x="41.0" y="356.9" font-size="11.0" fill="#333333">Convergence intervention.</text>
<rect x="595.7" y="375.9" width="169.3" height="40.0" rx="6" fill="white" stroke="#b0b0b0" stroke-width="1.0" opacity="0.92"/>
<polygon points="646.5,415.9 654.5,415.9 643.5,423.9" fill="white" stroke="#b0b0b0" stroke-width="0.8"/>
<line x1="646.0" y1="415.9" x2="655.0" y2="415.9" stroke="white" stroke-width="1.5"/>
<text x="601.7" y="392.9" font-size="11.0" fill="#b0b0b0" font-weight="700">SABLE</text>
<text x="601.7" y="406.9" font-size="11.0" fill="#333333">What did you send us into?</text>
<text x="759.0" y="333.9" text-anchor="end" font-size="12" font-weight="bold" fill="#888888" opacity="0.6">2</text>
<text x="765.0" y="733.5" text-anchor="end" font-size="9" fill="#888888" opacity="0.5">MED</text>
<rect x="29.0" y="749.5" width="366.0" height="421.5" rx="2" fill="#f5f0e8" stroke="#2a2a2a" stroke-width="1.5"/>
<ellipse cx="212.0" cy="926.5" rx="132.8" ry="189.7" fill="#e8dcc8" opacity="0.18"/>
<path d="M72.6,860.1 Q212.0,708.4 351.4,860.1" fill="none" stroke="#e8dcc8" stroke-width="3" opacity="0.35"/>
<line x1="165.5" y1="884.8" x2="205.4" y2="882.8" stroke="#a89888" stroke-width="1.5" opacity="0.45"/>
<line x1="218.6" y1="882.8" x2="258.5" y2="884.8" stroke="#a89888" stroke-width="1.5" opacity="0.45"/>
<ellipse cx="174.8" cy="903.7" rx="15.9" ry="9.5" fill="#a89888" opacity="0.45"/>
<ellipse cx="249.2" cy="903.7" rx="15.9" ry="9.5" fill="#a89888" opacity="0.45"/>
<line x1="212.0" y1="930.3" x2="212.0" y2="960.7" stroke="#a89888" stroke-width="1.2" opacity="0.35"/>
<path d="M204.0,960.7 Q212.0,963.7 220.0,960.7" fill="none" stroke="#a89888" stroke-width="1" opacity="0.3"/>
<line x1="178.8" y1="987.2" x2="245.2" y2="987.2" stroke="#a89888" stroke-width="1.2" opacity="0.35"/>
<rect x="35.0" y="757.5" width="308.5" height="40.0" rx="6" fill="white" stroke="#e8dcc8" stroke-width="1.0" opacity="0.92"/>
<polygon points="127.5,797.5 135.5,797.5 124.5,805.5" fill="white" stroke="#e8dcc8" stroke-width="0.8"/>
<line x1="127.0" y1="797.5" x2="136.0" y2="797.5" stroke="white" stroke-width="1.5"/>
<text x="41.0" y="774.5" font-size="11.0" fill="#e8dcc8" font-weight="700">CAPTION</text>
<text x="41.0" y="788.5" font-size="11.0" fill="#333333">*&quot;Prior insertions. They sent others before us.&quot;*</text>
<rect x="68.4" y="807.5" width="320.6" height="54.0" rx="6" fill="white" stroke="#e8dcc8" stroke-width="1.0" opacity="0.92"/>
<polygon points="164.6,861.5 172.6,861.5 161.6,869.5" fill="white" stroke="#e8dcc8" stroke-width="0.8"/>
<line x1="164.1" y1="861.5" x2="173.1" y2="861.5" stroke="white" stroke-width="1.5"/>
<text x="74.4" y="824.5" font-size="11.0" fill="#e8dcc8" font-weight="700">CAPTION</text>
<text x="74.4" y="838.5" font-size="11.0" fill="#333333">*&quot;And the operational brief was classified above my</text>
<text x="74.4" y="852.5" font-size="11.0" fill="#333333">clearance.&quot;*</text>
<text x="383.0" y="765.5" text-anchor="end" font-size="12" font-weight="bold" fill="#888888" opacity="0.6">3</text>
<text x="389.0" y="1165.0" text-anchor="end" font-size="9" fill="#888888" opacity="0.5">CU</text>
<rect x="405.0" y="749.5" width="366.0" height="421.5" rx="2" fill="#f5f0e8" stroke="#2a2a2a" stroke-width="1.5"/>
<path d="M482.6,1049.8 Q482.6,997.1 561.6,990.5 L614.4,990.5 Q693.4,997.1 693.4,1049.8 L693.4,1120.4 L482.6,1120.4 Z" fill="#b0b0b0" opacity="0.25"/>
<path d="M564.9,990.5 L588.0,1023.5 L611.1,990.5" fill="none" stroke="#b0b0b0" stroke-width="1" opacity="0.3"/>
<circle cx="588.0" cy="918.1" r="65.9" fill="#b0b0b0" opacity="0.35"/>
<path d="M522.1,931.3 Q532.0,990.5 588.0,993.8 Q644.0,990.5 653.9,931.3" fill="none" stroke="#b0b0b0" stroke-width="1.2" opacity="0.3"/>
<path d="M518.8,911.5 Q588.0,832.4 657.2,911.5" fill="none" stroke="#b0b0b0" stroke-width="2" opacity="0.4"/>
<ellipse cx="520.1" cy="921.4" rx="2.5" ry="4" fill="#b0b0b0" opacity="0.25"/>
<ellipse cx="655.9" cy="921.4" rx="2.5" ry="4" fill="#b0b0b0" opacity="0.25"/>
<rect x="411.0" y="757.5" width="62.0" height="40.0" rx="6" fill="white" stroke="#b0b0b0" stroke-width="1.0" opacity="0.92"/>
<polygon points="429.6,797.5 437.6,797.5 426.6,805.5" fill="white" stroke="#b0b0b0" stroke-width="0.8"/>
<line x1="429.1" y1="797.5" x2="438.1" y2="797.5" stroke="white" stroke-width="1.5"/>
<text x="417.0" y="774.5" font-size="11.0" fill="#b0b0b0" font-weight="700">SABLE</text>
<text x="417.0" y="788.5" font-size="11.0" fill="#333333">...</text>
<rect x="662.2" y="807.5" width="102.8" height="40.0" rx="6" fill="white" stroke="#b0b0b0" stroke-width="1.0" opacity="0.92"/>
<polygon points="693.1,847.5 701.1,847.5 690.1,855.5" fill="white" stroke="#b0b0b0" stroke-width="0.8"/>
<line x1="692.6" y1="847.5" x2="701.6" y2="847.5" stroke="white" stroke-width="1.5"/>
<text x="668.2" y="824.5" font-size="11.0" fill="#b0b0b0" font-weight="700">SABLE</text>
<text x="668.2" y="838.5" font-size="11.0" fill="#333333">Reconnaissance.</text>
<text x="759.0" y="765.5" text-anchor="end" font-size="12" font-weight="bold" fill="#888888" opacity="0.6">4</text>
<text x="765.0" y="1165.0" text-anchor="end" font-size="9" fill="#888888" opacity="0.5">MCU</text>
</svg>