<svg xmlns="http://www.w3.org/2000/svg" viewBox="0 0 800 1200" width="800" height="1200" style="background:#ffffff">
<style>
  text { font-family: "Helvetica Neue", Helvetica, Arial, sans-serif; }
</style>
<text x="400.0" y="22" text-anchor="middle" font-size="16" fill="#888888" font-weight="500">PAGE 18  (4 panels)</text>
<rect x="29.0" y="59.0" width="742.0" height="421.5" rx="2" fill="#f5f0e8" stroke="#2a2a2a" stroke-width="1.5"/>
<path d="M332.2,362.5 L338.4,308.0 Q344.5,304.0 381.3,304.0 L418.7,304.0 Q455.5,304.0 461.6,308.0 L467.8,362.5 Z" fill="#b0b0b0" opacity="0.35"/>
<line x1="338.4" y1="334.1" x2="461.6" y2="334.1" stroke="#b0b0b0" stroke-width="1" opacity="0.3"/>
<line x1="338.4" y1="308.0" x2="313.7" y2="355.4" stroke="#b0b0b0" stroke-width="2" opacity="0.3"/>
<line x1="313.7" y1="355.4" x2="332.2" y2="383.9" stroke="#b0b0b0" stroke-width="2" opacity="0.3"/>
<line x1="461.6" y1="308.0" x2="486.3" y2="355.4" stroke="#b0b0b0" stroke-width="2" opacity="0.3"/>
<line x1="486.3" y1="355.4" x2="467.8" y2="383.9" stroke="#b0b0b0" stroke-width="2" opacity="0.3"/>
<line x1="400.0" y1="219.7" x2="400.0" y2="304.0" stroke="#b0b0b0" stroke-width="3" opacity="0.35"/>
<circle cx="400.0" cy="172.8" r="46.9" fill="#b0b0b0" opacity="0.4"/>
<rect x="35.0" y="67.0" width="320.6" height="40.0" rx="6" fill="white" stroke="#b0b0b0" stroke-width="1.0" opacity="0.92"/>
<polygon points="131.2,107.0 139.2,107.0 128.2,115.0" fill="white" stroke="#b0b0b0" stroke-width="0.8"/>
<line x1="130.7" y1="107.0" x2="139.7" y2="107.0" stroke="white" stroke-width="1.5"/>
<text x="41.0" y="84.0" font-size="11.0" fill="#b0b0b0" font-weight="700">SABLE</text>
<text x="41.0" y="98.0" font-size="11.0" fill="#333333">Convergence intervention. Prior insertion timeline.</text>
<rect x="281.1" y="117.0" width="483.9" height="40.0" rx="6" fill="white" stroke="#b0b0b0" stroke-width="1.0" opacity="0.92"/>
<polygon points="426.3,157.0 434.3,157.0 423.3,165.0" fill="white" stroke="#b0b0b0" stroke-width="0.8"/>
<line x1="425.8" y1="157.0" x2="434.8" y2="157.0" stroke="white" stroke-width="1.5"/>
<text x="287.1" y="134.0" font-size="11.0" fill="#b0b0b0" font-weight="700">SABLE</text>
<text x="287.1" y="148.0" font-size="11.0" fill="#333333">They knew this point was critical. They sent teams before. None reported back.</text>
<rect x="35.0" y="167.0" width="290.3" height="40.0" rx="6" fill="white" stroke="#b0b0b0" stroke-width="1.0" opacity="0.92"/>
<polygon points="122.1,207.0 130.1,207.0 119.1,215.0" fill="white" stroke="#b0b0b0" stroke-width="0.8"/>
<line x1="121.6" y1="207.0" x2="130.6" y2="207.0" stroke="white" stroke-width="1.5"/>
<text x="41.0" y="184.0" font-size="11.0" fill="#b0b0b0" font-weight="700">SABLE</text>
<text x="41.0" y="198.0" font-size="11.0" fill="#333333">And they sent US. And told us it was a survey.</text>
<text x="759.0" y="75.0" text-anchor="end" font-size="12" font-weight="bold" fill="#888888" opacity="0.6">1</text>
<text x="765.0" y="474.5" text-anchor="end" font-size="9" fill="#888888" opacity="0.5">MW</text>
<rect x="29.0" y="490.5" width="366.0" height="421.5" rx="2" fill="#f5f0e8" stroke="#2a2a2a" stroke-width="1.5"/>
<ellipse cx="212.0" cy="667.6" rx="132.8" ry="189.7" fill="#b0b0b0" opacity="0.18"/>
<path d="M72.6,601.2 Q212.0,449.4 351.4,601.2" fill="none" stroke="#b0b0b0" stroke-width="3" opacity="0.35"/>
<line x1="165.5" y1="625.9" x2="205.4" y2="623.9" stroke="#a89888" stroke-width="1.5" opacity="0.45"/>
<line x1="218.6" y1="623.9" x2="258.5" y2="625.9" stroke="#a89888" stroke-width="1.5" opacity="0.45"/>
<ellipse cx="174.8" cy="644.8" rx="15.9" ry="9.5" fill="#a89888" opacity="0.45"/>
<ellipse cx="249.2" cy="644.8" rx="15.9" ry="9.5" fill="#a89888" opacity="0.45"/>
<line x1="212.0" y1="671.4" x2="212.0" y2="701.7" stroke="#a89888" stroke-width="1.2" opacity="0.35"/>
<path d="M204.0,701.7 Q212.0,704.7 220.0,701.7" fill="none" stroke="#a89888" stroke-width="1" opacity="0.3"/>
<line x1="178.8" y1="728.3" x2="245.2" y2="728.3" stroke="#a89888" stroke-width="1.2" opacity="0.35"/>
<rect x="35.0" y="498.5" width="84.6" height="40.0" rx="6" fill="white" stroke="#b0b0b0" stroke-width="1.0" opacity="0.92"/>
<polygon points="60.4,538.5 68.4,538.5 57.4,546.5" fill="white" stroke="#b0b0b0" stroke-width="0.8"/>
<line x1="59.9" y1="538.5" x2="68.9" y2="538.5" stroke="white" stroke-width="1.5"/>
<text x="41.0" y="515.5" font-size="11.0" fill="#b0b0b0" font-weight="700">SABLE</text>
<text x="41.0" y="529.5" font-size="11.0" fill="#333333">*&quot;Not yet.&quot;*</text>
<text x="383.0" y="506.5" text-anchor="end" font-size="12" font-weight="bold" fill="#888888" opacity="0.6">2</text>
<text x="389.0" y="906.1" text-anchor="end" font-size="9" fill="#888888" opacity="0.5">CU</text>
<rect x="405.0" y="490.5" width="366.0" height="421.5" rx="2" fill="#f5f0e8" stroke="#2a2a2a" stroke-width="1.5"/>
<path d="M520.2,794.0 L526.4,739.5 Q532.5,735.5 569.3,735.5 L606.7,735.5 Q643.5,735.5 649.6,739.5 L655.8,794.0 Z" fill="#c0b8a8" opacity="0.35"/>
<line x1="526.4" y1="765.6" x2="649.6" y2="765.6" stroke="#c0b8a8" stroke-width="1" opacity="0.3"/>
<line x1="526.4" y1="739.5" x2="501.7" y2="787.0" stroke="#c0b8a8" stroke-width="2" opacity="0.3"/>
<line x1="501.7" y1="787.0" x2="520.2" y2="815.4" stroke="#c0b8a8" stroke-width="2" opacity="0.3"/>
<line x1="649.6" y1="739.5" x2="674.3" y2="787.0" stroke="#c0b8a8" stroke-width="2" opacity="0.3"/>
<line x1="674.3" y1="787.0" x2="655.8" y2="815.4" stroke="#c0b8a8" stroke-width="2" opacity="0.3"/>
<line x1="588.0" y1="651.2" x2="588.0" y2="735.5" stroke="#c0b8a8" stroke-width="3" opacity="0.35"/>
<circle cx="588.0" cy="604.4" r="46.9" fill="#c0b8a8" opacity="0.4"/>
<text x="759.0" y="506.5" text-anchor="end" font-size="12" font-weight="bold" fill="#888888" opacity="0.6">3</text>
<text x="765.0" y="906.1" text-anchor="end" font-size="9" fill="#888888" opacity="0.5">MED</text>
<rect x="29.0" y="922.1" width="742.0" height="248.9" rx="2" fill="#f5f0e8" stroke="#2a2a2a" stroke-width="1.5"/>
<line x1="35.0" y1="1116.2" x2="765.0" y2="1116.2" stroke="#a89888" stroke-width="1.0" opacity="0.5"/>
<ellipse cx="214.5" cy="1118.2" rx="11.2" ry="2.7" fill="#a89888" opacity="0.2"/>
<line x1="211.8" y1="1100.6" x2="207.8" y2="1116.2" stroke="#c0b8a8" stroke-width="2" opacity="0.5"/>
<line x1="217.2" y1="1100.6" x2="221.2" y2="1116.2" stroke="#c0b8a8" stroke-width="2" opacity="0.5"/>
<line x1="214.5" y1="1087.6" x2="214.5" y2="1100.6" stroke="#c0b8a8" stroke-width="2.5" opacity="0.6"/>
<line x1="201.1" y1="1089.6" x2="227.9" y2="1089.6" stroke="#c0b8a8" stroke-width="2" opacity="0.5"/>
<line x1="201.1" y1="1089.6" x2="196.6" y2="1101.0" stroke="#c0b8a8" stroke-width="1.5" opacity="0.4"/>
<line x1="227.9" y1="1089.6" x2="232.4" y2="1101.0" stroke="#c0b8a8" stroke-width="1.5" opacity="0.4"/>
<circle cx="214.5" cy="1071.4" r="8.1" fill="#c0b8a8" opacity="0.6"/>
<ellipse cx="400.0" cy="1118.2" rx="11.2" ry="2.7" fill="#a89888" opacity="0.2"/>
<line x1="397.3" y1="1100.6" x2="393.3" y2="1116.2" stroke="#c0b8a8" stroke-width="2" opacity="0.5"/>
<line x1="402.7" y1="1100.6" x2="406.7" y2="1116.2" stroke="#c0b8a8" stroke-width="2" opacity="0.5"/>
<line x1="400.0" y1="1087.6" x2="400.0" y2="1100.6" stroke="#c0b8a8" stroke-width="2.5" opacity="0.6"/>
<line x1="386.6" y1="1089.6" x2="413.4" y2="1089.6" stroke="#c0b8a8" stroke-width="2" opacity="0.5"/>
<line x1="386.6" y1="1089.6" x2="382.1" y2="1101.0" stroke="#c0b8a8" stroke-width="1.5" opacity="0.4"/>
<line x1="413.4" y1="1089.6" x2="417.9" y2="1101.0" stroke="#c0b8a8" stroke-width="1.5" opacity="0.4"/>
<circle cx="400.0" cy="1071.4" r="8.1" fill="#c0b8a8" opacity="0.6"/>
<ellipse cx="585.5" cy="1118.2" rx="11.2" ry="2.7" fill="#a89888" opacity="0.2"/>
<line x1="582.8" y1="1100.6" x2="578.8" y2="1116.2" stroke="#c0b8a8" stroke-width="2" opacity="0.5"/>
<line x1="588.2" y1="1100.6" x2="592.2" y2="1116.2" stroke="#c0b8a8" stroke-width="2" opacity="0.5"/>
<line x1="585.5" y1="1087.6" x2="585.5" y2="1100.6" stroke="#c0b8a8" stroke-width="2.5" opacity="0.6"/>
<line x1="572.1" y1="1089.6" x2="598.9" y2="1089.6" stroke="#c0b8a8" stroke-width="2" opacity="0.5"/>
<line x1="572.1" y1="1089.6" x2="567.6" y2="1101.0" stroke="#c0b8a8" stroke-width="1.5" opacity="0.4"/>
<line x1="598.9" y1="1089.6" x2="603.4" y2="1101.0" stroke="#c0b8a8" stroke-width="1.5" opacity="0.4"/>
<circle cx="585.5" cy="1071.4" r="8.1" fill="#c0b8a8" opacity="0.6"/>
<rect x="35.0" y="930.1" width="350.8" height="40.0" rx="2" fill="#f5ecd8" stroke="#c8b898" stroke-width="0.8" opacity="0.92"/>
<text x="41.0" y="947.1" font-size="11.0" fill="#5a4a30" font-style="italic" font-weight="500">CAPTION</text>
<text x="41.0" y="961.1" font-size="11.0" fill="#5a4a30" font-style="italic">She sat in the dark until she could wear her face again.</text>
<text x="759.0" y="938.1" text-anchor="end" font-size="12" font-weight="bold" fill="#888888" opacity="0.6">4</text>
<text x="765.0" y="1165.0" text-anchor="end" font-size="9" fill="#888888" opacity="0.5">WIDE</text>
</svg>