<svg xmlns="http://www.w3.org/2000/svg" viewBox="0 0 800 1200" width="800" height="1200" style="background:#ffffff">
<style>
  text { font-family: "Helvetica Neue", Helvetica, Arial, sans-serif; }
</style>
<text x="400.0" y="22" text-anchor="middle" font-size="16" fill="#888888" font-weight="500">PAGE 15  (4 panels)</text>
<rect x="29.0" y="59.0" width="366.0" height="364.0" rx="2" fill="#f5f0e8" stroke="#2a2a2a" stroke-width="1.5"/>
<line x1="35.0" y1="342.9" x2="389.0" y2="342.9" stroke="#a89888" stroke-width="1.0" opacity="0.5"/>
<ellipse cx="212.0" cy="344.9" rx="11.2" ry="2.7" fill="#a89888" opacity="0.2"/>
<line x1="209.3" y1="327.2" x2="205.2" y2="342.9" stroke="#6a5acd" stroke-width="2" opacity="0.5"/>
<line x1="214.7" y1="327.2" x2="218.8" y2="342.9" stroke="#6a5acd" stroke-width="2" opacity="0.5"/>
<line x1="212.0" y1="314.1" x2="212.0" y2="327.2" stroke="#6a5acd" stroke-width="2.5" opacity="0.6"/>
<line x1="198.5" y1="316.1" x2="225.5" y2="316.1" stroke="#6a5acd" stroke-width="2" opacity="0.5"/>
<line x1="198.5" y1="316.1" x2="194.0" y2="327.6" stroke="#6a5acd" stroke-width="1.5" opacity="0.4"/>
<line x1="225.5" y1="316.1" x2="230.0" y2="327.6" stroke="#6a5acd" stroke-width="1.5" opacity="0.4"/>
<circle cx="212.0" cy="297.9" r="8.1" fill="#6a5acd" opacity="0.6"/>
<rect x="35.0" y="67.0" width="354.0" height="54.0" rx="6" fill="white" stroke="#6a5acd" stroke-width="1.0" opacity="0.92"/>
<polygon points="141.2,121.0 149.2,121.0 138.2,129.0" fill="white" stroke="#6a5acd" stroke-width="0.8"/>
<line x1="140.7" y1="121.0" x2="149.7" y2="121.0" stroke="white" stroke-width="1.5"/>
<text x="41.0" y="84.0" font-size="11.0" fill="#6a5acd" font-weight="700">LUMA</text>
<text x="41.0" y="98.0" font-size="11.0" fill="#333333">The residue dating... the claw marks and the glyph. They're</text>
<text x="41.0" y="112.0" font-size="11.0" fill="#333333">the same age, Sable. Within decades of each other.</text>
<rect x="35.0" y="131.0" width="354.0" height="54.0" rx="6" fill="white" stroke="#6a5acd" stroke-width="1.0" opacity="0.92"/>
<polygon points="141.2,185.0 149.2,185.0 138.2,193.0" fill="white" stroke="#6a5acd" stroke-width="0.8"/>
<line x1="140.7" y1="185.0" x2="149.7" y2="185.0" stroke="white" stroke-width="1.5"/>
<text x="41.0" y="148.0" font-size="11.0" fill="#6a5acd" font-weight="700">LUMA</text>
<text x="41.0" y="162.0" font-size="11.0" fill="#333333">Whoever carved this was operating in Titan territory. They</text>
<text x="41.0" y="176.0" font-size="11.0" fill="#333333">KNEW.</text>
<text x="383.0" y="75.0" text-anchor="end" font-size="12" font-weight="bold" fill="#888888" opacity="0.6">1</text>
<text x="389.0" y="417.0" text-anchor="end" font-size="9" fill="#888888" opacity="0.5">WIDE</text>
<rect x="405.0" y="59.0" width="366.0" height="364.0" rx="2" fill="#f5f0e8" stroke="#2a2a2a" stroke-width="1.5"/>
<path d="M486.1,332.0 Q486.1,281.0 562.5,274.7 L613.5,274.7 Q689.9,281.0 689.9,332.0 L689.9,379.3 L486.1,379.3 Z" fill="#e8dcc8" opacity="0.25"/>
<path d="M565.7,274.7 L588.0,306.5 L610.3,274.7" fill="none" stroke="#e8dcc8" stroke-width="1" opacity="0.3"/>
<circle cx="588.0" cy="204.6" r="63.7" fill="#e8dcc8" opacity="0.35"/>
<path d="M524.3,217.3 Q533.9,274.7 588.0,277.9 Q642.1,274.7 651.7,217.3" fill="none" stroke="#e8dcc8" stroke-width="1.2" opacity="0.3"/>
<path d="M521.1,198.2 Q588.0,121.8 654.9,198.2" fill="none" stroke="#e8dcc8" stroke-width="2" opacity="0.4"/>
<ellipse cx="522.3" cy="207.8" rx="2.5" ry="4" fill="#e8dcc8" opacity="0.25"/>
<ellipse cx="653.7" cy="207.8" rx="2.5" ry="4" fill="#e8dcc8" opacity="0.25"/>
<rect x="411.0" y="67.0" width="344.8" height="54.0" rx="6" fill="white" stroke="#e8dcc8" stroke-width="1.0" opacity="0.92"/>
<polygon points="514.4,121.0 522.4,121.0 511.4,129.0" fill="white" stroke="#e8dcc8" stroke-width="0.8"/>
<line x1="513.9" y1="121.0" x2="522.9" y2="121.0" stroke="white" stroke-width="1.5"/>
<text x="417.0" y="84.0" font-size="11.0" fill="#e8dcc8" font-weight="700">CAPTION</text>
<text x="417.0" y="98.0" font-size="11.0" fill="#333333">*&quot;The same methodology as the glyph from the alley. But</text>
<text x="417.0" y="112.0" font-size="11.0" fill="#333333">older. Much older.&quot;*</text>
<rect x="450.5" y="131.0" width="314.5" height="54.0" rx="6" fill="white" stroke="#e8dcc8" stroke-width="1.0" opacity="0.92"/>
<polygon points="544.9,185.0 552.9,185.0 541.9,193.0" fill="white" stroke="#e8dcc8" stroke-width="0.8"/>
<line x1="544.4" y1="185.0" x2="553.4" y2="185.0" stroke="white" stroke-width="1.5"/>
<text x="456.5" y="148.0" font-size="11.0" fill="#e8dcc8" font-weight="700">CAPTION</text>
<text x="456.5" y="162.0" font-size="11.0" fill="#333333">*&quot;Someone established a protocol. And someone else</text>
<text x="456.5" y="176.0" font-size="11.0" fill="#333333">continued it.&quot;*</text>
<text x="759.0" y="75.0" text-anchor="end" font-size="12" font-weight="bold" fill="#888888" opacity="0.6">2</text>
<text x="765.0" y="417.0" text-anchor="end" font-size="9" fill="#888888" opacity="0.5">MCU</text>
<rect x="29.0" y="433.0" width="742.0" height="364.0" rx="2" fill="#f5f0e8" stroke="#2a2a2a" stroke-width="1.5"/>
<path d="M341.4,695.1 L346.8,648.6 Q352.1,644.6 383.8,644.6 L416.2,644.6 Q447.9,644.6 453.2,648.6 L458.6,695.1 Z" fill="#6a5acd" opacity="0.35"/>
<line x1="346.8" y1="670.5" x2="453.2" y2="670.5" stroke="#6a5acd" stroke-width="1" opacity="0.3"/>
<line x1="346.8" y1="648.6" x2="325.5" y2="689.5" stroke="#6a5acd" stroke-width="2" opacity="0.3"/>
<line x1="325.5" y1="689.5" x2="341.4" y2="714.1" stroke="#6a5acd" stroke-width="2" opacity="0.3"/>
<line x1="453.2" y1="648.6" x2="474.5" y2="689.5" stroke="#6a5acd" stroke-width="2" opacity="0.3"/>
<line x1="474.5" y1="689.5" x2="458.6" y2="714.1" stroke="#6a5acd" stroke-width="2" opacity="0.3"/>
<line x1="400.0" y1="571.7" x2="400.0" y2="644.6" stroke="#6a5acd" stroke-width="3" opacity="0.35"/>
<circle cx="400.0" cy="531.3" r="40.5" fill="#6a5acd" opacity="0.4"/>
<rect x="35.0" y="441.0" width="284.2" height="40.0" rx="6" fill="white" stroke="#6a5acd" stroke-width="1.0" opacity="0.92"/>
<polygon points="120.3,481.0 128.3,481.0 117.3,489.0" fill="white" stroke="#6a5acd" stroke-width="0.8"/>
<line x1="119.8" y1="481.0" x2="128.8" y2="481.0" stroke="white" stroke-width="1.5"/>
<text x="41.0" y="458.0" font-size="11.0" fill="#6a5acd" font-weight="700">LUMA</text>
<text x="41.0" y="472.0" font-size="11.0" fill="#333333">How long were you here? How long did you try?</text>
<text x="759.0" y="449.0" text-anchor="end" font-size="12" font-weight="bold" fill="#888888" opacity="0.6">3</text>
<text x="765.0" y="791.0" text-anchor="end" font-size="9" fill="#888888" opacity="0.5">MW</text>
<rect x="29.0" y="807.0" width="742.0" height="364.0" rx="2" fill="#f5f0e8" stroke="#2a2a2a" stroke-width="1.5"/>
<path d="M341.4,1069.1 L346.8,1022.6 Q352.1,1018.6 383.8,1018.6 L416.2,1018.6 Q447.9,1018.6 453.2,1022.6 L458.6,1069.1 Z" fill="#c49a6c" opacity="0.35"/>
<line x1="346.8" y1="1044.5" x2="453.2" y2="1044.5" stroke="#c49a6c" stroke-width="1" opacity="0.3"/>
<line x1="346.8" y1="1022.6" x2="325.5" y2="1063.5" stroke="#c49a6c" stroke-width="2" opacity="0.3"/>
<line x1="325.5" y1="1063.5" x2="341.4" y2="1088.1" stroke="#c49a6c" stroke-width="2" opacity="0.3"/>
<line x1="453.2" y1="1022.6" x2="474.5" y2="1063.5" stroke="#c49a6c" stroke-width="2" opacity="0.3"/>
<line x1="474.5" y1="1063.5" x2="458.6" y2="1088.1" stroke="#c49a6c" stroke-width="2" opacity="0.3"/>
<line x1="400.0" y1="945.7" x2="400.0" y2="1018.6" stroke="#c49a6c" stroke-width="3" opacity="0.35"/>
<circle cx="400.0" cy="905.3" r="40.5" fill="#c49a6c" opacity="0.4"/>
<rect x="35.0" y="815.0" width="235.9" height="40.0" rx="6" fill="white" stroke="#c49a6c" stroke-width="1.0" opacity="0.92"/>
<polygon points="105.8,855.0 113.8,855.0 102.8,863.0" fill="white" stroke="#c49a6c" stroke-width="0.8"/>
<line x1="105.3" y1="855.0" x2="114.3" y2="855.0" stroke="white" stroke-width="1.5"/>
<text x="41.0" y="832.0" font-size="11.0" fill="#c49a6c" font-weight="700">THEODORE</text>
<text x="41.0" y="846.0" font-size="11.0" fill="#333333">I have you. Careful through the bars.</text>
<rect x="632.0" y="865.0" width="133.0" height="40.0" rx="6" fill="white" stroke="#6a5acd" stroke-width="1.0" opacity="0.92"/>
<polygon points="671.9,905.0 679.9,905.0 668.9,913.0" fill="white" stroke="#6a5acd" stroke-width="0.8"/>
<line x1="671.4" y1="905.0" x2="680.4" y2="905.0" stroke="white" stroke-width="1.5"/>
<text x="638.0" y="882.0" font-size="11.0" fill="#6a5acd" font-weight="700">LUMA</text>
<text x="638.0" y="896.0" font-size="11.0" fill="#333333">Thank you, Theodore.</text>
<text x="759.0" y="823.0" text-anchor="end" font-size="12" font-weight="bold" fill="#888888" opacity="0.6">4</text>
<text x="765.0" y="1165.0" text-anchor="end" font-size="9" fill="#888888" opacity="0.5">MED</text>
</svg>