<svg xmlns="http://www.w3.org/2000/svg" viewBox="0 0 800 1200" width="800" height="1200" style="background:#ffffff">
<style>
  text { font-family: "Helvetica Neue", Helvetica, Arial, sans-serif; }
</style>
<text x="400.0" y="22" text-anchor="middle" font-size="16" fill="#888888" font-weight="500">PAGE 9  (4 panels)</text>
<rect x="29.0" y="59.0" width="742.0" height="551.0" rx="2" fill="#f5f0e8" stroke="#2a2a2a" stroke-width="1.5"/>
<path d="M311.4,455.7 L319.4,383.3 Q327.5,379.3 375.5,379.3 L424.5,379.3 Q472.5,379.3 480.6,383.3 L488.6,455.7 Z" fill="#c0b8a8" opacity="0.35"/>
<line x1="319.4" y1="418.5" x2="480.6" y2="418.5" stroke="#c0b8a8" stroke-width="1" opacity="0.3"/>
<line x1="319.4" y1="383.3" x2="287.2" y2="445.2" stroke="#c0b8a8" stroke-width="2" opacity="0.3"/>
<line x1="287.2" y1="445.2" x2="311.4" y2="482.4" stroke="#c0b8a8" stroke-width="2" opacity="0.3"/>
<line x1="480.6" y1="383.3" x2="512.8" y2="445.2" stroke="#c0b8a8" stroke-width="2" opacity="0.3"/>
<line x1="512.8" y1="445.2" x2="488.6" y2="482.4" stroke="#c0b8a8" stroke-width="2" opacity="0.3"/>
<line x1="400.0" y1="269.0" x2="400.0" y2="379.3" stroke="#c0b8a8" stroke-width="3" opacity="0.35"/>
<circle cx="400.0" cy="207.8" r="61.2" fill="#c0b8a8" opacity="0.4"/>
<text x="759.0" y="75.0" text-anchor="end" font-size="12" font-weight="bold" fill="#888888" opacity="0.6">1</text>
<text x="765.0" y="604.0" text-anchor="end" font-size="9" fill="#888888" opacity="0.5">MW</text>
<rect x="29.0" y="620.0" width="290.8" height="551.0" rx="2" fill="#f5f0e8" stroke="#2a2a2a" stroke-width="1.5"/>
<ellipse cx="174.4" cy="851.4" rx="116.3" ry="248.0" fill="#c0b8a8" opacity="0.18"/>
<path d="M52.3,764.6 Q174.4,566.3 296.5,764.6" fill="none" stroke="#c0b8a8" stroke-width="3" opacity="0.35"/>
<line x1="133.7" y1="796.9" x2="168.6" y2="794.9" stroke="#a89888" stroke-width="1.5" opacity="0.45"/>
<line x1="180.2" y1="794.9" x2="215.1" y2="796.9" stroke="#a89888" stroke-width="1.5" opacity="0.45"/>
<ellipse cx="141.8" cy="821.7" rx="14.0" ry="12.4" fill="#a89888" opacity="0.45"/>
<ellipse cx="207.0" cy="821.7" rx="14.0" ry="12.4" fill="#a89888" opacity="0.45"/>
<line x1="174.4" y1="856.4" x2="174.4" y2="896.1" stroke="#a89888" stroke-width="1.2" opacity="0.35"/>
<path d="M167.4,896.1 Q174.4,899.1 181.4,896.1" fill="none" stroke="#a89888" stroke-width="1" opacity="0.3"/>
<line x1="145.3" y1="930.8" x2="203.5" y2="930.8" stroke="#a89888" stroke-width="1.2" opacity="0.35"/>
<text x="307.8" y="636.0" text-anchor="end" font-size="12" font-weight="bold" fill="#888888" opacity="0.6">2</text>
<text x="313.8" y="1165.0" text-anchor="end" font-size="9" fill="#888888" opacity="0.5">CU</text>
<rect x="329.8" y="620.0" width="140.4" height="551.0" rx="2" fill="#f5f0e8" stroke="#2a2a2a" stroke-width="1.5"/>
<ellipse cx="400.0" cy="851.4" rx="56.2" ry="248.0" fill="#6a5acd" opacity="0.18"/>
<path d="M341.0,764.6 Q400.0,566.3 459.0,764.6" fill="none" stroke="#6a5acd" stroke-width="3" opacity="0.35"/>
<line x1="380.3" y1="796.9" x2="397.2" y2="794.9" stroke="#a89888" stroke-width="1.5" opacity="0.45"/>
<line x1="402.8" y1="794.9" x2="419.7" y2="796.9" stroke="#a89888" stroke-width="1.5" opacity="0.45"/>
<ellipse cx="384.3" cy="821.7" rx="6.7" ry="12.4" fill="#a89888" opacity="0.45"/>
<ellipse cx="415.7" cy="821.7" rx="6.7" ry="12.4" fill="#a89888" opacity="0.45"/>
<line x1="400.0" y1="856.4" x2="400.0" y2="896.1" stroke="#a89888" stroke-width="1.2" opacity="0.35"/>
<path d="M396.6,896.1 Q400.0,899.1 403.4,896.1" fill="none" stroke="#a89888" stroke-width="1" opacity="0.3"/>
<line x1="386.0" y1="930.8" x2="414.0" y2="930.8" stroke="#a89888" stroke-width="1.2" opacity="0.35"/>
<rect x="335.8" y="628.0" width="62.0" height="38.0" rx="6" fill="white" stroke="#6a5acd" stroke-width="1.0" opacity="0.92"/>
<polygon points="354.4,666.0 362.4,666.0 351.4,674.0" fill="white" stroke="#6a5acd" stroke-width="0.8"/>
<line x1="353.9" y1="666.0" x2="362.9" y2="666.0" stroke="white" stroke-width="1.5"/>
<text x="341.8" y="644.0" font-size="10.0" fill="#6a5acd" font-weight="700">LUMA</text>
<text x="341.8" y="657.0" font-size="10.0" fill="#333333">Theodore.</text>
<text x="458.2" y="636.0" text-anchor="end" font-size="12" font-weight="bold" fill="#888888" opacity="0.6">3</text>
<text x="464.2" y="1165.0" text-anchor="end" font-size="9" fill="#888888" opacity="0.5">ECU</text>
<rect x="480.2" y="620.0" width="290.8" height="551.0" rx="2" fill="#f5f0e8" stroke="#2a2a2a" stroke-width="1.5"/>
<path d="M541.8,945.1 Q541.8,903.2 604.7,898.0 L646.5,898.0 Q709.4,903.2 709.4,945.1 L709.4,1104.9 L541.8,1104.9 Z" fill="#6a5acd" opacity="0.25"/>
<path d="M607.3,898.0 L625.6,924.2 L643.9,898.0" fill="none" stroke="#6a5acd" stroke-width="1" opacity="0.3"/>
<circle cx="625.6" cy="840.4" r="52.3" fill="#6a5acd" opacity="0.35"/>
<path d="M573.3,850.9 Q581.1,898.0 625.6,900.6 Q670.1,898.0 677.9,850.9" fill="none" stroke="#6a5acd" stroke-width="1.2" opacity="0.3"/>
<path d="M570.6,835.2 Q625.6,772.4 680.6,835.2" fill="none" stroke="#6a5acd" stroke-width="2" opacity="0.4"/>
<ellipse cx="571.3" cy="843.0" rx="2.5" ry="4" fill="#6a5acd" opacity="0.25"/>
<ellipse cx="679.9" cy="843.0" rx="2.5" ry="4" fill="#6a5acd" opacity="0.25"/>
<rect x="486.2" y="628.0" width="272.2" height="54.0" rx="6" fill="white" stroke="#6a5acd" stroke-width="1.0" opacity="0.92"/>
<polygon points="567.8,682.0 575.8,682.0 564.8,690.0" fill="white" stroke="#6a5acd" stroke-width="0.8"/>
<line x1="567.3" y1="682.0" x2="576.3" y2="682.0" stroke="white" stroke-width="1.5"/>
<text x="492.2" y="645.0" font-size="11.0" fill="#6a5acd" font-weight="700">LUMA</text>
<text x="492.2" y="659.0" font-size="11.0" fill="#333333">Don't look up the street. Keep your eyes on</text>
<text x="492.2" y="673.0" font-size="11.0" fill="#333333">the window.</text>
<rect x="504.9" y="692.0" width="260.1" height="68.0" rx="6" fill="white" stroke="#6a5acd" stroke-width="1.0" opacity="0.92"/>
<polygon points="583.0,760.0 591.0,760.0 580.0,768.0" fill="white" stroke="#6a5acd" stroke-width="0.8"/>
<line x1="582.5" y1="760.0" x2="591.5" y2="760.0" stroke="white" stroke-width="1.5"/>
<text x="510.9" y="709.0" font-size="11.0" fill="#6a5acd" font-weight="700">LUMA</text>
<text x="510.9" y="723.0" font-size="11.0" fill="#333333">There is something at the far end of this</text>
<text x="510.9" y="737.0" font-size="11.0" fill="#333333">street. It is very large. And it may be</text>
<text x="510.9" y="751.0" font-size="11.0" fill="#333333">watching.</text>
<rect x="486.2" y="770.0" width="108.8" height="40.0" rx="6" fill="white" stroke="#c49a6c" stroke-width="1.0" opacity="0.92"/>
<polygon points="518.8,810.0 526.8,810.0 515.8,818.0" fill="white" stroke="#c49a6c" stroke-width="0.8"/>
<line x1="518.3" y1="810.0" x2="527.3" y2="810.0" stroke="white" stroke-width="1.5"/>
<text x="492.2" y="787.0" font-size="11.0" fill="#c49a6c" font-weight="700">THEODORE</text>
<text x="492.2" y="801.0" font-size="11.0" fill="#333333">...what do I do?</text>
<rect x="486.2" y="820.0" width="278.8" height="54.0" rx="6" fill="white" stroke="#6a5acd" stroke-width="1.0" opacity="0.92"/>
<polygon points="569.8,874.0 577.8,874.0 566.8,882.0" fill="white" stroke="#6a5acd" stroke-width="0.8"/>
<line x1="569.3" y1="874.0" x2="578.3" y2="874.0" stroke="white" stroke-width="1.5"/>
<text x="492.2" y="837.0" font-size="11.0" fill="#6a5acd" font-weight="700">LUMA</text>
<text x="492.2" y="851.0" font-size="11.0" fill="#333333">Walk. Slowly. Toward the basement entrance. Do</text>
<text x="492.2" y="865.0" font-size="11.0" fill="#333333">not run.</text>
<text x="759.0" y="636.0" text-anchor="end" font-size="12" font-weight="bold" fill="#888888" opacity="0.6">4</text>
<text x="765.0" y="1165.0" text-anchor="end" font-size="9" fill="#888888" opacity="0.5">MCU</text>
</svg>