<svg xmlns="http://www.w3.org/2000/svg" viewBox="0 0 800 1200" width="800" height="1200" style="background:#ffffff">
<style>
  text { font-family: "Helvetica Neue", Helvetica, Arial, sans-serif; }
</style>
<text x="400.0" y="22" text-anchor="middle" font-size="16" fill="#888888" font-weight="500">PAGE 14  (4 panels)</text>
<rect x="29.0" y="59.0" width="742.0" height="310.6" rx="2" fill="#f5f0e8" stroke="#2a2a2a" stroke-width="1.5"/>
<rect x="35.0" y="67.0" width="181.4" height="40.0" rx="6" fill="white" stroke="#6a5acd" stroke-width="1.0" opacity="0.92"/>
<polygon points="89.4,107.0 97.4,107.0 86.4,115.0" fill="white" stroke="#6a5acd" stroke-width="0.8"/>
<line x1="88.9" y1="107.0" x2="97.9" y2="107.0" stroke="white" stroke-width="1.5"/>
<text x="41.0" y="84.0" font-size="11.0" fill="#6a5acd" font-weight="700">LUMA</text>
<text x="41.0" y="98.0" font-size="11.0" fill="#333333">That's... that's our script.</text>
<rect x="468.6" y="117.0" width="296.4" height="40.0" rx="6" fill="white" stroke="#6a5acd" stroke-width="1.0" opacity="0.92"/>
<polygon points="557.6,157.0 565.6,157.0 554.6,165.0" fill="white" stroke="#6a5acd" stroke-width="0.8"/>
<line x1="557.1" y1="157.0" x2="566.1" y2="157.0" stroke="white" stroke-width="1.5"/>
<text x="474.6" y="134.0" font-size="11.0" fill="#6a5acd" font-weight="700">LUMA</text>
<text x="474.6" y="148.0" font-size="11.0" fill="#333333">It's our writing. On the wall. At THEIR height.</text>
<text x="759.0" y="75.0" text-anchor="end" font-size="12" font-weight="bold" fill="#888888" opacity="0.6">1</text>
<rect x="29.0" y="379.6" width="742.0" height="470.9" rx="2" fill="#f5f0e8" stroke="#2a2a2a" stroke-width="1.5"/>
<path d="M324.3,718.6 L331.1,657.2 Q338.0,653.2 379.1,653.2 L420.9,653.2 Q462.0,653.2 468.9,657.2 L475.7,718.6 Z" fill="#6a5acd" opacity="0.35"/>
<line x1="331.1" y1="686.8" x2="468.9" y2="686.8" stroke="#6a5acd" stroke-width="1" opacity="0.3"/>
<line x1="331.1" y1="657.2" x2="303.6" y2="710.2" stroke="#6a5acd" stroke-width="2" opacity="0.3"/>
<line x1="303.6" y1="710.2" x2="324.3" y2="742.0" stroke="#6a5acd" stroke-width="2" opacity="0.3"/>
<line x1="468.9" y1="657.2" x2="496.4" y2="710.2" stroke="#6a5acd" stroke-width="2" opacity="0.3"/>
<line x1="496.4" y1="710.2" x2="475.7" y2="742.0" stroke="#6a5acd" stroke-width="2" opacity="0.3"/>
<line x1="400.0" y1="559.0" x2="400.0" y2="653.2" stroke="#6a5acd" stroke-width="3" opacity="0.35"/>
<circle cx="400.0" cy="506.7" r="52.3" fill="#6a5acd" opacity="0.4"/>
<rect x="35.0" y="387.6" width="502.1" height="40.0" rx="6" fill="white" stroke="#6a5acd" stroke-width="1.0" opacity="0.92"/>
<polygon points="185.6,427.6 193.6,427.6 182.6,435.6" fill="white" stroke="#6a5acd" stroke-width="0.8"/>
<line x1="185.1" y1="427.6" x2="194.1" y2="427.6" stroke="white" stroke-width="1.5"/>
<text x="41.0" y="404.6" font-size="11.0" fill="#6a5acd" font-weight="700">LUMA</text>
<text x="41.0" y="418.6" font-size="11.0" fill="#333333">It's simplified. The nested recursion is stripped out. The grammar is linearized.</text>
<rect x="432.3" y="437.6" width="332.7" height="40.0" rx="6" fill="white" stroke="#6a5acd" stroke-width="1.0" opacity="0.92"/>
<polygon points="532.1,477.6 540.1,477.6 529.1,485.6" fill="white" stroke="#6a5acd" stroke-width="0.8"/>
<line x1="531.6" y1="477.6" x2="540.6" y2="477.6" stroke="white" stroke-width="1.5"/>
<text x="438.3" y="454.6" font-size="11.0" fill="#6a5acd" font-weight="700">LUMA</text>
<text x="438.3" y="468.6" font-size="11.0" fill="#333333">Someone rewrote our language so humans could read it.</text>
<rect x="35.0" y="487.6" width="84.6" height="40.0" rx="6" fill="white" stroke="#b0b0b0" stroke-width="1.0" opacity="0.92"/>
<polygon points="60.4,527.6 68.4,527.6 57.4,535.6" fill="white" stroke="#b0b0b0" stroke-width="0.8"/>
<line x1="59.9" y1="527.6" x2="68.9" y2="527.6" stroke="white" stroke-width="1.5"/>
<text x="41.0" y="504.6" font-size="11.0" fill="#b0b0b0" font-weight="700">SABLE</text>
<text x="41.0" y="518.6" font-size="11.0" fill="#333333">Repeat that.</text>
<rect x="420.2" y="537.6" width="344.8" height="40.0" rx="6" fill="white" stroke="#6a5acd" stroke-width="1.0" opacity="0.92"/>
<polygon points="523.7,577.6 531.7,577.6 520.7,585.6" fill="white" stroke="#6a5acd" stroke-width="0.8"/>
<line x1="523.2" y1="577.6" x2="532.2" y2="577.6" stroke="white" stroke-width="1.5"/>
<text x="426.2" y="554.6" font-size="11.0" fill="#6a5acd" font-weight="700">LUMA</text>
<text x="426.2" y="568.6" font-size="11.0" fill="#333333">One of us was HERE, Sable. One of us was teaching them.</text>
<text x="759.0" y="395.6" text-anchor="end" font-size="12" font-weight="bold" fill="#888888" opacity="0.6">2</text>
<text x="765.0" y="844.4" text-anchor="end" font-size="9" fill="#888888" opacity="0.5">MED</text>
<rect x="29.0" y="860.4" width="366.0" height="310.6" rx="2" fill="#f5f0e8" stroke="#2a2a2a" stroke-width="1.5"/>
<path d="M162.0,1084.0 L166.6,1044.9 Q171.1,1040.9 198.2,1040.9 L225.8,1040.9 Q252.9,1040.9 257.4,1044.9 L262.0,1084.0 Z" fill="#c49a6c" opacity="0.35"/>
<line x1="166.6" y1="1063.1" x2="257.4" y2="1063.1" stroke="#c49a6c" stroke-width="1" opacity="0.3"/>
<line x1="166.6" y1="1044.9" x2="148.4" y2="1079.9" stroke="#c49a6c" stroke-width="2" opacity="0.3"/>
<line x1="148.4" y1="1079.9" x2="162.0" y2="1100.8" stroke="#c49a6c" stroke-width="2" opacity="0.3"/>
<line x1="257.4" y1="1044.9" x2="275.6" y2="1079.9" stroke="#c49a6c" stroke-width="2" opacity="0.3"/>
<line x1="275.6" y1="1079.9" x2="262.0" y2="1100.8" stroke="#c49a6c" stroke-width="2" opacity="0.3"/>
<line x1="212.0" y1="978.8" x2="212.0" y2="1040.9" stroke="#c49a6c" stroke-width="3" opacity="0.35"/>
<circle cx="212.0" cy="944.3" r="34.5" fill="#c49a6c" opacity="0.4"/>
<rect x="35.0" y="868.4" width="290.3" height="40.0" rx="6" fill="white" stroke="#c49a6c" stroke-width="1.0" opacity="0.92"/>
<polygon points="122.1,908.4 130.1,908.4 119.1,916.4" fill="white" stroke="#c49a6c" stroke-width="0.8"/>
<line x1="121.6" y1="908.4" x2="130.6" y2="908.4" stroke="white" stroke-width="1.5"/>
<text x="41.0" y="885.4" font-size="11.0" fill="#c49a6c" font-weight="700">THEODORE</text>
<text x="41.0" y="899.4" font-size="11.0" fill="#333333">Miss Luma? Are you quite all right down there?</text>
<rect x="35.0" y="918.4" width="354.0" height="40.0" rx="6" fill="white" stroke="#6a5acd" stroke-width="1.0" opacity="0.92"/>
<polygon points="141.2,958.4 149.2,958.4 138.2,966.4" fill="white" stroke="#6a5acd" stroke-width="0.8"/>
<line x1="140.7" y1="958.4" x2="149.7" y2="958.4" stroke="white" stroke-width="1.5"/>
<text x="41.0" y="935.4" font-size="11.0" fill="#6a5acd" font-weight="700">LUMA</text>
<text x="41.0" y="949.4" font-size="11.0" fill="#333333">I'm... I need to photograph everything. Give me a moment.</text>
<text x="383.0" y="876.4" text-anchor="end" font-size="12" font-weight="bold" fill="#888888" opacity="0.6">3</text>
<text x="389.0" y="1165.0" text-anchor="end" font-size="9" fill="#888888" opacity="0.5">MED</text>
<rect x="405.0" y="860.4" width="366.0" height="310.6" rx="2" fill="#f5f0e8" stroke="#2a2a2a" stroke-width="1.5"/>
<ellipse cx="588.0" cy="990.9" rx="97.8" ry="139.8" fill="#6a5acd" opacity="0.18"/>
<path d="M485.3,942.0 Q588.0,830.1 690.7,942.0" fill="none" stroke="#6a5acd" stroke-width="3" opacity="0.35"/>
<line x1="553.8" y1="960.1" x2="583.1" y2="958.1" stroke="#a89888" stroke-width="1.5" opacity="0.45"/>
<line x1="592.9" y1="958.1" x2="622.2" y2="960.1" stroke="#a89888" stroke-width="1.5" opacity="0.45"/>
<ellipse cx="560.6" cy="974.1" rx="11.7" ry="7.0" fill="#a89888" opacity="0.45"/>
<ellipse cx="615.4" cy="974.1" rx="11.7" ry="7.0" fill="#a89888" opacity="0.45"/>
<line x1="588.0" y1="993.7" x2="588.0" y2="1016.0" stroke="#a89888" stroke-width="1.2" opacity="0.35"/>
<path d="M582.1,1016.0 Q588.0,1019.0 593.9,1016.0" fill="none" stroke="#a89888" stroke-width="1" opacity="0.3"/>
<line x1="563.5" y1="1035.6" x2="612.5" y2="1035.6" stroke="#a89888" stroke-width="1.2" opacity="0.35"/>
<rect x="411.0" y="868.4" width="90.7" height="40.0" rx="6" fill="white" stroke="#6a5acd" stroke-width="1.0" opacity="0.92"/>
<polygon points="438.2,908.4 446.2,908.4 435.2,916.4" fill="white" stroke="#6a5acd" stroke-width="0.8"/>
<line x1="437.7" y1="908.4" x2="446.7" y2="908.4" stroke="white" stroke-width="1.5"/>
<text x="417.0" y="885.4" font-size="11.0" fill="#6a5acd" font-weight="700">LUMA</text>
<text x="417.0" y="899.4" font-size="11.0" fill="#333333">Who were you?</text>
<text x="759.0" y="876.4" text-anchor="end" font-size="12" font-weight="bold" fill="#888888" opacity="0.6">4</text>
<text x="765.0" y="1165.0" text-anchor="end" font-size="9" fill="#888888" opacity="0.5">ECU</text>
</svg>