<svg xmlns="http://www.w3.org/2000/svg" viewBox="0 0 800 1200" width="800" height="1200" style="background:#ffffff">
<style>
  text { font-family: "Helvetica Neue", Helvetica, Arial, sans-serif; }
</style>
<text x="400.0" y="22" text-anchor="middle" font-size="16" fill="#888888" font-weight="500">PAGE 11  (5 panels)</text>
<rect x="29.0" y="59.0" width="742.0" height="364.0" rx="2" fill="#f5f0e8" stroke="#2a2a2a" stroke-width="1.5"/>
<line x1="35.0" y1="342.9" x2="765.0" y2="342.9" stroke="#a89888" stroke-width="1.0" opacity="0.5"/>
<ellipse cx="276.3" cy="344.9" rx="11.2" ry="2.7" fill="#a89888" opacity="0.2"/>
<line x1="273.6" y1="327.2" x2="269.6" y2="342.9" stroke="#6a5acd" stroke-width="2" opacity="0.5"/>
<line x1="279.0" y1="327.2" x2="283.1" y2="342.9" stroke="#6a5acd" stroke-width="2" opacity="0.5"/>
<line x1="276.3" y1="314.1" x2="276.3" y2="327.2" stroke="#6a5acd" stroke-width="2.5" opacity="0.6"/>
<line x1="262.8" y1="316.1" x2="289.8" y2="316.1" stroke="#6a5acd" stroke-width="2" opacity="0.5"/>
<line x1="262.8" y1="316.1" x2="258.3" y2="327.6" stroke="#6a5acd" stroke-width="1.5" opacity="0.4"/>
<line x1="289.8" y1="316.1" x2="294.3" y2="327.6" stroke="#6a5acd" stroke-width="1.5" opacity="0.4"/>
<circle cx="276.3" cy="297.9" r="8.1" fill="#6a5acd" opacity="0.6"/>
<ellipse cx="523.7" cy="344.9" rx="11.2" ry="2.7" fill="#a89888" opacity="0.2"/>
<line x1="521.0" y1="327.2" x2="516.9" y2="342.9" stroke="#c49a6c" stroke-width="2" opacity="0.5"/>
<line x1="526.4" y1="327.2" x2="530.4" y2="342.9" stroke="#c49a6c" stroke-width="2" opacity="0.5"/>
<line x1="523.7" y1="314.1" x2="523.7" y2="327.2" stroke="#c49a6c" stroke-width="2.5" opacity="0.6"/>
<line x1="510.2" y1="316.1" x2="537.2" y2="316.1" stroke="#c49a6c" stroke-width="2" opacity="0.5"/>
<line x1="510.2" y1="316.1" x2="505.7" y2="327.6" stroke="#c49a6c" stroke-width="1.5" opacity="0.4"/>
<line x1="537.2" y1="316.1" x2="541.7" y2="327.6" stroke="#c49a6c" stroke-width="1.5" opacity="0.4"/>
<circle cx="523.7" cy="297.9" r="8.1" fill="#c49a6c" opacity="0.6"/>
<rect x="35.0" y="67.0" width="338.7" height="40.0" rx="6" fill="white" stroke="#6a5acd" stroke-width="1.0" opacity="0.92"/>
<polygon points="136.6,107.0 144.6,107.0 133.6,115.0" fill="white" stroke="#6a5acd" stroke-width="0.8"/>
<line x1="136.1" y1="107.0" x2="145.1" y2="107.0" stroke="white" stroke-width="1.5"/>
<text x="41.0" y="84.0" font-size="11.0" fill="#6a5acd" font-weight="700">LUMA</text>
<text x="41.0" y="98.0" font-size="11.0" fill="#333333">Hold me higher. I need line-of-sight to the back wall.</text>
<rect x="553.4" y="117.0" width="211.7" height="40.0" rx="6" fill="white" stroke="#c49a6c" stroke-width="1.0" opacity="0.92"/>
<polygon points="616.8,157.0 624.8,157.0 613.8,165.0" fill="white" stroke="#c49a6c" stroke-width="0.8"/>
<line x1="616.3" y1="157.0" x2="625.3" y2="157.0" stroke="white" stroke-width="1.5"/>
<text x="559.4" y="134.0" font-size="11.0" fill="#c49a6c" font-weight="700">THEODORE</text>
<text x="559.4" y="148.0" font-size="11.0" fill="#333333">More claw marks. Same as outside.</text>
<text x="759.0" y="75.0" text-anchor="end" font-size="12" font-weight="bold" fill="#888888" opacity="0.6">1</text>
<text x="765.0" y="417.0" text-anchor="end" font-size="9" fill="#888888" opacity="0.5">EST</text>
<rect x="29.0" y="433.0" width="366.0" height="364.0" rx="2" fill="#f5f0e8" stroke="#2a2a2a" stroke-width="1.5"/>
<ellipse cx="212.0" cy="585.9" rx="114.7" ry="163.8" fill="#6a5acd" opacity="0.18"/>
<path d="M91.6,528.5 Q212.0,397.5 332.4,528.5" fill="none" stroke="#6a5acd" stroke-width="3" opacity="0.35"/>
<line x1="171.9" y1="549.8" x2="206.3" y2="547.8" stroke="#a89888" stroke-width="1.5" opacity="0.45"/>
<line x1="217.7" y1="547.8" x2="252.1" y2="549.8" stroke="#a89888" stroke-width="1.5" opacity="0.45"/>
<ellipse cx="179.9" cy="566.2" rx="13.8" ry="8.2" fill="#a89888" opacity="0.45"/>
<ellipse cx="244.1" cy="566.2" rx="13.8" ry="8.2" fill="#a89888" opacity="0.45"/>
<line x1="212.0" y1="589.2" x2="212.0" y2="615.4" stroke="#a89888" stroke-width="1.2" opacity="0.35"/>
<path d="M205.1,615.4 Q212.0,618.4 218.9,615.4" fill="none" stroke="#a89888" stroke-width="1" opacity="0.3"/>
<line x1="183.3" y1="638.3" x2="240.7" y2="638.3" stroke="#a89888" stroke-width="1.2" opacity="0.35"/>
<rect x="35.0" y="441.0" width="354.0" height="54.0" rx="6" fill="white" stroke="#6a5acd" stroke-width="1.0" opacity="0.92"/>
<polygon points="141.2,495.0 149.2,495.0 138.2,503.0" fill="white" stroke="#6a5acd" stroke-width="0.8"/>
<line x1="140.7" y1="495.0" x2="149.7" y2="495.0" stroke="white" stroke-width="1.5"/>
<text x="41.0" y="458.0" font-size="11.0" fill="#6a5acd" font-weight="700">LUMA</text>
<text x="41.0" y="472.0" font-size="11.0" fill="#333333">The residue concentration is ten times what I found on the</text>
<text x="41.0" y="486.0" font-size="11.0" fill="#333333">street.</text>
<rect x="35.0" y="505.0" width="354.0" height="54.0" rx="6" fill="white" stroke="#6a5acd" stroke-width="1.0" opacity="0.92"/>
<polygon points="141.2,559.0 149.2,559.0 138.2,567.0" fill="white" stroke="#6a5acd" stroke-width="0.8"/>
<line x1="140.7" y1="559.0" x2="149.7" y2="559.0" stroke="white" stroke-width="1.5"/>
<text x="41.0" y="522.0" font-size="11.0" fill="#6a5acd" font-weight="700">LUMA</text>
<text x="41.0" y="536.0" font-size="11.0" fill="#333333">This wasn't a transit point. Something spent extended time</text>
<text x="41.0" y="550.0" font-size="11.0" fill="#333333">in this space.</text>
<text x="383.0" y="449.0" text-anchor="end" font-size="12" font-weight="bold" fill="#888888" opacity="0.6">2</text>
<text x="389.0" y="791.0" text-anchor="end" font-size="9" fill="#888888" opacity="0.5">CU</text>
<rect x="405.0" y="433.0" width="366.0" height="364.0" rx="2" fill="#f5f0e8" stroke="#2a2a2a" stroke-width="1.5"/>
<path d="M486.1,706.0 Q486.1,655.0 562.5,648.7 L613.5,648.7 Q689.9,655.0 689.9,706.0 L689.9,753.3 L486.1,753.3 Z" fill="#c49a6c" opacity="0.25"/>
<path d="M565.7,648.7 L588.0,680.5 L610.3,648.7" fill="none" stroke="#c49a6c" stroke-width="1" opacity="0.3"/>
<circle cx="588.0" cy="578.6" r="63.7" fill="#c49a6c" opacity="0.35"/>
<path d="M524.3,591.3 Q533.9,648.7 588.0,651.9 Q642.1,648.7 651.7,591.3" fill="none" stroke="#c49a6c" stroke-width="1.2" opacity="0.3"/>
<path d="M521.1,572.2 Q588.0,495.8 654.9,572.2" fill="none" stroke="#c49a6c" stroke-width="2" opacity="0.4"/>
<ellipse cx="522.3" cy="581.8" rx="2.5" ry="4" fill="#c49a6c" opacity="0.25"/>
<ellipse cx="653.7" cy="581.8" rx="2.5" ry="4" fill="#c49a6c" opacity="0.25"/>
<rect x="411.0" y="441.0" width="332.7" height="54.0" rx="6" fill="white" stroke="#c49a6c" stroke-width="1.0" opacity="0.92"/>
<polygon points="510.8,495.0 518.8,495.0 507.8,503.0" fill="white" stroke="#c49a6c" stroke-width="0.8"/>
<line x1="510.3" y1="495.0" x2="519.3" y2="495.0" stroke="white" stroke-width="1.5"/>
<text x="417.0" y="458.0" font-size="11.0" fill="#c49a6c" font-weight="700">THEODORE</text>
<text x="417.0" y="472.0" font-size="11.0" fill="#333333">Luma. I can see something on the far pillar. Writing,</text>
<text x="417.0" y="486.0" font-size="11.0" fill="#333333">maybe.</text>
<text x="759.0" y="449.0" text-anchor="end" font-size="12" font-weight="bold" fill="#888888" opacity="0.6">3</text>
<text x="765.0" y="791.0" text-anchor="end" font-size="9" fill="#888888" opacity="0.5">MCU</text>
<rect x="29.0" y="807.0" width="742.0" height="364.0" rx="2" fill="#f5f0e8" stroke="#2a2a2a" stroke-width="1.5"/>
<path d="M341.4,1069.1 L346.8,1022.6 Q352.1,1018.6 383.8,1018.6 L416.2,1018.6 Q447.9,1018.6 453.2,1022.6 L458.6,1069.1 Z" fill="#6a5acd" opacity="0.35"/>
<line x1="346.8" y1="1044.5" x2="453.2" y2="1044.5" stroke="#6a5acd" stroke-width="1" opacity="0.3"/>
<line x1="346.8" y1="1022.6" x2="325.5" y2="1063.5" stroke="#6a5acd" stroke-width="2" opacity="0.3"/>
<line x1="325.5" y1="1063.5" x2="341.4" y2="1088.1" stroke="#6a5acd" stroke-width="2" opacity="0.3"/>
<line x1="453.2" y1="1022.6" x2="474.5" y2="1063.5" stroke="#6a5acd" stroke-width="2" opacity="0.3"/>
<line x1="474.5" y1="1063.5" x2="458.6" y2="1088.1" stroke="#6a5acd" stroke-width="2" opacity="0.3"/>
<line x1="400.0" y1="945.7" x2="400.0" y2="1018.6" stroke="#6a5acd" stroke-width="3" opacity="0.35"/>
<circle cx="400.0" cy="905.3" r="40.5" fill="#6a5acd" opacity="0.4"/>
<rect x="35.0" y="815.0" width="411.3" height="40.0" rx="6" fill="white" stroke="#6a5acd" stroke-width="1.0" opacity="0.92"/>
<polygon points="158.4,855.0 166.4,855.0 155.4,863.0" fill="white" stroke="#6a5acd" stroke-width="0.8"/>
<line x1="157.9" y1="855.0" x2="166.9" y2="855.0" stroke="white" stroke-width="1.5"/>
<text x="41.0" y="832.0" font-size="11.0" fill="#6a5acd" font-weight="700">LUMA</text>
<text x="41.0" y="846.0" font-size="11.0" fill="#333333">A glyph. Our language. But simplified — adapted for a non-speaker.</text>
<rect x="535.2" y="865.0" width="229.8" height="40.0" rx="6" fill="white" stroke="#6a5acd" stroke-width="1.0" opacity="0.92"/>
<polygon points="604.1,905.0 612.1,905.0 601.1,913.0" fill="white" stroke="#6a5acd" stroke-width="0.8"/>
<line x1="603.6" y1="905.0" x2="612.6" y2="905.0" stroke="white" stroke-width="1.5"/>
<text x="541.2" y="882.0" font-size="11.0" fill="#6a5acd" font-weight="700">LUMA</text>
<text x="541.2" y="896.0" font-size="11.0" fill="#333333">Someone taught a human to read this.</text>
<rect x="35.0" y="915.0" width="350.8" height="40.0" rx="6" fill="white" stroke="#c49a6c" stroke-width="1.0" opacity="0.92"/>
<polygon points="140.2,955.0 148.2,955.0 137.2,963.0" fill="white" stroke="#c49a6c" stroke-width="0.8"/>
<line x1="139.7" y1="955.0" x2="148.7" y2="955.0" stroke="white" stroke-width="1.5"/>
<text x="41.0" y="932.0" font-size="11.0" fill="#c49a6c" font-weight="700">THEODORE</text>
<text x="41.0" y="946.0" font-size="11.0" fill="#333333">And someone wrote back. Look — below it. That's English.</text>
<text x="759.0" y="823.0" text-anchor="end" font-size="12" font-weight="bold" fill="#888888" opacity="0.6">4</text>
<text x="765.0" y="1165.0" text-anchor="end" font-size="9" fill="#888888" opacity="0.5">MW</text>
</svg>