<svg xmlns="http://www.w3.org/2000/svg" viewBox="0 0 800 1200" width="800" height="1200" style="background:#ffffff">
<style>
  text { font-family: "Helvetica Neue", Helvetica, Arial, sans-serif; }
</style>
<text x="400.0" y="22" text-anchor="middle" font-size="16" fill="#888888" font-weight="500">PAGE 7  (5 panels)</text>
<rect x="29.0" y="59.0" width="493.8" height="364.0" rx="2" fill="#f5f0e8" stroke="#2a2a2a" stroke-width="1.5"/>
<path d="M217.4,321.1 L222.7,274.6 Q228.0,270.6 259.7,270.6 L292.1,270.6 Q323.8,270.6 329.2,274.6 L334.5,321.1 Z" fill="#c49a6c" opacity="0.35"/>
<line x1="222.7" y1="296.5" x2="329.2" y2="296.5" stroke="#c49a6c" stroke-width="1" opacity="0.3"/>
<line x1="222.7" y1="274.6" x2="201.4" y2="315.5" stroke="#c49a6c" stroke-width="2" opacity="0.3"/>
<line x1="201.4" y1="315.5" x2="217.4" y2="340.1" stroke="#c49a6c" stroke-width="2" opacity="0.3"/>
<line x1="329.2" y1="274.6" x2="350.4" y2="315.5" stroke="#c49a6c" stroke-width="2" opacity="0.3"/>
<line x1="350.4" y1="315.5" x2="334.5" y2="340.1" stroke="#c49a6c" stroke-width="2" opacity="0.3"/>
<line x1="275.9" y1="197.7" x2="275.9" y2="270.6" stroke="#c49a6c" stroke-width="3" opacity="0.35"/>
<circle cx="275.9" cy="157.3" r="40.5" fill="#c49a6c" opacity="0.4"/>
<rect x="35.0" y="67.0" width="344.8" height="40.0" rx="6" fill="white" stroke="#c49a6c" stroke-width="1.0" opacity="0.92"/>
<polygon points="138.4,107.0 146.4,107.0 135.4,115.0" fill="white" stroke="#c49a6c" stroke-width="0.8"/>
<line x1="137.9" y1="107.0" x2="146.9" y2="107.0" stroke="white" stroke-width="1.5"/>
<text x="41.0" y="84.0" font-size="11.0" fill="#c49a6c" font-weight="700">THEODORE</text>
<text x="41.0" y="98.0" font-size="11.0" fill="#333333">There's a bird here. Dead. Just... lying on the stones.</text>
<rect x="305.2" y="117.0" width="211.7" height="40.0" rx="6" fill="white" stroke="#c49a6c" stroke-width="1.0" opacity="0.92"/>
<polygon points="368.7,157.0 376.7,157.0 365.7,165.0" fill="white" stroke="#c49a6c" stroke-width="0.8"/>
<line x1="368.2" y1="157.0" x2="377.2" y2="157.0" stroke="white" stroke-width="1.5"/>
<text x="311.2" y="134.0" font-size="11.0" fill="#c49a6c" font-weight="700">THEODORE</text>
<text x="311.2" y="148.0" font-size="11.0" fill="#333333">No marks on it. Nothing's had it.</text>
<text x="510.8" y="75.0" text-anchor="end" font-size="12" font-weight="bold" fill="#888888" opacity="0.6">1</text>
<text x="516.8" y="417.0" text-anchor="end" font-size="9" fill="#888888" opacity="0.5">MED</text>
<rect x="532.8" y="59.0" width="238.2" height="364.0" rx="2" fill="#f5f0e8" stroke="#2a2a2a" stroke-width="1.5"/>
<ellipse cx="651.9" cy="211.9" rx="95.3" ry="163.8" fill="#c0b8a8" opacity="0.18"/>
<path d="M551.9,154.6 Q651.9,23.5 751.9,154.6" fill="none" stroke="#c0b8a8" stroke-width="3" opacity="0.35"/>
<line x1="618.6" y1="175.8" x2="647.2" y2="173.8" stroke="#a89888" stroke-width="1.5" opacity="0.45"/>
<line x1="656.7" y1="173.8" x2="685.3" y2="175.8" stroke="#a89888" stroke-width="1.5" opacity="0.45"/>
<ellipse cx="625.2" cy="192.2" rx="11.4" ry="8.2" fill="#a89888" opacity="0.45"/>
<ellipse cx="678.6" cy="192.2" rx="11.4" ry="8.2" fill="#a89888" opacity="0.45"/>
<line x1="651.9" y1="215.2" x2="651.9" y2="241.4" stroke="#a89888" stroke-width="1.2" opacity="0.35"/>
<path d="M646.2,241.4 Q651.9,244.4 657.6,241.4" fill="none" stroke="#a89888" stroke-width="1" opacity="0.3"/>
<line x1="628.1" y1="264.3" x2="675.7" y2="264.3" stroke="#a89888" stroke-width="1.2" opacity="0.35"/>
<text x="759.0" y="75.0" text-anchor="end" font-size="12" font-weight="bold" fill="#888888" opacity="0.6">2</text>
<text x="765.0" y="417.0" text-anchor="end" font-size="9" fill="#888888" opacity="0.5">ECU</text>
<rect x="29.0" y="433.0" width="742.0" height="364.0" rx="2" fill="#f5f0e8" stroke="#2a2a2a" stroke-width="1.5"/>
<ellipse cx="400.0" cy="585.9" rx="114.7" ry="163.8" fill="#6a5acd" opacity="0.18"/>
<path d="M279.6,528.5 Q400.0,397.5 520.4,528.5" fill="none" stroke="#6a5acd" stroke-width="3" opacity="0.35"/>
<line x1="359.9" y1="549.8" x2="394.3" y2="547.8" stroke="#a89888" stroke-width="1.5" opacity="0.45"/>
<line x1="405.7" y1="547.8" x2="440.1" y2="549.8" stroke="#a89888" stroke-width="1.5" opacity="0.45"/>
<ellipse cx="367.9" cy="566.2" rx="13.8" ry="8.2" fill="#a89888" opacity="0.45"/>
<ellipse cx="432.1" cy="566.2" rx="13.8" ry="8.2" fill="#a89888" opacity="0.45"/>
<line x1="400.0" y1="589.2" x2="400.0" y2="615.4" stroke="#a89888" stroke-width="1.2" opacity="0.35"/>
<path d="M393.1,615.4 Q400.0,618.4 406.9,615.4" fill="none" stroke="#a89888" stroke-width="1" opacity="0.3"/>
<line x1="371.3" y1="638.3" x2="428.7" y2="638.3" stroke="#a89888" stroke-width="1.2" opacity="0.35"/>
<rect x="35.0" y="441.0" width="532.3" height="40.0" rx="6" fill="white" stroke="#6a5acd" stroke-width="1.0" opacity="0.92"/>
<polygon points="194.7,481.0 202.7,481.0 191.7,489.0" fill="white" stroke="#6a5acd" stroke-width="0.8"/>
<line x1="194.2" y1="481.0" x2="203.2" y2="481.0" stroke="white" stroke-width="1.5"/>
<text x="41.0" y="458.0" font-size="11.0" fill="#6a5acd" font-weight="700">LUMA</text>
<text x="41.0" y="472.0" font-size="11.0" fill="#333333">Cellular disruption. Every cell wall in its body has been destabilized simultaneously.</text>
<rect x="172.2" y="491.0" width="592.8" height="40.0" rx="6" fill="white" stroke="#6a5acd" stroke-width="1.0" opacity="0.92"/>
<polygon points="350.0,531.0 358.0,531.0 347.0,539.0" fill="white" stroke="#6a5acd" stroke-width="0.8"/>
<line x1="349.5" y1="531.0" x2="358.5" y2="531.0" stroke="white" stroke-width="1.5"/>
<text x="178.2" y="508.0" font-size="11.0" fill="#6a5acd" font-weight="700">LUMA</text>
<text x="178.2" y="522.0" font-size="11.0" fill="#333333">This bird flew through something. A field. An energy field that operates at the molecular level.</text>
<rect x="35.0" y="541.0" width="320.6" height="40.0" rx="6" fill="white" stroke="#6a5acd" stroke-width="1.0" opacity="0.92"/>
<polygon points="131.2,581.0 139.2,581.0 128.2,589.0" fill="white" stroke="#6a5acd" stroke-width="0.8"/>
<line x1="130.7" y1="581.0" x2="139.7" y2="581.0" stroke="white" stroke-width="1.5"/>
<text x="41.0" y="558.0" font-size="11.0" fill="#6a5acd" font-weight="700">LUMA</text>
<text x="41.0" y="572.0" font-size="11.0" fill="#333333">We don't have this technology. And neither do they.</text>
<text x="759.0" y="449.0" text-anchor="end" font-size="12" font-weight="bold" fill="#888888" opacity="0.6">3</text>
<text x="765.0" y="791.0" text-anchor="end" font-size="9" fill="#888888" opacity="0.5">CU</text>
<rect x="29.0" y="807.0" width="366.0" height="364.0" rx="2" fill="#f5f0e8" stroke="#2a2a2a" stroke-width="1.5"/>
<path d="M110.1,1080.0 Q110.1,1029.0 186.5,1022.7 L237.5,1022.7 Q313.9,1029.0 313.9,1080.0 L313.9,1127.3 L110.1,1127.3 Z" fill="#c49a6c" opacity="0.25"/>
<path d="M189.7,1022.7 L212.0,1054.5 L234.3,1022.7" fill="none" stroke="#c49a6c" stroke-width="1" opacity="0.3"/>
<circle cx="212.0" cy="952.6" r="63.7" fill="#c49a6c" opacity="0.35"/>
<path d="M148.3,965.3 Q157.9,1022.7 212.0,1025.9 Q266.1,1022.7 275.7,965.3" fill="none" stroke="#c49a6c" stroke-width="1.2" opacity="0.3"/>
<path d="M145.1,946.2 Q212.0,869.8 278.9,946.2" fill="none" stroke="#c49a6c" stroke-width="2" opacity="0.4"/>
<ellipse cx="146.3" cy="955.8" rx="2.5" ry="4" fill="#c49a6c" opacity="0.25"/>
<ellipse cx="277.7" cy="955.8" rx="2.5" ry="4" fill="#c49a6c" opacity="0.25"/>
<rect x="35.0" y="815.0" width="133.0" height="40.0" rx="6" fill="white" stroke="#c49a6c" stroke-width="1.0" opacity="0.92"/>
<polygon points="74.9,855.0 82.9,855.0 71.9,863.0" fill="white" stroke="#c49a6c" stroke-width="0.8"/>
<line x1="74.4" y1="855.0" x2="83.4" y2="855.0" stroke="white" stroke-width="1.5"/>
<text x="41.0" y="832.0" font-size="11.0" fill="#c49a6c" font-weight="700">THEODORE</text>
<text x="41.0" y="846.0" font-size="11.0" fill="#333333">Luma. What did this?</text>
<text x="383.0" y="823.0" text-anchor="end" font-size="12" font-weight="bold" fill="#888888" opacity="0.6">4</text>
<text x="389.0" y="1165.0" text-anchor="end" font-size="9" fill="#888888" opacity="0.5">MCU</text>
<rect x="405.0" y="807.0" width="366.0" height="364.0" rx="2" fill="#f5f0e8" stroke="#2a2a2a" stroke-width="1.5"/>
<path d="M529.4,1069.1 L534.8,1022.6 Q540.1,1018.6 571.8,1018.6 L604.2,1018.6 Q635.9,1018.6 641.2,1022.6 L646.6,1069.1 Z" fill="#6a5acd" opacity="0.35"/>
<line x1="534.8" y1="1044.5" x2="641.2" y2="1044.5" stroke="#6a5acd" stroke-width="1" opacity="0.3"/>
<line x1="534.8" y1="1022.6" x2="513.5" y2="1063.5" stroke="#6a5acd" stroke-width="2" opacity="0.3"/>
<line x1="513.5" y1="1063.5" x2="529.4" y2="1088.1" stroke="#6a5acd" stroke-width="2" opacity="0.3"/>
<line x1="641.2" y1="1022.6" x2="662.5" y2="1063.5" stroke="#6a5acd" stroke-width="2" opacity="0.3"/>
<line x1="662.5" y1="1063.5" x2="646.6" y2="1088.1" stroke="#6a5acd" stroke-width="2" opacity="0.3"/>
<line x1="588.0" y1="945.7" x2="588.0" y2="1018.6" stroke="#6a5acd" stroke-width="3" opacity="0.35"/>
<circle cx="588.0" cy="905.3" r="40.5" fill="#6a5acd" opacity="0.4"/>
<rect x="411.0" y="815.0" width="314.5" height="40.0" rx="6" fill="white" stroke="#6a5acd" stroke-width="1.0" opacity="0.92"/>
<polygon points="505.4,855.0 513.4,855.0 502.4,863.0" fill="white" stroke="#6a5acd" stroke-width="0.8"/>
<line x1="504.9" y1="855.0" x2="513.9" y2="855.0" stroke="white" stroke-width="1.5"/>
<text x="417.0" y="832.0" font-size="11.0" fill="#6a5acd" font-weight="700">LUMA</text>
<text x="417.0" y="846.0" font-size="11.0" fill="#333333">We keep moving. The next site is two streets east.</text>
<rect x="504.9" y="865.0" width="260.1" height="40.0" rx="6" fill="white" stroke="#6a5acd" stroke-width="1.0" opacity="0.92"/>
<polygon points="583.0,905.0 591.0,905.0 580.0,913.0" fill="white" stroke="#6a5acd" stroke-width="0.8"/>
<line x1="582.5" y1="905.0" x2="591.5" y2="905.0" stroke="white" stroke-width="1.5"/>
<text x="510.9" y="882.0" font-size="11.0" fill="#6a5acd" font-weight="700">LUMA</text>
<text x="510.9" y="896.0" font-size="11.0" fill="#333333">Stay in the open. Where there are people.</text>
<text x="759.0" y="823.0" text-anchor="end" font-size="12" font-weight="bold" fill="#888888" opacity="0.6">5</text>
<text x="765.0" y="1165.0" text-anchor="end" font-size="9" fill="#888888" opacity="0.5">MW</text>
</svg>