<svg xmlns="http://www.w3.org/2000/svg" viewBox="0 0 800 1200" width="800" height="1200" style="background:#ffffff">
<style>
  text { font-family: "Helvetica Neue", Helvetica, Arial, sans-serif; }
</style>
<text x="400.0" y="22" text-anchor="middle" font-size="16" fill="#888888" font-weight="500">PAGE 13  (4 panels)</text>
<rect x="29.0" y="59.0" width="742.0" height="248.9" rx="2" fill="#f5f0e8" stroke="#2a2a2a" stroke-width="1.5"/>
<line x1="35.0" y1="253.2" x2="765.0" y2="253.2" stroke="#a89888" stroke-width="1.0" opacity="0.5"/>
<ellipse cx="400.0" cy="255.2" rx="11.2" ry="2.7" fill="#a89888" opacity="0.2"/>
<line x1="397.3" y1="237.5" x2="393.3" y2="253.2" stroke="#6a5acd" stroke-width="2" opacity="0.5"/>
<line x1="402.7" y1="237.5" x2="406.7" y2="253.2" stroke="#6a5acd" stroke-width="2" opacity="0.5"/>
<line x1="400.0" y1="224.5" x2="400.0" y2="237.5" stroke="#6a5acd" stroke-width="2.5" opacity="0.6"/>
<line x1="386.6" y1="226.5" x2="413.4" y2="226.5" stroke="#6a5acd" stroke-width="2" opacity="0.5"/>
<line x1="386.6" y1="226.5" x2="382.1" y2="237.9" stroke="#6a5acd" stroke-width="1.5" opacity="0.4"/>
<line x1="413.4" y1="226.5" x2="417.9" y2="237.9" stroke="#6a5acd" stroke-width="1.5" opacity="0.4"/>
<circle cx="400.0" cy="208.4" r="8.1" fill="#6a5acd" opacity="0.6"/>
<rect x="35.0" y="67.0" width="477.9" height="40.0" rx="6" fill="white" stroke="#6a5acd" stroke-width="1.0" opacity="0.92"/>
<polygon points="178.4,107.0 186.4,107.0 175.4,115.0" fill="white" stroke="#6a5acd" stroke-width="0.8"/>
<line x1="177.9" y1="107.0" x2="186.9" y2="107.0" stroke="white" stroke-width="1.5"/>
<text x="41.0" y="84.0" font-size="11.0" fill="#6a5acd" font-weight="700">LUMA</text>
<text x="41.0" y="98.0" font-size="11.0" fill="#333333">Sable. I've reached the lowest level. There are marks in the stone down here.</text>
<rect x="523.1" y="117.0" width="241.9" height="40.0" rx="6" fill="white" stroke="#6a5acd" stroke-width="1.0" opacity="0.92"/>
<polygon points="595.7,157.0 603.7,157.0 592.7,165.0" fill="white" stroke="#6a5acd" stroke-width="0.8"/>
<line x1="595.2" y1="157.0" x2="604.2" y2="157.0" stroke="white" stroke-width="1.5"/>
<text x="529.1" y="134.0" font-size="11.0" fill="#6a5acd" font-weight="700">LUMA</text>
<text x="529.1" y="148.0" font-size="11.0" fill="#333333">They match the profile from the alley.</text>
<text x="759.0" y="75.0" text-anchor="end" font-size="12" font-weight="bold" fill="#888888" opacity="0.6">1</text>
<text x="765.0" y="301.9" text-anchor="end" font-size="9" fill="#888888" opacity="0.5">EST</text>
<rect x="29.0" y="317.9" width="366.0" height="421.5" rx="2" fill="#f5f0e8" stroke="#2a2a2a" stroke-width="1.5"/>
<ellipse cx="212.0" cy="495.0" rx="132.8" ry="189.7" fill="#e8dcc8" opacity="0.18"/>
<path d="M72.6,428.6 Q212.0,276.8 351.4,428.6" fill="none" stroke="#e8dcc8" stroke-width="3" opacity="0.35"/>
<line x1="165.5" y1="453.2" x2="205.4" y2="451.2" stroke="#a89888" stroke-width="1.5" opacity="0.45"/>
<line x1="218.6" y1="451.2" x2="258.5" y2="453.2" stroke="#a89888" stroke-width="1.5" opacity="0.45"/>
<ellipse cx="174.8" cy="472.2" rx="15.9" ry="9.5" fill="#a89888" opacity="0.45"/>
<ellipse cx="249.2" cy="472.2" rx="15.9" ry="9.5" fill="#a89888" opacity="0.45"/>
<line x1="212.0" y1="498.8" x2="212.0" y2="529.1" stroke="#a89888" stroke-width="1.2" opacity="0.35"/>
<path d="M204.0,529.1 Q212.0,532.1 220.0,529.1" fill="none" stroke="#a89888" stroke-width="1" opacity="0.3"/>
<line x1="178.8" y1="555.7" x2="245.2" y2="555.7" stroke="#a89888" stroke-width="1.2" opacity="0.35"/>
<rect x="35.0" y="325.9" width="350.8" height="54.0" rx="6" fill="white" stroke="#e8dcc8" stroke-width="1.0" opacity="0.92"/>
<polygon points="140.2,379.9 148.2,379.9 137.2,387.9" fill="white" stroke="#e8dcc8" stroke-width="0.8"/>
<line x1="139.7" y1="379.9" x2="148.7" y2="379.9" stroke="white" stroke-width="1.5"/>
<text x="41.0" y="342.9" font-size="11.0" fill="#e8dcc8" font-weight="700">CAPTION</text>
<text x="41.0" y="356.9" font-size="11.0" fill="#333333">*&quot;The residue pattern is identical. Same organism class.</text>
<text x="41.0" y="370.9" font-size="11.0" fill="#333333">Same temporal signature.&quot;*</text>
<rect x="213.6" y="389.9" width="175.4" height="40.0" rx="6" fill="white" stroke="#e8dcc8" stroke-width="1.0" opacity="0.92"/>
<polygon points="266.3,429.9 274.3,429.9 263.3,437.9" fill="white" stroke="#e8dcc8" stroke-width="0.8"/>
<line x1="265.8" y1="429.9" x2="274.8" y2="429.9" stroke="white" stroke-width="1.5"/>
<text x="219.6" y="406.9" font-size="11.0" fill="#e8dcc8" font-weight="700">CAPTION</text>
<text x="219.6" y="420.9" font-size="11.0" fill="#333333">*&quot;This was centuries ago.&quot;*</text>
<text x="383.0" y="333.9" text-anchor="end" font-size="12" font-weight="bold" fill="#888888" opacity="0.6">2</text>
<text x="389.0" y="733.5" text-anchor="end" font-size="9" fill="#888888" opacity="0.5">CU</text>
<rect x="405.0" y="317.9" width="366.0" height="421.5" rx="2" fill="#f5f0e8" stroke="#2a2a2a" stroke-width="1.5"/>
<path d="M482.6,618.3 Q482.6,565.6 561.6,559.0 L614.4,559.0 Q693.4,565.6 693.4,618.3 L693.4,688.9 L482.6,688.9 Z" fill="#6a5acd" opacity="0.25"/>
<path d="M564.9,559.0 L588.0,591.9 L611.1,559.0" fill="none" stroke="#6a5acd" stroke-width="1" opacity="0.3"/>
<circle cx="588.0" cy="486.5" r="65.9" fill="#6a5acd" opacity="0.35"/>
<path d="M522.1,499.7 Q532.0,559.0 588.0,562.3 Q644.0,559.0 653.9,499.7" fill="none" stroke="#6a5acd" stroke-width="1.2" opacity="0.3"/>
<path d="M518.8,480.0 Q588.0,400.9 657.2,480.0" fill="none" stroke="#6a5acd" stroke-width="2" opacity="0.4"/>
<ellipse cx="520.1" cy="489.8" rx="2.5" ry="4" fill="#6a5acd" opacity="0.25"/>
<ellipse cx="655.9" cy="489.8" rx="2.5" ry="4" fill="#6a5acd" opacity="0.25"/>
<rect x="411.0" y="325.9" width="338.7" height="40.0" rx="6" fill="white" stroke="#6a5acd" stroke-width="1.0" opacity="0.92"/>
<polygon points="512.6,365.9 520.6,365.9 509.6,373.9" fill="white" stroke="#6a5acd" stroke-width="0.8"/>
<line x1="512.1" y1="365.9" x2="521.1" y2="365.9" stroke="white" stroke-width="1.5"/>
<text x="417.0" y="342.9" font-size="11.0" fill="#6a5acd" font-weight="700">LUMA</text>
<text x="417.0" y="356.9" font-size="11.0" fill="#333333">They were here. In this building. Centuries before us.</text>
<rect x="571.5" y="375.9" width="193.5" height="40.0" rx="6" fill="white" stroke="#b0b0b0" stroke-width="1.0" opacity="0.92"/>
<polygon points="629.5,415.9 637.5,415.9 626.5,423.9" fill="white" stroke="#b0b0b0" stroke-width="0.8"/>
<line x1="629.0" y1="415.9" x2="638.0" y2="415.9" stroke="white" stroke-width="1.5"/>
<text x="577.5" y="392.9" font-size="11.0" fill="#b0b0b0" font-weight="700">SABLE</text>
<text x="577.5" y="406.9" font-size="11.0" fill="#333333">Understood. Continue scanning.</text>
<text x="759.0" y="333.9" text-anchor="end" font-size="12" font-weight="bold" fill="#888888" opacity="0.6">3</text>
<text x="765.0" y="733.5" text-anchor="end" font-size="9" fill="#888888" opacity="0.5">MCU</text>
<rect x="29.0" y="749.5" width="742.0" height="421.5" rx="2" fill="#f5f0e8" stroke="#2a2a2a" stroke-width="1.5"/>
<line x1="35.0" y1="1078.3" x2="765.0" y2="1078.3" stroke="#a89888" stroke-width="1.0" opacity="0.5"/>
<ellipse cx="400.0" cy="1080.3" rx="11.2" ry="2.7" fill="#a89888" opacity="0.2"/>
<line x1="397.3" y1="1062.5" x2="393.2" y2="1078.3" stroke="#6a5acd" stroke-width="2" opacity="0.5"/>
<line x1="402.7" y1="1062.5" x2="406.8" y2="1078.3" stroke="#6a5acd" stroke-width="2" opacity="0.5"/>
<line x1="400.0" y1="1049.5" x2="400.0" y2="1062.5" stroke="#6a5acd" stroke-width="2.5" opacity="0.6"/>
<line x1="386.5" y1="1051.5" x2="413.5" y2="1051.5" stroke="#6a5acd" stroke-width="2" opacity="0.5"/>
<line x1="386.5" y1="1051.5" x2="382.0" y2="1063.0" stroke="#6a5acd" stroke-width="1.5" opacity="0.4"/>
<line x1="413.5" y1="1051.5" x2="418.0" y2="1063.0" stroke="#6a5acd" stroke-width="1.5" opacity="0.4"/>
<circle cx="400.0" cy="1033.3" r="8.1" fill="#6a5acd" opacity="0.6"/>
<rect x="35.0" y="757.5" width="62.0" height="40.0" rx="6" fill="white" stroke="#6a5acd" stroke-width="1.0" opacity="0.92"/>
<polygon points="53.6,797.5 61.6,797.5 50.6,805.5" fill="white" stroke="#6a5acd" stroke-width="0.8"/>
<line x1="53.1" y1="797.5" x2="62.1" y2="797.5" stroke="white" stroke-width="1.5"/>
<text x="41.0" y="774.5" font-size="11.0" fill="#6a5acd" font-weight="700">LUMA</text>
<text x="41.0" y="788.5" font-size="11.0" fill="#333333">...Wait.</text>
<rect x="613.9" y="807.5" width="151.2" height="40.0" rx="6" fill="white" stroke="#6a5acd" stroke-width="1.0" opacity="0.92"/>
<polygon points="659.2,847.5 667.2,847.5 656.2,855.5" fill="white" stroke="#6a5acd" stroke-width="0.8"/>
<line x1="658.7" y1="847.5" x2="667.7" y2="847.5" stroke="white" stroke-width="1.5"/>
<text x="619.9" y="824.5" font-size="11.0" fill="#6a5acd" font-weight="700">LUMA</text>
<text x="619.9" y="838.5" font-size="11.0" fill="#333333">There's something else.</text>
<text x="759.0" y="765.5" text-anchor="end" font-size="12" font-weight="bold" fill="#888888" opacity="0.6">4</text>
<text x="765.0" y="1165.0" text-anchor="end" font-size="9" fill="#888888" opacity="0.5">WIDE</text>
</svg>