<svg xmlns="http://www.w3.org/2000/svg" viewBox="0 0 800 1200" width="800" height="1200" style="background:#ffffff">
<style>
  text { font-family: "Helvetica Neue", Helvetica, Arial, sans-serif; }
</style>
<text x="400.0" y="22" text-anchor="middle" font-size="16" fill="#888888" font-weight="500">PAGE 21  (4 panels)</text>
<rect x="29.0" y="59.0" width="742.0" height="364.0" rx="2" fill="#f5f0e8" stroke="#2a2a2a" stroke-width="1.5"/>
<path d="M341.4,321.1 L346.8,274.6 Q352.1,270.6 383.8,270.6 L416.2,270.6 Q447.9,270.6 453.2,274.6 L458.6,321.1 Z" fill="#c49a6c" opacity="0.35"/>
<line x1="346.8" y1="296.5" x2="453.2" y2="296.5" stroke="#c49a6c" stroke-width="1" opacity="0.3"/>
<line x1="346.8" y1="274.6" x2="325.5" y2="315.5" stroke="#c49a6c" stroke-width="2" opacity="0.3"/>
<line x1="325.5" y1="315.5" x2="341.4" y2="340.1" stroke="#c49a6c" stroke-width="2" opacity="0.3"/>
<line x1="453.2" y1="274.6" x2="474.5" y2="315.5" stroke="#c49a6c" stroke-width="2" opacity="0.3"/>
<line x1="474.5" y1="315.5" x2="458.6" y2="340.1" stroke="#c49a6c" stroke-width="2" opacity="0.3"/>
<line x1="400.0" y1="197.7" x2="400.0" y2="270.6" stroke="#c49a6c" stroke-width="3" opacity="0.35"/>
<circle cx="400.0" cy="157.3" r="40.5" fill="#c49a6c" opacity="0.4"/>
<rect x="35.0" y="67.0" width="241.9" height="40.0" rx="6" fill="white" stroke="#c49a6c" stroke-width="1.0" opacity="0.92"/>
<polygon points="107.6,107.0 115.6,107.0 104.6,115.0" fill="white" stroke="#c49a6c" stroke-width="0.8"/>
<line x1="107.1" y1="107.0" x2="116.1" y2="107.0" stroke="white" stroke-width="1.5"/>
<text x="41.0" y="84.0" font-size="11.0" fill="#c49a6c" font-weight="700">THEODORE</text>
<text x="41.0" y="98.0" font-size="11.0" fill="#333333">You know what they are. The Tall Ones.</text>
<rect x="703.0" y="117.0" width="62.0" height="40.0" rx="6" fill="white" stroke="#6a5acd" stroke-width="1.0" opacity="0.92"/>
<polygon points="721.6,157.0 729.6,157.0 718.6,165.0" fill="white" stroke="#6a5acd" stroke-width="0.8"/>
<line x1="721.1" y1="157.0" x2="730.1" y2="157.0" stroke="white" stroke-width="1.5"/>
<text x="709.0" y="134.0" font-size="11.0" fill="#6a5acd" font-weight="700">LUMA</text>
<text x="709.0" y="148.0" font-size="11.0" fill="#333333">Yes.</text>
<rect x="35.0" y="167.0" width="90.7" height="40.0" rx="6" fill="white" stroke="#c49a6c" stroke-width="1.0" opacity="0.92"/>
<polygon points="62.2,207.0 70.2,207.0 59.2,215.0" fill="white" stroke="#c49a6c" stroke-width="0.8"/>
<line x1="61.7" y1="207.0" x2="70.7" y2="207.0" stroke="white" stroke-width="1.5"/>
<text x="41.0" y="184.0" font-size="11.0" fill="#c49a6c" font-weight="700">THEODORE</text>
<text x="41.0" y="198.0" font-size="11.0" fill="#333333">They're real.</text>
<rect x="480.8" y="217.0" width="284.2" height="40.0" rx="6" fill="white" stroke="#6a5acd" stroke-width="1.0" opacity="0.92"/>
<polygon points="566.0,257.0 574.0,257.0 563.0,265.0" fill="white" stroke="#6a5acd" stroke-width="0.8"/>
<line x1="565.5" y1="257.0" x2="574.5" y2="257.0" stroke="white" stroke-width="1.5"/>
<text x="486.8" y="234.0" font-size="11.0" fill="#6a5acd" font-weight="700">LUMA</text>
<text x="486.8" y="248.0" font-size="11.0" fill="#333333">They've been here a very long time, Theodore.</text>
<text x="759.0" y="75.0" text-anchor="end" font-size="12" font-weight="bold" fill="#888888" opacity="0.6">1</text>
<text x="765.0" y="417.0" text-anchor="end" font-size="9" fill="#888888" opacity="0.5">MED</text>
<rect x="29.0" y="433.0" width="366.0" height="364.0" rx="2" fill="#f5f0e8" stroke="#2a2a2a" stroke-width="1.5"/>
<ellipse cx="212.0" cy="585.9" rx="114.7" ry="163.8" fill="#c49a6c" opacity="0.18"/>
<path d="M91.6,528.5 Q212.0,397.5 332.4,528.5" fill="none" stroke="#c49a6c" stroke-width="3" opacity="0.35"/>
<line x1="171.9" y1="549.8" x2="206.3" y2="547.8" stroke="#a89888" stroke-width="1.5" opacity="0.45"/>
<line x1="217.7" y1="547.8" x2="252.1" y2="549.8" stroke="#a89888" stroke-width="1.5" opacity="0.45"/>
<ellipse cx="179.9" cy="566.2" rx="13.8" ry="8.2" fill="#a89888" opacity="0.45"/>
<ellipse cx="244.1" cy="566.2" rx="13.8" ry="8.2" fill="#a89888" opacity="0.45"/>
<line x1="212.0" y1="589.2" x2="212.0" y2="615.4" stroke="#a89888" stroke-width="1.2" opacity="0.35"/>
<path d="M205.1,615.4 Q212.0,618.4 218.9,615.4" fill="none" stroke="#a89888" stroke-width="1" opacity="0.3"/>
<line x1="183.3" y1="638.3" x2="240.7" y2="638.3" stroke="#a89888" stroke-width="1.2" opacity="0.35"/>
<rect x="35.0" y="441.0" width="354.0" height="54.0" rx="6" fill="white" stroke="#c49a6c" stroke-width="1.0" opacity="0.92"/>
<polygon points="141.2,495.0 149.2,495.0 138.2,503.0" fill="white" stroke="#c49a6c" stroke-width="0.8"/>
<line x1="140.7" y1="495.0" x2="149.7" y2="495.0" stroke="white" stroke-width="1.5"/>
<text x="41.0" y="458.0" font-size="11.0" fill="#c49a6c" font-weight="700">THEODORE</text>
<text x="41.0" y="472.0" font-size="11.0" fill="#333333">Gran always said the Tall Ones didn't like being seen. That</text>
<text x="41.0" y="486.0" font-size="11.0" fill="#333333">they'd follow you, but only if you noticed them first.</text>
<rect x="35.0" y="505.0" width="354.0" height="54.0" rx="6" fill="white" stroke="#c49a6c" stroke-width="1.0" opacity="0.92"/>
<polygon points="141.2,559.0 149.2,559.0 138.2,567.0" fill="white" stroke="#c49a6c" stroke-width="0.8"/>
<line x1="140.7" y1="559.0" x2="149.7" y2="559.0" stroke="white" stroke-width="1.5"/>
<text x="41.0" y="522.0" font-size="11.0" fill="#c49a6c" font-weight="700">THEODORE</text>
<text x="41.0" y="536.0" font-size="11.0" fill="#333333">She said, 'Don't look into the fog, Theodore. The fog looks</text>
<text x="41.0" y="550.0" font-size="11.0" fill="#333333">back.'</text>
<text x="383.0" y="449.0" text-anchor="end" font-size="12" font-weight="bold" fill="#888888" opacity="0.6">2</text>
<text x="389.0" y="791.0" text-anchor="end" font-size="9" fill="#888888" opacity="0.5">CU</text>
<rect x="405.0" y="433.0" width="366.0" height="364.0" rx="2" fill="#f5f0e8" stroke="#2a2a2a" stroke-width="1.5"/>
<path d="M529.4,695.1 L534.8,648.6 Q540.1,644.6 571.8,644.6 L604.2,644.6 Q635.9,644.6 641.2,648.6 L646.6,695.1 Z" fill="#6a5acd" opacity="0.35"/>
<line x1="534.8" y1="670.5" x2="641.2" y2="670.5" stroke="#6a5acd" stroke-width="1" opacity="0.3"/>
<line x1="534.8" y1="648.6" x2="513.5" y2="689.5" stroke="#6a5acd" stroke-width="2" opacity="0.3"/>
<line x1="513.5" y1="689.5" x2="529.4" y2="714.1" stroke="#6a5acd" stroke-width="2" opacity="0.3"/>
<line x1="641.2" y1="648.6" x2="662.5" y2="689.5" stroke="#6a5acd" stroke-width="2" opacity="0.3"/>
<line x1="662.5" y1="689.5" x2="646.6" y2="714.1" stroke="#6a5acd" stroke-width="2" opacity="0.3"/>
<line x1="588.0" y1="571.7" x2="588.0" y2="644.6" stroke="#6a5acd" stroke-width="3" opacity="0.35"/>
<circle cx="588.0" cy="531.3" r="40.5" fill="#6a5acd" opacity="0.4"/>
<rect x="411.0" y="441.0" width="175.4" height="40.0" rx="6" fill="white" stroke="#6a5acd" stroke-width="1.0" opacity="0.92"/>
<polygon points="463.6,481.0 471.6,481.0 460.6,489.0" fill="white" stroke="#6a5acd" stroke-width="0.8"/>
<line x1="463.1" y1="481.0" x2="472.1" y2="481.0" stroke="white" stroke-width="1.5"/>
<text x="417.0" y="458.0" font-size="11.0" fill="#6a5acd" font-weight="700">LUMA</text>
<text x="417.0" y="472.0" font-size="11.0" fill="#333333">We're close. Twenty metres.</text>
<rect x="662.2" y="491.0" width="102.8" height="40.0" rx="6" fill="white" stroke="#c49a6c" stroke-width="1.0" opacity="0.92"/>
<polygon points="693.1,531.0 701.1,531.0 690.1,539.0" fill="white" stroke="#c49a6c" stroke-width="0.8"/>
<line x1="692.6" y1="531.0" x2="701.6" y2="531.0" stroke="white" stroke-width="1.5"/>
<text x="668.2" y="508.0" font-size="11.0" fill="#c49a6c" font-weight="700">THEODORE</text>
<text x="668.2" y="522.0" font-size="11.0" fill="#333333">I know. I know.</text>
<text x="759.0" y="449.0" text-anchor="end" font-size="12" font-weight="bold" fill="#888888" opacity="0.6">3</text>
<text x="765.0" y="791.0" text-anchor="end" font-size="9" fill="#888888" opacity="0.5">MED</text>
<rect x="29.0" y="807.0" width="742.0" height="364.0" rx="2" fill="#f5f0e8" stroke="#2a2a2a" stroke-width="1.5"/>
<line x1="35.0" y1="1090.9" x2="765.0" y2="1090.9" stroke="#a89888" stroke-width="1.0" opacity="0.5"/>
<ellipse cx="276.3" cy="1092.9" rx="11.2" ry="2.7" fill="#a89888" opacity="0.2"/>
<line x1="273.6" y1="1075.2" x2="269.6" y2="1090.9" stroke="#6a5acd" stroke-width="2" opacity="0.5"/>
<line x1="279.0" y1="1075.2" x2="283.1" y2="1090.9" stroke="#6a5acd" stroke-width="2" opacity="0.5"/>
<line x1="276.3" y1="1062.1" x2="276.3" y2="1075.2" stroke="#6a5acd" stroke-width="2.5" opacity="0.6"/>
<line x1="262.8" y1="1064.1" x2="289.8" y2="1064.1" stroke="#6a5acd" stroke-width="2" opacity="0.5"/>
<line x1="262.8" y1="1064.1" x2="258.3" y2="1075.6" stroke="#6a5acd" stroke-width="1.5" opacity="0.4"/>
<line x1="289.8" y1="1064.1" x2="294.3" y2="1075.6" stroke="#6a5acd" stroke-width="1.5" opacity="0.4"/>
<circle cx="276.3" cy="1045.9" r="8.1" fill="#6a5acd" opacity="0.6"/>
<ellipse cx="523.7" cy="1092.9" rx="11.2" ry="2.7" fill="#a89888" opacity="0.2"/>
<line x1="521.0" y1="1075.2" x2="516.9" y2="1090.9" stroke="#c49a6c" stroke-width="2" opacity="0.5"/>
<line x1="526.4" y1="1075.2" x2="530.4" y2="1090.9" stroke="#c49a6c" stroke-width="2" opacity="0.5"/>
<line x1="523.7" y1="1062.1" x2="523.7" y2="1075.2" stroke="#c49a6c" stroke-width="2.5" opacity="0.6"/>
<line x1="510.2" y1="1064.1" x2="537.2" y2="1064.1" stroke="#c49a6c" stroke-width="2" opacity="0.5"/>
<line x1="510.2" y1="1064.1" x2="505.7" y2="1075.6" stroke="#c49a6c" stroke-width="1.5" opacity="0.4"/>
<line x1="537.2" y1="1064.1" x2="541.7" y2="1075.6" stroke="#c49a6c" stroke-width="1.5" opacity="0.4"/>
<circle cx="523.7" cy="1045.9" r="8.1" fill="#c49a6c" opacity="0.6"/>
<rect x="35.0" y="815.0" width="133.0" height="40.0" rx="6" fill="white" stroke="#6a5acd" stroke-width="1.0" opacity="0.92"/>
<polygon points="74.9,855.0 82.9,855.0 71.9,863.0" fill="white" stroke="#6a5acd" stroke-width="0.8"/>
<line x1="74.4" y1="855.0" x2="83.4" y2="855.0" stroke="white" stroke-width="1.5"/>
<text x="41.0" y="832.0" font-size="11.0" fill="#6a5acd" font-weight="700">LUMA</text>
<text x="41.0" y="846.0" font-size="11.0" fill="#333333">Go inside, Theodore.</text>
<rect x="668.3" y="865.0" width="96.7" height="40.0" rx="6" fill="white" stroke="#c49a6c" stroke-width="1.0" opacity="0.92"/>
<polygon points="697.3,905.0 705.3,905.0 694.3,913.0" fill="white" stroke="#c49a6c" stroke-width="0.8"/>
<line x1="696.8" y1="905.0" x2="705.8" y2="905.0" stroke="white" stroke-width="1.5"/>
<text x="674.3" y="882.0" font-size="11.0" fill="#c49a6c" font-weight="700">THEODORE</text>
<text x="674.3" y="896.0" font-size="11.0" fill="#333333">...Yes. Right.</text>
<text x="759.0" y="823.0" text-anchor="end" font-size="12" font-weight="bold" fill="#888888" opacity="0.6">4</text>
<text x="765.0" y="1165.0" text-anchor="end" font-size="9" fill="#888888" opacity="0.5">WIDE</text>
</svg>