<svg xmlns="http://www.w3.org/2000/svg" viewBox="0 0 800 1200" width="800" height="1200" style="background:#ffffff">
<style>
  text { font-family: "Helvetica Neue", Helvetica, Arial, sans-serif; }
</style>
<text x="400.0" y="22" text-anchor="middle" font-size="16" fill="#888888" font-weight="500">PAGE 20  (4 panels)</text>
<rect x="29.0" y="59.0" width="742.0" height="248.9" rx="2" fill="#f5f0e8" stroke="#2a2a2a" stroke-width="1.5"/>
<line x1="35.0" y1="253.2" x2="765.0" y2="253.2" stroke="#a89888" stroke-width="1.0" opacity="0.5"/>
<ellipse cx="276.3" cy="255.2" rx="11.2" ry="2.7" fill="#a89888" opacity="0.2"/>
<line x1="273.6" y1="237.5" x2="269.6" y2="253.2" stroke="#c49a6c" stroke-width="2" opacity="0.5"/>
<line x1="279.0" y1="237.5" x2="283.1" y2="253.2" stroke="#c49a6c" stroke-width="2" opacity="0.5"/>
<line x1="276.3" y1="224.5" x2="276.3" y2="237.5" stroke="#c49a6c" stroke-width="2.5" opacity="0.6"/>
<line x1="262.9" y1="226.5" x2="289.8" y2="226.5" stroke="#c49a6c" stroke-width="2" opacity="0.5"/>
<line x1="262.9" y1="226.5" x2="258.4" y2="237.9" stroke="#c49a6c" stroke-width="1.5" opacity="0.4"/>
<line x1="289.8" y1="226.5" x2="294.3" y2="237.9" stroke="#c49a6c" stroke-width="1.5" opacity="0.4"/>
<circle cx="276.3" cy="208.4" r="8.1" fill="#c49a6c" opacity="0.6"/>
<ellipse cx="523.7" cy="255.2" rx="11.2" ry="2.7" fill="#a89888" opacity="0.2"/>
<line x1="521.0" y1="237.5" x2="516.9" y2="253.2" stroke="#6a5acd" stroke-width="2" opacity="0.5"/>
<line x1="526.4" y1="237.5" x2="530.4" y2="253.2" stroke="#6a5acd" stroke-width="2" opacity="0.5"/>
<line x1="523.7" y1="224.5" x2="523.7" y2="237.5" stroke="#6a5acd" stroke-width="2.5" opacity="0.6"/>
<line x1="510.2" y1="226.5" x2="537.1" y2="226.5" stroke="#6a5acd" stroke-width="2" opacity="0.5"/>
<line x1="510.2" y1="226.5" x2="505.7" y2="237.9" stroke="#6a5acd" stroke-width="1.5" opacity="0.4"/>
<line x1="537.1" y1="226.5" x2="541.6" y2="237.9" stroke="#6a5acd" stroke-width="1.5" opacity="0.4"/>
<circle cx="523.7" cy="208.4" r="8.1" fill="#6a5acd" opacity="0.6"/>
<rect x="35.0" y="67.0" width="477.9" height="40.0" rx="6" fill="white" stroke="#c49a6c" stroke-width="1.0" opacity="0.92"/>
<polygon points="178.4,107.0 186.4,107.0 175.4,115.0" fill="white" stroke="#c49a6c" stroke-width="0.8"/>
<line x1="177.9" y1="107.0" x2="186.9" y2="107.0" stroke="white" stroke-width="1.5"/>
<text x="41.0" y="84.0" font-size="11.0" fill="#c49a6c" font-weight="700">THEODORE</text>
<text x="41.0" y="98.0" font-size="11.0" fill="#333333">This fog'll hold till morning. It gets thick like this when the river's warm.</text>
<rect x="529.1" y="117.0" width="235.9" height="40.0" rx="6" fill="white" stroke="#6a5acd" stroke-width="1.0" opacity="0.92"/>
<polygon points="599.9,157.0 607.9,157.0 596.9,165.0" fill="white" stroke="#6a5acd" stroke-width="0.8"/>
<line x1="599.4" y1="157.0" x2="608.4" y2="157.0" stroke="white" stroke-width="1.5"/>
<text x="535.1" y="134.0" font-size="11.0" fill="#6a5acd" font-weight="700">LUMA</text>
<text x="535.1" y="148.0" font-size="11.0" fill="#333333">Visibility at four metres. Declining.</text>
<text x="759.0" y="75.0" text-anchor="end" font-size="12" font-weight="bold" fill="#888888" opacity="0.6">1</text>
<text x="765.0" y="301.9" text-anchor="end" font-size="9" fill="#888888" opacity="0.5">EST</text>
<rect x="29.0" y="317.9" width="366.0" height="421.5" rx="2" fill="#f5f0e8" stroke="#2a2a2a" stroke-width="1.5"/>
<path d="M144.2,621.4 L150.3,566.9 Q156.5,562.9 193.3,562.9 L230.7,562.9 Q267.5,562.9 273.6,566.9 L279.8,621.4 Z" fill="#c49a6c" opacity="0.35"/>
<line x1="150.3" y1="593.0" x2="273.6" y2="593.0" stroke="#c49a6c" stroke-width="1" opacity="0.3"/>
<line x1="150.3" y1="566.9" x2="125.7" y2="614.4" stroke="#c49a6c" stroke-width="2" opacity="0.3"/>
<line x1="125.7" y1="614.4" x2="144.2" y2="642.8" stroke="#c49a6c" stroke-width="2" opacity="0.3"/>
<line x1="273.6" y1="566.9" x2="298.3" y2="614.4" stroke="#c49a6c" stroke-width="2" opacity="0.3"/>
<line x1="298.3" y1="614.4" x2="279.8" y2="642.8" stroke="#c49a6c" stroke-width="2" opacity="0.3"/>
<line x1="212.0" y1="478.6" x2="212.0" y2="562.9" stroke="#c49a6c" stroke-width="3" opacity="0.35"/>
<circle cx="212.0" cy="431.7" r="46.9" fill="#c49a6c" opacity="0.4"/>
<rect x="35.0" y="325.9" width="229.8" height="40.0" rx="6" fill="white" stroke="#c49a6c" stroke-width="1.0" opacity="0.92"/>
<polygon points="103.9,365.9 111.9,365.9 100.9,373.9" fill="white" stroke="#c49a6c" stroke-width="0.8"/>
<line x1="103.4" y1="365.9" x2="112.4" y2="365.9" stroke="white" stroke-width="1.5"/>
<text x="41.0" y="342.9" font-size="11.0" fill="#c49a6c" font-weight="700">THEODORE</text>
<text x="41.0" y="356.9" font-size="11.0" fill="#333333">Miss Luma, may I tell you something?</text>
<rect x="316.5" y="375.9" width="72.5" height="40.0" rx="6" fill="white" stroke="#6a5acd" stroke-width="1.0" opacity="0.92"/>
<polygon points="338.2,415.9 346.2,415.9 335.2,423.9" fill="white" stroke="#6a5acd" stroke-width="0.8"/>
<line x1="337.8" y1="415.9" x2="346.8" y2="415.9" stroke="white" stroke-width="1.5"/>
<text x="322.5" y="392.9" font-size="11.0" fill="#6a5acd" font-weight="700">LUMA</text>
<text x="322.5" y="406.9" font-size="11.0" fill="#333333">Of course.</text>
<text x="383.0" y="333.9" text-anchor="end" font-size="12" font-weight="bold" fill="#888888" opacity="0.6">2</text>
<text x="389.0" y="733.5" text-anchor="end" font-size="9" fill="#888888" opacity="0.5">MED</text>
<rect x="405.0" y="317.9" width="366.0" height="421.5" rx="2" fill="#f5f0e8" stroke="#2a2a2a" stroke-width="1.5"/>
<ellipse cx="588.0" cy="495.0" rx="132.8" ry="189.7" fill="#c49a6c" opacity="0.18"/>
<path d="M448.6,428.6 Q588.0,276.8 727.4,428.6" fill="none" stroke="#c49a6c" stroke-width="3" opacity="0.35"/>
<line x1="541.5" y1="453.2" x2="581.4" y2="451.2" stroke="#a89888" stroke-width="1.5" opacity="0.45"/>
<line x1="594.6" y1="451.2" x2="634.5" y2="453.2" stroke="#a89888" stroke-width="1.5" opacity="0.45"/>
<ellipse cx="550.8" cy="472.2" rx="15.9" ry="9.5" fill="#a89888" opacity="0.45"/>
<ellipse cx="625.2" cy="472.2" rx="15.9" ry="9.5" fill="#a89888" opacity="0.45"/>
<line x1="588.0" y1="498.8" x2="588.0" y2="529.1" stroke="#a89888" stroke-width="1.2" opacity="0.35"/>
<path d="M580.0,529.1 Q588.0,532.1 596.0,529.1" fill="none" stroke="#a89888" stroke-width="1" opacity="0.3"/>
<line x1="554.8" y1="555.7" x2="621.2" y2="555.7" stroke="#a89888" stroke-width="1.2" opacity="0.35"/>
<rect x="411.0" y="325.9" width="354.0" height="54.0" rx="6" fill="white" stroke="#c49a6c" stroke-width="1.0" opacity="0.92"/>
<polygon points="517.2,379.9 525.2,379.9 514.2,387.9" fill="white" stroke="#c49a6c" stroke-width="0.8"/>
<line x1="516.7" y1="379.9" x2="525.7" y2="379.9" stroke="white" stroke-width="1.5"/>
<text x="417.0" y="342.9" font-size="11.0" fill="#c49a6c" font-weight="700">THEODORE</text>
<text x="417.0" y="356.9" font-size="11.0" fill="#333333">When I was small — smaller, I mean — my gran would tell us</text>
<text x="417.0" y="370.9" font-size="11.0" fill="#333333">stories about this neighborhood.</text>
<rect x="547.3" y="389.9" width="217.7" height="40.0" rx="6" fill="white" stroke="#c49a6c" stroke-width="1.0" opacity="0.92"/>
<polygon points="612.6,429.9 620.6,429.9 609.6,437.9" fill="white" stroke="#c49a6c" stroke-width="0.8"/>
<line x1="612.1" y1="429.9" x2="621.1" y2="429.9" stroke="white" stroke-width="1.5"/>
<text x="553.3" y="406.9" font-size="11.0" fill="#c49a6c" font-weight="700">THEODORE</text>
<text x="553.3" y="420.9" font-size="11.0" fill="#333333">Not fairy stories. Different ones.</text>
<text x="759.0" y="333.9" text-anchor="end" font-size="12" font-weight="bold" fill="#888888" opacity="0.6">3</text>
<text x="765.0" y="733.5" text-anchor="end" font-size="9" fill="#888888" opacity="0.5">CU</text>
<rect x="29.0" y="749.5" width="742.0" height="421.5" rx="2" fill="#f5f0e8" stroke="#2a2a2a" stroke-width="1.5"/>
<path d="M332.2,1053.0 L338.4,998.5 Q344.5,994.5 381.3,994.5 L418.7,994.5 Q455.5,994.5 461.6,998.5 L467.8,1053.0 Z" fill="#c49a6c" opacity="0.35"/>
<line x1="338.4" y1="1024.5" x2="461.6" y2="1024.5" stroke="#c49a6c" stroke-width="1" opacity="0.3"/>
<line x1="338.4" y1="998.5" x2="313.7" y2="1045.9" stroke="#c49a6c" stroke-width="2" opacity="0.3"/>
<line x1="313.7" y1="1045.9" x2="332.2" y2="1074.3" stroke="#c49a6c" stroke-width="2" opacity="0.3"/>
<line x1="461.6" y1="998.5" x2="486.3" y2="1045.9" stroke="#c49a6c" stroke-width="2" opacity="0.3"/>
<line x1="486.3" y1="1045.9" x2="467.8" y2="1074.3" stroke="#c49a6c" stroke-width="2" opacity="0.3"/>
<line x1="400.0" y1="910.1" x2="400.0" y2="994.5" stroke="#c49a6c" stroke-width="3" opacity="0.35"/>
<circle cx="400.0" cy="863.3" r="46.9" fill="#c49a6c" opacity="0.4"/>
<rect x="35.0" y="757.5" width="730.0" height="54.0" rx="6" fill="white" stroke="#c49a6c" stroke-width="1.0" opacity="0.92"/>
<polygon points="254.0,811.5 262.0,811.5 251.0,819.5" fill="white" stroke="#c49a6c" stroke-width="0.8"/>
<line x1="253.5" y1="811.5" x2="262.5" y2="811.5" stroke="white" stroke-width="1.5"/>
<text x="41.0" y="774.5" font-size="11.0" fill="#c49a6c" font-weight="700">THEODORE</text>
<text x="41.0" y="788.5" font-size="11.0" fill="#333333">She called them the Tall Ones. Figures in the fog. Too tall, she said. Too still. Shadows that followed you home and stood</text>
<text x="41.0" y="802.5" font-size="11.0" fill="#333333">outside your window.</text>
<rect x="35.0" y="821.5" width="730.0" height="40.0" rx="6" fill="white" stroke="#c49a6c" stroke-width="1.0" opacity="0.92"/>
<polygon points="254.0,861.5 262.0,861.5 251.0,869.5" fill="white" stroke="#c49a6c" stroke-width="0.8"/>
<line x1="253.5" y1="861.5" x2="262.5" y2="861.5" stroke="white" stroke-width="1.5"/>
<text x="41.0" y="838.5" font-size="11.0" fill="#c49a6c" font-weight="700">THEODORE</text>
<text x="41.0" y="852.5" font-size="11.0" fill="#333333">She said her mother told her, and her mother before that. They've always been part of this neighborhood. Part of the knowing.</text>
<text x="759.0" y="765.5" text-anchor="end" font-size="12" font-weight="bold" fill="#888888" opacity="0.6">4</text>
<text x="765.0" y="1165.0" text-anchor="end" font-size="9" fill="#888888" opacity="0.5">MW</text>
</svg>