<svg xmlns="http://www.w3.org/2000/svg" viewBox="0 0 800 1200" width="800" height="1200" style="background:#ffffff">
<style>
  text { font-family: "Helvetica Neue", Helvetica, Arial, sans-serif; }
</style>
<text x="400.0" y="22" text-anchor="middle" font-size="16" fill="#888888" font-weight="500">PAGE 3  (4 panels)</text>
<rect x="29.0" y="59.0" width="366.0" height="551.0" rx="2" fill="#f5f0e8" stroke="#2a2a2a" stroke-width="1.5"/>
<path d="M106.6,411.2 Q106.6,358.5 185.6,351.9 L238.4,351.9 Q317.4,358.5 317.4,411.2 L317.4,543.9 L106.6,543.9 Z" fill="#b0b0b0" opacity="0.25"/>
<path d="M188.9,351.9 L212.0,384.8 L235.1,351.9" fill="none" stroke="#b0b0b0" stroke-width="1" opacity="0.3"/>
<circle cx="212.0" cy="279.4" r="65.9" fill="#b0b0b0" opacity="0.35"/>
<path d="M146.1,292.6 Q156.0,351.9 212.0,355.2 Q268.0,351.9 277.9,292.6" fill="none" stroke="#b0b0b0" stroke-width="1.2" opacity="0.3"/>
<path d="M142.8,272.8 Q212.0,193.8 281.2,272.8" fill="none" stroke="#b0b0b0" stroke-width="2" opacity="0.4"/>
<ellipse cx="144.1" cy="282.7" rx="2.5" ry="4" fill="#b0b0b0" opacity="0.25"/>
<ellipse cx="279.9" cy="282.7" rx="2.5" ry="4" fill="#b0b0b0" opacity="0.25"/>
<rect x="35.0" y="67.0" width="354.0" height="82.0" rx="6" fill="white" stroke="#b0b0b0" stroke-width="1.0" opacity="0.92"/>
<polygon points="141.2,149.0 149.2,149.0 138.2,157.0" fill="white" stroke="#b0b0b0" stroke-width="0.8"/>
<line x1="140.7" y1="149.0" x2="149.7" y2="149.0" stroke="white" stroke-width="1.5"/>
<text x="41.0" y="84.0" font-size="11.0" fill="#b0b0b0" font-weight="700">SABLE</text>
<text x="41.0" y="98.0" font-size="11.0" fill="#333333">Pocket carry. No separation from Theodore at any point.</text>
<text x="41.0" y="112.0" font-size="11.0" fill="#333333">Comms open. If your scanner picks up anything active, you</text>
<text x="41.0" y="126.0" font-size="11.0" fill="#333333">extract. No investigation, no engagement. You map and you</text>
<text x="41.0" y="140.0" font-size="11.0" fill="#333333">leave.</text>
<text x="383.0" y="75.0" text-anchor="end" font-size="12" font-weight="bold" fill="#888888" opacity="0.6">1</text>
<text x="389.0" y="604.0" text-anchor="end" font-size="9" fill="#888888" opacity="0.5">MCU</text>
<rect x="405.0" y="59.0" width="366.0" height="551.0" rx="2" fill="#f5f0e8" stroke="#2a2a2a" stroke-width="1.5"/>
<ellipse cx="588.0" cy="290.4" rx="146.4" ry="248.0" fill="#6a5acd" opacity="0.18"/>
<path d="M434.3,203.6 Q588.0,5.3 741.7,203.6" fill="none" stroke="#6a5acd" stroke-width="3" opacity="0.35"/>
<line x1="536.8" y1="235.9" x2="580.7" y2="233.9" stroke="#a89888" stroke-width="1.5" opacity="0.45"/>
<line x1="595.3" y1="233.9" x2="639.2" y2="235.9" stroke="#a89888" stroke-width="1.5" opacity="0.45"/>
<ellipse cx="547.0" cy="260.7" rx="17.6" ry="12.4" fill="#a89888" opacity="0.45"/>
<ellipse cx="629.0" cy="260.7" rx="17.6" ry="12.4" fill="#a89888" opacity="0.45"/>
<line x1="588.0" y1="295.4" x2="588.0" y2="335.1" stroke="#a89888" stroke-width="1.2" opacity="0.35"/>
<path d="M579.2,335.1 Q588.0,338.1 596.8,335.1" fill="none" stroke="#a89888" stroke-width="1" opacity="0.3"/>
<line x1="551.4" y1="369.8" x2="624.6" y2="369.8" stroke="#a89888" stroke-width="1.2" opacity="0.35"/>
<rect x="411.0" y="67.0" width="354.0" height="40.0" rx="6" fill="white" stroke="#6a5acd" stroke-width="1.0" opacity="0.92"/>
<polygon points="517.2,107.0 525.2,107.0 514.2,115.0" fill="white" stroke="#6a5acd" stroke-width="0.8"/>
<line x1="516.7" y1="107.0" x2="525.7" y2="107.0" stroke="white" stroke-width="1.5"/>
<text x="417.0" y="84.0" font-size="11.0" fill="#6a5acd" font-weight="700">LUMA</text>
<text x="417.0" y="98.0" font-size="11.0" fill="#333333">Understood. I'll send Theodore the rendezvous coordinates.</text>
<text x="759.0" y="75.0" text-anchor="end" font-size="12" font-weight="bold" fill="#888888" opacity="0.6">2</text>
<text x="765.0" y="604.0" text-anchor="end" font-size="9" fill="#888888" opacity="0.5">CU</text>
<rect x="29.0" y="620.0" width="493.8" height="551.0" rx="2" fill="#f5f0e8" stroke="#2a2a2a" stroke-width="1.5"/>
<line x1="35.0" y1="1049.8" x2="516.8" y2="1049.8" stroke="#a89888" stroke-width="1.0" opacity="0.5"/>
<ellipse cx="193.6" cy="1051.8" rx="11.2" ry="2.7" fill="#a89888" opacity="0.2"/>
<line x1="190.9" y1="1034.0" x2="186.9" y2="1049.8" stroke="#2e8b57" stroke-width="2" opacity="0.5"/>
<line x1="196.3" y1="1034.0" x2="200.4" y2="1049.8" stroke="#2e8b57" stroke-width="2" opacity="0.5"/>
<line x1="193.6" y1="1021.0" x2="193.6" y2="1034.0" stroke="#2e8b57" stroke-width="2.5" opacity="0.6"/>
<line x1="180.1" y1="1023.0" x2="207.1" y2="1023.0" stroke="#2e8b57" stroke-width="2" opacity="0.5"/>
<line x1="180.1" y1="1023.0" x2="175.6" y2="1034.5" stroke="#2e8b57" stroke-width="1.5" opacity="0.4"/>
<line x1="207.1" y1="1023.0" x2="211.6" y2="1034.5" stroke="#2e8b57" stroke-width="1.5" opacity="0.4"/>
<circle cx="193.6" cy="1004.8" r="8.1" fill="#2e8b57" opacity="0.6"/>
<ellipse cx="358.2" cy="1051.8" rx="11.2" ry="2.7" fill="#a89888" opacity="0.2"/>
<line x1="355.5" y1="1034.0" x2="351.5" y2="1049.8" stroke="#b0b0b0" stroke-width="2" opacity="0.5"/>
<line x1="360.9" y1="1034.0" x2="365.0" y2="1049.8" stroke="#b0b0b0" stroke-width="2" opacity="0.5"/>
<line x1="358.2" y1="1021.0" x2="358.2" y2="1034.0" stroke="#b0b0b0" stroke-width="2.5" opacity="0.6"/>
<line x1="344.7" y1="1023.0" x2="371.7" y2="1023.0" stroke="#b0b0b0" stroke-width="2" opacity="0.5"/>
<line x1="344.7" y1="1023.0" x2="340.2" y2="1034.5" stroke="#b0b0b0" stroke-width="1.5" opacity="0.4"/>
<line x1="371.7" y1="1023.0" x2="376.2" y2="1034.5" stroke="#b0b0b0" stroke-width="1.5" opacity="0.4"/>
<circle cx="358.2" cy="1004.8" r="8.1" fill="#b0b0b0" opacity="0.6"/>
<rect x="35.0" y="628.0" width="338.7" height="40.0" rx="6" fill="white" stroke="#2e8b57" stroke-width="1.0" opacity="0.92"/>
<polygon points="136.6,668.0 144.6,668.0 133.6,676.0" fill="white" stroke="#2e8b57" stroke-width="0.8"/>
<line x1="136.1" y1="668.0" x2="145.1" y2="668.0" stroke="white" stroke-width="1.5"/>
<text x="41.0" y="645.0" font-size="11.0" fill="#2e8b57" font-weight="700">JINK</text>
<text x="41.0" y="659.0" font-size="11.0" fill="#333333">I could fly escort. Faster than pocket-riding a giant.</text>
<rect x="166.0" y="678.0" width="350.8" height="40.0" rx="6" fill="white" stroke="#b0b0b0" stroke-width="1.0" opacity="0.92"/>
<polygon points="271.3,718.0 279.3,718.0 268.3,726.0" fill="white" stroke="#b0b0b0" stroke-width="0.8"/>
<line x1="270.8" y1="718.0" x2="279.8" y2="718.0" stroke="white" stroke-width="1.5"/>
<text x="172.0" y="695.0" font-size="11.0" fill="#b0b0b0" font-weight="700">SABLE</text>
<text x="172.0" y="709.0" font-size="11.0" fill="#333333">No. Luma and Theodore. Two assets, one exposure profile.</text>
<rect x="35.0" y="728.0" width="260.1" height="40.0" rx="6" fill="white" stroke="#2e8b57" stroke-width="1.0" opacity="0.92"/>
<polygon points="113.0,768.0 121.0,768.0 110.0,776.0" fill="white" stroke="#2e8b57" stroke-width="0.8"/>
<line x1="112.5" y1="768.0" x2="121.5" y2="768.0" stroke="white" stroke-width="1.5"/>
<text x="41.0" y="745.0" font-size="11.0" fill="#2e8b57" font-weight="700">JINK</text>
<text x="41.0" y="759.0" font-size="11.0" fill="#333333">Right. Stand down and wait. My specialty.</text>
<text x="510.8" y="636.0" text-anchor="end" font-size="12" font-weight="bold" fill="#888888" opacity="0.6">3</text>
<text x="516.8" y="1165.0" text-anchor="end" font-size="9" fill="#888888" opacity="0.5">WIDE</text>
<rect x="532.8" y="620.0" width="238.2" height="551.0" rx="2" fill="#f5f0e8" stroke="#2a2a2a" stroke-width="1.5"/>
<ellipse cx="651.9" cy="851.4" rx="95.3" ry="248.0" fill="#c0b8a8" opacity="0.18"/>
<path d="M551.9,764.6 Q651.9,566.3 751.9,764.6" fill="none" stroke="#c0b8a8" stroke-width="3" opacity="0.35"/>
<line x1="618.6" y1="796.9" x2="647.2" y2="794.9" stroke="#a89888" stroke-width="1.5" opacity="0.45"/>
<line x1="656.7" y1="794.9" x2="685.3" y2="796.9" stroke="#a89888" stroke-width="1.5" opacity="0.45"/>
<ellipse cx="625.2" cy="821.7" rx="11.4" ry="12.4" fill="#a89888" opacity="0.45"/>
<ellipse cx="678.6" cy="821.7" rx="11.4" ry="12.4" fill="#a89888" opacity="0.45"/>
<line x1="651.9" y1="856.4" x2="651.9" y2="896.1" stroke="#a89888" stroke-width="1.2" opacity="0.35"/>
<path d="M646.2,896.1 Q651.9,899.1 657.6,896.1" fill="none" stroke="#a89888" stroke-width="1" opacity="0.3"/>
<line x1="628.1" y1="930.8" x2="675.7" y2="930.8" stroke="#a89888" stroke-width="1.2" opacity="0.35"/>
<text x="759.0" y="636.0" text-anchor="end" font-size="12" font-weight="bold" fill="#888888" opacity="0.6">4</text>
<text x="765.0" y="1165.0" text-anchor="end" font-size="9" fill="#888888" opacity="0.5">CU</text>
</svg>