<svg xmlns="http://www.w3.org/2000/svg" viewBox="0 0 800 1200" width="800" height="1200" style="background:#ffffff">
<style>
  text { font-family: "Helvetica Neue", Helvetica, Arial, sans-serif; }
</style>
<text x="400.0" y="22" text-anchor="middle" font-size="16" fill="#888888" font-weight="500">PAGE 10  (4 panels)</text>
<rect x="29.0" y="59.0" width="742.0" height="421.5" rx="2" fill="#f5f0e8" stroke="#2a2a2a" stroke-width="1.5"/>
<path d="M332.2,362.5 L338.4,308.0 Q344.5,304.0 381.3,304.0 L418.7,304.0 Q455.5,304.0 461.6,308.0 L467.8,362.5 Z" fill="#6a5acd" opacity="0.35"/>
<line x1="338.4" y1="334.1" x2="461.6" y2="334.1" stroke="#6a5acd" stroke-width="1" opacity="0.3"/>
<line x1="338.4" y1="308.0" x2="313.7" y2="355.4" stroke="#6a5acd" stroke-width="2" opacity="0.3"/>
<line x1="313.7" y1="355.4" x2="332.2" y2="383.9" stroke="#6a5acd" stroke-width="2" opacity="0.3"/>
<line x1="461.6" y1="308.0" x2="486.3" y2="355.4" stroke="#6a5acd" stroke-width="2" opacity="0.3"/>
<line x1="486.3" y1="355.4" x2="467.8" y2="383.9" stroke="#6a5acd" stroke-width="2" opacity="0.3"/>
<line x1="400.0" y1="219.7" x2="400.0" y2="304.0" stroke="#6a5acd" stroke-width="3" opacity="0.35"/>
<circle cx="400.0" cy="172.8" r="46.9" fill="#6a5acd" opacity="0.4"/>
<rect x="35.0" y="67.0" width="296.4" height="40.0" rx="6" fill="white" stroke="#6a5acd" stroke-width="1.0" opacity="0.92"/>
<polygon points="123.9,107.0 131.9,107.0 120.9,115.0" fill="white" stroke="#6a5acd" stroke-width="0.8"/>
<line x1="123.4" y1="107.0" x2="132.4" y2="107.0" stroke="white" stroke-width="1.5"/>
<text x="41.0" y="84.0" font-size="11.0" fill="#6a5acd" font-weight="700">LUMA</text>
<text x="41.0" y="98.0" font-size="11.0" fill="#333333">Steady. The basement steps are ten paces ahead.</text>
<text x="759.0" y="75.0" text-anchor="end" font-size="12" font-weight="bold" fill="#888888" opacity="0.6">1</text>
<text x="765.0" y="474.5" text-anchor="end" font-size="9" fill="#888888" opacity="0.5">MW</text>
<rect x="29.0" y="490.5" width="742.0" height="248.9" rx="2" fill="#f5f0e8" stroke="#2a2a2a" stroke-width="1.5"/>
<line x1="35.0" y1="684.7" x2="765.0" y2="684.7" stroke="#a89888" stroke-width="1.0" opacity="0.5"/>
<ellipse cx="214.5" cy="686.7" rx="11.2" ry="2.7" fill="#a89888" opacity="0.2"/>
<line x1="211.8" y1="669.0" x2="207.8" y2="684.7" stroke="#c0b8a8" stroke-width="2" opacity="0.5"/>
<line x1="217.2" y1="669.0" x2="221.2" y2="684.7" stroke="#c0b8a8" stroke-width="2" opacity="0.5"/>
<line x1="214.5" y1="656.0" x2="214.5" y2="669.0" stroke="#c0b8a8" stroke-width="2.5" opacity="0.6"/>
<line x1="201.1" y1="658.0" x2="227.9" y2="658.0" stroke="#c0b8a8" stroke-width="2" opacity="0.5"/>
<line x1="201.1" y1="658.0" x2="196.6" y2="669.5" stroke="#c0b8a8" stroke-width="1.5" opacity="0.4"/>
<line x1="227.9" y1="658.0" x2="232.4" y2="669.5" stroke="#c0b8a8" stroke-width="1.5" opacity="0.4"/>
<circle cx="214.5" cy="639.9" r="8.1" fill="#c0b8a8" opacity="0.6"/>
<ellipse cx="400.0" cy="686.7" rx="11.2" ry="2.7" fill="#a89888" opacity="0.2"/>
<line x1="397.3" y1="669.0" x2="393.3" y2="684.7" stroke="#c0b8a8" stroke-width="2" opacity="0.5"/>
<line x1="402.7" y1="669.0" x2="406.7" y2="684.7" stroke="#c0b8a8" stroke-width="2" opacity="0.5"/>
<line x1="400.0" y1="656.0" x2="400.0" y2="669.0" stroke="#c0b8a8" stroke-width="2.5" opacity="0.6"/>
<line x1="386.6" y1="658.0" x2="413.4" y2="658.0" stroke="#c0b8a8" stroke-width="2" opacity="0.5"/>
<line x1="386.6" y1="658.0" x2="382.1" y2="669.5" stroke="#c0b8a8" stroke-width="1.5" opacity="0.4"/>
<line x1="413.4" y1="658.0" x2="417.9" y2="669.5" stroke="#c0b8a8" stroke-width="1.5" opacity="0.4"/>
<circle cx="400.0" cy="639.9" r="8.1" fill="#c0b8a8" opacity="0.6"/>
<ellipse cx="585.5" cy="686.7" rx="11.2" ry="2.7" fill="#a89888" opacity="0.2"/>
<line x1="582.8" y1="669.0" x2="578.8" y2="684.7" stroke="#c0b8a8" stroke-width="2" opacity="0.5"/>
<line x1="588.2" y1="669.0" x2="592.2" y2="684.7" stroke="#c0b8a8" stroke-width="2" opacity="0.5"/>
<line x1="585.5" y1="656.0" x2="585.5" y2="669.0" stroke="#c0b8a8" stroke-width="2.5" opacity="0.6"/>
<line x1="572.1" y1="658.0" x2="598.9" y2="658.0" stroke="#c0b8a8" stroke-width="2" opacity="0.5"/>
<line x1="572.1" y1="658.0" x2="567.6" y2="669.5" stroke="#c0b8a8" stroke-width="1.5" opacity="0.4"/>
<line x1="598.9" y1="658.0" x2="603.4" y2="669.5" stroke="#c0b8a8" stroke-width="1.5" opacity="0.4"/>
<circle cx="585.5" cy="639.9" r="8.1" fill="#c0b8a8" opacity="0.6"/>
<text x="759.0" y="506.5" text-anchor="end" font-size="12" font-weight="bold" fill="#888888" opacity="0.6">2</text>
<text x="765.0" y="733.5" text-anchor="end" font-size="9" fill="#888888" opacity="0.5">WIDE</text>
<rect x="29.0" y="749.5" width="366.0" height="421.5" rx="2" fill="#f5f0e8" stroke="#2a2a2a" stroke-width="1.5"/>
<path d="M144.2,1053.0 L150.3,998.5 Q156.5,994.5 193.3,994.5 L230.7,994.5 Q267.5,994.5 273.6,998.5 L279.8,1053.0 Z" fill="#c49a6c" opacity="0.35"/>
<line x1="150.3" y1="1024.5" x2="273.6" y2="1024.5" stroke="#c49a6c" stroke-width="1" opacity="0.3"/>
<line x1="150.3" y1="998.5" x2="125.7" y2="1045.9" stroke="#c49a6c" stroke-width="2" opacity="0.3"/>
<line x1="125.7" y1="1045.9" x2="144.2" y2="1074.3" stroke="#c49a6c" stroke-width="2" opacity="0.3"/>
<line x1="273.6" y1="998.5" x2="298.3" y2="1045.9" stroke="#c49a6c" stroke-width="2" opacity="0.3"/>
<line x1="298.3" y1="1045.9" x2="279.8" y2="1074.3" stroke="#c49a6c" stroke-width="2" opacity="0.3"/>
<line x1="212.0" y1="910.1" x2="212.0" y2="994.5" stroke="#c49a6c" stroke-width="3" opacity="0.35"/>
<circle cx="212.0" cy="863.3" r="46.9" fill="#c49a6c" opacity="0.4"/>
<rect x="35.0" y="757.5" width="108.8" height="40.0" rx="6" fill="white" stroke="#c49a6c" stroke-width="1.0" opacity="0.92"/>
<polygon points="67.6,797.5 75.6,797.5 64.6,805.5" fill="white" stroke="#c49a6c" stroke-width="0.8"/>
<line x1="67.1" y1="797.5" x2="76.1" y2="797.5" stroke="white" stroke-width="1.5"/>
<text x="41.0" y="774.5" font-size="11.0" fill="#c49a6c" font-weight="700">THEODORE</text>
<text x="41.0" y="788.5" font-size="11.0" fill="#333333">It's not locked.</text>
<rect x="35.0" y="807.5" width="354.0" height="54.0" rx="6" fill="white" stroke="#6a5acd" stroke-width="1.0" opacity="0.92"/>
<polygon points="141.2,861.5 149.2,861.5 138.2,869.5" fill="white" stroke="#6a5acd" stroke-width="0.8"/>
<line x1="140.7" y1="861.5" x2="149.7" y2="861.5" stroke="white" stroke-width="1.5"/>
<text x="41.0" y="824.5" font-size="11.0" fill="#6a5acd" font-weight="700">LUMA</text>
<text x="41.0" y="838.5" font-size="11.0" fill="#333333">It wouldn't be. What came here didn't use doors the way we</text>
<text x="41.0" y="852.5" font-size="11.0" fill="#333333">do.</text>
<text x="383.0" y="765.5" text-anchor="end" font-size="12" font-weight="bold" fill="#888888" opacity="0.6">3</text>
<text x="389.0" y="1165.0" text-anchor="end" font-size="9" fill="#888888" opacity="0.5">MED</text>
<rect x="405.0" y="749.5" width="366.0" height="421.5" rx="2" fill="#f5f0e8" stroke="#2a2a2a" stroke-width="1.5"/>
<ellipse cx="588.0" cy="926.5" rx="132.8" ry="189.7" fill="#c0b8a8" opacity="0.18"/>
<path d="M448.6,860.1 Q588.0,708.4 727.4,860.1" fill="none" stroke="#c0b8a8" stroke-width="3" opacity="0.35"/>
<line x1="541.5" y1="884.8" x2="581.4" y2="882.8" stroke="#a89888" stroke-width="1.5" opacity="0.45"/>
<line x1="594.6" y1="882.8" x2="634.5" y2="884.8" stroke="#a89888" stroke-width="1.5" opacity="0.45"/>
<ellipse cx="550.8" cy="903.7" rx="15.9" ry="9.5" fill="#a89888" opacity="0.45"/>
<ellipse cx="625.2" cy="903.7" rx="15.9" ry="9.5" fill="#a89888" opacity="0.45"/>
<line x1="588.0" y1="930.3" x2="588.0" y2="960.7" stroke="#a89888" stroke-width="1.2" opacity="0.35"/>
<path d="M580.0,960.7 Q588.0,963.7 596.0,960.7" fill="none" stroke="#a89888" stroke-width="1" opacity="0.3"/>
<line x1="554.8" y1="987.2" x2="621.2" y2="987.2" stroke="#a89888" stroke-width="1.2" opacity="0.35"/>
<text x="759.0" y="765.5" text-anchor="end" font-size="12" font-weight="bold" fill="#888888" opacity="0.6">4</text>
<text x="765.0" y="1165.0" text-anchor="end" font-size="9" fill="#888888" opacity="0.5">CU</text>
</svg>