<svg xmlns="http://www.w3.org/2000/svg" viewBox="0 0 800 1200" width="800" height="1200" style="background:#ffffff">
<style>
  text { font-family: "Helvetica Neue", Helvetica, Arial, sans-serif; }
</style>
<text x="400.0" y="22" text-anchor="middle" font-size="16" fill="#888888" font-weight="500">PAGE 3  (4 panels)</text>
<rect x="29.0" y="59.0" width="742.0" height="364.0" rx="2" fill="#f5f0e8" stroke="#2a2a2a" stroke-width="1.5"/>
<path d="M341.4,321.1 L346.8,274.6 Q352.1,270.6 383.8,270.6 L416.2,270.6 Q447.9,270.6 453.2,274.6 L458.6,321.1 Z" fill="#b0b0b0" opacity="0.35"/>
<line x1="346.8" y1="296.5" x2="453.2" y2="296.5" stroke="#b0b0b0" stroke-width="1" opacity="0.3"/>
<line x1="346.8" y1="274.6" x2="325.5" y2="315.5" stroke="#b0b0b0" stroke-width="2" opacity="0.3"/>
<line x1="325.5" y1="315.5" x2="341.4" y2="340.1" stroke="#b0b0b0" stroke-width="2" opacity="0.3"/>
<line x1="453.2" y1="274.6" x2="474.5" y2="315.5" stroke="#b0b0b0" stroke-width="2" opacity="0.3"/>
<line x1="474.5" y1="315.5" x2="458.6" y2="340.1" stroke="#b0b0b0" stroke-width="2" opacity="0.3"/>
<line x1="400.0" y1="197.7" x2="400.0" y2="270.6" stroke="#b0b0b0" stroke-width="3" opacity="0.35"/>
<circle cx="400.0" cy="157.3" r="40.5" fill="#b0b0b0" opacity="0.4"/>
<rect x="35.0" y="67.0" width="730.0" height="54.0" rx="6" fill="white" stroke="#b0b0b0" stroke-width="1.0" opacity="0.92"/>
<polygon points="254.0,121.0 262.0,121.0 251.0,129.0" fill="white" stroke="#b0b0b0" stroke-width="0.8"/>
<line x1="253.5" y1="121.0" x2="262.5" y2="121.0" stroke="white" stroke-width="1.5"/>
<text x="41.0" y="84.0" font-size="11.0" fill="#b0b0b0" font-weight="700">SABLE</text>
<text x="41.0" y="98.0" font-size="11.0" fill="#333333">What I'm about to show you is classified above our mission grade. I did not share it because that classification exists for a</text>
<text x="41.0" y="112.0" font-size="11.0" fill="#333333">reason.</text>
<rect x="444.4" y="131.0" width="320.6" height="40.0" rx="6" fill="white" stroke="#c87533" stroke-width="1.0" opacity="0.92"/>
<polygon points="540.6,171.0 548.6,171.0 537.6,179.0" fill="white" stroke="#c87533" stroke-width="0.8"/>
<line x1="540.1" y1="171.0" x2="549.1" y2="171.0" stroke="white" stroke-width="1.5"/>
<text x="450.4" y="148.0" font-size="11.0" fill="#c87533" font-weight="700">WREN</text>
<text x="450.4" y="162.0" font-size="11.0" fill="#333333">That reason stopped working about three issues ago.</text>
<text x="759.0" y="75.0" text-anchor="end" font-size="12" font-weight="bold" fill="#888888" opacity="0.6">1</text>
<text x="765.0" y="417.0" text-anchor="end" font-size="9" fill="#888888" opacity="0.5">MED</text>
<rect x="29.0" y="433.0" width="366.0" height="364.0" rx="2" fill="#f5f0e8" stroke="#2a2a2a" stroke-width="1.5"/>
<ellipse cx="212.0" cy="585.9" rx="114.7" ry="163.8" fill="#c0b8a8" opacity="0.18"/>
<path d="M91.6,528.5 Q212.0,397.5 332.4,528.5" fill="none" stroke="#c0b8a8" stroke-width="3" opacity="0.35"/>
<line x1="171.9" y1="549.8" x2="206.3" y2="547.8" stroke="#a89888" stroke-width="1.5" opacity="0.45"/>
<line x1="217.7" y1="547.8" x2="252.1" y2="549.8" stroke="#a89888" stroke-width="1.5" opacity="0.45"/>
<ellipse cx="179.9" cy="566.2" rx="13.8" ry="8.2" fill="#a89888" opacity="0.45"/>
<ellipse cx="244.1" cy="566.2" rx="13.8" ry="8.2" fill="#a89888" opacity="0.45"/>
<line x1="212.0" y1="589.2" x2="212.0" y2="615.4" stroke="#a89888" stroke-width="1.2" opacity="0.35"/>
<path d="M205.1,615.4 Q212.0,618.4 218.9,615.4" fill="none" stroke="#a89888" stroke-width="1" opacity="0.3"/>
<line x1="183.3" y1="638.3" x2="240.7" y2="638.3" stroke="#a89888" stroke-width="1.2" opacity="0.35"/>
<text x="383.0" y="449.0" text-anchor="end" font-size="12" font-weight="bold" fill="#888888" opacity="0.6">2</text>
<text x="389.0" y="791.0" text-anchor="end" font-size="9" fill="#888888" opacity="0.5">CU</text>
<rect x="405.0" y="433.0" width="366.0" height="364.0" rx="2" fill="#f5f0e8" stroke="#2a2a2a" stroke-width="1.5"/>
<ellipse cx="588.0" cy="585.9" rx="114.7" ry="163.8" fill="#b0b0b0" opacity="0.18"/>
<path d="M467.6,528.5 Q588.0,397.5 708.4,528.5" fill="none" stroke="#b0b0b0" stroke-width="3" opacity="0.35"/>
<line x1="547.9" y1="549.8" x2="582.3" y2="547.8" stroke="#a89888" stroke-width="1.5" opacity="0.45"/>
<line x1="593.7" y1="547.8" x2="628.1" y2="549.8" stroke="#a89888" stroke-width="1.5" opacity="0.45"/>
<ellipse cx="555.9" cy="566.2" rx="13.8" ry="8.2" fill="#a89888" opacity="0.45"/>
<ellipse cx="620.1" cy="566.2" rx="13.8" ry="8.2" fill="#a89888" opacity="0.45"/>
<line x1="588.0" y1="589.2" x2="588.0" y2="615.4" stroke="#a89888" stroke-width="1.2" opacity="0.35"/>
<path d="M581.1,615.4 Q588.0,618.4 594.9,615.4" fill="none" stroke="#a89888" stroke-width="1" opacity="0.3"/>
<line x1="559.3" y1="638.3" x2="616.7" y2="638.3" stroke="#a89888" stroke-width="1.2" opacity="0.35"/>
<rect x="411.0" y="441.0" width="350.8" height="54.0" rx="6" fill="white" stroke="#b0b0b0" stroke-width="1.0" opacity="0.92"/>
<polygon points="516.2,495.0 524.2,495.0 513.2,503.0" fill="white" stroke="#b0b0b0" stroke-width="0.8"/>
<line x1="515.7" y1="495.0" x2="524.7" y2="495.0" stroke="white" stroke-width="1.5"/>
<text x="417.0" y="458.0" font-size="11.0" fill="#b0b0b0" font-weight="700">SABLE</text>
<text x="417.0" y="472.0" font-size="11.0" fill="#333333">Mission classification was convergence intervention. Not</text>
<text x="417.0" y="486.0" font-size="11.0" fill="#333333">reconnaissance. Intervention.</text>
<text x="759.0" y="449.0" text-anchor="end" font-size="12" font-weight="bold" fill="#888888" opacity="0.6">3</text>
<text x="765.0" y="791.0" text-anchor="end" font-size="9" fill="#888888" opacity="0.5">CU</text>
<rect x="29.0" y="807.0" width="742.0" height="364.0" rx="2" fill="#f5f0e8" stroke="#2a2a2a" stroke-width="1.5"/>
<path d="M341.4,1069.1 L346.8,1022.6 Q352.1,1018.6 383.8,1018.6 L416.2,1018.6 Q447.9,1018.6 453.2,1022.6 L458.6,1069.1 Z" fill="#c87533" opacity="0.35"/>
<line x1="346.8" y1="1044.5" x2="453.2" y2="1044.5" stroke="#c87533" stroke-width="1" opacity="0.3"/>
<line x1="346.8" y1="1022.6" x2="325.5" y2="1063.5" stroke="#c87533" stroke-width="2" opacity="0.3"/>
<line x1="325.5" y1="1063.5" x2="341.4" y2="1088.1" stroke="#c87533" stroke-width="2" opacity="0.3"/>
<line x1="453.2" y1="1022.6" x2="474.5" y2="1063.5" stroke="#c87533" stroke-width="2" opacity="0.3"/>
<line x1="474.5" y1="1063.5" x2="458.6" y2="1088.1" stroke="#c87533" stroke-width="2" opacity="0.3"/>
<line x1="400.0" y1="945.7" x2="400.0" y2="1018.6" stroke="#c87533" stroke-width="3" opacity="0.35"/>
<circle cx="400.0" cy="905.3" r="40.5" fill="#c87533" opacity="0.4"/>
<rect x="35.0" y="815.0" width="169.3" height="40.0" rx="6" fill="white" stroke="#c87533" stroke-width="1.0" opacity="0.92"/>
<polygon points="85.8,855.0 93.8,855.0 82.8,863.0" fill="white" stroke="#c87533" stroke-width="0.8"/>
<line x1="85.3" y1="855.0" x2="94.3" y2="855.0" stroke="white" stroke-width="1.5"/>
<text x="41.0" y="832.0" font-size="11.0" fill="#c87533" font-weight="700">WREN</text>
<text x="41.0" y="846.0" font-size="11.0" fill="#333333">'Intervention.' Not recon.</text>
<rect x="692.5" y="865.0" width="72.5" height="40.0" rx="6" fill="white" stroke="#b0b0b0" stroke-width="1.0" opacity="0.92"/>
<polygon points="714.2,905.0 722.2,905.0 711.2,913.0" fill="white" stroke="#b0b0b0" stroke-width="0.8"/>
<line x1="713.8" y1="905.0" x2="722.8" y2="905.0" stroke="white" stroke-width="1.5"/>
<text x="698.5" y="882.0" font-size="11.0" fill="#b0b0b0" font-weight="700">SABLE</text>
<text x="698.5" y="896.0" font-size="11.0" fill="#333333">Not recon.</text>
<rect x="35.0" y="915.0" width="157.2" height="40.0" rx="6" fill="white" stroke="#c87533" stroke-width="1.0" opacity="0.92"/>
<polygon points="82.2,955.0 90.2,955.0 79.2,963.0" fill="white" stroke="#c87533" stroke-width="0.8"/>
<line x1="81.7" y1="955.0" x2="90.7" y2="955.0" stroke="white" stroke-width="1.5"/>
<text x="41.0" y="932.0" font-size="11.0" fill="#c87533" font-weight="700">WREN</text>
<text x="41.0" y="946.0" font-size="11.0" fill="#333333">How long have you known?</text>
<rect x="190.3" y="965.0" width="574.7" height="40.0" rx="6" fill="white" stroke="#b0b0b0" stroke-width="1.0" opacity="0.92"/>
<polygon points="362.7,1005.0 370.7,1005.0 359.7,1013.0" fill="white" stroke="#b0b0b0" stroke-width="0.8"/>
<line x1="362.2" y1="1005.0" x2="371.2" y2="1005.0" stroke="white" stroke-width="1.5"/>
<text x="196.3" y="982.0" font-size="11.0" fill="#b0b0b0" font-weight="700">SABLE</text>
<text x="196.3" y="996.0" font-size="11.0" fill="#333333">Since the crash. The file corrupted on impact. I have been reading fragments for eight weeks.</text>
<text x="759.0" y="823.0" text-anchor="end" font-size="12" font-weight="bold" fill="#888888" opacity="0.6">4</text>
<text x="765.0" y="1165.0" text-anchor="end" font-size="9" fill="#888888" opacity="0.5">MED</text>
</svg>