<svg xmlns="http://www.w3.org/2000/svg" viewBox="0 0 800 1200" width="800" height="1200" style="background:#ffffff">
<style>
  text { font-family: "Helvetica Neue", Helvetica, Arial, sans-serif; }
</style>
<text x="400.0" y="22" text-anchor="middle" font-size="16" fill="#888888" font-weight="500">PAGE 14  (4 panels)</text>
<rect x="29.0" y="59.0" width="366.0" height="551.0" rx="2" fill="#f5f0e8" stroke="#2a2a2a" stroke-width="1.5"/>
<path d="M106.6,411.2 Q106.6,358.5 185.6,351.9 L238.4,351.9 Q317.4,358.5 317.4,411.2 L317.4,543.9 L106.6,543.9 Z" fill="#c0b8a8" opacity="0.25"/>
<path d="M188.9,351.9 L212.0,384.8 L235.1,351.9" fill="none" stroke="#c0b8a8" stroke-width="1" opacity="0.3"/>
<circle cx="212.0" cy="279.4" r="65.9" fill="#c0b8a8" opacity="0.35"/>
<path d="M146.1,292.6 Q156.0,351.9 212.0,355.2 Q268.0,351.9 277.9,292.6" fill="none" stroke="#c0b8a8" stroke-width="1.2" opacity="0.3"/>
<path d="M142.8,272.8 Q212.0,193.8 281.2,272.8" fill="none" stroke="#c0b8a8" stroke-width="2" opacity="0.4"/>
<ellipse cx="144.1" cy="282.7" rx="2.5" ry="4" fill="#c0b8a8" opacity="0.25"/>
<ellipse cx="279.9" cy="282.7" rx="2.5" ry="4" fill="#c0b8a8" opacity="0.25"/>
<text x="383.0" y="75.0" text-anchor="end" font-size="12" font-weight="bold" fill="#888888" opacity="0.6">1</text>
<text x="389.0" y="604.0" text-anchor="end" font-size="9" fill="#888888" opacity="0.5">MCU</text>
<rect x="405.0" y="59.0" width="366.0" height="551.0" rx="2" fill="#f5f0e8" stroke="#2a2a2a" stroke-width="1.5"/>
<path d="M482.6,411.2 Q482.6,358.5 561.6,351.9 L614.4,351.9 Q693.4,358.5 693.4,411.2 L693.4,543.9 L482.6,543.9 Z" fill="#c0b8a8" opacity="0.25"/>
<path d="M564.9,351.9 L588.0,384.8 L611.1,351.9" fill="none" stroke="#c0b8a8" stroke-width="1" opacity="0.3"/>
<circle cx="588.0" cy="279.4" r="65.9" fill="#c0b8a8" opacity="0.35"/>
<path d="M522.1,292.6 Q532.0,351.9 588.0,355.2 Q644.0,351.9 653.9,292.6" fill="none" stroke="#c0b8a8" stroke-width="1.2" opacity="0.3"/>
<path d="M518.8,272.8 Q588.0,193.8 657.2,272.8" fill="none" stroke="#c0b8a8" stroke-width="2" opacity="0.4"/>
<ellipse cx="520.1" cy="282.7" rx="2.5" ry="4" fill="#c0b8a8" opacity="0.25"/>
<ellipse cx="655.9" cy="282.7" rx="2.5" ry="4" fill="#c0b8a8" opacity="0.25"/>
<text x="759.0" y="75.0" text-anchor="end" font-size="12" font-weight="bold" fill="#888888" opacity="0.6">2</text>
<text x="765.0" y="604.0" text-anchor="end" font-size="9" fill="#888888" opacity="0.5">MCU</text>
<rect x="29.0" y="620.0" width="366.0" height="551.0" rx="2" fill="#f5f0e8" stroke="#2a2a2a" stroke-width="1.5"/>
<path d="M106.6,972.2 Q106.6,919.5 185.6,912.9 L238.4,912.9 Q317.4,919.5 317.4,972.2 L317.4,1104.9 L106.6,1104.9 Z" fill="#6a5acd" opacity="0.25"/>
<path d="M188.9,912.9 L212.0,945.8 L235.1,912.9" fill="none" stroke="#6a5acd" stroke-width="1" opacity="0.3"/>
<circle cx="212.0" cy="840.4" r="65.9" fill="#6a5acd" opacity="0.35"/>
<path d="M146.1,853.6 Q156.0,912.9 212.0,916.2 Q268.0,912.9 277.9,853.6" fill="none" stroke="#6a5acd" stroke-width="1.2" opacity="0.3"/>
<path d="M142.8,833.8 Q212.0,754.8 281.2,833.8" fill="none" stroke="#6a5acd" stroke-width="2" opacity="0.4"/>
<ellipse cx="144.1" cy="843.7" rx="2.5" ry="4" fill="#6a5acd" opacity="0.25"/>
<ellipse cx="279.9" cy="843.7" rx="2.5" ry="4" fill="#6a5acd" opacity="0.25"/>
<rect x="35.0" y="628.0" width="96.7" height="40.0" rx="6" fill="white" stroke="#6a5acd" stroke-width="1.0" opacity="0.92"/>
<polygon points="64.0,668.0 72.0,668.0 61.0,676.0" fill="white" stroke="#6a5acd" stroke-width="0.8"/>
<line x1="63.5" y1="668.0" x2="72.5" y2="668.0" stroke="white" stroke-width="1.5"/>
<text x="41.0" y="645.0" font-size="11.0" fill="#6a5acd" font-weight="700">LUMA</text>
<text x="41.0" y="659.0" font-size="11.0" fill="#333333">Hold together.</text>
<text x="383.0" y="636.0" text-anchor="end" font-size="12" font-weight="bold" fill="#888888" opacity="0.6">3</text>
<text x="389.0" y="1165.0" text-anchor="end" font-size="9" fill="#888888" opacity="0.5">MCU</text>
<rect x="405.0" y="620.0" width="366.0" height="551.0" rx="2" fill="#f5f0e8" stroke="#2a2a2a" stroke-width="1.5"/>
<path d="M482.6,972.2 Q482.6,919.5 561.6,912.9 L614.4,912.9 Q693.4,919.5 693.4,972.2 L693.4,1104.9 L482.6,1104.9 Z" fill="#c0b8a8" opacity="0.25"/>
<path d="M564.9,912.9 L588.0,945.8 L611.1,912.9" fill="none" stroke="#c0b8a8" stroke-width="1" opacity="0.3"/>
<circle cx="588.0" cy="840.4" r="65.9" fill="#c0b8a8" opacity="0.35"/>
<path d="M522.1,853.6 Q532.0,912.9 588.0,916.2 Q644.0,912.9 653.9,853.6" fill="none" stroke="#c0b8a8" stroke-width="1.2" opacity="0.3"/>
<path d="M518.8,833.8 Q588.0,754.8 657.2,833.8" fill="none" stroke="#c0b8a8" stroke-width="2" opacity="0.4"/>
<ellipse cx="520.1" cy="843.7" rx="2.5" ry="4" fill="#c0b8a8" opacity="0.25"/>
<ellipse cx="655.9" cy="843.7" rx="2.5" ry="4" fill="#c0b8a8" opacity="0.25"/>
<text x="759.0" y="636.0" text-anchor="end" font-size="12" font-weight="bold" fill="#888888" opacity="0.6">4</text>
<text x="765.0" y="1165.0" text-anchor="end" font-size="9" fill="#888888" opacity="0.5">MCU</text>
</svg>