<svg xmlns="http://www.w3.org/2000/svg" viewBox="0 0 800 1200" width="800" height="1200" style="background:#ffffff">
<style>
  text { font-family: "Helvetica Neue", Helvetica, Arial, sans-serif; }
</style>
<text x="400.0" y="22" text-anchor="middle" font-size="16" fill="#888888" font-weight="500">PAGE 12  (4 panels)</text>
<rect x="29.0" y="59.0" width="742.0" height="248.9" rx="2" fill="#f5f0e8" stroke="#2a2a2a" stroke-width="1.5"/>
<path d="M360.0,238.2 L363.6,207.7 Q367.2,203.7 388.9,203.7 L411.1,203.7 Q432.8,203.7 436.4,207.7 L440.0,238.2 Z" fill="#2e8b57" opacity="0.35"/>
<line x1="363.6" y1="221.4" x2="436.4" y2="221.4" stroke="#2e8b57" stroke-width="1" opacity="0.3"/>
<line x1="363.6" y1="207.7" x2="349.0" y2="235.7" stroke="#2e8b57" stroke-width="2" opacity="0.3"/>
<line x1="349.0" y1="235.7" x2="360.0" y2="252.5" stroke="#2e8b57" stroke-width="2" opacity="0.3"/>
<line x1="436.4" y1="207.7" x2="451.0" y2="235.7" stroke="#2e8b57" stroke-width="2" opacity="0.3"/>
<line x1="451.0" y1="235.7" x2="440.0" y2="252.5" stroke="#2e8b57" stroke-width="2" opacity="0.3"/>
<line x1="400.0" y1="153.9" x2="400.0" y2="203.7" stroke="#2e8b57" stroke-width="3" opacity="0.35"/>
<circle cx="400.0" cy="126.2" r="27.7" fill="#2e8b57" opacity="0.4"/>
<rect x="35.0" y="67.0" width="719.9" height="40.0" rx="6" fill="white" stroke="#2e8b57" stroke-width="1.0" opacity="0.92"/>
<polygon points="251.0,107.0 259.0,107.0 248.0,115.0" fill="white" stroke="#2e8b57" stroke-width="0.8"/>
<line x1="250.5" y1="107.0" x2="259.5" y2="107.0" stroke="white" stroke-width="1.5"/>
<text x="41.0" y="84.0" font-size="11.0" fill="#2e8b57" font-weight="700">JINK</text>
<text x="41.0" y="98.0" font-size="11.0" fill="#333333">Yeah, okay, fine. The drive. The components. The mission. But when this is done, when we are not in immediate danger—</text>
<rect x="632.0" y="117.0" width="133.0" height="40.0" rx="6" fill="white" stroke="#2e8b57" stroke-width="1.0" opacity="0.92"/>
<polygon points="671.9,157.0 679.9,157.0 668.9,165.0" fill="white" stroke="#2e8b57" stroke-width="0.8"/>
<line x1="671.4" y1="157.0" x2="680.4" y2="157.0" stroke="white" stroke-width="1.5"/>
<text x="638.0" y="134.0" font-size="11.0" fill="#2e8b57" font-weight="700">JINK</text>
<text x="638.0" y="148.0" font-size="11.0" fill="#333333">This isn't finished.</text>
<text x="759.0" y="75.0" text-anchor="end" font-size="12" font-weight="bold" fill="#888888" opacity="0.6">1</text>
<text x="765.0" y="301.9" text-anchor="end" font-size="9" fill="#888888" opacity="0.5">MW</text>
<rect x="29.0" y="317.9" width="366.0" height="421.5" rx="2" fill="#f5f0e8" stroke="#2a2a2a" stroke-width="1.5"/>
<path d="M106.6,618.3 Q106.6,565.6 185.6,559.0 L238.4,559.0 Q317.4,565.6 317.4,618.3 L317.4,688.9 L106.6,688.9 Z" fill="#b0b0b0" opacity="0.25"/>
<path d="M188.9,559.0 L212.0,591.9 L235.1,559.0" fill="none" stroke="#b0b0b0" stroke-width="1" opacity="0.3"/>
<circle cx="212.0" cy="486.5" r="65.9" fill="#b0b0b0" opacity="0.35"/>
<path d="M146.1,499.7 Q156.0,559.0 212.0,562.3 Q268.0,559.0 277.9,499.7" fill="none" stroke="#b0b0b0" stroke-width="1.2" opacity="0.3"/>
<path d="M142.8,480.0 Q212.0,400.9 281.2,480.0" fill="none" stroke="#b0b0b0" stroke-width="2" opacity="0.4"/>
<ellipse cx="144.1" cy="489.8" rx="2.5" ry="4" fill="#b0b0b0" opacity="0.25"/>
<ellipse cx="279.9" cy="489.8" rx="2.5" ry="4" fill="#b0b0b0" opacity="0.25"/>
<rect x="35.0" y="325.9" width="78.6" height="40.0" rx="6" fill="white" stroke="#b0b0b0" stroke-width="1.0" opacity="0.92"/>
<polygon points="58.6,365.9 66.6,365.9 55.6,373.9" fill="white" stroke="#b0b0b0" stroke-width="0.8"/>
<line x1="58.1" y1="365.9" x2="67.1" y2="365.9" stroke="white" stroke-width="1.5"/>
<text x="41.0" y="342.9" font-size="11.0" fill="#b0b0b0" font-weight="700">SABLE</text>
<text x="41.0" y="356.9" font-size="11.0" fill="#333333">Understood.</text>
<text x="383.0" y="333.9" text-anchor="end" font-size="12" font-weight="bold" fill="#888888" opacity="0.6">2</text>
<text x="389.0" y="733.5" text-anchor="end" font-size="9" fill="#888888" opacity="0.5">MCU</text>
<rect x="405.0" y="317.9" width="366.0" height="421.5" rx="2" fill="#f5f0e8" stroke="#2a2a2a" stroke-width="1.5"/>
<path d="M520.2,621.4 L526.4,566.9 Q532.5,562.9 569.3,562.9 L606.7,562.9 Q643.5,562.9 649.6,566.9 L655.8,621.4 Z" fill="#6a5acd" opacity="0.35"/>
<line x1="526.4" y1="593.0" x2="649.6" y2="593.0" stroke="#6a5acd" stroke-width="1" opacity="0.3"/>
<line x1="526.4" y1="566.9" x2="501.7" y2="614.4" stroke="#6a5acd" stroke-width="2" opacity="0.3"/>
<line x1="501.7" y1="614.4" x2="520.2" y2="642.8" stroke="#6a5acd" stroke-width="2" opacity="0.3"/>
<line x1="649.6" y1="566.9" x2="674.3" y2="614.4" stroke="#6a5acd" stroke-width="2" opacity="0.3"/>
<line x1="674.3" y1="614.4" x2="655.8" y2="642.8" stroke="#6a5acd" stroke-width="2" opacity="0.3"/>
<line x1="588.0" y1="478.6" x2="588.0" y2="562.9" stroke="#6a5acd" stroke-width="3" opacity="0.35"/>
<circle cx="588.0" cy="431.7" r="46.9" fill="#6a5acd" opacity="0.4"/>
<rect x="411.0" y="325.9" width="354.0" height="68.0" rx="6" fill="white" stroke="#6a5acd" stroke-width="1.0" opacity="0.92"/>
<polygon points="517.2,393.9 525.2,393.9 514.2,401.9" fill="white" stroke="#6a5acd" stroke-width="0.8"/>
<line x1="516.7" y1="393.9" x2="525.7" y2="393.9" stroke="white" stroke-width="1.5"/>
<text x="417.0" y="342.9" font-size="11.0" fill="#6a5acd" font-weight="700">LUMA</text>
<text x="417.0" y="356.9" font-size="11.0" fill="#333333">I want to go back to the church cache. With the file data,</text>
<text x="417.0" y="370.9" font-size="11.0" fill="#333333">I can cross-reference the glyph dating with the prior</text>
<text x="417.0" y="384.9" font-size="11.0" fill="#333333">insertion timeline.</text>
<rect x="703.0" y="403.9" width="62.0" height="40.0" rx="6" fill="white" stroke="#b0b0b0" stroke-width="1.0" opacity="0.92"/>
<polygon points="721.6,443.9 729.6,443.9 718.6,451.9" fill="white" stroke="#b0b0b0" stroke-width="0.8"/>
<line x1="721.1" y1="443.9" x2="730.1" y2="443.9" stroke="white" stroke-width="1.5"/>
<text x="709.0" y="420.9" font-size="11.0" fill="#b0b0b0" font-weight="700">SABLE</text>
<text x="709.0" y="434.9" font-size="11.0" fill="#333333">Granted.</text>
<text x="759.0" y="333.9" text-anchor="end" font-size="12" font-weight="bold" fill="#888888" opacity="0.6">3</text>
<text x="765.0" y="733.5" text-anchor="end" font-size="9" fill="#888888" opacity="0.5">MED</text>
<rect x="29.0" y="749.5" width="742.0" height="421.5" rx="2" fill="#f5f0e8" stroke="#2a2a2a" stroke-width="1.5"/>
<line x1="35.0" y1="1078.3" x2="765.0" y2="1078.3" stroke="#a89888" stroke-width="1.0" opacity="0.5"/>
<ellipse cx="214.5" cy="1080.3" rx="11.2" ry="2.7" fill="#a89888" opacity="0.2"/>
<line x1="211.8" y1="1062.5" x2="207.8" y2="1078.3" stroke="#c0b8a8" stroke-width="2" opacity="0.5"/>
<line x1="217.2" y1="1062.5" x2="221.2" y2="1078.3" stroke="#c0b8a8" stroke-width="2" opacity="0.5"/>
<line x1="214.5" y1="1049.5" x2="214.5" y2="1062.5" stroke="#c0b8a8" stroke-width="2.5" opacity="0.6"/>
<line x1="201.0" y1="1051.5" x2="228.0" y2="1051.5" stroke="#c0b8a8" stroke-width="2" opacity="0.5"/>
<line x1="201.0" y1="1051.5" x2="196.5" y2="1063.0" stroke="#c0b8a8" stroke-width="1.5" opacity="0.4"/>
<line x1="228.0" y1="1051.5" x2="232.5" y2="1063.0" stroke="#c0b8a8" stroke-width="1.5" opacity="0.4"/>
<circle cx="214.5" cy="1033.3" r="8.1" fill="#c0b8a8" opacity="0.6"/>
<ellipse cx="400.0" cy="1080.3" rx="11.2" ry="2.7" fill="#a89888" opacity="0.2"/>
<line x1="397.3" y1="1062.5" x2="393.2" y2="1078.3" stroke="#c0b8a8" stroke-width="2" opacity="0.5"/>
<line x1="402.7" y1="1062.5" x2="406.8" y2="1078.3" stroke="#c0b8a8" stroke-width="2" opacity="0.5"/>
<line x1="400.0" y1="1049.5" x2="400.0" y2="1062.5" stroke="#c0b8a8" stroke-width="2.5" opacity="0.6"/>
<line x1="386.5" y1="1051.5" x2="413.5" y2="1051.5" stroke="#c0b8a8" stroke-width="2" opacity="0.5"/>
<line x1="386.5" y1="1051.5" x2="382.0" y2="1063.0" stroke="#c0b8a8" stroke-width="1.5" opacity="0.4"/>
<line x1="413.5" y1="1051.5" x2="418.0" y2="1063.0" stroke="#c0b8a8" stroke-width="1.5" opacity="0.4"/>
<circle cx="400.0" cy="1033.3" r="8.1" fill="#c0b8a8" opacity="0.6"/>
<ellipse cx="585.5" cy="1080.3" rx="11.2" ry="2.7" fill="#a89888" opacity="0.2"/>
<line x1="582.8" y1="1062.5" x2="578.8" y2="1078.3" stroke="#c0b8a8" stroke-width="2" opacity="0.5"/>
<line x1="588.2" y1="1062.5" x2="592.2" y2="1078.3" stroke="#c0b8a8" stroke-width="2" opacity="0.5"/>
<line x1="585.5" y1="1049.5" x2="585.5" y2="1062.5" stroke="#c0b8a8" stroke-width="2.5" opacity="0.6"/>
<line x1="572.0" y1="1051.5" x2="599.0" y2="1051.5" stroke="#c0b8a8" stroke-width="2" opacity="0.5"/>
<line x1="572.0" y1="1051.5" x2="567.5" y2="1063.0" stroke="#c0b8a8" stroke-width="1.5" opacity="0.4"/>
<line x1="599.0" y1="1051.5" x2="603.5" y2="1063.0" stroke="#c0b8a8" stroke-width="1.5" opacity="0.4"/>
<circle cx="585.5" cy="1033.3" r="8.1" fill="#c0b8a8" opacity="0.6"/>
<text x="759.0" y="765.5" text-anchor="end" font-size="12" font-weight="bold" fill="#888888" opacity="0.6">4</text>
<text x="765.0" y="1165.0" text-anchor="end" font-size="9" fill="#888888" opacity="0.5">WIDE</text>
</svg>