<svg xmlns="http://www.w3.org/2000/svg" viewBox="0 0 800 1200" width="800" height="1200" style="background:#ffffff">
<style>
  text { font-family: "Helvetica Neue", Helvetica, Arial, sans-serif; }
</style>
<text x="400.0" y="22" text-anchor="middle" font-size="16" fill="#888888" font-weight="500">PAGE 11  (5 panels)</text>
<rect x="29.0" y="59.0" width="742.0" height="364.0" rx="2" fill="#f5f0e8" stroke="#2a2a2a" stroke-width="1.5"/>
<path d="M341.4,321.1 L346.8,274.6 Q352.1,270.6 383.8,270.6 L416.2,270.6 Q447.9,270.6 453.2,274.6 L458.6,321.1 Z" fill="#2e8b57" opacity="0.35"/>
<line x1="346.8" y1="296.5" x2="453.2" y2="296.5" stroke="#2e8b57" stroke-width="1" opacity="0.3"/>
<line x1="346.8" y1="274.6" x2="325.5" y2="315.5" stroke="#2e8b57" stroke-width="2" opacity="0.3"/>
<line x1="325.5" y1="315.5" x2="341.4" y2="340.1" stroke="#2e8b57" stroke-width="2" opacity="0.3"/>
<line x1="453.2" y1="274.6" x2="474.5" y2="315.5" stroke="#2e8b57" stroke-width="2" opacity="0.3"/>
<line x1="474.5" y1="315.5" x2="458.6" y2="340.1" stroke="#2e8b57" stroke-width="2" opacity="0.3"/>
<line x1="400.0" y1="197.7" x2="400.0" y2="270.6" stroke="#2e8b57" stroke-width="3" opacity="0.35"/>
<circle cx="400.0" cy="157.3" r="40.5" fill="#2e8b57" opacity="0.4"/>
<rect x="35.0" y="67.0" width="730.0" height="54.0" rx="6" fill="white" stroke="#2e8b57" stroke-width="1.0" opacity="0.92"/>
<polygon points="254.0,121.0 262.0,121.0 251.0,129.0" fill="white" stroke="#2e8b57" stroke-width="0.8"/>
<line x1="253.5" y1="121.0" x2="262.5" y2="121.0" stroke="white" stroke-width="1.5"/>
<text x="41.0" y="84.0" font-size="11.0" fill="#2e8b57" font-weight="700">JINK</text>
<text x="41.0" y="98.0" font-size="11.0" fill="#333333">You managed us. That's what this was. Information control. Like we're assets to be deployed, not people who deserve to know</text>
<text x="41.0" y="112.0" font-size="11.0" fill="#333333">what they're dying for.</text>
<rect x="644.1" y="131.0" width="120.9" height="40.0" rx="6" fill="white" stroke="#b0b0b0" stroke-width="1.0" opacity="0.92"/>
<polygon points="680.4,171.0 688.4,171.0 677.4,179.0" fill="white" stroke="#b0b0b0" stroke-width="0.8"/>
<line x1="679.9" y1="171.0" x2="688.9" y2="171.0" stroke="white" stroke-width="1.5"/>
<text x="650.1" y="148.0" font-size="11.0" fill="#b0b0b0" font-weight="700">SABLE</text>
<text x="650.1" y="162.0" font-size="11.0" fill="#333333">You are not dying.</text>
<rect x="35.0" y="181.0" width="730.0" height="40.0" rx="6" fill="white" stroke="#2e8b57" stroke-width="1.0" opacity="0.92"/>
<polygon points="254.0,221.0 262.0,221.0 251.0,229.0" fill="white" stroke="#2e8b57" stroke-width="0.8"/>
<line x1="253.5" y1="221.0" x2="262.5" y2="221.0" stroke="white" stroke-width="1.5"/>
<text x="41.0" y="198.0" font-size="11.0" fill="#2e8b57" font-weight="700">JINK</text>
<text x="41.0" y="212.0" font-size="11.0" fill="#333333">We could have been! We nearly were! And you let us walk into that without the full picture because it was — what? Cleaner?</text>
<text x="759.0" y="75.0" text-anchor="end" font-size="12" font-weight="bold" fill="#888888" opacity="0.6">1</text>
<text x="765.0" y="417.0" text-anchor="end" font-size="9" fill="#888888" opacity="0.5">MW</text>
<rect x="29.0" y="433.0" width="240.7" height="364.0" rx="2" fill="#f5f0e8" stroke="#2a2a2a" stroke-width="1.5"/>
<ellipse cx="149.3" cy="585.9" rx="96.3" ry="163.8" fill="#2e8b57" opacity="0.18"/>
<path d="M48.3,528.5 Q149.3,397.5 250.4,528.5" fill="none" stroke="#2e8b57" stroke-width="3" opacity="0.35"/>
<line x1="115.6" y1="549.8" x2="144.5" y2="547.8" stroke="#a89888" stroke-width="1.5" opacity="0.45"/>
<line x1="154.1" y1="547.8" x2="183.0" y2="549.8" stroke="#a89888" stroke-width="1.5" opacity="0.45"/>
<ellipse cx="122.4" cy="566.2" rx="11.6" ry="8.2" fill="#a89888" opacity="0.45"/>
<ellipse cx="176.3" cy="566.2" rx="11.6" ry="8.2" fill="#a89888" opacity="0.45"/>
<line x1="149.3" y1="589.2" x2="149.3" y2="615.4" stroke="#a89888" stroke-width="1.2" opacity="0.35"/>
<path d="M143.6,615.4 Q149.3,618.4 155.1,615.4" fill="none" stroke="#a89888" stroke-width="1" opacity="0.3"/>
<line x1="125.3" y1="638.3" x2="173.4" y2="638.3" stroke="#a89888" stroke-width="1.2" opacity="0.35"/>
<rect x="35.0" y="441.0" width="221.0" height="64.0" rx="6" fill="white" stroke="#2e8b57" stroke-width="1.0" opacity="0.92"/>
<polygon points="101.3,505.0 109.3,505.0 98.3,513.0" fill="white" stroke="#2e8b57" stroke-width="0.8"/>
<line x1="100.8" y1="505.0" x2="109.8" y2="505.0" stroke="white" stroke-width="1.5"/>
<text x="41.0" y="457.0" font-size="10.0" fill="#2e8b57" font-weight="700">JINK</text>
<text x="41.0" y="470.0" font-size="10.0" fill="#333333">I defended you. When Thresh questioned</text>
<text x="41.0" y="483.0" font-size="10.0" fill="#333333">the Titan debrief, I said 'Sable has a</text>
<text x="41.0" y="496.0" font-size="10.0" fill="#333333">reason.' I said that.</text>
<text x="257.7" y="449.0" text-anchor="end" font-size="12" font-weight="bold" fill="#888888" opacity="0.6">2</text>
<text x="263.7" y="791.0" text-anchor="end" font-size="9" fill="#888888" opacity="0.5">CU</text>
<rect x="279.7" y="433.0" width="240.7" height="364.0" rx="2" fill="#f5f0e8" stroke="#2a2a2a" stroke-width="1.5"/>
<path d="M353.7,695.1 L357.9,624.9 Q362.1,620.9 387.2,620.9 L412.8,620.9 Q437.9,620.9 442.1,624.9 L446.3,695.1 Z" fill="#b22222" opacity="0.35"/>
<line x1="357.9" y1="670.5" x2="442.1" y2="670.5" stroke="#b22222" stroke-width="1" opacity="0.3"/>
<line x1="357.9" y1="624.9" x2="341.0" y2="665.9" stroke="#b22222" stroke-width="2" opacity="0.3"/>
<line x1="341.0" y1="665.9" x2="353.7" y2="690.4" stroke="#b22222" stroke-width="2" opacity="0.3"/>
<line x1="442.1" y1="624.9" x2="459.0" y2="665.9" stroke="#b22222" stroke-width="2" opacity="0.3"/>
<line x1="459.0" y1="665.9" x2="446.3" y2="690.4" stroke="#b22222" stroke-width="2" opacity="0.3"/>
<line x1="400.0" y1="563.3" x2="400.0" y2="620.9" stroke="#b22222" stroke-width="3" opacity="0.35"/>
<circle cx="400.0" cy="531.3" r="32.0" fill="#b22222" opacity="0.4"/>
<rect x="285.7" y="441.0" width="62.0" height="38.0" rx="6" fill="white" stroke="#b22222" stroke-width="1.0" opacity="0.92"/>
<polygon points="304.3,479.0 312.3,479.0 301.3,487.0" fill="white" stroke="#b22222" stroke-width="0.8"/>
<line x1="303.8" y1="479.0" x2="312.8" y2="479.0" stroke="white" stroke-width="1.5"/>
<text x="291.7" y="457.0" font-size="10.0" fill="#b22222" font-weight="700">THRESH</text>
<text x="291.7" y="470.0" font-size="10.0" fill="#333333">Exposed.</text>
<text x="508.3" y="449.0" text-anchor="end" font-size="12" font-weight="bold" fill="#888888" opacity="0.6">3</text>
<text x="514.3" y="791.0" text-anchor="end" font-size="9" fill="#888888" opacity="0.5">MED</text>
<rect x="530.3" y="433.0" width="240.7" height="364.0" rx="2" fill="#f5f0e8" stroke="#2a2a2a" stroke-width="1.5"/>
<ellipse cx="650.7" cy="585.9" rx="96.3" ry="163.8" fill="#6a5acd" opacity="0.18"/>
<path d="M549.6,528.5 Q650.7,397.5 751.7,528.5" fill="none" stroke="#6a5acd" stroke-width="3" opacity="0.35"/>
<line x1="617.0" y1="549.8" x2="645.9" y2="547.8" stroke="#a89888" stroke-width="1.5" opacity="0.45"/>
<line x1="655.5" y1="547.8" x2="684.4" y2="549.8" stroke="#a89888" stroke-width="1.5" opacity="0.45"/>
<ellipse cx="623.7" cy="566.2" rx="11.6" ry="8.2" fill="#a89888" opacity="0.45"/>
<ellipse cx="677.6" cy="566.2" rx="11.6" ry="8.2" fill="#a89888" opacity="0.45"/>
<line x1="650.7" y1="589.2" x2="650.7" y2="615.4" stroke="#a89888" stroke-width="1.2" opacity="0.35"/>
<path d="M644.9,615.4 Q650.7,618.4 656.4,615.4" fill="none" stroke="#a89888" stroke-width="1" opacity="0.3"/>
<line x1="626.6" y1="638.3" x2="674.7" y2="638.3" stroke="#a89888" stroke-width="1.2" opacity="0.35"/>
<rect x="536.3" y="441.0" width="228.7" height="77.0" rx="6" fill="white" stroke="#6a5acd" stroke-width="1.0" opacity="0.92"/>
<polygon points="604.9,518.0 612.9,518.0 601.9,526.0" fill="white" stroke="#6a5acd" stroke-width="0.8"/>
<line x1="604.4" y1="518.0" x2="613.4" y2="518.0" stroke="white" stroke-width="1.5"/>
<text x="542.3" y="457.0" font-size="10.0" fill="#6a5acd" font-weight="700">LUMA</text>
<text x="542.3" y="470.0" font-size="10.0" fill="#333333">The prior operatives were in the same</text>
<text x="542.3" y="483.0" font-size="10.0" fill="#333333">position. They knew about the</text>
<text x="542.3" y="496.0" font-size="10.0" fill="#333333">convergence. They knew about the mission.</text>
<text x="542.3" y="509.0" font-size="10.0" fill="#333333">And they chose to stay.</text>
<rect x="536.3" y="528.0" width="226.5" height="64.0" rx="6" fill="white" stroke="#6a5acd" stroke-width="1.0" opacity="0.92"/>
<polygon points="604.3,592.0 612.3,592.0 601.3,600.0" fill="white" stroke="#6a5acd" stroke-width="0.8"/>
<line x1="603.8" y1="592.0" x2="612.8" y2="592.0" stroke="white" stroke-width="1.5"/>
<text x="542.3" y="544.0" font-size="10.0" fill="#6a5acd" font-weight="700">LUMA</text>
<text x="542.3" y="557.0" font-size="10.0" fill="#333333">The question is not what Sable hid. The</text>
<text x="542.3" y="570.0" font-size="10.0" fill="#333333">question is what those operatives</text>
<text x="542.3" y="583.0" font-size="10.0" fill="#333333">understood that we do not. Yet.</text>
<text x="759.0" y="449.0" text-anchor="end" font-size="12" font-weight="bold" fill="#888888" opacity="0.6">4</text>
<text x="765.0" y="791.0" text-anchor="end" font-size="9" fill="#888888" opacity="0.5">CU</text>
<rect x="29.0" y="807.0" width="742.0" height="364.0" rx="2" fill="#f5f0e8" stroke="#2a2a2a" stroke-width="1.5"/>
<path d="M341.4,1069.1 L346.8,1022.6 Q352.1,1018.6 383.8,1018.6 L416.2,1018.6 Q447.9,1018.6 453.2,1022.6 L458.6,1069.1 Z" fill="#c87533" opacity="0.35"/>
<line x1="346.8" y1="1044.5" x2="453.2" y2="1044.5" stroke="#c87533" stroke-width="1" opacity="0.3"/>
<line x1="346.8" y1="1022.6" x2="325.5" y2="1063.5" stroke="#c87533" stroke-width="2" opacity="0.3"/>
<line x1="325.5" y1="1063.5" x2="341.4" y2="1088.1" stroke="#c87533" stroke-width="2" opacity="0.3"/>
<line x1="453.2" y1="1022.6" x2="474.5" y2="1063.5" stroke="#c87533" stroke-width="2" opacity="0.3"/>
<line x1="474.5" y1="1063.5" x2="458.6" y2="1088.1" stroke="#c87533" stroke-width="2" opacity="0.3"/>
<line x1="400.0" y1="945.7" x2="400.0" y2="1018.6" stroke="#c87533" stroke-width="3" opacity="0.35"/>
<circle cx="400.0" cy="905.3" r="40.5" fill="#c87533" opacity="0.4"/>
<rect x="35.0" y="815.0" width="730.0" height="54.0" rx="6" fill="white" stroke="#c87533" stroke-width="1.0" opacity="0.92"/>
<polygon points="254.0,869.0 262.0,869.0 251.0,877.0" fill="white" stroke="#c87533" stroke-width="0.8"/>
<line x1="253.5" y1="869.0" x2="262.5" y2="869.0" stroke="white" stroke-width="1.5"/>
<text x="41.0" y="832.0" font-size="11.0" fill="#c87533" font-weight="700">WREN</text>
<text x="41.0" y="846.0" font-size="11.0" fill="#333333">Luma is right. The file is open. The argument about who knew what can wait. The question now is: does this information change</text>
<text x="41.0" y="860.0" font-size="11.0" fill="#333333">what we do tomorrow?</text>
<rect x="75.4" y="879.0" width="689.6" height="40.0" rx="6" fill="white" stroke="#c87533" stroke-width="1.0" opacity="0.92"/>
<polygon points="282.3,919.0 290.3,919.0 279.3,927.0" fill="white" stroke="#c87533" stroke-width="0.8"/>
<line x1="281.8" y1="919.0" x2="290.8" y2="919.0" stroke="white" stroke-width="1.5"/>
<text x="81.4" y="896.0" font-size="11.0" fill="#c87533" font-weight="700">WREN</text>
<text x="81.4" y="910.0" font-size="11.0" fill="#333333">We still need two components. The Titans are still active. Sable's file does not fix the drive. I fix the drive.</text>
<text x="759.0" y="823.0" text-anchor="end" font-size="12" font-weight="bold" fill="#888888" opacity="0.6">5</text>
<text x="765.0" y="1165.0" text-anchor="end" font-size="9" fill="#888888" opacity="0.5">MW</text>
</svg>