<svg xmlns="http://www.w3.org/2000/svg" viewBox="0 0 800 1200" width="800" height="1200" style="background:#ffffff">
<style>
  text { font-family: "Helvetica Neue", Helvetica, Arial, sans-serif; }
</style>
<text x="400.0" y="22" text-anchor="middle" font-size="16" fill="#888888" font-weight="500">PAGE 2  (5 panels)</text>
<rect x="29.0" y="59.0" width="366.0" height="364.0" rx="2" fill="#f5f0e8" stroke="#2a2a2a" stroke-width="1.5"/>
<path d="M110.1,332.0 Q110.1,281.0 186.5,274.7 L237.5,274.7 Q313.9,281.0 313.9,332.0 L313.9,379.3 L110.1,379.3 Z" fill="#c87533" opacity="0.25"/>
<path d="M189.7,274.7 L212.0,306.5 L234.3,274.7" fill="none" stroke="#c87533" stroke-width="1" opacity="0.3"/>
<circle cx="212.0" cy="204.6" r="63.7" fill="#c87533" opacity="0.35"/>
<path d="M148.3,217.3 Q157.9,274.7 212.0,277.9 Q266.1,274.7 275.7,217.3" fill="none" stroke="#c87533" stroke-width="1.2" opacity="0.3"/>
<path d="M145.1,198.2 Q212.0,121.8 278.9,198.2" fill="none" stroke="#c87533" stroke-width="2" opacity="0.4"/>
<ellipse cx="146.3" cy="207.8" rx="2.5" ry="4" fill="#c87533" opacity="0.25"/>
<ellipse cx="277.7" cy="207.8" rx="2.5" ry="4" fill="#c87533" opacity="0.25"/>
<rect x="35.0" y="67.0" width="354.0" height="82.0" rx="6" fill="white" stroke="#c87533" stroke-width="1.0" opacity="0.92"/>
<polygon points="141.2,149.0 149.2,149.0 138.2,157.0" fill="white" stroke="#c87533" stroke-width="0.8"/>
<line x1="140.7" y1="149.0" x2="149.7" y2="149.0" stroke="white" stroke-width="1.5"/>
<text x="41.0" y="84.0" font-size="11.0" fill="#c87533" font-weight="700">WREN</text>
<text x="41.0" y="98.0" font-size="11.0" fill="#333333">The encrypted file on your data module. The one you check</text>
<text x="41.0" y="112.0" font-size="11.0" fill="#333333">when the squad is asleep. The one you checked the night of</text>
<text x="41.0" y="126.0" font-size="11.0" fill="#333333">the crash, the morning after the crossing, and twice after</text>
<text x="41.0" y="140.0" font-size="11.0" fill="#333333">Luma's briefing.</text>
<text x="383.0" y="75.0" text-anchor="end" font-size="12" font-weight="bold" fill="#888888" opacity="0.6">1</text>
<text x="389.0" y="417.0" text-anchor="end" font-size="9" fill="#888888" opacity="0.5">MCU</text>
<rect x="405.0" y="59.0" width="366.0" height="364.0" rx="2" fill="#f5f0e8" stroke="#2a2a2a" stroke-width="1.5"/>
<path d="M486.1,332.0 Q486.1,281.0 562.5,274.7 L613.5,274.7 Q689.9,281.0 689.9,332.0 L689.9,379.3 L486.1,379.3 Z" fill="#c0b8a8" opacity="0.25"/>
<path d="M565.7,274.7 L588.0,306.5 L610.3,274.7" fill="none" stroke="#c0b8a8" stroke-width="1" opacity="0.3"/>
<circle cx="588.0" cy="204.6" r="63.7" fill="#c0b8a8" opacity="0.35"/>
<path d="M524.3,217.3 Q533.9,274.7 588.0,277.9 Q642.1,274.7 651.7,217.3" fill="none" stroke="#c0b8a8" stroke-width="1.2" opacity="0.3"/>
<path d="M521.1,198.2 Q588.0,121.8 654.9,198.2" fill="none" stroke="#c0b8a8" stroke-width="2" opacity="0.4"/>
<ellipse cx="522.3" cy="207.8" rx="2.5" ry="4" fill="#c0b8a8" opacity="0.25"/>
<ellipse cx="653.7" cy="207.8" rx="2.5" ry="4" fill="#c0b8a8" opacity="0.25"/>
<text x="759.0" y="75.0" text-anchor="end" font-size="12" font-weight="bold" fill="#888888" opacity="0.6">2</text>
<text x="765.0" y="417.0" text-anchor="end" font-size="9" fill="#888888" opacity="0.5">MCU</text>
<rect x="29.0" y="433.0" width="742.0" height="364.0" rx="2" fill="#f5f0e8" stroke="#2a2a2a" stroke-width="1.5"/>
<path d="M341.4,695.1 L346.8,648.6 Q352.1,644.6 383.8,644.6 L416.2,644.6 Q447.9,644.6 453.2,648.6 L458.6,695.1 Z" fill="#c87533" opacity="0.35"/>
<line x1="346.8" y1="670.5" x2="453.2" y2="670.5" stroke="#c87533" stroke-width="1" opacity="0.3"/>
<line x1="346.8" y1="648.6" x2="325.5" y2="689.5" stroke="#c87533" stroke-width="2" opacity="0.3"/>
<line x1="325.5" y1="689.5" x2="341.4" y2="714.1" stroke="#c87533" stroke-width="2" opacity="0.3"/>
<line x1="453.2" y1="648.6" x2="474.5" y2="689.5" stroke="#c87533" stroke-width="2" opacity="0.3"/>
<line x1="474.5" y1="689.5" x2="458.6" y2="714.1" stroke="#c87533" stroke-width="2" opacity="0.3"/>
<line x1="400.0" y1="571.7" x2="400.0" y2="644.6" stroke="#c87533" stroke-width="3" opacity="0.35"/>
<circle cx="400.0" cy="531.3" r="40.5" fill="#c87533" opacity="0.4"/>
<rect x="35.0" y="441.0" width="730.0" height="54.0" rx="6" fill="white" stroke="#c87533" stroke-width="1.0" opacity="0.92"/>
<polygon points="254.0,495.0 262.0,495.0 251.0,503.0" fill="white" stroke="#c87533" stroke-width="0.8"/>
<line x1="253.5" y1="495.0" x2="262.5" y2="495.0" stroke="white" stroke-width="1.5"/>
<text x="41.0" y="458.0" font-size="11.0" fill="#c87533" font-weight="700">WREN</text>
<text x="41.0" y="472.0" font-size="11.0" fill="#333333">Your reaction to Luma's glyph data — you asked about degradation rates. That is not a reconnaissance question. That is an</text>
<text x="41.0" y="486.0" font-size="11.0" fill="#333333">intelligence question from someone who already knew prior teams were deployed.</text>
<rect x="402.1" y="505.0" width="362.9" height="40.0" rx="6" fill="white" stroke="#c87533" stroke-width="1.0" opacity="0.92"/>
<polygon points="511.0,545.0 519.0,545.0 508.0,553.0" fill="white" stroke="#c87533" stroke-width="0.8"/>
<line x1="510.5" y1="545.0" x2="519.5" y2="545.0" stroke="white" stroke-width="1.5"/>
<text x="408.1" y="522.0" font-size="11.0" fill="#c87533" font-weight="700">WREN</text>
<text x="408.1" y="536.0" font-size="11.0" fill="#333333">You did not ask 'were there others.' You asked 'how many.'</text>
<text x="759.0" y="449.0" text-anchor="end" font-size="12" font-weight="bold" fill="#888888" opacity="0.6">3</text>
<text x="765.0" y="791.0" text-anchor="end" font-size="9" fill="#888888" opacity="0.5">MW</text>
<rect x="29.0" y="807.0" width="366.0" height="364.0" rx="2" fill="#f5f0e8" stroke="#2a2a2a" stroke-width="1.5"/>
<ellipse cx="212.0" cy="959.9" rx="114.7" ry="163.8" fill="#c0b8a8" opacity="0.18"/>
<path d="M91.6,902.5 Q212.0,771.5 332.4,902.5" fill="none" stroke="#c0b8a8" stroke-width="3" opacity="0.35"/>
<line x1="171.9" y1="923.8" x2="206.3" y2="921.8" stroke="#a89888" stroke-width="1.5" opacity="0.45"/>
<line x1="217.7" y1="921.8" x2="252.1" y2="923.8" stroke="#a89888" stroke-width="1.5" opacity="0.45"/>
<ellipse cx="179.9" cy="940.2" rx="13.8" ry="8.2" fill="#a89888" opacity="0.45"/>
<ellipse cx="244.1" cy="940.2" rx="13.8" ry="8.2" fill="#a89888" opacity="0.45"/>
<line x1="212.0" y1="963.2" x2="212.0" y2="989.4" stroke="#a89888" stroke-width="1.2" opacity="0.35"/>
<path d="M205.1,989.4 Q212.0,992.4 218.9,989.4" fill="none" stroke="#a89888" stroke-width="1" opacity="0.3"/>
<line x1="183.3" y1="1012.3" x2="240.7" y2="1012.3" stroke="#a89888" stroke-width="1.2" opacity="0.35"/>
<text x="383.0" y="823.0" text-anchor="end" font-size="12" font-weight="bold" fill="#888888" opacity="0.6">4</text>
<text x="389.0" y="1165.0" text-anchor="end" font-size="9" fill="#888888" opacity="0.5">ECU</text>
<rect x="405.0" y="807.0" width="366.0" height="364.0" rx="2" fill="#f5f0e8" stroke="#2a2a2a" stroke-width="1.5"/>
<path d="M486.1,1080.0 Q486.1,1029.0 562.5,1022.7 L613.5,1022.7 Q689.9,1029.0 689.9,1080.0 L689.9,1127.3 L486.1,1127.3 Z" fill="#b0b0b0" opacity="0.25"/>
<path d="M565.7,1022.7 L588.0,1054.5 L610.3,1022.7" fill="none" stroke="#b0b0b0" stroke-width="1" opacity="0.3"/>
<circle cx="588.0" cy="952.6" r="63.7" fill="#b0b0b0" opacity="0.35"/>
<path d="M524.3,965.3 Q533.9,1022.7 588.0,1025.9 Q642.1,1022.7 651.7,965.3" fill="none" stroke="#b0b0b0" stroke-width="1.2" opacity="0.3"/>
<path d="M521.1,946.2 Q588.0,869.8 654.9,946.2" fill="none" stroke="#b0b0b0" stroke-width="2" opacity="0.4"/>
<ellipse cx="522.3" cy="955.8" rx="2.5" ry="4" fill="#b0b0b0" opacity="0.25"/>
<ellipse cx="653.7" cy="955.8" rx="2.5" ry="4" fill="#b0b0b0" opacity="0.25"/>
<rect x="411.0" y="815.0" width="338.7" height="40.0" rx="6" fill="white" stroke="#b0b0b0" stroke-width="1.0" opacity="0.92"/>
<polygon points="512.6,855.0 520.6,855.0 509.6,863.0" fill="white" stroke="#b0b0b0" stroke-width="0.8"/>
<line x1="512.1" y1="855.0" x2="521.1" y2="855.0" stroke="white" stroke-width="1.5"/>
<text x="417.0" y="832.0" font-size="11.0" fill="#b0b0b0" font-weight="700">SABLE</text>
<text x="417.0" y="846.0" font-size="11.0" fill="#333333">...You're right. You've been right for weeks. I don't—</text>
<rect x="613.9" y="865.0" width="151.2" height="40.0" rx="6" fill="white" stroke="#b0b0b0" stroke-width="1.0" opacity="0.92"/>
<polygon points="659.2,905.0 667.2,905.0 656.2,913.0" fill="white" stroke="#b0b0b0" stroke-width="0.8"/>
<line x1="658.7" y1="905.0" x2="667.7" y2="905.0" stroke="white" stroke-width="1.5"/>
<text x="619.9" y="882.0" font-size="11.0" fill="#b0b0b0" font-weight="700">SABLE</text>
<text x="619.9" y="896.0" font-size="11.0" fill="#333333">I'll show you the file.</text>
<text x="759.0" y="823.0" text-anchor="end" font-size="12" font-weight="bold" fill="#888888" opacity="0.6">5</text>
<text x="765.0" y="1165.0" text-anchor="end" font-size="9" fill="#888888" opacity="0.5">MCU</text>
</svg>