<svg xmlns="http://www.w3.org/2000/svg" viewBox="0 0 800 1200" width="800" height="1200" style="background:#ffffff">
<style>
  text { font-family: "Helvetica Neue", Helvetica, Arial, sans-serif; }
</style>
<text x="400.0" y="22" text-anchor="middle" font-size="16" fill="#888888" font-weight="500">PAGE 6  (5 panels)</text>
<rect x="29.0" y="59.0" width="742.0" height="248.9" rx="2" fill="#f5f0e8" stroke="#2a2a2a" stroke-width="1.5"/>
<path d="M360.0,238.2 L363.6,207.7 Q367.2,203.7 388.9,203.7 L411.1,203.7 Q432.8,203.7 436.4,207.7 L440.0,238.2 Z" fill="#b0b0b0" opacity="0.35"/>
<line x1="363.6" y1="221.4" x2="436.4" y2="221.4" stroke="#b0b0b0" stroke-width="1" opacity="0.3"/>
<line x1="363.6" y1="207.7" x2="349.0" y2="235.7" stroke="#b0b0b0" stroke-width="2" opacity="0.3"/>
<line x1="349.0" y1="235.7" x2="360.0" y2="252.5" stroke="#b0b0b0" stroke-width="2" opacity="0.3"/>
<line x1="436.4" y1="207.7" x2="451.0" y2="235.7" stroke="#b0b0b0" stroke-width="2" opacity="0.3"/>
<line x1="451.0" y1="235.7" x2="440.0" y2="252.5" stroke="#b0b0b0" stroke-width="2" opacity="0.3"/>
<line x1="400.0" y1="153.9" x2="400.0" y2="203.7" stroke="#b0b0b0" stroke-width="3" opacity="0.35"/>
<circle cx="400.0" cy="126.2" r="27.7" fill="#b0b0b0" opacity="0.4"/>
<rect x="35.0" y="67.0" width="730.0" height="54.0" rx="6" fill="white" stroke="#b0b0b0" stroke-width="1.0" opacity="0.92"/>
<polygon points="254.0,121.0 262.0,121.0 251.0,129.0" fill="white" stroke="#b0b0b0" stroke-width="0.8"/>
<line x1="253.5" y1="121.0" x2="262.5" y2="121.0" stroke="white" stroke-width="1.5"/>
<text x="41.0" y="84.0" font-size="11.0" fill="#b0b0b0" font-weight="700">SABLE</text>
<text x="41.0" y="98.0" font-size="11.0" fill="#333333">This convergence point is not a standard observation target. It was classified as the critical temporal juncture. The moment</text>
<text x="41.0" y="112.0" font-size="11.0" fill="#333333">where the timeline branches.</text>
<rect x="626.0" y="131.0" width="139.1" height="40.0" rx="6" fill="white" stroke="#6a5acd" stroke-width="1.0" opacity="0.92"/>
<polygon points="667.7,171.0 675.7,171.0 664.7,179.0" fill="white" stroke="#6a5acd" stroke-width="0.8"/>
<line x1="667.2" y1="171.0" x2="676.2" y2="171.0" stroke="white" stroke-width="1.5"/>
<text x="632.0" y="148.0" font-size="11.0" fill="#6a5acd" font-weight="700">LUMA</text>
<text x="632.0" y="162.0" font-size="11.0" fill="#333333">Branches toward what?</text>
<rect x="35.0" y="181.0" width="223.8" height="40.0" rx="6" fill="white" stroke="#b0b0b0" stroke-width="1.0" opacity="0.92"/>
<polygon points="102.1,221.0 110.1,221.0 99.1,229.0" fill="white" stroke="#b0b0b0" stroke-width="0.8"/>
<line x1="101.6" y1="221.0" x2="110.6" y2="221.0" stroke="white" stroke-width="1.5"/>
<text x="41.0" y="198.0" font-size="11.0" fill="#b0b0b0" font-weight="700">SABLE</text>
<text x="41.0" y="212.0" font-size="11.0" fill="#333333">Toward our civilization. Or theirs.</text>
<text x="759.0" y="75.0" text-anchor="end" font-size="12" font-weight="bold" fill="#888888" opacity="0.6">1</text>
<text x="765.0" y="301.9" text-anchor="end" font-size="9" fill="#888888" opacity="0.5">MW</text>
<rect x="29.0" y="317.9" width="240.7" height="421.5" rx="2" fill="#f5f0e8" stroke="#2a2a2a" stroke-width="1.5"/>
<ellipse cx="149.3" cy="495.0" rx="96.3" ry="189.7" fill="#c0b8a8" opacity="0.18"/>
<path d="M48.3,428.6 Q149.3,276.8 250.4,428.6" fill="none" stroke="#c0b8a8" stroke-width="3" opacity="0.35"/>
<line x1="115.6" y1="453.2" x2="144.5" y2="451.2" stroke="#a89888" stroke-width="1.5" opacity="0.45"/>
<line x1="154.1" y1="451.2" x2="183.0" y2="453.2" stroke="#a89888" stroke-width="1.5" opacity="0.45"/>
<ellipse cx="122.4" cy="472.2" rx="11.6" ry="9.5" fill="#a89888" opacity="0.45"/>
<ellipse cx="176.3" cy="472.2" rx="11.6" ry="9.5" fill="#a89888" opacity="0.45"/>
<line x1="149.3" y1="498.8" x2="149.3" y2="529.1" stroke="#a89888" stroke-width="1.2" opacity="0.35"/>
<path d="M143.6,529.1 Q149.3,532.1 155.1,529.1" fill="none" stroke="#a89888" stroke-width="1" opacity="0.3"/>
<line x1="125.3" y1="555.7" x2="173.4" y2="555.7" stroke="#a89888" stroke-width="1.2" opacity="0.35"/>
<text x="257.7" y="333.9" text-anchor="end" font-size="12" font-weight="bold" fill="#888888" opacity="0.6">2</text>
<text x="263.7" y="733.5" text-anchor="end" font-size="9" fill="#888888" opacity="0.5">CU</text>
<rect x="279.7" y="317.9" width="240.7" height="421.5" rx="2" fill="#f5f0e8" stroke="#2a2a2a" stroke-width="1.5"/>
<ellipse cx="400.0" cy="495.0" rx="96.3" ry="189.7" fill="#6a5acd" opacity="0.18"/>
<path d="M298.9,428.6 Q400.0,276.8 501.1,428.6" fill="none" stroke="#6a5acd" stroke-width="3" opacity="0.35"/>
<line x1="366.3" y1="453.2" x2="395.2" y2="451.2" stroke="#a89888" stroke-width="1.5" opacity="0.45"/>
<line x1="404.8" y1="451.2" x2="433.7" y2="453.2" stroke="#a89888" stroke-width="1.5" opacity="0.45"/>
<ellipse cx="373.0" cy="472.2" rx="11.6" ry="9.5" fill="#a89888" opacity="0.45"/>
<ellipse cx="427.0" cy="472.2" rx="11.6" ry="9.5" fill="#a89888" opacity="0.45"/>
<line x1="400.0" y1="498.8" x2="400.0" y2="529.1" stroke="#a89888" stroke-width="1.2" opacity="0.35"/>
<path d="M394.2,529.1 Q400.0,532.1 405.8,529.1" fill="none" stroke="#a89888" stroke-width="1" opacity="0.3"/>
<line x1="375.9" y1="555.7" x2="424.1" y2="555.7" stroke="#a89888" stroke-width="1.2" opacity="0.35"/>
<rect x="285.7" y="325.9" width="228.7" height="51.0" rx="6" fill="white" stroke="#6a5acd" stroke-width="1.0" opacity="0.92"/>
<polygon points="354.3,376.9 362.3,376.9 351.3,384.9" fill="white" stroke="#6a5acd" stroke-width="0.8"/>
<line x1="353.8" y1="376.9" x2="362.8" y2="376.9" stroke="white" stroke-width="1.5"/>
<text x="291.7" y="341.9" font-size="10.0" fill="#6a5acd" font-weight="700">LUMA</text>
<text x="291.7" y="354.9" font-size="10.0" fill="#333333">Prior insertion log. The file references</text>
<text x="291.7" y="367.9" font-size="10.0" fill="#333333">earlier operatives?</text>
<text x="508.3" y="333.9" text-anchor="end" font-size="12" font-weight="bold" fill="#888888" opacity="0.6">3</text>
<text x="514.3" y="733.5" text-anchor="end" font-size="9" fill="#888888" opacity="0.5">CU</text>
<rect x="530.3" y="317.9" width="240.7" height="421.5" rx="2" fill="#f5f0e8" stroke="#2a2a2a" stroke-width="1.5"/>
<ellipse cx="650.7" cy="495.0" rx="96.3" ry="189.7" fill="#2e8b57" opacity="0.18"/>
<path d="M549.6,428.6 Q650.7,276.8 751.7,428.6" fill="none" stroke="#2e8b57" stroke-width="3" opacity="0.35"/>
<line x1="617.0" y1="453.2" x2="645.9" y2="451.2" stroke="#a89888" stroke-width="1.5" opacity="0.45"/>
<line x1="655.5" y1="451.2" x2="684.4" y2="453.2" stroke="#a89888" stroke-width="1.5" opacity="0.45"/>
<ellipse cx="623.7" cy="472.2" rx="11.6" ry="9.5" fill="#a89888" opacity="0.45"/>
<ellipse cx="677.6" cy="472.2" rx="11.6" ry="9.5" fill="#a89888" opacity="0.45"/>
<line x1="650.7" y1="498.8" x2="650.7" y2="529.1" stroke="#a89888" stroke-width="1.2" opacity="0.35"/>
<path d="M644.9,529.1 Q650.7,532.1 656.4,529.1" fill="none" stroke="#a89888" stroke-width="1" opacity="0.3"/>
<line x1="626.6" y1="555.7" x2="674.7" y2="555.7" stroke="#a89888" stroke-width="1.2" opacity="0.35"/>
<rect x="536.3" y="325.9" width="221.0" height="64.0" rx="6" fill="white" stroke="#2e8b57" stroke-width="1.0" opacity="0.92"/>
<polygon points="602.6,389.9 610.6,389.9 599.6,397.9" fill="white" stroke="#2e8b57" stroke-width="0.8"/>
<line x1="602.1" y1="389.9" x2="611.1" y2="389.9" stroke="white" stroke-width="1.5"/>
<text x="542.3" y="341.9" font-size="10.0" fill="#2e8b57" font-weight="700">JINK</text>
<text x="542.3" y="354.9" font-size="10.0" fill="#333333">You knew. This whole time, you knew it</text>
<text x="542.3" y="367.9" font-size="10.0" fill="#333333">was more than recon, and you said</text>
<text x="542.3" y="380.9" font-size="10.0" fill="#333333">nothing.</text>
<text x="759.0" y="333.9" text-anchor="end" font-size="12" font-weight="bold" fill="#888888" opacity="0.6">4</text>
<text x="765.0" y="733.5" text-anchor="end" font-size="9" fill="#888888" opacity="0.5">CU</text>
<rect x="29.0" y="749.5" width="742.0" height="421.5" rx="2" fill="#f5f0e8" stroke="#2a2a2a" stroke-width="1.5"/>
<path d="M332.2,1053.0 L338.4,998.5 Q344.5,994.5 381.3,994.5 L418.7,994.5 Q455.5,994.5 461.6,998.5 L467.8,1053.0 Z" fill="#b0b0b0" opacity="0.35"/>
<line x1="338.4" y1="1024.5" x2="461.6" y2="1024.5" stroke="#b0b0b0" stroke-width="1" opacity="0.3"/>
<line x1="338.4" y1="998.5" x2="313.7" y2="1045.9" stroke="#b0b0b0" stroke-width="2" opacity="0.3"/>
<line x1="313.7" y1="1045.9" x2="332.2" y2="1074.3" stroke="#b0b0b0" stroke-width="2" opacity="0.3"/>
<line x1="461.6" y1="998.5" x2="486.3" y2="1045.9" stroke="#b0b0b0" stroke-width="2" opacity="0.3"/>
<line x1="486.3" y1="1045.9" x2="467.8" y2="1074.3" stroke="#b0b0b0" stroke-width="2" opacity="0.3"/>
<line x1="400.0" y1="910.1" x2="400.0" y2="994.5" stroke="#b0b0b0" stroke-width="3" opacity="0.35"/>
<circle cx="400.0" cy="863.3" r="46.9" fill="#b0b0b0" opacity="0.4"/>
<rect x="35.0" y="757.5" width="725.9" height="54.0" rx="6" fill="white" stroke="#b0b0b0" stroke-width="1.0" opacity="0.92"/>
<polygon points="252.8,811.5 260.8,811.5 249.8,819.5" fill="white" stroke="#b0b0b0" stroke-width="0.8"/>
<line x1="252.3" y1="811.5" x2="261.3" y2="811.5" stroke="white" stroke-width="1.5"/>
<text x="41.0" y="774.5" font-size="11.0" fill="#b0b0b0" font-weight="700">SABLE</text>
<text x="41.0" y="788.5" font-size="11.0" fill="#333333">Previous operatives were deployed to this convergence point. The log references prior insertions. Plural. None of them</text>
<text x="41.0" y="802.5" font-size="11.0" fill="#333333">reported back.</text>
<text x="759.0" y="765.5" text-anchor="end" font-size="12" font-weight="bold" fill="#888888" opacity="0.6">5</text>
<text x="765.0" y="1165.0" text-anchor="end" font-size="9" fill="#888888" opacity="0.5">MED</text>
</svg>