<svg xmlns="http://www.w3.org/2000/svg" viewBox="0 0 800 1200" width="800" height="1200" style="background:#ffffff">
<style>
  text { font-family: "Helvetica Neue", Helvetica, Arial, sans-serif; }
</style>
<text x="400.0" y="22" text-anchor="middle" font-size="16" fill="#888888" font-weight="500">PAGE 5  (4 panels)</text>
<rect x="29.0" y="59.0" width="742.0" height="364.0" rx="2" fill="#f5f0e8" stroke="#2a2a2a" stroke-width="1.5"/>
<line x1="35.0" y1="342.9" x2="765.0" y2="342.9" stroke="#a89888" stroke-width="1.0" opacity="0.5"/>
<ellipse cx="276.3" cy="344.9" rx="11.2" ry="2.7" fill="#a89888" opacity="0.2"/>
<line x1="273.6" y1="327.2" x2="269.6" y2="342.9" stroke="#2e8b57" stroke-width="2" opacity="0.5"/>
<line x1="279.0" y1="327.2" x2="283.1" y2="342.9" stroke="#2e8b57" stroke-width="2" opacity="0.5"/>
<line x1="276.3" y1="314.1" x2="276.3" y2="327.2" stroke="#2e8b57" stroke-width="2.5" opacity="0.6"/>
<line x1="262.8" y1="316.1" x2="289.8" y2="316.1" stroke="#2e8b57" stroke-width="2" opacity="0.5"/>
<line x1="262.8" y1="316.1" x2="258.3" y2="327.6" stroke="#2e8b57" stroke-width="1.5" opacity="0.4"/>
<line x1="289.8" y1="316.1" x2="294.3" y2="327.6" stroke="#2e8b57" stroke-width="1.5" opacity="0.4"/>
<circle cx="276.3" cy="297.9" r="8.1" fill="#2e8b57" opacity="0.6"/>
<ellipse cx="523.7" cy="344.9" rx="11.2" ry="2.7" fill="#a89888" opacity="0.2"/>
<line x1="521.0" y1="327.2" x2="516.9" y2="342.9" stroke="#c87533" stroke-width="2" opacity="0.5"/>
<line x1="526.4" y1="327.2" x2="530.4" y2="342.9" stroke="#c87533" stroke-width="2" opacity="0.5"/>
<line x1="523.7" y1="314.1" x2="523.7" y2="327.2" stroke="#c87533" stroke-width="2.5" opacity="0.6"/>
<line x1="510.2" y1="316.1" x2="537.2" y2="316.1" stroke="#c87533" stroke-width="2" opacity="0.5"/>
<line x1="510.2" y1="316.1" x2="505.7" y2="327.6" stroke="#c87533" stroke-width="1.5" opacity="0.4"/>
<line x1="537.2" y1="316.1" x2="541.7" y2="327.6" stroke="#c87533" stroke-width="1.5" opacity="0.4"/>
<circle cx="523.7" cy="297.9" r="8.1" fill="#c87533" opacity="0.6"/>
<rect x="35.0" y="67.0" width="139.1" height="40.0" rx="6" fill="white" stroke="#2e8b57" stroke-width="1.0" opacity="0.92"/>
<polygon points="76.7,107.0 84.7,107.0 73.7,115.0" fill="white" stroke="#2e8b57" stroke-width="0.8"/>
<line x1="76.2" y1="107.0" x2="85.2" y2="107.0" stroke="white" stroke-width="1.5"/>
<text x="41.0" y="84.0" font-size="11.0" fill="#2e8b57" font-weight="700">JINK</text>
<text x="41.0" y="98.0" font-size="11.0" fill="#333333">What's the emergency?</text>
<rect x="486.8" y="117.0" width="278.2" height="40.0" rx="6" fill="white" stroke="#c87533" stroke-width="1.0" opacity="0.92"/>
<polygon points="570.3,157.0 578.3,157.0 567.3,165.0" fill="white" stroke="#c87533" stroke-width="0.8"/>
<line x1="569.8" y1="157.0" x2="578.8" y2="157.0" stroke="white" stroke-width="1.5"/>
<text x="492.8" y="134.0" font-size="11.0" fill="#c87533" font-weight="700">WREN</text>
<text x="492.8" y="148.0" font-size="11.0" fill="#333333">Sable has something the squad needs to hear.</text>
<text x="759.0" y="75.0" text-anchor="end" font-size="12" font-weight="bold" fill="#888888" opacity="0.6">1</text>
<text x="765.0" y="417.0" text-anchor="end" font-size="9" fill="#888888" opacity="0.5">WIDE</text>
<rect x="29.0" y="433.0" width="742.0" height="364.0" rx="2" fill="#f5f0e8" stroke="#2a2a2a" stroke-width="1.5"/>
<path d="M341.4,695.1 L346.8,648.6 Q352.1,644.6 383.8,644.6 L416.2,644.6 Q447.9,644.6 453.2,648.6 L458.6,695.1 Z" fill="#b0b0b0" opacity="0.35"/>
<line x1="346.8" y1="670.5" x2="453.2" y2="670.5" stroke="#b0b0b0" stroke-width="1" opacity="0.3"/>
<line x1="346.8" y1="648.6" x2="325.5" y2="689.5" stroke="#b0b0b0" stroke-width="2" opacity="0.3"/>
<line x1="325.5" y1="689.5" x2="341.4" y2="714.1" stroke="#b0b0b0" stroke-width="2" opacity="0.3"/>
<line x1="453.2" y1="648.6" x2="474.5" y2="689.5" stroke="#b0b0b0" stroke-width="2" opacity="0.3"/>
<line x1="474.5" y1="689.5" x2="458.6" y2="714.1" stroke="#b0b0b0" stroke-width="2" opacity="0.3"/>
<line x1="400.0" y1="571.7" x2="400.0" y2="644.6" stroke="#b0b0b0" stroke-width="3" opacity="0.35"/>
<circle cx="400.0" cy="531.3" r="40.5" fill="#b0b0b0" opacity="0.4"/>
<rect x="35.0" y="441.0" width="538.4" height="40.0" rx="6" fill="white" stroke="#b0b0b0" stroke-width="1.0" opacity="0.92"/>
<polygon points="196.5,481.0 204.5,481.0 193.5,489.0" fill="white" stroke="#b0b0b0" stroke-width="0.8"/>
<line x1="196.0" y1="481.0" x2="205.0" y2="481.0" stroke="white" stroke-width="1.5"/>
<text x="41.0" y="458.0" font-size="11.0" fill="#b0b0b0" font-weight="700">SABLE</text>
<text x="41.0" y="472.0" font-size="11.0" fill="#333333">This is the mission file. Classification: convergence intervention. Not reconnaissance.</text>
<text x="759.0" y="449.0" text-anchor="end" font-size="12" font-weight="bold" fill="#888888" opacity="0.6">2</text>
<text x="765.0" y="791.0" text-anchor="end" font-size="9" fill="#888888" opacity="0.5">MED</text>
<rect x="29.0" y="807.0" width="366.0" height="364.0" rx="2" fill="#f5f0e8" stroke="#2a2a2a" stroke-width="1.5"/>
<ellipse cx="212.0" cy="959.9" rx="114.7" ry="163.8" fill="#2e8b57" opacity="0.18"/>
<path d="M91.6,902.5 Q212.0,771.5 332.4,902.5" fill="none" stroke="#2e8b57" stroke-width="3" opacity="0.35"/>
<line x1="171.9" y1="923.8" x2="206.3" y2="921.8" stroke="#a89888" stroke-width="1.5" opacity="0.45"/>
<line x1="217.7" y1="921.8" x2="252.1" y2="923.8" stroke="#a89888" stroke-width="1.5" opacity="0.45"/>
<ellipse cx="179.9" cy="940.2" rx="13.8" ry="8.2" fill="#a89888" opacity="0.45"/>
<ellipse cx="244.1" cy="940.2" rx="13.8" ry="8.2" fill="#a89888" opacity="0.45"/>
<line x1="212.0" y1="963.2" x2="212.0" y2="989.4" stroke="#a89888" stroke-width="1.2" opacity="0.35"/>
<path d="M205.1,989.4 Q212.0,992.4 218.9,989.4" fill="none" stroke="#a89888" stroke-width="1" opacity="0.3"/>
<line x1="183.3" y1="1012.3" x2="240.7" y2="1012.3" stroke="#a89888" stroke-width="1.2" opacity="0.35"/>
<rect x="35.0" y="815.0" width="296.4" height="40.0" rx="6" fill="white" stroke="#2e8b57" stroke-width="1.0" opacity="0.92"/>
<polygon points="123.9,855.0 131.9,855.0 120.9,863.0" fill="white" stroke="#2e8b57" stroke-width="0.8"/>
<line x1="123.4" y1="855.0" x2="132.4" y2="855.0" stroke="white" stroke-width="1.5"/>
<text x="41.0" y="832.0" font-size="11.0" fill="#2e8b57" font-weight="700">JINK</text>
<text x="41.0" y="846.0" font-size="11.0" fill="#333333">Intervention. Not recon. You said it was recon.</text>
<text x="383.0" y="823.0" text-anchor="end" font-size="12" font-weight="bold" fill="#888888" opacity="0.6">3</text>
<text x="389.0" y="1165.0" text-anchor="end" font-size="9" fill="#888888" opacity="0.5">CU</text>
<rect x="405.0" y="807.0" width="366.0" height="364.0" rx="2" fill="#f5f0e8" stroke="#2a2a2a" stroke-width="1.5"/>
<ellipse cx="588.0" cy="959.9" rx="114.7" ry="163.8" fill="#b0b0b0" opacity="0.18"/>
<path d="M467.6,902.5 Q588.0,771.5 708.4,902.5" fill="none" stroke="#b0b0b0" stroke-width="3" opacity="0.35"/>
<line x1="547.9" y1="923.8" x2="582.3" y2="921.8" stroke="#a89888" stroke-width="1.5" opacity="0.45"/>
<line x1="593.7" y1="921.8" x2="628.1" y2="923.8" stroke="#a89888" stroke-width="1.5" opacity="0.45"/>
<ellipse cx="555.9" cy="940.2" rx="13.8" ry="8.2" fill="#a89888" opacity="0.45"/>
<ellipse cx="620.1" cy="940.2" rx="13.8" ry="8.2" fill="#a89888" opacity="0.45"/>
<line x1="588.0" y1="963.2" x2="588.0" y2="989.4" stroke="#a89888" stroke-width="1.2" opacity="0.35"/>
<path d="M581.1,989.4 Q588.0,992.4 594.9,989.4" fill="none" stroke="#a89888" stroke-width="1" opacity="0.3"/>
<line x1="559.3" y1="1012.3" x2="616.7" y2="1012.3" stroke="#a89888" stroke-width="1.2" opacity="0.35"/>
<rect x="411.0" y="815.0" width="354.0" height="82.0" rx="6" fill="white" stroke="#b0b0b0" stroke-width="1.0" opacity="0.92"/>
<polygon points="517.2,897.0 525.2,897.0 514.2,905.0" fill="white" stroke="#b0b0b0" stroke-width="0.8"/>
<line x1="516.7" y1="897.0" x2="525.7" y2="897.0" stroke="white" stroke-width="1.5"/>
<text x="417.0" y="832.0" font-size="11.0" fill="#b0b0b0" font-weight="700">SABLE</text>
<text x="417.0" y="846.0" font-size="11.0" fill="#333333">I said what the briefing cover said. The file underneath</text>
<text x="417.0" y="860.0" font-size="11.0" fill="#333333">was classified above my operational clearance. I accessed</text>
<text x="417.0" y="874.0" font-size="11.0" fill="#333333">it after the crash when normal classification protocols</text>
<text x="417.0" y="888.0" font-size="11.0" fill="#333333">became irrelevant.</text>
<text x="759.0" y="823.0" text-anchor="end" font-size="12" font-weight="bold" fill="#888888" opacity="0.6">4</text>
<text x="765.0" y="1165.0" text-anchor="end" font-size="9" fill="#888888" opacity="0.5">CU</text>
</svg>