<svg xmlns="http://www.w3.org/2000/svg" viewBox="0 0 800 1200" width="800" height="1200" style="background:#ffffff">
<style>
  text { font-family: "Helvetica Neue", Helvetica, Arial, sans-serif; }
</style>
<text x="400.0" y="22" text-anchor="middle" font-size="16" fill="#888888" font-weight="500">PAGE 7  (4 panels)</text>
<rect x="29.0" y="59.0" width="366.0" height="551.0" rx="2" fill="#f5f0e8" stroke="#2a2a2a" stroke-width="1.5"/>
<ellipse cx="212.0" cy="290.4" rx="146.4" ry="248.0" fill="#b0b0b0" opacity="0.18"/>
<path d="M58.3,203.6 Q212.0,5.3 365.7,203.6" fill="none" stroke="#b0b0b0" stroke-width="3" opacity="0.35"/>
<line x1="160.8" y1="235.9" x2="204.7" y2="233.9" stroke="#a89888" stroke-width="1.5" opacity="0.45"/>
<line x1="219.3" y1="233.9" x2="263.2" y2="235.9" stroke="#a89888" stroke-width="1.5" opacity="0.45"/>
<ellipse cx="171.0" cy="260.7" rx="17.6" ry="12.4" fill="#a89888" opacity="0.45"/>
<ellipse cx="253.0" cy="260.7" rx="17.6" ry="12.4" fill="#a89888" opacity="0.45"/>
<line x1="212.0" y1="295.4" x2="212.0" y2="335.1" stroke="#a89888" stroke-width="1.2" opacity="0.35"/>
<path d="M203.2,335.1 Q212.0,338.1 220.8,335.1" fill="none" stroke="#a89888" stroke-width="1" opacity="0.3"/>
<line x1="175.4" y1="369.8" x2="248.6" y2="369.8" stroke="#a89888" stroke-width="1.2" opacity="0.35"/>
<rect x="35.0" y="67.0" width="354.0" height="82.0" rx="6" fill="white" stroke="#b0b0b0" stroke-width="1.0" opacity="0.92"/>
<polygon points="141.2,149.0 149.2,149.0 138.2,157.0" fill="white" stroke="#b0b0b0" stroke-width="0.8"/>
<line x1="140.7" y1="149.0" x2="149.7" y2="149.0" stroke="white" stroke-width="1.5"/>
<text x="41.0" y="84.0" font-size="11.0" fill="#b0b0b0" font-weight="700">SABLE</text>
<text x="41.0" y="98.0" font-size="11.0" fill="#333333">The operational specifics — what we were sent to do — were</text>
<text x="41.0" y="112.0" font-size="11.0" fill="#333333">stored here. This segment was destroyed in the crash. I</text>
<text x="41.0" y="126.0" font-size="11.0" fill="#333333">have spent eight weeks trying to reconstruct it. It is</text>
<text x="41.0" y="140.0" font-size="11.0" fill="#333333">gone.</text>
<text x="383.0" y="75.0" text-anchor="end" font-size="12" font-weight="bold" fill="#888888" opacity="0.6">1</text>
<text x="389.0" y="604.0" text-anchor="end" font-size="9" fill="#888888" opacity="0.5">CU</text>
<rect x="405.0" y="59.0" width="366.0" height="551.0" rx="2" fill="#f5f0e8" stroke="#2a2a2a" stroke-width="1.5"/>
<path d="M482.6,411.2 Q482.6,358.5 561.6,351.9 L614.4,351.9 Q693.4,358.5 693.4,411.2 L693.4,543.9 L482.6,543.9 Z" fill="#c87533" opacity="0.25"/>
<path d="M564.9,351.9 L588.0,384.8 L611.1,351.9" fill="none" stroke="#c87533" stroke-width="1" opacity="0.3"/>
<circle cx="588.0" cy="279.4" r="65.9" fill="#c87533" opacity="0.35"/>
<path d="M522.1,292.6 Q532.0,351.9 588.0,355.2 Q644.0,351.9 653.9,292.6" fill="none" stroke="#c87533" stroke-width="1.2" opacity="0.3"/>
<path d="M518.8,272.8 Q588.0,193.8 657.2,272.8" fill="none" stroke="#c87533" stroke-width="2" opacity="0.4"/>
<ellipse cx="520.1" cy="282.7" rx="2.5" ry="4" fill="#c87533" opacity="0.25"/>
<ellipse cx="655.9" cy="282.7" rx="2.5" ry="4" fill="#c87533" opacity="0.25"/>
<rect x="411.0" y="67.0" width="354.0" height="68.0" rx="6" fill="white" stroke="#c87533" stroke-width="1.0" opacity="0.92"/>
<polygon points="517.2,135.0 525.2,135.0 514.2,143.0" fill="white" stroke="#c87533" stroke-width="0.8"/>
<line x1="516.7" y1="135.0" x2="525.7" y2="135.0" stroke="white" stroke-width="1.5"/>
<text x="417.0" y="84.0" font-size="11.0" fill="#c87533" font-weight="700">WREN</text>
<text x="417.0" y="98.0" font-size="11.0" fill="#333333">To be clear. We were sent on an intervention mission. The</text>
<text x="417.0" y="112.0" font-size="11.0" fill="#333333">intervention specifics are destroyed. Sable knows it</text>
<text x="417.0" y="126.0" font-size="11.0" fill="#333333">matters. She does not know what 'it' is.</text>
<text x="759.0" y="75.0" text-anchor="end" font-size="12" font-weight="bold" fill="#888888" opacity="0.6">2</text>
<text x="765.0" y="604.0" text-anchor="end" font-size="9" fill="#888888" opacity="0.5">MCU</text>
<rect x="29.0" y="620.0" width="366.0" height="551.0" rx="2" fill="#f5f0e8" stroke="#2a2a2a" stroke-width="1.5"/>
<path d="M141.5,1016.7 L147.9,909.1 Q154.4,905.1 192.5,905.1 L231.5,905.1 Q269.6,905.1 276.1,909.1 L282.5,1016.7 Z" fill="#6a5acd" opacity="0.35"/>
<line x1="147.9" y1="979.5" x2="276.1" y2="979.5" stroke="#6a5acd" stroke-width="1" opacity="0.3"/>
<line x1="147.9" y1="909.1" x2="122.3" y2="971.1" stroke="#6a5acd" stroke-width="2" opacity="0.3"/>
<line x1="122.3" y1="971.1" x2="141.5" y2="1008.2" stroke="#6a5acd" stroke-width="2" opacity="0.3"/>
<line x1="276.1" y1="909.1" x2="301.7" y2="971.1" stroke="#6a5acd" stroke-width="2" opacity="0.3"/>
<line x1="301.7" y1="971.1" x2="282.5" y2="1008.2" stroke="#6a5acd" stroke-width="2" opacity="0.3"/>
<line x1="212.0" y1="817.4" x2="212.0" y2="905.1" stroke="#6a5acd" stroke-width="3" opacity="0.35"/>
<circle cx="212.0" cy="768.8" r="48.7" fill="#6a5acd" opacity="0.4"/>
<rect x="35.0" y="628.0" width="350.8" height="68.0" rx="6" fill="white" stroke="#6a5acd" stroke-width="1.0" opacity="0.92"/>
<polygon points="140.2,696.0 148.2,696.0 137.2,704.0" fill="white" stroke="#6a5acd" stroke-width="0.8"/>
<line x1="139.7" y1="696.0" x2="148.7" y2="696.0" stroke="white" stroke-width="1.5"/>
<text x="41.0" y="645.0" font-size="11.0" fill="#6a5acd" font-weight="700">LUMA</text>
<text x="41.0" y="659.0" font-size="11.0" fill="#333333">The prior insertions. That is who was in the church. The</text>
<text x="41.0" y="673.0" font-size="11.0" fill="#333333">wing-pack. The dead data core. They were sent before us.</text>
<text x="41.0" y="687.0" font-size="11.0" fill="#333333">And they—</text>
<rect x="189.4" y="706.0" width="199.6" height="40.0" rx="6" fill="white" stroke="#6a5acd" stroke-width="1.0" opacity="0.92"/>
<polygon points="249.3,746.0 257.3,746.0 246.3,754.0" fill="white" stroke="#6a5acd" stroke-width="0.8"/>
<line x1="248.8" y1="746.0" x2="257.8" y2="746.0" stroke="white" stroke-width="1.5"/>
<text x="195.4" y="723.0" font-size="11.0" fill="#6a5acd" font-weight="700">LUMA</text>
<text x="195.4" y="737.0" font-size="11.0" fill="#333333">They stayed. 'STAY.' They knew.</text>
<text x="383.0" y="636.0" text-anchor="end" font-size="12" font-weight="bold" fill="#888888" opacity="0.6">3</text>
<text x="389.0" y="1165.0" text-anchor="end" font-size="9" fill="#888888" opacity="0.5">MED</text>
<rect x="405.0" y="620.0" width="366.0" height="551.0" rx="2" fill="#f5f0e8" stroke="#2a2a2a" stroke-width="1.5"/>
<path d="M517.5,1016.7 L524.0,909.1 Q530.4,905.1 568.5,905.1 L607.5,905.1 Q645.6,905.1 652.0,909.1 L658.5,1016.7 Z" fill="#c0b8a8" opacity="0.35"/>
<line x1="524.0" y1="979.5" x2="652.0" y2="979.5" stroke="#c0b8a8" stroke-width="1" opacity="0.3"/>
<line x1="524.0" y1="909.1" x2="498.3" y2="971.1" stroke="#c0b8a8" stroke-width="2" opacity="0.3"/>
<line x1="498.3" y1="971.1" x2="517.5" y2="1008.2" stroke="#c0b8a8" stroke-width="2" opacity="0.3"/>
<line x1="652.0" y1="909.1" x2="677.7" y2="971.1" stroke="#c0b8a8" stroke-width="2" opacity="0.3"/>
<line x1="677.7" y1="971.1" x2="658.5" y2="1008.2" stroke="#c0b8a8" stroke-width="2" opacity="0.3"/>
<line x1="588.0" y1="817.4" x2="588.0" y2="905.1" stroke="#c0b8a8" stroke-width="3" opacity="0.35"/>
<circle cx="588.0" cy="768.8" r="48.7" fill="#c0b8a8" opacity="0.4"/>
<text x="759.0" y="636.0" text-anchor="end" font-size="12" font-weight="bold" fill="#888888" opacity="0.6">4</text>
<text x="765.0" y="1165.0" text-anchor="end" font-size="9" fill="#888888" opacity="0.5">MED</text>
</svg>