<svg xmlns="http://www.w3.org/2000/svg" viewBox="0 0 800 1200" width="800" height="1200" style="background:#ffffff">
<style>
  text { font-family: "Helvetica Neue", Helvetica, Arial, sans-serif; }
</style>
<text x="400.0" y="22" text-anchor="middle" font-size="16" fill="#888888" font-weight="500">PAGE 20  (4 panels)</text>
<rect x="29.0" y="59.0" width="742.0" height="248.9" rx="2" fill="#f5f0e8" stroke="#2a2a2a" stroke-width="1.5"/>
<ellipse cx="400.0" cy="163.5" rx="78.4" ry="112.0" fill="#c49a6c" opacity="0.18"/>
<path d="M317.7,124.3 Q400.0,34.7 482.3,124.3" fill="none" stroke="#c49a6c" stroke-width="3" opacity="0.35"/>
<line x1="372.6" y1="138.9" x2="396.1" y2="136.9" stroke="#a89888" stroke-width="1.5" opacity="0.45"/>
<line x1="403.9" y1="136.9" x2="427.4" y2="138.9" stroke="#a89888" stroke-width="1.5" opacity="0.45"/>
<ellipse cx="378.0" cy="150.1" rx="9.4" ry="5.6" fill="#a89888" opacity="0.45"/>
<ellipse cx="422.0" cy="150.1" rx="9.4" ry="5.6" fill="#a89888" opacity="0.45"/>
<line x1="400.0" y1="165.8" x2="400.0" y2="183.7" stroke="#a89888" stroke-width="1.2" opacity="0.35"/>
<path d="M395.3,183.7 Q400.0,186.7 404.7,183.7" fill="none" stroke="#a89888" stroke-width="1" opacity="0.3"/>
<line x1="380.4" y1="199.4" x2="419.6" y2="199.4" stroke="#a89888" stroke-width="1.2" opacity="0.35"/>
<rect x="35.0" y="67.0" width="730.0" height="54.0" rx="6" fill="white" stroke="#c49a6c" stroke-width="1.0" opacity="0.92"/>
<polygon points="254.0,121.0 262.0,121.0 251.0,129.0" fill="white" stroke="#c49a6c" stroke-width="0.8"/>
<line x1="253.5" y1="121.0" x2="262.5" y2="121.0" stroke="white" stroke-width="1.5"/>
<text x="41.0" y="84.0" font-size="11.0" fill="#c49a6c" font-weight="700">THEODORE</text>
<text x="41.0" y="98.0" font-size="11.0" fill="#333333">There was a fairy queen, she said, who ruled a kingdom of light and reason. And the queen sent her finest knights on a great</text>
<text x="41.0" y="112.0" font-size="11.0" fill="#333333">quest — across a dark sea, to a land the knights had never known.</text>
<text x="759.0" y="75.0" text-anchor="end" font-size="12" font-weight="bold" fill="#888888" opacity="0.6">1</text>
<text x="765.0" y="301.9" text-anchor="end" font-size="9" fill="#888888" opacity="0.5">CU</text>
<rect x="29.0" y="317.9" width="366.0" height="421.5" rx="2" fill="#f5f0e8" stroke="#2a2a2a" stroke-width="1.5"/>
<ellipse cx="212.0" cy="495.0" rx="132.8" ry="189.7" fill="#c49a6c" opacity="0.18"/>
<path d="M72.6,428.6 Q212.0,276.8 351.4,428.6" fill="none" stroke="#c49a6c" stroke-width="3" opacity="0.35"/>
<line x1="165.5" y1="453.2" x2="205.4" y2="451.2" stroke="#a89888" stroke-width="1.5" opacity="0.45"/>
<line x1="218.6" y1="451.2" x2="258.5" y2="453.2" stroke="#a89888" stroke-width="1.5" opacity="0.45"/>
<ellipse cx="174.8" cy="472.2" rx="15.9" ry="9.5" fill="#a89888" opacity="0.45"/>
<ellipse cx="249.2" cy="472.2" rx="15.9" ry="9.5" fill="#a89888" opacity="0.45"/>
<line x1="212.0" y1="498.8" x2="212.0" y2="529.1" stroke="#a89888" stroke-width="1.2" opacity="0.35"/>
<path d="M204.0,529.1 Q212.0,532.1 220.0,529.1" fill="none" stroke="#a89888" stroke-width="1" opacity="0.3"/>
<line x1="178.8" y1="555.7" x2="245.2" y2="555.7" stroke="#a89888" stroke-width="1.2" opacity="0.35"/>
<rect x="35.0" y="325.9" width="338.7" height="68.0" rx="6" fill="white" stroke="#c49a6c" stroke-width="1.0" opacity="0.92"/>
<polygon points="136.6,393.9 144.6,393.9 133.6,401.9" fill="white" stroke="#c49a6c" stroke-width="0.8"/>
<line x1="136.1" y1="393.9" x2="145.1" y2="393.9" stroke="white" stroke-width="1.5"/>
<text x="41.0" y="342.9" font-size="11.0" fill="#c49a6c" font-weight="700">THEODORE</text>
<text x="41.0" y="356.9" font-size="11.0" fill="#333333">The queen told her knights: bring me the answer to the</text>
<text x="41.0" y="370.9" font-size="11.0" fill="#333333">riddle of the dark land. That is your quest. Solve the</text>
<text x="41.0" y="384.9" font-size="11.0" fill="#333333">riddle and return to me.</text>
<text x="383.0" y="333.9" text-anchor="end" font-size="12" font-weight="bold" fill="#888888" opacity="0.6">2</text>
<text x="389.0" y="733.5" text-anchor="end" font-size="9" fill="#888888" opacity="0.5">CU</text>
<rect x="405.0" y="317.9" width="366.0" height="421.5" rx="2" fill="#f5f0e8" stroke="#2a2a2a" stroke-width="1.5"/>
<ellipse cx="588.0" cy="495.0" rx="132.8" ry="189.7" fill="#c49a6c" opacity="0.18"/>
<path d="M448.6,428.6 Q588.0,276.8 727.4,428.6" fill="none" stroke="#c49a6c" stroke-width="3" opacity="0.35"/>
<line x1="541.5" y1="453.2" x2="581.4" y2="451.2" stroke="#a89888" stroke-width="1.5" opacity="0.45"/>
<line x1="594.6" y1="451.2" x2="634.5" y2="453.2" stroke="#a89888" stroke-width="1.5" opacity="0.45"/>
<ellipse cx="550.8" cy="472.2" rx="15.9" ry="9.5" fill="#a89888" opacity="0.45"/>
<ellipse cx="625.2" cy="472.2" rx="15.9" ry="9.5" fill="#a89888" opacity="0.45"/>
<line x1="588.0" y1="498.8" x2="588.0" y2="529.1" stroke="#a89888" stroke-width="1.2" opacity="0.35"/>
<path d="M580.0,529.1 Q588.0,532.1 596.0,529.1" fill="none" stroke="#a89888" stroke-width="1" opacity="0.3"/>
<line x1="554.8" y1="555.7" x2="621.2" y2="555.7" stroke="#a89888" stroke-width="1.2" opacity="0.35"/>
<rect x="411.0" y="325.9" width="354.0" height="82.0" rx="6" fill="white" stroke="#c49a6c" stroke-width="1.0" opacity="0.92"/>
<polygon points="517.2,407.9 525.2,407.9 514.2,415.9" fill="white" stroke="#c49a6c" stroke-width="0.8"/>
<line x1="516.7" y1="407.9" x2="525.7" y2="407.9" stroke="white" stroke-width="1.5"/>
<text x="417.0" y="342.9" font-size="11.0" fill="#c49a6c" font-weight="700">THEODORE</text>
<text x="417.0" y="356.9" font-size="11.0" fill="#333333">The knights sailed for years. They fought storms and</text>
<text x="417.0" y="370.9" font-size="11.0" fill="#333333">serpents and the dark itself. And when they reached the far</text>
<text x="417.0" y="384.9" font-size="11.0" fill="#333333">shore, they found a land of wonder and terror in equal</text>
<text x="417.0" y="398.9" font-size="11.0" fill="#333333">measure.</text>
<text x="759.0" y="333.9" text-anchor="end" font-size="12" font-weight="bold" fill="#888888" opacity="0.6">3</text>
<text x="765.0" y="733.5" text-anchor="end" font-size="9" fill="#888888" opacity="0.5">CU</text>
<rect x="29.0" y="749.5" width="742.0" height="421.5" rx="2" fill="#f5f0e8" stroke="#2a2a2a" stroke-width="1.5"/>
<path d="M332.2,1053.0 L338.4,998.5 Q344.5,994.5 381.3,994.5 L418.7,994.5 Q455.5,994.5 461.6,998.5 L467.8,1053.0 Z" fill="#c49a6c" opacity="0.35"/>
<line x1="338.4" y1="1024.5" x2="461.6" y2="1024.5" stroke="#c49a6c" stroke-width="1" opacity="0.3"/>
<line x1="338.4" y1="998.5" x2="313.7" y2="1045.9" stroke="#c49a6c" stroke-width="2" opacity="0.3"/>
<line x1="313.7" y1="1045.9" x2="332.2" y2="1074.3" stroke="#c49a6c" stroke-width="2" opacity="0.3"/>
<line x1="461.6" y1="998.5" x2="486.3" y2="1045.9" stroke="#c49a6c" stroke-width="2" opacity="0.3"/>
<line x1="486.3" y1="1045.9" x2="467.8" y2="1074.3" stroke="#c49a6c" stroke-width="2" opacity="0.3"/>
<line x1="400.0" y1="910.1" x2="400.0" y2="994.5" stroke="#c49a6c" stroke-width="3" opacity="0.35"/>
<circle cx="400.0" cy="863.3" r="46.9" fill="#c49a6c" opacity="0.4"/>
<rect x="35.0" y="757.5" width="730.0" height="68.0" rx="6" fill="white" stroke="#c49a6c" stroke-width="1.0" opacity="0.92"/>
<polygon points="254.0,825.5 262.0,825.5 251.0,833.5" fill="white" stroke="#c49a6c" stroke-width="0.8"/>
<line x1="253.5" y1="825.5" x2="262.5" y2="825.5" stroke="white" stroke-width="1.5"/>
<text x="41.0" y="774.5" font-size="11.0" fill="#c49a6c" font-weight="700">THEODORE</text>
<text x="41.0" y="788.5" font-size="11.0" fill="#333333">And the knights searched that land for the riddle's answer. They asked the trees and the rivers and the creatures of the</text>
<text x="41.0" y="802.5" font-size="11.0" fill="#333333">wood. And the trees said: we do not know. And the rivers said: we have always been here. And the creatures said: the answer</text>
<text x="41.0" y="816.5" font-size="11.0" fill="#333333">is not something you find. It is something you become.</text>
<text x="759.0" y="765.5" text-anchor="end" font-size="12" font-weight="bold" fill="#888888" opacity="0.6">4</text>
<text x="765.0" y="1165.0" text-anchor="end" font-size="9" fill="#888888" opacity="0.5">MW</text>
</svg>