<svg xmlns="http://www.w3.org/2000/svg" viewBox="0 0 366 260" width="366" height="260">
  <title>Issue 9 Page 18 Panel 3 — Sable in warm gaslight, Theodore's eye through the gap, "Your company is welcome"</title>
  <desc>Inside camp eye level fairy-scale. Sable on main beam facing wall gap. Soot-darkened silver catches warm amber gaslight — warmest she's been lit this issue. Sharp features softened. Through gap: Theodore's enormous eye, warm brown concerned. Scale: Sable 4 inches, Theodore's eye size of her torso.</desc>
  <defs>
    <linearGradient id="bgI3" x1="0" y1="0" x2="0" y2="1">
      <stop offset="0" stop-color="#1a1410"/>
      <stop offset="0.4" stop-color="#251f15"/>
      <stop offset="1" stop-color="#15110a"/>
    </linearGradient>
    <radialGradient id="gasFromRightI3" cx="0.95" cy="0.5" r="0.5">
      <stop offset="0" stop-color="#f4b860" stop-opacity="0.85"/>
      <stop offset="0.5" stop-color="#a85820" stop-opacity="0.4"/>
      <stop offset="1" stop-color="#15110a" stop-opacity="0"/>
    </radialGradient>
    <linearGradient id="faceLitS_I3" x1="0" y1="0" x2="1" y2="0">
      <stop offset="0" stop-color="#3a261a"/>
      <stop offset="0.5" stop-color="#7a4830"/>
      <stop offset="1" stop-color="#c87838"/>
    </linearGradient>
    <linearGradient id="hairSilWarmI3" x1="0" y1="0" x2="1" y2="0">
      <stop offset="0" stop-color="#9098a0"/>
      <stop offset="0.5" stop-color="#c0b8a8"/>
      <stop offset="1" stop-color="#f4d8a8"/>
    </linearGradient>
    <linearGradient id="silverSuitWarmI3" x1="0" y1="0" x2="0" y2="1">
      <stop offset="0" stop-color="#9a8868"/>
      <stop offset="0.5" stop-color="#5a4a3a"/>
      <stop offset="1" stop-color="#1a1410"/>
    </linearGradient>
    <linearGradient id="beamWoodI3" x1="0" y1="0" x2="0" y2="1">
      <stop offset="0" stop-color="#7a5230"/>
      <stop offset="0.4" stop-color="#5a3a20"/>
      <stop offset="1" stop-color="#1a1008"/>
    </linearGradient>
    <linearGradient id="brickRightI3" x1="0" y1="0" x2="0" y2="1">
      <stop offset="0" stop-color="#5a3828"/>
      <stop offset="0.5" stop-color="#3a2418"/>
      <stop offset="1" stop-color="#1a1008"/>
    </linearGradient>
    <radialGradient id="theoEyeI3" cx="0.5" cy="0.5" r="0.5">
      <stop offset="0" stop-color="#9a6818" stop-opacity="0.95"/>
      <stop offset="0.5" stop-color="#5a3818" stop-opacity="0.7"/>
      <stop offset="1" stop-color="#3a2010" stop-opacity="0"/>
    </radialGradient>
    <radialGradient id="eyeWarmS_I3" cx="0.5" cy="0.5" r="0.5">
      <stop offset="0" stop-color="#ffffff" stop-opacity="0.9"/>
      <stop offset="0.5" stop-color="#f4b860" stop-opacity="0.65"/>
      <stop offset="1" stop-color="#f4b860" stop-opacity="0"/>
    </radialGradient>
    <filter id="bloomI3" x="-20%" y="-20%" width="140%" height="140%">
      <feGaussianBlur stdDeviation="2"/>
    </filter>
    <filter id="strongGlowI3" x="-25%" y="-25%" width="150%" height="150%">
      <feGaussianBlur stdDeviation="4"/>
    </filter>
    <filter id="megaGlowI3" x="-30%" y="-30%" width="160%" height="160%">
      <feGaussianBlur stdDeviation="9"/>
    </filter>
    <filter id="softI3" x="-10%" y="-10%" width="120%" height="120%">
      <feGaussianBlur stdDeviation="0.7"/>
    </filter>
  </defs>

  <rect width="366" height="260" fill="url(#bgI3)"/>
  <rect width="366" height="260" fill="url(#gasFromRightI3)"/>

  <g>
    <rect x="280" y="0" width="86" height="260" fill="url(#brickRightI3)"/>
    <line x1="280" y1="40" x2="366" y2="40" stroke="#3a2818" stroke-width="0.5" opacity="0.85"/>
    <line x1="280" y1="100" x2="366" y2="100" stroke="#3a2818" stroke-width="0.5" opacity="0.85"/>
    <line x1="280" y1="160" x2="366" y2="160" stroke="#3a2818" stroke-width="0.5" opacity="0.85"/>
    <line x1="280" y1="220" x2="366" y2="220" stroke="#3a2818" stroke-width="0.5" opacity="0.85"/>
    <line x1="320" y1="0" x2="320" y2="40" stroke="#3a2818" stroke-width="0.4"/>
    <line x1="340" y1="40" x2="340" y2="100" stroke="#3a2818" stroke-width="0.4"/>
    <line x1="320" y1="100" x2="320" y2="160" stroke="#3a2818" stroke-width="0.4"/>
    <line x1="340" y1="160" x2="340" y2="220" stroke="#3a2818" stroke-width="0.4"/>
  </g>

  <g>
    <path d="M 280 80 Q 276 130 280 180 L 296 180 Q 292 130 296 80 Z" fill="#0a0a14" opacity="0.95"/>
  </g>

  <g opacity="0.85" filter="url(#megaGlowI3)">
    <ellipse cx="290" cy="130" rx="40" ry="50" fill="#f4b860"/>
  </g>

  <g>
    <ellipse cx="288" cy="130" rx="20" ry="14" fill="url(#theoEyeI3)"/>
    <ellipse cx="288" cy="130" rx="14" ry="10" fill="#9a6818"/>
    <ellipse cx="288" cy="130" rx="8" ry="6" fill="#5a3818"/>
    <circle cx="290" cy="128" r="2" fill="#ffffff" opacity="0.95"/>
  </g>
  <g opacity="0.85">
    <path d="M 268 116 Q 288 110 308 116" stroke="#3a2010" stroke-width="1.4" fill="none"/>
    <path d="M 268 116 Q 288 110 308 116 L 308 122 Q 288 116 268 122 Z" fill="#5a3018" opacity="0.5"/>
  </g>

  <g>
    <rect x="20" y="200" width="280" height="14" fill="url(#beamWoodI3)"/>
    <rect x="20" y="200" width="280" height="3" fill="#a87838" opacity="0.7"/>
    <rect x="20" y="212" width="280" height="2" fill="#0e0805" opacity="0.85"/>
  </g>

  <g>
    <ellipse cx="183" cy="240" rx="170" ry="20" fill="#15110a"/>
  </g>

  <g>
    <path d="M 116 80 Q 110 100 116 124 Q 124 152 138 168 Q 156 178 180 178 Q 206 174 222 158 Q 232 134 230 100 Q 224 80 208 66 Q 184 60 162 62 Q 134 70 116 80 Z" fill="url(#faceLitS_I3)" opacity="0.95"/>
  </g>

  <g>
    <path d="M 110 70 Q 124 56 162 52 Q 200 50 220 60 Q 232 72 232 88 L 226 96 Q 216 78 196 70 Q 168 64 144 70 Q 122 78 116 88 Z" fill="url(#hairSilWarmI3)" opacity="0.95"/>
    <g stroke="#cccccc" stroke-width="0.4" opacity="0.6">
      <line x1="124" y1="60" x2="130" y2="74"/>
      <line x1="146" y1="56" x2="148" y2="70"/>
      <line x1="170" y1="54" x2="170" y2="70"/>
      <line x1="194" y1="56" x2="192" y2="70"/>
      <line x1="216" y1="62" x2="212" y2="76"/>
    </g>
  </g>

  <g>
    <ellipse cx="156" cy="116" rx="9" ry="3.5" fill="#0a0604"/>
    <ellipse cx="200" cy="114" rx="10" ry="4" fill="#0a0604"/>
    <circle cx="156" cy="116" r="2.6" fill="#080404"/>
    <circle cx="200" cy="114" r="2.8" fill="#080404"/>
    <circle cx="158" cy="115" r="1.4" fill="url(#eyeWarmS_I3)"/>
    <circle cx="202" cy="113" r="1.6" fill="url(#eyeWarmS_I3)"/>
  </g>

  <g stroke="#0a0604" stroke-width="1.4" stroke-linecap="round" fill="none" opacity="0.85">
    <path d="M 138 106 Q 156 100 174 106"/>
    <path d="M 184 104 Q 200 98 220 106"/>
  </g>

  <path d="M 178 122 Q 174 142 178 158" stroke="#0a0604" stroke-width="1" fill="none" opacity="0.7"/>

  <g>
    <path d="M 152 168 Q 178 174 204 168" stroke="#0a0604" stroke-width="1.3" fill="none"/>
    <path d="M 158 172 Q 178 176 198 172" stroke="#5a3622" stroke-width="0.6" fill="none" opacity="0.6"/>
  </g>

  <g>
    <path d="M 80 196 L 286 192 L 286 240 L 80 240 Z" fill="url(#silverSuitWarmI3)"/>
    <path d="M 110 192 L 160 196 L 200 196 L 250 192 L 250 220 L 110 220 Z" fill="#2a2418" opacity="0.85"/>
  </g>

  <g opacity="0.92">
    <ellipse cx="124" cy="208" rx="7" ry="2" fill="#0a0604"/>
    <ellipse cx="240" cy="208" rx="7" ry="2" fill="#0a0604"/>
    <ellipse cx="184" cy="202" rx="4" ry="1.5" fill="#0a0604"/>
  </g>

  <g opacity="0.85" filter="url(#bloomI3)">
    <ellipse cx="183" cy="218" rx="50" ry="6" fill="#f4b860" opacity="0.4"/>
  </g>

  <g transform="translate(20,228)">
    <path d="M 0 0 Q -8 4 -8 12 Q -8 24 0 28 L 200 28 Q 210 28 212 22 Q 212 8 204 4 Z" fill="#f4f4f4" stroke="#9098a8" stroke-width="1.4"/>
    <path d="M 100 4 L 96 -8 L 108 4 Z" fill="#f4f4f4" stroke="#9098a8" stroke-width="1.2"/>
    <text x="106" y="14" text-anchor="middle" font-family="Helvetica Neue, Helvetica, Arial, sans-serif" font-size="9" font-weight="700" fill="#5a6478">SABLE</text>
    <text x="106" y="24" text-anchor="middle" font-family="Helvetica Neue, Helvetica, Arial, sans-serif" font-size="8.4" fill="#2a2a2a">"Your company is... welcome."</text>
  </g>
</svg>
