<svg xmlns="http://www.w3.org/2000/svg" viewBox="0 0 800 1200" width="800" height="1200" style="background:#ffffff">
<style>
  text { font-family: "Helvetica Neue", Helvetica, Arial, sans-serif; }
</style>
<text x="400.0" y="22" text-anchor="middle" font-size="16" fill="#888888" font-weight="500">PAGE 17  (4 panels)</text>
<rect x="29.0" y="59.0" width="742.0" height="364.0" rx="2" fill="#f5f0e8" stroke="#2a2a2a" stroke-width="1.5"/>
<line x1="35.0" y1="342.9" x2="765.0" y2="342.9" stroke="#a89888" stroke-width="1.0" opacity="0.5"/>
<ellipse cx="276.3" cy="344.9" rx="11.2" ry="2.7" fill="#a89888" opacity="0.2"/>
<line x1="273.6" y1="327.2" x2="269.6" y2="342.9" stroke="#c87533" stroke-width="2" opacity="0.5"/>
<line x1="279.0" y1="327.2" x2="283.1" y2="342.9" stroke="#c87533" stroke-width="2" opacity="0.5"/>
<line x1="276.3" y1="314.1" x2="276.3" y2="327.2" stroke="#c87533" stroke-width="2.5" opacity="0.6"/>
<line x1="262.8" y1="316.1" x2="289.8" y2="316.1" stroke="#c87533" stroke-width="2" opacity="0.5"/>
<line x1="262.8" y1="316.1" x2="258.3" y2="327.6" stroke="#c87533" stroke-width="1.5" opacity="0.4"/>
<line x1="289.8" y1="316.1" x2="294.3" y2="327.6" stroke="#c87533" stroke-width="1.5" opacity="0.4"/>
<circle cx="276.3" cy="297.9" r="8.1" fill="#c87533" opacity="0.6"/>
<ellipse cx="523.7" cy="344.9" rx="11.2" ry="2.7" fill="#a89888" opacity="0.2"/>
<line x1="521.0" y1="327.2" x2="516.9" y2="342.9" stroke="#2e8b57" stroke-width="2" opacity="0.5"/>
<line x1="526.4" y1="327.2" x2="530.4" y2="342.9" stroke="#2e8b57" stroke-width="2" opacity="0.5"/>
<line x1="523.7" y1="314.1" x2="523.7" y2="327.2" stroke="#2e8b57" stroke-width="2.5" opacity="0.6"/>
<line x1="510.2" y1="316.1" x2="537.2" y2="316.1" stroke="#2e8b57" stroke-width="2" opacity="0.5"/>
<line x1="510.2" y1="316.1" x2="505.7" y2="327.6" stroke="#2e8b57" stroke-width="1.5" opacity="0.4"/>
<line x1="537.2" y1="316.1" x2="541.7" y2="327.6" stroke="#2e8b57" stroke-width="1.5" opacity="0.4"/>
<circle cx="523.7" cy="297.9" r="8.1" fill="#2e8b57" opacity="0.6"/>
<rect x="35.0" y="67.0" width="647.2" height="40.0" rx="6" fill="white" stroke="#c87533" stroke-width="1.0" opacity="0.92"/>
<polygon points="229.2,107.0 237.2,107.0 226.2,115.0" fill="white" stroke="#c87533" stroke-width="0.8"/>
<line x1="228.7" y1="107.0" x2="237.7" y2="107.0" stroke="white" stroke-width="1.5"/>
<text x="41.0" y="84.0" font-size="11.0" fill="#c87533" font-weight="700">WREN</text>
<text x="41.0" y="98.0" font-size="11.0" fill="#333333">The coil.&quot; *(She holds it up — a small brass and copper component.)* &quot;Four-minute job. Took a bit longer.</text>
<rect x="656.2" y="117.0" width="108.8" height="40.0" rx="6" fill="white" stroke="#2e8b57" stroke-width="1.0" opacity="0.92"/>
<polygon points="688.8,157.0 696.8,157.0 685.8,165.0" fill="white" stroke="#2e8b57" stroke-width="0.8"/>
<line x1="688.3" y1="157.0" x2="697.3" y2="157.0" stroke="white" stroke-width="1.5"/>
<text x="662.2" y="134.0" font-size="11.0" fill="#2e8b57" font-weight="700">JINK</text>
<text x="662.2" y="148.0" font-size="11.0" fill="#333333">How much longer?</text>
<rect x="35.0" y="167.0" width="72.5" height="40.0" rx="6" fill="white" stroke="#c87533" stroke-width="1.0" opacity="0.92"/>
<polygon points="56.8,207.0 64.8,207.0 53.8,215.0" fill="white" stroke="#c87533" stroke-width="0.8"/>
<line x1="56.2" y1="207.0" x2="65.2" y2="207.0" stroke="white" stroke-width="1.5"/>
<text x="41.0" y="184.0" font-size="11.0" fill="#c87533" font-weight="700">WREN</text>
<text x="41.0" y="198.0" font-size="11.0" fill="#333333">Don't ask.</text>
<text x="759.0" y="75.0" text-anchor="end" font-size="12" font-weight="bold" fill="#888888" opacity="0.6">1</text>
<text x="765.0" y="417.0" text-anchor="end" font-size="9" fill="#888888" opacity="0.5">WIDE</text>
<rect x="29.0" y="433.0" width="366.0" height="364.0" rx="2" fill="#f5f0e8" stroke="#2a2a2a" stroke-width="1.5"/>
<ellipse cx="212.0" cy="585.9" rx="114.7" ry="163.8" fill="#b0b0b0" opacity="0.18"/>
<path d="M91.6,528.5 Q212.0,397.5 332.4,528.5" fill="none" stroke="#b0b0b0" stroke-width="3" opacity="0.35"/>
<line x1="171.9" y1="549.8" x2="206.3" y2="547.8" stroke="#a89888" stroke-width="1.5" opacity="0.45"/>
<line x1="217.7" y1="547.8" x2="252.1" y2="549.8" stroke="#a89888" stroke-width="1.5" opacity="0.45"/>
<ellipse cx="179.9" cy="566.2" rx="13.8" ry="8.2" fill="#a89888" opacity="0.45"/>
<ellipse cx="244.1" cy="566.2" rx="13.8" ry="8.2" fill="#a89888" opacity="0.45"/>
<line x1="212.0" y1="589.2" x2="212.0" y2="615.4" stroke="#a89888" stroke-width="1.2" opacity="0.35"/>
<path d="M205.1,615.4 Q212.0,618.4 218.9,615.4" fill="none" stroke="#a89888" stroke-width="1" opacity="0.3"/>
<line x1="183.3" y1="638.3" x2="240.7" y2="638.3" stroke="#a89888" stroke-width="1.2" opacity="0.35"/>
<rect x="35.0" y="441.0" width="296.4" height="40.0" rx="6" fill="white" stroke="#b0b0b0" stroke-width="1.0" opacity="0.92"/>
<polygon points="123.9,481.0 131.9,481.0 120.9,489.0" fill="white" stroke="#b0b0b0" stroke-width="0.8"/>
<line x1="123.4" y1="481.0" x2="132.4" y2="481.0" stroke="white" stroke-width="1.5"/>
<text x="41.0" y="458.0" font-size="11.0" fill="#b0b0b0" font-weight="700">SABLE</text>
<text x="41.0" y="472.0" font-size="11.0" fill="#333333">Wren. This device. The underlying architecture.</text>
<rect x="44.2" y="491.0" width="344.8" height="54.0" rx="6" fill="white" stroke="#c87533" stroke-width="1.0" opacity="0.92"/>
<polygon points="147.7,545.0 155.7,545.0 144.7,553.0" fill="white" stroke="#c87533" stroke-width="0.8"/>
<line x1="147.2" y1="545.0" x2="156.2" y2="545.0" stroke="white" stroke-width="1.5"/>
<text x="50.2" y="508.0" font-size="11.0" fill="#c87533" font-weight="700">WREN</text>
<text x="50.2" y="522.0" font-size="11.0" fill="#333333">I saw it. Same geometric base as our systems. Different</text>
<text x="50.2" y="536.0" font-size="11.0" fill="#333333">application. Much different.</text>
<rect x="35.0" y="555.0" width="354.0" height="40.0" rx="6" fill="white" stroke="#b0b0b0" stroke-width="1.0" opacity="0.92"/>
<polygon points="141.2,595.0 149.2,595.0 138.2,603.0" fill="white" stroke="#b0b0b0" stroke-width="0.8"/>
<line x1="140.7" y1="595.0" x2="149.7" y2="595.0" stroke="white" stroke-width="1.5"/>
<text x="41.0" y="572.0" font-size="11.0" fill="#b0b0b0" font-weight="700">SABLE</text>
<text x="41.0" y="586.0" font-size="11.0" fill="#333333">They're not just the enemy. They're the other side of us.</text>
<text x="383.0" y="449.0" text-anchor="end" font-size="12" font-weight="bold" fill="#888888" opacity="0.6">2</text>
<text x="389.0" y="791.0" text-anchor="end" font-size="9" fill="#888888" opacity="0.5">CU</text>
<rect x="405.0" y="433.0" width="366.0" height="364.0" rx="2" fill="#f5f0e8" stroke="#2a2a2a" stroke-width="1.5"/>
<path d="M529.4,695.1 L534.8,648.6 Q540.1,644.6 571.8,644.6 L604.2,644.6 Q635.9,644.6 641.2,648.6 L646.6,695.1 Z" fill="#b0b0b0" opacity="0.35"/>
<line x1="534.8" y1="670.5" x2="641.2" y2="670.5" stroke="#b0b0b0" stroke-width="1" opacity="0.3"/>
<line x1="534.8" y1="648.6" x2="513.5" y2="689.5" stroke="#b0b0b0" stroke-width="2" opacity="0.3"/>
<line x1="513.5" y1="689.5" x2="529.4" y2="714.1" stroke="#b0b0b0" stroke-width="2" opacity="0.3"/>
<line x1="641.2" y1="648.6" x2="662.5" y2="689.5" stroke="#b0b0b0" stroke-width="2" opacity="0.3"/>
<line x1="662.5" y1="689.5" x2="646.6" y2="714.1" stroke="#b0b0b0" stroke-width="2" opacity="0.3"/>
<line x1="588.0" y1="571.7" x2="588.0" y2="644.6" stroke="#b0b0b0" stroke-width="3" opacity="0.35"/>
<circle cx="588.0" cy="531.3" r="40.5" fill="#b0b0b0" opacity="0.4"/>
<rect x="411.0" y="441.0" width="284.2" height="40.0" rx="6" fill="white" stroke="#b0b0b0" stroke-width="1.0" opacity="0.92"/>
<polygon points="496.3,481.0 504.3,481.0 493.3,489.0" fill="white" stroke="#b0b0b0" stroke-width="0.8"/>
<line x1="495.8" y1="481.0" x2="504.8" y2="481.0" stroke="white" stroke-width="1.5"/>
<text x="417.0" y="458.0" font-size="11.0" fill="#b0b0b0" font-weight="700">SABLE</text>
<text x="417.0" y="472.0" font-size="11.0" fill="#333333">We move. Humans will be here within the hour.</text>
<rect x="517.0" y="491.0" width="248.0" height="40.0" rx="6" fill="white" stroke="#6a5acd" stroke-width="1.0" opacity="0.92"/>
<polygon points="591.4,531.0 599.4,531.0 588.4,539.0" fill="white" stroke="#6a5acd" stroke-width="0.8"/>
<line x1="590.9" y1="531.0" x2="599.9" y2="531.0" stroke="white" stroke-width="1.5"/>
<text x="523.0" y="508.0" font-size="11.0" fill="#6a5acd" font-weight="700">LUMA</text>
<text x="523.0" y="522.0" font-size="11.0" fill="#333333">The damage. How will they explain this?</text>
<rect x="411.0" y="541.0" width="332.7" height="54.0" rx="6" fill="white" stroke="#b0b0b0" stroke-width="1.0" opacity="0.92"/>
<polygon points="510.8,595.0 518.8,595.0 507.8,603.0" fill="white" stroke="#b0b0b0" stroke-width="0.8"/>
<line x1="510.3" y1="595.0" x2="519.3" y2="595.0" stroke="white" stroke-width="1.5"/>
<text x="417.0" y="558.0" font-size="11.0" fill="#b0b0b0" font-weight="700">SABLE</text>
<text x="417.0" y="572.0" font-size="11.0" fill="#333333">They'll explain it the way they explain everything. A</text>
<text x="417.0" y="586.0" font-size="11.0" fill="#333333">story.</text>
<text x="759.0" y="449.0" text-anchor="end" font-size="12" font-weight="bold" fill="#888888" opacity="0.6">3</text>
<text x="765.0" y="791.0" text-anchor="end" font-size="9" fill="#888888" opacity="0.5">MED</text>
<rect x="29.0" y="807.0" width="742.0" height="364.0" rx="2" fill="#f5f0e8" stroke="#2a2a2a" stroke-width="1.5"/>
<line x1="35.0" y1="1090.9" x2="765.0" y2="1090.9" stroke="#a89888" stroke-width="1.0" opacity="0.5"/>
<ellipse cx="214.5" cy="1092.9" rx="11.2" ry="2.7" fill="#a89888" opacity="0.2"/>
<line x1="211.8" y1="1075.2" x2="207.8" y2="1090.9" stroke="#c0b8a8" stroke-width="2" opacity="0.5"/>
<line x1="217.2" y1="1075.2" x2="221.2" y2="1090.9" stroke="#c0b8a8" stroke-width="2" opacity="0.5"/>
<line x1="214.5" y1="1062.1" x2="214.5" y2="1075.2" stroke="#c0b8a8" stroke-width="2.5" opacity="0.6"/>
<line x1="201.0" y1="1064.1" x2="228.0" y2="1064.1" stroke="#c0b8a8" stroke-width="2" opacity="0.5"/>
<line x1="201.0" y1="1064.1" x2="196.5" y2="1075.6" stroke="#c0b8a8" stroke-width="1.5" opacity="0.4"/>
<line x1="228.0" y1="1064.1" x2="232.5" y2="1075.6" stroke="#c0b8a8" stroke-width="1.5" opacity="0.4"/>
<circle cx="214.5" cy="1045.9" r="8.1" fill="#c0b8a8" opacity="0.6"/>
<ellipse cx="400.0" cy="1092.9" rx="11.2" ry="2.7" fill="#a89888" opacity="0.2"/>
<line x1="397.3" y1="1075.2" x2="393.2" y2="1090.9" stroke="#c0b8a8" stroke-width="2" opacity="0.5"/>
<line x1="402.7" y1="1075.2" x2="406.8" y2="1090.9" stroke="#c0b8a8" stroke-width="2" opacity="0.5"/>
<line x1="400.0" y1="1062.1" x2="400.0" y2="1075.2" stroke="#c0b8a8" stroke-width="2.5" opacity="0.6"/>
<line x1="386.5" y1="1064.1" x2="413.5" y2="1064.1" stroke="#c0b8a8" stroke-width="2" opacity="0.5"/>
<line x1="386.5" y1="1064.1" x2="382.0" y2="1075.6" stroke="#c0b8a8" stroke-width="1.5" opacity="0.4"/>
<line x1="413.5" y1="1064.1" x2="418.0" y2="1075.6" stroke="#c0b8a8" stroke-width="1.5" opacity="0.4"/>
<circle cx="400.0" cy="1045.9" r="8.1" fill="#c0b8a8" opacity="0.6"/>
<ellipse cx="585.5" cy="1092.9" rx="11.2" ry="2.7" fill="#a89888" opacity="0.2"/>
<line x1="582.8" y1="1075.2" x2="578.8" y2="1090.9" stroke="#c0b8a8" stroke-width="2" opacity="0.5"/>
<line x1="588.2" y1="1075.2" x2="592.2" y2="1090.9" stroke="#c0b8a8" stroke-width="2" opacity="0.5"/>
<line x1="585.5" y1="1062.1" x2="585.5" y2="1075.2" stroke="#c0b8a8" stroke-width="2.5" opacity="0.6"/>
<line x1="572.0" y1="1064.1" x2="599.0" y2="1064.1" stroke="#c0b8a8" stroke-width="2" opacity="0.5"/>
<line x1="572.0" y1="1064.1" x2="567.5" y2="1075.6" stroke="#c0b8a8" stroke-width="1.5" opacity="0.4"/>
<line x1="599.0" y1="1064.1" x2="603.5" y2="1075.6" stroke="#c0b8a8" stroke-width="1.5" opacity="0.4"/>
<circle cx="585.5" cy="1045.9" r="8.1" fill="#c0b8a8" opacity="0.6"/>
<text x="759.0" y="823.0" text-anchor="end" font-size="12" font-weight="bold" fill="#888888" opacity="0.6">4</text>
<text x="765.0" y="1165.0" text-anchor="end" font-size="9" fill="#888888" opacity="0.5">WIDE</text>
</svg>