<svg xmlns="http://www.w3.org/2000/svg" viewBox="0 0 800 1200" width="800" height="1200" style="background:#ffffff">
<style>
  text { font-family: "Helvetica Neue", Helvetica, Arial, sans-serif; }
</style>
<text x="400.0" y="22" text-anchor="middle" font-size="16" fill="#888888" font-weight="500">PAGE 14  (4 panels)</text>
<rect x="29.0" y="59.0" width="742.0" height="364.0" rx="2" fill="#f5f0e8" stroke="#2a2a2a" stroke-width="1.5"/>
<line x1="35.0" y1="342.9" x2="765.0" y2="342.9" stroke="#a89888" stroke-width="1.0" opacity="0.5"/>
<ellipse cx="276.3" cy="344.9" rx="11.2" ry="2.7" fill="#a89888" opacity="0.2"/>
<line x1="273.6" y1="327.2" x2="269.6" y2="342.9" stroke="#b0b0b0" stroke-width="2" opacity="0.5"/>
<line x1="279.0" y1="327.2" x2="283.1" y2="342.9" stroke="#b0b0b0" stroke-width="2" opacity="0.5"/>
<line x1="276.3" y1="314.1" x2="276.3" y2="327.2" stroke="#b0b0b0" stroke-width="2.5" opacity="0.6"/>
<line x1="262.8" y1="316.1" x2="289.8" y2="316.1" stroke="#b0b0b0" stroke-width="2" opacity="0.5"/>
<line x1="262.8" y1="316.1" x2="258.3" y2="327.6" stroke="#b0b0b0" stroke-width="1.5" opacity="0.4"/>
<line x1="289.8" y1="316.1" x2="294.3" y2="327.6" stroke="#b0b0b0" stroke-width="1.5" opacity="0.4"/>
<circle cx="276.3" cy="297.9" r="8.1" fill="#b0b0b0" opacity="0.6"/>
<ellipse cx="523.7" cy="344.9" rx="11.2" ry="2.7" fill="#a89888" opacity="0.2"/>
<line x1="521.0" y1="327.2" x2="516.9" y2="342.9" stroke="#b22222" stroke-width="2" opacity="0.5"/>
<line x1="526.4" y1="327.2" x2="530.4" y2="342.9" stroke="#b22222" stroke-width="2" opacity="0.5"/>
<line x1="523.7" y1="314.1" x2="523.7" y2="327.2" stroke="#b22222" stroke-width="2.5" opacity="0.6"/>
<line x1="510.2" y1="316.1" x2="537.2" y2="316.1" stroke="#b22222" stroke-width="2" opacity="0.5"/>
<line x1="510.2" y1="316.1" x2="505.7" y2="327.6" stroke="#b22222" stroke-width="1.5" opacity="0.4"/>
<line x1="537.2" y1="316.1" x2="541.7" y2="327.6" stroke="#b22222" stroke-width="1.5" opacity="0.4"/>
<circle cx="523.7" cy="297.9" r="8.1" fill="#b22222" opacity="0.6"/>
<rect x="35.0" y="67.0" width="241.9" height="40.0" rx="6" fill="white" stroke="#b0b0b0" stroke-width="1.0" opacity="0.92"/>
<polygon points="107.6,107.0 115.6,107.0 104.6,115.0" fill="white" stroke="#b0b0b0" stroke-width="0.8"/>
<line x1="107.1" y1="107.0" x2="116.1" y2="107.0" stroke="white" stroke-width="1.5"/>
<text x="41.0" y="84.0" font-size="11.0" fill="#b0b0b0" font-weight="700">SABLE</text>
<text x="41.0" y="98.0" font-size="11.0" fill="#333333">Cover Wren! Everything you have — NOW!</text>
<rect x="703.0" y="117.0" width="62.0" height="40.0" rx="6" fill="white" stroke="#b22222" stroke-width="1.0" opacity="0.92"/>
<polygon points="721.6,157.0 729.6,157.0 718.6,165.0" fill="white" stroke="#b22222" stroke-width="0.8"/>
<line x1="721.1" y1="157.0" x2="730.1" y2="157.0" stroke="white" stroke-width="1.5"/>
<text x="709.0" y="134.0" font-size="11.0" fill="#b22222" font-weight="700">THRESH</text>
<text x="709.0" y="148.0" font-size="11.0" fill="#333333">Moving!</text>
<text x="759.0" y="75.0" text-anchor="end" font-size="12" font-weight="bold" fill="#888888" opacity="0.6">1</text>
<text x="765.0" y="417.0" text-anchor="end" font-size="9" fill="#888888" opacity="0.5">WIDE</text>
<rect x="29.0" y="433.0" width="238.2" height="364.0" rx="2" fill="#f5f0e8" stroke="#2a2a2a" stroke-width="1.5"/>
<ellipse cx="148.1" cy="585.9" rx="95.3" ry="163.8" fill="#6a5acd" opacity="0.18"/>
<path d="M48.1,528.5 Q148.1,397.5 248.1,528.5" fill="none" stroke="#6a5acd" stroke-width="3" opacity="0.35"/>
<line x1="114.7" y1="549.8" x2="143.3" y2="547.8" stroke="#a89888" stroke-width="1.5" opacity="0.45"/>
<line x1="152.8" y1="547.8" x2="181.4" y2="549.8" stroke="#a89888" stroke-width="1.5" opacity="0.45"/>
<ellipse cx="121.4" cy="566.2" rx="11.4" ry="8.2" fill="#a89888" opacity="0.45"/>
<ellipse cx="174.8" cy="566.2" rx="11.4" ry="8.2" fill="#a89888" opacity="0.45"/>
<line x1="148.1" y1="589.2" x2="148.1" y2="615.4" stroke="#a89888" stroke-width="1.2" opacity="0.35"/>
<path d="M142.4,615.4 Q148.1,618.4 153.8,615.4" fill="none" stroke="#a89888" stroke-width="1" opacity="0.3"/>
<line x1="124.3" y1="638.3" x2="171.9" y2="638.3" stroke="#a89888" stroke-width="1.2" opacity="0.35"/>
<rect x="35.0" y="441.0" width="204.5" height="38.0" rx="6" fill="white" stroke="#6a5acd" stroke-width="1.0" opacity="0.92"/>
<polygon points="96.4,479.0 104.4,479.0 93.4,487.0" fill="white" stroke="#6a5acd" stroke-width="0.8"/>
<line x1="95.9" y1="479.0" x2="104.9" y2="479.0" stroke="white" stroke-width="1.5"/>
<text x="41.0" y="457.0" font-size="10.0" fill="#6a5acd" font-weight="700">LUMA</text>
<text x="41.0" y="470.0" font-size="10.0" fill="#333333">It's moving to intercept! It knows!</text>
<text x="255.2" y="449.0" text-anchor="end" font-size="12" font-weight="bold" fill="#888888" opacity="0.6">2</text>
<text x="261.2" y="791.0" text-anchor="end" font-size="9" fill="#888888" opacity="0.5">CU</text>
<rect x="277.2" y="433.0" width="493.8" height="364.0" rx="2" fill="#f5f0e8" stroke="#2a2a2a" stroke-width="1.5"/>
<line x1="283.2" y1="716.9" x2="765.0" y2="716.9" stroke="#a89888" stroke-width="1.0" opacity="0.5"/>
<ellipse cx="441.8" cy="718.9" rx="11.2" ry="2.7" fill="#a89888" opacity="0.2"/>
<line x1="439.1" y1="701.2" x2="435.0" y2="716.9" stroke="#c87533" stroke-width="2" opacity="0.5"/>
<line x1="444.5" y1="701.2" x2="448.5" y2="716.9" stroke="#c87533" stroke-width="2" opacity="0.5"/>
<line x1="441.8" y1="688.1" x2="441.8" y2="701.2" stroke="#c87533" stroke-width="2.5" opacity="0.6"/>
<line x1="428.3" y1="690.1" x2="455.3" y2="690.1" stroke="#c87533" stroke-width="2" opacity="0.5"/>
<line x1="428.3" y1="690.1" x2="423.8" y2="701.6" stroke="#c87533" stroke-width="1.5" opacity="0.4"/>
<line x1="455.3" y1="690.1" x2="459.8" y2="701.6" stroke="#c87533" stroke-width="1.5" opacity="0.4"/>
<circle cx="441.8" cy="671.9" r="8.1" fill="#c87533" opacity="0.6"/>
<ellipse cx="606.4" cy="718.9" rx="11.2" ry="2.7" fill="#a89888" opacity="0.2"/>
<line x1="603.7" y1="701.2" x2="599.6" y2="716.9" stroke="#b22222" stroke-width="2" opacity="0.5"/>
<line x1="609.1" y1="701.2" x2="613.1" y2="716.9" stroke="#b22222" stroke-width="2" opacity="0.5"/>
<line x1="606.4" y1="688.1" x2="606.4" y2="701.2" stroke="#b22222" stroke-width="2.5" opacity="0.6"/>
<line x1="592.9" y1="690.1" x2="619.9" y2="690.1" stroke="#b22222" stroke-width="2" opacity="0.5"/>
<line x1="592.9" y1="690.1" x2="588.4" y2="701.6" stroke="#b22222" stroke-width="1.5" opacity="0.4"/>
<line x1="619.9" y1="690.1" x2="624.4" y2="701.6" stroke="#b22222" stroke-width="1.5" opacity="0.4"/>
<circle cx="606.4" cy="671.9" r="8.1" fill="#b22222" opacity="0.6"/>
<rect x="283.2" y="441.0" width="151.2" height="40.0" rx="6" fill="white" stroke="#c87533" stroke-width="1.0" opacity="0.92"/>
<polygon points="328.5,481.0 336.5,481.0 325.5,489.0" fill="white" stroke="#c87533" stroke-width="0.8"/>
<line x1="328.0" y1="481.0" x2="337.0" y2="481.0" stroke="white" stroke-width="1.5"/>
<text x="289.2" y="458.0" font-size="11.0" fill="#c87533" font-weight="700">WREN</text>
<text x="289.2" y="472.0" font-size="11.0" fill="#333333">I need fifteen seconds!</text>
<rect x="656.2" y="491.0" width="108.8" height="40.0" rx="6" fill="white" stroke="#b22222" stroke-width="1.0" opacity="0.92"/>
<polygon points="688.8,531.0 696.8,531.0 685.8,539.0" fill="white" stroke="#b22222" stroke-width="0.8"/>
<line x1="688.3" y1="531.0" x2="697.3" y2="531.0" stroke="white" stroke-width="1.5"/>
<text x="662.2" y="508.0" font-size="11.0" fill="#b22222" font-weight="700">THRESH</text>
<text x="662.2" y="522.0" font-size="11.0" fill="#333333">You'll get them!</text>
<text x="759.0" y="449.0" text-anchor="end" font-size="12" font-weight="bold" fill="#888888" opacity="0.6">3</text>
<text x="765.0" y="791.0" text-anchor="end" font-size="9" fill="#888888" opacity="0.5">WIDE</text>
<rect x="29.0" y="807.0" width="742.0" height="364.0" rx="2" fill="#f5f0e8" stroke="#2a2a2a" stroke-width="1.5"/>
<path d="M341.4,1069.1 L346.8,1022.6 Q352.1,1018.6 383.8,1018.6 L416.2,1018.6 Q447.9,1018.6 453.2,1022.6 L458.6,1069.1 Z" fill="#b22222" opacity="0.35"/>
<line x1="346.8" y1="1044.5" x2="453.2" y2="1044.5" stroke="#b22222" stroke-width="1" opacity="0.3"/>
<line x1="346.8" y1="1022.6" x2="325.5" y2="1063.5" stroke="#b22222" stroke-width="2" opacity="0.3"/>
<line x1="325.5" y1="1063.5" x2="341.4" y2="1088.1" stroke="#b22222" stroke-width="2" opacity="0.3"/>
<line x1="453.2" y1="1022.6" x2="474.5" y2="1063.5" stroke="#b22222" stroke-width="2" opacity="0.3"/>
<line x1="474.5" y1="1063.5" x2="458.6" y2="1088.1" stroke="#b22222" stroke-width="2" opacity="0.3"/>
<line x1="400.0" y1="945.7" x2="400.0" y2="1018.6" stroke="#b22222" stroke-width="3" opacity="0.35"/>
<circle cx="400.0" cy="905.3" r="40.5" fill="#b22222" opacity="0.4"/>
<rect x="35.0" y="815.0" width="163.2" height="40.0" rx="6" fill="white" stroke="#b22222" stroke-width="1.0" opacity="0.92"/>
<polygon points="84.0,855.0 92.0,855.0 81.0,863.0" fill="white" stroke="#b22222" stroke-width="0.8"/>
<line x1="83.5" y1="855.0" x2="92.5" y2="855.0" stroke="white" stroke-width="1.5"/>
<text x="41.0" y="832.0" font-size="11.0" fill="#b22222" font-weight="700">THRESH</text>
<text x="41.0" y="846.0" font-size="11.0" fill="#333333">You want her? Through me.</text>
<text x="759.0" y="823.0" text-anchor="end" font-size="12" font-weight="bold" fill="#888888" opacity="0.6">4</text>
<text x="765.0" y="1165.0" text-anchor="end" font-size="9" fill="#888888" opacity="0.5">MW</text>
</svg>