<svg xmlns="http://www.w3.org/2000/svg" viewBox="0 0 800 1200" width="800" height="1200" style="background:#ffffff">
<style>
  text { font-family: "Helvetica Neue", Helvetica, Arial, sans-serif; }
</style>
<text x="400.0" y="22" text-anchor="middle" font-size="16" fill="#888888" font-weight="500">PAGE 8  (5 panels)</text>
<rect x="29.0" y="59.0" width="742.0" height="248.9" rx="2" fill="#f5f0e8" stroke="#2a2a2a" stroke-width="1.5"/>
<line x1="377.7" y1="205.2" x2="311.0" y2="232.6" stroke="#b0b0b0" stroke-width="3" opacity="0.35"/>
<line x1="311.0" y1="232.6" x2="355.5" y2="253.2" stroke="#b0b0b0" stroke-width="3" opacity="0.35"/>
<line x1="422.3" y1="205.2" x2="511.3" y2="225.8" stroke="#b0b0b0" stroke-width="3" opacity="0.35"/>
<line x1="511.3" y1="225.8" x2="533.6" y2="242.2" stroke="#b0b0b0" stroke-width="3" opacity="0.35"/>
<line x1="444.5" y1="160.3" x2="386.6" y2="205.2" stroke="#b0b0b0" stroke-width="3.5" opacity="0.4"/>
<circle cx="444.5" cy="116.3" r="20.0" fill="#b0b0b0" opacity="0.4"/>
<line x1="422.3" y1="180.8" x2="533.6" y2="160.9" stroke="#b0b0b0" stroke-width="2.5" opacity="0.35"/>
<line x1="422.3" y1="180.8" x2="296.1" y2="195.7" stroke="#b0b0b0" stroke-width="2.5" opacity="0.35"/>
<path d="M422.3,173.9 Q333.2,149.1 362.9,129.1" fill="none" stroke="#b0b0b0" stroke-width="1.5" opacity="0.25"/>
<path d="M422.3,173.9 Q511.3,149.1 481.6,129.1" fill="none" stroke="#b0b0b0" stroke-width="1.5" opacity="0.25"/>
<line x1="607.8" y1="138.7" x2="733.9" y2="138.7" stroke="#a89888" stroke-width="1.2" opacity="0.3"/>
<line x1="607.8" y1="163.5" x2="733.9" y2="163.5" stroke="#a89888" stroke-width="1.2" opacity="0.3"/>
<line x1="607.8" y1="188.4" x2="733.9" y2="188.4" stroke="#a89888" stroke-width="1.2" opacity="0.3"/>
<line x1="607.8" y1="213.3" x2="733.9" y2="213.3" stroke="#a89888" stroke-width="1.2" opacity="0.3"/>
<line x1="66.1" y1="108.8" x2="162.6" y2="108.8" stroke="#a89888" stroke-width="1" opacity="0.2"/>
<line x1="66.1" y1="146.1" x2="162.6" y2="146.1" stroke="#a89888" stroke-width="1" opacity="0.2"/>
<line x1="66.1" y1="220.8" x2="162.6" y2="220.8" stroke="#a89888" stroke-width="1" opacity="0.2"/>
<line x1="66.1" y1="258.1" x2="162.6" y2="258.1" stroke="#a89888" stroke-width="1" opacity="0.2"/>
<rect x="35.0" y="67.0" width="145.1" height="40.0" rx="6" fill="white" stroke="#b0b0b0" stroke-width="1.0" opacity="0.92"/>
<polygon points="78.5,107.0 86.5,107.0 75.5,115.0" fill="white" stroke="#b0b0b0" stroke-width="0.8"/>
<line x1="78.0" y1="107.0" x2="87.0" y2="107.0" stroke="white" stroke-width="1.5"/>
<text x="41.0" y="84.0" font-size="11.0" fill="#b0b0b0" font-weight="700">SABLE</text>
<text x="41.0" y="98.0" font-size="11.0" fill="#333333">Positions! Find cover!</text>
<rect x="504.9" y="117.0" width="260.1" height="40.0" rx="6" fill="white" stroke="#c87533" stroke-width="1.0" opacity="0.92"/>
<polygon points="583.0,157.0 591.0,157.0 580.0,165.0" fill="white" stroke="#c87533" stroke-width="0.8"/>
<line x1="582.5" y1="157.0" x2="591.5" y2="157.0" stroke="white" stroke-width="1.5"/>
<text x="510.9" y="134.0" font-size="11.0" fill="#c87533" font-weight="700">WREN</text>
<text x="510.9" y="148.0" font-size="11.0" fill="#333333">My scanner's dead — intermittent at best!</text>
<text x="759.0" y="75.0" text-anchor="end" font-size="12" font-weight="bold" fill="#888888" opacity="0.6">1</text>
<text x="765.0" y="301.9" text-anchor="end" font-size="9" fill="#888888" opacity="0.5">DYN</text>
<rect x="29.0" y="317.9" width="240.7" height="421.5" rx="2" fill="#f5f0e8" stroke="#2a2a2a" stroke-width="1.5"/>
<path d="M103.0,621.4 L107.2,525.4 Q111.4,521.4 136.5,521.4 L162.1,521.4 Q187.2,521.4 191.5,525.4 L195.7,621.4 Z" fill="#b0b0b0" opacity="0.35"/>
<line x1="107.2" y1="593.0" x2="191.5" y2="593.0" stroke="#b0b0b0" stroke-width="1" opacity="0.3"/>
<line x1="107.2" y1="525.4" x2="90.4" y2="572.8" stroke="#b0b0b0" stroke-width="2" opacity="0.3"/>
<line x1="90.4" y1="572.8" x2="103.0" y2="601.2" stroke="#b0b0b0" stroke-width="2" opacity="0.3"/>
<line x1="191.5" y1="525.4" x2="208.3" y2="572.8" stroke="#b0b0b0" stroke-width="2" opacity="0.3"/>
<line x1="208.3" y1="572.8" x2="195.7" y2="601.2" stroke="#b0b0b0" stroke-width="2" opacity="0.3"/>
<line x1="149.3" y1="463.7" x2="149.3" y2="521.4" stroke="#b0b0b0" stroke-width="3" opacity="0.35"/>
<circle cx="149.3" cy="431.7" r="32.0" fill="#b0b0b0" opacity="0.4"/>
<rect x="35.0" y="325.9" width="226.5" height="51.0" rx="6" fill="white" stroke="#b0b0b0" stroke-width="1.0" opacity="0.92"/>
<polygon points="103.0,376.9 111.0,376.9 100.0,384.9" fill="white" stroke="#b0b0b0" stroke-width="0.8"/>
<line x1="102.5" y1="376.9" x2="111.5" y2="376.9" stroke="white" stroke-width="1.5"/>
<text x="41.0" y="341.9" font-size="10.0" fill="#b0b0b0" font-weight="700">SABLE</text>
<text x="41.0" y="354.9" font-size="10.0" fill="#333333">Thresh, hold position! Jink, get high —</text>
<text x="41.0" y="367.9" font-size="10.0" fill="#333333">draw its attention if you can fly!</text>
<text x="257.7" y="333.9" text-anchor="end" font-size="12" font-weight="bold" fill="#888888" opacity="0.6">2</text>
<text x="263.7" y="733.5" text-anchor="end" font-size="9" fill="#888888" opacity="0.5">MED</text>
<rect x="279.7" y="317.9" width="240.7" height="421.5" rx="2" fill="#f5f0e8" stroke="#2a2a2a" stroke-width="1.5"/>
<line x1="392.8" y1="565.6" x2="371.1" y2="611.9" stroke="#2e8b57" stroke-width="3" opacity="0.35"/>
<line x1="371.1" y1="611.9" x2="385.6" y2="646.7" stroke="#2e8b57" stroke-width="3" opacity="0.35"/>
<line x1="407.2" y1="565.6" x2="436.1" y2="600.4" stroke="#2e8b57" stroke-width="3" opacity="0.35"/>
<line x1="436.1" y1="600.4" x2="443.3" y2="628.2" stroke="#2e8b57" stroke-width="3" opacity="0.35"/>
<line x1="414.4" y1="457.2" x2="395.7" y2="565.6" stroke="#2e8b57" stroke-width="3.5" opacity="0.4"/>
<circle cx="414.4" cy="414.9" r="19.3" fill="#2e8b57" opacity="0.4"/>
<line x1="407.2" y1="492.0" x2="443.3" y2="458.3" stroke="#2e8b57" stroke-width="2.5" opacity="0.35"/>
<line x1="407.2" y1="492.0" x2="366.3" y2="517.3" stroke="#2e8b57" stroke-width="2.5" opacity="0.35"/>
<path d="M407.2,480.4 Q378.3,438.3 388.0,404.5" fill="none" stroke="#2e8b57" stroke-width="1.5" opacity="0.25"/>
<path d="M407.2,480.4 Q436.1,438.3 426.5,404.5" fill="none" stroke="#2e8b57" stroke-width="1.5" opacity="0.25"/>
<line x1="467.4" y1="452.8" x2="508.3" y2="452.8" stroke="#a89888" stroke-width="1.2" opacity="0.3"/>
<line x1="467.4" y1="495.0" x2="508.3" y2="495.0" stroke="#a89888" stroke-width="1.2" opacity="0.3"/>
<line x1="467.4" y1="537.1" x2="508.3" y2="537.1" stroke="#a89888" stroke-width="1.2" opacity="0.3"/>
<line x1="467.4" y1="579.3" x2="508.3" y2="579.3" stroke="#a89888" stroke-width="1.2" opacity="0.3"/>
<line x1="291.7" y1="402.2" x2="323.0" y2="402.2" stroke="#a89888" stroke-width="1" opacity="0.2"/>
<line x1="291.7" y1="465.5" x2="323.0" y2="465.5" stroke="#a89888" stroke-width="1" opacity="0.2"/>
<line x1="291.7" y1="591.9" x2="323.0" y2="591.9" stroke="#a89888" stroke-width="1" opacity="0.2"/>
<line x1="291.7" y1="655.2" x2="323.0" y2="655.2" stroke="#a89888" stroke-width="1" opacity="0.2"/>
<rect x="285.7" y="325.9" width="221.0" height="51.0" rx="6" fill="white" stroke="#2e8b57" stroke-width="1.0" opacity="0.92"/>
<polygon points="352.0,376.9 360.0,376.9 349.0,384.9" fill="white" stroke="#2e8b57" stroke-width="0.8"/>
<line x1="351.5" y1="376.9" x2="360.5" y2="376.9" stroke="white" stroke-width="1.5"/>
<text x="291.7" y="341.9" font-size="10.0" fill="#2e8b57" font-weight="700">JINK</text>
<text x="291.7" y="354.9" font-size="10.0" fill="#333333">Wings are garbage — I've got maybe one</text>
<text x="291.7" y="367.9" font-size="10.0" fill="#333333">second in three—</text>
<text x="508.3" y="333.9" text-anchor="end" font-size="12" font-weight="bold" fill="#888888" opacity="0.6">3</text>
<text x="514.3" y="733.5" text-anchor="end" font-size="9" fill="#888888" opacity="0.5">DYN</text>
<rect x="530.3" y="317.9" width="240.7" height="421.5" rx="2" fill="#f5f0e8" stroke="#2a2a2a" stroke-width="1.5"/>
<ellipse cx="650.7" cy="495.0" rx="96.3" ry="189.7" fill="#6a5acd" opacity="0.18"/>
<path d="M549.6,428.6 Q650.7,276.8 751.7,428.6" fill="none" stroke="#6a5acd" stroke-width="3" opacity="0.35"/>
<line x1="617.0" y1="453.2" x2="645.9" y2="451.2" stroke="#a89888" stroke-width="1.5" opacity="0.45"/>
<line x1="655.5" y1="451.2" x2="684.4" y2="453.2" stroke="#a89888" stroke-width="1.5" opacity="0.45"/>
<ellipse cx="623.7" cy="472.2" rx="11.6" ry="9.5" fill="#a89888" opacity="0.45"/>
<ellipse cx="677.6" cy="472.2" rx="11.6" ry="9.5" fill="#a89888" opacity="0.45"/>
<line x1="650.7" y1="498.8" x2="650.7" y2="529.1" stroke="#a89888" stroke-width="1.2" opacity="0.35"/>
<path d="M644.9,529.1 Q650.7,532.1 656.4,529.1" fill="none" stroke="#a89888" stroke-width="1" opacity="0.3"/>
<line x1="626.6" y1="555.7" x2="674.7" y2="555.7" stroke="#a89888" stroke-width="1.2" opacity="0.35"/>
<rect x="536.3" y="325.9" width="228.7" height="77.0" rx="6" fill="white" stroke="#6a5acd" stroke-width="1.0" opacity="0.92"/>
<polygon points="604.9,402.9 612.9,402.9 601.9,410.9" fill="white" stroke="#6a5acd" stroke-width="0.8"/>
<line x1="604.4" y1="402.9" x2="613.4" y2="402.9" stroke="white" stroke-width="1.5"/>
<text x="542.3" y="341.9" font-size="10.0" fill="#6a5acd" font-weight="700">LUMA</text>
<text x="542.3" y="354.9" font-size="10.0" fill="#333333">It's not a blanket EMP — it's</text>
<text x="542.3" y="367.9" font-size="10.0" fill="#333333">frequency-targeted. It's specifically</text>
<text x="542.3" y="380.9" font-size="10.0" fill="#333333">disrupting our technology. It knows what</text>
<text x="542.3" y="393.9" font-size="10.0" fill="#333333">we are.</text>
<text x="759.0" y="333.9" text-anchor="end" font-size="12" font-weight="bold" fill="#888888" opacity="0.6">4</text>
<text x="765.0" y="733.5" text-anchor="end" font-size="9" fill="#888888" opacity="0.5">CU</text>
<rect x="29.0" y="749.5" width="742.0" height="421.5" rx="2" fill="#f5f0e8" stroke="#2a2a2a" stroke-width="1.5"/>
<line x1="377.7" y1="997.1" x2="311.0" y2="1043.5" stroke="#b22222" stroke-width="3" opacity="0.35"/>
<line x1="311.0" y1="1043.5" x2="355.5" y2="1078.3" stroke="#b22222" stroke-width="3" opacity="0.35"/>
<line x1="422.3" y1="997.1" x2="511.3" y2="1031.9" stroke="#b22222" stroke-width="3" opacity="0.35"/>
<line x1="511.3" y1="1031.9" x2="533.6" y2="1059.7" stroke="#b22222" stroke-width="3" opacity="0.35"/>
<line x1="444.5" y1="890.4" x2="386.6" y2="997.1" stroke="#b22222" stroke-width="3.5" opacity="0.4"/>
<circle cx="444.5" cy="846.4" r="20.0" fill="#b22222" opacity="0.4"/>
<line x1="422.3" y1="925.2" x2="533.6" y2="891.5" stroke="#b22222" stroke-width="2.5" opacity="0.35"/>
<line x1="422.3" y1="925.2" x2="296.1" y2="950.5" stroke="#b22222" stroke-width="2.5" opacity="0.35"/>
<path d="M422.3,913.6 Q333.2,871.4 362.9,837.7" fill="none" stroke="#b22222" stroke-width="1.5" opacity="0.25"/>
<path d="M422.3,913.6 Q511.3,871.4 481.6,837.7" fill="none" stroke="#b22222" stroke-width="1.5" opacity="0.25"/>
<line x1="607.8" y1="884.4" x2="733.9" y2="884.4" stroke="#a89888" stroke-width="1.2" opacity="0.3"/>
<line x1="607.8" y1="926.5" x2="733.9" y2="926.5" stroke="#a89888" stroke-width="1.2" opacity="0.3"/>
<line x1="607.8" y1="968.7" x2="733.9" y2="968.7" stroke="#a89888" stroke-width="1.2" opacity="0.3"/>
<line x1="607.8" y1="1010.8" x2="733.9" y2="1010.8" stroke="#a89888" stroke-width="1.2" opacity="0.3"/>
<line x1="66.1" y1="833.8" x2="162.6" y2="833.8" stroke="#a89888" stroke-width="1" opacity="0.2"/>
<line x1="66.1" y1="897.0" x2="162.6" y2="897.0" stroke="#a89888" stroke-width="1" opacity="0.2"/>
<line x1="66.1" y1="1023.5" x2="162.6" y2="1023.5" stroke="#a89888" stroke-width="1" opacity="0.2"/>
<line x1="66.1" y1="1086.7" x2="162.6" y2="1086.7" stroke="#a89888" stroke-width="1" opacity="0.2"/>
<rect x="35.0" y="757.5" width="326.6" height="40.0" rx="6" fill="white" stroke="#b22222" stroke-width="1.0" opacity="0.92"/>
<polygon points="133.0,797.5 141.0,797.5 130.0,805.5" fill="white" stroke="#b22222" stroke-width="0.8"/>
<line x1="132.5" y1="797.5" x2="141.5" y2="797.5" stroke="white" stroke-width="1.5"/>
<text x="41.0" y="774.5" font-size="11.0" fill="#b22222" font-weight="700">THRESH</text>
<text x="41.0" y="788.5" font-size="11.0" fill="#333333">Direct hit — no effect. The charge just... absorbed.</text>
<rect x="474.7" y="807.5" width="290.3" height="40.0" rx="6" fill="white" stroke="#b0b0b0" stroke-width="1.0" opacity="0.92"/>
<polygon points="561.8,847.5 569.8,847.5 558.8,855.5" fill="white" stroke="#b0b0b0" stroke-width="0.8"/>
<line x1="561.3" y1="847.5" x2="570.3" y2="847.5" stroke="white" stroke-width="1.5"/>
<text x="480.7" y="824.5" font-size="11.0" fill="#b0b0b0" font-weight="700">SABLE</text>
<text x="480.7" y="838.5" font-size="11.0" fill="#333333">Conserve ammunition. That's not going to work.</text>
<text x="759.0" y="765.5" text-anchor="end" font-size="12" font-weight="bold" fill="#888888" opacity="0.6">5</text>
<text x="765.0" y="1165.0" text-anchor="end" font-size="9" fill="#888888" opacity="0.5">DYN</text>
</svg>