<svg xmlns="http://www.w3.org/2000/svg" viewBox="0 0 800 1200" width="800" height="1200" style="background:#ffffff">
<style>
  text { font-family: "Helvetica Neue", Helvetica, Arial, sans-serif; }
</style>
<text x="400.0" y="22" text-anchor="middle" font-size="16" fill="#888888" font-weight="500">PAGE 12  (4 panels)</text>
<rect x="29.0" y="59.0" width="742.0" height="248.9" rx="2" fill="#f5f0e8" stroke="#2a2a2a" stroke-width="1.5"/>
<line x1="377.7" y1="205.2" x2="311.0" y2="232.6" stroke="#2e8b57" stroke-width="3" opacity="0.35"/>
<line x1="311.0" y1="232.6" x2="355.5" y2="253.2" stroke="#2e8b57" stroke-width="3" opacity="0.35"/>
<line x1="422.3" y1="205.2" x2="511.3" y2="225.8" stroke="#2e8b57" stroke-width="3" opacity="0.35"/>
<line x1="511.3" y1="225.8" x2="533.6" y2="242.2" stroke="#2e8b57" stroke-width="3" opacity="0.35"/>
<line x1="444.5" y1="160.3" x2="386.6" y2="205.2" stroke="#2e8b57" stroke-width="3.5" opacity="0.4"/>
<circle cx="444.5" cy="116.3" r="20.0" fill="#2e8b57" opacity="0.4"/>
<line x1="422.3" y1="180.8" x2="533.6" y2="160.9" stroke="#2e8b57" stroke-width="2.5" opacity="0.35"/>
<line x1="422.3" y1="180.8" x2="296.1" y2="195.7" stroke="#2e8b57" stroke-width="2.5" opacity="0.35"/>
<path d="M422.3,173.9 Q333.2,149.1 362.9,129.1" fill="none" stroke="#2e8b57" stroke-width="1.5" opacity="0.25"/>
<path d="M422.3,173.9 Q511.3,149.1 481.6,129.1" fill="none" stroke="#2e8b57" stroke-width="1.5" opacity="0.25"/>
<line x1="607.8" y1="138.7" x2="733.9" y2="138.7" stroke="#a89888" stroke-width="1.2" opacity="0.3"/>
<line x1="607.8" y1="163.5" x2="733.9" y2="163.5" stroke="#a89888" stroke-width="1.2" opacity="0.3"/>
<line x1="607.8" y1="188.4" x2="733.9" y2="188.4" stroke="#a89888" stroke-width="1.2" opacity="0.3"/>
<line x1="607.8" y1="213.3" x2="733.9" y2="213.3" stroke="#a89888" stroke-width="1.2" opacity="0.3"/>
<line x1="66.1" y1="108.8" x2="162.6" y2="108.8" stroke="#a89888" stroke-width="1" opacity="0.2"/>
<line x1="66.1" y1="146.1" x2="162.6" y2="146.1" stroke="#a89888" stroke-width="1" opacity="0.2"/>
<line x1="66.1" y1="220.8" x2="162.6" y2="220.8" stroke="#a89888" stroke-width="1" opacity="0.2"/>
<line x1="66.1" y1="258.1" x2="162.6" y2="258.1" stroke="#a89888" stroke-width="1" opacity="0.2"/>
<rect x="35.0" y="67.0" width="199.6" height="40.0" rx="6" fill="white" stroke="#2e8b57" stroke-width="1.0" opacity="0.92"/>
<polygon points="94.9,107.0 102.9,107.0 91.9,115.0" fill="white" stroke="#2e8b57" stroke-width="0.8"/>
<line x1="94.4" y1="107.0" x2="103.4" y2="107.0" stroke="white" stroke-width="1.5"/>
<text x="41.0" y="84.0" font-size="11.0" fill="#2e8b57" font-weight="700">JINK</text>
<text x="41.0" y="98.0" font-size="11.0" fill="#333333">Wings dying — I'm going manual—</text>
<rect x="523.1" y="117.0" width="241.9" height="40.0" rx="6" fill="white" stroke="#b0b0b0" stroke-width="1.0" opacity="0.92"/>
<polygon points="595.7,157.0 603.7,157.0 592.7,165.0" fill="white" stroke="#b0b0b0" stroke-width="0.8"/>
<line x1="595.2" y1="157.0" x2="604.2" y2="157.0" stroke="white" stroke-width="1.5"/>
<text x="529.1" y="134.0" font-size="11.0" fill="#b0b0b0" font-weight="700">SABLE</text>
<text x="529.1" y="148.0" font-size="11.0" fill="#333333">Get to cover! Next gap in ten seconds!</text>
<text x="759.0" y="75.0" text-anchor="end" font-size="12" font-weight="bold" fill="#888888" opacity="0.6">1</text>
<text x="765.0" y="301.9" text-anchor="end" font-size="9" fill="#888888" opacity="0.5">DYN</text>
<rect x="29.0" y="317.9" width="366.0" height="421.5" rx="2" fill="#f5f0e8" stroke="#2a2a2a" stroke-width="1.5"/>
<path d="M144.2,621.4 L150.3,566.9 Q156.5,562.9 193.3,562.9 L230.7,562.9 Q267.5,562.9 273.6,566.9 L279.8,621.4 Z" fill="#2e8b57" opacity="0.35"/>
<line x1="150.3" y1="593.0" x2="273.6" y2="593.0" stroke="#2e8b57" stroke-width="1" opacity="0.3"/>
<line x1="150.3" y1="566.9" x2="125.7" y2="614.4" stroke="#2e8b57" stroke-width="2" opacity="0.3"/>
<line x1="125.7" y1="614.4" x2="144.2" y2="642.8" stroke="#2e8b57" stroke-width="2" opacity="0.3"/>
<line x1="273.6" y1="566.9" x2="298.3" y2="614.4" stroke="#2e8b57" stroke-width="2" opacity="0.3"/>
<line x1="298.3" y1="614.4" x2="279.8" y2="642.8" stroke="#2e8b57" stroke-width="2" opacity="0.3"/>
<line x1="212.0" y1="478.6" x2="212.0" y2="562.9" stroke="#2e8b57" stroke-width="3" opacity="0.35"/>
<circle cx="212.0" cy="431.7" r="46.9" fill="#2e8b57" opacity="0.4"/>
<rect x="35.0" y="325.9" width="290.3" height="40.0" rx="6" fill="white" stroke="#2e8b57" stroke-width="1.0" opacity="0.92"/>
<polygon points="122.1,365.9 130.1,365.9 119.1,373.9" fill="white" stroke="#2e8b57" stroke-width="0.8"/>
<line x1="121.6" y1="365.9" x2="130.6" y2="365.9" stroke="white" stroke-width="1.5"/>
<text x="41.0" y="342.9" font-size="11.0" fill="#2e8b57" font-weight="700">JINK</text>
<text x="41.0" y="356.9" font-size="11.0" fill="#333333">Wing-pack is cooking. I can't keep doing that.</text>
<text x="383.0" y="333.9" text-anchor="end" font-size="12" font-weight="bold" fill="#888888" opacity="0.6">2</text>
<text x="389.0" y="733.5" text-anchor="end" font-size="9" fill="#888888" opacity="0.5">MED</text>
<rect x="405.0" y="317.9" width="366.0" height="421.5" rx="2" fill="#f5f0e8" stroke="#2a2a2a" stroke-width="1.5"/>
<ellipse cx="588.0" cy="495.0" rx="132.8" ry="189.7" fill="#c0b8a8" opacity="0.18"/>
<path d="M448.6,428.6 Q588.0,276.8 727.4,428.6" fill="none" stroke="#c0b8a8" stroke-width="3" opacity="0.35"/>
<line x1="541.5" y1="453.2" x2="581.4" y2="451.2" stroke="#a89888" stroke-width="1.5" opacity="0.45"/>
<line x1="594.6" y1="451.2" x2="634.5" y2="453.2" stroke="#a89888" stroke-width="1.5" opacity="0.45"/>
<ellipse cx="550.8" cy="472.2" rx="15.9" ry="9.5" fill="#a89888" opacity="0.45"/>
<ellipse cx="625.2" cy="472.2" rx="15.9" ry="9.5" fill="#a89888" opacity="0.45"/>
<line x1="588.0" y1="498.8" x2="588.0" y2="529.1" stroke="#a89888" stroke-width="1.2" opacity="0.35"/>
<path d="M580.0,529.1 Q588.0,532.1 596.0,529.1" fill="none" stroke="#a89888" stroke-width="1" opacity="0.3"/>
<line x1="554.8" y1="555.7" x2="621.2" y2="555.7" stroke="#a89888" stroke-width="1.2" opacity="0.35"/>
<text x="759.0" y="333.9" text-anchor="end" font-size="12" font-weight="bold" fill="#888888" opacity="0.6">3</text>
<text x="765.0" y="733.5" text-anchor="end" font-size="9" fill="#888888" opacity="0.5">CU</text>
<rect x="29.0" y="749.5" width="742.0" height="421.5" rx="2" fill="#f5f0e8" stroke="#2a2a2a" stroke-width="1.5"/>
<line x1="35.0" y1="1078.3" x2="765.0" y2="1078.3" stroke="#a89888" stroke-width="1.0" opacity="0.5"/>
<ellipse cx="276.3" cy="1080.3" rx="11.2" ry="2.7" fill="#a89888" opacity="0.2"/>
<line x1="273.6" y1="1062.5" x2="269.6" y2="1078.3" stroke="#b22222" stroke-width="2" opacity="0.5"/>
<line x1="279.0" y1="1062.5" x2="283.1" y2="1078.3" stroke="#b22222" stroke-width="2" opacity="0.5"/>
<line x1="276.3" y1="1049.5" x2="276.3" y2="1062.5" stroke="#b22222" stroke-width="2.5" opacity="0.6"/>
<line x1="262.8" y1="1051.5" x2="289.8" y2="1051.5" stroke="#b22222" stroke-width="2" opacity="0.5"/>
<line x1="262.8" y1="1051.5" x2="258.3" y2="1063.0" stroke="#b22222" stroke-width="1.5" opacity="0.4"/>
<line x1="289.8" y1="1051.5" x2="294.3" y2="1063.0" stroke="#b22222" stroke-width="1.5" opacity="0.4"/>
<circle cx="276.3" cy="1033.3" r="8.1" fill="#b22222" opacity="0.6"/>
<ellipse cx="523.7" cy="1080.3" rx="11.2" ry="2.7" fill="#a89888" opacity="0.2"/>
<line x1="521.0" y1="1062.5" x2="516.9" y2="1078.3" stroke="#b0b0b0" stroke-width="2" opacity="0.5"/>
<line x1="526.4" y1="1062.5" x2="530.4" y2="1078.3" stroke="#b0b0b0" stroke-width="2" opacity="0.5"/>
<line x1="523.7" y1="1049.5" x2="523.7" y2="1062.5" stroke="#b0b0b0" stroke-width="2.5" opacity="0.6"/>
<line x1="510.2" y1="1051.5" x2="537.2" y2="1051.5" stroke="#b0b0b0" stroke-width="2" opacity="0.5"/>
<line x1="510.2" y1="1051.5" x2="505.7" y2="1063.0" stroke="#b0b0b0" stroke-width="1.5" opacity="0.4"/>
<line x1="537.2" y1="1051.5" x2="541.7" y2="1063.0" stroke="#b0b0b0" stroke-width="1.5" opacity="0.4"/>
<circle cx="523.7" cy="1033.3" r="8.1" fill="#b0b0b0" opacity="0.6"/>
<rect x="35.0" y="757.5" width="387.1" height="40.0" rx="6" fill="white" stroke="#b22222" stroke-width="1.0" opacity="0.92"/>
<polygon points="151.1,797.5 159.1,797.5 148.1,805.5" fill="white" stroke="#b22222" stroke-width="0.8"/>
<line x1="150.6" y1="797.5" x2="159.6" y2="797.5" stroke="white" stroke-width="1.5"/>
<text x="41.0" y="774.5" font-size="11.0" fill="#b22222" font-weight="700">THRESH</text>
<text x="41.0" y="788.5" font-size="11.0" fill="#333333">Sable. I'm going to keep it busy. Get Wren whatever she needs.</text>
<rect x="703.0" y="807.5" width="62.0" height="40.0" rx="6" fill="white" stroke="#b0b0b0" stroke-width="1.0" opacity="0.92"/>
<polygon points="721.6,847.5 729.6,847.5 718.6,855.5" fill="white" stroke="#b0b0b0" stroke-width="0.8"/>
<line x1="721.1" y1="847.5" x2="730.1" y2="847.5" stroke="white" stroke-width="1.5"/>
<text x="709.0" y="824.5" font-size="11.0" fill="#b0b0b0" font-weight="700">SABLE</text>
<text x="709.0" y="838.5" font-size="11.0" fill="#333333">Thresh—</text>
<rect x="35.0" y="857.5" width="96.7" height="40.0" rx="6" fill="white" stroke="#b22222" stroke-width="1.0" opacity="0.92"/>
<polygon points="64.0,897.5 72.0,897.5 61.0,905.5" fill="white" stroke="#b22222" stroke-width="0.8"/>
<line x1="63.5" y1="897.5" x2="72.5" y2="897.5" stroke="white" stroke-width="1.5"/>
<text x="41.0" y="874.5" font-size="11.0" fill="#b22222" font-weight="700">THRESH</text>
<text x="41.0" y="888.5" font-size="11.0" fill="#333333">That's my job.</text>
<text x="759.0" y="765.5" text-anchor="end" font-size="12" font-weight="bold" fill="#888888" opacity="0.6">4</text>
<text x="765.0" y="1165.0" text-anchor="end" font-size="9" fill="#888888" opacity="0.5">WIDE</text>
</svg>