<svg xmlns="http://www.w3.org/2000/svg" viewBox="0 0 800 1200" width="800" height="1200" style="background:#ffffff">
<style>
  text { font-family: "Helvetica Neue", Helvetica, Arial, sans-serif; }
</style>
<text x="400.0" y="22" text-anchor="middle" font-size="16" fill="#888888" font-weight="500">PAGE 18  (4 panels)</text>
<rect x="29.0" y="59.0" width="742.0" height="364.0" rx="2" fill="#f5f0e8" stroke="#2a2a2a" stroke-width="1.5"/>
<line x1="35.0" y1="342.9" x2="765.0" y2="342.9" stroke="#a89888" stroke-width="1.0" opacity="0.5"/>
<ellipse cx="276.3" cy="344.9" rx="11.2" ry="2.7" fill="#a89888" opacity="0.2"/>
<line x1="273.6" y1="327.2" x2="269.6" y2="342.9" stroke="#999999" stroke-width="2" opacity="0.5"/>
<line x1="279.0" y1="327.2" x2="283.1" y2="342.9" stroke="#999999" stroke-width="2" opacity="0.5"/>
<line x1="276.3" y1="314.1" x2="276.3" y2="327.2" stroke="#999999" stroke-width="2.5" opacity="0.6"/>
<line x1="262.8" y1="316.1" x2="289.8" y2="316.1" stroke="#999999" stroke-width="2" opacity="0.5"/>
<line x1="262.8" y1="316.1" x2="258.3" y2="327.6" stroke="#999999" stroke-width="1.5" opacity="0.4"/>
<line x1="289.8" y1="316.1" x2="294.3" y2="327.6" stroke="#999999" stroke-width="1.5" opacity="0.4"/>
<circle cx="276.3" cy="297.9" r="8.1" fill="#999999" opacity="0.6"/>
<ellipse cx="523.7" cy="344.9" rx="11.2" ry="2.7" fill="#a89888" opacity="0.2"/>
<line x1="521.0" y1="327.2" x2="516.9" y2="342.9" stroke="#999999" stroke-width="2" opacity="0.5"/>
<line x1="526.4" y1="327.2" x2="530.4" y2="342.9" stroke="#999999" stroke-width="2" opacity="0.5"/>
<line x1="523.7" y1="314.1" x2="523.7" y2="327.2" stroke="#999999" stroke-width="2.5" opacity="0.6"/>
<line x1="510.2" y1="316.1" x2="537.2" y2="316.1" stroke="#999999" stroke-width="2" opacity="0.5"/>
<line x1="510.2" y1="316.1" x2="505.7" y2="327.6" stroke="#999999" stroke-width="1.5" opacity="0.4"/>
<line x1="537.2" y1="316.1" x2="541.7" y2="327.6" stroke="#999999" stroke-width="1.5" opacity="0.4"/>
<circle cx="523.7" cy="297.9" r="8.1" fill="#999999" opacity="0.6"/>
<rect x="35.0" y="67.0" width="689.6" height="40.0" rx="6" fill="white" stroke="#999999" stroke-width="1.0" opacity="0.92"/>
<polygon points="241.9,107.0 249.9,107.0 238.9,115.0" fill="white" stroke="#999999" stroke-width="0.8"/>
<line x1="241.4" y1="107.0" x2="250.4" y2="107.0" stroke="white" stroke-width="1.5"/>
<text x="41.0" y="84.0" font-size="11.0" fill="#999999" font-weight="700">WORKER</text>
<text x="41.0" y="98.0" font-size="11.0" fill="#333333">The machines are smashed! Every one of them — smashed to pieces! And the wall — something came THROUGH the wall!</text>
<rect x="680.4" y="117.0" width="84.6" height="40.0" rx="6" fill="white" stroke="#999999" stroke-width="1.0" opacity="0.92"/>
<polygon points="705.8,157.0 713.8,157.0 702.8,165.0" fill="white" stroke="#999999" stroke-width="0.8"/>
<line x1="705.3" y1="157.0" x2="714.3" y2="157.0" stroke="white" stroke-width="1.5"/>
<text x="686.4" y="134.0" font-size="11.0" fill="#999999" font-weight="700">CONSTABLE</text>
<text x="686.4" y="148.0" font-size="11.0" fill="#333333">From inside?</text>
<rect x="35.0" y="167.0" width="211.7" height="40.0" rx="6" fill="white" stroke="#999999" stroke-width="1.0" opacity="0.92"/>
<polygon points="98.5,207.0 106.5,207.0 95.5,215.0" fill="white" stroke="#999999" stroke-width="0.8"/>
<line x1="98.0" y1="207.0" x2="107.0" y2="207.0" stroke="white" stroke-width="1.5"/>
<text x="41.0" y="184.0" font-size="11.0" fill="#999999" font-weight="700">WORKER</text>
<text x="41.0" y="198.0" font-size="11.0" fill="#333333">From inside. From the inside OUT.</text>
<text x="759.0" y="75.0" text-anchor="end" font-size="12" font-weight="bold" fill="#888888" opacity="0.6">1</text>
<text x="765.0" y="417.0" text-anchor="end" font-size="9" fill="#888888" opacity="0.5">EST</text>
<rect x="29.0" y="433.0" width="366.0" height="364.0" rx="2" fill="#f5f0e8" stroke="#2a2a2a" stroke-width="1.5"/>
<path d="M153.4,695.1 L158.8,648.6 Q164.1,644.6 195.8,644.6 L228.2,644.6 Q259.9,644.6 265.2,648.6 L270.6,695.1 Z" fill="#999999" opacity="0.35"/>
<line x1="158.8" y1="670.5" x2="265.2" y2="670.5" stroke="#999999" stroke-width="1" opacity="0.3"/>
<line x1="158.8" y1="648.6" x2="137.5" y2="689.5" stroke="#999999" stroke-width="2" opacity="0.3"/>
<line x1="137.5" y1="689.5" x2="153.4" y2="714.1" stroke="#999999" stroke-width="2" opacity="0.3"/>
<line x1="265.2" y1="648.6" x2="286.5" y2="689.5" stroke="#999999" stroke-width="2" opacity="0.3"/>
<line x1="286.5" y1="689.5" x2="270.6" y2="714.1" stroke="#999999" stroke-width="2" opacity="0.3"/>
<line x1="212.0" y1="571.7" x2="212.0" y2="644.6" stroke="#999999" stroke-width="3" opacity="0.35"/>
<circle cx="212.0" cy="531.3" r="40.5" fill="#999999" opacity="0.4"/>
<rect x="35.0" y="441.0" width="62.0" height="40.0" rx="6" fill="white" stroke="#999999" stroke-width="1.0" opacity="0.92"/>
<polygon points="53.6,481.0 61.6,481.0 50.6,489.0" fill="white" stroke="#999999" stroke-width="0.8"/>
<line x1="53.1" y1="481.0" x2="62.1" y2="481.0" stroke="white" stroke-width="1.5"/>
<text x="41.0" y="458.0" font-size="11.0" fill="#999999" font-weight="700">CONSTABLE</text>
<text x="41.0" y="472.0" font-size="11.0" fill="#333333">Vandals?</text>
<rect x="35.0" y="491.0" width="354.0" height="54.0" rx="6" fill="white" stroke="#999999" stroke-width="1.0" opacity="0.92"/>
<polygon points="141.2,545.0 149.2,545.0 138.2,553.0" fill="white" stroke="#999999" stroke-width="0.8"/>
<line x1="140.7" y1="545.0" x2="149.7" y2="545.0" stroke="white" stroke-width="1.5"/>
<text x="41.0" y="508.0" font-size="11.0" fill="#999999" font-weight="700">WORKER</text>
<text x="41.0" y="522.0" font-size="11.0" fill="#333333">No vandal did this. Look at the wall. Look at the SIZE of—&quot;</text>
<text x="41.0" y="536.0" font-size="11.0" fill="#333333">*(gestures at the breach)* &quot;—this wasn't a man.</text>
<rect x="35.0" y="555.0" width="114.9" height="40.0" rx="6" fill="white" stroke="#999999" stroke-width="1.0" opacity="0.92"/>
<polygon points="69.5,595.0 77.5,595.0 66.5,603.0" fill="white" stroke="#999999" stroke-width="0.8"/>
<line x1="69.0" y1="595.0" x2="78.0" y2="595.0" stroke="white" stroke-width="1.5"/>
<text x="41.0" y="572.0" font-size="11.0" fill="#999999" font-weight="700">CONSTABLE</text>
<text x="41.0" y="586.0" font-size="11.0" fill="#333333">Then what was it?</text>
<rect x="280.2" y="605.0" width="108.8" height="40.0" rx="6" fill="white" stroke="#999999" stroke-width="1.0" opacity="0.92"/>
<polygon points="312.8,645.0 320.8,645.0 309.8,653.0" fill="white" stroke="#999999" stroke-width="0.8"/>
<line x1="312.3" y1="645.0" x2="321.3" y2="645.0" stroke="white" stroke-width="1.5"/>
<text x="286.2" y="622.0" font-size="11.0" fill="#999999" font-weight="700">WORKER</text>
<text x="286.2" y="636.0" font-size="11.0" fill="#333333">...I don't know.</text>
<text x="383.0" y="449.0" text-anchor="end" font-size="12" font-weight="bold" fill="#888888" opacity="0.6">2</text>
<text x="389.0" y="791.0" text-anchor="end" font-size="9" fill="#888888" opacity="0.5">MED</text>
<rect x="405.0" y="433.0" width="366.0" height="364.0" rx="2" fill="#f5f0e8" stroke="#2a2a2a" stroke-width="1.5"/>
<ellipse cx="588.0" cy="585.9" rx="114.7" ry="163.8" fill="#999999" opacity="0.18"/>
<path d="M467.6,528.5 Q588.0,397.5 708.4,528.5" fill="none" stroke="#999999" stroke-width="3" opacity="0.35"/>
<line x1="547.9" y1="549.8" x2="582.3" y2="547.8" stroke="#a89888" stroke-width="1.5" opacity="0.45"/>
<line x1="593.7" y1="547.8" x2="628.1" y2="549.8" stroke="#a89888" stroke-width="1.5" opacity="0.45"/>
<ellipse cx="555.9" cy="566.2" rx="13.8" ry="8.2" fill="#a89888" opacity="0.45"/>
<ellipse cx="620.1" cy="566.2" rx="13.8" ry="8.2" fill="#a89888" opacity="0.45"/>
<line x1="588.0" y1="589.2" x2="588.0" y2="615.4" stroke="#a89888" stroke-width="1.2" opacity="0.35"/>
<path d="M581.1,615.4 Q588.0,618.4 594.9,615.4" fill="none" stroke="#a89888" stroke-width="1" opacity="0.3"/>
<line x1="559.3" y1="638.3" x2="616.7" y2="638.3" stroke="#a89888" stroke-width="1.2" opacity="0.35"/>
<rect x="411.0" y="441.0" width="229.8" height="40.0" rx="6" fill="white" stroke="#999999" stroke-width="1.0" opacity="0.92"/>
<polygon points="479.9,481.0 487.9,481.0 476.9,489.0" fill="white" stroke="#999999" stroke-width="0.8"/>
<line x1="479.4" y1="481.0" x2="488.4" y2="481.0" stroke="white" stroke-width="1.5"/>
<text x="417.0" y="458.0" font-size="11.0" fill="#999999" font-weight="700">CONSTABLE</text>
<text x="417.0" y="472.0" font-size="11.0" fill="#333333">Claw marks. Those are... claw marks.</text>
<rect x="583.6" y="491.0" width="181.4" height="40.0" rx="6" fill="white" stroke="#999999" stroke-width="1.0" opacity="0.92"/>
<polygon points="638.0,531.0 646.0,531.0 635.0,539.0" fill="white" stroke="#999999" stroke-width="0.8"/>
<line x1="637.5" y1="531.0" x2="646.5" y2="531.0" stroke="white" stroke-width="1.5"/>
<text x="589.6" y="508.0" font-size="11.0" fill="#999999" font-weight="700">WORKER</text>
<text x="589.6" y="522.0" font-size="11.0" fill="#333333">I told you. It wasn't a man.</text>
<text x="759.0" y="449.0" text-anchor="end" font-size="12" font-weight="bold" fill="#888888" opacity="0.6">3</text>
<text x="765.0" y="791.0" text-anchor="end" font-size="9" fill="#888888" opacity="0.5">CU</text>
<rect x="29.0" y="807.0" width="742.0" height="364.0" rx="2" fill="#f5f0e8" stroke="#2a2a2a" stroke-width="1.5"/>
<line x1="35.0" y1="1090.9" x2="765.0" y2="1090.9" stroke="#a89888" stroke-width="1.0" opacity="0.5"/>
<ellipse cx="276.3" cy="1092.9" rx="11.2" ry="2.7" fill="#a89888" opacity="0.2"/>
<line x1="273.6" y1="1075.2" x2="269.6" y2="1090.9" stroke="#999999" stroke-width="2" opacity="0.5"/>
<line x1="279.0" y1="1075.2" x2="283.1" y2="1090.9" stroke="#999999" stroke-width="2" opacity="0.5"/>
<line x1="276.3" y1="1062.1" x2="276.3" y2="1075.2" stroke="#999999" stroke-width="2.5" opacity="0.6"/>
<line x1="262.8" y1="1064.1" x2="289.8" y2="1064.1" stroke="#999999" stroke-width="2" opacity="0.5"/>
<line x1="262.8" y1="1064.1" x2="258.3" y2="1075.6" stroke="#999999" stroke-width="1.5" opacity="0.4"/>
<line x1="289.8" y1="1064.1" x2="294.3" y2="1075.6" stroke="#999999" stroke-width="1.5" opacity="0.4"/>
<circle cx="276.3" cy="1045.9" r="8.1" fill="#999999" opacity="0.6"/>
<ellipse cx="523.7" cy="1092.9" rx="11.2" ry="2.7" fill="#a89888" opacity="0.2"/>
<line x1="521.0" y1="1075.2" x2="516.9" y2="1090.9" stroke="#999999" stroke-width="2" opacity="0.5"/>
<line x1="526.4" y1="1075.2" x2="530.4" y2="1090.9" stroke="#999999" stroke-width="2" opacity="0.5"/>
<line x1="523.7" y1="1062.1" x2="523.7" y2="1075.2" stroke="#999999" stroke-width="2.5" opacity="0.6"/>
<line x1="510.2" y1="1064.1" x2="537.2" y2="1064.1" stroke="#999999" stroke-width="2" opacity="0.5"/>
<line x1="510.2" y1="1064.1" x2="505.7" y2="1075.6" stroke="#999999" stroke-width="1.5" opacity="0.4"/>
<line x1="537.2" y1="1064.1" x2="541.7" y2="1075.6" stroke="#999999" stroke-width="1.5" opacity="0.4"/>
<circle cx="523.7" cy="1045.9" r="8.1" fill="#999999" opacity="0.6"/>
<rect x="35.0" y="815.0" width="266.1" height="40.0" rx="6" fill="white" stroke="#999999" stroke-width="1.0" opacity="0.92"/>
<polygon points="114.8,855.0 122.8,855.0 111.8,863.0" fill="white" stroke="#999999" stroke-width="0.8"/>
<line x1="114.3" y1="855.0" x2="123.3" y2="855.0" stroke="white" stroke-width="1.5"/>
<text x="41.0" y="832.0" font-size="11.0" fill="#999999" font-weight="700">JOURNALIST</text>
<text x="41.0" y="846.0" font-size="11.0" fill="#333333">A demon, you say? In the telegraph office?</text>
<rect x="35.0" y="865.0" width="730.0" height="54.0" rx="6" fill="white" stroke="#999999" stroke-width="1.0" opacity="0.92"/>
<polygon points="254.0,919.0 262.0,919.0 251.0,927.0" fill="white" stroke="#999999" stroke-width="0.8"/>
<line x1="253.5" y1="919.0" x2="262.5" y2="919.0" stroke="white" stroke-width="1.5"/>
<text x="41.0" y="882.0" font-size="11.0" fill="#999999" font-weight="700">WORKER</text>
<text x="41.0" y="896.0" font-size="11.0" fill="#333333">I'm telling you what I saw. Claw marks on the wall. Machines crushed. The wall smashed through from inside. If it wasn't a</text>
<text x="41.0" y="910.0" font-size="11.0" fill="#333333">demon, you tell me what it was.</text>
<text x="759.0" y="823.0" text-anchor="end" font-size="12" font-weight="bold" fill="#888888" opacity="0.6">4</text>
<text x="765.0" y="1165.0" text-anchor="end" font-size="9" fill="#888888" opacity="0.5">WIDE</text>
</svg>