<svg xmlns="http://www.w3.org/2000/svg" viewBox="0 0 800 1200" width="800" height="1200" style="background:#ffffff">
<style>
  text { font-family: "Helvetica Neue", Helvetica, Arial, sans-serif; }
</style>
<text x="400.0" y="22" text-anchor="middle" font-size="16" fill="#888888" font-weight="500">PAGE 20  (4 panels)</text>
<rect x="29.0" y="59.0" width="742.0" height="364.0" rx="2" fill="#f5f0e8" stroke="#2a2a2a" stroke-width="1.5"/>
<line x1="35.0" y1="342.9" x2="765.0" y2="342.9" stroke="#a89888" stroke-width="1.0" opacity="0.5"/>
<ellipse cx="400.0" cy="344.9" rx="11.2" ry="2.7" fill="#a89888" opacity="0.2"/>
<line x1="397.3" y1="327.2" x2="393.2" y2="342.9" stroke="#999999" stroke-width="2" opacity="0.5"/>
<line x1="402.7" y1="327.2" x2="406.8" y2="342.9" stroke="#999999" stroke-width="2" opacity="0.5"/>
<line x1="400.0" y1="314.1" x2="400.0" y2="327.2" stroke="#999999" stroke-width="2.5" opacity="0.6"/>
<line x1="386.5" y1="316.1" x2="413.5" y2="316.1" stroke="#999999" stroke-width="2" opacity="0.5"/>
<line x1="386.5" y1="316.1" x2="382.0" y2="327.6" stroke="#999999" stroke-width="1.5" opacity="0.4"/>
<line x1="413.5" y1="316.1" x2="418.0" y2="327.6" stroke="#999999" stroke-width="1.5" opacity="0.4"/>
<circle cx="400.0" cy="297.9" r="8.1" fill="#999999" opacity="0.6"/>
<rect x="35.0" y="67.0" width="502.1" height="40.0" rx="6" fill="white" stroke="#999999" stroke-width="1.0" opacity="0.92"/>
<polygon points="185.6,107.0 193.6,107.0 182.6,115.0" fill="white" stroke="#999999" stroke-width="0.8"/>
<line x1="185.1" y1="107.0" x2="194.1" y2="107.0" stroke="white" stroke-width="1.5"/>
<text x="41.0" y="84.0" font-size="11.0" fill="#999999" font-weight="700">OFFICIAL</text>
<text x="41.0" y="98.0" font-size="11.0" fill="#333333">The police report says 'unexplained structural damage.' We'll go with a gas leak.</text>
<rect x="541.2" y="117.0" width="223.8" height="40.0" rx="6" fill="white" stroke="#999999" stroke-width="1.0" opacity="0.92"/>
<polygon points="608.4,157.0 616.4,157.0 605.4,165.0" fill="white" stroke="#999999" stroke-width="0.8"/>
<line x1="607.9" y1="157.0" x2="616.9" y2="157.0" stroke="white" stroke-width="1.5"/>
<text x="547.2" y="134.0" font-size="11.0" fill="#999999" font-weight="700">OFFICIAL</text>
<text x="547.2" y="148.0" font-size="11.0" fill="#333333">Gas leak. Everything is a gas leak.</text>
<text x="759.0" y="75.0" text-anchor="end" font-size="12" font-weight="bold" fill="#888888" opacity="0.6">1</text>
<text x="765.0" y="417.0" text-anchor="end" font-size="9" fill="#888888" opacity="0.5">WIDE</text>
<rect x="29.0" y="433.0" width="366.0" height="364.0" rx="2" fill="#f5f0e8" stroke="#2a2a2a" stroke-width="1.5"/>
<path d="M153.4,695.1 L158.8,648.6 Q164.1,644.6 195.8,644.6 L228.2,644.6 Q259.9,644.6 265.2,648.6 L270.6,695.1 Z" fill="#c87533" opacity="0.35"/>
<line x1="158.8" y1="670.5" x2="265.2" y2="670.5" stroke="#c87533" stroke-width="1" opacity="0.3"/>
<line x1="158.8" y1="648.6" x2="137.5" y2="689.5" stroke="#c87533" stroke-width="2" opacity="0.3"/>
<line x1="137.5" y1="689.5" x2="153.4" y2="714.1" stroke="#c87533" stroke-width="2" opacity="0.3"/>
<line x1="265.2" y1="648.6" x2="286.5" y2="689.5" stroke="#c87533" stroke-width="2" opacity="0.3"/>
<line x1="286.5" y1="689.5" x2="270.6" y2="714.1" stroke="#c87533" stroke-width="2" opacity="0.3"/>
<line x1="212.0" y1="571.7" x2="212.0" y2="644.6" stroke="#c87533" stroke-width="3" opacity="0.35"/>
<circle cx="212.0" cy="531.3" r="40.5" fill="#c87533" opacity="0.4"/>
<rect x="35.0" y="441.0" width="354.0" height="68.0" rx="6" fill="white" stroke="#c87533" stroke-width="1.0" opacity="0.92"/>
<polygon points="141.2,509.0 149.2,509.0 138.2,517.0" fill="white" stroke="#c87533" stroke-width="0.8"/>
<line x1="140.7" y1="509.0" x2="149.7" y2="509.0" stroke="white" stroke-width="1.5"/>
<text x="41.0" y="458.0" font-size="11.0" fill="#c87533" font-weight="700">WREN</text>
<text x="41.0" y="472.0" font-size="11.0" fill="#333333">The device data. It's a temporal nudge engine. It modifies</text>
<text x="41.0" y="486.0" font-size="11.0" fill="#333333">information flow — the telegraph signals. Subtle. No one</text>
<text x="41.0" y="500.0" font-size="11.0" fill="#333333">would notice.</text>
<rect x="256.0" y="519.0" width="133.0" height="40.0" rx="6" fill="white" stroke="#b0b0b0" stroke-width="1.0" opacity="0.92"/>
<polygon points="295.9,559.0 303.9,559.0 292.9,567.0" fill="white" stroke="#b0b0b0" stroke-width="0.8"/>
<line x1="295.4" y1="559.0" x2="304.4" y2="559.0" stroke="white" stroke-width="1.5"/>
<text x="262.0" y="536.0" font-size="11.0" fill="#b0b0b0" font-weight="700">SABLE</text>
<text x="262.0" y="550.0" font-size="11.0" fill="#333333">What does that mean?</text>
<rect x="35.0" y="569.0" width="338.7" height="54.0" rx="6" fill="white" stroke="#c87533" stroke-width="1.0" opacity="0.92"/>
<polygon points="136.6,623.0 144.6,623.0 133.6,631.0" fill="white" stroke="#c87533" stroke-width="0.8"/>
<line x1="136.1" y1="623.0" x2="145.1" y2="623.0" stroke="white" stroke-width="1.5"/>
<text x="41.0" y="586.0" font-size="11.0" fill="#c87533" font-weight="700">WREN</text>
<text x="41.0" y="600.0" font-size="11.0" fill="#333333">It means the Titans aren't just here. They're steering</text>
<text x="41.0" y="614.0" font-size="11.0" fill="#333333">things.</text>
<text x="383.0" y="449.0" text-anchor="end" font-size="12" font-weight="bold" fill="#888888" opacity="0.6">2</text>
<text x="389.0" y="791.0" text-anchor="end" font-size="9" fill="#888888" opacity="0.5">MED</text>
<rect x="405.0" y="433.0" width="366.0" height="364.0" rx="2" fill="#f5f0e8" stroke="#2a2a2a" stroke-width="1.5"/>
<ellipse cx="588.0" cy="585.9" rx="114.7" ry="163.8" fill="#6a5acd" opacity="0.18"/>
<path d="M467.6,528.5 Q588.0,397.5 708.4,528.5" fill="none" stroke="#6a5acd" stroke-width="3" opacity="0.35"/>
<line x1="547.9" y1="549.8" x2="582.3" y2="547.8" stroke="#a89888" stroke-width="1.5" opacity="0.45"/>
<line x1="593.7" y1="547.8" x2="628.1" y2="549.8" stroke="#a89888" stroke-width="1.5" opacity="0.45"/>
<ellipse cx="555.9" cy="566.2" rx="13.8" ry="8.2" fill="#a89888" opacity="0.45"/>
<ellipse cx="620.1" cy="566.2" rx="13.8" ry="8.2" fill="#a89888" opacity="0.45"/>
<line x1="588.0" y1="589.2" x2="588.0" y2="615.4" stroke="#a89888" stroke-width="1.2" opacity="0.35"/>
<path d="M581.1,615.4 Q588.0,618.4 594.9,615.4" fill="none" stroke="#a89888" stroke-width="1" opacity="0.3"/>
<line x1="559.3" y1="638.3" x2="616.7" y2="638.3" stroke="#a89888" stroke-width="1.2" opacity="0.35"/>
<rect x="411.0" y="441.0" width="151.2" height="40.0" rx="6" fill="white" stroke="#6a5acd" stroke-width="1.0" opacity="0.92"/>
<polygon points="456.3,481.0 464.3,481.0 453.3,489.0" fill="white" stroke="#6a5acd" stroke-width="0.8"/>
<line x1="455.8" y1="481.0" x2="464.8" y2="481.0" stroke="white" stroke-width="1.5"/>
<text x="417.0" y="458.0" font-size="11.0" fill="#6a5acd" font-weight="700">LUMA</text>
<text x="417.0" y="472.0" font-size="11.0" fill="#333333">You were extraordinary.</text>
<rect x="656.2" y="491.0" width="108.8" height="40.0" rx="6" fill="white" stroke="#b22222" stroke-width="1.0" opacity="0.92"/>
<polygon points="688.8,531.0 696.8,531.0 685.8,539.0" fill="white" stroke="#b22222" stroke-width="0.8"/>
<line x1="688.3" y1="531.0" x2="697.3" y2="531.0" stroke="white" stroke-width="1.5"/>
<text x="662.2" y="508.0" font-size="11.0" fill="#b22222" font-weight="700">THRESH</text>
<text x="662.2" y="522.0" font-size="11.0" fill="#333333">I was terrified.</text>
<rect x="411.0" y="541.0" width="248.0" height="40.0" rx="6" fill="white" stroke="#6a5acd" stroke-width="1.0" opacity="0.92"/>
<polygon points="485.4,581.0 493.4,581.0 482.4,589.0" fill="white" stroke="#6a5acd" stroke-width="0.8"/>
<line x1="484.9" y1="581.0" x2="493.9" y2="581.0" stroke="white" stroke-width="1.5"/>
<text x="417.0" y="558.0" font-size="11.0" fill="#6a5acd" font-weight="700">LUMA</text>
<text x="417.0" y="572.0" font-size="11.0" fill="#333333">Yes. That's what made it extraordinary.</text>
<text x="759.0" y="449.0" text-anchor="end" font-size="12" font-weight="bold" fill="#888888" opacity="0.6">3</text>
<text x="765.0" y="791.0" text-anchor="end" font-size="9" fill="#888888" opacity="0.5">CU</text>
<rect x="29.0" y="807.0" width="742.0" height="364.0" rx="2" fill="#f5f0e8" stroke="#2a2a2a" stroke-width="1.5"/>
<path d="M341.4,1069.1 L346.8,1022.6 Q352.1,1018.6 383.8,1018.6 L416.2,1018.6 Q447.9,1018.6 453.2,1022.6 L458.6,1069.1 Z" fill="#b0b0b0" opacity="0.35"/>
<line x1="346.8" y1="1044.5" x2="453.2" y2="1044.5" stroke="#b0b0b0" stroke-width="1" opacity="0.3"/>
<line x1="346.8" y1="1022.6" x2="325.5" y2="1063.5" stroke="#b0b0b0" stroke-width="2" opacity="0.3"/>
<line x1="325.5" y1="1063.5" x2="341.4" y2="1088.1" stroke="#b0b0b0" stroke-width="2" opacity="0.3"/>
<line x1="453.2" y1="1022.6" x2="474.5" y2="1063.5" stroke="#b0b0b0" stroke-width="2" opacity="0.3"/>
<line x1="474.5" y1="1063.5" x2="458.6" y2="1088.1" stroke="#b0b0b0" stroke-width="2" opacity="0.3"/>
<line x1="400.0" y1="945.7" x2="400.0" y2="1018.6" stroke="#b0b0b0" stroke-width="3" opacity="0.35"/>
<circle cx="400.0" cy="905.3" r="40.5" fill="#b0b0b0" opacity="0.4"/>
<rect x="35.0" y="815.0" width="730.0" height="54.0" rx="6" fill="white" stroke="#b0b0b0" stroke-width="1.0" opacity="0.92"/>
<polygon points="254.0,869.0 262.0,869.0 251.0,877.0" fill="white" stroke="#b0b0b0" stroke-width="0.8"/>
<line x1="253.5" y1="869.0" x2="262.5" y2="869.0" stroke="white" stroke-width="1.5"/>
<text x="41.0" y="832.0" font-size="11.0" fill="#b0b0b0" font-weight="700">SABLE</text>
<text x="41.0" y="846.0" font-size="11.0" fill="#333333">Titans are not raiders. They are architects. They have been shaping things from the inside.&quot; *(beat)* &quot;We cannot just repair</text>
<text x="41.0" y="860.0" font-size="11.0" fill="#333333">the ship and leave.</text>
<rect x="703.0" y="879.0" width="62.0" height="40.0" rx="6" fill="white" stroke="#c87533" stroke-width="1.0" opacity="0.92"/>
<polygon points="721.6,919.0 729.6,919.0 718.6,927.0" fill="white" stroke="#c87533" stroke-width="0.8"/>
<line x1="721.1" y1="919.0" x2="730.1" y2="919.0" stroke="white" stroke-width="1.5"/>
<text x="709.0" y="896.0" font-size="11.0" fill="#c87533" font-weight="700">WREN</text>
<text x="709.0" y="910.0" font-size="11.0" fill="#333333">No.</text>
<rect x="35.0" y="929.0" width="139.1" height="40.0" rx="6" fill="white" stroke="#b0b0b0" stroke-width="1.0" opacity="0.92"/>
<polygon points="76.7,969.0 84.7,969.0 73.7,977.0" fill="white" stroke="#b0b0b0" stroke-width="0.8"/>
<line x1="76.2" y1="969.0" x2="85.2" y2="969.0" stroke="white" stroke-width="1.5"/>
<text x="41.0" y="946.0" font-size="11.0" fill="#b0b0b0" font-weight="700">SABLE</text>
<text x="41.0" y="960.0" font-size="11.0" fill="#333333">We have to stop them.</text>
<text x="759.0" y="823.0" text-anchor="end" font-size="12" font-weight="bold" fill="#888888" opacity="0.6">4</text>
<text x="765.0" y="1165.0" text-anchor="end" font-size="9" fill="#888888" opacity="0.5">MW</text>
</svg>