<svg xmlns="http://www.w3.org/2000/svg" viewBox="0 0 800 1200" width="800" height="1200" style="background:#ffffff">
<style>
  text { font-family: "Helvetica Neue", Helvetica, Arial, sans-serif; }
</style>
<text x="400.0" y="22" text-anchor="middle" font-size="16" fill="#888888" font-weight="500">PAGE 2  (4 panels)</text>
<rect x="29.0" y="59.0" width="742.0" height="296.0" rx="2" fill="#f5f0e8" stroke="#2a2a2a" stroke-width="1.5"/>
<line x1="35.0" y1="289.9" x2="765.0" y2="289.9" stroke="#a89888" stroke-width="1.0" opacity="0.5"/>
<ellipse cx="214.5" cy="291.9" rx="11.2" ry="2.7" fill="#a89888" opacity="0.2"/>
<line x1="211.8" y1="274.1" x2="207.8" y2="289.9" stroke="#c0b8a8" stroke-width="2" opacity="0.5"/>
<line x1="217.2" y1="274.1" x2="221.2" y2="289.9" stroke="#c0b8a8" stroke-width="2" opacity="0.5"/>
<line x1="214.5" y1="261.1" x2="214.5" y2="274.1" stroke="#c0b8a8" stroke-width="2.5" opacity="0.6"/>
<line x1="201.0" y1="263.1" x2="228.0" y2="263.1" stroke="#c0b8a8" stroke-width="2" opacity="0.5"/>
<line x1="201.0" y1="263.1" x2="196.5" y2="274.6" stroke="#c0b8a8" stroke-width="1.5" opacity="0.4"/>
<line x1="228.0" y1="263.1" x2="232.5" y2="274.6" stroke="#c0b8a8" stroke-width="1.5" opacity="0.4"/>
<circle cx="214.5" cy="244.9" r="8.1" fill="#c0b8a8" opacity="0.6"/>
<ellipse cx="400.0" cy="291.9" rx="11.2" ry="2.7" fill="#a89888" opacity="0.2"/>
<line x1="397.3" y1="274.1" x2="393.2" y2="289.9" stroke="#c0b8a8" stroke-width="2" opacity="0.5"/>
<line x1="402.7" y1="274.1" x2="406.8" y2="289.9" stroke="#c0b8a8" stroke-width="2" opacity="0.5"/>
<line x1="400.0" y1="261.1" x2="400.0" y2="274.1" stroke="#c0b8a8" stroke-width="2.5" opacity="0.6"/>
<line x1="386.5" y1="263.1" x2="413.5" y2="263.1" stroke="#c0b8a8" stroke-width="2" opacity="0.5"/>
<line x1="386.5" y1="263.1" x2="382.0" y2="274.6" stroke="#c0b8a8" stroke-width="1.5" opacity="0.4"/>
<line x1="413.5" y1="263.1" x2="418.0" y2="274.6" stroke="#c0b8a8" stroke-width="1.5" opacity="0.4"/>
<circle cx="400.0" cy="244.9" r="8.1" fill="#c0b8a8" opacity="0.6"/>
<ellipse cx="585.5" cy="291.9" rx="11.2" ry="2.7" fill="#a89888" opacity="0.2"/>
<line x1="582.8" y1="274.1" x2="578.8" y2="289.9" stroke="#c0b8a8" stroke-width="2" opacity="0.5"/>
<line x1="588.2" y1="274.1" x2="592.2" y2="289.9" stroke="#c0b8a8" stroke-width="2" opacity="0.5"/>
<line x1="585.5" y1="261.1" x2="585.5" y2="274.1" stroke="#c0b8a8" stroke-width="2.5" opacity="0.6"/>
<line x1="572.0" y1="263.1" x2="599.0" y2="263.1" stroke="#c0b8a8" stroke-width="2" opacity="0.5"/>
<line x1="572.0" y1="263.1" x2="567.5" y2="274.6" stroke="#c0b8a8" stroke-width="1.5" opacity="0.4"/>
<line x1="599.0" y1="263.1" x2="603.5" y2="274.6" stroke="#c0b8a8" stroke-width="1.5" opacity="0.4"/>
<circle cx="585.5" cy="244.9" r="8.1" fill="#c0b8a8" opacity="0.6"/>
<rect x="35.0" y="67.0" width="235.9" height="40.0" rx="2" fill="#f5ecd8" stroke="#c8b898" stroke-width="0.8" opacity="0.92"/>
<text x="41.0" y="84.0" font-size="11.0" fill="#5a4a30" font-style="italic" font-weight="500">CAPTION</text>
<text x="41.0" y="98.0" font-size="11.0" fill="#5a4a30" font-style="italic">Eleven-fourteen. Threadneedle Street.</text>
<text x="759.0" y="75.0" text-anchor="end" font-size="12" font-weight="bold" fill="#888888" opacity="0.6">1</text>
<text x="765.0" y="349.0" text-anchor="end" font-size="9" fill="#888888" opacity="0.5">EST</text>
<rect x="29.0" y="365.0" width="366.0" height="500.0" rx="2" fill="#f5f0e8" stroke="#2a2a2a" stroke-width="1.5"/>
<ellipse cx="212.0" cy="575.0" rx="146.4" ry="225.0" fill="#2e8b57" opacity="0.18"/>
<path d="M58.3,496.2 Q212.0,316.2 365.7,496.2" fill="none" stroke="#2e8b57" stroke-width="3" opacity="0.35"/>
<line x1="160.8" y1="525.5" x2="204.7" y2="523.5" stroke="#a89888" stroke-width="1.5" opacity="0.45"/>
<line x1="219.3" y1="523.5" x2="263.2" y2="525.5" stroke="#a89888" stroke-width="1.5" opacity="0.45"/>
<ellipse cx="171.0" cy="548.0" rx="17.6" ry="11.2" fill="#a89888" opacity="0.45"/>
<ellipse cx="253.0" cy="548.0" rx="17.6" ry="11.2" fill="#a89888" opacity="0.45"/>
<line x1="212.0" y1="579.5" x2="212.0" y2="615.5" stroke="#a89888" stroke-width="1.2" opacity="0.35"/>
<path d="M203.2,615.5 Q212.0,618.5 220.8,615.5" fill="none" stroke="#a89888" stroke-width="1" opacity="0.3"/>
<line x1="175.4" y1="647.0" x2="248.6" y2="647.0" stroke="#a89888" stroke-width="1.2" opacity="0.35"/>
<rect x="35.0" y="373.0" width="344.8" height="54.0" rx="6" fill="white" stroke="#2e8b57" stroke-width="1.0" opacity="0.92"/>
<polygon points="138.4,427.0 146.4,427.0 135.4,435.0" fill="white" stroke="#2e8b57" stroke-width="0.8"/>
<line x1="137.9" y1="427.0" x2="146.9" y2="427.0" stroke="white" stroke-width="1.5"/>
<text x="41.0" y="390.0" font-size="11.0" fill="#2e8b57" font-weight="700">JINK</text>
<text x="41.0" y="404.0" font-size="11.0" fill="#333333">I have eyes on the target. One light, ground floor. The</text>
<text x="41.0" y="418.0" font-size="11.0" fill="#333333">operator's still at the key.</text>
<text x="383.0" y="381.0" text-anchor="end" font-size="12" font-weight="bold" fill="#888888" opacity="0.6">2</text>
<text x="389.0" y="859.0" text-anchor="end" font-size="9" fill="#888888" opacity="0.5">CU</text>
<rect x="405.0" y="365.0" width="366.0" height="500.0" rx="2" fill="#f5f0e8" stroke="#2a2a2a" stroke-width="1.5"/>
<path d="M517.5,725.0 L524.0,640.3 Q530.4,636.3 568.5,636.3 L607.5,636.3 Q645.6,636.3 652.0,640.3 L658.5,725.0 Z" fill="#c87533" opacity="0.35"/>
<line x1="524.0" y1="691.2" x2="652.0" y2="691.2" stroke="#c87533" stroke-width="1" opacity="0.3"/>
<line x1="524.0" y1="640.3" x2="498.3" y2="696.5" stroke="#c87533" stroke-width="2" opacity="0.3"/>
<line x1="498.3" y1="696.5" x2="517.5" y2="730.3" stroke="#c87533" stroke-width="2" opacity="0.3"/>
<line x1="652.0" y1="640.3" x2="677.7" y2="696.5" stroke="#c87533" stroke-width="2" opacity="0.3"/>
<line x1="677.7" y1="696.5" x2="658.5" y2="730.3" stroke="#c87533" stroke-width="2" opacity="0.3"/>
<line x1="588.0" y1="548.7" x2="588.0" y2="636.3" stroke="#c87533" stroke-width="3" opacity="0.35"/>
<circle cx="588.0" cy="500.0" r="48.7" fill="#c87533" opacity="0.4"/>
<rect x="411.0" y="373.0" width="338.7" height="54.0" rx="6" fill="white" stroke="#c87533" stroke-width="1.0" opacity="0.92"/>
<polygon points="512.6,427.0 520.6,427.0 509.6,435.0" fill="white" stroke="#c87533" stroke-width="0.8"/>
<line x1="512.1" y1="427.0" x2="521.1" y2="427.0" stroke="white" stroke-width="1.5"/>
<text x="417.0" y="390.0" font-size="11.0" fill="#c87533" font-weight="700">WREN</text>
<text x="417.0" y="404.0" font-size="11.0" fill="#333333">Cable entry point. The insulation's degraded — there's</text>
<text x="417.0" y="418.0" font-size="11.0" fill="#333333">room.</text>
<rect x="703.0" y="437.0" width="62.0" height="40.0" rx="6" fill="white" stroke="#b0b0b0" stroke-width="1.0" opacity="0.92"/>
<polygon points="721.6,477.0 729.6,477.0 718.6,485.0" fill="white" stroke="#b0b0b0" stroke-width="0.8"/>
<line x1="721.1" y1="477.0" x2="730.1" y2="477.0" stroke="white" stroke-width="1.5"/>
<text x="709.0" y="454.0" font-size="11.0" fill="#b0b0b0" font-weight="700">SABLE</text>
<text x="709.0" y="468.0" font-size="11.0" fill="#333333">Go.</text>
<text x="759.0" y="381.0" text-anchor="end" font-size="12" font-weight="bold" fill="#888888" opacity="0.6">3</text>
<text x="765.0" y="859.0" text-anchor="end" font-size="9" fill="#888888" opacity="0.5">MED</text>
<rect x="29.0" y="875.0" width="742.0" height="296.0" rx="2" fill="#f5f0e8" stroke="#2a2a2a" stroke-width="1.5"/>
<line x1="35.0" y1="1105.9" x2="765.0" y2="1105.9" stroke="#a89888" stroke-width="1.0" opacity="0.5"/>
<ellipse cx="276.3" cy="1107.9" rx="11.2" ry="2.7" fill="#a89888" opacity="0.2"/>
<line x1="273.6" y1="1090.1" x2="269.6" y2="1105.9" stroke="#6a5acd" stroke-width="2" opacity="0.5"/>
<line x1="279.0" y1="1090.1" x2="283.1" y2="1105.9" stroke="#6a5acd" stroke-width="2" opacity="0.5"/>
<line x1="276.3" y1="1077.1" x2="276.3" y2="1090.1" stroke="#6a5acd" stroke-width="2.5" opacity="0.6"/>
<line x1="262.8" y1="1079.1" x2="289.8" y2="1079.1" stroke="#6a5acd" stroke-width="2" opacity="0.5"/>
<line x1="262.8" y1="1079.1" x2="258.3" y2="1090.6" stroke="#6a5acd" stroke-width="1.5" opacity="0.4"/>
<line x1="289.8" y1="1079.1" x2="294.3" y2="1090.6" stroke="#6a5acd" stroke-width="1.5" opacity="0.4"/>
<circle cx="276.3" cy="1060.9" r="8.1" fill="#6a5acd" opacity="0.6"/>
<ellipse cx="523.7" cy="1107.9" rx="11.2" ry="2.7" fill="#a89888" opacity="0.2"/>
<line x1="521.0" y1="1090.1" x2="516.9" y2="1105.9" stroke="#c87533" stroke-width="2" opacity="0.5"/>
<line x1="526.4" y1="1090.1" x2="530.4" y2="1105.9" stroke="#c87533" stroke-width="2" opacity="0.5"/>
<line x1="523.7" y1="1077.1" x2="523.7" y2="1090.1" stroke="#c87533" stroke-width="2.5" opacity="0.6"/>
<line x1="510.2" y1="1079.1" x2="537.2" y2="1079.1" stroke="#c87533" stroke-width="2" opacity="0.5"/>
<line x1="510.2" y1="1079.1" x2="505.7" y2="1090.6" stroke="#c87533" stroke-width="1.5" opacity="0.4"/>
<line x1="537.2" y1="1079.1" x2="541.7" y2="1090.6" stroke="#c87533" stroke-width="1.5" opacity="0.4"/>
<circle cx="523.7" cy="1060.9" r="8.1" fill="#c87533" opacity="0.6"/>
<rect x="35.0" y="883.0" width="362.9" height="40.0" rx="6" fill="white" stroke="#6a5acd" stroke-width="1.0" opacity="0.92"/>
<polygon points="143.9,923.0 151.9,923.0 140.9,931.0" fill="white" stroke="#6a5acd" stroke-width="0.8"/>
<line x1="143.4" y1="923.0" x2="152.4" y2="923.0" stroke="white" stroke-width="1.5"/>
<text x="41.0" y="900.0" font-size="11.0" fill="#6a5acd" font-weight="700">LUMA</text>
<text x="41.0" y="914.0" font-size="11.0" fill="#333333">The cables are carrying current. Active telegraph circuit.</text>
<rect x="468.6" y="933.0" width="296.4" height="40.0" rx="6" fill="white" stroke="#c87533" stroke-width="1.0" opacity="0.92"/>
<polygon points="557.6,973.0 565.6,973.0 554.6,981.0" fill="white" stroke="#c87533" stroke-width="0.8"/>
<line x1="557.1" y1="973.0" x2="566.1" y2="973.0" stroke="white" stroke-width="1.5"/>
<text x="474.6" y="950.0" font-size="11.0" fill="#c87533" font-weight="700">WREN</text>
<text x="474.6" y="964.0" font-size="11.0" fill="#333333">Good. Means the equipment's where it should be.</text>
<text x="759.0" y="891.0" text-anchor="end" font-size="12" font-weight="bold" fill="#888888" opacity="0.6">4</text>
<text x="765.0" y="1165.0" text-anchor="end" font-size="9" fill="#888888" opacity="0.5">WIDE</text>
</svg>