<svg xmlns="http://www.w3.org/2000/svg" viewBox="0 0 800 1200" width="800" height="1200" style="background:#ffffff">
<style>
  text { font-family: "Helvetica Neue", Helvetica, Arial, sans-serif; }
</style>
<text x="400.0" y="22" text-anchor="middle" font-size="16" fill="#888888" font-weight="500">PAGE 15  (5 panels)</text>
<rect x="29.0" y="59.0" width="742.0" height="364.0" rx="2" fill="#f5f0e8" stroke="#2a2a2a" stroke-width="1.5"/>
<line x1="377.7" y1="272.9" x2="311.0" y2="312.9" stroke="#c87533" stroke-width="3" opacity="0.35"/>
<line x1="311.0" y1="312.9" x2="355.5" y2="342.9" stroke="#c87533" stroke-width="3" opacity="0.35"/>
<line x1="422.3" y1="272.9" x2="511.3" y2="302.9" stroke="#c87533" stroke-width="3" opacity="0.35"/>
<line x1="511.3" y1="302.9" x2="533.6" y2="326.9" stroke="#c87533" stroke-width="3" opacity="0.35"/>
<line x1="444.5" y1="186.7" x2="386.6" y2="272.9" stroke="#c87533" stroke-width="3.5" opacity="0.4"/>
<circle cx="444.5" cy="142.7" r="20.0" fill="#c87533" opacity="0.4"/>
<line x1="422.3" y1="216.8" x2="533.6" y2="187.6" stroke="#c87533" stroke-width="2.5" opacity="0.35"/>
<line x1="422.3" y1="216.8" x2="296.1" y2="238.6" stroke="#c87533" stroke-width="2.5" opacity="0.35"/>
<path d="M422.3,206.7 Q333.2,170.3 362.9,141.2" fill="none" stroke="#c87533" stroke-width="1.5" opacity="0.25"/>
<path d="M422.3,206.7 Q511.3,170.3 481.6,141.2" fill="none" stroke="#c87533" stroke-width="1.5" opacity="0.25"/>
<line x1="607.8" y1="175.5" x2="733.9" y2="175.5" stroke="#a89888" stroke-width="1.2" opacity="0.3"/>
<line x1="607.8" y1="211.9" x2="733.9" y2="211.9" stroke="#a89888" stroke-width="1.2" opacity="0.3"/>
<line x1="607.8" y1="248.3" x2="733.9" y2="248.3" stroke="#a89888" stroke-width="1.2" opacity="0.3"/>
<line x1="607.8" y1="284.7" x2="733.9" y2="284.7" stroke="#a89888" stroke-width="1.2" opacity="0.3"/>
<line x1="66.1" y1="131.8" x2="162.6" y2="131.8" stroke="#a89888" stroke-width="1" opacity="0.2"/>
<line x1="66.1" y1="186.4" x2="162.6" y2="186.4" stroke="#a89888" stroke-width="1" opacity="0.2"/>
<line x1="66.1" y1="295.6" x2="162.6" y2="295.6" stroke="#a89888" stroke-width="1" opacity="0.2"/>
<line x1="66.1" y1="350.2" x2="162.6" y2="350.2" stroke="#a89888" stroke-width="1" opacity="0.2"/>
<rect x="35.0" y="67.0" width="730.0" height="54.0" rx="6" fill="white" stroke="#c87533" stroke-width="1.0" opacity="0.92"/>
<polygon points="254.0,121.0 262.0,121.0 251.0,129.0" fill="white" stroke="#c87533" stroke-width="0.8"/>
<line x1="253.5" y1="121.0" x2="262.5" y2="121.0" stroke="white" stroke-width="1.5"/>
<text x="41.0" y="84.0" font-size="11.0" fill="#c87533" font-weight="700">WREN</text>
<text x="41.0" y="98.0" font-size="11.0" fill="#333333">The signal travels at wire speed — near-instantaneous across the network. One pulse is all I need. The interference pattern</text>
<text x="41.0" y="112.0" font-size="11.0" fill="#333333">will scramble any Titan technology on the same frequency.</text>
<text x="759.0" y="75.0" text-anchor="end" font-size="12" font-weight="bold" fill="#888888" opacity="0.6">1</text>
<text x="765.0" y="417.0" text-anchor="end" font-size="9" fill="#888888" opacity="0.5">DYN</text>
<rect x="29.0" y="433.0" width="240.7" height="364.0" rx="2" fill="#f5f0e8" stroke="#2a2a2a" stroke-width="1.5"/>
<path d="M103.0,695.1 L107.2,624.9 Q111.4,620.9 136.5,620.9 L162.1,620.9 Q187.2,620.9 191.5,624.9 L195.7,695.1 Z" fill="#b22222" opacity="0.35"/>
<line x1="107.2" y1="670.5" x2="191.5" y2="670.5" stroke="#b22222" stroke-width="1" opacity="0.3"/>
<line x1="107.2" y1="624.9" x2="90.4" y2="665.9" stroke="#b22222" stroke-width="2" opacity="0.3"/>
<line x1="90.4" y1="665.9" x2="103.0" y2="690.4" stroke="#b22222" stroke-width="2" opacity="0.3"/>
<line x1="191.5" y1="624.9" x2="208.3" y2="665.9" stroke="#b22222" stroke-width="2" opacity="0.3"/>
<line x1="208.3" y1="665.9" x2="195.7" y2="690.4" stroke="#b22222" stroke-width="2" opacity="0.3"/>
<line x1="149.3" y1="563.3" x2="149.3" y2="620.9" stroke="#b22222" stroke-width="3" opacity="0.35"/>
<circle cx="149.3" cy="531.3" r="32.0" fill="#b22222" opacity="0.4"/>
<rect x="35.0" y="441.0" width="199.0" height="51.0" rx="6" fill="white" stroke="#b22222" stroke-width="1.0" opacity="0.92"/>
<polygon points="94.7,492.0 102.7,492.0 91.7,500.0" fill="white" stroke="#b22222" stroke-width="0.8"/>
<line x1="94.2" y1="492.0" x2="103.2" y2="492.0" stroke="white" stroke-width="1.5"/>
<text x="41.0" y="457.0" font-size="10.0" fill="#b22222" font-weight="700">THRESH</text>
<text x="41.0" y="470.0" font-size="10.0" fill="#333333">The joints — when our weapons have</text>
<text x="41.0" y="483.0" font-size="10.0" fill="#333333">charge, aim for the joints!</text>
<text x="257.7" y="449.0" text-anchor="end" font-size="12" font-weight="bold" fill="#888888" opacity="0.6">2</text>
<text x="263.7" y="791.0" text-anchor="end" font-size="9" fill="#888888" opacity="0.5">MED</text>
<rect x="279.7" y="433.0" width="240.7" height="364.0" rx="2" fill="#f5f0e8" stroke="#2a2a2a" stroke-width="1.5"/>
<ellipse cx="400.0" cy="585.9" rx="96.3" ry="163.8" fill="#c87533" opacity="0.18"/>
<path d="M298.9,528.5 Q400.0,397.5 501.1,528.5" fill="none" stroke="#c87533" stroke-width="3" opacity="0.35"/>
<line x1="366.3" y1="549.8" x2="395.2" y2="547.8" stroke="#a89888" stroke-width="1.5" opacity="0.45"/>
<line x1="404.8" y1="547.8" x2="433.7" y2="549.8" stroke="#a89888" stroke-width="1.5" opacity="0.45"/>
<ellipse cx="373.0" cy="566.2" rx="11.6" ry="8.2" fill="#a89888" opacity="0.45"/>
<ellipse cx="427.0" cy="566.2" rx="11.6" ry="8.2" fill="#a89888" opacity="0.45"/>
<line x1="400.0" y1="589.2" x2="400.0" y2="615.4" stroke="#a89888" stroke-width="1.2" opacity="0.35"/>
<path d="M394.2,615.4 Q400.0,618.4 405.8,615.4" fill="none" stroke="#a89888" stroke-width="1" opacity="0.3"/>
<line x1="375.9" y1="638.3" x2="424.1" y2="638.3" stroke="#a89888" stroke-width="1.2" opacity="0.35"/>
<rect x="285.7" y="441.0" width="62.0" height="38.0" rx="6" fill="white" stroke="#c87533" stroke-width="1.0" opacity="0.92"/>
<polygon points="304.3,479.0 312.3,479.0 301.3,487.0" fill="white" stroke="#c87533" stroke-width="0.8"/>
<line x1="303.8" y1="479.0" x2="312.8" y2="479.0" stroke="white" stroke-width="1.5"/>
<text x="291.7" y="457.0" font-size="10.0" fill="#c87533" font-weight="700">WREN</text>
<text x="291.7" y="470.0" font-size="10.0" fill="#333333">CLEAR!</text>
<text x="508.3" y="449.0" text-anchor="end" font-size="12" font-weight="bold" fill="#888888" opacity="0.6">3</text>
<text x="514.3" y="791.0" text-anchor="end" font-size="9" fill="#888888" opacity="0.5">CU</text>
<rect x="530.3" y="433.0" width="240.7" height="364.0" rx="2" fill="#f5f0e8" stroke="#2a2a2a" stroke-width="1.5"/>
<ellipse cx="650.7" cy="585.9" rx="96.3" ry="163.8" fill="#c0b8a8" opacity="0.18"/>
<path d="M549.6,528.5 Q650.7,397.5 751.7,528.5" fill="none" stroke="#c0b8a8" stroke-width="3" opacity="0.35"/>
<line x1="617.0" y1="549.8" x2="645.9" y2="547.8" stroke="#a89888" stroke-width="1.5" opacity="0.45"/>
<line x1="655.5" y1="547.8" x2="684.4" y2="549.8" stroke="#a89888" stroke-width="1.5" opacity="0.45"/>
<ellipse cx="623.7" cy="566.2" rx="11.6" ry="8.2" fill="#a89888" opacity="0.45"/>
<ellipse cx="677.6" cy="566.2" rx="11.6" ry="8.2" fill="#a89888" opacity="0.45"/>
<line x1="650.7" y1="589.2" x2="650.7" y2="615.4" stroke="#a89888" stroke-width="1.2" opacity="0.35"/>
<path d="M644.9,615.4 Q650.7,618.4 656.4,615.4" fill="none" stroke="#a89888" stroke-width="1" opacity="0.3"/>
<line x1="626.6" y1="638.3" x2="674.7" y2="638.3" stroke="#a89888" stroke-width="1.2" opacity="0.35"/>
<text x="759.0" y="449.0" text-anchor="end" font-size="12" font-weight="bold" fill="#888888" opacity="0.6">4</text>
<text x="765.0" y="791.0" text-anchor="end" font-size="9" fill="#888888" opacity="0.5">CU</text>
<rect x="29.0" y="807.0" width="742.0" height="364.0" rx="2" fill="#f5f0e8" stroke="#2a2a2a" stroke-width="1.5"/>
<line x1="35.0" y1="1090.9" x2="765.0" y2="1090.9" stroke="#a89888" stroke-width="1.0" opacity="0.5"/>
<ellipse cx="400.0" cy="1092.9" rx="11.2" ry="2.7" fill="#a89888" opacity="0.2"/>
<line x1="397.3" y1="1075.2" x2="393.2" y2="1090.9" stroke="#c87533" stroke-width="2" opacity="0.5"/>
<line x1="402.7" y1="1075.2" x2="406.8" y2="1090.9" stroke="#c87533" stroke-width="2" opacity="0.5"/>
<line x1="400.0" y1="1062.1" x2="400.0" y2="1075.2" stroke="#c87533" stroke-width="2.5" opacity="0.6"/>
<line x1="386.5" y1="1064.1" x2="413.5" y2="1064.1" stroke="#c87533" stroke-width="2" opacity="0.5"/>
<line x1="386.5" y1="1064.1" x2="382.0" y2="1075.6" stroke="#c87533" stroke-width="1.5" opacity="0.4"/>
<line x1="413.5" y1="1064.1" x2="418.0" y2="1075.6" stroke="#c87533" stroke-width="1.5" opacity="0.4"/>
<circle cx="400.0" cy="1045.9" r="8.1" fill="#c87533" opacity="0.6"/>
<rect x="35.0" y="815.0" width="62.0" height="40.0" rx="6" fill="white" stroke="#c87533" stroke-width="1.0" opacity="0.92"/>
<polygon points="53.6,855.0 61.6,855.0 50.6,863.0" fill="white" stroke="#c87533" stroke-width="0.8"/>
<line x1="53.1" y1="855.0" x2="62.1" y2="855.0" stroke="white" stroke-width="1.5"/>
<text x="41.0" y="832.0" font-size="11.0" fill="#c87533" font-weight="700">WREN</text>
<text x="41.0" y="846.0" font-size="11.0" fill="#333333">THERE.</text>
<text x="759.0" y="823.0" text-anchor="end" font-size="12" font-weight="bold" fill="#888888" opacity="0.6">5</text>
<text x="765.0" y="1165.0" text-anchor="end" font-size="9" fill="#888888" opacity="0.5">WIDE</text>
</svg>