<svg xmlns="http://www.w3.org/2000/svg" viewBox="0 0 800 1200" width="800" height="1200" style="background:#ffffff">
<style>
  text { font-family: "Helvetica Neue", Helvetica, Arial, sans-serif; }
</style>
<text x="400.0" y="22" text-anchor="middle" font-size="16" fill="#888888" font-weight="500">PAGE 11  (5 panels)</text>
<rect x="29.0" y="59.0" width="742.0" height="364.0" rx="2" fill="#f5f0e8" stroke="#2a2a2a" stroke-width="1.5"/>
<path d="M298.1,332.0 Q298.1,281.0 374.5,274.7 L425.5,274.7 Q501.9,281.0 501.9,332.0 L501.9,379.3 L298.1,379.3 Z" fill="#c87533" opacity="0.25"/>
<path d="M377.7,274.7 L400.0,306.5 L422.3,274.7" fill="none" stroke="#c87533" stroke-width="1" opacity="0.3"/>
<circle cx="400.0" cy="204.6" r="63.7" fill="#c87533" opacity="0.35"/>
<path d="M336.3,217.3 Q345.9,274.7 400.0,277.9 Q454.1,274.7 463.7,217.3" fill="none" stroke="#c87533" stroke-width="1.2" opacity="0.3"/>
<path d="M333.1,198.2 Q400.0,121.8 466.9,198.2" fill="none" stroke="#c87533" stroke-width="2" opacity="0.4"/>
<ellipse cx="334.3" cy="207.8" rx="2.5" ry="4" fill="#c87533" opacity="0.25"/>
<ellipse cx="465.7" cy="207.8" rx="2.5" ry="4" fill="#c87533" opacity="0.25"/>
<rect x="35.0" y="67.0" width="730.0" height="54.0" rx="6" fill="white" stroke="#c87533" stroke-width="1.0" opacity="0.92"/>
<polygon points="254.0,121.0 262.0,121.0 251.0,129.0" fill="white" stroke="#c87533" stroke-width="0.8"/>
<line x1="253.5" y1="121.0" x2="262.5" y2="121.0" stroke="white" stroke-width="1.5"/>
<text x="41.0" y="84.0" font-size="11.0" fill="#c87533" font-weight="700">WREN</text>
<text x="41.0" y="98.0" font-size="11.0" fill="#333333">The disruption field is carried on the same frequency as the telegraph signal... if the wires can carry the field, they can</text>
<text x="41.0" y="112.0" font-size="11.0" fill="#333333">carry a counter-pulse...</text>
<text x="759.0" y="75.0" text-anchor="end" font-size="12" font-weight="bold" fill="#888888" opacity="0.6">1</text>
<text x="765.0" y="417.0" text-anchor="end" font-size="9" fill="#888888" opacity="0.5">MCU</text>
<rect x="29.0" y="433.0" width="238.2" height="364.0" rx="2" fill="#f5f0e8" stroke="#2a2a2a" stroke-width="1.5"/>
<ellipse cx="148.1" cy="585.9" rx="95.3" ry="163.8" fill="#c0b8a8" opacity="0.18"/>
<path d="M48.1,528.5 Q148.1,397.5 248.1,528.5" fill="none" stroke="#c0b8a8" stroke-width="3" opacity="0.35"/>
<line x1="114.7" y1="549.8" x2="143.3" y2="547.8" stroke="#a89888" stroke-width="1.5" opacity="0.45"/>
<line x1="152.8" y1="547.8" x2="181.4" y2="549.8" stroke="#a89888" stroke-width="1.5" opacity="0.45"/>
<ellipse cx="121.4" cy="566.2" rx="11.4" ry="8.2" fill="#a89888" opacity="0.45"/>
<ellipse cx="174.8" cy="566.2" rx="11.4" ry="8.2" fill="#a89888" opacity="0.45"/>
<line x1="148.1" y1="589.2" x2="148.1" y2="615.4" stroke="#a89888" stroke-width="1.2" opacity="0.35"/>
<path d="M142.4,615.4 Q148.1,618.4 153.8,615.4" fill="none" stroke="#a89888" stroke-width="1" opacity="0.3"/>
<line x1="124.3" y1="638.3" x2="171.9" y2="638.3" stroke="#a89888" stroke-width="1.2" opacity="0.35"/>
<text x="255.2" y="449.0" text-anchor="end" font-size="12" font-weight="bold" fill="#888888" opacity="0.6">2</text>
<text x="261.2" y="791.0" text-anchor="end" font-size="9" fill="#888888" opacity="0.5">CU</text>
<rect x="277.2" y="433.0" width="493.8" height="364.0" rx="2" fill="#f5f0e8" stroke="#2a2a2a" stroke-width="1.5"/>
<line x1="283.2" y1="716.9" x2="765.0" y2="716.9" stroke="#a89888" stroke-width="1.0" opacity="0.5"/>
<ellipse cx="524.1" cy="718.9" rx="11.2" ry="2.7" fill="#a89888" opacity="0.2"/>
<line x1="521.4" y1="701.2" x2="517.3" y2="716.9" stroke="#2e8b57" stroke-width="2" opacity="0.5"/>
<line x1="526.8" y1="701.2" x2="530.8" y2="716.9" stroke="#2e8b57" stroke-width="2" opacity="0.5"/>
<line x1="524.1" y1="688.1" x2="524.1" y2="701.2" stroke="#2e8b57" stroke-width="2.5" opacity="0.6"/>
<line x1="510.6" y1="690.1" x2="537.6" y2="690.1" stroke="#2e8b57" stroke-width="2" opacity="0.5"/>
<line x1="510.6" y1="690.1" x2="506.1" y2="701.6" stroke="#2e8b57" stroke-width="1.5" opacity="0.4"/>
<line x1="537.6" y1="690.1" x2="542.1" y2="701.6" stroke="#2e8b57" stroke-width="1.5" opacity="0.4"/>
<circle cx="524.1" cy="671.9" r="8.1" fill="#2e8b57" opacity="0.6"/>
<rect x="283.2" y="441.0" width="254.0" height="40.0" rx="6" fill="white" stroke="#2e8b57" stroke-width="1.0" opacity="0.92"/>
<polygon points="359.4,481.0 367.4,481.0 356.4,489.0" fill="white" stroke="#2e8b57" stroke-width="0.8"/>
<line x1="358.9" y1="481.0" x2="367.9" y2="481.0" stroke="white" stroke-width="1.5"/>
<text x="289.2" y="458.0" font-size="11.0" fill="#2e8b57" font-weight="700">JINK</text>
<text x="289.2" y="472.0" font-size="11.0" fill="#333333">THRESH! Move left — it's reaching again!</text>
<text x="759.0" y="449.0" text-anchor="end" font-size="12" font-weight="bold" fill="#888888" opacity="0.6">3</text>
<text x="765.0" y="791.0" text-anchor="end" font-size="9" fill="#888888" opacity="0.5">WIDE</text>
<rect x="29.0" y="807.0" width="366.0" height="364.0" rx="2" fill="#f5f0e8" stroke="#2a2a2a" stroke-width="1.5"/>
<path d="M153.4,1069.1 L158.8,1022.6 Q164.1,1018.6 195.8,1018.6 L228.2,1018.6 Q259.9,1018.6 265.2,1022.6 L270.6,1069.1 Z" fill="#6a5acd" opacity="0.35"/>
<line x1="158.8" y1="1044.5" x2="265.2" y2="1044.5" stroke="#6a5acd" stroke-width="1" opacity="0.3"/>
<line x1="158.8" y1="1022.6" x2="137.5" y2="1063.5" stroke="#6a5acd" stroke-width="2" opacity="0.3"/>
<line x1="137.5" y1="1063.5" x2="153.4" y2="1088.1" stroke="#6a5acd" stroke-width="2" opacity="0.3"/>
<line x1="265.2" y1="1022.6" x2="286.5" y2="1063.5" stroke="#6a5acd" stroke-width="2" opacity="0.3"/>
<line x1="286.5" y1="1063.5" x2="270.6" y2="1088.1" stroke="#6a5acd" stroke-width="2" opacity="0.3"/>
<line x1="212.0" y1="945.7" x2="212.0" y2="1018.6" stroke="#6a5acd" stroke-width="3" opacity="0.35"/>
<circle cx="212.0" cy="905.3" r="40.5" fill="#6a5acd" opacity="0.4"/>
<rect x="35.0" y="815.0" width="354.0" height="54.0" rx="6" fill="white" stroke="#6a5acd" stroke-width="1.0" opacity="0.92"/>
<polygon points="141.2,869.0 149.2,869.0 138.2,877.0" fill="white" stroke="#6a5acd" stroke-width="0.8"/>
<line x1="140.7" y1="869.0" x2="149.7" y2="869.0" stroke="white" stroke-width="1.5"/>
<text x="41.0" y="832.0" font-size="11.0" fill="#6a5acd" font-weight="700">LUMA</text>
<text x="41.0" y="846.0" font-size="11.0" fill="#333333">The field pulses. There are gaps — maybe two seconds every</text>
<text x="41.0" y="860.0" font-size="11.0" fill="#333333">twelve. Our tech recovers in the gaps.</text>
<rect x="44.2" y="879.0" width="344.8" height="54.0" rx="6" fill="white" stroke="#b0b0b0" stroke-width="1.0" opacity="0.92"/>
<polygon points="147.7,933.0 155.7,933.0 144.7,941.0" fill="white" stroke="#b0b0b0" stroke-width="0.8"/>
<line x1="147.2" y1="933.0" x2="156.2" y2="933.0" stroke="white" stroke-width="1.5"/>
<text x="50.2" y="896.0" font-size="11.0" fill="#b0b0b0" font-weight="700">SABLE</text>
<text x="50.2" y="910.0" font-size="11.0" fill="#333333">Two seconds. That's our window. Jink — on the next gap,</text>
<text x="50.2" y="924.0" font-size="11.0" fill="#333333">full burn. Draw it away from the junction.</text>
<text x="383.0" y="823.0" text-anchor="end" font-size="12" font-weight="bold" fill="#888888" opacity="0.6">4</text>
<text x="389.0" y="1165.0" text-anchor="end" font-size="9" fill="#888888" opacity="0.5">MED</text>
<rect x="405.0" y="807.0" width="366.0" height="364.0" rx="2" fill="#f5f0e8" stroke="#2a2a2a" stroke-width="1.5"/>
<line x1="577.0" y1="1020.9" x2="544.1" y2="1060.9" stroke="#2e8b57" stroke-width="3" opacity="0.35"/>
<line x1="544.1" y1="1060.9" x2="566.0" y2="1090.9" stroke="#2e8b57" stroke-width="3" opacity="0.35"/>
<line x1="599.0" y1="1020.9" x2="642.9" y2="1050.9" stroke="#2e8b57" stroke-width="3" opacity="0.35"/>
<line x1="642.9" y1="1050.9" x2="653.9" y2="1074.9" stroke="#2e8b57" stroke-width="3" opacity="0.35"/>
<line x1="610.0" y1="934.7" x2="581.4" y2="1020.9" stroke="#2e8b57" stroke-width="3.5" opacity="0.4"/>
<circle cx="610.0" cy="890.7" r="20.0" fill="#2e8b57" opacity="0.4"/>
<line x1="599.0" y1="964.8" x2="653.9" y2="935.6" stroke="#2e8b57" stroke-width="2.5" opacity="0.35"/>
<line x1="599.0" y1="964.8" x2="536.8" y2="986.6" stroke="#2e8b57" stroke-width="2.5" opacity="0.35"/>
<path d="M599.0,954.7 Q555.1,918.3 569.7,889.2" fill="none" stroke="#2e8b57" stroke-width="1.5" opacity="0.25"/>
<path d="M599.0,954.7 Q642.9,918.3 628.3,889.2" fill="none" stroke="#2e8b57" stroke-width="1.5" opacity="0.25"/>
<line x1="690.5" y1="923.5" x2="752.7" y2="923.5" stroke="#a89888" stroke-width="1.2" opacity="0.3"/>
<line x1="690.5" y1="959.9" x2="752.7" y2="959.9" stroke="#a89888" stroke-width="1.2" opacity="0.3"/>
<line x1="690.5" y1="996.3" x2="752.7" y2="996.3" stroke="#a89888" stroke-width="1.2" opacity="0.3"/>
<line x1="690.5" y1="1032.7" x2="752.7" y2="1032.7" stroke="#a89888" stroke-width="1.2" opacity="0.3"/>
<line x1="423.3" y1="879.8" x2="470.9" y2="879.8" stroke="#a89888" stroke-width="1" opacity="0.2"/>
<line x1="423.3" y1="934.4" x2="470.9" y2="934.4" stroke="#a89888" stroke-width="1" opacity="0.2"/>
<line x1="423.3" y1="1043.6" x2="470.9" y2="1043.6" stroke="#a89888" stroke-width="1" opacity="0.2"/>
<line x1="423.3" y1="1098.2" x2="470.9" y2="1098.2" stroke="#a89888" stroke-width="1" opacity="0.2"/>
<rect x="411.0" y="815.0" width="187.5" height="40.0" rx="6" fill="white" stroke="#2e8b57" stroke-width="1.0" opacity="0.92"/>
<polygon points="467.2,855.0 475.2,855.0 464.2,863.0" fill="white" stroke="#2e8b57" stroke-width="0.8"/>
<line x1="466.7" y1="855.0" x2="475.7" y2="855.0" stroke="white" stroke-width="1.5"/>
<text x="417.0" y="832.0" font-size="11.0" fill="#2e8b57" font-weight="700">JINK</text>
<text x="417.0" y="846.0" font-size="11.0" fill="#333333">TWO SECONDS? I only need ONE!</text>
<text x="759.0" y="823.0" text-anchor="end" font-size="12" font-weight="bold" fill="#888888" opacity="0.6">5</text>
<text x="765.0" y="1165.0" text-anchor="end" font-size="9" fill="#888888" opacity="0.5">DYN</text>
</svg>