<svg xmlns="http://www.w3.org/2000/svg" viewBox="0 0 800 1200" width="800" height="1200" style="background:#ffffff">
<style>
  text { font-family: "Helvetica Neue", Helvetica, Arial, sans-serif; }
</style>
<text x="400.0" y="22" text-anchor="middle" font-size="16" fill="#888888" font-weight="500">PAGE 3  (5 panels)</text>
<rect x="29.0" y="59.0" width="493.8" height="364.0" rx="2" fill="#f5f0e8" stroke="#2a2a2a" stroke-width="1.5"/>
<line x1="35.0" y1="342.9" x2="516.8" y2="342.9" stroke="#a89888" stroke-width="1.0" opacity="0.5"/>
<ellipse cx="275.9" cy="344.9" rx="11.2" ry="2.7" fill="#a89888" opacity="0.2"/>
<line x1="273.2" y1="327.2" x2="269.2" y2="342.9" stroke="#c87533" stroke-width="2" opacity="0.5"/>
<line x1="278.6" y1="327.2" x2="282.7" y2="342.9" stroke="#c87533" stroke-width="2" opacity="0.5"/>
<line x1="275.9" y1="314.1" x2="275.9" y2="327.2" stroke="#c87533" stroke-width="2.5" opacity="0.6"/>
<line x1="262.4" y1="316.1" x2="289.4" y2="316.1" stroke="#c87533" stroke-width="2" opacity="0.5"/>
<line x1="262.4" y1="316.1" x2="257.9" y2="327.6" stroke="#c87533" stroke-width="1.5" opacity="0.4"/>
<line x1="289.4" y1="316.1" x2="293.9" y2="327.6" stroke="#c87533" stroke-width="1.5" opacity="0.4"/>
<circle cx="275.9" cy="297.9" r="8.1" fill="#c87533" opacity="0.6"/>
<rect x="35.0" y="67.0" width="417.4" height="40.0" rx="6" fill="white" stroke="#c87533" stroke-width="1.0" opacity="0.92"/>
<polygon points="160.2,107.0 168.2,107.0 157.2,115.0" fill="white" stroke="#c87533" stroke-width="0.8"/>
<line x1="159.7" y1="107.0" x2="168.7" y2="107.0" stroke="white" stroke-width="1.5"/>
<text x="41.0" y="84.0" font-size="11.0" fill="#c87533" font-weight="700">WREN</text>
<text x="41.0" y="98.0" font-size="11.0" fill="#333333">Relay room is through the next doorway. Twenty metres at our scale.</text>
<text x="510.8" y="75.0" text-anchor="end" font-size="12" font-weight="bold" fill="#888888" opacity="0.6">1</text>
<text x="516.8" y="417.0" text-anchor="end" font-size="9" fill="#888888" opacity="0.5">WIDE</text>
<rect x="532.8" y="59.0" width="238.2" height="364.0" rx="2" fill="#f5f0e8" stroke="#2a2a2a" stroke-width="1.5"/>
<ellipse cx="651.9" cy="211.9" rx="95.3" ry="163.8" fill="#6a5acd" opacity="0.18"/>
<path d="M551.9,154.6 Q651.9,23.5 751.9,154.6" fill="none" stroke="#6a5acd" stroke-width="3" opacity="0.35"/>
<line x1="618.6" y1="175.8" x2="647.2" y2="173.8" stroke="#a89888" stroke-width="1.5" opacity="0.45"/>
<line x1="656.7" y1="173.8" x2="685.3" y2="175.8" stroke="#a89888" stroke-width="1.5" opacity="0.45"/>
<ellipse cx="625.2" cy="192.2" rx="11.4" ry="8.2" fill="#a89888" opacity="0.45"/>
<ellipse cx="678.6" cy="192.2" rx="11.4" ry="8.2" fill="#a89888" opacity="0.45"/>
<line x1="651.9" y1="215.2" x2="651.9" y2="241.4" stroke="#a89888" stroke-width="1.2" opacity="0.35"/>
<path d="M646.2,241.4 Q651.9,244.4 657.6,241.4" fill="none" stroke="#a89888" stroke-width="1" opacity="0.3"/>
<line x1="628.1" y1="264.3" x2="675.7" y2="264.3" stroke="#a89888" stroke-width="1.2" opacity="0.35"/>
<rect x="538.8" y="67.0" width="210.0" height="64.0" rx="6" fill="white" stroke="#6a5acd" stroke-width="1.0" opacity="0.92"/>
<polygon points="601.8,131.0 609.8,131.0 598.8,139.0" fill="white" stroke="#6a5acd" stroke-width="0.8"/>
<line x1="601.3" y1="131.0" x2="610.3" y2="131.0" stroke="white" stroke-width="1.5"/>
<text x="544.8" y="83.0" font-size="10.0" fill="#6a5acd" font-weight="700">LUMA</text>
<text x="544.8" y="96.0" font-size="10.0" fill="#333333">Wren. I'm getting an electromagnetic</text>
<text x="544.8" y="109.0" font-size="10.0" fill="#333333">anomaly. Not telegraph current —</text>
<text x="544.8" y="122.0" font-size="10.0" fill="#333333">something else.</text>
<text x="759.0" y="75.0" text-anchor="end" font-size="12" font-weight="bold" fill="#888888" opacity="0.6">2</text>
<text x="765.0" y="417.0" text-anchor="end" font-size="9" fill="#888888" opacity="0.5">CU</text>
<rect x="29.0" y="433.0" width="742.0" height="364.0" rx="2" fill="#f5f0e8" stroke="#2a2a2a" stroke-width="1.5"/>
<path d="M341.4,695.1 L346.8,648.6 Q352.1,644.6 383.8,644.6 L416.2,644.6 Q447.9,644.6 453.2,648.6 L458.6,695.1 Z" fill="#c87533" opacity="0.35"/>
<line x1="346.8" y1="670.5" x2="453.2" y2="670.5" stroke="#c87533" stroke-width="1" opacity="0.3"/>
<line x1="346.8" y1="648.6" x2="325.5" y2="689.5" stroke="#c87533" stroke-width="2" opacity="0.3"/>
<line x1="325.5" y1="689.5" x2="341.4" y2="714.1" stroke="#c87533" stroke-width="2" opacity="0.3"/>
<line x1="453.2" y1="648.6" x2="474.5" y2="689.5" stroke="#c87533" stroke-width="2" opacity="0.3"/>
<line x1="474.5" y1="689.5" x2="458.6" y2="714.1" stroke="#c87533" stroke-width="2" opacity="0.3"/>
<line x1="400.0" y1="571.7" x2="400.0" y2="644.6" stroke="#c87533" stroke-width="3" opacity="0.35"/>
<circle cx="400.0" cy="531.3" r="40.5" fill="#c87533" opacity="0.4"/>
<rect x="35.0" y="441.0" width="62.0" height="40.0" rx="6" fill="white" stroke="#c87533" stroke-width="1.0" opacity="0.92"/>
<polygon points="53.6,481.0 61.6,481.0 50.6,489.0" fill="white" stroke="#c87533" stroke-width="0.8"/>
<line x1="53.1" y1="481.0" x2="62.1" y2="481.0" stroke="white" stroke-width="1.5"/>
<text x="41.0" y="458.0" font-size="11.0" fill="#c87533" font-weight="700">WREN</text>
<text x="41.0" y="472.0" font-size="11.0" fill="#333333">Stop.</text>
<rect x="686.5" y="491.0" width="78.6" height="40.0" rx="6" fill="white" stroke="#b0b0b0" stroke-width="1.0" opacity="0.92"/>
<polygon points="710.0,531.0 718.0,531.0 707.0,539.0" fill="white" stroke="#b0b0b0" stroke-width="0.8"/>
<line x1="709.5" y1="531.0" x2="718.5" y2="531.0" stroke="white" stroke-width="1.5"/>
<text x="692.5" y="508.0" font-size="11.0" fill="#b0b0b0" font-weight="700">SABLE</text>
<text x="692.5" y="522.0" font-size="11.0" fill="#333333">What is it?</text>
<rect x="35.0" y="541.0" width="453.7" height="40.0" rx="6" fill="white" stroke="#c87533" stroke-width="1.0" opacity="0.92"/>
<polygon points="171.1,581.0 179.1,581.0 168.1,589.0" fill="white" stroke="#c87533" stroke-width="0.8"/>
<line x1="170.6" y1="581.0" x2="179.6" y2="581.0" stroke="white" stroke-width="1.5"/>
<text x="41.0" y="558.0" font-size="11.0" fill="#c87533" font-weight="700">WREN</text>
<text x="41.0" y="572.0" font-size="11.0" fill="#333333">Someone's modified this circuit. The routing is... this isn't human work.</text>
<text x="759.0" y="449.0" text-anchor="end" font-size="12" font-weight="bold" fill="#888888" opacity="0.6">3</text>
<text x="765.0" y="791.0" text-anchor="end" font-size="9" fill="#888888" opacity="0.5">MW</text>
<rect x="29.0" y="807.0" width="366.0" height="364.0" rx="2" fill="#f5f0e8" stroke="#2a2a2a" stroke-width="1.5"/>
<line x1="37.0" y1="934.4" x2="387.0" y2="934.4" stroke="#a89888" stroke-width="0.6" opacity="0.2"/>
<line x1="212.0" y1="934.4" x2="65.6" y2="1134.6" stroke="#a89888" stroke-width="0.8" opacity="0.25"/>
<line x1="212.0" y1="934.4" x2="138.8" y2="1134.6" stroke="#a89888" stroke-width="0.8" opacity="0.25"/>
<line x1="212.0" y1="934.4" x2="186.4" y2="1134.6" stroke="#a89888" stroke-width="0.8" opacity="0.25"/>
<line x1="212.0" y1="934.4" x2="237.6" y2="1134.6" stroke="#a89888" stroke-width="0.8" opacity="0.25"/>
<line x1="212.0" y1="934.4" x2="285.2" y2="1134.6" stroke="#a89888" stroke-width="0.8" opacity="0.25"/>
<line x1="212.0" y1="934.4" x2="358.4" y2="1134.6" stroke="#a89888" stroke-width="0.8" opacity="0.25"/>
<circle cx="212.0" cy="934.4" r="3" fill="#a89888" opacity="0.3"/>
<rect x="35.0" y="815.0" width="320.6" height="54.0" rx="6" fill="white" stroke="#c87533" stroke-width="1.0" opacity="0.92"/>
<polygon points="131.2,869.0 139.2,869.0 128.2,877.0" fill="white" stroke="#c87533" stroke-width="0.8"/>
<line x1="130.7" y1="869.0" x2="139.7" y2="869.0" stroke="white" stroke-width="1.5"/>
<text x="41.0" y="832.0" font-size="11.0" fill="#c87533" font-weight="700">WREN</text>
<text x="41.0" y="846.0" font-size="11.0" fill="#333333">The material signature doesn't match anything in my</text>
<text x="41.0" y="860.0" font-size="11.0" fill="#333333">database. Not Victorian. Not ours.</text>
<rect x="56.3" y="879.0" width="332.7" height="54.0" rx="6" fill="white" stroke="#6a5acd" stroke-width="1.0" opacity="0.92"/>
<polygon points="156.1,933.0 164.1,933.0 153.1,941.0" fill="white" stroke="#6a5acd" stroke-width="0.8"/>
<line x1="155.6" y1="933.0" x2="164.6" y2="933.0" stroke="white" stroke-width="1.5"/>
<text x="62.3" y="896.0" font-size="11.0" fill="#6a5acd" font-weight="700">LUMA</text>
<text x="62.3" y="910.0" font-size="11.0" fill="#333333">Wren — my anomaly readings are spiking. Whatever's in</text>
<text x="62.3" y="924.0" font-size="11.0" fill="#333333">there, it's not limited to this machine.</text>
<text x="383.0" y="823.0" text-anchor="end" font-size="12" font-weight="bold" fill="#888888" opacity="0.6">4</text>
<text x="389.0" y="1165.0" text-anchor="end" font-size="9" fill="#888888" opacity="0.5">POV</text>
<rect x="405.0" y="807.0" width="366.0" height="364.0" rx="2" fill="#f5f0e8" stroke="#2a2a2a" stroke-width="1.5"/>
<path d="M486.1,1080.0 Q486.1,1029.0 562.5,1022.7 L613.5,1022.7 Q689.9,1029.0 689.9,1080.0 L689.9,1127.3 L486.1,1127.3 Z" fill="#b0b0b0" opacity="0.25"/>
<path d="M565.7,1022.7 L588.0,1054.5 L610.3,1022.7" fill="none" stroke="#b0b0b0" stroke-width="1" opacity="0.3"/>
<circle cx="588.0" cy="952.6" r="63.7" fill="#b0b0b0" opacity="0.35"/>
<path d="M524.3,965.3 Q533.9,1022.7 588.0,1025.9 Q642.1,1022.7 651.7,965.3" fill="none" stroke="#b0b0b0" stroke-width="1.2" opacity="0.3"/>
<path d="M521.1,946.2 Q588.0,869.8 654.9,946.2" fill="none" stroke="#b0b0b0" stroke-width="2" opacity="0.4"/>
<ellipse cx="522.3" cy="955.8" rx="2.5" ry="4" fill="#b0b0b0" opacity="0.25"/>
<ellipse cx="653.7" cy="955.8" rx="2.5" ry="4" fill="#b0b0b0" opacity="0.25"/>
<rect x="411.0" y="815.0" width="354.0" height="54.0" rx="6" fill="white" stroke="#b0b0b0" stroke-width="1.0" opacity="0.92"/>
<polygon points="517.2,869.0 525.2,869.0 514.2,877.0" fill="white" stroke="#b0b0b0" stroke-width="0.8"/>
<line x1="516.7" y1="869.0" x2="525.7" y2="869.0" stroke="white" stroke-width="1.5"/>
<text x="417.0" y="832.0" font-size="11.0" fill="#b0b0b0" font-weight="700">SABLE</text>
<text x="417.0" y="846.0" font-size="11.0" fill="#333333">New posture. Weapons free, scanners active. Wren, can you</text>
<text x="417.0" y="860.0" font-size="11.0" fill="#333333">still get the coil?</text>
<rect x="411.0" y="879.0" width="350.8" height="40.0" rx="6" fill="white" stroke="#c87533" stroke-width="1.0" opacity="0.92"/>
<polygon points="516.2,919.0 524.2,919.0 513.2,927.0" fill="white" stroke="#c87533" stroke-width="0.8"/>
<line x1="515.7" y1="919.0" x2="524.7" y2="919.0" stroke="white" stroke-width="1.5"/>
<text x="417.0" y="896.0" font-size="11.0" fill="#c87533" font-weight="700">WREN</text>
<text x="417.0" y="910.0" font-size="11.0" fill="#333333">The relay room. But I want to see what's in there first.</text>
<rect x="411.0" y="929.0" width="151.2" height="40.0" rx="6" fill="white" stroke="#b0b0b0" stroke-width="1.0" opacity="0.92"/>
<polygon points="456.3,969.0 464.3,969.0 453.3,977.0" fill="white" stroke="#b0b0b0" stroke-width="0.8"/>
<line x1="455.8" y1="969.0" x2="464.8" y2="969.0" stroke="white" stroke-width="1.5"/>
<text x="417.0" y="946.0" font-size="11.0" fill="#b0b0b0" font-weight="700">SABLE</text>
<text x="417.0" y="960.0" font-size="11.0" fill="#333333">Together. Nobody alone.</text>
<text x="759.0" y="823.0" text-anchor="end" font-size="12" font-weight="bold" fill="#888888" opacity="0.6">5</text>
<text x="765.0" y="1165.0" text-anchor="end" font-size="9" fill="#888888" opacity="0.5">MCU</text>
</svg>