<svg xmlns="http://www.w3.org/2000/svg" viewBox="0 0 800 1200" width="800" height="1200" style="background:#ffffff">
<style>
  text { font-family: "Helvetica Neue", Helvetica, Arial, sans-serif; }
</style>
<text x="400.0" y="22" text-anchor="middle" font-size="16" fill="#888888" font-weight="500">PAGE 5  (5 panels)</text>
<rect x="29.0" y="59.0" width="238.2" height="364.0" rx="2" fill="#f5f0e8" stroke="#2a2a2a" stroke-width="1.5"/>
<ellipse cx="148.1" cy="211.9" rx="95.3" ry="163.8" fill="#c87533" opacity="0.18"/>
<path d="M48.1,154.6 Q148.1,23.5 248.1,154.6" fill="none" stroke="#c87533" stroke-width="3" opacity="0.35"/>
<line x1="114.7" y1="175.8" x2="143.3" y2="173.8" stroke="#a89888" stroke-width="1.5" opacity="0.45"/>
<line x1="152.8" y1="173.8" x2="181.4" y2="175.8" stroke="#a89888" stroke-width="1.5" opacity="0.45"/>
<ellipse cx="121.4" cy="192.2" rx="11.4" ry="8.2" fill="#a89888" opacity="0.45"/>
<ellipse cx="174.8" cy="192.2" rx="11.4" ry="8.2" fill="#a89888" opacity="0.45"/>
<line x1="148.1" y1="215.2" x2="148.1" y2="241.4" stroke="#a89888" stroke-width="1.2" opacity="0.35"/>
<path d="M142.4,241.4 Q148.1,244.4 153.8,241.4" fill="none" stroke="#a89888" stroke-width="1" opacity="0.3"/>
<line x1="124.3" y1="264.3" x2="171.9" y2="264.3" stroke="#a89888" stroke-width="1.2" opacity="0.35"/>
<rect x="35.0" y="67.0" width="226.2" height="90.0" rx="6" fill="white" stroke="#c87533" stroke-width="1.0" opacity="0.92"/>
<polygon points="102.8,157.0 110.8,157.0 99.8,165.0" fill="white" stroke="#c87533" stroke-width="0.8"/>
<line x1="102.3" y1="157.0" x2="111.3" y2="157.0" stroke="white" stroke-width="1.5"/>
<text x="41.0" y="83.0" font-size="10.0" fill="#c87533" font-weight="700">WREN</text>
<text x="41.0" y="96.0" font-size="10.0" fill="#333333">There's a device. Embedded in the main</text>
<text x="41.0" y="109.0" font-size="10.0" fill="#333333">telegraph terminal. The energy signature</text>
<text x="41.0" y="122.0" font-size="10.0" fill="#333333">matches the components in the relay room</text>
<text x="41.0" y="135.0" font-size="10.0" fill="#333333">— but the magnitude is... this is the</text>
<text x="41.0" y="148.0" font-size="10.0" fill="#333333">source.</text>
<text x="255.2" y="75.0" text-anchor="end" font-size="12" font-weight="bold" fill="#888888" opacity="0.6">1</text>
<text x="261.2" y="417.0" text-anchor="end" font-size="9" fill="#888888" opacity="0.5">CU</text>
<rect x="277.2" y="59.0" width="493.8" height="364.0" rx="2" fill="#f5f0e8" stroke="#2a2a2a" stroke-width="1.5"/>
<path d="M465.5,321.1 L470.8,274.6 Q476.2,270.6 507.9,270.6 L540.3,270.6 Q572.0,270.6 577.3,274.6 L582.6,321.1 Z" fill="#2e8b57" opacity="0.35"/>
<line x1="470.8" y1="296.5" x2="577.3" y2="296.5" stroke="#2e8b57" stroke-width="1" opacity="0.3"/>
<line x1="470.8" y1="274.6" x2="449.6" y2="315.5" stroke="#2e8b57" stroke-width="2" opacity="0.3"/>
<line x1="449.6" y1="315.5" x2="465.5" y2="340.1" stroke="#2e8b57" stroke-width="2" opacity="0.3"/>
<line x1="577.3" y1="274.6" x2="598.6" y2="315.5" stroke="#2e8b57" stroke-width="2" opacity="0.3"/>
<line x1="598.6" y1="315.5" x2="582.6" y2="340.1" stroke="#2e8b57" stroke-width="2" opacity="0.3"/>
<line x1="524.1" y1="197.7" x2="524.1" y2="270.6" stroke="#2e8b57" stroke-width="3" opacity="0.35"/>
<circle cx="524.1" cy="157.3" r="40.5" fill="#2e8b57" opacity="0.4"/>
<rect x="283.2" y="67.0" width="181.4" height="40.0" rx="6" fill="white" stroke="#2e8b57" stroke-width="1.0" opacity="0.92"/>
<polygon points="337.6,107.0 345.6,107.0 334.6,115.0" fill="white" stroke="#2e8b57" stroke-width="0.8"/>
<line x1="337.1" y1="107.0" x2="346.1" y2="107.0" stroke="white" stroke-width="1.5"/>
<text x="289.2" y="84.0" font-size="11.0" fill="#2e8b57" font-weight="700">JINK</text>
<text x="289.2" y="98.0" font-size="11.0" fill="#333333">Did you see that? The hands—</text>
<rect x="703.0" y="117.0" width="62.0" height="40.0" rx="6" fill="white" stroke="#b0b0b0" stroke-width="1.0" opacity="0.92"/>
<polygon points="721.6,157.0 729.6,157.0 718.6,165.0" fill="white" stroke="#b0b0b0" stroke-width="0.8"/>
<line x1="721.1" y1="157.0" x2="730.1" y2="157.0" stroke="white" stroke-width="1.5"/>
<text x="709.0" y="134.0" font-size="11.0" fill="#b0b0b0" font-weight="700">SABLE</text>
<text x="709.0" y="148.0" font-size="11.0" fill="#333333">Quiet.</text>
<text x="759.0" y="75.0" text-anchor="end" font-size="12" font-weight="bold" fill="#888888" opacity="0.6">2</text>
<text x="765.0" y="417.0" text-anchor="end" font-size="9" fill="#888888" opacity="0.5">MW</text>
<rect x="29.0" y="433.0" width="742.0" height="364.0" rx="2" fill="#f5f0e8" stroke="#2a2a2a" stroke-width="1.5"/>
<circle cx="400.0" cy="615.0" r="45.0" fill="#b0b0b0" opacity="0.22"/>
<line x1="375.2" y1="603.8" x2="393.2" y2="596.1" stroke="#a89888" stroke-width="1.5" opacity="0.5"/>
<line x1="406.8" y1="596.1" x2="424.8" y2="603.8" stroke="#a89888" stroke-width="1.5" opacity="0.5"/>
<ellipse cx="386.5" cy="610.5" rx="4.5" ry="2.7" fill="#a89888" opacity="0.5"/>
<ellipse cx="413.5" cy="610.5" rx="4.5" ry="2.7" fill="#a89888" opacity="0.5"/>
<line x1="400.0" y1="615.9" x2="400.0" y2="624.0" stroke="#a89888" stroke-width="1" opacity="0.35"/>
<ellipse cx="400.0" cy="632.1" rx="6.8" ry="3.6" fill="#a89888" opacity="0.25"/>
<line x1="444.8" y1="640.9" x2="452.6" y2="645.4" stroke="#a89888" stroke-width="1" opacity="0.3"/>
<line x1="425.9" y1="659.8" x2="430.4" y2="667.6" stroke="#a89888" stroke-width="1" opacity="0.3"/>
<line x1="374.1" y1="659.8" x2="369.6" y2="667.6" stroke="#a89888" stroke-width="1" opacity="0.3"/>
<line x1="355.2" y1="640.9" x2="347.4" y2="645.4" stroke="#a89888" stroke-width="1" opacity="0.3"/>
<line x1="355.2" y1="589.1" x2="347.4" y2="584.6" stroke="#a89888" stroke-width="1" opacity="0.3"/>
<line x1="374.1" y1="570.2" x2="369.6" y2="562.4" stroke="#a89888" stroke-width="1" opacity="0.3"/>
<line x1="425.9" y1="570.2" x2="430.4" y2="562.4" stroke="#a89888" stroke-width="1" opacity="0.3"/>
<line x1="444.8" y1="589.1" x2="452.6" y2="584.6" stroke="#a89888" stroke-width="1" opacity="0.3"/>
<rect x="35.0" y="441.0" width="102.8" height="40.0" rx="6" fill="white" stroke="#b0b0b0" stroke-width="1.0" opacity="0.92"/>
<polygon points="65.8,481.0 73.8,481.0 62.8,489.0" fill="white" stroke="#b0b0b0" stroke-width="0.8"/>
<line x1="65.3" y1="481.0" x2="74.3" y2="481.0" stroke="white" stroke-width="1.5"/>
<text x="41.0" y="458.0" font-size="11.0" fill="#b0b0b0" font-weight="700">SABLE</text>
<text x="41.0" y="472.0" font-size="11.0" fill="#333333">That's a Titan.</text>
<rect x="450.5" y="491.0" width="314.5" height="40.0" rx="6" fill="white" stroke="#6a5acd" stroke-width="1.0" opacity="0.92"/>
<polygon points="544.9,531.0 552.9,531.0 541.9,539.0" fill="white" stroke="#6a5acd" stroke-width="0.8"/>
<line x1="544.4" y1="531.0" x2="553.4" y2="531.0" stroke="white" stroke-width="1.5"/>
<text x="456.5" y="508.0" font-size="11.0" fill="#6a5acd" font-weight="700">LUMA</text>
<text x="456.5" y="522.0" font-size="11.0" fill="#333333">It's real. Everything in the file — it's all real.</text>
<rect x="35.0" y="541.0" width="387.1" height="40.0" rx="6" fill="white" stroke="#b0b0b0" stroke-width="1.0" opacity="0.92"/>
<polygon points="151.1,581.0 159.1,581.0 148.1,589.0" fill="white" stroke="#b0b0b0" stroke-width="0.8"/>
<line x1="150.6" y1="581.0" x2="159.6" y2="581.0" stroke="white" stroke-width="1.5"/>
<text x="41.0" y="558.0" font-size="11.0" fill="#b0b0b0" font-weight="700">SABLE</text>
<text x="41.0" y="572.0" font-size="11.0" fill="#333333">Wren. The coil. Can you get to it without that thing noticing?</text>
<rect x="45.1" y="591.0" width="719.9" height="40.0" rx="6" fill="white" stroke="#c87533" stroke-width="1.0" opacity="0.92"/>
<polygon points="261.1,631.0 269.1,631.0 258.1,639.0" fill="white" stroke="#c87533" stroke-width="0.8"/>
<line x1="260.6" y1="631.0" x2="269.6" y2="631.0" stroke="white" stroke-width="1.5"/>
<text x="51.1" y="608.0" font-size="11.0" fill="#c87533" font-weight="700">WREN</text>
<text x="51.1" y="622.0" font-size="11.0" fill="#333333">Negative. The relay room coil is connected to whatever that device is. If I pull it, the circuit changes. It'll know.</text>
<text x="759.0" y="449.0" text-anchor="end" font-size="12" font-weight="bold" fill="#888888" opacity="0.6">3</text>
<text x="765.0" y="791.0" text-anchor="end" font-size="9" fill="#888888" opacity="0.5">RXN</text>
<rect x="29.0" y="807.0" width="366.0" height="364.0" rx="2" fill="#f5f0e8" stroke="#2a2a2a" stroke-width="1.5"/>
<ellipse cx="212.0" cy="959.9" rx="114.7" ry="163.8" fill="#c0b8a8" opacity="0.18"/>
<path d="M91.6,902.5 Q212.0,771.5 332.4,902.5" fill="none" stroke="#c0b8a8" stroke-width="3" opacity="0.35"/>
<line x1="171.9" y1="923.8" x2="206.3" y2="921.8" stroke="#a89888" stroke-width="1.5" opacity="0.45"/>
<line x1="217.7" y1="921.8" x2="252.1" y2="923.8" stroke="#a89888" stroke-width="1.5" opacity="0.45"/>
<ellipse cx="179.9" cy="940.2" rx="13.8" ry="8.2" fill="#a89888" opacity="0.45"/>
<ellipse cx="244.1" cy="940.2" rx="13.8" ry="8.2" fill="#a89888" opacity="0.45"/>
<line x1="212.0" y1="963.2" x2="212.0" y2="989.4" stroke="#a89888" stroke-width="1.2" opacity="0.35"/>
<path d="M205.1,989.4 Q212.0,992.4 218.9,989.4" fill="none" stroke="#a89888" stroke-width="1" opacity="0.3"/>
<line x1="183.3" y1="1012.3" x2="240.7" y2="1012.3" stroke="#a89888" stroke-width="1.2" opacity="0.35"/>
<text x="383.0" y="823.0" text-anchor="end" font-size="12" font-weight="bold" fill="#888888" opacity="0.6">4</text>
<text x="389.0" y="1165.0" text-anchor="end" font-size="9" fill="#888888" opacity="0.5">CU</text>
<rect x="405.0" y="807.0" width="366.0" height="364.0" rx="2" fill="#f5f0e8" stroke="#2a2a2a" stroke-width="1.5"/>
<ellipse cx="588.0" cy="959.9" rx="114.7" ry="163.8" fill="#b0b0b0" opacity="0.18"/>
<path d="M467.6,902.5 Q588.0,771.5 708.4,902.5" fill="none" stroke="#b0b0b0" stroke-width="3" opacity="0.35"/>
<line x1="547.9" y1="923.8" x2="582.3" y2="921.8" stroke="#a89888" stroke-width="1.5" opacity="0.45"/>
<line x1="593.7" y1="921.8" x2="628.1" y2="923.8" stroke="#a89888" stroke-width="1.5" opacity="0.45"/>
<ellipse cx="555.9" cy="940.2" rx="13.8" ry="8.2" fill="#a89888" opacity="0.45"/>
<ellipse cx="620.1" cy="940.2" rx="13.8" ry="8.2" fill="#a89888" opacity="0.45"/>
<line x1="588.0" y1="963.2" x2="588.0" y2="989.4" stroke="#a89888" stroke-width="1.2" opacity="0.35"/>
<path d="M581.1,989.4 Q588.0,992.4 594.9,989.4" fill="none" stroke="#a89888" stroke-width="1" opacity="0.3"/>
<line x1="559.3" y1="1012.3" x2="616.7" y2="1012.3" stroke="#a89888" stroke-width="1.2" opacity="0.35"/>
<rect x="411.0" y="815.0" width="354.0" height="54.0" rx="6" fill="white" stroke="#b0b0b0" stroke-width="1.0" opacity="0.92"/>
<polygon points="517.2,869.0 525.2,869.0 514.2,877.0" fill="white" stroke="#b0b0b0" stroke-width="0.8"/>
<line x1="516.7" y1="869.0" x2="525.7" y2="869.0" stroke="white" stroke-width="1.5"/>
<text x="417.0" y="832.0" font-size="11.0" fill="#b0b0b0" font-weight="700">SABLE</text>
<text x="417.0" y="846.0" font-size="11.0" fill="#333333">We pull back. Jink, get high. Wren, I need everything your</text>
<text x="417.0" y="860.0" font-size="11.0" fill="#333333">scanner captured. We regroup and—</text>
<text x="759.0" y="823.0" text-anchor="end" font-size="12" font-weight="bold" fill="#888888" opacity="0.6">5</text>
<text x="765.0" y="1165.0" text-anchor="end" font-size="9" fill="#888888" opacity="0.5">CU</text>
</svg>