<svg xmlns="http://www.w3.org/2000/svg" viewBox="0 0 800 1200" width="800" height="1200" style="background:#ffffff">
<style>
  text { font-family: "Helvetica Neue", Helvetica, Arial, sans-serif; }
</style>
<text x="400.0" y="22" text-anchor="middle" font-size="16" fill="#888888" font-weight="500">PAGE 9  (5 panels)</text>
<rect x="29.0" y="59.0" width="493.8" height="364.0" rx="2" fill="#f5f0e8" stroke="#2a2a2a" stroke-width="1.5"/>
<path d="M217.4,321.1 L222.7,274.6 Q228.0,270.6 259.7,270.6 L292.1,270.6 Q323.8,270.6 329.2,274.6 L334.5,321.1 Z" fill="#c87533" opacity="0.35"/>
<line x1="222.7" y1="296.5" x2="329.2" y2="296.5" stroke="#c87533" stroke-width="1" opacity="0.3"/>
<line x1="222.7" y1="274.6" x2="201.4" y2="315.5" stroke="#c87533" stroke-width="2" opacity="0.3"/>
<line x1="201.4" y1="315.5" x2="217.4" y2="340.1" stroke="#c87533" stroke-width="2" opacity="0.3"/>
<line x1="329.2" y1="274.6" x2="350.4" y2="315.5" stroke="#c87533" stroke-width="2" opacity="0.3"/>
<line x1="350.4" y1="315.5" x2="334.5" y2="340.1" stroke="#c87533" stroke-width="2" opacity="0.3"/>
<line x1="275.9" y1="197.7" x2="275.9" y2="270.6" stroke="#c87533" stroke-width="3" opacity="0.35"/>
<circle cx="275.9" cy="157.3" r="40.5" fill="#c87533" opacity="0.4"/>
<rect x="35.0" y="67.0" width="248.0" height="40.0" rx="6" fill="white" stroke="#c87533" stroke-width="1.0" opacity="0.92"/>
<polygon points="109.4,107.0 117.4,107.0 106.4,115.0" fill="white" stroke="#c87533" stroke-width="0.8"/>
<line x1="108.9" y1="107.0" x2="117.9" y2="107.0" stroke="white" stroke-width="1.5"/>
<text x="41.0" y="84.0" font-size="11.0" fill="#c87533" font-weight="700">WREN</text>
<text x="41.0" y="98.0" font-size="11.0" fill="#333333">It's not fighting us. It's ignoring us.</text>
<rect x="426.2" y="117.0" width="90.7" height="40.0" rx="6" fill="white" stroke="#b0b0b0" stroke-width="1.0" opacity="0.92"/>
<polygon points="453.4,157.0 461.4,157.0 450.4,165.0" fill="white" stroke="#b0b0b0" stroke-width="0.8"/>
<line x1="452.9" y1="157.0" x2="461.9" y2="157.0" stroke="white" stroke-width="1.5"/>
<text x="432.2" y="134.0" font-size="11.0" fill="#b0b0b0" font-weight="700">SABLE</text>
<text x="432.2" y="148.0" font-size="11.0" fill="#333333">That's worse.</text>
<text x="510.8" y="75.0" text-anchor="end" font-size="12" font-weight="bold" fill="#888888" opacity="0.6">1</text>
<text x="516.8" y="417.0" text-anchor="end" font-size="9" fill="#888888" opacity="0.5">MW</text>
<rect x="532.8" y="59.0" width="238.2" height="364.0" rx="2" fill="#f5f0e8" stroke="#2a2a2a" stroke-width="1.5"/>
<ellipse cx="651.9" cy="211.9" rx="95.3" ry="163.8" fill="#c87533" opacity="0.18"/>
<path d="M551.9,154.6 Q651.9,23.5 751.9,154.6" fill="none" stroke="#c87533" stroke-width="3" opacity="0.35"/>
<line x1="618.6" y1="175.8" x2="647.2" y2="173.8" stroke="#a89888" stroke-width="1.5" opacity="0.45"/>
<line x1="656.7" y1="173.8" x2="685.3" y2="175.8" stroke="#a89888" stroke-width="1.5" opacity="0.45"/>
<ellipse cx="625.2" cy="192.2" rx="11.4" ry="8.2" fill="#a89888" opacity="0.45"/>
<ellipse cx="678.6" cy="192.2" rx="11.4" ry="8.2" fill="#a89888" opacity="0.45"/>
<line x1="651.9" y1="215.2" x2="651.9" y2="241.4" stroke="#a89888" stroke-width="1.2" opacity="0.35"/>
<path d="M646.2,241.4 Q651.9,244.4 657.6,241.4" fill="none" stroke="#a89888" stroke-width="1" opacity="0.3"/>
<line x1="628.1" y1="264.3" x2="675.7" y2="264.3" stroke="#a89888" stroke-width="1.2" opacity="0.35"/>
<rect x="538.8" y="67.0" width="226.2" height="64.0" rx="6" fill="white" stroke="#c87533" stroke-width="1.0" opacity="0.92"/>
<polygon points="606.7,131.0 614.7,131.0 603.7,139.0" fill="white" stroke="#c87533" stroke-width="0.8"/>
<line x1="606.2" y1="131.0" x2="615.2" y2="131.0" stroke="white" stroke-width="1.5"/>
<text x="544.8" y="83.0" font-size="10.0" fill="#c87533" font-weight="700">WREN</text>
<text x="544.8" y="96.0" font-size="10.0" fill="#333333">It's connecting to the distribution hub.</text>
<text x="544.8" y="109.0" font-size="10.0" fill="#333333">Once it's in, the signal goes across the</text>
<text x="544.8" y="122.0" font-size="10.0" fill="#333333">entire network. We can't let it finish.</text>
<text x="759.0" y="75.0" text-anchor="end" font-size="12" font-weight="bold" fill="#888888" opacity="0.6">2</text>
<text x="765.0" y="417.0" text-anchor="end" font-size="9" fill="#888888" opacity="0.5">CU</text>
<rect x="29.0" y="433.0" width="742.0" height="364.0" rx="2" fill="#f5f0e8" stroke="#2a2a2a" stroke-width="1.5"/>
<line x1="377.7" y1="646.9" x2="311.0" y2="686.9" stroke="#2e8b57" stroke-width="3" opacity="0.35"/>
<line x1="311.0" y1="686.9" x2="355.5" y2="716.9" stroke="#2e8b57" stroke-width="3" opacity="0.35"/>
<line x1="422.3" y1="646.9" x2="511.3" y2="676.9" stroke="#2e8b57" stroke-width="3" opacity="0.35"/>
<line x1="511.3" y1="676.9" x2="533.6" y2="700.9" stroke="#2e8b57" stroke-width="3" opacity="0.35"/>
<line x1="444.5" y1="560.7" x2="386.6" y2="646.9" stroke="#2e8b57" stroke-width="3.5" opacity="0.4"/>
<circle cx="444.5" cy="516.7" r="20.0" fill="#2e8b57" opacity="0.4"/>
<line x1="422.3" y1="590.8" x2="533.6" y2="561.6" stroke="#2e8b57" stroke-width="2.5" opacity="0.35"/>
<line x1="422.3" y1="590.8" x2="296.1" y2="612.6" stroke="#2e8b57" stroke-width="2.5" opacity="0.35"/>
<path d="M422.3,580.7 Q333.2,544.3 362.9,515.2" fill="none" stroke="#2e8b57" stroke-width="1.5" opacity="0.25"/>
<path d="M422.3,580.7 Q511.3,544.3 481.6,515.2" fill="none" stroke="#2e8b57" stroke-width="1.5" opacity="0.25"/>
<line x1="607.8" y1="549.5" x2="733.9" y2="549.5" stroke="#a89888" stroke-width="1.2" opacity="0.3"/>
<line x1="607.8" y1="585.9" x2="733.9" y2="585.9" stroke="#a89888" stroke-width="1.2" opacity="0.3"/>
<line x1="607.8" y1="622.3" x2="733.9" y2="622.3" stroke="#a89888" stroke-width="1.2" opacity="0.3"/>
<line x1="607.8" y1="658.7" x2="733.9" y2="658.7" stroke="#a89888" stroke-width="1.2" opacity="0.3"/>
<line x1="66.1" y1="505.8" x2="162.6" y2="505.8" stroke="#a89888" stroke-width="1" opacity="0.2"/>
<line x1="66.1" y1="560.4" x2="162.6" y2="560.4" stroke="#a89888" stroke-width="1" opacity="0.2"/>
<line x1="66.1" y1="669.6" x2="162.6" y2="669.6" stroke="#a89888" stroke-width="1" opacity="0.2"/>
<line x1="66.1" y1="724.2" x2="162.6" y2="724.2" stroke="#a89888" stroke-width="1" opacity="0.2"/>
<rect x="35.0" y="441.0" width="163.2" height="40.0" rx="6" fill="white" stroke="#2e8b57" stroke-width="1.0" opacity="0.92"/>
<polygon points="84.0,481.0 92.0,481.0 81.0,489.0" fill="white" stroke="#2e8b57" stroke-width="0.8"/>
<line x1="83.5" y1="481.0" x2="92.5" y2="481.0" stroke="white" stroke-width="1.5"/>
<text x="41.0" y="458.0" font-size="11.0" fill="#2e8b57" font-weight="700">JINK</text>
<text x="41.0" y="472.0" font-size="11.0" fill="#333333">HEY! Over here, you ugly—</text>
<rect x="432.3" y="491.0" width="332.7" height="40.0" rx="6" fill="white" stroke="#b0b0b0" stroke-width="1.0" opacity="0.92"/>
<polygon points="532.1,531.0 540.1,531.0 529.1,539.0" fill="white" stroke="#b0b0b0" stroke-width="0.8"/>
<line x1="531.6" y1="531.0" x2="540.6" y2="531.0" stroke="white" stroke-width="1.5"/>
<text x="438.3" y="508.0" font-size="11.0" fill="#b0b0b0" font-weight="700">SABLE</text>
<text x="438.3" y="522.0" font-size="11.0" fill="#333333">Keep moving, Jink! Don't give it a stationary target!</text>
<text x="759.0" y="449.0" text-anchor="end" font-size="12" font-weight="bold" fill="#888888" opacity="0.6">3</text>
<text x="765.0" y="791.0" text-anchor="end" font-size="9" fill="#888888" opacity="0.5">DYN</text>
<rect x="29.0" y="807.0" width="366.0" height="364.0" rx="2" fill="#f5f0e8" stroke="#2a2a2a" stroke-width="1.5"/>
<path d="M110.1,1080.0 Q110.1,1029.0 186.5,1022.7 L237.5,1022.7 Q313.9,1029.0 313.9,1080.0 L313.9,1127.3 L110.1,1127.3 Z" fill="#b22222" opacity="0.25"/>
<path d="M189.7,1022.7 L212.0,1054.5 L234.3,1022.7" fill="none" stroke="#b22222" stroke-width="1" opacity="0.3"/>
<circle cx="212.0" cy="952.6" r="63.7" fill="#b22222" opacity="0.35"/>
<path d="M148.3,965.3 Q157.9,1022.7 212.0,1025.9 Q266.1,1022.7 275.7,965.3" fill="none" stroke="#b22222" stroke-width="1.2" opacity="0.3"/>
<path d="M145.1,946.2 Q212.0,869.8 278.9,946.2" fill="none" stroke="#b22222" stroke-width="2" opacity="0.4"/>
<ellipse cx="146.3" cy="955.8" rx="2.5" ry="4" fill="#b22222" opacity="0.25"/>
<ellipse cx="277.7" cy="955.8" rx="2.5" ry="4" fill="#b22222" opacity="0.25"/>
<rect x="35.0" y="815.0" width="284.2" height="40.0" rx="6" fill="white" stroke="#b22222" stroke-width="1.0" opacity="0.92"/>
<polygon points="120.3,855.0 128.3,855.0 117.3,863.0" fill="white" stroke="#b22222" stroke-width="0.8"/>
<line x1="119.8" y1="855.0" x2="128.8" y2="855.0" stroke="white" stroke-width="1.5"/>
<text x="41.0" y="832.0" font-size="11.0" fill="#b22222" font-weight="700">THRESH</text>
<text x="41.0" y="846.0" font-size="11.0" fill="#333333">I can't hurt it. I'm going to hurt it anyway.</text>
<text x="383.0" y="823.0" text-anchor="end" font-size="12" font-weight="bold" fill="#888888" opacity="0.6">4</text>
<text x="389.0" y="1165.0" text-anchor="end" font-size="9" fill="#888888" opacity="0.5">MCU</text>
<rect x="405.0" y="807.0" width="366.0" height="364.0" rx="2" fill="#f5f0e8" stroke="#2a2a2a" stroke-width="1.5"/>
<ellipse cx="588.0" cy="959.9" rx="114.7" ry="163.8" fill="#c0b8a8" opacity="0.18"/>
<path d="M467.6,902.5 Q588.0,771.5 708.4,902.5" fill="none" stroke="#c0b8a8" stroke-width="3" opacity="0.35"/>
<line x1="547.9" y1="923.8" x2="582.3" y2="921.8" stroke="#a89888" stroke-width="1.5" opacity="0.45"/>
<line x1="593.7" y1="921.8" x2="628.1" y2="923.8" stroke="#a89888" stroke-width="1.5" opacity="0.45"/>
<ellipse cx="555.9" cy="940.2" rx="13.8" ry="8.2" fill="#a89888" opacity="0.45"/>
<ellipse cx="620.1" cy="940.2" rx="13.8" ry="8.2" fill="#a89888" opacity="0.45"/>
<line x1="588.0" y1="963.2" x2="588.0" y2="989.4" stroke="#a89888" stroke-width="1.2" opacity="0.35"/>
<path d="M581.1,989.4 Q588.0,992.4 594.9,989.4" fill="none" stroke="#a89888" stroke-width="1" opacity="0.3"/>
<line x1="559.3" y1="1012.3" x2="616.7" y2="1012.3" stroke="#a89888" stroke-width="1.2" opacity="0.35"/>
<text x="759.0" y="823.0" text-anchor="end" font-size="12" font-weight="bold" fill="#888888" opacity="0.6">5</text>
<text x="765.0" y="1165.0" text-anchor="end" font-size="9" fill="#888888" opacity="0.5">CU</text>
</svg>