<svg xmlns="http://www.w3.org/2000/svg" viewBox="0 0 800 1200" width="800" height="1200" style="background:#ffffff">
<style>
  text { font-family: "Helvetica Neue", Helvetica, Arial, sans-serif; }
</style>
<text x="400.0" y="22" text-anchor="middle" font-size="16" fill="#888888" font-weight="500">PAGE 1  (5 panels)</text>
<rect x="29.0" y="59.0" width="742.0" height="364.0" rx="2" fill="#f5f0e8" stroke="#2a2a2a" stroke-width="1.5"/>
<line x1="35.0" y1="342.9" x2="765.0" y2="342.9" stroke="#a89888" stroke-width="1.0" opacity="0.5"/>
<ellipse cx="400.0" cy="344.9" rx="11.2" ry="2.7" fill="#a89888" opacity="0.2"/>
<line x1="397.3" y1="327.2" x2="393.2" y2="342.9" stroke="#c87533" stroke-width="2" opacity="0.5"/>
<line x1="402.7" y1="327.2" x2="406.8" y2="342.9" stroke="#c87533" stroke-width="2" opacity="0.5"/>
<line x1="400.0" y1="314.1" x2="400.0" y2="327.2" stroke="#c87533" stroke-width="2.5" opacity="0.6"/>
<line x1="386.5" y1="316.1" x2="413.5" y2="316.1" stroke="#c87533" stroke-width="2" opacity="0.5"/>
<line x1="386.5" y1="316.1" x2="382.0" y2="327.6" stroke="#c87533" stroke-width="1.5" opacity="0.4"/>
<line x1="413.5" y1="316.1" x2="418.0" y2="327.6" stroke="#c87533" stroke-width="1.5" opacity="0.4"/>
<circle cx="400.0" cy="297.9" r="8.1" fill="#c87533" opacity="0.6"/>
<rect x="35.0" y="67.0" width="278.2" height="40.0" rx="2" fill="#f5ecd8" stroke="#c8b898" stroke-width="0.8" opacity="0.92"/>
<text x="41.0" y="84.0" font-size="11.0" fill="#5a4a30" font-style="italic" font-weight="500">CAPTION</text>
<text x="41.0" y="98.0" font-size="11.0" fill="#5a4a30" font-style="italic">Dusk. Component run — copper induction coil.</text>
<rect x="35.0" y="111.0" width="730.0" height="54.0" rx="6" fill="white" stroke="#c87533" stroke-width="1.0" opacity="0.92"/>
<polygon points="254.0,165.0 262.0,165.0 251.0,173.0" fill="white" stroke="#c87533" stroke-width="0.8"/>
<line x1="253.5" y1="165.0" x2="262.5" y2="165.0" stroke="white" stroke-width="1.5"/>
<text x="41.0" y="128.0" font-size="11.0" fill="#c87533" font-weight="700">WREN</text>
<text x="41.0" y="142.0" font-size="11.0" fill="#333333">The telegraph station on Threadneedle Street. Night shift is one operator. He leaves for the pub at eleven and doesn't come</text>
<text x="41.0" y="156.0" font-size="11.0" fill="#333333">back until midnight.</text>
<text x="759.0" y="75.0" text-anchor="end" font-size="12" font-weight="bold" fill="#888888" opacity="0.6">1</text>
<text x="765.0" y="417.0" text-anchor="end" font-size="9" fill="#888888" opacity="0.5">EST</text>
<rect x="29.0" y="433.0" width="240.7" height="364.0" rx="2" fill="#f5f0e8" stroke="#2a2a2a" stroke-width="1.5"/>
<path d="M80.0,665.2 Q80.0,630.6 132.0,626.3 L166.7,626.3 Q218.6,630.6 218.6,665.2 L218.6,753.3 L80.0,753.3 Z" fill="#c87533" opacity="0.25"/>
<path d="M134.2,626.3 L149.3,647.9 L164.5,626.3" fill="none" stroke="#c87533" stroke-width="1" opacity="0.3"/>
<circle cx="149.3" cy="578.6" r="43.3" fill="#c87533" opacity="0.35"/>
<path d="M106.0,587.3 Q112.5,626.3 149.3,628.4 Q186.2,626.3 192.7,587.3" fill="none" stroke="#c87533" stroke-width="1.2" opacity="0.3"/>
<path d="M103.8,574.3 Q149.3,522.3 194.8,574.3" fill="none" stroke="#c87533" stroke-width="2" opacity="0.4"/>
<ellipse cx="104.0" cy="580.8" rx="2.5" ry="4" fill="#c87533" opacity="0.25"/>
<ellipse cx="194.7" cy="580.8" rx="2.5" ry="4" fill="#c87533" opacity="0.25"/>
<rect x="35.0" y="441.0" width="228.7" height="77.0" rx="6" fill="white" stroke="#c87533" stroke-width="1.0" opacity="0.92"/>
<polygon points="103.6,518.0 111.6,518.0 100.6,526.0" fill="white" stroke="#c87533" stroke-width="0.8"/>
<line x1="103.1" y1="518.0" x2="112.1" y2="518.0" stroke="white" stroke-width="1.5"/>
<text x="41.0" y="457.0" font-size="10.0" fill="#c87533" font-weight="700">WREN</text>
<text x="41.0" y="470.0" font-size="10.0" fill="#333333">The coil we need is in the relay room —</text>
<text x="41.0" y="483.0" font-size="10.0" fill="#333333">third unit from the left, second rack.</text>
<text x="41.0" y="496.0" font-size="10.0" fill="#333333">Standard Post Office specification. I can</text>
<text x="41.0" y="509.0" font-size="10.0" fill="#333333">strip it in four minutes.</text>
<text x="257.7" y="449.0" text-anchor="end" font-size="12" font-weight="bold" fill="#888888" opacity="0.6">2</text>
<text x="263.7" y="791.0" text-anchor="end" font-size="9" fill="#888888" opacity="0.5">MCU</text>
<rect x="279.7" y="433.0" width="240.7" height="364.0" rx="2" fill="#f5f0e8" stroke="#2a2a2a" stroke-width="1.5"/>
<path d="M353.7,695.1 L357.9,624.9 Q362.1,620.9 387.2,620.9 L412.8,620.9 Q437.9,620.9 442.1,624.9 L446.3,695.1 Z" fill="#b0b0b0" opacity="0.35"/>
<line x1="357.9" y1="670.5" x2="442.1" y2="670.5" stroke="#b0b0b0" stroke-width="1" opacity="0.3"/>
<line x1="357.9" y1="624.9" x2="341.0" y2="665.9" stroke="#b0b0b0" stroke-width="2" opacity="0.3"/>
<line x1="341.0" y1="665.9" x2="353.7" y2="690.4" stroke="#b0b0b0" stroke-width="2" opacity="0.3"/>
<line x1="442.1" y1="624.9" x2="459.0" y2="665.9" stroke="#b0b0b0" stroke-width="2" opacity="0.3"/>
<line x1="459.0" y1="665.9" x2="446.3" y2="690.4" stroke="#b0b0b0" stroke-width="2" opacity="0.3"/>
<line x1="400.0" y1="563.3" x2="400.0" y2="620.9" stroke="#b0b0b0" stroke-width="3" opacity="0.35"/>
<circle cx="400.0" cy="531.3" r="32.0" fill="#b0b0b0" opacity="0.4"/>
<rect x="285.7" y="441.0" width="105.5" height="38.0" rx="6" fill="white" stroke="#b0b0b0" stroke-width="1.0" opacity="0.92"/>
<polygon points="317.3,479.0 325.3,479.0 314.3,487.0" fill="white" stroke="#b0b0b0" stroke-width="0.8"/>
<line x1="316.8" y1="479.0" x2="325.8" y2="479.0" stroke="white" stroke-width="1.5"/>
<text x="291.7" y="457.0" font-size="10.0" fill="#b0b0b0" font-weight="700">SABLE</text>
<text x="291.7" y="470.0" font-size="10.0" fill="#333333">Extraction route?</text>
<text x="508.3" y="449.0" text-anchor="end" font-size="12" font-weight="bold" fill="#888888" opacity="0.6">3</text>
<text x="514.3" y="791.0" text-anchor="end" font-size="9" fill="#888888" opacity="0.5">MED</text>
<rect x="530.3" y="433.0" width="240.7" height="364.0" rx="2" fill="#f5f0e8" stroke="#2a2a2a" stroke-width="1.5"/>
<path d="M604.3,695.1 L608.6,624.9 Q612.8,620.9 637.9,620.9 L663.5,620.9 Q688.6,620.9 692.8,624.9 L697.0,695.1 Z" fill="#c0b8a8" opacity="0.35"/>
<line x1="608.6" y1="670.5" x2="692.8" y2="670.5" stroke="#c0b8a8" stroke-width="1" opacity="0.3"/>
<line x1="608.6" y1="624.9" x2="591.7" y2="665.9" stroke="#c0b8a8" stroke-width="2" opacity="0.3"/>
<line x1="591.7" y1="665.9" x2="604.3" y2="690.4" stroke="#c0b8a8" stroke-width="2" opacity="0.3"/>
<line x1="692.8" y1="624.9" x2="709.6" y2="665.9" stroke="#c0b8a8" stroke-width="2" opacity="0.3"/>
<line x1="709.6" y1="665.9" x2="697.0" y2="690.4" stroke="#c0b8a8" stroke-width="2" opacity="0.3"/>
<line x1="650.7" y1="563.3" x2="650.7" y2="620.9" stroke="#c0b8a8" stroke-width="3" opacity="0.35"/>
<circle cx="650.7" cy="531.3" r="32.0" fill="#c0b8a8" opacity="0.4"/>
<text x="759.0" y="449.0" text-anchor="end" font-size="12" font-weight="bold" fill="#888888" opacity="0.6">4</text>
<text x="765.0" y="791.0" text-anchor="end" font-size="9" fill="#888888" opacity="0.5">MED</text>
<rect x="29.0" y="807.0" width="742.0" height="364.0" rx="2" fill="#f5f0e8" stroke="#2a2a2a" stroke-width="1.5"/>
<path d="M341.4,1069.1 L346.8,1022.6 Q352.1,1018.6 383.8,1018.6 L416.2,1018.6 Q447.9,1018.6 453.2,1022.6 L458.6,1069.1 Z" fill="#c87533" opacity="0.35"/>
<line x1="346.8" y1="1044.5" x2="453.2" y2="1044.5" stroke="#c87533" stroke-width="1" opacity="0.3"/>
<line x1="346.8" y1="1022.6" x2="325.5" y2="1063.5" stroke="#c87533" stroke-width="2" opacity="0.3"/>
<line x1="325.5" y1="1063.5" x2="341.4" y2="1088.1" stroke="#c87533" stroke-width="2" opacity="0.3"/>
<line x1="453.2" y1="1022.6" x2="474.5" y2="1063.5" stroke="#c87533" stroke-width="2" opacity="0.3"/>
<line x1="474.5" y1="1063.5" x2="458.6" y2="1088.1" stroke="#c87533" stroke-width="2" opacity="0.3"/>
<line x1="400.0" y1="945.7" x2="400.0" y2="1018.6" stroke="#c87533" stroke-width="3" opacity="0.35"/>
<circle cx="400.0" cy="905.3" r="40.5" fill="#c87533" opacity="0.4"/>
<rect x="35.0" y="815.0" width="647.2" height="40.0" rx="6" fill="white" stroke="#c87533" stroke-width="1.0" opacity="0.92"/>
<polygon points="229.2,855.0 237.2,855.0 226.2,863.0" fill="white" stroke="#c87533" stroke-width="0.8"/>
<line x1="228.7" y1="855.0" x2="237.7" y2="855.0" stroke="white" stroke-width="1.5"/>
<text x="41.0" y="832.0" font-size="11.0" fill="#c87533" font-weight="700">WREN</text>
<text x="41.0" y="846.0" font-size="11.0" fill="#333333">Standard approach. Jink on recon, Thresh overwatch, Luma on scanners, Sable coordinates. We go at eleven.</text>
<rect x="662.2" y="865.0" width="102.8" height="40.0" rx="6" fill="white" stroke="#2e8b57" stroke-width="1.0" opacity="0.92"/>
<polygon points="693.1,905.0 701.1,905.0 690.1,913.0" fill="white" stroke="#2e8b57" stroke-width="0.8"/>
<line x1="692.6" y1="905.0" x2="701.6" y2="905.0" stroke="white" stroke-width="1.5"/>
<text x="668.2" y="882.0" font-size="11.0" fill="#2e8b57" font-weight="700">JINK</text>
<text x="668.2" y="896.0" font-size="11.0" fill="#333333">Same as always.</text>
<rect x="35.0" y="915.0" width="139.1" height="40.0" rx="6" fill="white" stroke="#b0b0b0" stroke-width="1.0" opacity="0.92"/>
<polygon points="76.7,955.0 84.7,955.0 73.7,963.0" fill="white" stroke="#b0b0b0" stroke-width="0.8"/>
<line x1="76.2" y1="955.0" x2="85.2" y2="955.0" stroke="white" stroke-width="1.5"/>
<text x="41.0" y="932.0" font-size="11.0" fill="#b0b0b0" font-weight="700">SABLE</text>
<text x="41.0" y="946.0" font-size="11.0" fill="#333333">Same as always works.</text>
<text x="759.0" y="823.0" text-anchor="end" font-size="12" font-weight="bold" fill="#888888" opacity="0.6">5</text>
<text x="765.0" y="1165.0" text-anchor="end" font-size="9" fill="#888888" opacity="0.5">MW</text>
</svg>