<svg xmlns="http://www.w3.org/2000/svg" viewBox="0 0 800 1200" width="800" height="1200" style="background:#ffffff">
<style>
  text { font-family: "Helvetica Neue", Helvetica, Arial, sans-serif; }
</style>
<text x="400.0" y="22" text-anchor="middle" font-size="16" fill="#888888" font-weight="500">PAGE 16  (4 panels)</text>
<rect x="29.0" y="59.0" width="742.0" height="248.9" rx="2" fill="#f5f0e8" stroke="#2a2a2a" stroke-width="1.5"/>
<line x1="35.0" y1="253.2" x2="765.0" y2="253.2" stroke="#a89888" stroke-width="1.0" opacity="0.5"/>
<ellipse cx="214.5" cy="255.2" rx="11.2" ry="2.7" fill="#a89888" opacity="0.2"/>
<line x1="211.8" y1="237.5" x2="207.8" y2="253.2" stroke="#c0b8a8" stroke-width="2" opacity="0.5"/>
<line x1="217.2" y1="237.5" x2="221.2" y2="253.2" stroke="#c0b8a8" stroke-width="2" opacity="0.5"/>
<line x1="214.5" y1="224.5" x2="214.5" y2="237.5" stroke="#c0b8a8" stroke-width="2.5" opacity="0.6"/>
<line x1="201.1" y1="226.5" x2="227.9" y2="226.5" stroke="#c0b8a8" stroke-width="2" opacity="0.5"/>
<line x1="201.1" y1="226.5" x2="196.6" y2="237.9" stroke="#c0b8a8" stroke-width="1.5" opacity="0.4"/>
<line x1="227.9" y1="226.5" x2="232.4" y2="237.9" stroke="#c0b8a8" stroke-width="1.5" opacity="0.4"/>
<circle cx="214.5" cy="208.4" r="8.1" fill="#c0b8a8" opacity="0.6"/>
<ellipse cx="400.0" cy="255.2" rx="11.2" ry="2.7" fill="#a89888" opacity="0.2"/>
<line x1="397.3" y1="237.5" x2="393.3" y2="253.2" stroke="#c0b8a8" stroke-width="2" opacity="0.5"/>
<line x1="402.7" y1="237.5" x2="406.7" y2="253.2" stroke="#c0b8a8" stroke-width="2" opacity="0.5"/>
<line x1="400.0" y1="224.5" x2="400.0" y2="237.5" stroke="#c0b8a8" stroke-width="2.5" opacity="0.6"/>
<line x1="386.6" y1="226.5" x2="413.4" y2="226.5" stroke="#c0b8a8" stroke-width="2" opacity="0.5"/>
<line x1="386.6" y1="226.5" x2="382.1" y2="237.9" stroke="#c0b8a8" stroke-width="1.5" opacity="0.4"/>
<line x1="413.4" y1="226.5" x2="417.9" y2="237.9" stroke="#c0b8a8" stroke-width="1.5" opacity="0.4"/>
<circle cx="400.0" cy="208.4" r="8.1" fill="#c0b8a8" opacity="0.6"/>
<ellipse cx="585.5" cy="255.2" rx="11.2" ry="2.7" fill="#a89888" opacity="0.2"/>
<line x1="582.8" y1="237.5" x2="578.8" y2="253.2" stroke="#c0b8a8" stroke-width="2" opacity="0.5"/>
<line x1="588.2" y1="237.5" x2="592.2" y2="253.2" stroke="#c0b8a8" stroke-width="2" opacity="0.5"/>
<line x1="585.5" y1="224.5" x2="585.5" y2="237.5" stroke="#c0b8a8" stroke-width="2.5" opacity="0.6"/>
<line x1="572.1" y1="226.5" x2="598.9" y2="226.5" stroke="#c0b8a8" stroke-width="2" opacity="0.5"/>
<line x1="572.1" y1="226.5" x2="567.6" y2="237.9" stroke="#c0b8a8" stroke-width="1.5" opacity="0.4"/>
<line x1="598.9" y1="226.5" x2="603.4" y2="237.9" stroke="#c0b8a8" stroke-width="1.5" opacity="0.4"/>
<circle cx="585.5" cy="208.4" r="8.1" fill="#c0b8a8" opacity="0.6"/>
<text x="759.0" y="75.0" text-anchor="end" font-size="12" font-weight="bold" fill="#888888" opacity="0.6">1</text>
<text x="765.0" y="301.9" text-anchor="end" font-size="9" fill="#888888" opacity="0.5">WIDE</text>
<rect x="29.0" y="317.9" width="742.0" height="421.5" rx="2" fill="#f5f0e8" stroke="#2a2a2a" stroke-width="1.5"/>
<line x1="377.7" y1="565.6" x2="311.0" y2="611.9" stroke="#b0b0b0" stroke-width="3" opacity="0.35"/>
<line x1="311.0" y1="611.9" x2="355.5" y2="646.7" stroke="#b0b0b0" stroke-width="3" opacity="0.35"/>
<line x1="422.3" y1="565.6" x2="511.3" y2="600.4" stroke="#b0b0b0" stroke-width="3" opacity="0.35"/>
<line x1="511.3" y1="600.4" x2="533.6" y2="628.2" stroke="#b0b0b0" stroke-width="3" opacity="0.35"/>
<line x1="444.5" y1="458.9" x2="386.6" y2="565.6" stroke="#b0b0b0" stroke-width="3.5" opacity="0.4"/>
<circle cx="444.5" cy="414.9" r="20.0" fill="#b0b0b0" opacity="0.4"/>
<line x1="422.3" y1="493.7" x2="533.6" y2="459.9" stroke="#b0b0b0" stroke-width="2.5" opacity="0.35"/>
<line x1="422.3" y1="493.7" x2="296.1" y2="518.9" stroke="#b0b0b0" stroke-width="2.5" opacity="0.35"/>
<path d="M422.3,482.1 Q333.2,439.9 362.9,406.2" fill="none" stroke="#b0b0b0" stroke-width="1.5" opacity="0.25"/>
<path d="M422.3,482.1 Q511.3,439.9 481.6,406.2" fill="none" stroke="#b0b0b0" stroke-width="1.5" opacity="0.25"/>
<line x1="607.8" y1="452.8" x2="733.9" y2="452.8" stroke="#a89888" stroke-width="1.2" opacity="0.3"/>
<line x1="607.8" y1="495.0" x2="733.9" y2="495.0" stroke="#a89888" stroke-width="1.2" opacity="0.3"/>
<line x1="607.8" y1="537.1" x2="733.9" y2="537.1" stroke="#a89888" stroke-width="1.2" opacity="0.3"/>
<line x1="607.8" y1="579.3" x2="733.9" y2="579.3" stroke="#a89888" stroke-width="1.2" opacity="0.3"/>
<line x1="66.1" y1="402.2" x2="162.6" y2="402.2" stroke="#a89888" stroke-width="1" opacity="0.2"/>
<line x1="66.1" y1="465.5" x2="162.6" y2="465.5" stroke="#a89888" stroke-width="1" opacity="0.2"/>
<line x1="66.1" y1="591.9" x2="162.6" y2="591.9" stroke="#a89888" stroke-width="1" opacity="0.2"/>
<line x1="66.1" y1="655.2" x2="162.6" y2="655.2" stroke="#a89888" stroke-width="1" opacity="0.2"/>
<rect x="35.0" y="325.9" width="90.7" height="40.0" rx="6" fill="white" stroke="#b0b0b0" stroke-width="1.0" opacity="0.92"/>
<polygon points="62.2,365.9 70.2,365.9 59.2,373.9" fill="white" stroke="#b0b0b0" stroke-width="0.8"/>
<line x1="61.7" y1="365.9" x2="70.7" y2="365.9" stroke="white" stroke-width="1.5"/>
<text x="41.0" y="342.9" font-size="11.0" fill="#b0b0b0" font-weight="700">SABLE</text>
<text x="41.0" y="356.9" font-size="11.0" fill="#333333">It's running.</text>
<rect x="226.6" y="375.9" width="538.4" height="40.0" rx="6" fill="white" stroke="#c87533" stroke-width="1.0" opacity="0.92"/>
<polygon points="388.2,415.9 396.2,415.9 385.2,423.9" fill="white" stroke="#c87533" stroke-width="0.8"/>
<line x1="387.7" y1="415.9" x2="396.7" y2="415.9" stroke="white" stroke-width="1.5"/>
<text x="232.6" y="392.9" font-size="11.0" fill="#c87533" font-weight="700">WREN</text>
<text x="232.6" y="406.9" font-size="11.0" fill="#333333">It's not running. It's repositioning. We've made it visible. It can't work in the open.</text>
<rect x="35.0" y="425.9" width="114.9" height="40.0" rx="6" fill="white" stroke="#b0b0b0" stroke-width="1.0" opacity="0.92"/>
<polygon points="69.5,465.9 77.5,465.9 66.5,473.9" fill="white" stroke="#b0b0b0" stroke-width="0.8"/>
<line x1="69.0" y1="465.9" x2="78.0" y2="465.9" stroke="white" stroke-width="1.5"/>
<text x="41.0" y="442.9" font-size="11.0" fill="#b0b0b0" font-weight="700">SABLE</text>
<text x="41.0" y="456.9" font-size="11.0" fill="#333333">That's not a win.</text>
<rect x="535.2" y="475.9" width="229.8" height="40.0" rx="6" fill="white" stroke="#c87533" stroke-width="1.0" opacity="0.92"/>
<polygon points="604.1,515.9 612.1,515.9 601.1,523.9" fill="white" stroke="#c87533" stroke-width="0.8"/>
<line x1="603.6" y1="515.9" x2="612.6" y2="515.9" stroke="white" stroke-width="1.5"/>
<text x="541.2" y="492.9" font-size="11.0" fill="#c87533" font-weight="700">WREN</text>
<text x="541.2" y="506.9" font-size="11.0" fill="#333333">It's alive. So are we. I'll take it.</text>
<text x="759.0" y="333.9" text-anchor="end" font-size="12" font-weight="bold" fill="#888888" opacity="0.6">2</text>
<text x="765.0" y="733.5" text-anchor="end" font-size="9" fill="#888888" opacity="0.5">DYN</text>
<rect x="29.0" y="749.5" width="366.0" height="421.5" rx="2" fill="#f5f0e8" stroke="#2a2a2a" stroke-width="1.5"/>
<path d="M144.2,1053.0 L150.3,998.5 Q156.5,994.5 193.3,994.5 L230.7,994.5 Q267.5,994.5 273.6,998.5 L279.8,1053.0 Z" fill="#b22222" opacity="0.35"/>
<line x1="150.3" y1="1024.5" x2="273.6" y2="1024.5" stroke="#b22222" stroke-width="1" opacity="0.3"/>
<line x1="150.3" y1="998.5" x2="125.7" y2="1045.9" stroke="#b22222" stroke-width="2" opacity="0.3"/>
<line x1="125.7" y1="1045.9" x2="144.2" y2="1074.3" stroke="#b22222" stroke-width="2" opacity="0.3"/>
<line x1="273.6" y1="998.5" x2="298.3" y2="1045.9" stroke="#b22222" stroke-width="2" opacity="0.3"/>
<line x1="298.3" y1="1045.9" x2="279.8" y2="1074.3" stroke="#b22222" stroke-width="2" opacity="0.3"/>
<line x1="212.0" y1="910.1" x2="212.0" y2="994.5" stroke="#b22222" stroke-width="3" opacity="0.35"/>
<circle cx="212.0" cy="863.3" r="46.9" fill="#b22222" opacity="0.4"/>
<rect x="35.0" y="757.5" width="181.4" height="40.0" rx="6" fill="white" stroke="#b22222" stroke-width="1.0" opacity="0.92"/>
<polygon points="89.4,797.5 97.4,797.5 86.4,805.5" fill="white" stroke="#b22222" stroke-width="0.8"/>
<line x1="88.9" y1="797.5" x2="97.9" y2="797.5" stroke="white" stroke-width="1.5"/>
<text x="41.0" y="774.5" font-size="11.0" fill="#b22222" font-weight="700">THRESH</text>
<text x="41.0" y="788.5" font-size="11.0" fill="#333333">I was afraid the whole time.</text>
<rect x="327.0" y="807.5" width="62.0" height="40.0" rx="6" fill="white" stroke="#b0b0b0" stroke-width="1.0" opacity="0.92"/>
<polygon points="345.6,847.5 353.6,847.5 342.6,855.5" fill="white" stroke="#b0b0b0" stroke-width="0.8"/>
<line x1="345.1" y1="847.5" x2="354.1" y2="847.5" stroke="white" stroke-width="1.5"/>
<text x="333.0" y="824.5" font-size="11.0" fill="#b0b0b0" font-weight="700">SABLE</text>
<text x="333.0" y="838.5" font-size="11.0" fill="#333333">I know.</text>
<rect x="35.0" y="857.5" width="96.7" height="40.0" rx="6" fill="white" stroke="#b22222" stroke-width="1.0" opacity="0.92"/>
<polygon points="64.0,897.5 72.0,897.5 61.0,905.5" fill="white" stroke="#b22222" stroke-width="0.8"/>
<line x1="63.5" y1="897.5" x2="72.5" y2="897.5" stroke="white" stroke-width="1.5"/>
<text x="41.0" y="874.5" font-size="11.0" fill="#b22222" font-weight="700">THRESH</text>
<text x="41.0" y="888.5" font-size="11.0" fill="#333333">I didn't stop.</text>
<rect x="327.0" y="907.5" width="62.0" height="40.0" rx="6" fill="white" stroke="#b0b0b0" stroke-width="1.0" opacity="0.92"/>
<polygon points="345.6,947.5 353.6,947.5 342.6,955.5" fill="white" stroke="#b0b0b0" stroke-width="0.8"/>
<line x1="345.1" y1="947.5" x2="354.1" y2="947.5" stroke="white" stroke-width="1.5"/>
<text x="333.0" y="924.5" font-size="11.0" fill="#b0b0b0" font-weight="700">SABLE</text>
<text x="333.0" y="938.5" font-size="11.0" fill="#333333">I know.</text>
<text x="383.0" y="765.5" text-anchor="end" font-size="12" font-weight="bold" fill="#888888" opacity="0.6">3</text>
<text x="389.0" y="1165.0" text-anchor="end" font-size="9" fill="#888888" opacity="0.5">MED</text>
<rect x="405.0" y="749.5" width="366.0" height="421.5" rx="2" fill="#f5f0e8" stroke="#2a2a2a" stroke-width="1.5"/>
<path d="M482.6,1049.8 Q482.6,997.1 561.6,990.5 L614.4,990.5 Q693.4,997.1 693.4,1049.8 L693.4,1120.4 L482.6,1120.4 Z" fill="#c87533" opacity="0.25"/>
<path d="M564.9,990.5 L588.0,1023.5 L611.1,990.5" fill="none" stroke="#c87533" stroke-width="1" opacity="0.3"/>
<circle cx="588.0" cy="918.1" r="65.9" fill="#c87533" opacity="0.35"/>
<path d="M522.1,931.3 Q532.0,990.5 588.0,993.8 Q644.0,990.5 653.9,931.3" fill="none" stroke="#c87533" stroke-width="1.2" opacity="0.3"/>
<path d="M518.8,911.5 Q588.0,832.4 657.2,911.5" fill="none" stroke="#c87533" stroke-width="2" opacity="0.4"/>
<ellipse cx="520.1" cy="921.4" rx="2.5" ry="4" fill="#c87533" opacity="0.25"/>
<ellipse cx="655.9" cy="921.4" rx="2.5" ry="4" fill="#c87533" opacity="0.25"/>
<rect x="411.0" y="757.5" width="354.0" height="68.0" rx="6" fill="white" stroke="#c87533" stroke-width="1.0" opacity="0.92"/>
<polygon points="517.2,825.5 525.2,825.5 514.2,833.5" fill="white" stroke="#c87533" stroke-width="0.8"/>
<line x1="516.7" y1="825.5" x2="525.7" y2="825.5" stroke="white" stroke-width="1.5"/>
<text x="417.0" y="774.5" font-size="11.0" fill="#c87533" font-weight="700">WREN</text>
<text x="417.0" y="788.5" font-size="11.0" fill="#333333">Device is burned out. Single-use.&quot; *(beat)* &quot;The telegraph</text>
<text x="417.0" y="802.5" font-size="11.0" fill="#333333">circuit survived, though. Victorian wiring. Tougher than it</text>
<text x="417.0" y="816.5" font-size="11.0" fill="#333333">looks.</text>
<text x="759.0" y="765.5" text-anchor="end" font-size="12" font-weight="bold" fill="#888888" opacity="0.6">4</text>
<text x="765.0" y="1165.0" text-anchor="end" font-size="9" fill="#888888" opacity="0.5">MCU</text>
</svg>