<svg xmlns="http://www.w3.org/2000/svg" viewBox="0 0 800 1200" width="800" height="1200" style="background:#ffffff">
<style>
  text { font-family: "Helvetica Neue", Helvetica, Arial, sans-serif; }
</style>
<text x="400.0" y="22" text-anchor="middle" font-size="16" fill="#888888" font-weight="500">PAGE 13  (5 panels)</text>
<rect x="29.0" y="59.0" width="366.0" height="364.0" rx="2" fill="#f5f0e8" stroke="#2a2a2a" stroke-width="1.5"/>
<path d="M153.4,321.1 L158.8,274.6 Q164.1,270.6 195.8,270.6 L228.2,270.6 Q259.9,270.6 265.2,274.6 L270.6,321.1 Z" fill="#b22222" opacity="0.35"/>
<line x1="158.8" y1="296.5" x2="265.2" y2="296.5" stroke="#b22222" stroke-width="1" opacity="0.3"/>
<line x1="158.8" y1="274.6" x2="137.5" y2="315.5" stroke="#b22222" stroke-width="2" opacity="0.3"/>
<line x1="137.5" y1="315.5" x2="153.4" y2="340.1" stroke="#b22222" stroke-width="2" opacity="0.3"/>
<line x1="265.2" y1="274.6" x2="286.5" y2="315.5" stroke="#b22222" stroke-width="2" opacity="0.3"/>
<line x1="286.5" y1="315.5" x2="270.6" y2="340.1" stroke="#b22222" stroke-width="2" opacity="0.3"/>
<line x1="212.0" y1="197.7" x2="212.0" y2="270.6" stroke="#b22222" stroke-width="3" opacity="0.35"/>
<circle cx="212.0" cy="157.3" r="40.5" fill="#b22222" opacity="0.4"/>
<rect x="35.0" y="67.0" width="354.0" height="54.0" rx="6" fill="white" stroke="#b22222" stroke-width="1.0" opacity="0.92"/>
<polygon points="141.2,121.0 149.2,121.0 138.2,129.0" fill="white" stroke="#b22222" stroke-width="0.8"/>
<line x1="140.7" y1="121.0" x2="149.7" y2="121.0" stroke="white" stroke-width="1.5"/>
<text x="41.0" y="84.0" font-size="11.0" fill="#b22222" font-weight="700">THRESH</text>
<text x="41.0" y="98.0" font-size="11.0" fill="#333333">Its hands. Target the hands when it's working — that's when</text>
<text x="41.0" y="112.0" font-size="11.0" fill="#333333">it has to be precise.</text>
<text x="383.0" y="75.0" text-anchor="end" font-size="12" font-weight="bold" fill="#888888" opacity="0.6">1</text>
<text x="389.0" y="417.0" text-anchor="end" font-size="9" fill="#888888" opacity="0.5">MED</text>
<rect x="405.0" y="59.0" width="366.0" height="364.0" rx="2" fill="#f5f0e8" stroke="#2a2a2a" stroke-width="1.5"/>
<path d="M486.1,332.0 Q486.1,281.0 562.5,274.7 L613.5,274.7 Q689.9,281.0 689.9,332.0 L689.9,379.3 L486.1,379.3 Z" fill="#b0b0b0" opacity="0.25"/>
<path d="M565.7,274.7 L588.0,306.5 L610.3,274.7" fill="none" stroke="#b0b0b0" stroke-width="1" opacity="0.3"/>
<circle cx="588.0" cy="204.6" r="63.7" fill="#b0b0b0" opacity="0.35"/>
<path d="M524.3,217.3 Q533.9,274.7 588.0,277.9 Q642.1,274.7 651.7,217.3" fill="none" stroke="#b0b0b0" stroke-width="1.2" opacity="0.3"/>
<path d="M521.1,198.2 Q588.0,121.8 654.9,198.2" fill="none" stroke="#b0b0b0" stroke-width="2" opacity="0.4"/>
<ellipse cx="522.3" cy="207.8" rx="2.5" ry="4" fill="#b0b0b0" opacity="0.25"/>
<ellipse cx="653.7" cy="207.8" rx="2.5" ry="4" fill="#b0b0b0" opacity="0.25"/>
<rect x="411.0" y="67.0" width="344.8" height="54.0" rx="6" fill="white" stroke="#b0b0b0" stroke-width="1.0" opacity="0.92"/>
<polygon points="514.4,121.0 522.4,121.0 511.4,129.0" fill="white" stroke="#b0b0b0" stroke-width="0.8"/>
<line x1="513.9" y1="121.0" x2="522.9" y2="121.0" stroke="white" stroke-width="1.5"/>
<text x="417.0" y="84.0" font-size="11.0" fill="#b0b0b0" font-weight="700">SABLE</text>
<text x="417.0" y="98.0" font-size="11.0" fill="#333333">Jink, flank left. Luma, keep feeding us the gap timing.</text>
<text x="417.0" y="112.0" font-size="11.0" fill="#333333">Thresh — I am with you.</text>
<text x="759.0" y="75.0" text-anchor="end" font-size="12" font-weight="bold" fill="#888888" opacity="0.6">2</text>
<text x="765.0" y="417.0" text-anchor="end" font-size="9" fill="#888888" opacity="0.5">MCU</text>
<rect x="29.0" y="433.0" width="742.0" height="364.0" rx="2" fill="#f5f0e8" stroke="#2a2a2a" stroke-width="1.5"/>
<line x1="377.7" y1="646.9" x2="311.0" y2="686.9" stroke="#6a5acd" stroke-width="3" opacity="0.35"/>
<line x1="311.0" y1="686.9" x2="355.5" y2="716.9" stroke="#6a5acd" stroke-width="3" opacity="0.35"/>
<line x1="422.3" y1="646.9" x2="511.3" y2="676.9" stroke="#6a5acd" stroke-width="3" opacity="0.35"/>
<line x1="511.3" y1="676.9" x2="533.6" y2="700.9" stroke="#6a5acd" stroke-width="3" opacity="0.35"/>
<line x1="444.5" y1="560.7" x2="386.6" y2="646.9" stroke="#6a5acd" stroke-width="3.5" opacity="0.4"/>
<circle cx="444.5" cy="516.7" r="20.0" fill="#6a5acd" opacity="0.4"/>
<line x1="422.3" y1="590.8" x2="533.6" y2="561.6" stroke="#6a5acd" stroke-width="2.5" opacity="0.35"/>
<line x1="422.3" y1="590.8" x2="296.1" y2="612.6" stroke="#6a5acd" stroke-width="2.5" opacity="0.35"/>
<path d="M422.3,580.7 Q333.2,544.3 362.9,515.2" fill="none" stroke="#6a5acd" stroke-width="1.5" opacity="0.25"/>
<path d="M422.3,580.7 Q511.3,544.3 481.6,515.2" fill="none" stroke="#6a5acd" stroke-width="1.5" opacity="0.25"/>
<line x1="607.8" y1="549.5" x2="733.9" y2="549.5" stroke="#a89888" stroke-width="1.2" opacity="0.3"/>
<line x1="607.8" y1="585.9" x2="733.9" y2="585.9" stroke="#a89888" stroke-width="1.2" opacity="0.3"/>
<line x1="607.8" y1="622.3" x2="733.9" y2="622.3" stroke="#a89888" stroke-width="1.2" opacity="0.3"/>
<line x1="607.8" y1="658.7" x2="733.9" y2="658.7" stroke="#a89888" stroke-width="1.2" opacity="0.3"/>
<line x1="66.1" y1="505.8" x2="162.6" y2="505.8" stroke="#a89888" stroke-width="1" opacity="0.2"/>
<line x1="66.1" y1="560.4" x2="162.6" y2="560.4" stroke="#a89888" stroke-width="1" opacity="0.2"/>
<line x1="66.1" y1="669.6" x2="162.6" y2="669.6" stroke="#a89888" stroke-width="1" opacity="0.2"/>
<line x1="66.1" y1="724.2" x2="162.6" y2="724.2" stroke="#a89888" stroke-width="1" opacity="0.2"/>
<rect x="35.0" y="441.0" width="211.7" height="40.0" rx="6" fill="white" stroke="#6a5acd" stroke-width="1.0" opacity="0.92"/>
<polygon points="98.5,481.0 106.5,481.0 95.5,489.0" fill="white" stroke="#6a5acd" stroke-width="0.8"/>
<line x1="98.0" y1="481.0" x2="107.0" y2="481.0" stroke="white" stroke-width="1.5"/>
<text x="41.0" y="458.0" font-size="11.0" fill="#6a5acd" font-weight="700">LUMA</text>
<text x="41.0" y="472.0" font-size="11.0" fill="#333333">Gap in three... two... one — NOW!</text>
<rect x="703.0" y="491.0" width="62.0" height="40.0" rx="6" fill="white" stroke="#2e8b57" stroke-width="1.0" opacity="0.92"/>
<polygon points="721.6,531.0 729.6,531.0 718.6,539.0" fill="white" stroke="#2e8b57" stroke-width="0.8"/>
<line x1="721.1" y1="531.0" x2="730.1" y2="531.0" stroke="white" stroke-width="1.5"/>
<text x="709.0" y="508.0" font-size="11.0" fill="#2e8b57" font-weight="700">JINK</text>
<text x="709.0" y="522.0" font-size="11.0" fill="#333333">Going!</text>
<text x="759.0" y="449.0" text-anchor="end" font-size="12" font-weight="bold" fill="#888888" opacity="0.6">3</text>
<text x="765.0" y="791.0" text-anchor="end" font-size="9" fill="#888888" opacity="0.5">DYN</text>
<rect x="29.0" y="807.0" width="493.8" height="364.0" rx="2" fill="#f5f0e8" stroke="#2a2a2a" stroke-width="1.5"/>
<line x1="261.1" y1="1020.9" x2="216.7" y2="1060.9" stroke="#c87533" stroke-width="3" opacity="0.35"/>
<line x1="216.7" y1="1060.9" x2="246.3" y2="1090.9" stroke="#c87533" stroke-width="3" opacity="0.35"/>
<line x1="290.7" y1="1020.9" x2="350.0" y2="1050.9" stroke="#c87533" stroke-width="3" opacity="0.35"/>
<line x1="350.0" y1="1050.9" x2="364.8" y2="1074.9" stroke="#c87533" stroke-width="3" opacity="0.35"/>
<line x1="305.6" y1="934.7" x2="267.0" y2="1020.9" stroke="#c87533" stroke-width="3.5" opacity="0.4"/>
<circle cx="305.6" cy="890.7" r="20.0" fill="#c87533" opacity="0.4"/>
<line x1="290.7" y1="964.8" x2="364.8" y2="935.6" stroke="#c87533" stroke-width="2.5" opacity="0.35"/>
<line x1="290.7" y1="964.8" x2="206.8" y2="986.6" stroke="#c87533" stroke-width="2.5" opacity="0.35"/>
<path d="M290.7,954.7 Q231.5,918.3 251.2,889.2" fill="none" stroke="#c87533" stroke-width="1.5" opacity="0.25"/>
<path d="M290.7,954.7 Q350.0,918.3 330.2,889.2" fill="none" stroke="#c87533" stroke-width="1.5" opacity="0.25"/>
<line x1="414.2" y1="923.5" x2="498.1" y2="923.5" stroke="#a89888" stroke-width="1.2" opacity="0.3"/>
<line x1="414.2" y1="959.9" x2="498.1" y2="959.9" stroke="#a89888" stroke-width="1.2" opacity="0.3"/>
<line x1="414.2" y1="996.3" x2="498.1" y2="996.3" stroke="#a89888" stroke-width="1.2" opacity="0.3"/>
<line x1="414.2" y1="1032.7" x2="498.1" y2="1032.7" stroke="#a89888" stroke-width="1.2" opacity="0.3"/>
<line x1="53.7" y1="879.8" x2="117.9" y2="879.8" stroke="#a89888" stroke-width="1" opacity="0.2"/>
<line x1="53.7" y1="934.4" x2="117.9" y2="934.4" stroke="#a89888" stroke-width="1" opacity="0.2"/>
<line x1="53.7" y1="1043.6" x2="117.9" y2="1043.6" stroke="#a89888" stroke-width="1" opacity="0.2"/>
<line x1="53.7" y1="1098.2" x2="117.9" y2="1098.2" stroke="#a89888" stroke-width="1" opacity="0.2"/>
<rect x="35.0" y="815.0" width="481.8" height="54.0" rx="6" fill="white" stroke="#c87533" stroke-width="1.0" opacity="0.92"/>
<polygon points="179.6,869.0 187.6,869.0 176.6,877.0" fill="white" stroke="#c87533" stroke-width="0.8"/>
<line x1="179.1" y1="869.0" x2="188.1" y2="869.0" stroke="white" stroke-width="1.5"/>
<text x="41.0" y="832.0" font-size="11.0" fill="#c87533" font-weight="700">WREN</text>
<text x="41.0" y="846.0" font-size="11.0" fill="#333333">Sable. I need the main telegraph apparatus. The operator's key and sounder on the</text>
<text x="41.0" y="860.0" font-size="11.0" fill="#333333">primary desk.</text>
<rect x="408.0" y="879.0" width="108.8" height="40.0" rx="6" fill="white" stroke="#b0b0b0" stroke-width="1.0" opacity="0.92"/>
<polygon points="440.7,919.0 448.7,919.0 437.7,927.0" fill="white" stroke="#b0b0b0" stroke-width="0.8"/>
<line x1="440.2" y1="919.0" x2="449.2" y2="919.0" stroke="white" stroke-width="1.5"/>
<text x="414.0" y="896.0" font-size="11.0" fill="#b0b0b0" font-weight="700">SABLE</text>
<text x="414.0" y="910.0" font-size="11.0" fill="#333333">You have a plan?</text>
<rect x="35.0" y="929.0" width="108.8" height="40.0" rx="6" fill="white" stroke="#c87533" stroke-width="1.0" opacity="0.92"/>
<polygon points="67.6,969.0 75.6,969.0 64.6,977.0" fill="white" stroke="#c87533" stroke-width="0.8"/>
<line x1="67.1" y1="969.0" x2="76.1" y2="969.0" stroke="white" stroke-width="1.5"/>
<text x="41.0" y="946.0" font-size="11.0" fill="#c87533" font-weight="700">WREN</text>
<text x="41.0" y="960.0" font-size="11.0" fill="#333333">I have the plan.</text>
<text x="510.8" y="823.0" text-anchor="end" font-size="12" font-weight="bold" fill="#888888" opacity="0.6">4</text>
<text x="516.8" y="1165.0" text-anchor="end" font-size="9" fill="#888888" opacity="0.5">DYN</text>
<rect x="532.8" y="807.0" width="238.2" height="364.0" rx="2" fill="#f5f0e8" stroke="#2a2a2a" stroke-width="1.5"/>
<ellipse cx="651.9" cy="959.9" rx="95.3" ry="163.8" fill="#c0b8a8" opacity="0.18"/>
<path d="M551.9,902.5 Q651.9,771.5 751.9,902.5" fill="none" stroke="#c0b8a8" stroke-width="3" opacity="0.35"/>
<line x1="618.6" y1="923.8" x2="647.2" y2="921.8" stroke="#a89888" stroke-width="1.5" opacity="0.45"/>
<line x1="656.7" y1="921.8" x2="685.3" y2="923.8" stroke="#a89888" stroke-width="1.5" opacity="0.45"/>
<ellipse cx="625.2" cy="940.2" rx="11.4" ry="8.2" fill="#a89888" opacity="0.45"/>
<ellipse cx="678.6" cy="940.2" rx="11.4" ry="8.2" fill="#a89888" opacity="0.45"/>
<line x1="651.9" y1="963.2" x2="651.9" y2="989.4" stroke="#a89888" stroke-width="1.2" opacity="0.35"/>
<path d="M646.2,989.4 Q651.9,992.4 657.6,989.4" fill="none" stroke="#a89888" stroke-width="1" opacity="0.3"/>
<line x1="628.1" y1="1012.3" x2="675.7" y2="1012.3" stroke="#a89888" stroke-width="1.2" opacity="0.35"/>
<text x="759.0" y="823.0" text-anchor="end" font-size="12" font-weight="bold" fill="#888888" opacity="0.6">5</text>
<text x="765.0" y="1165.0" text-anchor="end" font-size="9" fill="#888888" opacity="0.5">CU</text>
</svg>