<svg xmlns="http://www.w3.org/2000/svg" viewBox="0 0 800 1200" width="800" height="1200" style="background:#ffffff">
<style>
  text { font-family: "Helvetica Neue", Helvetica, Arial, sans-serif; }
</style>
<text x="400.0" y="22" text-anchor="middle" font-size="16" fill="#888888" font-weight="500">PAGE 14  (4 panels)</text>
<rect x="29.0" y="59.0" width="742.0" height="405.6" rx="2" fill="#f5f0e8" stroke="#2a2a2a" stroke-width="1.5"/>
<path d="M334.8,351.0 L340.7,298.7 Q346.6,294.7 382.0,294.7 L418.0,294.7 Q453.4,294.7 459.3,298.7 L465.2,351.0 Z" fill="#999999" opacity="0.35"/>
<line x1="340.7" y1="323.6" x2="459.3" y2="323.6" stroke="#999999" stroke-width="1" opacity="0.3"/>
<line x1="340.7" y1="298.7" x2="317.0" y2="344.3" stroke="#999999" stroke-width="2" opacity="0.3"/>
<line x1="317.0" y1="344.3" x2="334.8" y2="371.7" stroke="#999999" stroke-width="2" opacity="0.3"/>
<line x1="459.3" y1="298.7" x2="483.0" y2="344.3" stroke="#999999" stroke-width="2" opacity="0.3"/>
<line x1="483.0" y1="344.3" x2="465.2" y2="371.7" stroke="#999999" stroke-width="2" opacity="0.3"/>
<line x1="400.0" y1="213.6" x2="400.0" y2="294.7" stroke="#999999" stroke-width="3" opacity="0.35"/>
<circle cx="400.0" cy="168.5" r="45.1" fill="#999999" opacity="0.4"/>
<rect x="35.0" y="67.0" width="217.7" height="40.0" rx="6" fill="white" stroke="#999999" stroke-width="1.0" opacity="0.92"/>
<polygon points="100.3,107.0 108.3,107.0 97.3,115.0" fill="white" stroke="#999999" stroke-width="0.8"/>
<line x1="99.8" y1="107.0" x2="108.8" y2="107.0" stroke="white" stroke-width="1.5"/>
<text x="41.0" y="84.0" font-size="11.0" fill="#999999" font-weight="700">SFX</text>
<text x="41.0" y="98.0" font-size="11.0" fill="#333333">*SCRAAAPE* (chair on iron grating)</text>
<rect x="559.4" y="117.0" width="205.6" height="40.0" rx="6" fill="white" stroke="#2e8b57" stroke-width="1.0" opacity="0.92"/>
<polygon points="621.1,157.0 629.1,157.0 618.1,165.0" fill="white" stroke="#2e8b57" stroke-width="0.8"/>
<line x1="620.6" y1="157.0" x2="629.6" y2="157.0" stroke="white" stroke-width="1.5"/>
<text x="565.4" y="134.0" font-size="11.0" fill="#2e8b57" font-weight="700">JINK</text>
<text x="565.4" y="148.0" font-size="11.0" fill="#333333">Keeper's up. He's moving. Wren —</text>
<rect x="35.0" y="167.0" width="72.5" height="40.0" rx="6" fill="white" stroke="#c87533" stroke-width="1.0" opacity="0.92"/>
<polygon points="56.8,207.0 64.8,207.0 53.8,215.0" fill="white" stroke="#c87533" stroke-width="0.8"/>
<line x1="56.2" y1="207.0" x2="65.2" y2="207.0" stroke="white" stroke-width="1.5"/>
<text x="41.0" y="184.0" font-size="11.0" fill="#c87533" font-weight="700">WREN</text>
<text x="41.0" y="198.0" font-size="11.0" fill="#333333">I see him.</text>
<text x="759.0" y="75.0" text-anchor="end" font-size="12" font-weight="bold" fill="#888888" opacity="0.6">1</text>
<text x="765.0" y="458.6" text-anchor="end" font-size="9" fill="#888888" opacity="0.5">MW</text>
<rect x="29.0" y="474.6" width="366.0" height="405.6" rx="2" fill="#f5f0e8" stroke="#2a2a2a" stroke-width="1.5"/>
<path d="M146.8,766.6 L152.7,714.3 Q158.6,710.3 194.0,710.3 L230.0,710.3 Q265.4,710.3 271.3,714.3 L277.2,766.6 Z" fill="#2e8b57" opacity="0.35"/>
<line x1="152.7" y1="739.2" x2="271.3" y2="739.2" stroke="#2e8b57" stroke-width="1" opacity="0.3"/>
<line x1="152.7" y1="714.3" x2="129.0" y2="759.9" stroke="#2e8b57" stroke-width="2" opacity="0.3"/>
<line x1="129.0" y1="759.9" x2="146.8" y2="787.3" stroke="#2e8b57" stroke-width="2" opacity="0.3"/>
<line x1="271.3" y1="714.3" x2="295.0" y2="759.9" stroke="#2e8b57" stroke-width="2" opacity="0.3"/>
<line x1="295.0" y1="759.9" x2="277.2" y2="787.3" stroke="#2e8b57" stroke-width="2" opacity="0.3"/>
<line x1="212.0" y1="629.1" x2="212.0" y2="710.3" stroke="#2e8b57" stroke-width="3" opacity="0.35"/>
<circle cx="212.0" cy="584.1" r="45.1" fill="#2e8b57" opacity="0.4"/>
<rect x="35.0" y="482.6" width="338.7" height="40.0" rx="6" fill="white" stroke="#2e8b57" stroke-width="1.0" opacity="0.92"/>
<polygon points="136.6,522.6 144.6,522.6 133.6,530.6" fill="white" stroke="#2e8b57" stroke-width="0.8"/>
<line x1="136.1" y1="522.6" x2="145.1" y2="522.6" stroke="white" stroke-width="1.5"/>
<text x="41.0" y="499.6" font-size="11.0" fill="#2e8b57" font-weight="700">JINK</text>
<text x="41.0" y="513.6" font-size="11.0" fill="#333333">He's going for the stairs. Wren, he's coming your way.</text>
<text x="383.0" y="490.6" text-anchor="end" font-size="12" font-weight="bold" fill="#888888" opacity="0.6">2</text>
<text x="389.0" y="874.1" text-anchor="end" font-size="9" fill="#888888" opacity="0.5">MED</text>
<rect x="405.0" y="474.6" width="366.0" height="405.6" rx="2" fill="#f5f0e8" stroke="#2a2a2a" stroke-width="1.5"/>
<path d="M482.6,768.5 Q482.6,715.8 561.6,709.2 L614.4,709.2 Q693.4,715.8 693.4,768.5 L693.4,831.4 L482.6,831.4 Z" fill="#2e8b57" opacity="0.25"/>
<path d="M564.9,709.2 L588.0,742.2 L611.1,709.2" fill="none" stroke="#2e8b57" stroke-width="1" opacity="0.3"/>
<circle cx="588.0" cy="636.8" r="65.9" fill="#2e8b57" opacity="0.35"/>
<path d="M522.1,650.0 Q532.0,709.2 588.0,712.5 Q644.0,709.2 653.9,650.0" fill="none" stroke="#2e8b57" stroke-width="1.2" opacity="0.3"/>
<path d="M518.8,630.2 Q588.0,551.1 657.2,630.2" fill="none" stroke="#2e8b57" stroke-width="2" opacity="0.4"/>
<ellipse cx="520.1" cy="640.1" rx="2.5" ry="4" fill="#2e8b57" opacity="0.25"/>
<ellipse cx="655.9" cy="640.1" rx="2.5" ry="4" fill="#2e8b57" opacity="0.25"/>
<rect x="411.0" y="482.6" width="338.7" height="54.0" rx="6" fill="white" stroke="#2e8b57" stroke-width="1.0" opacity="0.92"/>
<polygon points="512.6,536.6 520.6,536.6 509.6,544.6" fill="white" stroke="#2e8b57" stroke-width="0.8"/>
<line x1="512.1" y1="536.6" x2="521.1" y2="536.6" stroke="white" stroke-width="1.5"/>
<text x="417.0" y="499.6" font-size="11.0" fill="#2e8b57" font-weight="700">JINK</text>
<text x="417.0" y="513.6" font-size="11.0" fill="#333333">I can bang the glass. Give him something to look at up</text>
<text x="417.0" y="527.6" font-size="11.0" fill="#333333">here.</text>
<rect x="601.8" y="546.6" width="163.2" height="40.0" rx="6" fill="white" stroke="#b0b0b0" stroke-width="1.0" opacity="0.92"/>
<polygon points="650.7,586.6 658.7,586.6 647.7,594.6" fill="white" stroke="#b0b0b0" stroke-width="0.8"/>
<line x1="650.2" y1="586.6" x2="659.2" y2="586.6" stroke="white" stroke-width="1.5"/>
<text x="607.8" y="563.6" font-size="11.0" fill="#b0b0b0" font-weight="700">SABLE</text>
<text x="607.8" y="577.6" font-size="11.0" fill="#333333">Hold. He may not descend.</text>
<text x="759.0" y="490.6" text-anchor="end" font-size="12" font-weight="bold" fill="#888888" opacity="0.6">3</text>
<text x="765.0" y="874.1" text-anchor="end" font-size="9" fill="#888888" opacity="0.5">MCU</text>
<rect x="29.0" y="890.1" width="742.0" height="280.9" rx="2" fill="#f5f0e8" stroke="#2a2a2a" stroke-width="1.5"/>
<path d="M354.8,1092.4 L358.9,1057.4 Q363.0,1053.4 387.5,1053.4 L412.5,1053.4 Q437.0,1053.4 441.1,1057.4 L445.2,1092.4 Z" fill="#999999" opacity="0.35"/>
<line x1="358.9" y1="1073.4" x2="441.1" y2="1073.4" stroke="#999999" stroke-width="1" opacity="0.3"/>
<line x1="358.9" y1="1057.4" x2="342.5" y2="1089.0" stroke="#999999" stroke-width="2" opacity="0.3"/>
<line x1="342.5" y1="1089.0" x2="354.8" y2="1107.9" stroke="#999999" stroke-width="2" opacity="0.3"/>
<line x1="441.1" y1="1057.4" x2="457.5" y2="1089.0" stroke="#999999" stroke-width="2" opacity="0.3"/>
<line x1="457.5" y1="1089.0" x2="445.2" y2="1107.9" stroke="#999999" stroke-width="2" opacity="0.3"/>
<line x1="400.0" y1="997.2" x2="400.0" y2="1053.4" stroke="#999999" stroke-width="3" opacity="0.35"/>
<circle cx="400.0" cy="966.0" r="31.2" fill="#999999" opacity="0.4"/>
<rect x="35.0" y="898.1" width="205.6" height="40.0" rx="6" fill="white" stroke="#999999" stroke-width="1.0" opacity="0.92"/>
<polygon points="96.7,938.1 104.7,938.1 93.7,946.1" fill="white" stroke="#999999" stroke-width="0.8"/>
<line x1="96.2" y1="938.1" x2="105.2" y2="938.1" stroke="white" stroke-width="1.5"/>
<text x="41.0" y="915.1" font-size="11.0" fill="#999999" font-weight="700">SFX</text>
<text x="41.0" y="929.1" font-size="11.0" fill="#333333">*BRAAAAAAP* (distant barge horn)</text>
<rect x="341.6" y="948.1" width="423.4" height="40.0" rx="6" fill="white" stroke="#2e8b57" stroke-width="1.0" opacity="0.92"/>
<polygon points="468.6,988.1 476.6,988.1 465.6,996.1" fill="white" stroke="#2e8b57" stroke-width="0.8"/>
<line x1="468.1" y1="988.1" x2="477.1" y2="988.1" stroke="white" stroke-width="1.5"/>
<text x="347.6" y="965.1" font-size="11.0" fill="#2e8b57" font-weight="700">JINK</text>
<text x="347.6" y="979.1" font-size="11.0" fill="#333333">He's turned around. Going to the gallery. You've got a window. Move.</text>
<rect x="35.0" y="998.1" width="62.0" height="40.0" rx="6" fill="white" stroke="#c87533" stroke-width="1.0" opacity="0.92"/>
<polygon points="53.6,1038.1 61.6,1038.1 50.6,1046.1" fill="white" stroke="#c87533" stroke-width="0.8"/>
<line x1="53.1" y1="1038.1" x2="62.1" y2="1038.1" stroke="white" stroke-width="1.5"/>
<text x="41.0" y="1015.1" font-size="11.0" fill="#c87533" font-weight="700">WREN</text>
<text x="41.0" y="1029.1" font-size="11.0" fill="#333333">Moving.</text>
<text x="759.0" y="906.1" text-anchor="end" font-size="12" font-weight="bold" fill="#888888" opacity="0.6">4</text>
<text x="765.0" y="1165.0" text-anchor="end" font-size="9" fill="#888888" opacity="0.5">MW</text>
</svg>