<svg xmlns="http://www.w3.org/2000/svg" viewBox="0 0 800 1200" width="800" height="1200" style="background:#ffffff">
<style>
  text { font-family: "Helvetica Neue", Helvetica, Arial, sans-serif; }
</style>
<text x="400.0" y="22" text-anchor="middle" font-size="16" fill="#888888" font-weight="500">PAGE 16  (4 panels)</text>
<rect x="29.0" y="59.0" width="742.0" height="364.0" rx="2" fill="#f5f0e8" stroke="#2a2a2a" stroke-width="1.5"/>
<path d="M341.4,321.1 L346.8,274.6 Q352.1,270.6 383.8,270.6 L416.2,270.6 Q447.9,270.6 453.2,274.6 L458.6,321.1 Z" fill="#2e8b57" opacity="0.35"/>
<line x1="346.8" y1="296.5" x2="453.2" y2="296.5" stroke="#2e8b57" stroke-width="1" opacity="0.3"/>
<line x1="346.8" y1="274.6" x2="325.5" y2="315.5" stroke="#2e8b57" stroke-width="2" opacity="0.3"/>
<line x1="325.5" y1="315.5" x2="341.4" y2="340.1" stroke="#2e8b57" stroke-width="2" opacity="0.3"/>
<line x1="453.2" y1="274.6" x2="474.5" y2="315.5" stroke="#2e8b57" stroke-width="2" opacity="0.3"/>
<line x1="474.5" y1="315.5" x2="458.6" y2="340.1" stroke="#2e8b57" stroke-width="2" opacity="0.3"/>
<line x1="400.0" y1="197.7" x2="400.0" y2="270.6" stroke="#2e8b57" stroke-width="3" opacity="0.35"/>
<circle cx="400.0" cy="157.3" r="40.5" fill="#2e8b57" opacity="0.4"/>
<rect x="35.0" y="67.0" width="235.9" height="40.0" rx="6" fill="white" stroke="#2e8b57" stroke-width="1.0" opacity="0.92"/>
<polygon points="105.8,107.0 113.8,107.0 102.8,115.0" fill="white" stroke="#2e8b57" stroke-width="0.8"/>
<line x1="105.3" y1="107.0" x2="114.3" y2="107.0" stroke="white" stroke-width="1.5"/>
<text x="41.0" y="84.0" font-size="11.0" fill="#2e8b57" font-weight="700">JINK</text>
<text x="41.0" y="98.0" font-size="11.0" fill="#333333">Keeper's inside. I'm off the gallery.</text>
<text x="759.0" y="75.0" text-anchor="end" font-size="12" font-weight="bold" fill="#888888" opacity="0.6">1</text>
<text x="765.0" y="417.0" text-anchor="end" font-size="9" fill="#888888" opacity="0.5">MW</text>
<rect x="29.0" y="433.0" width="366.0" height="364.0" rx="2" fill="#f5f0e8" stroke="#2a2a2a" stroke-width="1.5"/>
<line x1="201.0" y1="646.9" x2="168.1" y2="686.9" stroke="#c0b8a8" stroke-width="3" opacity="0.35"/>
<line x1="168.1" y1="686.9" x2="190.0" y2="716.9" stroke="#c0b8a8" stroke-width="3" opacity="0.35"/>
<line x1="223.0" y1="646.9" x2="266.9" y2="676.9" stroke="#c0b8a8" stroke-width="3" opacity="0.35"/>
<line x1="266.9" y1="676.9" x2="277.9" y2="700.9" stroke="#c0b8a8" stroke-width="3" opacity="0.35"/>
<line x1="234.0" y1="560.7" x2="205.4" y2="646.9" stroke="#c0b8a8" stroke-width="3.5" opacity="0.4"/>
<circle cx="234.0" cy="516.7" r="20.0" fill="#c0b8a8" opacity="0.4"/>
<line x1="223.0" y1="590.8" x2="277.9" y2="561.6" stroke="#c0b8a8" stroke-width="2.5" opacity="0.35"/>
<line x1="223.0" y1="590.8" x2="160.8" y2="612.6" stroke="#c0b8a8" stroke-width="2.5" opacity="0.35"/>
<path d="M223.0,580.7 Q179.1,544.3 193.7,515.2" fill="none" stroke="#c0b8a8" stroke-width="1.5" opacity="0.25"/>
<path d="M223.0,580.7 Q266.9,544.3 252.3,515.2" fill="none" stroke="#c0b8a8" stroke-width="1.5" opacity="0.25"/>
<line x1="314.5" y1="549.5" x2="376.7" y2="549.5" stroke="#a89888" stroke-width="1.2" opacity="0.3"/>
<line x1="314.5" y1="585.9" x2="376.7" y2="585.9" stroke="#a89888" stroke-width="1.2" opacity="0.3"/>
<line x1="314.5" y1="622.3" x2="376.7" y2="622.3" stroke="#a89888" stroke-width="1.2" opacity="0.3"/>
<line x1="314.5" y1="658.7" x2="376.7" y2="658.7" stroke="#a89888" stroke-width="1.2" opacity="0.3"/>
<line x1="47.3" y1="505.8" x2="94.9" y2="505.8" stroke="#a89888" stroke-width="1" opacity="0.2"/>
<line x1="47.3" y1="560.4" x2="94.9" y2="560.4" stroke="#a89888" stroke-width="1" opacity="0.2"/>
<line x1="47.3" y1="669.6" x2="94.9" y2="669.6" stroke="#a89888" stroke-width="1" opacity="0.2"/>
<line x1="47.3" y1="724.2" x2="94.9" y2="724.2" stroke="#a89888" stroke-width="1" opacity="0.2"/>
<text x="383.0" y="449.0" text-anchor="end" font-size="12" font-weight="bold" fill="#888888" opacity="0.6">2</text>
<text x="389.0" y="791.0" text-anchor="end" font-size="9" fill="#888888" opacity="0.5">DYN</text>
<rect x="405.0" y="433.0" width="366.0" height="364.0" rx="2" fill="#f5f0e8" stroke="#2a2a2a" stroke-width="1.5"/>
<path d="M529.4,695.1 L534.8,648.6 Q540.1,644.6 571.8,644.6 L604.2,644.6 Q635.9,644.6 641.2,648.6 L646.6,695.1 Z" fill="#2e8b57" opacity="0.35"/>
<line x1="534.8" y1="670.5" x2="641.2" y2="670.5" stroke="#2e8b57" stroke-width="1" opacity="0.3"/>
<line x1="534.8" y1="648.6" x2="513.5" y2="689.5" stroke="#2e8b57" stroke-width="2" opacity="0.3"/>
<line x1="513.5" y1="689.5" x2="529.4" y2="714.1" stroke="#2e8b57" stroke-width="2" opacity="0.3"/>
<line x1="641.2" y1="648.6" x2="662.5" y2="689.5" stroke="#2e8b57" stroke-width="2" opacity="0.3"/>
<line x1="662.5" y1="689.5" x2="646.6" y2="714.1" stroke="#2e8b57" stroke-width="2" opacity="0.3"/>
<line x1="588.0" y1="571.7" x2="588.0" y2="644.6" stroke="#2e8b57" stroke-width="3" opacity="0.35"/>
<circle cx="588.0" cy="531.3" r="40.5" fill="#2e8b57" opacity="0.4"/>
<rect x="411.0" y="441.0" width="133.0" height="40.0" rx="6" fill="white" stroke="#2e8b57" stroke-width="1.0" opacity="0.92"/>
<polygon points="450.9,481.0 458.9,481.0 447.9,489.0" fill="white" stroke="#2e8b57" stroke-width="0.8"/>
<line x1="450.4" y1="481.0" x2="459.4" y2="481.0" stroke="white" stroke-width="1.5"/>
<text x="417.0" y="458.0" font-size="11.0" fill="#2e8b57" font-weight="700">JINK</text>
<text x="417.0" y="472.0" font-size="11.0" fill="#333333">Clean work in there.</text>
<rect x="601.8" y="491.0" width="163.2" height="40.0" rx="6" fill="white" stroke="#c87533" stroke-width="1.0" opacity="0.92"/>
<polygon points="650.7,531.0 658.7,531.0 647.7,539.0" fill="white" stroke="#c87533" stroke-width="0.8"/>
<line x1="650.2" y1="531.0" x2="659.2" y2="531.0" stroke="white" stroke-width="1.5"/>
<text x="607.8" y="508.0" font-size="11.0" fill="#c87533" font-weight="700">WREN</text>
<text x="607.8" y="522.0" font-size="11.0" fill="#333333">Clean overwatch out here.</text>
<text x="759.0" y="449.0" text-anchor="end" font-size="12" font-weight="bold" fill="#888888" opacity="0.6">3</text>
<text x="765.0" y="791.0" text-anchor="end" font-size="9" fill="#888888" opacity="0.5">MED</text>
<rect x="29.0" y="807.0" width="742.0" height="364.0" rx="2" fill="#f5f0e8" stroke="#2a2a2a" stroke-width="1.5"/>
<line x1="35.0" y1="1090.9" x2="765.0" y2="1090.9" stroke="#a89888" stroke-width="1.0" opacity="0.5"/>
<ellipse cx="276.3" cy="1092.9" rx="11.2" ry="2.7" fill="#a89888" opacity="0.2"/>
<line x1="273.6" y1="1075.2" x2="269.6" y2="1090.9" stroke="#2e8b57" stroke-width="2" opacity="0.5"/>
<line x1="279.0" y1="1075.2" x2="283.1" y2="1090.9" stroke="#2e8b57" stroke-width="2" opacity="0.5"/>
<line x1="276.3" y1="1062.1" x2="276.3" y2="1075.2" stroke="#2e8b57" stroke-width="2.5" opacity="0.6"/>
<line x1="262.8" y1="1064.1" x2="289.8" y2="1064.1" stroke="#2e8b57" stroke-width="2" opacity="0.5"/>
<line x1="262.8" y1="1064.1" x2="258.3" y2="1075.6" stroke="#2e8b57" stroke-width="1.5" opacity="0.4"/>
<line x1="289.8" y1="1064.1" x2="294.3" y2="1075.6" stroke="#2e8b57" stroke-width="1.5" opacity="0.4"/>
<circle cx="276.3" cy="1045.9" r="8.1" fill="#2e8b57" opacity="0.6"/>
<ellipse cx="523.7" cy="1092.9" rx="11.2" ry="2.7" fill="#a89888" opacity="0.2"/>
<line x1="521.0" y1="1075.2" x2="516.9" y2="1090.9" stroke="#b0b0b0" stroke-width="2" opacity="0.5"/>
<line x1="526.4" y1="1075.2" x2="530.4" y2="1090.9" stroke="#b0b0b0" stroke-width="2" opacity="0.5"/>
<line x1="523.7" y1="1062.1" x2="523.7" y2="1075.2" stroke="#b0b0b0" stroke-width="2.5" opacity="0.6"/>
<line x1="510.2" y1="1064.1" x2="537.2" y2="1064.1" stroke="#b0b0b0" stroke-width="2" opacity="0.5"/>
<line x1="510.2" y1="1064.1" x2="505.7" y2="1075.6" stroke="#b0b0b0" stroke-width="1.5" opacity="0.4"/>
<line x1="537.2" y1="1064.1" x2="541.7" y2="1075.6" stroke="#b0b0b0" stroke-width="1.5" opacity="0.4"/>
<circle cx="523.7" cy="1045.9" r="8.1" fill="#b0b0b0" opacity="0.6"/>
<rect x="35.0" y="815.0" width="532.3" height="40.0" rx="6" fill="white" stroke="#2e8b57" stroke-width="1.0" opacity="0.92"/>
<polygon points="194.7,855.0 202.7,855.0 191.7,863.0" fill="white" stroke="#2e8b57" stroke-width="0.8"/>
<line x1="194.2" y1="855.0" x2="203.2" y2="855.0" stroke="white" stroke-width="1.5"/>
<text x="41.0" y="832.0" font-size="11.0" fill="#2e8b57" font-weight="700">JINK</text>
<text x="41.0" y="846.0" font-size="11.0" fill="#333333">Sable, we're at the waterline. Swap is clean. Wren has the lens. Ready for extraction.</text>
<rect x="474.7" y="865.0" width="290.3" height="40.0" rx="6" fill="white" stroke="#b0b0b0" stroke-width="1.0" opacity="0.92"/>
<polygon points="561.8,905.0 569.8,905.0 558.8,913.0" fill="white" stroke="#b0b0b0" stroke-width="0.8"/>
<line x1="561.3" y1="905.0" x2="570.3" y2="905.0" stroke="white" stroke-width="1.5"/>
<text x="480.7" y="882.0" font-size="11.0" fill="#b0b0b0" font-weight="700">SABLE</text>
<text x="480.7" y="896.0" font-size="11.0" fill="#333333">Copy. Regroup at the transit point. Good work.</text>
<text x="759.0" y="823.0" text-anchor="end" font-size="12" font-weight="bold" fill="#888888" opacity="0.6">4</text>
<text x="765.0" y="1165.0" text-anchor="end" font-size="9" fill="#888888" opacity="0.5">WIDE</text>
</svg>