<svg xmlns="http://www.w3.org/2000/svg" viewBox="0 0 800 1200" width="800" height="1200" style="background:#ffffff">
<style>
  text { font-family: "Helvetica Neue", Helvetica, Arial, sans-serif; }
</style>
<text x="400.0" y="22" text-anchor="middle" font-size="16" fill="#888888" font-weight="500">PAGE 13  (5 panels)</text>
<rect x="29.0" y="59.0" width="493.8" height="364.0" rx="2" fill="#f5f0e8" stroke="#2a2a2a" stroke-width="1.5"/>
<path d="M217.4,321.1 L222.7,274.6 Q228.0,270.6 259.7,270.6 L292.1,270.6 Q323.8,270.6 329.2,274.6 L334.5,321.1 Z" fill="#c87533" opacity="0.35"/>
<line x1="222.7" y1="296.5" x2="329.2" y2="296.5" stroke="#c87533" stroke-width="1" opacity="0.3"/>
<line x1="222.7" y1="274.6" x2="201.4" y2="315.5" stroke="#c87533" stroke-width="2" opacity="0.3"/>
<line x1="201.4" y1="315.5" x2="217.4" y2="340.1" stroke="#c87533" stroke-width="2" opacity="0.3"/>
<line x1="329.2" y1="274.6" x2="350.4" y2="315.5" stroke="#c87533" stroke-width="2" opacity="0.3"/>
<line x1="350.4" y1="315.5" x2="334.5" y2="340.1" stroke="#c87533" stroke-width="2" opacity="0.3"/>
<line x1="275.9" y1="197.7" x2="275.9" y2="270.6" stroke="#c87533" stroke-width="3" opacity="0.35"/>
<circle cx="275.9" cy="157.3" r="40.5" fill="#c87533" opacity="0.4"/>
<rect x="35.0" y="67.0" width="399.2" height="40.0" rx="6" fill="white" stroke="#c87533" stroke-width="1.0" opacity="0.92"/>
<polygon points="154.8,107.0 162.8,107.0 151.8,115.0" fill="white" stroke="#c87533" stroke-width="0.8"/>
<line x1="154.3" y1="107.0" x2="163.3" y2="107.0" stroke="white" stroke-width="1.5"/>
<text x="41.0" y="84.0" font-size="11.0" fill="#c87533" font-weight="700">WREN</text>
<text x="41.0" y="98.0" font-size="11.0" fill="#333333">I'm at the target element. Four retaining clips. This glass is —</text>
<rect x="35.0" y="117.0" width="481.8" height="54.0" rx="6" fill="white" stroke="#c87533" stroke-width="1.0" opacity="0.92"/>
<polygon points="179.6,171.0 187.6,171.0 176.6,179.0" fill="white" stroke="#c87533" stroke-width="0.8"/>
<line x1="179.1" y1="171.0" x2="188.1" y2="171.0" stroke="white" stroke-width="1.5"/>
<text x="41.0" y="134.0" font-size="11.0" fill="#c87533" font-weight="700">WREN</text>
<text x="41.0" y="148.0" font-size="11.0" fill="#333333">The grinding on this is exceptional. No machine did this. Someone shaped every</text>
<text x="41.0" y="162.0" font-size="11.0" fill="#333333">surface by hand.</text>
<text x="510.8" y="75.0" text-anchor="end" font-size="12" font-weight="bold" fill="#888888" opacity="0.6">1</text>
<text x="516.8" y="417.0" text-anchor="end" font-size="9" fill="#888888" opacity="0.5">MW</text>
<rect x="532.8" y="59.0" width="238.2" height="364.0" rx="2" fill="#f5f0e8" stroke="#2a2a2a" stroke-width="1.5"/>
<ellipse cx="651.9" cy="211.9" rx="95.3" ry="163.8" fill="#999999" opacity="0.18"/>
<path d="M551.9,154.6 Q651.9,23.5 751.9,154.6" fill="none" stroke="#999999" stroke-width="3" opacity="0.35"/>
<line x1="618.6" y1="175.8" x2="647.2" y2="173.8" stroke="#a89888" stroke-width="1.5" opacity="0.45"/>
<line x1="656.7" y1="173.8" x2="685.3" y2="175.8" stroke="#a89888" stroke-width="1.5" opacity="0.45"/>
<ellipse cx="625.2" cy="192.2" rx="11.4" ry="8.2" fill="#a89888" opacity="0.45"/>
<ellipse cx="678.6" cy="192.2" rx="11.4" ry="8.2" fill="#a89888" opacity="0.45"/>
<line x1="651.9" y1="215.2" x2="651.9" y2="241.4" stroke="#a89888" stroke-width="1.2" opacity="0.35"/>
<path d="M646.2,241.4 Q651.9,244.4 657.6,241.4" fill="none" stroke="#a89888" stroke-width="1" opacity="0.3"/>
<line x1="628.1" y1="264.3" x2="675.7" y2="264.3" stroke="#a89888" stroke-width="1.2" opacity="0.35"/>
<rect x="538.8" y="67.0" width="67.0" height="38.0" rx="6" fill="white" stroke="#999999" stroke-width="1.0" opacity="0.92"/>
<polygon points="558.9,105.0 566.9,105.0 555.9,113.0" fill="white" stroke="#999999" stroke-width="0.8"/>
<line x1="558.4" y1="105.0" x2="567.4" y2="105.0" stroke="white" stroke-width="1.5"/>
<text x="544.8" y="83.0" font-size="10.0" fill="#999999" font-weight="700">SFX</text>
<text x="544.8" y="96.0" font-size="10.0" fill="#333333">*CRREEEAK*</text>
<rect x="577.0" y="115.0" width="188.0" height="38.0" rx="6" fill="white" stroke="#999999" stroke-width="1.0" opacity="0.92"/>
<polygon points="633.4,153.0 641.4,153.0 630.4,161.0" fill="white" stroke="#999999" stroke-width="0.8"/>
<line x1="632.9" y1="153.0" x2="641.9" y2="153.0" stroke="white" stroke-width="1.5"/>
<text x="583.0" y="131.0" font-size="10.0" fill="#999999" font-weight="700">SFX</text>
<text x="583.0" y="144.0" font-size="10.0" fill="#333333">*scratch scratch* (pen on paper)</text>
<text x="759.0" y="75.0" text-anchor="end" font-size="12" font-weight="bold" fill="#888888" opacity="0.6">2</text>
<text x="765.0" y="417.0" text-anchor="end" font-size="9" fill="#888888" opacity="0.5">CU</text>
<rect x="29.0" y="433.0" width="742.0" height="364.0" rx="2" fill="#f5f0e8" stroke="#2a2a2a" stroke-width="1.5"/>
<path d="M341.4,695.1 L346.8,648.6 Q352.1,644.6 383.8,644.6 L416.2,644.6 Q447.9,644.6 453.2,648.6 L458.6,695.1 Z" fill="#c87533" opacity="0.35"/>
<line x1="346.8" y1="670.5" x2="453.2" y2="670.5" stroke="#c87533" stroke-width="1" opacity="0.3"/>
<line x1="346.8" y1="648.6" x2="325.5" y2="689.5" stroke="#c87533" stroke-width="2" opacity="0.3"/>
<line x1="325.5" y1="689.5" x2="341.4" y2="714.1" stroke="#c87533" stroke-width="2" opacity="0.3"/>
<line x1="453.2" y1="648.6" x2="474.5" y2="689.5" stroke="#c87533" stroke-width="2" opacity="0.3"/>
<line x1="474.5" y1="689.5" x2="458.6" y2="714.1" stroke="#c87533" stroke-width="2" opacity="0.3"/>
<line x1="400.0" y1="571.7" x2="400.0" y2="644.6" stroke="#c87533" stroke-width="3" opacity="0.35"/>
<circle cx="400.0" cy="531.3" r="40.5" fill="#c87533" opacity="0.4"/>
<rect x="35.0" y="441.0" width="127.0" height="40.0" rx="6" fill="white" stroke="#c87533" stroke-width="1.0" opacity="0.92"/>
<polygon points="73.1,481.0 81.1,481.0 70.1,489.0" fill="white" stroke="#c87533" stroke-width="0.8"/>
<line x1="72.6" y1="481.0" x2="81.6" y2="481.0" stroke="white" stroke-width="1.5"/>
<text x="41.0" y="458.0" font-size="11.0" fill="#c87533" font-weight="700">WREN</text>
<text x="41.0" y="472.0" font-size="11.0" fill="#333333">*One. Three to go.*</text>
<text x="759.0" y="449.0" text-anchor="end" font-size="12" font-weight="bold" fill="#888888" opacity="0.6">3</text>
<text x="765.0" y="791.0" text-anchor="end" font-size="9" fill="#888888" opacity="0.5">MED</text>
<rect x="29.0" y="807.0" width="366.0" height="364.0" rx="2" fill="#f5f0e8" stroke="#2a2a2a" stroke-width="1.5"/>
<path d="M110.1,1080.0 Q110.1,1029.0 186.5,1022.7 L237.5,1022.7 Q313.9,1029.0 313.9,1080.0 L313.9,1127.3 L110.1,1127.3 Z" fill="#c87533" opacity="0.25"/>
<path d="M189.7,1022.7 L212.0,1054.5 L234.3,1022.7" fill="none" stroke="#c87533" stroke-width="1" opacity="0.3"/>
<circle cx="212.0" cy="952.6" r="63.7" fill="#c87533" opacity="0.35"/>
<path d="M148.3,965.3 Q157.9,1022.7 212.0,1025.9 Q266.1,1022.7 275.7,965.3" fill="none" stroke="#c87533" stroke-width="1.2" opacity="0.3"/>
<path d="M145.1,946.2 Q212.0,869.8 278.9,946.2" fill="none" stroke="#c87533" stroke-width="2" opacity="0.4"/>
<ellipse cx="146.3" cy="955.8" rx="2.5" ry="4" fill="#c87533" opacity="0.25"/>
<ellipse cx="277.7" cy="955.8" rx="2.5" ry="4" fill="#c87533" opacity="0.25"/>
<rect x="35.0" y="815.0" width="278.2" height="40.0" rx="6" fill="white" stroke="#c87533" stroke-width="1.0" opacity="0.92"/>
<polygon points="118.5,855.0 126.5,855.0 115.5,863.0" fill="white" stroke="#c87533" stroke-width="0.8"/>
<line x1="118.0" y1="855.0" x2="127.0" y2="855.0" stroke="white" stroke-width="1.5"/>
<text x="41.0" y="832.0" font-size="11.0" fill="#c87533" font-weight="700">WREN</text>
<text x="41.0" y="846.0" font-size="11.0" fill="#333333">Original extracted. Seating the replacement.</text>
<text x="383.0" y="823.0" text-anchor="end" font-size="12" font-weight="bold" fill="#888888" opacity="0.6">4</text>
<text x="389.0" y="1165.0" text-anchor="end" font-size="9" fill="#888888" opacity="0.5">MCU</text>
<rect x="405.0" y="807.0" width="366.0" height="364.0" rx="2" fill="#f5f0e8" stroke="#2a2a2a" stroke-width="1.5"/>
<path d="M529.4,1069.1 L534.8,1022.6 Q540.1,1018.6 571.8,1018.6 L604.2,1018.6 Q635.9,1018.6 641.2,1022.6 L646.6,1069.1 Z" fill="#c87533" opacity="0.35"/>
<line x1="534.8" y1="1044.5" x2="641.2" y2="1044.5" stroke="#c87533" stroke-width="1" opacity="0.3"/>
<line x1="534.8" y1="1022.6" x2="513.5" y2="1063.5" stroke="#c87533" stroke-width="2" opacity="0.3"/>
<line x1="513.5" y1="1063.5" x2="529.4" y2="1088.1" stroke="#c87533" stroke-width="2" opacity="0.3"/>
<line x1="641.2" y1="1022.6" x2="662.5" y2="1063.5" stroke="#c87533" stroke-width="2" opacity="0.3"/>
<line x1="662.5" y1="1063.5" x2="646.6" y2="1088.1" stroke="#c87533" stroke-width="2" opacity="0.3"/>
<line x1="588.0" y1="945.7" x2="588.0" y2="1018.6" stroke="#c87533" stroke-width="3" opacity="0.35"/>
<circle cx="588.0" cy="905.3" r="40.5" fill="#c87533" opacity="0.4"/>
<rect x="411.0" y="815.0" width="254.0" height="40.0" rx="6" fill="white" stroke="#c87533" stroke-width="1.0" opacity="0.92"/>
<polygon points="487.2,855.0 495.2,855.0 484.2,863.0" fill="white" stroke="#c87533" stroke-width="0.8"/>
<line x1="486.7" y1="855.0" x2="495.7" y2="855.0" stroke="white" stroke-width="1.5"/>
<text x="417.0" y="832.0" font-size="11.0" fill="#c87533" font-weight="700">WREN</text>
<text x="417.0" y="846.0" font-size="11.0" fill="#333333">Replacement seating... clips engaging...</text>
<rect x="577.5" y="865.0" width="187.5" height="40.0" rx="6" fill="white" stroke="#999999" stroke-width="1.0" opacity="0.92"/>
<polygon points="633.8,905.0 641.8,905.0 630.8,913.0" fill="white" stroke="#999999" stroke-width="0.8"/>
<line x1="633.3" y1="905.0" x2="642.3" y2="905.0" stroke="white" stroke-width="1.5"/>
<text x="583.5" y="882.0" font-size="11.0" fill="#999999" font-weight="700">SFX</text>
<text x="583.5" y="896.0" font-size="11.0" fill="#333333">*click. click. click. click.*</text>
<text x="759.0" y="823.0" text-anchor="end" font-size="12" font-weight="bold" fill="#888888" opacity="0.6">5</text>
<text x="765.0" y="1165.0" text-anchor="end" font-size="9" fill="#888888" opacity="0.5">MED</text>
</svg>