<svg xmlns="http://www.w3.org/2000/svg" viewBox="0 0 800 1200" width="800" height="1200" style="background:#ffffff">
<style>
  text { font-family: "Helvetica Neue", Helvetica, Arial, sans-serif; }
</style>
<text x="400.0" y="22" text-anchor="middle" font-size="16" fill="#888888" font-weight="500">PAGE 1  (5 panels)</text>
<rect x="29.0" y="59.0" width="742.0" height="364.0" rx="2" fill="#f5f0e8" stroke="#2a2a2a" stroke-width="1.5"/>
<line x1="35.0" y1="342.9" x2="765.0" y2="342.9" stroke="#a89888" stroke-width="1.0" opacity="0.5"/>
<ellipse cx="276.3" cy="344.9" rx="11.2" ry="2.7" fill="#a89888" opacity="0.2"/>
<line x1="273.6" y1="327.2" x2="269.6" y2="342.9" stroke="#c87533" stroke-width="2" opacity="0.5"/>
<line x1="279.0" y1="327.2" x2="283.1" y2="342.9" stroke="#c87533" stroke-width="2" opacity="0.5"/>
<line x1="276.3" y1="314.1" x2="276.3" y2="327.2" stroke="#c87533" stroke-width="2.5" opacity="0.6"/>
<line x1="262.8" y1="316.1" x2="289.8" y2="316.1" stroke="#c87533" stroke-width="2" opacity="0.5"/>
<line x1="262.8" y1="316.1" x2="258.3" y2="327.6" stroke="#c87533" stroke-width="1.5" opacity="0.4"/>
<line x1="289.8" y1="316.1" x2="294.3" y2="327.6" stroke="#c87533" stroke-width="1.5" opacity="0.4"/>
<circle cx="276.3" cy="297.9" r="8.1" fill="#c87533" opacity="0.6"/>
<ellipse cx="523.7" cy="344.9" rx="11.2" ry="2.7" fill="#a89888" opacity="0.2"/>
<line x1="521.0" y1="327.2" x2="516.9" y2="342.9" stroke="#2e8b57" stroke-width="2" opacity="0.5"/>
<line x1="526.4" y1="327.2" x2="530.4" y2="342.9" stroke="#2e8b57" stroke-width="2" opacity="0.5"/>
<line x1="523.7" y1="314.1" x2="523.7" y2="327.2" stroke="#2e8b57" stroke-width="2.5" opacity="0.6"/>
<line x1="510.2" y1="316.1" x2="537.2" y2="316.1" stroke="#2e8b57" stroke-width="2" opacity="0.5"/>
<line x1="510.2" y1="316.1" x2="505.7" y2="327.6" stroke="#2e8b57" stroke-width="1.5" opacity="0.4"/>
<line x1="537.2" y1="316.1" x2="541.7" y2="327.6" stroke="#2e8b57" stroke-width="1.5" opacity="0.4"/>
<circle cx="523.7" cy="297.9" r="8.1" fill="#2e8b57" opacity="0.6"/>
<rect x="35.0" y="67.0" width="730.0" height="40.0" rx="6" fill="white" stroke="#c87533" stroke-width="1.0" opacity="0.92"/>
<polygon points="254.0,107.0 262.0,107.0 251.0,115.0" fill="white" stroke="#c87533" stroke-width="0.8"/>
<line x1="253.5" y1="107.0" x2="262.5" y2="107.0" stroke="white" stroke-width="1.5"/>
<text x="41.0" y="84.0" font-size="11.0" fill="#c87533" font-weight="700">WREN</text>
<text x="41.0" y="98.0" font-size="11.0" fill="#333333">The target is a precision Fresnel lens. River lighthouse, south bank. And before anyone asks — no, we can't just take it.</text>
<rect x="686.5" y="117.0" width="78.6" height="40.0" rx="6" fill="white" stroke="#2e8b57" stroke-width="1.0" opacity="0.92"/>
<polygon points="710.0,157.0 718.0,157.0 707.0,165.0" fill="white" stroke="#2e8b57" stroke-width="0.8"/>
<line x1="709.5" y1="157.0" x2="718.5" y2="157.0" stroke="white" stroke-width="1.5"/>
<text x="692.5" y="134.0" font-size="11.0" fill="#2e8b57" font-weight="700">JINK</text>
<text x="692.5" y="148.0" font-size="11.0" fill="#333333">Since when?</text>
<rect x="35.0" y="167.0" width="272.2" height="40.0" rx="6" fill="white" stroke="#c87533" stroke-width="1.0" opacity="0.92"/>
<polygon points="116.6,207.0 124.6,207.0 113.6,215.0" fill="white" stroke="#c87533" stroke-width="0.8"/>
<line x1="116.1" y1="207.0" x2="125.1" y2="207.0" stroke="white" stroke-width="1.5"/>
<text x="41.0" y="184.0" font-size="11.0" fill="#c87533" font-weight="700">WREN</text>
<text x="41.0" y="198.0" font-size="11.0" fill="#333333">Since a lighthouse going dark kills people.</text>
<text x="759.0" y="75.0" text-anchor="end" font-size="12" font-weight="bold" fill="#888888" opacity="0.6">1</text>
<text x="765.0" y="417.0" text-anchor="end" font-size="9" fill="#888888" opacity="0.5">EST</text>
<rect x="29.0" y="433.0" width="366.0" height="364.0" rx="2" fill="#f5f0e8" stroke="#2a2a2a" stroke-width="1.5"/>
<path d="M110.1,706.0 Q110.1,655.0 186.5,648.7 L237.5,648.7 Q313.9,655.0 313.9,706.0 L313.9,753.3 L110.1,753.3 Z" fill="#c87533" opacity="0.25"/>
<path d="M189.7,648.7 L212.0,680.5 L234.3,648.7" fill="none" stroke="#c87533" stroke-width="1" opacity="0.3"/>
<circle cx="212.0" cy="578.6" r="63.7" fill="#c87533" opacity="0.35"/>
<path d="M148.3,591.3 Q157.9,648.7 212.0,651.9 Q266.1,648.7 275.7,591.3" fill="none" stroke="#c87533" stroke-width="1.2" opacity="0.3"/>
<path d="M145.1,572.2 Q212.0,495.8 278.9,572.2" fill="none" stroke="#c87533" stroke-width="2" opacity="0.4"/>
<ellipse cx="146.3" cy="581.8" rx="2.5" ry="4" fill="#c87533" opacity="0.25"/>
<ellipse cx="277.7" cy="581.8" rx="2.5" ry="4" fill="#c87533" opacity="0.25"/>
<rect x="35.0" y="441.0" width="338.7" height="54.0" rx="6" fill="white" stroke="#c87533" stroke-width="1.0" opacity="0.92"/>
<polygon points="136.6,495.0 144.6,495.0 133.6,503.0" fill="white" stroke="#c87533" stroke-width="0.8"/>
<line x1="136.1" y1="495.0" x2="145.1" y2="495.0" stroke="white" stroke-width="1.5"/>
<text x="41.0" y="458.0" font-size="11.0" fill="#c87533" font-weight="700">WREN</text>
<text x="41.0" y="472.0" font-size="11.0" fill="#333333">We swap the Fresnel lens for a replacement. Same focal</text>
<text x="41.0" y="486.0" font-size="11.0" fill="#333333">length, same mounting. The keeper never knows.</text>
<rect x="44.2" y="505.0" width="344.8" height="54.0" rx="6" fill="white" stroke="#c87533" stroke-width="1.0" opacity="0.92"/>
<polygon points="147.7,559.0 155.7,559.0 144.7,567.0" fill="white" stroke="#c87533" stroke-width="0.8"/>
<line x1="147.2" y1="559.0" x2="156.2" y2="559.0" stroke="white" stroke-width="1.5"/>
<text x="50.2" y="522.0" font-size="11.0" fill="#c87533" font-weight="700">WREN</text>
<text x="50.2" y="536.0" font-size="11.0" fill="#333333">The Fresnel is military-grade optics — precision-ground</text>
<text x="50.2" y="550.0" font-size="11.0" fill="#333333">glass I need for the temporal drive's alignment array.</text>
<text x="383.0" y="449.0" text-anchor="end" font-size="12" font-weight="bold" fill="#888888" opacity="0.6">2</text>
<text x="389.0" y="791.0" text-anchor="end" font-size="9" fill="#888888" opacity="0.5">MCU</text>
<rect x="405.0" y="433.0" width="366.0" height="364.0" rx="2" fill="#f5f0e8" stroke="#2a2a2a" stroke-width="1.5"/>
<path d="M529.4,695.1 L534.8,648.6 Q540.1,644.6 571.8,644.6 L604.2,644.6 Q635.9,644.6 641.2,648.6 L646.6,695.1 Z" fill="#b0b0b0" opacity="0.35"/>
<line x1="534.8" y1="670.5" x2="641.2" y2="670.5" stroke="#b0b0b0" stroke-width="1" opacity="0.3"/>
<line x1="534.8" y1="648.6" x2="513.5" y2="689.5" stroke="#b0b0b0" stroke-width="2" opacity="0.3"/>
<line x1="513.5" y1="689.5" x2="529.4" y2="714.1" stroke="#b0b0b0" stroke-width="2" opacity="0.3"/>
<line x1="641.2" y1="648.6" x2="662.5" y2="689.5" stroke="#b0b0b0" stroke-width="2" opacity="0.3"/>
<line x1="662.5" y1="689.5" x2="646.6" y2="714.1" stroke="#b0b0b0" stroke-width="2" opacity="0.3"/>
<line x1="588.0" y1="571.7" x2="588.0" y2="644.6" stroke="#b0b0b0" stroke-width="3" opacity="0.35"/>
<circle cx="588.0" cy="531.3" r="40.5" fill="#b0b0b0" opacity="0.4"/>
<rect x="411.0" y="441.0" width="175.4" height="40.0" rx="6" fill="white" stroke="#b0b0b0" stroke-width="1.0" opacity="0.92"/>
<polygon points="463.6,481.0 471.6,481.0 460.6,489.0" fill="white" stroke="#b0b0b0" stroke-width="0.8"/>
<line x1="463.1" y1="481.0" x2="472.1" y2="481.0" stroke="white" stroke-width="1.5"/>
<text x="417.0" y="458.0" font-size="11.0" fill="#b0b0b0" font-weight="700">SABLE</text>
<text x="417.0" y="472.0" font-size="11.0" fill="#333333">The lighthouse is occupied.</text>
<rect x="411.0" y="491.0" width="354.0" height="54.0" rx="6" fill="white" stroke="#c87533" stroke-width="1.0" opacity="0.92"/>
<polygon points="517.2,545.0 525.2,545.0 514.2,553.0" fill="white" stroke="#c87533" stroke-width="0.8"/>
<line x1="516.7" y1="545.0" x2="525.7" y2="545.0" stroke="white" stroke-width="1.5"/>
<text x="417.0" y="508.0" font-size="11.0" fill="#c87533" font-weight="700">WREN</text>
<text x="417.0" y="522.0" font-size="11.0" fill="#333333">Single keeper. Night shift. He tends the lamp and sleeps in</text>
<text x="417.0" y="536.0" font-size="11.0" fill="#333333">the watch room below.</text>
<rect x="411.0" y="555.0" width="62.0" height="40.0" rx="6" fill="white" stroke="#b0b0b0" stroke-width="1.0" opacity="0.92"/>
<polygon points="429.6,595.0 437.6,595.0 426.6,603.0" fill="white" stroke="#b0b0b0" stroke-width="0.8"/>
<line x1="429.1" y1="595.0" x2="438.1" y2="595.0" stroke="white" stroke-width="1.5"/>
<text x="417.0" y="572.0" font-size="11.0" fill="#b0b0b0" font-weight="700">SABLE</text>
<text x="417.0" y="586.0" font-size="11.0" fill="#333333">Pattern?</text>
<rect x="411.0" y="605.0" width="350.8" height="54.0" rx="6" fill="white" stroke="#c87533" stroke-width="1.0" opacity="0.92"/>
<polygon points="516.2,659.0 524.2,659.0 513.2,667.0" fill="white" stroke="#c87533" stroke-width="0.8"/>
<line x1="515.7" y1="659.0" x2="524.7" y2="659.0" stroke="white" stroke-width="1.5"/>
<text x="417.0" y="622.0" font-size="11.0" fill="#c87533" font-weight="700">WREN</text>
<text x="417.0" y="636.0" font-size="11.0" fill="#333333">Clockwork. He checks the lamp every two hours. We have a</text>
<text x="417.0" y="650.0" font-size="11.0" fill="#333333">ninety-minute window between rounds.</text>
<text x="759.0" y="449.0" text-anchor="end" font-size="12" font-weight="bold" fill="#888888" opacity="0.6">3</text>
<text x="765.0" y="791.0" text-anchor="end" font-size="9" fill="#888888" opacity="0.5">MED</text>
<rect x="29.0" y="807.0" width="493.8" height="364.0" rx="2" fill="#f5f0e8" stroke="#2a2a2a" stroke-width="1.5"/>
<path d="M217.4,1069.1 L222.7,1022.6 Q228.0,1018.6 259.7,1018.6 L292.1,1018.6 Q323.8,1018.6 329.2,1022.6 L334.5,1069.1 Z" fill="#c87533" opacity="0.35"/>
<line x1="222.7" y1="1044.5" x2="329.2" y2="1044.5" stroke="#c87533" stroke-width="1" opacity="0.3"/>
<line x1="222.7" y1="1022.6" x2="201.4" y2="1063.5" stroke="#c87533" stroke-width="2" opacity="0.3"/>
<line x1="201.4" y1="1063.5" x2="217.4" y2="1088.1" stroke="#c87533" stroke-width="2" opacity="0.3"/>
<line x1="329.2" y1="1022.6" x2="350.4" y2="1063.5" stroke="#c87533" stroke-width="2" opacity="0.3"/>
<line x1="350.4" y1="1063.5" x2="334.5" y2="1088.1" stroke="#c87533" stroke-width="2" opacity="0.3"/>
<line x1="275.9" y1="945.7" x2="275.9" y2="1018.6" stroke="#c87533" stroke-width="3" opacity="0.35"/>
<circle cx="275.9" cy="905.3" r="40.5" fill="#c87533" opacity="0.4"/>
<rect x="35.0" y="815.0" width="481.8" height="68.0" rx="6" fill="white" stroke="#c87533" stroke-width="1.0" opacity="0.92"/>
<polygon points="179.6,883.0 187.6,883.0 176.6,891.0" fill="white" stroke="#c87533" stroke-width="0.8"/>
<line x1="179.1" y1="883.0" x2="188.1" y2="883.0" stroke="white" stroke-width="1.5"/>
<text x="41.0" y="832.0" font-size="11.0" fill="#c87533" font-weight="700">WREN</text>
<text x="41.0" y="846.0" font-size="11.0" fill="#333333">This is a two-phase operation. Theodore acquires the replacement lens during the</text>
<text x="41.0" y="860.0" font-size="11.0" fill="#333333">day. Standard commercial purchase — a boy buying glass for his master. Nothing</text>
<text x="41.0" y="874.0" font-size="11.0" fill="#333333">suspicious.</text>
<rect x="35.0" y="893.0" width="481.8" height="54.0" rx="6" fill="white" stroke="#c87533" stroke-width="1.0" opacity="0.92"/>
<polygon points="179.6,947.0 187.6,947.0 176.6,955.0" fill="white" stroke="#c87533" stroke-width="0.8"/>
<line x1="179.1" y1="947.0" x2="188.1" y2="947.0" stroke="white" stroke-width="1.5"/>
<text x="41.0" y="910.0" font-size="11.0" fill="#c87533" font-weight="700">WREN</text>
<text x="41.0" y="924.0" font-size="11.0" fill="#333333">We stage at the waterfront at dusk. Infiltrate after the keeper's first midnight</text>
<text x="41.0" y="938.0" font-size="11.0" fill="#333333">round. Swap. Extract. Done before the two o'clock check.</text>
<text x="510.8" y="823.0" text-anchor="end" font-size="12" font-weight="bold" fill="#888888" opacity="0.6">4</text>
<text x="516.8" y="1165.0" text-anchor="end" font-size="9" fill="#888888" opacity="0.5">MW</text>
<rect x="532.8" y="807.0" width="238.2" height="364.0" rx="2" fill="#f5f0e8" stroke="#2a2a2a" stroke-width="1.5"/>
<ellipse cx="651.9" cy="959.9" rx="95.3" ry="163.8" fill="#2e8b57" opacity="0.18"/>
<path d="M551.9,902.5 Q651.9,771.5 751.9,902.5" fill="none" stroke="#2e8b57" stroke-width="3" opacity="0.35"/>
<line x1="618.6" y1="923.8" x2="647.2" y2="921.8" stroke="#a89888" stroke-width="1.5" opacity="0.45"/>
<line x1="656.7" y1="921.8" x2="685.3" y2="923.8" stroke="#a89888" stroke-width="1.5" opacity="0.45"/>
<ellipse cx="625.2" cy="940.2" rx="11.4" ry="8.2" fill="#a89888" opacity="0.45"/>
<ellipse cx="678.6" cy="940.2" rx="11.4" ry="8.2" fill="#a89888" opacity="0.45"/>
<line x1="651.9" y1="963.2" x2="651.9" y2="989.4" stroke="#a89888" stroke-width="1.2" opacity="0.35"/>
<path d="M646.2,989.4 Q651.9,992.4 657.6,989.4" fill="none" stroke="#a89888" stroke-width="1" opacity="0.3"/>
<line x1="628.1" y1="1012.3" x2="675.7" y2="1012.3" stroke="#a89888" stroke-width="1.2" opacity="0.35"/>
<rect x="538.8" y="815.0" width="221.0" height="51.0" rx="6" fill="white" stroke="#2e8b57" stroke-width="1.0" opacity="0.92"/>
<polygon points="605.1,866.0 613.1,866.0 602.1,874.0" fill="white" stroke="#2e8b57" stroke-width="0.8"/>
<line x1="604.6" y1="866.0" x2="613.6" y2="866.0" stroke="white" stroke-width="1.5"/>
<text x="544.8" y="831.0" font-size="10.0" fill="#2e8b57" font-weight="700">JINK</text>
<text x="544.8" y="844.0" font-size="10.0" fill="#333333">I'll go with Theodore. For the daytime</text>
<text x="544.8" y="857.0" font-size="10.0" fill="#333333">run.</text>
<rect x="643.0" y="876.0" width="122.0" height="38.0" rx="6" fill="white" stroke="#b0b0b0" stroke-width="1.0" opacity="0.92"/>
<polygon points="679.6,914.0 687.6,914.0 676.6,922.0" fill="white" stroke="#b0b0b0" stroke-width="0.8"/>
<line x1="679.1" y1="914.0" x2="688.1" y2="914.0" stroke="white" stroke-width="1.5"/>
<text x="649.0" y="892.0" font-size="10.0" fill="#b0b0b0" font-weight="700">SABLE</text>
<text x="649.0" y="905.0" font-size="10.0" fill="#333333">That wasn't part of—</text>
<rect x="538.8" y="924.0" width="226.2" height="51.0" rx="6" fill="white" stroke="#2e8b57" stroke-width="1.0" opacity="0.92"/>
<polygon points="606.7,975.0 614.7,975.0 603.7,983.0" fill="white" stroke="#2e8b57" stroke-width="0.8"/>
<line x1="606.2" y1="975.0" x2="615.2" y2="975.0" stroke="white" stroke-width="1.5"/>
<text x="544.8" y="940.0" font-size="10.0" fill="#2e8b57" font-weight="700">JINK</text>
<text x="544.8" y="953.0" font-size="10.0" fill="#333333">He shouldn't be alone in unfamiliar</text>
<text x="544.8" y="966.0" font-size="10.0" fill="#333333">territory. I'm the scout. Let me scout.</text>
<text x="759.0" y="823.0" text-anchor="end" font-size="12" font-weight="bold" fill="#888888" opacity="0.6">5</text>
<text x="765.0" y="1165.0" text-anchor="end" font-size="9" fill="#888888" opacity="0.5">CU</text>
</svg>