<svg xmlns="http://www.w3.org/2000/svg" viewBox="0 0 800 1200" width="800" height="1200" style="background:#ffffff">
<style>
  text { font-family: "Helvetica Neue", Helvetica, Arial, sans-serif; }
</style>
<text x="400.0" y="22" text-anchor="middle" font-size="16" fill="#888888" font-weight="500">PAGE 15  (4 panels)</text>
<rect x="29.0" y="59.0" width="366.0" height="438.8" rx="2" fill="#f5f0e8" stroke="#2a2a2a" stroke-width="1.5"/>
<path d="M141.5,374.9 L147.9,317.8 Q154.4,313.8 192.5,313.8 L231.5,313.8 Q269.6,313.8 276.1,317.8 L282.5,374.9 Z" fill="#c0b8a8" opacity="0.35"/>
<line x1="147.9" y1="345.3" x2="276.1" y2="345.3" stroke="#c0b8a8" stroke-width="1" opacity="0.3"/>
<line x1="147.9" y1="317.8" x2="122.3" y2="367.1" stroke="#c0b8a8" stroke-width="2" opacity="0.3"/>
<line x1="122.3" y1="367.1" x2="141.5" y2="396.8" stroke="#c0b8a8" stroke-width="2" opacity="0.3"/>
<line x1="276.1" y1="317.8" x2="301.7" y2="367.1" stroke="#c0b8a8" stroke-width="2" opacity="0.3"/>
<line x1="301.7" y1="367.1" x2="282.5" y2="396.8" stroke="#c0b8a8" stroke-width="2" opacity="0.3"/>
<line x1="212.0" y1="226.2" x2="212.0" y2="313.8" stroke="#c0b8a8" stroke-width="3" opacity="0.35"/>
<circle cx="212.0" cy="177.5" r="48.7" fill="#c0b8a8" opacity="0.4"/>
<text x="383.0" y="75.0" text-anchor="end" font-size="12" font-weight="bold" fill="#888888" opacity="0.6">1</text>
<text x="389.0" y="491.8" text-anchor="end" font-size="9" fill="#888888" opacity="0.5">MED</text>
<rect x="405.0" y="59.0" width="366.0" height="438.8" rx="2" fill="#f5f0e8" stroke="#2a2a2a" stroke-width="1.5"/>
<line x1="413.0" y1="212.6" x2="763.0" y2="212.6" stroke="#a89888" stroke-width="0.6" opacity="0.2"/>
<line x1="588.0" y1="212.6" x2="441.6" y2="453.9" stroke="#a89888" stroke-width="0.8" opacity="0.25"/>
<line x1="588.0" y1="212.6" x2="514.8" y2="453.9" stroke="#a89888" stroke-width="0.8" opacity="0.25"/>
<line x1="588.0" y1="212.6" x2="562.4" y2="453.9" stroke="#a89888" stroke-width="0.8" opacity="0.25"/>
<line x1="588.0" y1="212.6" x2="613.6" y2="453.9" stroke="#a89888" stroke-width="0.8" opacity="0.25"/>
<line x1="588.0" y1="212.6" x2="661.2" y2="453.9" stroke="#a89888" stroke-width="0.8" opacity="0.25"/>
<line x1="588.0" y1="212.6" x2="734.4" y2="453.9" stroke="#a89888" stroke-width="0.8" opacity="0.25"/>
<circle cx="588.0" cy="212.6" r="3" fill="#a89888" opacity="0.3"/>
<text x="759.0" y="75.0" text-anchor="end" font-size="12" font-weight="bold" fill="#888888" opacity="0.6">2</text>
<text x="765.0" y="491.8" text-anchor="end" font-size="9" fill="#888888" opacity="0.5">POV</text>
<rect x="588.0" y="895.5" width="150.4" height="224.4" rx="2" fill="#e8e0d0" stroke="#2a2a2a" stroke-width="1.0"/>
<line x1="594.0" y1="1070.5" x2="732.4" y2="1070.5" stroke="#a89888" stroke-width="1.0" opacity="0.5"/>
<ellipse cx="625.6" cy="1072.5" rx="10.1" ry="2.4" fill="#a89888" opacity="0.2"/>
<line x1="623.2" y1="1056.4" x2="619.5" y2="1070.5" stroke="#c87533" stroke-width="2" opacity="0.5"/>
<line x1="628.0" y1="1056.4" x2="631.7" y2="1070.5" stroke="#c87533" stroke-width="2" opacity="0.5"/>
<line x1="625.6" y1="1044.7" x2="625.6" y2="1056.4" stroke="#c87533" stroke-width="2.5" opacity="0.6"/>
<line x1="613.5" y1="1046.7" x2="637.7" y2="1046.7" stroke="#c87533" stroke-width="2" opacity="0.5"/>
<line x1="613.5" y1="1046.7" x2="609.4" y2="1056.8" stroke="#c87533" stroke-width="1.5" opacity="0.4"/>
<line x1="637.7" y1="1046.7" x2="641.8" y2="1056.8" stroke="#c87533" stroke-width="1.5" opacity="0.4"/>
<circle cx="625.6" cy="1030.1" r="7.3" fill="#c87533" opacity="0.6"/>
<ellipse cx="663.2" cy="1072.5" rx="10.1" ry="2.4" fill="#a89888" opacity="0.2"/>
<line x1="660.8" y1="1056.4" x2="657.1" y2="1070.5" stroke="#b0b0b0" stroke-width="2" opacity="0.5"/>
<line x1="665.6" y1="1056.4" x2="669.3" y2="1070.5" stroke="#b0b0b0" stroke-width="2" opacity="0.5"/>
<line x1="663.2" y1="1044.7" x2="663.2" y2="1056.4" stroke="#b0b0b0" stroke-width="2.5" opacity="0.6"/>
<line x1="651.1" y1="1046.7" x2="675.3" y2="1046.7" stroke="#b0b0b0" stroke-width="2" opacity="0.5"/>
<line x1="651.1" y1="1046.7" x2="647.0" y2="1056.8" stroke="#b0b0b0" stroke-width="1.5" opacity="0.4"/>
<line x1="675.3" y1="1046.7" x2="679.4" y2="1056.8" stroke="#b0b0b0" stroke-width="1.5" opacity="0.4"/>
<circle cx="663.2" cy="1030.1" r="7.3" fill="#b0b0b0" opacity="0.6"/>
<ellipse cx="700.8" cy="1072.5" rx="10.1" ry="2.4" fill="#a89888" opacity="0.2"/>
<line x1="698.4" y1="1056.4" x2="694.7" y2="1070.5" stroke="#2e8b57" stroke-width="2" opacity="0.5"/>
<line x1="703.2" y1="1056.4" x2="706.9" y2="1070.5" stroke="#2e8b57" stroke-width="2" opacity="0.5"/>
<line x1="700.8" y1="1044.7" x2="700.8" y2="1056.4" stroke="#2e8b57" stroke-width="2.5" opacity="0.6"/>
<line x1="688.7" y1="1046.7" x2="712.9" y2="1046.7" stroke="#2e8b57" stroke-width="2" opacity="0.5"/>
<line x1="688.7" y1="1046.7" x2="684.6" y2="1056.8" stroke="#2e8b57" stroke-width="1.5" opacity="0.4"/>
<line x1="712.9" y1="1046.7" x2="717.0" y2="1056.8" stroke="#2e8b57" stroke-width="1.5" opacity="0.4"/>
<circle cx="700.8" cy="1030.1" r="7.3" fill="#2e8b57" opacity="0.6"/>
<rect x="594.0" y="903.5" width="138.4" height="51.0" rx="6" fill="white" stroke="#c87533" stroke-width="1.0" opacity="0.92"/>
<polygon points="635.5,954.5 643.5,954.5 632.5,962.5" fill="white" stroke="#c87533" stroke-width="0.8"/>
<line x1="635.0" y1="954.5" x2="644.0" y2="954.5" stroke="white" stroke-width="1.5"/>
<text x="600.0" y="919.5" font-size="10.0" fill="#c87533" font-weight="700">WREN</text>
<text x="600.0" y="932.5" font-size="10.0" fill="#333333">I'm out. Descending the</text>
<text x="600.0" y="945.5" font-size="10.0" fill="#333333">exterior. Swap is clean.</text>
<rect x="594.0" y="964.5" width="138.4" height="64.0" rx="6" fill="white" stroke="#b0b0b0" stroke-width="1.0" opacity="0.92"/>
<polygon points="635.5,1028.5 643.5,1028.5 632.5,1036.5" fill="white" stroke="#b0b0b0" stroke-width="0.8"/>
<line x1="635.0" y1="1028.5" x2="644.0" y2="1028.5" stroke="white" stroke-width="1.5"/>
<text x="600.0" y="980.5" font-size="10.0" fill="#b0b0b0" font-weight="700">SABLE</text>
<text x="600.0" y="993.5" font-size="10.0" fill="#333333">Copy. Jink, extract when</text>
<text x="600.0" y="1006.5" font-size="10.0" fill="#333333">the keeper goes back</text>
<text x="600.0" y="1019.5" font-size="10.0" fill="#333333">inside.</text>
<rect x="594.0" y="1038.5" width="78.0" height="38.0" rx="6" fill="white" stroke="#2e8b57" stroke-width="1.0" opacity="0.92"/>
<polygon points="617.4,1076.5 625.4,1076.5 614.4,1084.5" fill="white" stroke="#2e8b57" stroke-width="0.8"/>
<line x1="616.9" y1="1076.5" x2="625.9" y2="1076.5" stroke="white" stroke-width="1.5"/>
<text x="600.0" y="1054.5" font-size="10.0" fill="#2e8b57" font-weight="700">JINK</text>
<text x="600.0" y="1067.5" font-size="10.0" fill="#333333">Standing by.</text>
<text x="726.4" y="911.5" text-anchor="end" font-size="12" font-weight="bold" fill="#888888" opacity="0.6">3</text>
<text x="732.4" y="1113.9" text-anchor="end" font-size="9" fill="#888888" opacity="0.5">WIDE</text>
<rect x="29.0" y="507.8" width="742.0" height="663.2" rx="2" fill="#f5f0e8" stroke="#2a2a2a" stroke-width="1.5"/>
<ellipse cx="400.0" cy="786.3" rx="208.9" ry="298.4" fill="#c0b8a8" opacity="0.18"/>
<path d="M180.6,681.9 Q400.0,443.1 619.4,681.9" fill="none" stroke="#c0b8a8" stroke-width="3" opacity="0.35"/>
<line x1="326.9" y1="720.7" x2="389.6" y2="718.7" stroke="#a89888" stroke-width="1.5" opacity="0.45"/>
<line x1="410.4" y1="718.7" x2="473.1" y2="720.7" stroke="#a89888" stroke-width="1.5" opacity="0.45"/>
<ellipse cx="341.5" cy="750.5" rx="25.1" ry="14.9" fill="#a89888" opacity="0.45"/>
<ellipse cx="458.5" cy="750.5" rx="25.1" ry="14.9" fill="#a89888" opacity="0.45"/>
<line x1="400.0" y1="792.3" x2="400.0" y2="840.1" stroke="#a89888" stroke-width="1.2" opacity="0.35"/>
<path d="M387.5,840.1 Q400.0,843.1 412.5,840.1" fill="none" stroke="#a89888" stroke-width="1" opacity="0.3"/>
<line x1="347.8" y1="881.8" x2="452.2" y2="881.8" stroke="#a89888" stroke-width="1.2" opacity="0.35"/>
<text x="759.0" y="523.8" text-anchor="end" font-size="12" font-weight="bold" fill="#888888" opacity="0.6">4</text>
<text x="765.0" y="1165.0" text-anchor="end" font-size="9" fill="#888888" opacity="0.5">CU</text>
</svg>