<svg xmlns="http://www.w3.org/2000/svg" viewBox="0 0 800 1200" width="800" height="1200" style="background:#ffffff">
<style>
  text { font-family: "Helvetica Neue", Helvetica, Arial, sans-serif; }
</style>
<text x="400.0" y="22" text-anchor="middle" font-size="16" fill="#888888" font-weight="500">PAGE 9  (4 panels)</text>
<rect x="29.0" y="59.0" width="742.0" height="364.0" rx="2" fill="#f5f0e8" stroke="#2a2a2a" stroke-width="1.5"/>
<path d="M298.1,332.0 Q298.1,281.0 374.5,274.7 L425.5,274.7 Q501.9,281.0 501.9,332.0 L501.9,379.3 L298.1,379.3 Z" fill="#b22222" opacity="0.25"/>
<path d="M377.7,274.7 L400.0,306.5 L422.3,274.7" fill="none" stroke="#b22222" stroke-width="1" opacity="0.3"/>
<circle cx="400.0" cy="204.6" r="63.7" fill="#b22222" opacity="0.35"/>
<path d="M336.3,217.3 Q345.9,274.7 400.0,277.9 Q454.1,274.7 463.7,217.3" fill="none" stroke="#b22222" stroke-width="1.2" opacity="0.3"/>
<path d="M333.1,198.2 Q400.0,121.8 466.9,198.2" fill="none" stroke="#b22222" stroke-width="2" opacity="0.4"/>
<ellipse cx="334.3" cy="207.8" rx="2.5" ry="4" fill="#b22222" opacity="0.25"/>
<ellipse cx="465.7" cy="207.8" rx="2.5" ry="4" fill="#b22222" opacity="0.25"/>
<rect x="35.0" y="67.0" width="290.3" height="40.0" rx="6" fill="white" stroke="#b22222" stroke-width="1.0" opacity="0.92"/>
<polygon points="122.1,107.0 130.1,107.0 119.1,115.0" fill="white" stroke="#b22222" stroke-width="0.8"/>
<line x1="121.6" y1="107.0" x2="130.6" y2="107.0" stroke="white" stroke-width="1.5"/>
<text x="41.0" y="84.0" font-size="11.0" fill="#b22222" font-weight="700">THRESH</text>
<text x="41.0" y="98.0" font-size="11.0" fill="#333333">Every time I think I'm used to it. Every time.</text>
<rect x="269.0" y="117.0" width="496.0" height="40.0" rx="6" fill="white" stroke="#6a5acd" stroke-width="1.0" opacity="0.92"/>
<polygon points="417.8,157.0 425.8,157.0 414.8,165.0" fill="white" stroke="#6a5acd" stroke-width="0.8"/>
<line x1="417.3" y1="157.0" x2="426.3" y2="157.0" stroke="white" stroke-width="1.5"/>
<text x="275.0" y="134.0" font-size="11.0" fill="#6a5acd" font-weight="700">LUMA</text>
<text x="275.0" y="148.0" font-size="11.0" fill="#333333">You don't get used to it. You get better at moving through it. That's different.</text>
<rect x="35.0" y="167.0" width="108.8" height="40.0" rx="6" fill="white" stroke="#b22222" stroke-width="1.0" opacity="0.92"/>
<polygon points="67.6,207.0 75.6,207.0 64.6,215.0" fill="white" stroke="#b22222" stroke-width="0.8"/>
<line x1="67.1" y1="207.0" x2="76.1" y2="207.0" stroke="white" stroke-width="1.5"/>
<text x="41.0" y="184.0" font-size="11.0" fill="#b22222" font-weight="700">THRESH</text>
<text x="41.0" y="198.0" font-size="11.0" fill="#333333">...is it enough?</text>
<rect x="589.6" y="217.0" width="175.4" height="40.0" rx="6" fill="white" stroke="#6a5acd" stroke-width="1.0" opacity="0.92"/>
<polygon points="642.3,257.0 650.3,257.0 639.3,265.0" fill="white" stroke="#6a5acd" stroke-width="0.8"/>
<line x1="641.8" y1="257.0" x2="650.8" y2="257.0" stroke="white" stroke-width="1.5"/>
<text x="595.6" y="234.0" font-size="11.0" fill="#6a5acd" font-weight="700">LUMA</text>
<text x="595.6" y="248.0" font-size="11.0" fill="#333333">You're here. That's enough.</text>
<text x="759.0" y="75.0" text-anchor="end" font-size="12" font-weight="bold" fill="#888888" opacity="0.6">1</text>
<text x="765.0" y="417.0" text-anchor="end" font-size="9" fill="#888888" opacity="0.5">MCU</text>
<rect x="29.0" y="433.0" width="366.0" height="364.0" rx="2" fill="#f5f0e8" stroke="#2a2a2a" stroke-width="1.5"/>
<path d="M153.4,695.1 L158.8,648.6 Q164.1,644.6 195.8,644.6 L228.2,644.6 Q259.9,644.6 265.2,648.6 L270.6,695.1 Z" fill="#b22222" opacity="0.35"/>
<line x1="158.8" y1="670.5" x2="265.2" y2="670.5" stroke="#b22222" stroke-width="1" opacity="0.3"/>
<line x1="158.8" y1="648.6" x2="137.5" y2="689.5" stroke="#b22222" stroke-width="2" opacity="0.3"/>
<line x1="137.5" y1="689.5" x2="153.4" y2="714.1" stroke="#b22222" stroke-width="2" opacity="0.3"/>
<line x1="265.2" y1="648.6" x2="286.5" y2="689.5" stroke="#b22222" stroke-width="2" opacity="0.3"/>
<line x1="286.5" y1="689.5" x2="270.6" y2="714.1" stroke="#b22222" stroke-width="2" opacity="0.3"/>
<line x1="212.0" y1="571.7" x2="212.0" y2="644.6" stroke="#b22222" stroke-width="3" opacity="0.35"/>
<circle cx="212.0" cy="531.3" r="40.5" fill="#b22222" opacity="0.4"/>
<rect x="35.0" y="441.0" width="175.4" height="40.0" rx="6" fill="white" stroke="#b22222" stroke-width="1.0" opacity="0.92"/>
<polygon points="87.6,481.0 95.6,481.0 84.6,489.0" fill="white" stroke="#b22222" stroke-width="0.8"/>
<line x1="87.1" y1="481.0" x2="96.1" y2="481.0" stroke="white" stroke-width="1.5"/>
<text x="41.0" y="458.0" font-size="11.0" fill="#b22222" font-weight="700">THRESH</text>
<text x="41.0" y="472.0" font-size="11.0" fill="#333333">I can still make overwatch.</text>
<rect x="286.2" y="491.0" width="102.8" height="40.0" rx="6" fill="white" stroke="#6a5acd" stroke-width="1.0" opacity="0.92"/>
<polygon points="317.1,531.0 325.1,531.0 314.1,539.0" fill="white" stroke="#6a5acd" stroke-width="0.8"/>
<line x1="316.6" y1="531.0" x2="325.6" y2="531.0" stroke="white" stroke-width="1.5"/>
<text x="292.2" y="508.0" font-size="11.0" fill="#6a5acd" font-weight="700">LUMA</text>
<text x="292.2" y="522.0" font-size="11.0" fill="#333333">I know you can.</text>
<text x="383.0" y="449.0" text-anchor="end" font-size="12" font-weight="bold" fill="#888888" opacity="0.6">2</text>
<text x="389.0" y="791.0" text-anchor="end" font-size="9" fill="#888888" opacity="0.5">MED</text>
<rect x="405.0" y="433.0" width="366.0" height="364.0" rx="2" fill="#f5f0e8" stroke="#2a2a2a" stroke-width="1.5"/>
<path d="M529.4,695.1 L534.8,648.6 Q540.1,644.6 571.8,644.6 L604.2,644.6 Q635.9,644.6 641.2,648.6 L646.6,695.1 Z" fill="#c49a6c" opacity="0.35"/>
<line x1="534.8" y1="670.5" x2="641.2" y2="670.5" stroke="#c49a6c" stroke-width="1" opacity="0.3"/>
<line x1="534.8" y1="648.6" x2="513.5" y2="689.5" stroke="#c49a6c" stroke-width="2" opacity="0.3"/>
<line x1="513.5" y1="689.5" x2="529.4" y2="714.1" stroke="#c49a6c" stroke-width="2" opacity="0.3"/>
<line x1="641.2" y1="648.6" x2="662.5" y2="689.5" stroke="#c49a6c" stroke-width="2" opacity="0.3"/>
<line x1="662.5" y1="689.5" x2="646.6" y2="714.1" stroke="#c49a6c" stroke-width="2" opacity="0.3"/>
<line x1="588.0" y1="571.7" x2="588.0" y2="644.6" stroke="#c49a6c" stroke-width="3" opacity="0.35"/>
<circle cx="588.0" cy="531.3" r="40.5" fill="#c49a6c" opacity="0.4"/>
<rect x="411.0" y="441.0" width="62.0" height="40.0" rx="6" fill="white" stroke="#c49a6c" stroke-width="1.0" opacity="0.92"/>
<polygon points="429.6,481.0 437.6,481.0 426.6,489.0" fill="white" stroke="#c49a6c" stroke-width="0.8"/>
<line x1="429.1" y1="481.0" x2="438.1" y2="481.0" stroke="white" stroke-width="1.5"/>
<text x="417.0" y="458.0" font-size="11.0" fill="#c49a6c" font-weight="700">THEODORE</text>
<text x="417.0" y="472.0" font-size="11.0" fill="#333333">Is she—</text>
<rect x="511.0" y="491.0" width="254.0" height="40.0" rx="6" fill="white" stroke="#6a5acd" stroke-width="1.0" opacity="0.92"/>
<polygon points="587.2,531.0 595.2,531.0 584.2,539.0" fill="white" stroke="#6a5acd" stroke-width="0.8"/>
<line x1="586.7" y1="531.0" x2="595.7" y2="531.0" stroke="white" stroke-width="1.5"/>
<text x="517.0" y="508.0" font-size="11.0" fill="#6a5acd" font-weight="700">LUMA</text>
<text x="517.0" y="522.0" font-size="11.0" fill="#333333">She's all right. She's always all right.</text>
<text x="759.0" y="449.0" text-anchor="end" font-size="12" font-weight="bold" fill="#888888" opacity="0.6">3</text>
<text x="765.0" y="791.0" text-anchor="end" font-size="9" fill="#888888" opacity="0.5">MED</text>
<rect x="29.0" y="807.0" width="742.0" height="364.0" rx="2" fill="#f5f0e8" stroke="#2a2a2a" stroke-width="1.5"/>
<line x1="35.0" y1="1090.9" x2="765.0" y2="1090.9" stroke="#a89888" stroke-width="1.0" opacity="0.5"/>
<ellipse cx="276.3" cy="1092.9" rx="11.2" ry="2.7" fill="#a89888" opacity="0.2"/>
<line x1="273.6" y1="1075.2" x2="269.6" y2="1090.9" stroke="#b22222" stroke-width="2" opacity="0.5"/>
<line x1="279.0" y1="1075.2" x2="283.1" y2="1090.9" stroke="#b22222" stroke-width="2" opacity="0.5"/>
<line x1="276.3" y1="1062.1" x2="276.3" y2="1075.2" stroke="#b22222" stroke-width="2.5" opacity="0.6"/>
<line x1="262.8" y1="1064.1" x2="289.8" y2="1064.1" stroke="#b22222" stroke-width="2" opacity="0.5"/>
<line x1="262.8" y1="1064.1" x2="258.3" y2="1075.6" stroke="#b22222" stroke-width="1.5" opacity="0.4"/>
<line x1="289.8" y1="1064.1" x2="294.3" y2="1075.6" stroke="#b22222" stroke-width="1.5" opacity="0.4"/>
<circle cx="276.3" cy="1045.9" r="8.1" fill="#b22222" opacity="0.6"/>
<ellipse cx="523.7" cy="1092.9" rx="11.2" ry="2.7" fill="#a89888" opacity="0.2"/>
<line x1="521.0" y1="1075.2" x2="516.9" y2="1090.9" stroke="#b0b0b0" stroke-width="2" opacity="0.5"/>
<line x1="526.4" y1="1075.2" x2="530.4" y2="1090.9" stroke="#b0b0b0" stroke-width="2" opacity="0.5"/>
<line x1="523.7" y1="1062.1" x2="523.7" y2="1075.2" stroke="#b0b0b0" stroke-width="2.5" opacity="0.6"/>
<line x1="510.2" y1="1064.1" x2="537.2" y2="1064.1" stroke="#b0b0b0" stroke-width="2" opacity="0.5"/>
<line x1="510.2" y1="1064.1" x2="505.7" y2="1075.6" stroke="#b0b0b0" stroke-width="1.5" opacity="0.4"/>
<line x1="537.2" y1="1064.1" x2="541.7" y2="1075.6" stroke="#b0b0b0" stroke-width="1.5" opacity="0.4"/>
<circle cx="523.7" cy="1045.9" r="8.1" fill="#b0b0b0" opacity="0.6"/>
<rect x="35.0" y="815.0" width="235.9" height="40.0" rx="6" fill="white" stroke="#b22222" stroke-width="1.0" opacity="0.92"/>
<polygon points="105.8,855.0 113.8,855.0 102.8,863.0" fill="white" stroke="#b22222" stroke-width="0.8"/>
<line x1="105.3" y1="855.0" x2="114.3" y2="855.0" stroke="white" stroke-width="1.5"/>
<text x="41.0" y="832.0" font-size="11.0" fill="#b22222" font-weight="700">THRESH</text>
<text x="41.0" y="846.0" font-size="11.0" fill="#333333">Moving to overwatch. I have the pier.</text>
<rect x="703.0" y="865.0" width="62.0" height="40.0" rx="6" fill="white" stroke="#b0b0b0" stroke-width="1.0" opacity="0.92"/>
<polygon points="721.6,905.0 729.6,905.0 718.6,913.0" fill="white" stroke="#b0b0b0" stroke-width="0.8"/>
<line x1="721.1" y1="905.0" x2="730.1" y2="905.0" stroke="white" stroke-width="1.5"/>
<text x="709.0" y="882.0" font-size="11.0" fill="#b0b0b0" font-weight="700">SABLE</text>
<text x="709.0" y="896.0" font-size="11.0" fill="#333333">Copy.</text>
<text x="759.0" y="823.0" text-anchor="end" font-size="12" font-weight="bold" fill="#888888" opacity="0.6">4</text>
<text x="765.0" y="1165.0" text-anchor="end" font-size="9" fill="#888888" opacity="0.5">WIDE</text>
</svg>