<svg xmlns="http://www.w3.org/2000/svg" viewBox="0 0 800 1200" width="800" height="1200" style="background:#ffffff">
<style>
  text { font-family: "Helvetica Neue", Helvetica, Arial, sans-serif; }
</style>
<text x="400.0" y="22" text-anchor="middle" font-size="16" fill="#888888" font-weight="500">PAGE 12  (4 panels)</text>
<rect x="29.0" y="59.0" width="742.0" height="470.9" rx="2" fill="#f5f0e8" stroke="#2a2a2a" stroke-width="1.5"/>
<line x1="35.0" y1="426.3" x2="765.0" y2="426.3" stroke="#a89888" stroke-width="1.0" opacity="0.5"/>
<ellipse cx="276.3" cy="428.3" rx="11.2" ry="2.7" fill="#a89888" opacity="0.2"/>
<line x1="273.6" y1="410.5" x2="269.6" y2="426.3" stroke="#c87533" stroke-width="2" opacity="0.5"/>
<line x1="279.0" y1="410.5" x2="283.1" y2="426.3" stroke="#c87533" stroke-width="2" opacity="0.5"/>
<line x1="276.3" y1="397.5" x2="276.3" y2="410.5" stroke="#c87533" stroke-width="2.5" opacity="0.6"/>
<line x1="262.8" y1="399.5" x2="289.8" y2="399.5" stroke="#c87533" stroke-width="2" opacity="0.5"/>
<line x1="262.8" y1="399.5" x2="258.3" y2="411.0" stroke="#c87533" stroke-width="1.5" opacity="0.4"/>
<line x1="289.8" y1="399.5" x2="294.3" y2="411.0" stroke="#c87533" stroke-width="1.5" opacity="0.4"/>
<circle cx="276.3" cy="381.3" r="8.1" fill="#c87533" opacity="0.6"/>
<ellipse cx="523.7" cy="428.3" rx="11.2" ry="2.7" fill="#a89888" opacity="0.2"/>
<line x1="521.0" y1="410.5" x2="516.9" y2="426.3" stroke="#2e8b57" stroke-width="2" opacity="0.5"/>
<line x1="526.4" y1="410.5" x2="530.4" y2="426.3" stroke="#2e8b57" stroke-width="2" opacity="0.5"/>
<line x1="523.7" y1="397.5" x2="523.7" y2="410.5" stroke="#2e8b57" stroke-width="2.5" opacity="0.6"/>
<line x1="510.2" y1="399.5" x2="537.2" y2="399.5" stroke="#2e8b57" stroke-width="2" opacity="0.5"/>
<line x1="510.2" y1="399.5" x2="505.7" y2="411.0" stroke="#2e8b57" stroke-width="1.5" opacity="0.4"/>
<line x1="537.2" y1="399.5" x2="541.7" y2="411.0" stroke="#2e8b57" stroke-width="1.5" opacity="0.4"/>
<circle cx="523.7" cy="381.3" r="8.1" fill="#2e8b57" opacity="0.6"/>
<rect x="35.0" y="67.0" width="730.0" height="40.0" rx="6" fill="white" stroke="#c87533" stroke-width="1.0" opacity="0.92"/>
<polygon points="254.0,107.0 262.0,107.0 251.0,115.0" fill="white" stroke="#c87533" stroke-width="0.8"/>
<line x1="253.5" y1="107.0" x2="262.5" y2="107.0" stroke="white" stroke-width="1.5"/>
<text x="41.0" y="84.0" font-size="11.0" fill="#c87533" font-weight="700">WREN</text>
<text x="41.0" y="98.0" font-size="11.0" fill="#333333">I'm at the mechanism level. Target lens is twelve meters up through the rotation assembly. The keeper is one level above me.</text>
<rect x="353.7" y="117.0" width="411.3" height="40.0" rx="6" fill="white" stroke="#2e8b57" stroke-width="1.0" opacity="0.92"/>
<polygon points="477.1,157.0 485.1,157.0 474.1,165.0" fill="white" stroke="#2e8b57" stroke-width="0.8"/>
<line x1="476.6" y1="157.0" x2="485.6" y2="157.0" stroke="white" stroke-width="1.5"/>
<text x="359.7" y="134.0" font-size="11.0" fill="#2e8b57" font-weight="700">JINK</text>
<text x="359.7" y="148.0" font-size="11.0" fill="#333333">Copy. Keeper hasn't moved in six minutes. He's writing in his log.</text>
<text x="759.0" y="75.0" text-anchor="end" font-size="12" font-weight="bold" fill="#888888" opacity="0.6">1</text>
<text x="765.0" y="523.9" text-anchor="end" font-size="9" fill="#888888" opacity="0.5">EST</text>
<rect x="29.0" y="539.9" width="366.0" height="310.6" rx="2" fill="#f5f0e8" stroke="#2a2a2a" stroke-width="1.5"/>
<path d="M162.0,763.5 L166.6,724.4 Q171.1,720.4 198.2,720.4 L225.8,720.4 Q252.9,720.4 257.4,724.4 L262.0,763.5 Z" fill="#c87533" opacity="0.35"/>
<line x1="166.6" y1="742.5" x2="257.4" y2="742.5" stroke="#c87533" stroke-width="1" opacity="0.3"/>
<line x1="166.6" y1="724.4" x2="148.4" y2="759.3" stroke="#c87533" stroke-width="2" opacity="0.3"/>
<line x1="148.4" y1="759.3" x2="162.0" y2="780.3" stroke="#c87533" stroke-width="2" opacity="0.3"/>
<line x1="257.4" y1="724.4" x2="275.6" y2="759.3" stroke="#c87533" stroke-width="2" opacity="0.3"/>
<line x1="275.6" y1="759.3" x2="262.0" y2="780.3" stroke="#c87533" stroke-width="2" opacity="0.3"/>
<line x1="212.0" y1="658.2" x2="212.0" y2="720.4" stroke="#c87533" stroke-width="3" opacity="0.35"/>
<circle cx="212.0" cy="623.7" r="34.5" fill="#c87533" opacity="0.4"/>
<rect x="35.0" y="547.9" width="354.0" height="54.0" rx="6" fill="white" stroke="#c87533" stroke-width="1.0" opacity="0.92"/>
<polygon points="141.2,601.9 149.2,601.9 138.2,609.9" fill="white" stroke="#c87533" stroke-width="0.8"/>
<line x1="140.7" y1="601.9" x2="149.7" y2="601.9" stroke="white" stroke-width="1.5"/>
<text x="41.0" y="564.9" font-size="11.0" fill="#c87533" font-weight="700">WREN</text>
<text x="41.0" y="578.9" font-size="11.0" fill="#333333">Replacement looks clean. Holographic calibration is within</text>
<text x="41.0" y="592.9" font-size="11.0" fill="#333333">tolerance.</text>
<text x="383.0" y="555.9" text-anchor="end" font-size="12" font-weight="bold" fill="#888888" opacity="0.6">2</text>
<text x="389.0" y="844.4" text-anchor="end" font-size="9" fill="#888888" opacity="0.5">MED</text>
<rect x="405.0" y="539.9" width="366.0" height="310.6" rx="2" fill="#f5f0e8" stroke="#2a2a2a" stroke-width="1.5"/>
<path d="M501.0,772.8 Q501.0,729.3 566.3,723.9 L609.7,723.9 Q675.0,729.3 675.0,772.8 L675.0,813.2 L501.0,813.2 Z" fill="#2e8b57" opacity="0.25"/>
<path d="M569.0,723.9 L588.0,751.0 L607.0,723.9" fill="none" stroke="#2e8b57" stroke-width="1" opacity="0.3"/>
<circle cx="588.0" cy="664.1" r="54.3" fill="#2e8b57" opacity="0.35"/>
<path d="M533.6,675.0 Q541.8,723.9 588.0,726.6 Q634.2,723.9 642.4,675.0" fill="none" stroke="#2e8b57" stroke-width="1.2" opacity="0.3"/>
<path d="M530.9,658.7 Q588.0,593.4 645.1,658.7" fill="none" stroke="#2e8b57" stroke-width="2" opacity="0.4"/>
<ellipse cx="531.6" cy="666.8" rx="2.5" ry="4" fill="#2e8b57" opacity="0.25"/>
<ellipse cx="644.4" cy="666.8" rx="2.5" ry="4" fill="#2e8b57" opacity="0.25"/>
<rect x="411.0" y="547.9" width="354.0" height="54.0" rx="6" fill="white" stroke="#2e8b57" stroke-width="1.0" opacity="0.92"/>
<polygon points="517.2,601.9 525.2,601.9 514.2,609.9" fill="white" stroke="#2e8b57" stroke-width="0.8"/>
<line x1="516.7" y1="601.9" x2="525.7" y2="601.9" stroke="white" stroke-width="1.5"/>
<text x="417.0" y="564.9" font-size="11.0" fill="#2e8b57" font-weight="700">JINK</text>
<text x="417.0" y="578.9" font-size="11.0" fill="#333333">All clear out here. The river's quiet. A couple of barges</text>
<text x="417.0" y="592.9" font-size="11.0" fill="#333333">downstream, nothing moving on the banks.</text>
<rect x="523.1" y="611.9" width="241.9" height="40.0" rx="6" fill="white" stroke="#2e8b57" stroke-width="1.0" opacity="0.92"/>
<polygon points="595.7,651.9 603.7,651.9 592.7,659.9" fill="white" stroke="#2e8b57" stroke-width="0.8"/>
<line x1="595.2" y1="651.9" x2="604.2" y2="651.9" stroke="white" stroke-width="1.5"/>
<text x="529.1" y="628.9" font-size="11.0" fill="#2e8b57" font-weight="700">JINK</text>
<text x="529.1" y="642.9" font-size="11.0" fill="#333333">Beautiful night for a heist, honestly.</text>
<text x="759.0" y="555.9" text-anchor="end" font-size="12" font-weight="bold" fill="#888888" opacity="0.6">3</text>
<text x="765.0" y="844.4" text-anchor="end" font-size="9" fill="#888888" opacity="0.5">MCU</text>
<rect x="29.0" y="860.4" width="742.0" height="310.6" rx="2" fill="#f5f0e8" stroke="#2a2a2a" stroke-width="1.5"/>
<line x1="35.0" y1="1102.7" x2="765.0" y2="1102.7" stroke="#a89888" stroke-width="1.0" opacity="0.5"/>
<ellipse cx="276.3" cy="1104.7" rx="11.2" ry="2.7" fill="#a89888" opacity="0.2"/>
<line x1="273.6" y1="1086.9" x2="269.6" y2="1102.7" stroke="#c87533" stroke-width="2" opacity="0.5"/>
<line x1="279.0" y1="1086.9" x2="283.1" y2="1102.7" stroke="#c87533" stroke-width="2" opacity="0.5"/>
<line x1="276.3" y1="1073.9" x2="276.3" y2="1086.9" stroke="#c87533" stroke-width="2.5" opacity="0.6"/>
<line x1="262.8" y1="1075.9" x2="289.8" y2="1075.9" stroke="#c87533" stroke-width="2" opacity="0.5"/>
<line x1="262.8" y1="1075.9" x2="258.3" y2="1087.4" stroke="#c87533" stroke-width="1.5" opacity="0.4"/>
<line x1="289.8" y1="1075.9" x2="294.3" y2="1087.4" stroke="#c87533" stroke-width="1.5" opacity="0.4"/>
<circle cx="276.3" cy="1057.7" r="8.1" fill="#c87533" opacity="0.6"/>
<ellipse cx="523.7" cy="1104.7" rx="11.2" ry="2.7" fill="#a89888" opacity="0.2"/>
<line x1="521.0" y1="1086.9" x2="516.9" y2="1102.7" stroke="#b0b0b0" stroke-width="2" opacity="0.5"/>
<line x1="526.4" y1="1086.9" x2="530.4" y2="1102.7" stroke="#b0b0b0" stroke-width="2" opacity="0.5"/>
<line x1="523.7" y1="1073.9" x2="523.7" y2="1086.9" stroke="#b0b0b0" stroke-width="2.5" opacity="0.6"/>
<line x1="510.2" y1="1075.9" x2="537.2" y2="1075.9" stroke="#b0b0b0" stroke-width="2" opacity="0.5"/>
<line x1="510.2" y1="1075.9" x2="505.7" y2="1087.4" stroke="#b0b0b0" stroke-width="1.5" opacity="0.4"/>
<line x1="537.2" y1="1075.9" x2="541.7" y2="1087.4" stroke="#b0b0b0" stroke-width="1.5" opacity="0.4"/>
<circle cx="523.7" cy="1057.7" r="8.1" fill="#b0b0b0" opacity="0.6"/>
<rect x="35.0" y="868.4" width="381.1" height="40.0" rx="6" fill="white" stroke="#c87533" stroke-width="1.0" opacity="0.92"/>
<polygon points="149.3,908.4 157.3,908.4 146.3,916.4" fill="white" stroke="#c87533" stroke-width="0.8"/>
<line x1="148.8" y1="908.4" x2="157.8" y2="908.4" stroke="white" stroke-width="1.5"/>
<text x="41.0" y="885.4" font-size="11.0" fill="#c87533" font-weight="700">WREN</text>
<text x="41.0" y="899.4" font-size="11.0" fill="#333333">Moving to the lens assembly. The keeper is directly overhead.</text>
<rect x="408.1" y="918.4" width="356.9" height="40.0" rx="6" fill="white" stroke="#b0b0b0" stroke-width="1.0" opacity="0.92"/>
<polygon points="515.2,958.4 523.2,958.4 512.2,966.4" fill="white" stroke="#b0b0b0" stroke-width="0.8"/>
<line x1="514.7" y1="958.4" x2="523.7" y2="958.4" stroke="white" stroke-width="1.5"/>
<text x="414.1" y="935.4" font-size="11.0" fill="#b0b0b0" font-weight="700">SABLE</text>
<text x="414.1" y="949.4" font-size="11.0" fill="#333333">Copy. Radio check only from here. Minimize transmissions.</text>
<text x="759.0" y="876.4" text-anchor="end" font-size="12" font-weight="bold" fill="#888888" opacity="0.6">4</text>
<text x="765.0" y="1165.0" text-anchor="end" font-size="9" fill="#888888" opacity="0.5">WIDE</text>
</svg>