<svg xmlns="http://www.w3.org/2000/svg" viewBox="0 0 800 1200" width="800" height="1200" style="background:#ffffff">
<style>
  text { font-family: "Helvetica Neue", Helvetica, Arial, sans-serif; }
</style>
<text x="400.0" y="22" text-anchor="middle" font-size="16" fill="#888888" font-weight="500">PAGE 3  (5 panels)</text>
<rect x="29.0" y="59.0" width="742.0" height="248.9" rx="2" fill="#f5f0e8" stroke="#2a2a2a" stroke-width="1.5"/>
<line x1="35.0" y1="253.2" x2="765.0" y2="253.2" stroke="#a89888" stroke-width="1.0" opacity="0.5"/>
<ellipse cx="400.0" cy="255.2" rx="11.2" ry="2.7" fill="#a89888" opacity="0.2"/>
<line x1="397.3" y1="237.5" x2="393.3" y2="253.2" stroke="#c49a6c" stroke-width="2" opacity="0.5"/>
<line x1="402.7" y1="237.5" x2="406.7" y2="253.2" stroke="#c49a6c" stroke-width="2" opacity="0.5"/>
<line x1="400.0" y1="224.5" x2="400.0" y2="237.5" stroke="#c49a6c" stroke-width="2.5" opacity="0.6"/>
<line x1="386.6" y1="226.5" x2="413.4" y2="226.5" stroke="#c49a6c" stroke-width="2" opacity="0.5"/>
<line x1="386.6" y1="226.5" x2="382.1" y2="237.9" stroke="#c49a6c" stroke-width="1.5" opacity="0.4"/>
<line x1="413.4" y1="226.5" x2="417.9" y2="237.9" stroke="#c49a6c" stroke-width="1.5" opacity="0.4"/>
<circle cx="400.0" cy="208.4" r="8.1" fill="#c49a6c" opacity="0.6"/>
<rect x="35.0" y="67.0" width="302.4" height="40.0" rx="2" fill="#f5ecd8" stroke="#c8b898" stroke-width="0.8" opacity="0.92"/>
<text x="41.0" y="84.0" font-size="11.0" fill="#5a4a30" font-style="italic" font-weight="500">CAPTION</text>
<text x="41.0" y="98.0" font-size="11.0" fill="#5a4a30" font-style="italic">Late afternoon. Five hours before the operation.</text>
<rect x="35.0" y="111.0" width="508.1" height="40.0" rx="6" fill="white" stroke="#c49a6c" stroke-width="1.0" opacity="0.92"/>
<polygon points="187.4,151.0 195.4,151.0 184.4,159.0" fill="white" stroke="#c49a6c" stroke-width="0.8"/>
<line x1="186.9" y1="151.0" x2="195.9" y2="151.0" stroke="white" stroke-width="1.5"/>
<text x="41.0" y="128.0" font-size="11.0" fill="#c49a6c" font-weight="700">THEODORE</text>
<text x="41.0" y="142.0" font-size="11.0" fill="#333333">*Wren said the shop's name was Prentiss &amp; Hall. Lens-grinders. Off Tooley Street.*</text>
<text x="759.0" y="75.0" text-anchor="end" font-size="12" font-weight="bold" fill="#888888" opacity="0.6">1</text>
<text x="765.0" y="301.9" text-anchor="end" font-size="9" fill="#888888" opacity="0.5">EST</text>
<rect x="29.0" y="317.9" width="366.0" height="421.5" rx="2" fill="#f5f0e8" stroke="#2a2a2a" stroke-width="1.5"/>
<path d="M144.2,621.4 L150.3,566.9 Q156.5,562.9 193.3,562.9 L230.7,562.9 Q267.5,562.9 273.6,566.9 L279.8,621.4 Z" fill="#2e8b57" opacity="0.35"/>
<line x1="150.3" y1="593.0" x2="273.6" y2="593.0" stroke="#2e8b57" stroke-width="1" opacity="0.3"/>
<line x1="150.3" y1="566.9" x2="125.7" y2="614.4" stroke="#2e8b57" stroke-width="2" opacity="0.3"/>
<line x1="125.7" y1="614.4" x2="144.2" y2="642.8" stroke="#2e8b57" stroke-width="2" opacity="0.3"/>
<line x1="273.6" y1="566.9" x2="298.3" y2="614.4" stroke="#2e8b57" stroke-width="2" opacity="0.3"/>
<line x1="298.3" y1="614.4" x2="279.8" y2="642.8" stroke="#2e8b57" stroke-width="2" opacity="0.3"/>
<line x1="212.0" y1="478.6" x2="212.0" y2="562.9" stroke="#2e8b57" stroke-width="3" opacity="0.35"/>
<circle cx="212.0" cy="431.7" r="46.9" fill="#2e8b57" opacity="0.4"/>
<rect x="35.0" y="325.9" width="229.8" height="40.0" rx="6" fill="white" stroke="#2e8b57" stroke-width="1.0" opacity="0.92"/>
<polygon points="103.9,365.9 111.9,365.9 100.9,373.9" fill="white" stroke="#2e8b57" stroke-width="0.8"/>
<line x1="103.4" y1="365.9" x2="112.4" y2="365.9" stroke="white" stroke-width="1.5"/>
<text x="41.0" y="342.9" font-size="11.0" fill="#2e8b57" font-weight="700">JINK</text>
<text x="41.0" y="356.9" font-size="11.0" fill="#333333">These streets are wider. Less cover.</text>
<rect x="44.2" y="375.9" width="344.8" height="54.0" rx="6" fill="white" stroke="#c49a6c" stroke-width="1.0" opacity="0.92"/>
<polygon points="147.7,429.9 155.7,429.9 144.7,437.9" fill="white" stroke="#c49a6c" stroke-width="0.8"/>
<line x1="147.2" y1="429.9" x2="156.2" y2="429.9" stroke="white" stroke-width="1.5"/>
<text x="50.2" y="392.9" font-size="11.0" fill="#c49a6c" font-weight="700">THEODORE</text>
<text x="50.2" y="406.9" font-size="11.0" fill="#333333">Different sort of place, isn't it? Working docks ahead.</text>
<text x="50.2" y="420.9" font-size="11.0" fill="#333333">Louder, rougher.</text>
<text x="383.0" y="333.9" text-anchor="end" font-size="12" font-weight="bold" fill="#888888" opacity="0.6">2</text>
<text x="389.0" y="733.5" text-anchor="end" font-size="9" fill="#888888" opacity="0.5">MW</text>
<rect x="405.0" y="317.9" width="366.0" height="421.5" rx="2" fill="#f5f0e8" stroke="#2a2a2a" stroke-width="1.5"/>
<line x1="411.0" y1="646.7" x2="765.0" y2="646.7" stroke="#a89888" stroke-width="1.0" opacity="0.5"/>
<ellipse cx="527.0" cy="648.7" rx="11.2" ry="2.7" fill="#a89888" opacity="0.2"/>
<line x1="524.3" y1="631.0" x2="520.2" y2="646.7" stroke="#c49a6c" stroke-width="2" opacity="0.5"/>
<line x1="529.7" y1="631.0" x2="533.8" y2="646.7" stroke="#c49a6c" stroke-width="2" opacity="0.5"/>
<line x1="527.0" y1="617.9" x2="527.0" y2="631.0" stroke="#c49a6c" stroke-width="2.5" opacity="0.6"/>
<line x1="513.5" y1="619.9" x2="540.5" y2="619.9" stroke="#c49a6c" stroke-width="2" opacity="0.5"/>
<line x1="513.5" y1="619.9" x2="509.0" y2="631.4" stroke="#c49a6c" stroke-width="1.5" opacity="0.4"/>
<line x1="540.5" y1="619.9" x2="545.0" y2="631.4" stroke="#c49a6c" stroke-width="1.5" opacity="0.4"/>
<circle cx="527.0" cy="601.7" r="8.1" fill="#c49a6c" opacity="0.6"/>
<ellipse cx="649.0" cy="648.7" rx="11.2" ry="2.7" fill="#a89888" opacity="0.2"/>
<line x1="646.3" y1="631.0" x2="642.2" y2="646.7" stroke="#2e8b57" stroke-width="2" opacity="0.5"/>
<line x1="651.7" y1="631.0" x2="655.8" y2="646.7" stroke="#2e8b57" stroke-width="2" opacity="0.5"/>
<line x1="649.0" y1="617.9" x2="649.0" y2="631.0" stroke="#2e8b57" stroke-width="2.5" opacity="0.6"/>
<line x1="635.5" y1="619.9" x2="662.5" y2="619.9" stroke="#2e8b57" stroke-width="2" opacity="0.5"/>
<line x1="635.5" y1="619.9" x2="631.0" y2="631.4" stroke="#2e8b57" stroke-width="1.5" opacity="0.4"/>
<line x1="662.5" y1="619.9" x2="667.0" y2="631.4" stroke="#2e8b57" stroke-width="1.5" opacity="0.4"/>
<circle cx="649.0" cy="601.7" r="8.1" fill="#2e8b57" opacity="0.6"/>
<rect x="411.0" y="325.9" width="84.6" height="40.0" rx="6" fill="white" stroke="#c49a6c" stroke-width="1.0" opacity="0.92"/>
<polygon points="436.4,365.9 444.4,365.9 433.4,373.9" fill="white" stroke="#c49a6c" stroke-width="0.8"/>
<line x1="435.9" y1="365.9" x2="444.9" y2="365.9" stroke="white" stroke-width="1.5"/>
<text x="417.0" y="342.9" font-size="11.0" fill="#c49a6c" font-weight="700">THEODORE</text>
<text x="417.0" y="356.9" font-size="11.0" fill="#333333">There it is.</text>
<rect x="613.9" y="375.9" width="151.2" height="40.0" rx="6" fill="white" stroke="#2e8b57" stroke-width="1.0" opacity="0.92"/>
<polygon points="659.2,415.9 667.2,415.9 656.2,423.9" fill="white" stroke="#2e8b57" stroke-width="0.8"/>
<line x1="658.7" y1="415.9" x2="667.7" y2="415.9" stroke="white" stroke-width="1.5"/>
<text x="619.9" y="392.9" font-size="11.0" fill="#2e8b57" font-weight="700">JINK</text>
<text x="619.9" y="406.9" font-size="11.0" fill="#333333">Bigger than I expected.</text>
<text x="759.0" y="333.9" text-anchor="end" font-size="12" font-weight="bold" fill="#888888" opacity="0.6">3</text>
<text x="765.0" y="733.5" text-anchor="end" font-size="9" fill="#888888" opacity="0.5">EST</text>
<rect x="29.0" y="749.5" width="366.0" height="421.5" rx="2" fill="#f5f0e8" stroke="#2a2a2a" stroke-width="1.5"/>
<path d="M144.2,1053.0 L150.3,998.5 Q156.5,994.5 193.3,994.5 L230.7,994.5 Q267.5,994.5 273.6,998.5 L279.8,1053.0 Z" fill="#999999" opacity="0.35"/>
<line x1="150.3" y1="1024.5" x2="273.6" y2="1024.5" stroke="#999999" stroke-width="1" opacity="0.3"/>
<line x1="150.3" y1="998.5" x2="125.7" y2="1045.9" stroke="#999999" stroke-width="2" opacity="0.3"/>
<line x1="125.7" y1="1045.9" x2="144.2" y2="1074.3" stroke="#999999" stroke-width="2" opacity="0.3"/>
<line x1="273.6" y1="998.5" x2="298.3" y2="1045.9" stroke="#999999" stroke-width="2" opacity="0.3"/>
<line x1="298.3" y1="1045.9" x2="279.8" y2="1074.3" stroke="#999999" stroke-width="2" opacity="0.3"/>
<line x1="212.0" y1="910.1" x2="212.0" y2="994.5" stroke="#999999" stroke-width="3" opacity="0.35"/>
<circle cx="212.0" cy="863.3" r="46.9" fill="#999999" opacity="0.4"/>
<rect x="35.0" y="757.5" width="120.9" height="40.0" rx="6" fill="white" stroke="#999999" stroke-width="1.0" opacity="0.92"/>
<polygon points="71.3,797.5 79.3,797.5 68.3,805.5" fill="white" stroke="#999999" stroke-width="0.8"/>
<line x1="70.8" y1="797.5" x2="79.8" y2="797.5" stroke="white" stroke-width="1.5"/>
<text x="41.0" y="774.5" font-size="11.0" fill="#999999" font-weight="700">DOCKWORKER</text>
<text x="41.0" y="788.5" font-size="11.0" fill="#333333">Oi. You lost, boy?</text>
<rect x="35.0" y="807.5" width="354.0" height="40.0" rx="6" fill="white" stroke="#c49a6c" stroke-width="1.0" opacity="0.92"/>
<polygon points="141.2,847.5 149.2,847.5 138.2,855.5" fill="white" stroke="#c49a6c" stroke-width="0.8"/>
<line x1="140.7" y1="847.5" x2="149.7" y2="847.5" stroke="white" stroke-width="1.5"/>
<text x="41.0" y="824.5" font-size="11.0" fill="#c49a6c" font-weight="700">THEODORE</text>
<text x="41.0" y="838.5" font-size="11.0" fill="#333333">Errand for my master, sir. Lens-grinder on Tooley Street.</text>
<rect x="35.0" y="857.5" width="211.7" height="40.0" rx="6" fill="white" stroke="#999999" stroke-width="1.0" opacity="0.92"/>
<polygon points="98.5,897.5 106.5,897.5 95.5,905.5" fill="white" stroke="#999999" stroke-width="0.8"/>
<line x1="98.0" y1="897.5" x2="107.0" y2="897.5" stroke="white" stroke-width="1.5"/>
<text x="41.0" y="874.5" font-size="11.0" fill="#999999" font-weight="700">DOCKWORKER</text>
<text x="41.0" y="888.5" font-size="11.0" fill="#333333">Two streets back. Mind the carts.</text>
<text x="383.0" y="765.5" text-anchor="end" font-size="12" font-weight="bold" fill="#888888" opacity="0.6">4</text>
<text x="389.0" y="1165.0" text-anchor="end" font-size="9" fill="#888888" opacity="0.5">MED</text>
<rect x="405.0" y="749.5" width="366.0" height="421.5" rx="2" fill="#f5f0e8" stroke="#2a2a2a" stroke-width="1.5"/>
<ellipse cx="588.0" cy="926.5" rx="132.8" ry="189.7" fill="#2e8b57" opacity="0.18"/>
<path d="M448.6,860.1 Q588.0,708.4 727.4,860.1" fill="none" stroke="#2e8b57" stroke-width="3" opacity="0.35"/>
<line x1="541.5" y1="884.8" x2="581.4" y2="882.8" stroke="#a89888" stroke-width="1.5" opacity="0.45"/>
<line x1="594.6" y1="882.8" x2="634.5" y2="884.8" stroke="#a89888" stroke-width="1.5" opacity="0.45"/>
<ellipse cx="550.8" cy="903.7" rx="15.9" ry="9.5" fill="#a89888" opacity="0.45"/>
<ellipse cx="625.2" cy="903.7" rx="15.9" ry="9.5" fill="#a89888" opacity="0.45"/>
<line x1="588.0" y1="930.3" x2="588.0" y2="960.7" stroke="#a89888" stroke-width="1.2" opacity="0.35"/>
<path d="M580.0,960.7 Q588.0,963.7 596.0,960.7" fill="none" stroke="#a89888" stroke-width="1" opacity="0.3"/>
<line x1="554.8" y1="987.2" x2="621.2" y2="987.2" stroke="#a89888" stroke-width="1.2" opacity="0.35"/>
<rect x="411.0" y="757.5" width="248.0" height="40.0" rx="6" fill="white" stroke="#2e8b57" stroke-width="1.0" opacity="0.92"/>
<polygon points="485.4,797.5 493.4,797.5 482.4,805.5" fill="white" stroke="#2e8b57" stroke-width="0.8"/>
<line x1="484.9" y1="797.5" x2="493.9" y2="797.5" stroke="white" stroke-width="1.5"/>
<text x="417.0" y="774.5" font-size="11.0" fill="#2e8b57" font-weight="700">JINK</text>
<text x="417.0" y="788.5" font-size="11.0" fill="#333333">Not bad. You're getting the hang of it.</text>
<rect x="565.5" y="807.5" width="199.6" height="40.0" rx="6" fill="white" stroke="#c49a6c" stroke-width="1.0" opacity="0.92"/>
<polygon points="625.3,847.5 633.3,847.5 622.3,855.5" fill="white" stroke="#c49a6c" stroke-width="0.8"/>
<line x1="624.8" y1="847.5" x2="633.8" y2="847.5" stroke="white" stroke-width="1.5"/>
<text x="571.5" y="824.5" font-size="11.0" fill="#c49a6c" font-weight="700">THEODORE</text>
<text x="571.5" y="838.5" font-size="11.0" fill="#333333">My heart's going like a hammer.</text>
<rect x="411.0" y="857.5" width="272.2" height="40.0" rx="6" fill="white" stroke="#2e8b57" stroke-width="1.0" opacity="0.92"/>
<polygon points="492.6,897.5 500.6,897.5 489.6,905.5" fill="white" stroke="#2e8b57" stroke-width="0.8"/>
<line x1="492.1" y1="897.5" x2="501.1" y2="897.5" stroke="white" stroke-width="1.5"/>
<text x="417.0" y="874.5" font-size="11.0" fill="#2e8b57" font-weight="700">JINK</text>
<text x="417.0" y="888.5" font-size="11.0" fill="#333333">Mine too. That's how you know it's working.</text>
<text x="759.0" y="765.5" text-anchor="end" font-size="12" font-weight="bold" fill="#888888" opacity="0.6">5</text>
<text x="765.0" y="1165.0" text-anchor="end" font-size="9" fill="#888888" opacity="0.5">CU</text>
</svg>