<svg xmlns="http://www.w3.org/2000/svg" viewBox="0 0 800 1200" width="800" height="1200" style="background:#ffffff">
<style>
  text { font-family: "Helvetica Neue", Helvetica, Arial, sans-serif; }
</style>
<text x="400.0" y="22" text-anchor="middle" font-size="16" fill="#888888" font-weight="500">PAGE 2  (5 panels)</text>
<rect x="29.0" y="59.0" width="366.0" height="364.0" rx="2" fill="#f5f0e8" stroke="#2a2a2a" stroke-width="1.5"/>
<path d="M153.4,321.1 L158.8,274.6 Q164.1,270.6 195.8,270.6 L228.2,270.6 Q259.9,270.6 265.2,274.6 L270.6,321.1 Z" fill="#b0b0b0" opacity="0.35"/>
<line x1="158.8" y1="296.5" x2="265.2" y2="296.5" stroke="#b0b0b0" stroke-width="1" opacity="0.3"/>
<line x1="158.8" y1="274.6" x2="137.5" y2="315.5" stroke="#b0b0b0" stroke-width="2" opacity="0.3"/>
<line x1="137.5" y1="315.5" x2="153.4" y2="340.1" stroke="#b0b0b0" stroke-width="2" opacity="0.3"/>
<line x1="265.2" y1="274.6" x2="286.5" y2="315.5" stroke="#b0b0b0" stroke-width="2" opacity="0.3"/>
<line x1="286.5" y1="315.5" x2="270.6" y2="340.1" stroke="#b0b0b0" stroke-width="2" opacity="0.3"/>
<line x1="212.0" y1="197.7" x2="212.0" y2="270.6" stroke="#b0b0b0" stroke-width="3" opacity="0.35"/>
<circle cx="212.0" cy="157.3" r="40.5" fill="#b0b0b0" opacity="0.4"/>
<rect x="35.0" y="67.0" width="326.6" height="40.0" rx="6" fill="white" stroke="#b0b0b0" stroke-width="1.0" opacity="0.92"/>
<polygon points="133.0,107.0 141.0,107.0 130.0,115.0" fill="white" stroke="#b0b0b0" stroke-width="0.8"/>
<line x1="132.5" y1="107.0" x2="141.5" y2="107.0" stroke="white" stroke-width="1.5"/>
<text x="41.0" y="84.0" font-size="11.0" fill="#b0b0b0" font-weight="700">SABLE</text>
<text x="41.0" y="98.0" font-size="11.0" fill="#333333">Fine. Stay concealed. You're overwatch, not company.</text>
<rect x="310.4" y="117.0" width="78.6" height="40.0" rx="6" fill="white" stroke="#2e8b57" stroke-width="1.0" opacity="0.92"/>
<polygon points="334.0,157.0 342.0,157.0 331.0,165.0" fill="white" stroke="#2e8b57" stroke-width="0.8"/>
<line x1="333.5" y1="157.0" x2="342.5" y2="157.0" stroke="white" stroke-width="1.5"/>
<text x="316.4" y="134.0" font-size="11.0" fill="#2e8b57" font-weight="700">JINK</text>
<text x="316.4" y="148.0" font-size="11.0" fill="#333333">Understood.</text>
<text x="383.0" y="75.0" text-anchor="end" font-size="12" font-weight="bold" fill="#888888" opacity="0.6">1</text>
<text x="389.0" y="417.0" text-anchor="end" font-size="9" fill="#888888" opacity="0.5">MED</text>
<rect x="405.0" y="59.0" width="366.0" height="364.0" rx="2" fill="#f5f0e8" stroke="#2a2a2a" stroke-width="1.5"/>
<path d="M486.1,332.0 Q486.1,281.0 562.5,274.7 L613.5,274.7 Q689.9,281.0 689.9,332.0 L689.9,379.3 L486.1,379.3 Z" fill="#b22222" opacity="0.25"/>
<path d="M565.7,274.7 L588.0,306.5 L610.3,274.7" fill="none" stroke="#b22222" stroke-width="1" opacity="0.3"/>
<circle cx="588.0" cy="204.6" r="63.7" fill="#b22222" opacity="0.35"/>
<path d="M524.3,217.3 Q533.9,274.7 588.0,277.9 Q642.1,274.7 651.7,217.3" fill="none" stroke="#b22222" stroke-width="1.2" opacity="0.3"/>
<path d="M521.1,198.2 Q588.0,121.8 654.9,198.2" fill="none" stroke="#b22222" stroke-width="2" opacity="0.4"/>
<ellipse cx="522.3" cy="207.8" rx="2.5" ry="4" fill="#b22222" opacity="0.25"/>
<ellipse cx="653.7" cy="207.8" rx="2.5" ry="4" fill="#b22222" opacity="0.25"/>
<rect x="411.0" y="67.0" width="181.4" height="40.0" rx="6" fill="white" stroke="#b22222" stroke-width="1.0" opacity="0.92"/>
<polygon points="465.4,107.0 473.4,107.0 462.4,115.0" fill="white" stroke="#b22222" stroke-width="0.8"/>
<line x1="464.9" y1="107.0" x2="473.9" y2="107.0" stroke="white" stroke-width="1.5"/>
<text x="417.0" y="84.0" font-size="11.0" fill="#b22222" font-weight="700">THRESH</text>
<text x="417.0" y="98.0" font-size="11.0" fill="#333333">The waterfront. How exposed?</text>
<rect x="438.4" y="117.0" width="326.6" height="54.0" rx="6" fill="white" stroke="#c87533" stroke-width="1.0" opacity="0.92"/>
<polygon points="536.4,171.0 544.4,171.0 533.4,179.0" fill="white" stroke="#c87533" stroke-width="0.8"/>
<line x1="535.9" y1="171.0" x2="544.9" y2="171.0" stroke="white" stroke-width="1.5"/>
<text x="444.4" y="134.0" font-size="11.0" fill="#c87533" font-weight="700">WREN</text>
<text x="444.4" y="148.0" font-size="11.0" fill="#333333">Open quays, wide sight lines. More foot traffic than</text>
<text x="444.4" y="162.0" font-size="11.0" fill="#333333">Clerkenwell at night — dock shifts run late.</text>
<rect x="411.0" y="181.0" width="66.5" height="40.0" rx="6" fill="white" stroke="#b22222" stroke-width="1.0" opacity="0.92"/>
<polygon points="430.9,221.0 438.9,221.0 427.9,229.0" fill="white" stroke="#b22222" stroke-width="0.8"/>
<line x1="430.4" y1="221.0" x2="439.4" y2="221.0" stroke="white" stroke-width="1.5"/>
<text x="417.0" y="198.0" font-size="11.0" fill="#b22222" font-weight="700">THRESH</text>
<text x="417.0" y="212.0" font-size="11.0" fill="#333333">...right.</text>
<text x="759.0" y="75.0" text-anchor="end" font-size="12" font-weight="bold" fill="#888888" opacity="0.6">2</text>
<text x="765.0" y="417.0" text-anchor="end" font-size="9" fill="#888888" opacity="0.5">MCU</text>
<rect x="29.0" y="433.0" width="742.0" height="364.0" rx="2" fill="#f5f0e8" stroke="#2a2a2a" stroke-width="1.5"/>
<line x1="35.0" y1="716.9" x2="765.0" y2="716.9" stroke="#a89888" stroke-width="1.0" opacity="0.5"/>
<ellipse cx="214.5" cy="718.9" rx="11.2" ry="2.7" fill="#a89888" opacity="0.2"/>
<line x1="211.8" y1="701.2" x2="207.8" y2="716.9" stroke="#c87533" stroke-width="2" opacity="0.5"/>
<line x1="217.2" y1="701.2" x2="221.2" y2="716.9" stroke="#c87533" stroke-width="2" opacity="0.5"/>
<line x1="214.5" y1="688.1" x2="214.5" y2="701.2" stroke="#c87533" stroke-width="2.5" opacity="0.6"/>
<line x1="201.0" y1="690.1" x2="228.0" y2="690.1" stroke="#c87533" stroke-width="2" opacity="0.5"/>
<line x1="201.0" y1="690.1" x2="196.5" y2="701.6" stroke="#c87533" stroke-width="1.5" opacity="0.4"/>
<line x1="228.0" y1="690.1" x2="232.5" y2="701.6" stroke="#c87533" stroke-width="1.5" opacity="0.4"/>
<circle cx="214.5" cy="671.9" r="8.1" fill="#c87533" opacity="0.6"/>
<ellipse cx="400.0" cy="718.9" rx="11.2" ry="2.7" fill="#a89888" opacity="0.2"/>
<line x1="397.3" y1="701.2" x2="393.2" y2="716.9" stroke="#6a5acd" stroke-width="2" opacity="0.5"/>
<line x1="402.7" y1="701.2" x2="406.8" y2="716.9" stroke="#6a5acd" stroke-width="2" opacity="0.5"/>
<line x1="400.0" y1="688.1" x2="400.0" y2="701.2" stroke="#6a5acd" stroke-width="2.5" opacity="0.6"/>
<line x1="386.5" y1="690.1" x2="413.5" y2="690.1" stroke="#6a5acd" stroke-width="2" opacity="0.5"/>
<line x1="386.5" y1="690.1" x2="382.0" y2="701.6" stroke="#6a5acd" stroke-width="1.5" opacity="0.4"/>
<line x1="413.5" y1="690.1" x2="418.0" y2="701.6" stroke="#6a5acd" stroke-width="1.5" opacity="0.4"/>
<circle cx="400.0" cy="671.9" r="8.1" fill="#6a5acd" opacity="0.6"/>
<ellipse cx="585.5" cy="718.9" rx="11.2" ry="2.7" fill="#a89888" opacity="0.2"/>
<line x1="582.8" y1="701.2" x2="578.8" y2="716.9" stroke="#b0b0b0" stroke-width="2" opacity="0.5"/>
<line x1="588.2" y1="701.2" x2="592.2" y2="716.9" stroke="#b0b0b0" stroke-width="2" opacity="0.5"/>
<line x1="585.5" y1="688.1" x2="585.5" y2="701.2" stroke="#b0b0b0" stroke-width="2.5" opacity="0.6"/>
<line x1="572.0" y1="690.1" x2="599.0" y2="690.1" stroke="#b0b0b0" stroke-width="2" opacity="0.5"/>
<line x1="572.0" y1="690.1" x2="567.5" y2="701.6" stroke="#b0b0b0" stroke-width="1.5" opacity="0.4"/>
<line x1="599.0" y1="690.1" x2="603.5" y2="701.6" stroke="#b0b0b0" stroke-width="1.5" opacity="0.4"/>
<circle cx="585.5" cy="671.9" r="8.1" fill="#b0b0b0" opacity="0.6"/>
<rect x="35.0" y="441.0" width="72.5" height="40.0" rx="6" fill="white" stroke="#c87533" stroke-width="1.0" opacity="0.92"/>
<polygon points="56.8,481.0 64.8,481.0 53.8,489.0" fill="white" stroke="#c87533" stroke-width="0.8"/>
<line x1="56.2" y1="481.0" x2="65.2" y2="481.0" stroke="white" stroke-width="1.5"/>
<text x="41.0" y="458.0" font-size="11.0" fill="#c87533" font-weight="700">WREN</text>
<text x="41.0" y="472.0" font-size="11.0" fill="#333333">Questions?</text>
<rect x="571.5" y="491.0" width="193.5" height="40.0" rx="6" fill="white" stroke="#6a5acd" stroke-width="1.0" opacity="0.92"/>
<polygon points="629.5,531.0 637.5,531.0 626.5,539.0" fill="white" stroke="#6a5acd" stroke-width="0.8"/>
<line x1="629.0" y1="531.0" x2="638.0" y2="531.0" stroke="white" stroke-width="1.5"/>
<text x="577.5" y="508.0" font-size="11.0" fill="#6a5acd" font-weight="700">LUMA</text>
<text x="577.5" y="522.0" font-size="11.0" fill="#333333">Comms range to the waterfront?</text>
<rect x="35.0" y="541.0" width="483.9" height="40.0" rx="6" fill="white" stroke="#c87533" stroke-width="1.0" opacity="0.92"/>
<polygon points="180.2,581.0 188.2,581.0 177.2,589.0" fill="white" stroke="#c87533" stroke-width="0.8"/>
<line x1="179.7" y1="581.0" x2="188.7" y2="581.0" stroke="white" stroke-width="1.5"/>
<text x="41.0" y="558.0" font-size="11.0" fill="#c87533" font-weight="700">WREN</text>
<text x="41.0" y="572.0" font-size="11.0" fill="#333333">Marginal. We'll need a relay point. Jink, you're the midpoint on the way back.</text>
<rect x="456.5" y="591.0" width="308.5" height="40.0" rx="6" fill="white" stroke="#b0b0b0" stroke-width="1.0" opacity="0.92"/>
<polygon points="549.1,631.0 557.1,631.0 546.1,639.0" fill="white" stroke="#b0b0b0" stroke-width="0.8"/>
<line x1="548.6" y1="631.0" x2="557.6" y2="631.0" stroke="white" stroke-width="1.5"/>
<text x="462.5" y="608.0" font-size="11.0" fill="#b0b0b0" font-weight="700">SABLE</text>
<text x="462.5" y="622.0" font-size="11.0" fill="#333333">We move at dusk. Theodore meets us at the bridge.</text>
<text x="759.0" y="449.0" text-anchor="end" font-size="12" font-weight="bold" fill="#888888" opacity="0.6">3</text>
<text x="765.0" y="791.0" text-anchor="end" font-size="9" fill="#888888" opacity="0.5">EST</text>
<rect x="29.0" y="807.0" width="493.8" height="364.0" rx="2" fill="#f5f0e8" stroke="#2a2a2a" stroke-width="1.5"/>
<path d="M217.4,1069.1 L222.7,1022.6 Q228.0,1018.6 259.7,1018.6 L292.1,1018.6 Q323.8,1018.6 329.2,1022.6 L334.5,1069.1 Z" fill="#6a5acd" opacity="0.35"/>
<line x1="222.7" y1="1044.5" x2="329.2" y2="1044.5" stroke="#6a5acd" stroke-width="1" opacity="0.3"/>
<line x1="222.7" y1="1022.6" x2="201.4" y2="1063.5" stroke="#6a5acd" stroke-width="2" opacity="0.3"/>
<line x1="201.4" y1="1063.5" x2="217.4" y2="1088.1" stroke="#6a5acd" stroke-width="2" opacity="0.3"/>
<line x1="329.2" y1="1022.6" x2="350.4" y2="1063.5" stroke="#6a5acd" stroke-width="2" opacity="0.3"/>
<line x1="350.4" y1="1063.5" x2="334.5" y2="1088.1" stroke="#6a5acd" stroke-width="2" opacity="0.3"/>
<line x1="275.9" y1="945.7" x2="275.9" y2="1018.6" stroke="#6a5acd" stroke-width="3" opacity="0.35"/>
<circle cx="275.9" cy="905.3" r="40.5" fill="#6a5acd" opacity="0.4"/>
<rect x="35.0" y="815.0" width="447.6" height="40.0" rx="6" fill="white" stroke="#6a5acd" stroke-width="1.0" opacity="0.92"/>
<polygon points="169.3,855.0 177.3,855.0 166.3,863.0" fill="white" stroke="#6a5acd" stroke-width="0.8"/>
<line x1="168.8" y1="855.0" x2="177.8" y2="855.0" stroke="white" stroke-width="1.5"/>
<text x="41.0" y="832.0" font-size="11.0" fill="#6a5acd" font-weight="700">LUMA</text>
<text x="41.0" y="846.0" font-size="11.0" fill="#333333">The waterfront will be loud. Machinery, water, chains. Good cover noise.</text>
<rect x="454.8" y="865.0" width="62.0" height="40.0" rx="6" fill="white" stroke="#b22222" stroke-width="1.0" opacity="0.92"/>
<polygon points="473.4,905.0 481.4,905.0 470.4,913.0" fill="white" stroke="#b22222" stroke-width="0.8"/>
<line x1="472.9" y1="905.0" x2="481.9" y2="905.0" stroke="white" stroke-width="1.5"/>
<text x="460.8" y="882.0" font-size="11.0" fill="#b22222" font-weight="700">THRESH</text>
<text x="460.8" y="896.0" font-size="11.0" fill="#333333">I know.</text>
<rect x="35.0" y="915.0" width="102.8" height="40.0" rx="6" fill="white" stroke="#6a5acd" stroke-width="1.0" opacity="0.92"/>
<polygon points="65.8,955.0 73.8,955.0 62.8,963.0" fill="white" stroke="#6a5acd" stroke-width="0.8"/>
<line x1="65.3" y1="955.0" x2="74.3" y2="955.0" stroke="white" stroke-width="1.5"/>
<text x="41.0" y="932.0" font-size="11.0" fill="#6a5acd" font-weight="700">LUMA</text>
<text x="41.0" y="946.0" font-size="11.0" fill="#333333">Just noting it.</text>
<text x="510.8" y="823.0" text-anchor="end" font-size="12" font-weight="bold" fill="#888888" opacity="0.6">4</text>
<text x="516.8" y="1165.0" text-anchor="end" font-size="9" fill="#888888" opacity="0.5">MW</text>
<rect x="532.8" y="807.0" width="238.2" height="364.0" rx="2" fill="#f5f0e8" stroke="#2a2a2a" stroke-width="1.5"/>
<ellipse cx="651.9" cy="959.9" rx="95.3" ry="163.8" fill="#c0b8a8" opacity="0.18"/>
<path d="M551.9,902.5 Q651.9,771.5 751.9,902.5" fill="none" stroke="#c0b8a8" stroke-width="3" opacity="0.35"/>
<line x1="618.6" y1="923.8" x2="647.2" y2="921.8" stroke="#a89888" stroke-width="1.5" opacity="0.45"/>
<line x1="656.7" y1="921.8" x2="685.3" y2="923.8" stroke="#a89888" stroke-width="1.5" opacity="0.45"/>
<ellipse cx="625.2" cy="940.2" rx="11.4" ry="8.2" fill="#a89888" opacity="0.45"/>
<ellipse cx="678.6" cy="940.2" rx="11.4" ry="8.2" fill="#a89888" opacity="0.45"/>
<line x1="651.9" y1="963.2" x2="651.9" y2="989.4" stroke="#a89888" stroke-width="1.2" opacity="0.35"/>
<path d="M646.2,989.4 Q651.9,992.4 657.6,989.4" fill="none" stroke="#a89888" stroke-width="1" opacity="0.3"/>
<line x1="628.1" y1="1012.3" x2="675.7" y2="1012.3" stroke="#a89888" stroke-width="1.2" opacity="0.35"/>
<text x="759.0" y="823.0" text-anchor="end" font-size="12" font-weight="bold" fill="#888888" opacity="0.6">5</text>
<text x="765.0" y="1165.0" text-anchor="end" font-size="9" fill="#888888" opacity="0.5">CU</text>
</svg>