<svg xmlns="http://www.w3.org/2000/svg" viewBox="0 0 800 1200" width="800" height="1200" style="background:#ffffff">
<style>
  text { font-family: "Helvetica Neue", Helvetica, Arial, sans-serif; }
</style>
<text x="400.0" y="22" text-anchor="middle" font-size="16" fill="#888888" font-weight="500">PAGE 7  (4 panels)</text>
<rect x="29.0" y="59.0" width="742.0" height="248.9" rx="2" fill="#f5f0e8" stroke="#2a2a2a" stroke-width="1.5"/>
<line x1="35.0" y1="253.2" x2="765.0" y2="253.2" stroke="#a89888" stroke-width="1.0" opacity="0.5"/>
<ellipse cx="214.5" cy="255.2" rx="11.2" ry="2.7" fill="#a89888" opacity="0.2"/>
<line x1="211.8" y1="237.5" x2="207.8" y2="253.2" stroke="#c0b8a8" stroke-width="2" opacity="0.5"/>
<line x1="217.2" y1="237.5" x2="221.2" y2="253.2" stroke="#c0b8a8" stroke-width="2" opacity="0.5"/>
<line x1="214.5" y1="224.5" x2="214.5" y2="237.5" stroke="#c0b8a8" stroke-width="2.5" opacity="0.6"/>
<line x1="201.1" y1="226.5" x2="227.9" y2="226.5" stroke="#c0b8a8" stroke-width="2" opacity="0.5"/>
<line x1="201.1" y1="226.5" x2="196.6" y2="237.9" stroke="#c0b8a8" stroke-width="1.5" opacity="0.4"/>
<line x1="227.9" y1="226.5" x2="232.4" y2="237.9" stroke="#c0b8a8" stroke-width="1.5" opacity="0.4"/>
<circle cx="214.5" cy="208.4" r="8.1" fill="#c0b8a8" opacity="0.6"/>
<ellipse cx="400.0" cy="255.2" rx="11.2" ry="2.7" fill="#a89888" opacity="0.2"/>
<line x1="397.3" y1="237.5" x2="393.3" y2="253.2" stroke="#c0b8a8" stroke-width="2" opacity="0.5"/>
<line x1="402.7" y1="237.5" x2="406.7" y2="253.2" stroke="#c0b8a8" stroke-width="2" opacity="0.5"/>
<line x1="400.0" y1="224.5" x2="400.0" y2="237.5" stroke="#c0b8a8" stroke-width="2.5" opacity="0.6"/>
<line x1="386.6" y1="226.5" x2="413.4" y2="226.5" stroke="#c0b8a8" stroke-width="2" opacity="0.5"/>
<line x1="386.6" y1="226.5" x2="382.1" y2="237.9" stroke="#c0b8a8" stroke-width="1.5" opacity="0.4"/>
<line x1="413.4" y1="226.5" x2="417.9" y2="237.9" stroke="#c0b8a8" stroke-width="1.5" opacity="0.4"/>
<circle cx="400.0" cy="208.4" r="8.1" fill="#c0b8a8" opacity="0.6"/>
<ellipse cx="585.5" cy="255.2" rx="11.2" ry="2.7" fill="#a89888" opacity="0.2"/>
<line x1="582.8" y1="237.5" x2="578.8" y2="253.2" stroke="#c0b8a8" stroke-width="2" opacity="0.5"/>
<line x1="588.2" y1="237.5" x2="592.2" y2="253.2" stroke="#c0b8a8" stroke-width="2" opacity="0.5"/>
<line x1="585.5" y1="224.5" x2="585.5" y2="237.5" stroke="#c0b8a8" stroke-width="2.5" opacity="0.6"/>
<line x1="572.1" y1="226.5" x2="598.9" y2="226.5" stroke="#c0b8a8" stroke-width="2" opacity="0.5"/>
<line x1="572.1" y1="226.5" x2="567.6" y2="237.9" stroke="#c0b8a8" stroke-width="1.5" opacity="0.4"/>
<line x1="598.9" y1="226.5" x2="603.4" y2="237.9" stroke="#c0b8a8" stroke-width="1.5" opacity="0.4"/>
<circle cx="585.5" cy="208.4" r="8.1" fill="#c0b8a8" opacity="0.6"/>
<rect x="35.0" y="67.0" width="356.9" height="40.0" rx="2" fill="#f5ecd8" stroke="#c8b898" stroke-width="0.8" opacity="0.92"/>
<text x="41.0" y="84.0" font-size="11.0" fill="#5a4a30" font-style="italic" font-weight="500">CAPTION</text>
<text x="41.0" y="98.0" font-size="11.0" fill="#5a4a30" font-style="italic">Full dark. Twenty minutes to the keeper's midnight round.</text>
<text x="759.0" y="75.0" text-anchor="end" font-size="12" font-weight="bold" fill="#888888" opacity="0.6">1</text>
<text x="765.0" y="301.9" text-anchor="end" font-size="9" fill="#888888" opacity="0.5">EST</text>
<rect x="29.0" y="317.9" width="742.0" height="421.5" rx="2" fill="#f5f0e8" stroke="#2a2a2a" stroke-width="1.5"/>
<path d="M332.2,621.4 L338.4,566.9 Q344.5,562.9 381.3,562.9 L418.7,562.9 Q455.5,562.9 461.6,566.9 L467.8,621.4 Z" fill="#b0b0b0" opacity="0.35"/>
<line x1="338.4" y1="593.0" x2="461.6" y2="593.0" stroke="#b0b0b0" stroke-width="1" opacity="0.3"/>
<line x1="338.4" y1="566.9" x2="313.7" y2="614.4" stroke="#b0b0b0" stroke-width="2" opacity="0.3"/>
<line x1="313.7" y1="614.4" x2="332.2" y2="642.8" stroke="#b0b0b0" stroke-width="2" opacity="0.3"/>
<line x1="461.6" y1="566.9" x2="486.3" y2="614.4" stroke="#b0b0b0" stroke-width="2" opacity="0.3"/>
<line x1="486.3" y1="614.4" x2="467.8" y2="642.8" stroke="#b0b0b0" stroke-width="2" opacity="0.3"/>
<line x1="400.0" y1="478.6" x2="400.0" y2="562.9" stroke="#b0b0b0" stroke-width="3" opacity="0.35"/>
<circle cx="400.0" cy="431.7" r="46.9" fill="#b0b0b0" opacity="0.4"/>
<rect x="35.0" y="325.9" width="730.0" height="54.0" rx="6" fill="white" stroke="#b0b0b0" stroke-width="1.0" opacity="0.92"/>
<polygon points="254.0,379.9 262.0,379.9 251.0,387.9" fill="white" stroke="#b0b0b0" stroke-width="0.8"/>
<line x1="253.5" y1="379.9" x2="262.5" y2="379.9" stroke="white" stroke-width="1.5"/>
<text x="41.0" y="342.9" font-size="11.0" fill="#b0b0b0" font-weight="700">SABLE</text>
<text x="41.0" y="356.9" font-size="11.0" fill="#333333">Jink — advance recon. Circle the lighthouse, confirm the keeper's position. Thresh — base of the pier, overwatch. Luma —</text>
<text x="41.0" y="370.9" font-size="11.0" fill="#333333">comms relay, hold here with Theodore.</text>
<rect x="99.6" y="389.9" width="665.4" height="40.0" rx="6" fill="white" stroke="#b0b0b0" stroke-width="1.0" opacity="0.92"/>
<polygon points="299.2,429.9 307.2,429.9 296.2,437.9" fill="white" stroke="#b0b0b0" stroke-width="0.8"/>
<line x1="298.7" y1="429.9" x2="307.7" y2="429.9" stroke="white" stroke-width="1.5"/>
<text x="105.6" y="406.9" font-size="11.0" fill="#b0b0b0" font-weight="700">SABLE</text>
<text x="105.6" y="420.9" font-size="11.0" fill="#333333">Wren and I approach from the waterline. Up the exterior. Into the lamp room during the keeper's sleep cycle.</text>
<rect x="35.0" y="439.9" width="175.4" height="40.0" rx="6" fill="white" stroke="#c87533" stroke-width="1.0" opacity="0.92"/>
<polygon points="87.6,479.9 95.6,479.9 84.6,487.9" fill="white" stroke="#c87533" stroke-width="0.8"/>
<line x1="87.1" y1="479.9" x2="96.1" y2="479.9" stroke="white" stroke-width="1.5"/>
<text x="41.0" y="456.9" font-size="11.0" fill="#c87533" font-weight="700">WREN</text>
<text x="41.0" y="470.9" font-size="11.0" fill="#333333">And if the keeper wakes up?</text>
<rect x="680.4" y="489.9" width="84.6" height="40.0" rx="6" fill="white" stroke="#b0b0b0" stroke-width="1.0" opacity="0.92"/>
<polygon points="705.8,529.9 713.8,529.9 702.8,537.9" fill="white" stroke="#b0b0b0" stroke-width="0.8"/>
<line x1="705.3" y1="529.9" x2="714.3" y2="529.9" stroke="white" stroke-width="1.5"/>
<text x="686.4" y="506.9" font-size="11.0" fill="#b0b0b0" font-weight="700">SABLE</text>
<text x="686.4" y="520.9" font-size="11.0" fill="#333333">He does not.</text>
<text x="759.0" y="333.9" text-anchor="end" font-size="12" font-weight="bold" fill="#888888" opacity="0.6">2</text>
<text x="765.0" y="733.5" text-anchor="end" font-size="9" fill="#888888" opacity="0.5">MW</text>
<rect x="29.0" y="749.5" width="366.0" height="421.5" rx="2" fill="#f5f0e8" stroke="#2a2a2a" stroke-width="1.5"/>
<path d="M144.2,1053.0 L150.3,998.5 Q156.5,994.5 193.3,994.5 L230.7,994.5 Q267.5,994.5 273.6,998.5 L279.8,1053.0 Z" fill="#c0b8a8" opacity="0.35"/>
<line x1="150.3" y1="1024.5" x2="273.6" y2="1024.5" stroke="#c0b8a8" stroke-width="1" opacity="0.3"/>
<line x1="150.3" y1="998.5" x2="125.7" y2="1045.9" stroke="#c0b8a8" stroke-width="2" opacity="0.3"/>
<line x1="125.7" y1="1045.9" x2="144.2" y2="1074.3" stroke="#c0b8a8" stroke-width="2" opacity="0.3"/>
<line x1="273.6" y1="998.5" x2="298.3" y2="1045.9" stroke="#c0b8a8" stroke-width="2" opacity="0.3"/>
<line x1="298.3" y1="1045.9" x2="279.8" y2="1074.3" stroke="#c0b8a8" stroke-width="2" opacity="0.3"/>
<line x1="212.0" y1="910.1" x2="212.0" y2="994.5" stroke="#c0b8a8" stroke-width="3" opacity="0.35"/>
<circle cx="212.0" cy="863.3" r="46.9" fill="#c0b8a8" opacity="0.4"/>
<text x="383.0" y="765.5" text-anchor="end" font-size="12" font-weight="bold" fill="#888888" opacity="0.6">3</text>
<text x="389.0" y="1165.0" text-anchor="end" font-size="9" fill="#888888" opacity="0.5">MED</text>
<rect x="405.0" y="749.5" width="366.0" height="421.5" rx="2" fill="#f5f0e8" stroke="#2a2a2a" stroke-width="1.5"/>
<path d="M482.6,1049.8 Q482.6,997.1 561.6,990.5 L614.4,990.5 Q693.4,997.1 693.4,1049.8 L693.4,1120.4 L482.6,1120.4 Z" fill="#b22222" opacity="0.25"/>
<path d="M564.9,990.5 L588.0,1023.5 L611.1,990.5" fill="none" stroke="#b22222" stroke-width="1" opacity="0.3"/>
<circle cx="588.0" cy="918.1" r="65.9" fill="#b22222" opacity="0.35"/>
<path d="M522.1,931.3 Q532.0,990.5 588.0,993.8 Q644.0,990.5 653.9,931.3" fill="none" stroke="#b22222" stroke-width="1.2" opacity="0.3"/>
<path d="M518.8,911.5 Q588.0,832.4 657.2,911.5" fill="none" stroke="#b22222" stroke-width="2" opacity="0.4"/>
<ellipse cx="520.1" cy="921.4" rx="2.5" ry="4" fill="#b22222" opacity="0.25"/>
<ellipse cx="655.9" cy="921.4" rx="2.5" ry="4" fill="#b22222" opacity="0.25"/>
<rect x="411.0" y="757.5" width="344.8" height="54.0" rx="6" fill="white" stroke="#b22222" stroke-width="1.0" opacity="0.92"/>
<polygon points="514.4,811.5 522.4,811.5 511.4,819.5" fill="white" stroke="#b22222" stroke-width="0.8"/>
<line x1="513.9" y1="811.5" x2="522.9" y2="811.5" stroke="white" stroke-width="1.5"/>
<text x="417.0" y="774.5" font-size="11.0" fill="#b22222" font-weight="700">THRESH</text>
<text x="417.0" y="788.5" font-size="11.0" fill="#333333">Overwatch set. Pier base. I have eyes on the lighthouse</text>
<text x="417.0" y="802.5" font-size="11.0" fill="#333333">door.</text>
<rect x="432.3" y="821.5" width="332.7" height="40.0" rx="6" fill="white" stroke="#6a5acd" stroke-width="1.0" opacity="0.92"/>
<polygon points="532.1,861.5 540.1,861.5 529.1,869.5" fill="white" stroke="#6a5acd" stroke-width="0.8"/>
<line x1="531.6" y1="861.5" x2="540.6" y2="861.5" stroke="white" stroke-width="1.5"/>
<text x="438.3" y="838.5" font-size="11.0" fill="#6a5acd" font-weight="700">LUMA</text>
<text x="438.3" y="852.5" font-size="11.0" fill="#333333">Copy, Thresh. Breathing's elevated. You're all right.</text>
<rect x="411.0" y="871.5" width="62.0" height="40.0" rx="6" fill="white" stroke="#b22222" stroke-width="1.0" opacity="0.92"/>
<polygon points="429.6,911.5 437.6,911.5 426.6,919.5" fill="white" stroke="#b22222" stroke-width="0.8"/>
<line x1="429.1" y1="911.5" x2="438.1" y2="911.5" stroke="white" stroke-width="1.5"/>
<text x="417.0" y="888.5" font-size="11.0" fill="#b22222" font-weight="700">THRESH</text>
<text x="417.0" y="902.5" font-size="11.0" fill="#333333">I know.</text>
<text x="759.0" y="765.5" text-anchor="end" font-size="12" font-weight="bold" fill="#888888" opacity="0.6">4</text>
<text x="765.0" y="1165.0" text-anchor="end" font-size="9" fill="#888888" opacity="0.5">MCU</text>
</svg>