<svg xmlns="http://www.w3.org/2000/svg" viewBox="0 0 800 1200" width="800" height="1200" style="background:#ffffff">
<style>
  text { font-family: "Helvetica Neue", Helvetica, Arial, sans-serif; }
</style>
<text x="400.0" y="22" text-anchor="middle" font-size="16" fill="#888888" font-weight="500">PAGE 6  (5 panels)</text>
<rect x="29.0" y="59.0" width="366.0" height="364.0" rx="2" fill="#f5f0e8" stroke="#2a2a2a" stroke-width="1.5"/>
<path d="M153.4,321.1 L158.8,274.6 Q164.1,270.6 195.8,270.6 L228.2,270.6 Q259.9,270.6 265.2,274.6 L270.6,321.1 Z" fill="#2e8b57" opacity="0.35"/>
<line x1="158.8" y1="296.5" x2="265.2" y2="296.5" stroke="#2e8b57" stroke-width="1" opacity="0.3"/>
<line x1="158.8" y1="274.6" x2="137.5" y2="315.5" stroke="#2e8b57" stroke-width="2" opacity="0.3"/>
<line x1="137.5" y1="315.5" x2="153.4" y2="340.1" stroke="#2e8b57" stroke-width="2" opacity="0.3"/>
<line x1="265.2" y1="274.6" x2="286.5" y2="315.5" stroke="#2e8b57" stroke-width="2" opacity="0.3"/>
<line x1="286.5" y1="315.5" x2="270.6" y2="340.1" stroke="#2e8b57" stroke-width="2" opacity="0.3"/>
<line x1="212.0" y1="197.7" x2="212.0" y2="270.6" stroke="#2e8b57" stroke-width="3" opacity="0.35"/>
<circle cx="212.0" cy="157.3" r="40.5" fill="#2e8b57" opacity="0.4"/>
<rect x="35.0" y="67.0" width="354.0" height="54.0" rx="6" fill="white" stroke="#2e8b57" stroke-width="1.0" opacity="0.92"/>
<polygon points="141.2,121.0 149.2,121.0 138.2,129.0" fill="white" stroke="#2e8b57" stroke-width="0.8"/>
<line x1="140.7" y1="121.0" x2="149.7" y2="121.0" stroke="white" stroke-width="1.5"/>
<text x="41.0" y="84.0" font-size="11.0" fill="#2e8b57" font-weight="700">JINK</text>
<text x="41.0" y="98.0" font-size="11.0" fill="#333333">That master of yours. Cribbage. Does he know what you can</text>
<text x="41.0" y="112.0" font-size="11.0" fill="#333333">do?</text>
<rect x="35.0" y="131.0" width="354.0" height="40.0" rx="6" fill="white" stroke="#c49a6c" stroke-width="1.0" opacity="0.92"/>
<polygon points="141.2,171.0 149.2,171.0 138.2,179.0" fill="white" stroke="#c49a6c" stroke-width="0.8"/>
<line x1="140.7" y1="171.0" x2="149.7" y2="171.0" stroke="white" stroke-width="1.5"/>
<text x="41.0" y="148.0" font-size="11.0" fill="#c49a6c" font-weight="700">THEODORE</text>
<text x="41.0" y="162.0" font-size="11.0" fill="#333333">He knows I can fix what he can't. Doesn't mean he sees me.</text>
<rect x="35.0" y="181.0" width="78.6" height="40.0" rx="6" fill="white" stroke="#2e8b57" stroke-width="1.0" opacity="0.92"/>
<polygon points="58.6,221.0 66.6,221.0 55.6,229.0" fill="white" stroke="#2e8b57" stroke-width="0.8"/>
<line x1="58.1" y1="221.0" x2="67.1" y2="221.0" stroke="white" stroke-width="1.5"/>
<text x="41.0" y="198.0" font-size="11.0" fill="#2e8b57" font-weight="700">JINK</text>
<text x="41.0" y="212.0" font-size="11.0" fill="#333333">We see you.</text>
<text x="383.0" y="75.0" text-anchor="end" font-size="12" font-weight="bold" fill="#888888" opacity="0.6">1</text>
<text x="389.0" y="417.0" text-anchor="end" font-size="9" fill="#888888" opacity="0.5">MED</text>
<rect x="405.0" y="59.0" width="366.0" height="364.0" rx="2" fill="#f5f0e8" stroke="#2a2a2a" stroke-width="1.5"/>
<ellipse cx="588.0" cy="211.9" rx="114.7" ry="163.8" fill="#c49a6c" opacity="0.18"/>
<path d="M467.6,154.6 Q588.0,23.5 708.4,154.6" fill="none" stroke="#c49a6c" stroke-width="3" opacity="0.35"/>
<line x1="547.9" y1="175.8" x2="582.3" y2="173.8" stroke="#a89888" stroke-width="1.5" opacity="0.45"/>
<line x1="593.7" y1="173.8" x2="628.1" y2="175.8" stroke="#a89888" stroke-width="1.5" opacity="0.45"/>
<ellipse cx="555.9" cy="192.2" rx="13.8" ry="8.2" fill="#a89888" opacity="0.45"/>
<ellipse cx="620.1" cy="192.2" rx="13.8" ry="8.2" fill="#a89888" opacity="0.45"/>
<line x1="588.0" y1="215.2" x2="588.0" y2="241.4" stroke="#a89888" stroke-width="1.2" opacity="0.35"/>
<path d="M581.1,241.4 Q588.0,244.4 594.9,241.4" fill="none" stroke="#a89888" stroke-width="1" opacity="0.3"/>
<line x1="559.3" y1="264.3" x2="616.7" y2="264.3" stroke="#a89888" stroke-width="1.2" opacity="0.35"/>
<rect x="411.0" y="67.0" width="90.7" height="40.0" rx="6" fill="white" stroke="#c49a6c" stroke-width="1.0" opacity="0.92"/>
<polygon points="438.2,107.0 446.2,107.0 435.2,115.0" fill="white" stroke="#c49a6c" stroke-width="0.8"/>
<line x1="437.7" y1="107.0" x2="446.7" y2="107.0" stroke="white" stroke-width="1.5"/>
<text x="417.0" y="84.0" font-size="11.0" fill="#c49a6c" font-weight="700">THEODORE</text>
<text x="417.0" y="98.0" font-size="11.0" fill="#333333">...thank you.</text>
<text x="759.0" y="75.0" text-anchor="end" font-size="12" font-weight="bold" fill="#888888" opacity="0.6">2</text>
<text x="765.0" y="417.0" text-anchor="end" font-size="9" fill="#888888" opacity="0.5">CU</text>
<rect x="29.0" y="433.0" width="742.0" height="364.0" rx="2" fill="#f5f0e8" stroke="#2a2a2a" stroke-width="1.5"/>
<line x1="35.0" y1="716.9" x2="765.0" y2="716.9" stroke="#a89888" stroke-width="1.0" opacity="0.5"/>
<ellipse cx="214.5" cy="718.9" rx="11.2" ry="2.7" fill="#a89888" opacity="0.2"/>
<line x1="211.8" y1="701.2" x2="207.8" y2="716.9" stroke="#b0b0b0" stroke-width="2" opacity="0.5"/>
<line x1="217.2" y1="701.2" x2="221.2" y2="716.9" stroke="#b0b0b0" stroke-width="2" opacity="0.5"/>
<line x1="214.5" y1="688.1" x2="214.5" y2="701.2" stroke="#b0b0b0" stroke-width="2.5" opacity="0.6"/>
<line x1="201.0" y1="690.1" x2="228.0" y2="690.1" stroke="#b0b0b0" stroke-width="2" opacity="0.5"/>
<line x1="201.0" y1="690.1" x2="196.5" y2="701.6" stroke="#b0b0b0" stroke-width="1.5" opacity="0.4"/>
<line x1="228.0" y1="690.1" x2="232.5" y2="701.6" stroke="#b0b0b0" stroke-width="1.5" opacity="0.4"/>
<circle cx="214.5" cy="671.9" r="8.1" fill="#b0b0b0" opacity="0.6"/>
<ellipse cx="400.0" cy="718.9" rx="11.2" ry="2.7" fill="#a89888" opacity="0.2"/>
<line x1="397.3" y1="701.2" x2="393.2" y2="716.9" stroke="#2e8b57" stroke-width="2" opacity="0.5"/>
<line x1="402.7" y1="701.2" x2="406.8" y2="716.9" stroke="#2e8b57" stroke-width="2" opacity="0.5"/>
<line x1="400.0" y1="688.1" x2="400.0" y2="701.2" stroke="#2e8b57" stroke-width="2.5" opacity="0.6"/>
<line x1="386.5" y1="690.1" x2="413.5" y2="690.1" stroke="#2e8b57" stroke-width="2" opacity="0.5"/>
<line x1="386.5" y1="690.1" x2="382.0" y2="701.6" stroke="#2e8b57" stroke-width="1.5" opacity="0.4"/>
<line x1="413.5" y1="690.1" x2="418.0" y2="701.6" stroke="#2e8b57" stroke-width="1.5" opacity="0.4"/>
<circle cx="400.0" cy="671.9" r="8.1" fill="#2e8b57" opacity="0.6"/>
<ellipse cx="585.5" cy="718.9" rx="11.2" ry="2.7" fill="#a89888" opacity="0.2"/>
<line x1="582.8" y1="701.2" x2="578.8" y2="716.9" stroke="#c87533" stroke-width="2" opacity="0.5"/>
<line x1="588.2" y1="701.2" x2="592.2" y2="716.9" stroke="#c87533" stroke-width="2" opacity="0.5"/>
<line x1="585.5" y1="688.1" x2="585.5" y2="701.2" stroke="#c87533" stroke-width="2.5" opacity="0.6"/>
<line x1="572.0" y1="690.1" x2="599.0" y2="690.1" stroke="#c87533" stroke-width="2" opacity="0.5"/>
<line x1="572.0" y1="690.1" x2="567.5" y2="701.6" stroke="#c87533" stroke-width="1.5" opacity="0.4"/>
<line x1="599.0" y1="690.1" x2="603.5" y2="701.6" stroke="#c87533" stroke-width="1.5" opacity="0.4"/>
<circle cx="585.5" cy="671.9" r="8.1" fill="#c87533" opacity="0.6"/>
<rect x="35.0" y="441.0" width="62.0" height="40.0" rx="6" fill="white" stroke="#b0b0b0" stroke-width="1.0" opacity="0.92"/>
<polygon points="53.6,481.0 61.6,481.0 50.6,489.0" fill="white" stroke="#b0b0b0" stroke-width="0.8"/>
<line x1="53.1" y1="481.0" x2="62.1" y2="481.0" stroke="white" stroke-width="1.5"/>
<text x="41.0" y="458.0" font-size="11.0" fill="#b0b0b0" font-weight="700">SABLE</text>
<text x="41.0" y="472.0" font-size="11.0" fill="#333333">Report.</text>
<rect x="317.4" y="491.0" width="447.6" height="40.0" rx="6" fill="white" stroke="#2e8b57" stroke-width="1.0" opacity="0.92"/>
<polygon points="451.7,531.0 459.7,531.0 448.7,539.0" fill="white" stroke="#2e8b57" stroke-width="0.8"/>
<line x1="451.2" y1="531.0" x2="460.2" y2="531.0" stroke="white" stroke-width="1.5"/>
<text x="323.4" y="508.0" font-size="11.0" fill="#2e8b57" font-weight="700">JINK</text>
<text x="323.4" y="522.0" font-size="11.0" fill="#333333">Lens acquired. Environment scouted. The quay's quiet after shift change.</text>
<rect x="35.0" y="541.0" width="157.2" height="40.0" rx="6" fill="white" stroke="#c87533" stroke-width="1.0" opacity="0.92"/>
<polygon points="82.2,581.0 90.2,581.0 79.2,589.0" fill="white" stroke="#c87533" stroke-width="0.8"/>
<line x1="81.7" y1="581.0" x2="90.7" y2="581.0" stroke="white" stroke-width="1.5"/>
<text x="41.0" y="558.0" font-size="11.0" fill="#c87533" font-weight="700">WREN</text>
<text x="41.0" y="572.0" font-size="11.0" fill="#333333">The lens. Let me see it.</text>
<text x="759.0" y="449.0" text-anchor="end" font-size="12" font-weight="bold" fill="#888888" opacity="0.6">3</text>
<text x="765.0" y="791.0" text-anchor="end" font-size="9" fill="#888888" opacity="0.5">EST</text>
<rect x="29.0" y="807.0" width="493.8" height="364.0" rx="2" fill="#f5f0e8" stroke="#2a2a2a" stroke-width="1.5"/>
<path d="M217.4,1069.1 L222.7,1022.6 Q228.0,1018.6 259.7,1018.6 L292.1,1018.6 Q323.8,1018.6 329.2,1022.6 L334.5,1069.1 Z" fill="#c87533" opacity="0.35"/>
<line x1="222.7" y1="1044.5" x2="329.2" y2="1044.5" stroke="#c87533" stroke-width="1" opacity="0.3"/>
<line x1="222.7" y1="1022.6" x2="201.4" y2="1063.5" stroke="#c87533" stroke-width="2" opacity="0.3"/>
<line x1="201.4" y1="1063.5" x2="217.4" y2="1088.1" stroke="#c87533" stroke-width="2" opacity="0.3"/>
<line x1="329.2" y1="1022.6" x2="350.4" y2="1063.5" stroke="#c87533" stroke-width="2" opacity="0.3"/>
<line x1="350.4" y1="1063.5" x2="334.5" y2="1088.1" stroke="#c87533" stroke-width="2" opacity="0.3"/>
<line x1="275.9" y1="945.7" x2="275.9" y2="1018.6" stroke="#c87533" stroke-width="3" opacity="0.35"/>
<circle cx="275.9" cy="905.3" r="40.5" fill="#c87533" opacity="0.4"/>
<rect x="35.0" y="815.0" width="481.8" height="54.0" rx="6" fill="white" stroke="#c87533" stroke-width="1.0" opacity="0.92"/>
<polygon points="179.6,869.0 187.6,869.0 176.6,877.0" fill="white" stroke="#c87533" stroke-width="0.8"/>
<line x1="179.1" y1="869.0" x2="188.1" y2="869.0" stroke="white" stroke-width="1.5"/>
<text x="41.0" y="832.0" font-size="11.0" fill="#c87533" font-weight="700">WREN</text>
<text x="41.0" y="846.0" font-size="11.0" fill="#333333">Focal length is correct. Glass purity is... adequate. Victorian crown glass — not</text>
<text x="41.0" y="860.0" font-size="11.0" fill="#333333">what I'd choose, but it'll hold the alignment.</text>
<rect x="432.2" y="879.0" width="84.6" height="40.0" rx="6" fill="white" stroke="#c49a6c" stroke-width="1.0" opacity="0.92"/>
<polygon points="457.6,919.0 465.6,919.0 454.6,927.0" fill="white" stroke="#c49a6c" stroke-width="0.8"/>
<line x1="457.1" y1="919.0" x2="466.1" y2="919.0" stroke="white" stroke-width="1.5"/>
<text x="438.2" y="896.0" font-size="11.0" fill="#c49a6c" font-weight="700">THEODORE</text>
<text x="438.2" y="910.0" font-size="11.0" fill="#333333">Is it right?</text>
<rect x="35.0" y="929.0" width="78.6" height="40.0" rx="6" fill="white" stroke="#c87533" stroke-width="1.0" opacity="0.92"/>
<polygon points="58.6,969.0 66.6,969.0 55.6,977.0" fill="white" stroke="#c87533" stroke-width="0.8"/>
<line x1="58.1" y1="969.0" x2="67.1" y2="969.0" stroke="white" stroke-width="1.5"/>
<text x="41.0" y="946.0" font-size="11.0" fill="#c87533" font-weight="700">WREN</text>
<text x="41.0" y="960.0" font-size="11.0" fill="#333333">It's right.</text>
<text x="510.8" y="823.0" text-anchor="end" font-size="12" font-weight="bold" fill="#888888" opacity="0.6">4</text>
<text x="516.8" y="1165.0" text-anchor="end" font-size="9" fill="#888888" opacity="0.5">MW</text>
<rect x="532.8" y="807.0" width="238.2" height="364.0" rx="2" fill="#f5f0e8" stroke="#2a2a2a" stroke-width="1.5"/>
<path d="M606.1,1069.1 L610.2,998.0 Q614.4,994.0 639.2,994.0 L664.6,994.0 Q689.4,994.0 693.6,998.0 L697.8,1069.1 Z" fill="#b0b0b0" opacity="0.35"/>
<line x1="610.2" y1="1044.5" x2="693.6" y2="1044.5" stroke="#b0b0b0" stroke-width="1" opacity="0.3"/>
<line x1="610.2" y1="998.0" x2="593.6" y2="1038.9" stroke="#b0b0b0" stroke-width="2" opacity="0.3"/>
<line x1="593.6" y1="1038.9" x2="606.1" y2="1063.5" stroke="#b0b0b0" stroke-width="2" opacity="0.3"/>
<line x1="693.6" y1="998.0" x2="710.3" y2="1038.9" stroke="#b0b0b0" stroke-width="2" opacity="0.3"/>
<line x1="710.3" y1="1038.9" x2="697.8" y2="1063.5" stroke="#b0b0b0" stroke-width="2" opacity="0.3"/>
<line x1="651.9" y1="937.0" x2="651.9" y2="994.0" stroke="#b0b0b0" stroke-width="3" opacity="0.35"/>
<circle cx="651.9" cy="905.3" r="31.7" fill="#b0b0b0" opacity="0.4"/>
<rect x="538.8" y="815.0" width="78.0" height="38.0" rx="6" fill="white" stroke="#b0b0b0" stroke-width="1.0" opacity="0.92"/>
<polygon points="562.2,853.0 570.2,853.0 559.2,861.0" fill="white" stroke="#b0b0b0" stroke-width="0.8"/>
<line x1="561.7" y1="853.0" x2="570.7" y2="853.0" stroke="white" stroke-width="1.5"/>
<text x="544.8" y="831.0" font-size="10.0" fill="#b0b0b0" font-weight="700">SABLE</text>
<text x="544.8" y="844.0" font-size="10.0" fill="#333333">Luma, comms?</text>
<rect x="538.8" y="863.0" width="226.2" height="51.0" rx="6" fill="white" stroke="#6a5acd" stroke-width="1.0" opacity="0.92"/>
<polygon points="606.7,914.0 614.7,914.0 603.7,922.0" fill="white" stroke="#6a5acd" stroke-width="0.8"/>
<line x1="606.2" y1="914.0" x2="615.2" y2="914.0" stroke="white" stroke-width="1.5"/>
<text x="544.8" y="879.0" font-size="10.0" fill="#6a5acd" font-weight="700">LUMA</text>
<text x="544.8" y="892.0" font-size="10.0" fill="#333333">Marginal at this range. The relay through</text>
<text x="544.8" y="905.0" font-size="10.0" fill="#333333">Jink will hold if they stay midpoint.</text>
<rect x="538.8" y="924.0" width="204.5" height="38.0" rx="6" fill="white" stroke="#b0b0b0" stroke-width="1.0" opacity="0.92"/>
<polygon points="600.2,962.0 608.2,962.0 597.2,970.0" fill="white" stroke="#b0b0b0" stroke-width="0.8"/>
<line x1="599.7" y1="962.0" x2="608.7" y2="962.0" stroke="white" stroke-width="1.5"/>
<text x="544.8" y="940.0" font-size="10.0" fill="#b0b0b0" font-weight="700">SABLE</text>
<text x="544.8" y="953.0" font-size="10.0" fill="#333333">Good enough. We wait for full dark.</text>
<text x="759.0" y="823.0" text-anchor="end" font-size="12" font-weight="bold" fill="#888888" opacity="0.6">5</text>
<text x="765.0" y="1165.0" text-anchor="end" font-size="9" fill="#888888" opacity="0.5">MED</text>
</svg>