<svg xmlns="http://www.w3.org/2000/svg" viewBox="0 0 800 1200" width="800" height="1200" style="background:#ffffff">
<style>
  text { font-family: "Helvetica Neue", Helvetica, Arial, sans-serif; }
</style>
<text x="400.0" y="22" text-anchor="middle" font-size="16" fill="#888888" font-weight="500">PAGE 19  (4 panels)</text>
<rect x="29.0" y="59.0" width="742.0" height="364.0" rx="2" fill="#f5f0e8" stroke="#2a2a2a" stroke-width="1.5"/>
<path d="M298.1,332.0 Q298.1,281.0 374.5,274.7 L425.5,274.7 Q501.9,281.0 501.9,332.0 L501.9,379.3 L298.1,379.3 Z" fill="#b0b0b0" opacity="0.25"/>
<path d="M377.7,274.7 L400.0,306.5 L422.3,274.7" fill="none" stroke="#b0b0b0" stroke-width="1" opacity="0.3"/>
<circle cx="400.0" cy="204.6" r="63.7" fill="#b0b0b0" opacity="0.35"/>
<path d="M336.3,217.3 Q345.9,274.7 400.0,277.9 Q454.1,274.7 463.7,217.3" fill="none" stroke="#b0b0b0" stroke-width="1.2" opacity="0.3"/>
<path d="M333.1,198.2 Q400.0,121.8 466.9,198.2" fill="none" stroke="#b0b0b0" stroke-width="2" opacity="0.4"/>
<ellipse cx="334.3" cy="207.8" rx="2.5" ry="4" fill="#b0b0b0" opacity="0.25"/>
<ellipse cx="465.7" cy="207.8" rx="2.5" ry="4" fill="#b0b0b0" opacity="0.25"/>
<rect x="35.0" y="67.0" width="671.5" height="40.0" rx="6" fill="white" stroke="#b0b0b0" stroke-width="1.0" opacity="0.92"/>
<polygon points="236.4,107.0 244.4,107.0 233.4,115.0" fill="white" stroke="#b0b0b0" stroke-width="0.8"/>
<line x1="235.9" y1="107.0" x2="244.9" y2="107.0" stroke="white" stroke-width="1.5"/>
<text x="41.0" y="84.0" font-size="11.0" fill="#b0b0b0" font-weight="700">SABLE</text>
<text x="41.0" y="98.0" font-size="11.0" fill="#333333">All units: radio silence. Now. Jink — kill your wing-light and extract. Do not engage. Do not observe. Leave.</text>
<rect x="650.1" y="117.0" width="114.9" height="40.0" rx="6" fill="white" stroke="#b0b0b0" stroke-width="1.0" opacity="0.92"/>
<polygon points="684.6,157.0 692.6,157.0 681.6,165.0" fill="white" stroke="#b0b0b0" stroke-width="0.8"/>
<line x1="684.1" y1="157.0" x2="693.1" y2="157.0" stroke="white" stroke-width="1.5"/>
<text x="656.1" y="134.0" font-size="11.0" fill="#b0b0b0" font-weight="700">SABLE</text>
<text x="656.1" y="148.0" font-size="11.0" fill="#333333">That is an order.</text>
<text x="759.0" y="75.0" text-anchor="end" font-size="12" font-weight="bold" fill="#888888" opacity="0.6">1</text>
<text x="765.0" y="417.0" text-anchor="end" font-size="9" fill="#888888" opacity="0.5">MCU</text>
<rect x="29.0" y="433.0" width="366.0" height="364.0" rx="2" fill="#f5f0e8" stroke="#2a2a2a" stroke-width="1.5"/>
<path d="M153.4,695.1 L158.8,648.6 Q164.1,644.6 195.8,644.6 L228.2,644.6 Q259.9,644.6 265.2,648.6 L270.6,695.1 Z" fill="#c0b8a8" opacity="0.35"/>
<line x1="158.8" y1="670.5" x2="265.2" y2="670.5" stroke="#c0b8a8" stroke-width="1" opacity="0.3"/>
<line x1="158.8" y1="648.6" x2="137.5" y2="689.5" stroke="#c0b8a8" stroke-width="2" opacity="0.3"/>
<line x1="137.5" y1="689.5" x2="153.4" y2="714.1" stroke="#c0b8a8" stroke-width="2" opacity="0.3"/>
<line x1="265.2" y1="648.6" x2="286.5" y2="689.5" stroke="#c0b8a8" stroke-width="2" opacity="0.3"/>
<line x1="286.5" y1="689.5" x2="270.6" y2="714.1" stroke="#c0b8a8" stroke-width="2" opacity="0.3"/>
<line x1="212.0" y1="571.7" x2="212.0" y2="644.6" stroke="#c0b8a8" stroke-width="3" opacity="0.35"/>
<circle cx="212.0" cy="531.3" r="40.5" fill="#c0b8a8" opacity="0.4"/>
<text x="383.0" y="449.0" text-anchor="end" font-size="12" font-weight="bold" fill="#888888" opacity="0.6">2</text>
<text x="389.0" y="791.0" text-anchor="end" font-size="9" fill="#888888" opacity="0.5">MED</text>
<rect x="405.0" y="433.0" width="366.0" height="364.0" rx="2" fill="#f5f0e8" stroke="#2a2a2a" stroke-width="1.5"/>
<line x1="411.0" y1="716.9" x2="765.0" y2="716.9" stroke="#a89888" stroke-width="1.0" opacity="0.5"/>
<ellipse cx="496.5" cy="718.9" rx="11.2" ry="2.7" fill="#a89888" opacity="0.2"/>
<line x1="493.8" y1="701.2" x2="489.8" y2="716.9" stroke="#c0b8a8" stroke-width="2" opacity="0.5"/>
<line x1="499.2" y1="701.2" x2="503.2" y2="716.9" stroke="#c0b8a8" stroke-width="2" opacity="0.5"/>
<line x1="496.5" y1="688.1" x2="496.5" y2="701.2" stroke="#c0b8a8" stroke-width="2.5" opacity="0.6"/>
<line x1="483.0" y1="690.1" x2="510.0" y2="690.1" stroke="#c0b8a8" stroke-width="2" opacity="0.5"/>
<line x1="483.0" y1="690.1" x2="478.5" y2="701.6" stroke="#c0b8a8" stroke-width="1.5" opacity="0.4"/>
<line x1="510.0" y1="690.1" x2="514.5" y2="701.6" stroke="#c0b8a8" stroke-width="1.5" opacity="0.4"/>
<circle cx="496.5" cy="671.9" r="8.1" fill="#c0b8a8" opacity="0.6"/>
<ellipse cx="588.0" cy="718.9" rx="11.2" ry="2.7" fill="#a89888" opacity="0.2"/>
<line x1="585.3" y1="701.2" x2="581.2" y2="716.9" stroke="#c0b8a8" stroke-width="2" opacity="0.5"/>
<line x1="590.7" y1="701.2" x2="594.8" y2="716.9" stroke="#c0b8a8" stroke-width="2" opacity="0.5"/>
<line x1="588.0" y1="688.1" x2="588.0" y2="701.2" stroke="#c0b8a8" stroke-width="2.5" opacity="0.6"/>
<line x1="574.5" y1="690.1" x2="601.5" y2="690.1" stroke="#c0b8a8" stroke-width="2" opacity="0.5"/>
<line x1="574.5" y1="690.1" x2="570.0" y2="701.6" stroke="#c0b8a8" stroke-width="1.5" opacity="0.4"/>
<line x1="601.5" y1="690.1" x2="606.0" y2="701.6" stroke="#c0b8a8" stroke-width="1.5" opacity="0.4"/>
<circle cx="588.0" cy="671.9" r="8.1" fill="#c0b8a8" opacity="0.6"/>
<ellipse cx="679.5" cy="718.9" rx="11.2" ry="2.7" fill="#a89888" opacity="0.2"/>
<line x1="676.8" y1="701.2" x2="672.8" y2="716.9" stroke="#c0b8a8" stroke-width="2" opacity="0.5"/>
<line x1="682.2" y1="701.2" x2="686.2" y2="716.9" stroke="#c0b8a8" stroke-width="2" opacity="0.5"/>
<line x1="679.5" y1="688.1" x2="679.5" y2="701.2" stroke="#c0b8a8" stroke-width="2.5" opacity="0.6"/>
<line x1="666.0" y1="690.1" x2="693.0" y2="690.1" stroke="#c0b8a8" stroke-width="2" opacity="0.5"/>
<line x1="666.0" y1="690.1" x2="661.5" y2="701.6" stroke="#c0b8a8" stroke-width="1.5" opacity="0.4"/>
<line x1="693.0" y1="690.1" x2="697.5" y2="701.6" stroke="#c0b8a8" stroke-width="1.5" opacity="0.4"/>
<circle cx="679.5" cy="671.9" r="8.1" fill="#c0b8a8" opacity="0.6"/>
<rect x="411.0" y="441.0" width="292.8" height="68.0" rx="2" fill="#f5ecd8" stroke="#c8b898" stroke-width="0.8" opacity="0.92"/>
<text x="417.0" y="458.0" font-size="11.0" fill="#5a4a30" font-style="italic" font-weight="500">CAPTION</text>
<text x="417.0" y="472.0" font-size="11.0" fill="#5a4a30" font-style="italic">They ran dark. No wing-light, no scanner glow, no</text>
<text x="417.0" y="486.0" font-size="11.0" fill="#5a4a30" font-style="italic">holographic trace. Four-inch shadows on a stone pier,</text>
<text x="417.0" y="500.0" font-size="11.0" fill="#5a4a30" font-style="italic">moving fast, moving silent.</text>
<rect x="411.0" y="513.0" width="292.8" height="54.0" rx="2" fill="#f5ecd8" stroke="#c8b898" stroke-width="0.8" opacity="0.92"/>
<text x="417.0" y="530.0" font-size="11.0" fill="#5a4a30" font-style="italic" font-weight="500">CAPTION</text>
<text x="417.0" y="544.0" font-size="11.0" fill="#5a4a30" font-style="italic">Running from something across a river. Something that might</text>
<text x="417.0" y="558.0" font-size="11.0" fill="#5a4a30" font-style="italic">not have noticed them. Something that felt like it had.</text>
<text x="759.0" y="449.0" text-anchor="end" font-size="12" font-weight="bold" fill="#888888" opacity="0.6">3</text>
<text x="765.0" y="791.0" text-anchor="end" font-size="9" fill="#888888" opacity="0.5">WIDE</text>
<rect x="29.0" y="807.0" width="742.0" height="364.0" rx="2" fill="#f5f0e8" stroke="#2a2a2a" stroke-width="1.5"/>
<line x1="35.0" y1="1090.9" x2="765.0" y2="1090.9" stroke="#a89888" stroke-width="1.0" opacity="0.5"/>
<ellipse cx="214.5" cy="1092.9" rx="11.2" ry="2.7" fill="#a89888" opacity="0.2"/>
<line x1="211.8" y1="1075.2" x2="207.8" y2="1090.9" stroke="#c0b8a8" stroke-width="2" opacity="0.5"/>
<line x1="217.2" y1="1075.2" x2="221.2" y2="1090.9" stroke="#c0b8a8" stroke-width="2" opacity="0.5"/>
<line x1="214.5" y1="1062.1" x2="214.5" y2="1075.2" stroke="#c0b8a8" stroke-width="2.5" opacity="0.6"/>
<line x1="201.0" y1="1064.1" x2="228.0" y2="1064.1" stroke="#c0b8a8" stroke-width="2" opacity="0.5"/>
<line x1="201.0" y1="1064.1" x2="196.5" y2="1075.6" stroke="#c0b8a8" stroke-width="1.5" opacity="0.4"/>
<line x1="228.0" y1="1064.1" x2="232.5" y2="1075.6" stroke="#c0b8a8" stroke-width="1.5" opacity="0.4"/>
<circle cx="214.5" cy="1045.9" r="8.1" fill="#c0b8a8" opacity="0.6"/>
<ellipse cx="400.0" cy="1092.9" rx="11.2" ry="2.7" fill="#a89888" opacity="0.2"/>
<line x1="397.3" y1="1075.2" x2="393.2" y2="1090.9" stroke="#c0b8a8" stroke-width="2" opacity="0.5"/>
<line x1="402.7" y1="1075.2" x2="406.8" y2="1090.9" stroke="#c0b8a8" stroke-width="2" opacity="0.5"/>
<line x1="400.0" y1="1062.1" x2="400.0" y2="1075.2" stroke="#c0b8a8" stroke-width="2.5" opacity="0.6"/>
<line x1="386.5" y1="1064.1" x2="413.5" y2="1064.1" stroke="#c0b8a8" stroke-width="2" opacity="0.5"/>
<line x1="386.5" y1="1064.1" x2="382.0" y2="1075.6" stroke="#c0b8a8" stroke-width="1.5" opacity="0.4"/>
<line x1="413.5" y1="1064.1" x2="418.0" y2="1075.6" stroke="#c0b8a8" stroke-width="1.5" opacity="0.4"/>
<circle cx="400.0" cy="1045.9" r="8.1" fill="#c0b8a8" opacity="0.6"/>
<ellipse cx="585.5" cy="1092.9" rx="11.2" ry="2.7" fill="#a89888" opacity="0.2"/>
<line x1="582.8" y1="1075.2" x2="578.8" y2="1090.9" stroke="#c0b8a8" stroke-width="2" opacity="0.5"/>
<line x1="588.2" y1="1075.2" x2="592.2" y2="1090.9" stroke="#c0b8a8" stroke-width="2" opacity="0.5"/>
<line x1="585.5" y1="1062.1" x2="585.5" y2="1075.2" stroke="#c0b8a8" stroke-width="2.5" opacity="0.6"/>
<line x1="572.0" y1="1064.1" x2="599.0" y2="1064.1" stroke="#c0b8a8" stroke-width="2" opacity="0.5"/>
<line x1="572.0" y1="1064.1" x2="567.5" y2="1075.6" stroke="#c0b8a8" stroke-width="1.5" opacity="0.4"/>
<line x1="599.0" y1="1064.1" x2="603.5" y2="1075.6" stroke="#c0b8a8" stroke-width="1.5" opacity="0.4"/>
<circle cx="585.5" cy="1045.9" r="8.1" fill="#c0b8a8" opacity="0.6"/>
<rect x="35.0" y="815.0" width="350.8" height="40.0" rx="2" fill="#f5ecd8" stroke="#c8b898" stroke-width="0.8" opacity="0.92"/>
<text x="41.0" y="832.0" font-size="11.0" fill="#5a4a30" font-style="italic" font-weight="500">CAPTION</text>
<text x="41.0" y="846.0" font-size="11.0" fill="#5a4a30" font-style="italic">The far bank was quiet. The fog moved. Nothing else did.</text>
<rect x="35.0" y="859.0" width="181.4" height="40.0" rx="2" fill="#f5ecd8" stroke="#c8b898" stroke-width="0.8" opacity="0.92"/>
<text x="41.0" y="876.0" font-size="11.0" fill="#5a4a30" font-style="italic" font-weight="500">CAPTION</text>
<text x="41.0" y="890.0" font-size="11.0" fill="#5a4a30" font-style="italic">Jink didn't look back again.</text>
<text x="759.0" y="823.0" text-anchor="end" font-size="12" font-weight="bold" fill="#888888" opacity="0.6">4</text>
<text x="765.0" y="1165.0" text-anchor="end" font-size="9" fill="#888888" opacity="0.5">WIDE</text>
</svg>