<svg xmlns="http://www.w3.org/2000/svg" viewBox="0 0 800 1200" width="800" height="1200" style="background:#ffffff">
<style>
  text { font-family: "Helvetica Neue", Helvetica, Arial, sans-serif; }
</style>
<text x="400.0" y="22" text-anchor="middle" font-size="16" fill="#888888" font-weight="500">PAGE 21  (5 panels)</text>
<rect x="29.0" y="59.0" width="493.8" height="364.0" rx="2" fill="#f5f0e8" stroke="#2a2a2a" stroke-width="1.5"/>
<path d="M217.4,321.1 L222.7,274.6 Q228.0,270.6 259.7,270.6 L292.1,270.6 Q323.8,270.6 329.2,274.6 L334.5,321.1 Z" fill="#c0b8a8" opacity="0.35"/>
<line x1="222.7" y1="296.5" x2="329.2" y2="296.5" stroke="#c0b8a8" stroke-width="1" opacity="0.3"/>
<line x1="222.7" y1="274.6" x2="201.4" y2="315.5" stroke="#c0b8a8" stroke-width="2" opacity="0.3"/>
<line x1="201.4" y1="315.5" x2="217.4" y2="340.1" stroke="#c0b8a8" stroke-width="2" opacity="0.3"/>
<line x1="329.2" y1="274.6" x2="350.4" y2="315.5" stroke="#c0b8a8" stroke-width="2" opacity="0.3"/>
<line x1="350.4" y1="315.5" x2="334.5" y2="340.1" stroke="#c0b8a8" stroke-width="2" opacity="0.3"/>
<line x1="275.9" y1="197.7" x2="275.9" y2="270.6" stroke="#c0b8a8" stroke-width="3" opacity="0.35"/>
<circle cx="275.9" cy="157.3" r="40.5" fill="#c0b8a8" opacity="0.4"/>
<rect x="35.0" y="67.0" width="260.1" height="40.0" rx="2" fill="#f5ecd8" stroke="#c8b898" stroke-width="0.8" opacity="0.92"/>
<text x="41.0" y="84.0" font-size="11.0" fill="#5a4a30" font-style="italic" font-weight="500">CAPTION</text>
<text x="41.0" y="98.0" font-size="11.0" fill="#5a4a30" font-style="italic">Jink sat at the wall gap and did not fly.</text>
<text x="510.8" y="75.0" text-anchor="end" font-size="12" font-weight="bold" fill="#888888" opacity="0.6">1</text>
<text x="516.8" y="417.0" text-anchor="end" font-size="9" fill="#888888" opacity="0.5">MED</text>
<rect x="532.8" y="59.0" width="238.2" height="364.0" rx="2" fill="#f5f0e8" stroke="#2a2a2a" stroke-width="1.5"/>
<path d="M583.3,290.3 Q583.3,256.0 634.8,251.8 L669.1,251.8 Q720.5,256.0 720.5,290.3 L720.5,379.3 L583.3,379.3 Z" fill="#c0b8a8" opacity="0.25"/>
<path d="M636.9,251.8 L651.9,273.2 L666.9,251.8" fill="none" stroke="#c0b8a8" stroke-width="1" opacity="0.3"/>
<circle cx="651.9" cy="204.6" r="42.9" fill="#c0b8a8" opacity="0.35"/>
<path d="M609.1,213.2 Q615.5,251.8 651.9,253.9 Q688.4,251.8 694.8,213.2" fill="none" stroke="#c0b8a8" stroke-width="1.2" opacity="0.3"/>
<path d="M606.9,200.3 Q651.9,148.9 696.9,200.3" fill="none" stroke="#c0b8a8" stroke-width="2" opacity="0.4"/>
<ellipse cx="607.1" cy="206.7" rx="2.5" ry="4" fill="#c0b8a8" opacity="0.25"/>
<ellipse cx="696.8" cy="206.7" rx="2.5" ry="4" fill="#c0b8a8" opacity="0.25"/>
<rect x="538.8" y="67.0" width="190.5" height="64.0" rx="2" fill="#f5ecd8" stroke="#c8b898" stroke-width="0.8" opacity="0.92"/>
<text x="544.8" y="83.0" font-size="10.0" fill="#5a4a30" font-style="italic" font-weight="500">CAPTION</text>
<text x="544.8" y="96.0" font-size="10.0" fill="#5a4a30" font-style="italic">Thresh looked at her hands on the rifle.</text>
<text x="544.8" y="109.0" font-size="10.0" fill="#5a4a30" font-style="italic">They were steady. She didn't know when</text>
<text x="544.8" y="122.0" font-size="10.0" fill="#5a4a30" font-style="italic">they had stopped shaking.</text>
<text x="759.0" y="75.0" text-anchor="end" font-size="12" font-weight="bold" fill="#888888" opacity="0.6">2</text>
<text x="765.0" y="417.0" text-anchor="end" font-size="9" fill="#888888" opacity="0.5">MCU</text>
<rect x="29.0" y="433.0" width="742.0" height="364.0" rx="2" fill="#f5f0e8" stroke="#2a2a2a" stroke-width="1.5"/>
<path d="M341.4,695.1 L346.8,648.6 Q352.1,644.6 383.8,644.6 L416.2,644.6 Q447.9,644.6 453.2,648.6 L458.6,695.1 Z" fill="#c0b8a8" opacity="0.35"/>
<line x1="346.8" y1="670.5" x2="453.2" y2="670.5" stroke="#c0b8a8" stroke-width="1" opacity="0.3"/>
<line x1="346.8" y1="648.6" x2="325.5" y2="689.5" stroke="#c0b8a8" stroke-width="2" opacity="0.3"/>
<line x1="325.5" y1="689.5" x2="341.4" y2="714.1" stroke="#c0b8a8" stroke-width="2" opacity="0.3"/>
<line x1="453.2" y1="648.6" x2="474.5" y2="689.5" stroke="#c0b8a8" stroke-width="2" opacity="0.3"/>
<line x1="474.5" y1="689.5" x2="458.6" y2="714.1" stroke="#c0b8a8" stroke-width="2" opacity="0.3"/>
<line x1="400.0" y1="571.7" x2="400.0" y2="644.6" stroke="#c0b8a8" stroke-width="3" opacity="0.35"/>
<circle cx="400.0" cy="531.3" r="40.5" fill="#c0b8a8" opacity="0.4"/>
<text x="759.0" y="449.0" text-anchor="end" font-size="12" font-weight="bold" fill="#888888" opacity="0.6">3</text>
<text x="765.0" y="791.0" text-anchor="end" font-size="9" fill="#888888" opacity="0.5">MED</text>
<rect x="29.0" y="807.0" width="238.2" height="364.0" rx="2" fill="#f5f0e8" stroke="#2a2a2a" stroke-width="1.5"/>
<path d="M79.5,1038.3 Q79.5,1004.0 130.9,999.8 L165.2,999.8 Q216.7,1004.0 216.7,1038.3 L216.7,1127.3 L79.5,1127.3 Z" fill="#c0b8a8" opacity="0.25"/>
<path d="M133.1,999.8 L148.1,1021.2 L163.1,999.8" fill="none" stroke="#c0b8a8" stroke-width="1" opacity="0.3"/>
<circle cx="148.1" cy="952.6" r="42.9" fill="#c0b8a8" opacity="0.35"/>
<path d="M105.2,961.2 Q111.6,999.8 148.1,1001.9 Q184.5,999.8 190.9,961.2" fill="none" stroke="#c0b8a8" stroke-width="1.2" opacity="0.3"/>
<path d="M103.1,948.3 Q148.1,896.9 193.1,948.3" fill="none" stroke="#c0b8a8" stroke-width="2" opacity="0.4"/>
<ellipse cx="103.2" cy="954.7" rx="2.5" ry="4" fill="#c0b8a8" opacity="0.25"/>
<ellipse cx="192.9" cy="954.7" rx="2.5" ry="4" fill="#c0b8a8" opacity="0.25"/>
<rect x="35.0" y="815.0" width="182.5" height="38.0" rx="2" fill="#f5ecd8" stroke="#c8b898" stroke-width="0.8" opacity="0.92"/>
<text x="41.0" y="831.0" font-size="10.0" fill="#5a4a30" font-style="italic" font-weight="500">CAPTION</text>
<text x="41.0" y="844.0" font-size="10.0" fill="#5a4a30" font-style="italic">Wren worked. She always worked.</text>
<text x="255.2" y="823.0" text-anchor="end" font-size="12" font-weight="bold" fill="#888888" opacity="0.6">4</text>
<text x="261.2" y="1165.0" text-anchor="end" font-size="9" fill="#888888" opacity="0.5">MCU</text>
<rect x="277.2" y="807.0" width="493.8" height="364.0" rx="2" fill="#f5f0e8" stroke="#2a2a2a" stroke-width="1.5"/>
<path d="M465.5,1069.1 L470.8,1022.6 Q476.2,1018.6 507.9,1018.6 L540.3,1018.6 Q572.0,1018.6 577.3,1022.6 L582.6,1069.1 Z" fill="#c0b8a8" opacity="0.35"/>
<line x1="470.8" y1="1044.5" x2="577.3" y2="1044.5" stroke="#c0b8a8" stroke-width="1" opacity="0.3"/>
<line x1="470.8" y1="1022.6" x2="449.6" y2="1063.5" stroke="#c0b8a8" stroke-width="2" opacity="0.3"/>
<line x1="449.6" y1="1063.5" x2="465.5" y2="1088.1" stroke="#c0b8a8" stroke-width="2" opacity="0.3"/>
<line x1="577.3" y1="1022.6" x2="598.6" y2="1063.5" stroke="#c0b8a8" stroke-width="2" opacity="0.3"/>
<line x1="598.6" y1="1063.5" x2="582.6" y2="1088.1" stroke="#c0b8a8" stroke-width="2" opacity="0.3"/>
<line x1="524.1" y1="945.7" x2="524.1" y2="1018.6" stroke="#c0b8a8" stroke-width="3" opacity="0.35"/>
<circle cx="524.1" cy="905.3" r="40.5" fill="#c0b8a8" opacity="0.4"/>
<rect x="283.2" y="815.0" width="395.1" height="54.0" rx="2" fill="#f5ecd8" stroke="#c8b898" stroke-width="0.8" opacity="0.92"/>
<text x="289.2" y="832.0" font-size="11.0" fill="#5a4a30" font-style="italic" font-weight="500">CAPTION</text>
<text x="289.2" y="846.0" font-size="11.0" fill="#5a4a30" font-style="italic">And Luma was quiet. She was always quiet. But tonight her quiet had a different</text>
<text x="289.2" y="860.0" font-size="11.0" fill="#5a4a30" font-style="italic">shape.</text>
<text x="759.0" y="823.0" text-anchor="end" font-size="12" font-weight="bold" fill="#888888" opacity="0.6">5</text>
<text x="765.0" y="1165.0" text-anchor="end" font-size="9" fill="#888888" opacity="0.5">MED</text>
</svg>