<svg xmlns="http://www.w3.org/2000/svg" viewBox="0 0 800 1200" width="800" height="1200" style="background:#ffffff">
<style>
  text { font-family: "Helvetica Neue", Helvetica, Arial, sans-serif; }
</style>
<text x="400.0" y="22" text-anchor="middle" font-size="16" fill="#888888" font-weight="500">PAGE 20  (5 panels)</text>
<rect x="29.0" y="59.0" width="742.0" height="364.0" rx="2" fill="#f5f0e8" stroke="#2a2a2a" stroke-width="1.5"/>
<path d="M341.4,321.1 L346.8,274.6 Q352.1,270.6 383.8,270.6 L416.2,270.6 Q447.9,270.6 453.2,274.6 L458.6,321.1 Z" fill="#2e8b57" opacity="0.35"/>
<line x1="346.8" y1="296.5" x2="453.2" y2="296.5" stroke="#2e8b57" stroke-width="1" opacity="0.3"/>
<line x1="346.8" y1="274.6" x2="325.5" y2="315.5" stroke="#2e8b57" stroke-width="2" opacity="0.3"/>
<line x1="325.5" y1="315.5" x2="341.4" y2="340.1" stroke="#2e8b57" stroke-width="2" opacity="0.3"/>
<line x1="453.2" y1="274.6" x2="474.5" y2="315.5" stroke="#2e8b57" stroke-width="2" opacity="0.3"/>
<line x1="474.5" y1="315.5" x2="458.6" y2="340.1" stroke="#2e8b57" stroke-width="2" opacity="0.3"/>
<line x1="400.0" y1="197.7" x2="400.0" y2="270.6" stroke="#2e8b57" stroke-width="3" opacity="0.35"/>
<circle cx="400.0" cy="157.3" r="40.5" fill="#2e8b57" opacity="0.4"/>
<rect x="35.0" y="67.0" width="730.0" height="40.0" rx="6" fill="white" stroke="#2e8b57" stroke-width="1.0" opacity="0.92"/>
<polygon points="254.0,107.0 262.0,107.0 251.0,115.0" fill="white" stroke="#2e8b57" stroke-width="0.8"/>
<line x1="253.5" y1="107.0" x2="262.5" y2="107.0" stroke="white" stroke-width="1.5"/>
<text x="41.0" y="84.0" font-size="11.0" fill="#2e8b57" font-weight="700">JINK</text>
<text x="41.0" y="98.0" font-size="11.0" fill="#333333">We can't just pretend I didn't see it. It was RIGHT THERE. Across the river. Watching the whole time we were operating.</text>
<rect x="123.8" y="117.0" width="641.2" height="40.0" rx="6" fill="white" stroke="#b0b0b0" stroke-width="1.0" opacity="0.92"/>
<polygon points="316.2,157.0 324.2,157.0 313.2,165.0" fill="white" stroke="#b0b0b0" stroke-width="0.8"/>
<line x1="315.7" y1="157.0" x2="324.7" y2="157.0" stroke="white" stroke-width="1.5"/>
<text x="129.8" y="134.0" font-size="11.0" fill="#b0b0b0" font-weight="700">SABLE</text>
<text x="129.8" y="148.0" font-size="11.0" fill="#333333">You saw an unidentified anomaly in fog at three hundred meters in the dark. You did not see it watching.</text>
<rect x="35.0" y="167.0" width="127.0" height="40.0" rx="6" fill="white" stroke="#2e8b57" stroke-width="1.0" opacity="0.92"/>
<polygon points="73.1,207.0 81.1,207.0 70.1,215.0" fill="white" stroke="#2e8b57" stroke-width="0.8"/>
<line x1="72.6" y1="207.0" x2="81.6" y2="207.0" stroke="white" stroke-width="1.5"/>
<text x="41.0" y="184.0" font-size="11.0" fill="#2e8b57" font-weight="700">JINK</text>
<text x="41.0" y="198.0" font-size="11.0" fill="#333333">I know what I felt.</text>
<rect x="232.7" y="217.0" width="532.3" height="40.0" rx="6" fill="white" stroke="#b0b0b0" stroke-width="1.0" opacity="0.92"/>
<polygon points="392.4,257.0 400.4,257.0 389.4,265.0" fill="white" stroke="#b0b0b0" stroke-width="0.8"/>
<line x1="391.9" y1="257.0" x2="400.9" y2="257.0" stroke="white" stroke-width="1.5"/>
<text x="238.7" y="234.0" font-size="11.0" fill="#b0b0b0" font-weight="700">SABLE</text>
<text x="238.7" y="248.0" font-size="11.0" fill="#333333">Feelings are not intelligence. We do not plan operations based on how a sighting felt.</text>
<text x="759.0" y="75.0" text-anchor="end" font-size="12" font-weight="bold" fill="#888888" opacity="0.6">1</text>
<text x="765.0" y="417.0" text-anchor="end" font-size="9" fill="#888888" opacity="0.5">MW</text>
<rect x="29.0" y="433.0" width="178.0" height="364.0" rx="2" fill="#f5f0e8" stroke="#2a2a2a" stroke-width="1.5"/>
<ellipse cx="118.0" cy="585.9" rx="71.2" ry="163.8" fill="#2e8b57" opacity="0.18"/>
<path d="M43.2,528.5 Q118.0,397.5 192.8,528.5" fill="none" stroke="#2e8b57" stroke-width="3" opacity="0.35"/>
<line x1="93.1" y1="549.8" x2="114.4" y2="547.8" stroke="#a89888" stroke-width="1.5" opacity="0.45"/>
<line x1="121.6" y1="547.8" x2="142.9" y2="549.8" stroke="#a89888" stroke-width="1.5" opacity="0.45"/>
<ellipse cx="98.1" cy="566.2" rx="8.5" ry="8.2" fill="#a89888" opacity="0.45"/>
<ellipse cx="137.9" cy="566.2" rx="8.5" ry="8.2" fill="#a89888" opacity="0.45"/>
<line x1="118.0" y1="589.2" x2="118.0" y2="615.4" stroke="#a89888" stroke-width="1.2" opacity="0.35"/>
<path d="M113.7,615.4 Q118.0,618.4 122.3,615.4" fill="none" stroke="#a89888" stroke-width="1" opacity="0.3"/>
<line x1="100.2" y1="638.3" x2="135.8" y2="638.3" stroke="#a89888" stroke-width="1.2" opacity="0.35"/>
<rect x="35.0" y="441.0" width="166.0" height="51.0" rx="6" fill="white" stroke="#2e8b57" stroke-width="1.0" opacity="0.92"/>
<polygon points="84.8,492.0 92.8,492.0 81.8,500.0" fill="white" stroke="#2e8b57" stroke-width="0.8"/>
<line x1="84.3" y1="492.0" x2="93.3" y2="492.0" stroke="white" stroke-width="1.5"/>
<text x="41.0" y="457.0" font-size="10.0" fill="#2e8b57" font-weight="700">JINK</text>
<text x="41.0" y="470.0" font-size="10.0" fill="#333333">Then what do we DO? Wait for</text>
<text x="41.0" y="483.0" font-size="10.0" fill="#333333">it to cross the river?</text>
<text x="195.0" y="449.0" text-anchor="end" font-size="12" font-weight="bold" fill="#888888" opacity="0.6">2</text>
<text x="201.0" y="791.0" text-anchor="end" font-size="9" fill="#888888" opacity="0.5">CU</text>
<rect x="217.0" y="433.0" width="366.0" height="364.0" rx="2" fill="#f5f0e8" stroke="#2a2a2a" stroke-width="1.5"/>
<path d="M341.4,695.1 L346.8,648.6 Q352.1,644.6 383.8,644.6 L416.2,644.6 Q447.9,644.6 453.2,648.6 L458.6,695.1 Z" fill="#b22222" opacity="0.35"/>
<line x1="346.8" y1="670.5" x2="453.2" y2="670.5" stroke="#b22222" stroke-width="1" opacity="0.3"/>
<line x1="346.8" y1="648.6" x2="325.5" y2="689.5" stroke="#b22222" stroke-width="2" opacity="0.3"/>
<line x1="325.5" y1="689.5" x2="341.4" y2="714.1" stroke="#b22222" stroke-width="2" opacity="0.3"/>
<line x1="453.2" y1="648.6" x2="474.5" y2="689.5" stroke="#b22222" stroke-width="2" opacity="0.3"/>
<line x1="474.5" y1="689.5" x2="458.6" y2="714.1" stroke="#b22222" stroke-width="2" opacity="0.3"/>
<line x1="400.0" y1="571.7" x2="400.0" y2="644.6" stroke="#b22222" stroke-width="3" opacity="0.35"/>
<circle cx="400.0" cy="531.3" r="40.5" fill="#b22222" opacity="0.4"/>
<rect x="223.0" y="441.0" width="90.7" height="40.0" rx="6" fill="white" stroke="#b22222" stroke-width="1.0" opacity="0.92"/>
<polygon points="250.2,481.0 258.2,481.0 247.2,489.0" fill="white" stroke="#b22222" stroke-width="0.8"/>
<line x1="249.7" y1="481.0" x2="258.7" y2="481.0" stroke="white" stroke-width="1.5"/>
<text x="229.0" y="458.0" font-size="11.0" fill="#b22222" font-weight="700">THRESH</text>
<text x="229.0" y="472.0" font-size="11.0" fill="#333333">Jink's right.</text>
<rect x="223.0" y="491.0" width="354.0" height="54.0" rx="6" fill="white" stroke="#b22222" stroke-width="1.0" opacity="0.92"/>
<polygon points="329.2,545.0 337.2,545.0 326.2,553.0" fill="white" stroke="#b22222" stroke-width="0.8"/>
<line x1="328.7" y1="545.0" x2="337.7" y2="545.0" stroke="white" stroke-width="1.5"/>
<text x="229.0" y="508.0" font-size="11.0" fill="#b22222" font-weight="700">THRESH</text>
<text x="229.0" y="522.0" font-size="11.0" fill="#333333">If there's a Titan operating in this city, we need to know</text>
<text x="229.0" y="536.0" font-size="11.0" fill="#333333">where. What it's doing. How many.</text>
<rect x="223.0" y="555.0" width="338.7" height="54.0" rx="6" fill="white" stroke="#b22222" stroke-width="1.0" opacity="0.92"/>
<polygon points="324.6,609.0 332.6,609.0 321.6,617.0" fill="white" stroke="#b22222" stroke-width="0.8"/>
<line x1="324.1" y1="609.0" x2="333.1" y2="609.0" stroke="white" stroke-width="1.5"/>
<text x="229.0" y="572.0" font-size="11.0" fill="#b22222" font-weight="700">THRESH</text>
<text x="229.0" y="586.0" font-size="11.0" fill="#333333">Waiting for contact on its terms is the worst tactical</text>
<text x="229.0" y="600.0" font-size="11.0" fill="#333333">option we have.</text>
<text x="571.0" y="449.0" text-anchor="end" font-size="12" font-weight="bold" fill="#888888" opacity="0.6">3</text>
<text x="577.0" y="791.0" text-anchor="end" font-size="9" fill="#888888" opacity="0.5">MED</text>
<rect x="593.0" y="433.0" width="178.0" height="364.0" rx="2" fill="#f5f0e8" stroke="#2a2a2a" stroke-width="1.5"/>
<ellipse cx="682.0" cy="585.9" rx="71.2" ry="163.8" fill="#b0b0b0" opacity="0.18"/>
<path d="M607.2,528.5 Q682.0,397.5 756.8,528.5" fill="none" stroke="#b0b0b0" stroke-width="3" opacity="0.35"/>
<line x1="657.1" y1="549.8" x2="678.4" y2="547.8" stroke="#a89888" stroke-width="1.5" opacity="0.45"/>
<line x1="685.6" y1="547.8" x2="706.9" y2="549.8" stroke="#a89888" stroke-width="1.5" opacity="0.45"/>
<ellipse cx="662.1" cy="566.2" rx="8.5" ry="8.2" fill="#a89888" opacity="0.45"/>
<ellipse cx="701.9" cy="566.2" rx="8.5" ry="8.2" fill="#a89888" opacity="0.45"/>
<line x1="682.0" y1="589.2" x2="682.0" y2="615.4" stroke="#a89888" stroke-width="1.2" opacity="0.35"/>
<path d="M677.7,615.4 Q682.0,618.4 686.3,615.4" fill="none" stroke="#a89888" stroke-width="1" opacity="0.3"/>
<line x1="664.2" y1="638.3" x2="699.8" y2="638.3" stroke="#a89888" stroke-width="1.2" opacity="0.35"/>
<rect x="599.0" y="441.0" width="62.0" height="38.0" rx="6" fill="white" stroke="#b0b0b0" stroke-width="1.0" opacity="0.92"/>
<polygon points="617.6,479.0 625.6,479.0 614.6,487.0" fill="white" stroke="#b0b0b0" stroke-width="0.8"/>
<line x1="617.1" y1="479.0" x2="626.1" y2="479.0" stroke="white" stroke-width="1.5"/>
<text x="605.0" y="457.0" font-size="10.0" fill="#b0b0b0" font-weight="700">SABLE</text>
<text x="605.0" y="470.0" font-size="10.0" fill="#333333">No.</text>
<text x="759.0" y="449.0" text-anchor="end" font-size="12" font-weight="bold" fill="#888888" opacity="0.6">4</text>
<text x="765.0" y="791.0" text-anchor="end" font-size="9" fill="#888888" opacity="0.5">CU</text>
<rect x="29.0" y="807.0" width="742.0" height="364.0" rx="2" fill="#f5f0e8" stroke="#2a2a2a" stroke-width="1.5"/>
<path d="M341.4,1069.1 L346.8,1022.6 Q352.1,1018.6 383.8,1018.6 L416.2,1018.6 Q447.9,1018.6 453.2,1022.6 L458.6,1069.1 Z" fill="#b0b0b0" opacity="0.35"/>
<line x1="346.8" y1="1044.5" x2="453.2" y2="1044.5" stroke="#b0b0b0" stroke-width="1" opacity="0.3"/>
<line x1="346.8" y1="1022.6" x2="325.5" y2="1063.5" stroke="#b0b0b0" stroke-width="2" opacity="0.3"/>
<line x1="325.5" y1="1063.5" x2="341.4" y2="1088.1" stroke="#b0b0b0" stroke-width="2" opacity="0.3"/>
<line x1="453.2" y1="1022.6" x2="474.5" y2="1063.5" stroke="#b0b0b0" stroke-width="2" opacity="0.3"/>
<line x1="474.5" y1="1063.5" x2="458.6" y2="1088.1" stroke="#b0b0b0" stroke-width="2" opacity="0.3"/>
<line x1="400.0" y1="945.7" x2="400.0" y2="1018.6" stroke="#b0b0b0" stroke-width="3" opacity="0.35"/>
<circle cx="400.0" cy="905.3" r="40.5" fill="#b0b0b0" opacity="0.4"/>
<rect x="35.0" y="815.0" width="730.0" height="54.0" rx="6" fill="white" stroke="#b0b0b0" stroke-width="1.0" opacity="0.92"/>
<polygon points="254.0,869.0 262.0,869.0 251.0,877.0" fill="white" stroke="#b0b0b0" stroke-width="0.8"/>
<line x1="253.5" y1="869.0" x2="262.5" y2="869.0" stroke="white" stroke-width="1.5"/>
<text x="41.0" y="832.0" font-size="11.0" fill="#b0b0b0" font-weight="700">SABLE</text>
<text x="41.0" y="846.0" font-size="11.0" fill="#333333">We are not engaging an unknown hostile with five personnel and degraded equipment. We are not crossing that river. We are not</text>
<text x="41.0" y="860.0" font-size="11.0" fill="#333333">exposing this camp.</text>
<rect x="69.3" y="879.0" width="695.7" height="40.0" rx="6" fill="white" stroke="#b0b0b0" stroke-width="1.0" opacity="0.92"/>
<polygon points="278.0,919.0 286.0,919.0 275.0,927.0" fill="white" stroke="#b0b0b0" stroke-width="0.8"/>
<line x1="277.5" y1="919.0" x2="286.5" y2="919.0" stroke="white" stroke-width="1.5"/>
<text x="75.3" y="896.0" font-size="11.0" fill="#b0b0b0" font-weight="700">SABLE</text>
<text x="75.3" y="910.0" font-size="11.0" fill="#333333">The lens mission is complete. Wren integrates the component. We continue the repair timetable. That is the order.</text>
<rect x="35.0" y="929.0" width="72.5" height="40.0" rx="6" fill="white" stroke="#b0b0b0" stroke-width="1.0" opacity="0.92"/>
<polygon points="56.8,969.0 64.8,969.0 53.8,977.0" fill="white" stroke="#b0b0b0" stroke-width="0.8"/>
<line x1="56.2" y1="969.0" x2="65.2" y2="969.0" stroke="white" stroke-width="1.5"/>
<text x="41.0" y="946.0" font-size="11.0" fill="#b0b0b0" font-weight="700">SABLE</text>
<text x="41.0" y="960.0" font-size="11.0" fill="#333333">Dismissed.</text>
<text x="759.0" y="823.0" text-anchor="end" font-size="12" font-weight="bold" fill="#888888" opacity="0.6">5</text>
<text x="765.0" y="1165.0" text-anchor="end" font-size="9" fill="#888888" opacity="0.5">MW</text>
</svg>