<svg xmlns="http://www.w3.org/2000/svg" viewBox="0 0 800 1200" width="800" height="1200" style="background:#ffffff">
<style>
  text { font-family: "Helvetica Neue", Helvetica, Arial, sans-serif; }
</style>
<text x="400.0" y="22" text-anchor="middle" font-size="16" fill="#888888" font-weight="500">PAGE 22  (4 panels)</text>
<rect x="29.0" y="59.0" width="742.0" height="364.0" rx="2" fill="#f5f0e8" stroke="#2a2a2a" stroke-width="1.5"/>
<line x1="35.0" y1="342.9" x2="765.0" y2="342.9" stroke="#a89888" stroke-width="1.0" opacity="0.5"/>
<ellipse cx="400.0" cy="344.9" rx="11.2" ry="2.7" fill="#a89888" opacity="0.2"/>
<line x1="397.3" y1="327.2" x2="393.2" y2="342.9" stroke="#999999" stroke-width="2" opacity="0.5"/>
<line x1="402.7" y1="327.2" x2="406.8" y2="342.9" stroke="#999999" stroke-width="2" opacity="0.5"/>
<line x1="400.0" y1="314.1" x2="400.0" y2="327.2" stroke="#999999" stroke-width="2.5" opacity="0.6"/>
<line x1="386.5" y1="316.1" x2="413.5" y2="316.1" stroke="#999999" stroke-width="2" opacity="0.5"/>
<line x1="386.5" y1="316.1" x2="382.0" y2="327.6" stroke="#999999" stroke-width="1.5" opacity="0.4"/>
<line x1="413.5" y1="316.1" x2="418.0" y2="327.6" stroke="#999999" stroke-width="1.5" opacity="0.4"/>
<circle cx="400.0" cy="297.9" r="8.1" fill="#999999" opacity="0.6"/>
<rect x="35.0" y="67.0" width="695.7" height="40.0" rx="6" fill="white" stroke="#999999" stroke-width="1.0" opacity="0.92"/>
<polygon points="243.7,107.0 251.7,107.0 240.7,115.0" fill="white" stroke="#999999" stroke-width="0.8"/>
<line x1="243.2" y1="107.0" x2="252.2" y2="107.0" stroke="white" stroke-width="1.5"/>
<text x="41.0" y="84.0" font-size="11.0" fill="#999999" font-weight="700">KEEPER</text>
<text x="41.0" y="98.0" font-size="11.0" fill="#333333">I'm telling you, there were lights. Dancing, like. On the gallery railing. Green as — green as nothing I've seen.</text>
<rect x="511.0" y="117.0" width="254.0" height="40.0" rx="6" fill="white" stroke="#999999" stroke-width="1.0" opacity="0.92"/>
<polygon points="587.2,157.0 595.2,157.0 584.2,165.0" fill="white" stroke="#999999" stroke-width="0.8"/>
<line x1="586.7" y1="157.0" x2="595.7" y2="157.0" stroke="white" stroke-width="1.5"/>
<text x="517.0" y="134.0" font-size="11.0" fill="#999999" font-weight="700">KEEPER</text>
<text x="517.0" y="148.0" font-size="11.0" fill="#333333">I was stone sober and I know what I saw.</text>
<text x="759.0" y="75.0" text-anchor="end" font-size="12" font-weight="bold" fill="#888888" opacity="0.6">1</text>
<text x="765.0" y="417.0" text-anchor="end" font-size="9" fill="#888888" opacity="0.5">EST</text>
<rect x="29.0" y="433.0" width="493.8" height="364.0" rx="2" fill="#f5f0e8" stroke="#2a2a2a" stroke-width="1.5"/>
<path d="M217.4,695.1 L222.7,648.6 Q228.0,644.6 259.7,644.6 L292.1,644.6 Q323.8,644.6 329.2,648.6 L334.5,695.1 Z" fill="#999999" opacity="0.35"/>
<line x1="222.7" y1="670.5" x2="329.2" y2="670.5" stroke="#999999" stroke-width="1" opacity="0.3"/>
<line x1="222.7" y1="648.6" x2="201.4" y2="689.5" stroke="#999999" stroke-width="2" opacity="0.3"/>
<line x1="201.4" y1="689.5" x2="217.4" y2="714.1" stroke="#999999" stroke-width="2" opacity="0.3"/>
<line x1="329.2" y1="648.6" x2="350.4" y2="689.5" stroke="#999999" stroke-width="2" opacity="0.3"/>
<line x1="350.4" y1="689.5" x2="334.5" y2="714.1" stroke="#999999" stroke-width="2" opacity="0.3"/>
<line x1="275.9" y1="571.7" x2="275.9" y2="644.6" stroke="#999999" stroke-width="3" opacity="0.35"/>
<circle cx="275.9" cy="531.3" r="40.5" fill="#999999" opacity="0.4"/>
<rect x="35.0" y="441.0" width="459.7" height="40.0" rx="6" fill="white" stroke="#999999" stroke-width="1.0" opacity="0.92"/>
<polygon points="172.9,481.0 180.9,481.0 169.9,489.0" fill="white" stroke="#999999" stroke-width="0.8"/>
<line x1="172.4" y1="481.0" x2="181.4" y2="481.0" stroke="white" stroke-width="1.5"/>
<text x="41.0" y="458.0" font-size="11.0" fill="#999999" font-weight="700">KEEPER</text>
<text x="41.0" y="472.0" font-size="11.0" fill="#333333">Laugh all you like. Something was on that gallery, and it wasn't the wind.</text>
<rect x="123.7" y="491.0" width="393.2" height="40.0" rx="6" fill="white" stroke="#999999" stroke-width="1.0" opacity="0.92"/>
<polygon points="241.6,531.0 249.6,531.0 238.6,539.0" fill="white" stroke="#999999" stroke-width="0.8"/>
<line x1="241.1" y1="531.0" x2="250.1" y2="531.0" stroke="white" stroke-width="1.5"/>
<text x="129.7" y="508.0" font-size="11.0" fill="#999999" font-weight="700">JOURNALIST</text>
<text x="129.7" y="522.0" font-size="11.0" fill="#333333">Green lights... gallery railing... lighthouse keeper reports...</text>
<text x="510.8" y="449.0" text-anchor="end" font-size="12" font-weight="bold" fill="#888888" opacity="0.6">2</text>
<text x="516.8" y="791.0" text-anchor="end" font-size="9" fill="#888888" opacity="0.5">MED</text>
<rect x="532.8" y="433.0" width="238.2" height="364.0" rx="2" fill="#f5f0e8" stroke="#2a2a2a" stroke-width="1.5"/>
<ellipse cx="651.9" cy="585.9" rx="95.3" ry="163.8" fill="#c0b8a8" opacity="0.18"/>
<path d="M551.9,528.5 Q651.9,397.5 751.9,528.5" fill="none" stroke="#c0b8a8" stroke-width="3" opacity="0.35"/>
<line x1="618.6" y1="549.8" x2="647.2" y2="547.8" stroke="#a89888" stroke-width="1.5" opacity="0.45"/>
<line x1="656.7" y1="547.8" x2="685.3" y2="549.8" stroke="#a89888" stroke-width="1.5" opacity="0.45"/>
<ellipse cx="625.2" cy="566.2" rx="11.4" ry="8.2" fill="#a89888" opacity="0.45"/>
<ellipse cx="678.6" cy="566.2" rx="11.4" ry="8.2" fill="#a89888" opacity="0.45"/>
<line x1="651.9" y1="589.2" x2="651.9" y2="615.4" stroke="#a89888" stroke-width="1.2" opacity="0.35"/>
<path d="M646.2,615.4 Q651.9,618.4 657.6,615.4" fill="none" stroke="#a89888" stroke-width="1" opacity="0.3"/>
<line x1="628.1" y1="638.3" x2="675.7" y2="638.3" stroke="#a89888" stroke-width="1.2" opacity="0.35"/>
<text x="759.0" y="449.0" text-anchor="end" font-size="12" font-weight="bold" fill="#888888" opacity="0.6">3</text>
<text x="765.0" y="791.0" text-anchor="end" font-size="9" fill="#888888" opacity="0.5">CU</text>
<rect x="29.0" y="807.0" width="742.0" height="364.0" rx="2" fill="#f5f0e8" stroke="#2a2a2a" stroke-width="1.5"/>
<line x1="35.0" y1="1090.9" x2="765.0" y2="1090.9" stroke="#a89888" stroke-width="1.0" opacity="0.5"/>
<ellipse cx="214.5" cy="1092.9" rx="11.2" ry="2.7" fill="#a89888" opacity="0.2"/>
<line x1="211.8" y1="1075.2" x2="207.8" y2="1090.9" stroke="#c0b8a8" stroke-width="2" opacity="0.5"/>
<line x1="217.2" y1="1075.2" x2="221.2" y2="1090.9" stroke="#c0b8a8" stroke-width="2" opacity="0.5"/>
<line x1="214.5" y1="1062.1" x2="214.5" y2="1075.2" stroke="#c0b8a8" stroke-width="2.5" opacity="0.6"/>
<line x1="201.0" y1="1064.1" x2="228.0" y2="1064.1" stroke="#c0b8a8" stroke-width="2" opacity="0.5"/>
<line x1="201.0" y1="1064.1" x2="196.5" y2="1075.6" stroke="#c0b8a8" stroke-width="1.5" opacity="0.4"/>
<line x1="228.0" y1="1064.1" x2="232.5" y2="1075.6" stroke="#c0b8a8" stroke-width="1.5" opacity="0.4"/>
<circle cx="214.5" cy="1045.9" r="8.1" fill="#c0b8a8" opacity="0.6"/>
<ellipse cx="400.0" cy="1092.9" rx="11.2" ry="2.7" fill="#a89888" opacity="0.2"/>
<line x1="397.3" y1="1075.2" x2="393.2" y2="1090.9" stroke="#c0b8a8" stroke-width="2" opacity="0.5"/>
<line x1="402.7" y1="1075.2" x2="406.8" y2="1090.9" stroke="#c0b8a8" stroke-width="2" opacity="0.5"/>
<line x1="400.0" y1="1062.1" x2="400.0" y2="1075.2" stroke="#c0b8a8" stroke-width="2.5" opacity="0.6"/>
<line x1="386.5" y1="1064.1" x2="413.5" y2="1064.1" stroke="#c0b8a8" stroke-width="2" opacity="0.5"/>
<line x1="386.5" y1="1064.1" x2="382.0" y2="1075.6" stroke="#c0b8a8" stroke-width="1.5" opacity="0.4"/>
<line x1="413.5" y1="1064.1" x2="418.0" y2="1075.6" stroke="#c0b8a8" stroke-width="1.5" opacity="0.4"/>
<circle cx="400.0" cy="1045.9" r="8.1" fill="#c0b8a8" opacity="0.6"/>
<ellipse cx="585.5" cy="1092.9" rx="11.2" ry="2.7" fill="#a89888" opacity="0.2"/>
<line x1="582.8" y1="1075.2" x2="578.8" y2="1090.9" stroke="#c0b8a8" stroke-width="2" opacity="0.5"/>
<line x1="588.2" y1="1075.2" x2="592.2" y2="1090.9" stroke="#c0b8a8" stroke-width="2" opacity="0.5"/>
<line x1="585.5" y1="1062.1" x2="585.5" y2="1075.2" stroke="#c0b8a8" stroke-width="2.5" opacity="0.6"/>
<line x1="572.0" y1="1064.1" x2="599.0" y2="1064.1" stroke="#c0b8a8" stroke-width="2" opacity="0.5"/>
<line x1="572.0" y1="1064.1" x2="567.5" y2="1075.6" stroke="#c0b8a8" stroke-width="1.5" opacity="0.4"/>
<line x1="599.0" y1="1064.1" x2="603.5" y2="1075.6" stroke="#c0b8a8" stroke-width="1.5" opacity="0.4"/>
<circle cx="585.5" cy="1045.9" r="8.1" fill="#c0b8a8" opacity="0.6"/>
<rect x="35.0" y="815.0" width="538.4" height="40.0" rx="2" fill="#f5ecd8" stroke="#c8b898" stroke-width="0.8" opacity="0.92"/>
<text x="41.0" y="832.0" font-size="11.0" fill="#5a4a30" font-style="italic" font-weight="500">CAPTION</text>
<text x="41.0" y="846.0" font-size="11.0" fill="#5a4a30" font-style="italic">The keeper reported dancing lights. The harbor men laughed. A journalist wrote it down.</text>
<rect x="35.0" y="859.0" width="593.6" height="40.0" rx="2" fill="#f5ecd8" stroke="#c8b898" stroke-width="0.8" opacity="0.92"/>
<text x="41.0" y="876.0" font-size="11.0" fill="#5a4a30" font-style="italic" font-weight="500">CAPTION</text>
<text x="41.0" y="890.0" font-size="11.0" fill="#5a4a30" font-style="italic">Another story. Another witness. The folklore accumulated, and the truth hid inside it like light inside a lens.</text>
<text x="759.0" y="823.0" text-anchor="end" font-size="12" font-weight="bold" fill="#888888" opacity="0.6">4</text>
<text x="765.0" y="1165.0" text-anchor="end" font-size="9" fill="#888888" opacity="0.5">WIDE</text>
</svg>