<svg xmlns="http://www.w3.org/2000/svg" viewBox="0 0 800 1200" width="800" height="1200" style="background:#ffffff">
<style>
  text { font-family: "Helvetica Neue", Helvetica, Arial, sans-serif; }
</style>
<text x="400.0" y="22" text-anchor="middle" font-size="16" fill="#888888" font-weight="500">PAGE 18  (5 panels)</text>
<rect x="29.0" y="59.0" width="742.0" height="150.3" rx="2" fill="#f5f0e8" stroke="#2a2a2a" stroke-width="1.5"/>
<ellipse cx="400.0" cy="122.1" rx="47.3" ry="67.6" fill="#c0b8a8" opacity="0.18"/>
<path d="M350.3,98.5 Q400.0,44.3 449.7,98.5" fill="none" stroke="#c0b8a8" stroke-width="3" opacity="0.35"/>
<line x1="383.4" y1="107.2" x2="397.6" y2="105.2" stroke="#a89888" stroke-width="1.5" opacity="0.45"/>
<line x1="402.4" y1="105.2" x2="416.6" y2="107.2" stroke="#a89888" stroke-width="1.5" opacity="0.45"/>
<ellipse cx="386.7" cy="114.0" rx="5.7" ry="3.4" fill="#a89888" opacity="0.45"/>
<ellipse cx="413.3" cy="114.0" rx="5.7" ry="3.4" fill="#a89888" opacity="0.45"/>
<line x1="400.0" y1="123.5" x2="400.0" y2="134.3" stroke="#a89888" stroke-width="1.2" opacity="0.35"/>
<path d="M397.2,134.3 Q400.0,137.3 402.8,134.3" fill="none" stroke="#a89888" stroke-width="1" opacity="0.3"/>
<line x1="388.2" y1="143.8" x2="411.8" y2="143.8" stroke="#a89888" stroke-width="1.2" opacity="0.35"/>
<text x="759.0" y="75.0" text-anchor="end" font-size="12" font-weight="bold" fill="#888888" opacity="0.6">1</text>
<text x="765.0" y="203.3" text-anchor="end" font-size="9" fill="#888888" opacity="0.5">ECU</text>
<rect x="29.0" y="219.3" width="493.8" height="310.6" rx="2" fill="#f5f0e8" stroke="#2a2a2a" stroke-width="1.5"/>
<path d="M226.0,442.9 L230.5,403.8 Q235.0,399.8 262.1,399.8 L289.7,399.8 Q316.8,399.8 321.3,403.8 L325.9,442.9 Z" fill="#b0b0b0" opacity="0.35"/>
<line x1="230.5" y1="421.9" x2="321.3" y2="421.9" stroke="#b0b0b0" stroke-width="1" opacity="0.3"/>
<line x1="230.5" y1="403.8" x2="212.3" y2="438.7" stroke="#b0b0b0" stroke-width="2" opacity="0.3"/>
<line x1="212.3" y1="438.7" x2="226.0" y2="459.7" stroke="#b0b0b0" stroke-width="2" opacity="0.3"/>
<line x1="321.3" y1="403.8" x2="339.5" y2="438.7" stroke="#b0b0b0" stroke-width="2" opacity="0.3"/>
<line x1="339.5" y1="438.7" x2="325.9" y2="459.7" stroke="#b0b0b0" stroke-width="2" opacity="0.3"/>
<line x1="275.9" y1="337.7" x2="275.9" y2="399.8" stroke="#b0b0b0" stroke-width="3" opacity="0.35"/>
<circle cx="275.9" cy="303.1" r="34.5" fill="#b0b0b0" opacity="0.4"/>
<rect x="35.0" y="227.3" width="217.7" height="40.0" rx="6" fill="white" stroke="#b0b0b0" stroke-width="1.0" opacity="0.92"/>
<polygon points="100.3,267.3 108.3,267.3 97.3,275.3" fill="white" stroke="#b0b0b0" stroke-width="0.8"/>
<line x1="99.8" y1="267.3" x2="108.8" y2="267.3" stroke="white" stroke-width="1.5"/>
<text x="41.0" y="244.3" font-size="11.0" fill="#b0b0b0" font-weight="700">SABLE</text>
<text x="41.0" y="258.3" font-size="11.0" fill="#333333">Jink. Report. What are you seeing?</text>
<rect x="190.2" y="277.3" width="326.6" height="40.0" rx="6" fill="white" stroke="#2e8b57" stroke-width="1.0" opacity="0.92"/>
<polygon points="288.2,317.3 296.2,317.3 285.2,325.3" fill="white" stroke="#2e8b57" stroke-width="0.8"/>
<line x1="287.7" y1="317.3" x2="296.7" y2="317.3" stroke="white" stroke-width="1.5"/>
<text x="196.2" y="294.3" font-size="11.0" fill="#2e8b57" font-weight="700">JINK</text>
<text x="196.2" y="308.3" font-size="11.0" fill="#333333">Something. On the far bank. It's big. It's... wrong.</text>
<text x="510.8" y="235.3" text-anchor="end" font-size="12" font-weight="bold" fill="#888888" opacity="0.6">2</text>
<text x="516.8" y="523.9" text-anchor="end" font-size="9" fill="#888888" opacity="0.5">MED</text>
<rect x="532.8" y="219.3" width="238.2" height="310.6" rx="2" fill="#f5f0e8" stroke="#2a2a2a" stroke-width="1.5"/>
<ellipse cx="651.9" cy="349.7" rx="95.3" ry="139.8" fill="#c0b8a8" opacity="0.18"/>
<path d="M551.9,300.8 Q651.9,189.0 751.9,300.8" fill="none" stroke="#c0b8a8" stroke-width="3" opacity="0.35"/>
<line x1="618.6" y1="319.0" x2="647.2" y2="317.0" stroke="#a89888" stroke-width="1.5" opacity="0.45"/>
<line x1="656.7" y1="317.0" x2="685.3" y2="319.0" stroke="#a89888" stroke-width="1.5" opacity="0.45"/>
<ellipse cx="625.2" cy="333.0" rx="11.4" ry="7.0" fill="#a89888" opacity="0.45"/>
<ellipse cx="678.6" cy="333.0" rx="11.4" ry="7.0" fill="#a89888" opacity="0.45"/>
<line x1="651.9" y1="352.5" x2="651.9" y2="374.9" stroke="#a89888" stroke-width="1.2" opacity="0.35"/>
<path d="M646.2,374.9 Q651.9,377.9 657.6,374.9" fill="none" stroke="#a89888" stroke-width="1" opacity="0.3"/>
<line x1="628.1" y1="394.4" x2="675.7" y2="394.4" stroke="#a89888" stroke-width="1.2" opacity="0.35"/>
<text x="759.0" y="235.3" text-anchor="end" font-size="12" font-weight="bold" fill="#888888" opacity="0.6">3</text>
<text x="765.0" y="523.9" text-anchor="end" font-size="9" fill="#888888" opacity="0.5">CU</text>
<rect x="29.0" y="539.9" width="742.0" height="310.6" rx="2" fill="#f5f0e8" stroke="#2a2a2a" stroke-width="1.5"/>
<path d="M313.0,772.8 Q313.0,729.3 378.3,723.9 L421.7,723.9 Q487.0,729.3 487.0,772.8 L487.0,813.2 L313.0,813.2 Z" fill="#2e8b57" opacity="0.25"/>
<path d="M381.0,723.9 L400.0,751.0 L419.0,723.9" fill="none" stroke="#2e8b57" stroke-width="1" opacity="0.3"/>
<circle cx="400.0" cy="664.1" r="54.3" fill="#2e8b57" opacity="0.35"/>
<path d="M345.6,675.0 Q353.8,723.9 400.0,726.6 Q446.2,723.9 454.4,675.0" fill="none" stroke="#2e8b57" stroke-width="1.2" opacity="0.3"/>
<path d="M342.9,658.7 Q400.0,593.4 457.1,658.7" fill="none" stroke="#2e8b57" stroke-width="2" opacity="0.4"/>
<ellipse cx="343.6" cy="666.8" rx="2.5" ry="4" fill="#2e8b57" opacity="0.25"/>
<ellipse cx="456.4" cy="666.8" rx="2.5" ry="4" fill="#2e8b57" opacity="0.25"/>
<rect x="35.0" y="547.9" width="544.4" height="40.0" rx="6" fill="white" stroke="#2e8b57" stroke-width="1.0" opacity="0.92"/>
<polygon points="198.3,587.9 206.3,587.9 195.3,595.9" fill="white" stroke="#2e8b57" stroke-width="0.8"/>
<line x1="197.8" y1="587.9" x2="206.8" y2="587.9" stroke="white" stroke-width="1.5"/>
<text x="41.0" y="564.9" font-size="11.0" fill="#2e8b57" font-weight="700">JINK</text>
<text x="41.0" y="578.9" font-size="11.0" fill="#333333">It's not invisible. It's... the fog is wrong where it is. Like the light can't touch it.</text>
<rect x="154.0" y="597.9" width="611.0" height="40.0" rx="6" fill="white" stroke="#2e8b57" stroke-width="1.0" opacity="0.92"/>
<polygon points="337.3,637.9 345.3,637.9 334.3,645.9" fill="white" stroke="#2e8b57" stroke-width="0.8"/>
<line x1="336.8" y1="637.9" x2="345.8" y2="637.9" stroke="white" stroke-width="1.5"/>
<text x="160.0" y="614.9" font-size="11.0" fill="#2e8b57" font-weight="700">JINK</text>
<text x="160.0" y="628.9" font-size="11.0" fill="#333333">It moved. I don't know how. It was there, and then it was somewhere else, and I didn't see it move.</text>
<rect x="35.0" y="647.9" width="254.0" height="40.0" rx="6" fill="white" stroke="#2e8b57" stroke-width="1.0" opacity="0.92"/>
<polygon points="111.2,687.9 119.2,687.9 108.2,695.9" fill="white" stroke="#2e8b57" stroke-width="0.8"/>
<line x1="110.7" y1="687.9" x2="119.7" y2="687.9" stroke="white" stroke-width="1.5"/>
<text x="41.0" y="664.9" font-size="11.0" fill="#2e8b57" font-weight="700">JINK</text>
<text x="41.0" y="678.9" font-size="11.0" fill="#333333">Sable, it feels like it's looking at me.</text>
<text x="759.0" y="555.9" text-anchor="end" font-size="12" font-weight="bold" fill="#888888" opacity="0.6">4</text>
<text x="765.0" y="844.4" text-anchor="end" font-size="9" fill="#888888" opacity="0.5">MCU</text>
<rect x="29.0" y="860.4" width="742.0" height="310.6" rx="2" fill="#f5f0e8" stroke="#2a2a2a" stroke-width="1.5"/>
<path d="M350.0,1084.0 L354.6,1044.9 Q359.1,1040.9 386.2,1040.9 L413.8,1040.9 Q440.9,1040.9 445.4,1044.9 L450.0,1084.0 Z" fill="#c0b8a8" opacity="0.35"/>
<line x1="354.6" y1="1063.1" x2="445.4" y2="1063.1" stroke="#c0b8a8" stroke-width="1" opacity="0.3"/>
<line x1="354.6" y1="1044.9" x2="336.4" y2="1079.9" stroke="#c0b8a8" stroke-width="2" opacity="0.3"/>
<line x1="336.4" y1="1079.9" x2="350.0" y2="1100.8" stroke="#c0b8a8" stroke-width="2" opacity="0.3"/>
<line x1="445.4" y1="1044.9" x2="463.6" y2="1079.9" stroke="#c0b8a8" stroke-width="2" opacity="0.3"/>
<line x1="463.6" y1="1079.9" x2="450.0" y2="1100.8" stroke="#c0b8a8" stroke-width="2" opacity="0.3"/>
<line x1="400.0" y1="978.8" x2="400.0" y2="1040.9" stroke="#c0b8a8" stroke-width="3" opacity="0.35"/>
<circle cx="400.0" cy="944.3" r="34.5" fill="#c0b8a8" opacity="0.4"/>
<rect x="35.0" y="868.4" width="593.6" height="40.0" rx="2" fill="#f5ecd8" stroke="#c8b898" stroke-width="0.8" opacity="0.92"/>
<text x="41.0" y="885.4" font-size="11.0" fill="#5a4a30" font-style="italic" font-weight="500">CAPTION</text>
<text x="41.0" y="899.4" font-size="11.0" fill="#5a4a30" font-style="italic">The keeper wrote about the tides. The wind. The 10:40 barge. He did not write about the shape on the far bank.</text>
<rect x="35.0" y="912.4" width="229.8" height="40.0" rx="2" fill="#f5ecd8" stroke="#c8b898" stroke-width="0.8" opacity="0.92"/>
<text x="41.0" y="929.4" font-size="11.0" fill="#5a4a30" font-style="italic" font-weight="500">CAPTION</text>
<text x="41.0" y="943.4" font-size="11.0" fill="#5a4a30" font-style="italic">He had not seen it. No one ever did.</text>
<text x="759.0" y="876.4" text-anchor="end" font-size="12" font-weight="bold" fill="#888888" opacity="0.6">5</text>
<text x="765.0" y="1165.0" text-anchor="end" font-size="9" fill="#888888" opacity="0.5">MW</text>
</svg>