<svg xmlns="http://www.w3.org/2000/svg" viewBox="0 0 800 1200" width="800" height="1200" style="background:#ffffff">
<style>
  text { font-family: "Helvetica Neue", Helvetica, Arial, sans-serif; }
</style>
<text x="400.0" y="22" text-anchor="middle" font-size="16" fill="#888888" font-weight="500">PAGE 8  (5 panels)</text>
<rect x="29.0" y="59.0" width="742.0" height="364.0" rx="2" fill="#f5f0e8" stroke="#2a2a2a" stroke-width="1.5"/>
<line x1="35.0" y1="342.9" x2="765.0" y2="342.9" stroke="#a89888" stroke-width="1.0" opacity="0.5"/>
<ellipse cx="276.3" cy="344.9" rx="11.2" ry="2.7" fill="#a89888" opacity="0.2"/>
<line x1="273.6" y1="327.2" x2="269.6" y2="342.9" stroke="#b22222" stroke-width="2" opacity="0.5"/>
<line x1="279.0" y1="327.2" x2="283.1" y2="342.9" stroke="#b22222" stroke-width="2" opacity="0.5"/>
<line x1="276.3" y1="314.1" x2="276.3" y2="327.2" stroke="#b22222" stroke-width="2.5" opacity="0.6"/>
<line x1="262.8" y1="316.1" x2="289.8" y2="316.1" stroke="#b22222" stroke-width="2" opacity="0.5"/>
<line x1="262.8" y1="316.1" x2="258.3" y2="327.6" stroke="#b22222" stroke-width="1.5" opacity="0.4"/>
<line x1="289.8" y1="316.1" x2="294.3" y2="327.6" stroke="#b22222" stroke-width="1.5" opacity="0.4"/>
<circle cx="276.3" cy="297.9" r="8.1" fill="#b22222" opacity="0.6"/>
<ellipse cx="523.7" cy="344.9" rx="11.2" ry="2.7" fill="#a89888" opacity="0.2"/>
<line x1="521.0" y1="327.2" x2="516.9" y2="342.9" stroke="#6a5acd" stroke-width="2" opacity="0.5"/>
<line x1="526.4" y1="327.2" x2="530.4" y2="342.9" stroke="#6a5acd" stroke-width="2" opacity="0.5"/>
<line x1="523.7" y1="314.1" x2="523.7" y2="327.2" stroke="#6a5acd" stroke-width="2.5" opacity="0.6"/>
<line x1="510.2" y1="316.1" x2="537.2" y2="316.1" stroke="#6a5acd" stroke-width="2" opacity="0.5"/>
<line x1="510.2" y1="316.1" x2="505.7" y2="327.6" stroke="#6a5acd" stroke-width="1.5" opacity="0.4"/>
<line x1="537.2" y1="316.1" x2="541.7" y2="327.6" stroke="#6a5acd" stroke-width="1.5" opacity="0.4"/>
<circle cx="523.7" cy="297.9" r="8.1" fill="#6a5acd" opacity="0.6"/>
<rect x="35.0" y="67.0" width="399.2" height="40.0" rx="6" fill="white" stroke="#b22222" stroke-width="1.0" opacity="0.92"/>
<polygon points="154.8,107.0 162.8,107.0 151.8,115.0" fill="white" stroke="#b22222" stroke-width="0.8"/>
<line x1="154.3" y1="107.0" x2="163.3" y2="107.0" stroke="white" stroke-width="1.5"/>
<text x="41.0" y="84.0" font-size="11.0" fill="#b22222" font-weight="700">THRESH</text>
<text x="41.0" y="98.0" font-size="11.0" fill="#333333">Contact. Dockworker, crossing the quay. He's right on top of me.</text>
<rect x="541.2" y="117.0" width="223.8" height="40.0" rx="6" fill="white" stroke="#6a5acd" stroke-width="1.0" opacity="0.92"/>
<polygon points="608.4,157.0 616.4,157.0 605.4,165.0" fill="white" stroke="#6a5acd" stroke-width="0.8"/>
<line x1="607.9" y1="157.0" x2="616.9" y2="157.0" stroke="white" stroke-width="1.5"/>
<text x="547.2" y="134.0" font-size="11.0" fill="#6a5acd" font-weight="700">LUMA</text>
<text x="547.2" y="148.0" font-size="11.0" fill="#333333">Thresh — find cover. Anything. Now.</text>
<text x="759.0" y="75.0" text-anchor="end" font-size="12" font-weight="bold" fill="#888888" opacity="0.6">1</text>
<text x="765.0" y="417.0" text-anchor="end" font-size="9" fill="#888888" opacity="0.5">WIDE</text>
<rect x="29.0" y="433.0" width="493.8" height="364.0" rx="2" fill="#f5f0e8" stroke="#2a2a2a" stroke-width="1.5"/>
<ellipse cx="275.9" cy="585.9" rx="114.7" ry="163.8" fill="#c0b8a8" opacity="0.18"/>
<path d="M155.5,528.5 Q275.9,397.5 396.3,528.5" fill="none" stroke="#c0b8a8" stroke-width="3" opacity="0.35"/>
<line x1="235.8" y1="549.8" x2="270.2" y2="547.8" stroke="#a89888" stroke-width="1.5" opacity="0.45"/>
<line x1="281.7" y1="547.8" x2="316.1" y2="549.8" stroke="#a89888" stroke-width="1.5" opacity="0.45"/>
<ellipse cx="243.8" cy="566.2" rx="13.8" ry="8.2" fill="#a89888" opacity="0.45"/>
<ellipse cx="308.0" cy="566.2" rx="13.8" ry="8.2" fill="#a89888" opacity="0.45"/>
<line x1="275.9" y1="589.2" x2="275.9" y2="615.4" stroke="#a89888" stroke-width="1.2" opacity="0.35"/>
<path d="M269.0,615.4 Q275.9,618.4 282.8,615.4" fill="none" stroke="#a89888" stroke-width="1" opacity="0.3"/>
<line x1="247.3" y1="638.3" x2="304.6" y2="638.3" stroke="#a89888" stroke-width="1.2" opacity="0.35"/>
<text x="510.8" y="449.0" text-anchor="end" font-size="12" font-weight="bold" fill="#888888" opacity="0.6">2</text>
<text x="516.8" y="791.0" text-anchor="end" font-size="9" fill="#888888" opacity="0.5">ECU</text>
<rect x="532.8" y="433.0" width="238.2" height="364.0" rx="2" fill="#f5f0e8" stroke="#2a2a2a" stroke-width="1.5"/>
<ellipse cx="651.9" cy="585.9" rx="95.3" ry="163.8" fill="#b22222" opacity="0.18"/>
<path d="M551.9,528.5 Q651.9,397.5 751.9,528.5" fill="none" stroke="#b22222" stroke-width="3" opacity="0.35"/>
<line x1="618.6" y1="549.8" x2="647.2" y2="547.8" stroke="#a89888" stroke-width="1.5" opacity="0.45"/>
<line x1="656.7" y1="547.8" x2="685.3" y2="549.8" stroke="#a89888" stroke-width="1.5" opacity="0.45"/>
<ellipse cx="625.2" cy="566.2" rx="11.4" ry="8.2" fill="#a89888" opacity="0.45"/>
<ellipse cx="678.6" cy="566.2" rx="11.4" ry="8.2" fill="#a89888" opacity="0.45"/>
<line x1="651.9" y1="589.2" x2="651.9" y2="615.4" stroke="#a89888" stroke-width="1.2" opacity="0.35"/>
<path d="M646.2,615.4 Q651.9,618.4 657.6,615.4" fill="none" stroke="#a89888" stroke-width="1" opacity="0.3"/>
<line x1="628.1" y1="638.3" x2="675.7" y2="638.3" stroke="#a89888" stroke-width="1.2" opacity="0.35"/>
<rect x="538.8" y="441.0" width="122.0" height="38.0" rx="6" fill="white" stroke="#b22222" stroke-width="1.0" opacity="0.92"/>
<polygon points="575.4,479.0 583.4,479.0 572.4,487.0" fill="white" stroke="#b22222" stroke-width="0.8"/>
<line x1="574.9" y1="479.0" x2="583.9" y2="479.0" stroke="white" stroke-width="1.5"/>
<text x="544.8" y="457.0" font-size="10.0" fill="#b22222" font-weight="700">THRESH</text>
<text x="544.8" y="470.0" font-size="10.0" fill="#333333">...clear. He's past.</text>
<rect x="538.8" y="489.0" width="221.0" height="38.0" rx="6" fill="white" stroke="#6a5acd" stroke-width="1.0" opacity="0.92"/>
<polygon points="605.1,527.0 613.1,527.0 602.1,535.0" fill="white" stroke="#6a5acd" stroke-width="0.8"/>
<line x1="604.6" y1="527.0" x2="613.6" y2="527.0" stroke="white" stroke-width="1.5"/>
<text x="544.8" y="505.0" font-size="10.0" fill="#6a5acd" font-weight="700">LUMA</text>
<text x="544.8" y="518.0" font-size="10.0" fill="#333333">I'm coming to you. Stay where you are.</text>
<text x="759.0" y="449.0" text-anchor="end" font-size="12" font-weight="bold" fill="#888888" opacity="0.6">3</text>
<text x="765.0" y="791.0" text-anchor="end" font-size="9" fill="#888888" opacity="0.5">CU</text>
<rect x="29.0" y="807.0" width="238.2" height="364.0" rx="2" fill="#f5f0e8" stroke="#2a2a2a" stroke-width="1.5"/>
<path d="M102.2,1069.1 L106.4,998.0 Q110.6,994.0 135.4,994.0 L160.8,994.0 Q185.6,994.0 189.8,998.0 L193.9,1069.1 Z" fill="#c0b8a8" opacity="0.35"/>
<line x1="106.4" y1="1044.5" x2="189.8" y2="1044.5" stroke="#c0b8a8" stroke-width="1" opacity="0.3"/>
<line x1="106.4" y1="998.0" x2="89.7" y2="1038.9" stroke="#c0b8a8" stroke-width="2" opacity="0.3"/>
<line x1="89.7" y1="1038.9" x2="102.2" y2="1063.5" stroke="#c0b8a8" stroke-width="2" opacity="0.3"/>
<line x1="189.8" y1="998.0" x2="206.4" y2="1038.9" stroke="#c0b8a8" stroke-width="2" opacity="0.3"/>
<line x1="206.4" y1="1038.9" x2="193.9" y2="1063.5" stroke="#c0b8a8" stroke-width="2" opacity="0.3"/>
<line x1="148.1" y1="937.0" x2="148.1" y2="994.0" stroke="#c0b8a8" stroke-width="3" opacity="0.35"/>
<circle cx="148.1" cy="905.3" r="31.7" fill="#c0b8a8" opacity="0.4"/>
<text x="255.2" y="823.0" text-anchor="end" font-size="12" font-weight="bold" fill="#888888" opacity="0.6">4</text>
<text x="261.2" y="1165.0" text-anchor="end" font-size="9" fill="#888888" opacity="0.5">MED</text>
<rect x="277.2" y="807.0" width="493.8" height="364.0" rx="2" fill="#f5f0e8" stroke="#2a2a2a" stroke-width="1.5"/>
<path d="M465.5,1069.1 L470.8,1022.6 Q476.2,1018.6 507.9,1018.6 L540.3,1018.6 Q572.0,1018.6 577.3,1022.6 L582.6,1069.1 Z" fill="#6a5acd" opacity="0.35"/>
<line x1="470.8" y1="1044.5" x2="577.3" y2="1044.5" stroke="#6a5acd" stroke-width="1" opacity="0.3"/>
<line x1="470.8" y1="1022.6" x2="449.6" y2="1063.5" stroke="#6a5acd" stroke-width="2" opacity="0.3"/>
<line x1="449.6" y1="1063.5" x2="465.5" y2="1088.1" stroke="#6a5acd" stroke-width="2" opacity="0.3"/>
<line x1="577.3" y1="1022.6" x2="598.6" y2="1063.5" stroke="#6a5acd" stroke-width="2" opacity="0.3"/>
<line x1="598.6" y1="1063.5" x2="582.6" y2="1088.1" stroke="#6a5acd" stroke-width="2" opacity="0.3"/>
<line x1="524.1" y1="945.7" x2="524.1" y2="1018.6" stroke="#6a5acd" stroke-width="3" opacity="0.35"/>
<circle cx="524.1" cy="905.3" r="40.5" fill="#6a5acd" opacity="0.4"/>
<rect x="283.2" y="815.0" width="417.4" height="40.0" rx="6" fill="white" stroke="#6a5acd" stroke-width="1.0" opacity="0.92"/>
<polygon points="408.4,855.0 416.4,855.0 405.4,863.0" fill="white" stroke="#6a5acd" stroke-width="0.8"/>
<line x1="407.9" y1="855.0" x2="416.9" y2="855.0" stroke="white" stroke-width="1.5"/>
<text x="289.2" y="832.0" font-size="11.0" fill="#6a5acd" font-weight="700">LUMA</text>
<text x="289.2" y="846.0" font-size="11.0" fill="#333333">You're all right. No injuries. The shoulder scrape is surface only.</text>
<rect x="686.5" y="865.0" width="78.6" height="40.0" rx="6" fill="white" stroke="#b22222" stroke-width="1.0" opacity="0.92"/>
<polygon points="710.0,905.0 718.0,905.0 707.0,913.0" fill="white" stroke="#b22222" stroke-width="0.8"/>
<line x1="709.5" y1="905.0" x2="718.5" y2="905.0" stroke="white" stroke-width="1.5"/>
<text x="692.5" y="882.0" font-size="11.0" fill="#b22222" font-weight="700">THRESH</text>
<text x="692.5" y="896.0" font-size="11.0" fill="#333333">I couldn't—</text>
<rect x="283.2" y="915.0" width="481.8" height="54.0" rx="6" fill="white" stroke="#6a5acd" stroke-width="1.0" opacity="0.92"/>
<polygon points="427.7,969.0 435.7,969.0 424.7,977.0" fill="white" stroke="#6a5acd" stroke-width="0.8"/>
<line x1="427.2" y1="969.0" x2="436.2" y2="969.0" stroke="white" stroke-width="1.5"/>
<text x="289.2" y="932.0" font-size="11.0" fill="#6a5acd" font-weight="700">LUMA</text>
<text x="289.2" y="946.0" font-size="11.0" fill="#333333">Your body moved you. That's training. The freeze after is normal. It's chemical —</text>
<text x="289.2" y="960.0" font-size="11.0" fill="#333333">your system protecting itself.</text>
<rect x="703.0" y="979.0" width="62.0" height="40.0" rx="6" fill="white" stroke="#b22222" stroke-width="1.0" opacity="0.92"/>
<polygon points="721.6,1019.0 729.6,1019.0 718.6,1027.0" fill="white" stroke="#b22222" stroke-width="0.8"/>
<line x1="721.1" y1="1019.0" x2="730.1" y2="1019.0" stroke="white" stroke-width="1.5"/>
<text x="709.0" y="996.0" font-size="11.0" fill="#b22222" font-weight="700">THRESH</text>
<text x="709.0" y="1010.0" font-size="11.0" fill="#333333">Normal.</text>
<rect x="283.2" y="1029.0" width="62.0" height="40.0" rx="6" fill="white" stroke="#6a5acd" stroke-width="1.0" opacity="0.92"/>
<polygon points="301.8,1069.0 309.8,1069.0 298.8,1077.0" fill="white" stroke="#6a5acd" stroke-width="0.8"/>
<line x1="301.3" y1="1069.0" x2="310.3" y2="1069.0" stroke="white" stroke-width="1.5"/>
<text x="289.2" y="1046.0" font-size="11.0" fill="#6a5acd" font-weight="700">LUMA</text>
<text x="289.2" y="1060.0" font-size="11.0" fill="#333333">Normal.</text>
<text x="759.0" y="823.0" text-anchor="end" font-size="12" font-weight="bold" fill="#888888" opacity="0.6">5</text>
<text x="765.0" y="1165.0" text-anchor="end" font-size="9" fill="#888888" opacity="0.5">MW</text>
</svg>