<svg xmlns="http://www.w3.org/2000/svg" viewBox="0 0 800 1200" width="800" height="1200" style="background:#ffffff">
<style>
  text { font-family: "Helvetica Neue", Helvetica, Arial, sans-serif; }
</style>
<text x="400.0" y="22" text-anchor="middle" font-size="16" fill="#888888" font-weight="500">PAGE 11  (5 panels)</text>
<rect x="29.0" y="59.0" width="742.0" height="470.9" rx="2" fill="#f5f0e8" stroke="#2a2a2a" stroke-width="1.5"/>
<line x1="35.0" y1="426.3" x2="765.0" y2="426.3" stroke="#a89888" stroke-width="1.0" opacity="0.5"/>
<ellipse cx="214.5" cy="428.3" rx="11.2" ry="2.7" fill="#a89888" opacity="0.2"/>
<line x1="211.8" y1="410.5" x2="207.8" y2="426.3" stroke="#c87533" stroke-width="2" opacity="0.5"/>
<line x1="217.2" y1="410.5" x2="221.2" y2="426.3" stroke="#c87533" stroke-width="2" opacity="0.5"/>
<line x1="214.5" y1="397.5" x2="214.5" y2="410.5" stroke="#c87533" stroke-width="2.5" opacity="0.6"/>
<line x1="201.0" y1="399.5" x2="228.0" y2="399.5" stroke="#c87533" stroke-width="2" opacity="0.5"/>
<line x1="201.0" y1="399.5" x2="196.5" y2="411.0" stroke="#c87533" stroke-width="1.5" opacity="0.4"/>
<line x1="228.0" y1="399.5" x2="232.5" y2="411.0" stroke="#c87533" stroke-width="1.5" opacity="0.4"/>
<circle cx="214.5" cy="381.3" r="8.1" fill="#c87533" opacity="0.6"/>
<ellipse cx="400.0" cy="428.3" rx="11.2" ry="2.7" fill="#a89888" opacity="0.2"/>
<line x1="397.3" y1="410.5" x2="393.2" y2="426.3" stroke="#2e8b57" stroke-width="2" opacity="0.5"/>
<line x1="402.7" y1="410.5" x2="406.8" y2="426.3" stroke="#2e8b57" stroke-width="2" opacity="0.5"/>
<line x1="400.0" y1="397.5" x2="400.0" y2="410.5" stroke="#2e8b57" stroke-width="2.5" opacity="0.6"/>
<line x1="386.5" y1="399.5" x2="413.5" y2="399.5" stroke="#2e8b57" stroke-width="2" opacity="0.5"/>
<line x1="386.5" y1="399.5" x2="382.0" y2="411.0" stroke="#2e8b57" stroke-width="1.5" opacity="0.4"/>
<line x1="413.5" y1="399.5" x2="418.0" y2="411.0" stroke="#2e8b57" stroke-width="1.5" opacity="0.4"/>
<circle cx="400.0" cy="381.3" r="8.1" fill="#2e8b57" opacity="0.6"/>
<ellipse cx="585.5" cy="428.3" rx="11.2" ry="2.7" fill="#a89888" opacity="0.2"/>
<line x1="582.8" y1="410.5" x2="578.8" y2="426.3" stroke="#b0b0b0" stroke-width="2" opacity="0.5"/>
<line x1="588.2" y1="410.5" x2="592.2" y2="426.3" stroke="#b0b0b0" stroke-width="2" opacity="0.5"/>
<line x1="585.5" y1="397.5" x2="585.5" y2="410.5" stroke="#b0b0b0" stroke-width="2.5" opacity="0.6"/>
<line x1="572.0" y1="399.5" x2="599.0" y2="399.5" stroke="#b0b0b0" stroke-width="2" opacity="0.5"/>
<line x1="572.0" y1="399.5" x2="567.5" y2="411.0" stroke="#b0b0b0" stroke-width="1.5" opacity="0.4"/>
<line x1="599.0" y1="399.5" x2="603.5" y2="411.0" stroke="#b0b0b0" stroke-width="1.5" opacity="0.4"/>
<circle cx="585.5" cy="381.3" r="8.1" fill="#b0b0b0" opacity="0.6"/>
<rect x="35.0" y="67.0" width="62.0" height="40.0" rx="6" fill="white" stroke="#c87533" stroke-width="1.0" opacity="0.92"/>
<polygon points="53.6,107.0 61.6,107.0 50.6,115.0" fill="white" stroke="#c87533" stroke-width="0.8"/>
<line x1="53.1" y1="107.0" x2="62.1" y2="107.0" stroke="white" stroke-width="1.5"/>
<text x="41.0" y="84.0" font-size="11.0" fill="#c87533" font-weight="700">WREN</text>
<text x="41.0" y="98.0" font-size="11.0" fill="#333333">...oh.</text>
<rect x="474.7" y="117.0" width="290.3" height="40.0" rx="6" fill="white" stroke="#2e8b57" stroke-width="1.0" opacity="0.92"/>
<polygon points="561.8,157.0 569.8,157.0 558.8,165.0" fill="white" stroke="#2e8b57" stroke-width="0.8"/>
<line x1="561.3" y1="157.0" x2="570.3" y2="157.0" stroke="white" stroke-width="1.5"/>
<text x="480.7" y="134.0" font-size="11.0" fill="#2e8b57" font-weight="700">JINK</text>
<text x="480.7" y="148.0" font-size="11.0" fill="#333333">You said that about the clockmaker's shop too.</text>
<rect x="35.0" y="167.0" width="730.0" height="54.0" rx="6" fill="white" stroke="#c87533" stroke-width="1.0" opacity="0.92"/>
<polygon points="254.0,221.0 262.0,221.0 251.0,229.0" fill="white" stroke="#c87533" stroke-width="0.8"/>
<line x1="253.5" y1="221.0" x2="262.5" y2="221.0" stroke="white" stroke-width="1.5"/>
<text x="41.0" y="184.0" font-size="11.0" fill="#c87533" font-weight="700">WREN</text>
<text x="41.0" y="198.0" font-size="11.0" fill="#333333">This is different. This is optics and mechanics and physics all in one system. It's a temporal drive alignment array built</text>
<text x="41.0" y="212.0" font-size="11.0" fill="#333333">out of glass and fire.</text>
<rect x="529.1" y="231.0" width="235.9" height="40.0" rx="6" fill="white" stroke="#b0b0b0" stroke-width="1.0" opacity="0.92"/>
<polygon points="599.9,271.0 607.9,271.0 596.9,279.0" fill="white" stroke="#b0b0b0" stroke-width="0.8"/>
<line x1="599.4" y1="271.0" x2="608.4" y2="271.0" stroke="white" stroke-width="1.5"/>
<text x="535.1" y="248.0" font-size="11.0" fill="#b0b0b0" font-weight="700">SABLE</text>
<text x="535.1" y="262.0" font-size="11.0" fill="#333333">Save the admiration. Clock's running.</text>
<text x="759.0" y="75.0" text-anchor="end" font-size="12" font-weight="bold" fill="#888888" opacity="0.6">1</text>
<text x="765.0" y="523.9" text-anchor="end" font-size="9" fill="#888888" opacity="0.5">WIDE</text>
<rect x="29.0" y="539.9" width="366.0" height="310.6" rx="2" fill="#f5f0e8" stroke="#2a2a2a" stroke-width="1.5"/>
<path d="M125.0,772.8 Q125.0,729.3 190.3,723.9 L233.7,723.9 Q299.0,729.3 299.0,772.8 L299.0,813.2 L125.0,813.2 Z" fill="#c87533" opacity="0.25"/>
<path d="M193.0,723.9 L212.0,751.0 L231.0,723.9" fill="none" stroke="#c87533" stroke-width="1" opacity="0.3"/>
<circle cx="212.0" cy="664.1" r="54.3" fill="#c87533" opacity="0.35"/>
<path d="M157.7,675.0 Q165.8,723.9 212.0,726.6 Q258.2,723.9 266.4,675.0" fill="none" stroke="#c87533" stroke-width="1.2" opacity="0.3"/>
<path d="M154.9,658.7 Q212.0,593.4 269.1,658.7" fill="none" stroke="#c87533" stroke-width="2" opacity="0.4"/>
<ellipse cx="155.7" cy="666.8" rx="2.5" ry="4" fill="#c87533" opacity="0.25"/>
<ellipse cx="268.4" cy="666.8" rx="2.5" ry="4" fill="#c87533" opacity="0.25"/>
<rect x="35.0" y="547.9" width="354.0" height="54.0" rx="6" fill="white" stroke="#c87533" stroke-width="1.0" opacity="0.92"/>
<polygon points="141.2,601.9 149.2,601.9 138.2,609.9" fill="white" stroke="#c87533" stroke-width="0.8"/>
<line x1="140.7" y1="601.9" x2="149.7" y2="601.9" stroke="white" stroke-width="1.5"/>
<text x="41.0" y="564.9" font-size="11.0" fill="#c87533" font-weight="700">WREN</text>
<text x="41.0" y="578.9" font-size="11.0" fill="#333333">Third concentric ring. Brass pin-mount system — four pins,</text>
<text x="41.0" y="592.9" font-size="11.0" fill="#333333">spring-loaded. I need to release them simultaneously.</text>
<rect x="35.0" y="611.9" width="350.8" height="54.0" rx="6" fill="white" stroke="#c87533" stroke-width="1.0" opacity="0.92"/>
<polygon points="140.2,665.9 148.2,665.9 137.2,673.9" fill="white" stroke="#c87533" stroke-width="0.8"/>
<line x1="139.7" y1="665.9" x2="148.7" y2="665.9" stroke="white" stroke-width="1.5"/>
<text x="41.0" y="628.9" font-size="11.0" fill="#c87533" font-weight="700">WREN</text>
<text x="41.0" y="642.9" font-size="11.0" fill="#333333">The ring lifts out clean. The replacement drops in. Same</text>
<text x="41.0" y="656.9" font-size="11.0" fill="#333333">pin spacing.</text>
<text x="383.0" y="555.9" text-anchor="end" font-size="12" font-weight="bold" fill="#888888" opacity="0.6">2</text>
<text x="389.0" y="844.4" text-anchor="end" font-size="9" fill="#888888" opacity="0.5">MCU</text>
<rect x="405.0" y="539.9" width="366.0" height="310.6" rx="2" fill="#f5f0e8" stroke="#2a2a2a" stroke-width="1.5"/>
<path d="M538.0,763.5 L542.6,724.4 Q547.1,720.4 574.2,720.4 L601.8,720.4 Q628.9,720.4 633.4,724.4 L638.0,763.5 Z" fill="#b0b0b0" opacity="0.35"/>
<line x1="542.6" y1="742.5" x2="633.4" y2="742.5" stroke="#b0b0b0" stroke-width="1" opacity="0.3"/>
<line x1="542.6" y1="724.4" x2="524.4" y2="759.3" stroke="#b0b0b0" stroke-width="2" opacity="0.3"/>
<line x1="524.4" y1="759.3" x2="538.0" y2="780.3" stroke="#b0b0b0" stroke-width="2" opacity="0.3"/>
<line x1="633.4" y1="724.4" x2="651.6" y2="759.3" stroke="#b0b0b0" stroke-width="2" opacity="0.3"/>
<line x1="651.6" y1="759.3" x2="638.0" y2="780.3" stroke="#b0b0b0" stroke-width="2" opacity="0.3"/>
<line x1="588.0" y1="658.2" x2="588.0" y2="720.4" stroke="#b0b0b0" stroke-width="3" opacity="0.35"/>
<circle cx="588.0" cy="623.7" r="34.5" fill="#b0b0b0" opacity="0.4"/>
<rect x="411.0" y="547.9" width="354.0" height="40.0" rx="6" fill="white" stroke="#b0b0b0" stroke-width="1.0" opacity="0.92"/>
<polygon points="517.2,587.9 525.2,587.9 514.2,595.9" fill="white" stroke="#b0b0b0" stroke-width="0.8"/>
<line x1="516.7" y1="587.9" x2="525.7" y2="587.9" stroke="white" stroke-width="1.5"/>
<text x="417.0" y="564.9" font-size="11.0" fill="#b0b0b0" font-weight="700">SABLE</text>
<text x="417.0" y="578.9" font-size="11.0" fill="#333333">Keeper is settled. Reading. Pipe lit. No signs of movement.</text>
<rect x="577.5" y="597.9" width="187.5" height="40.0" rx="6" fill="white" stroke="#b0b0b0" stroke-width="1.0" opacity="0.92"/>
<polygon points="633.8,637.9 641.8,637.9 630.8,645.9" fill="white" stroke="#b0b0b0" stroke-width="0.8"/>
<line x1="633.3" y1="637.9" x2="642.3" y2="637.9" stroke="white" stroke-width="1.5"/>
<text x="583.5" y="614.9" font-size="11.0" fill="#b0b0b0" font-weight="700">SABLE</text>
<text x="583.5" y="628.9" font-size="11.0" fill="#333333">Wren, you have forty minutes.</text>
<text x="759.0" y="555.9" text-anchor="end" font-size="12" font-weight="bold" fill="#888888" opacity="0.6">3</text>
<text x="765.0" y="844.4" text-anchor="end" font-size="9" fill="#888888" opacity="0.5">MED</text>
<rect x="29.0" y="860.4" width="366.0" height="310.6" rx="2" fill="#f5f0e8" stroke="#2a2a2a" stroke-width="1.5"/>
<path d="M162.0,1084.0 L166.6,1044.9 Q171.1,1040.9 198.2,1040.9 L225.8,1040.9 Q252.9,1040.9 257.4,1044.9 L262.0,1084.0 Z" fill="#c87533" opacity="0.35"/>
<line x1="166.6" y1="1063.1" x2="257.4" y2="1063.1" stroke="#c87533" stroke-width="1" opacity="0.3"/>
<line x1="166.6" y1="1044.9" x2="148.4" y2="1079.9" stroke="#c87533" stroke-width="2" opacity="0.3"/>
<line x1="148.4" y1="1079.9" x2="162.0" y2="1100.8" stroke="#c87533" stroke-width="2" opacity="0.3"/>
<line x1="257.4" y1="1044.9" x2="275.6" y2="1079.9" stroke="#c87533" stroke-width="2" opacity="0.3"/>
<line x1="275.6" y1="1079.9" x2="262.0" y2="1100.8" stroke="#c87533" stroke-width="2" opacity="0.3"/>
<line x1="212.0" y1="978.8" x2="212.0" y2="1040.9" stroke="#c87533" stroke-width="3" opacity="0.35"/>
<circle cx="212.0" cy="944.3" r="34.5" fill="#c87533" opacity="0.4"/>
<rect x="35.0" y="868.4" width="354.0" height="54.0" rx="6" fill="white" stroke="#c87533" stroke-width="1.0" opacity="0.92"/>
<polygon points="141.2,922.4 149.2,922.4 138.2,930.4" fill="white" stroke="#c87533" stroke-width="0.8"/>
<line x1="140.7" y1="922.4" x2="149.7" y2="922.4" stroke="white" stroke-width="1.5"/>
<text x="41.0" y="885.4" font-size="11.0" fill="#c87533" font-weight="700">WREN</text>
<text x="41.0" y="899.4" font-size="11.0" fill="#333333">Spring tension on the pin. Release on the mechanism's dead</text>
<text x="41.0" y="913.4" font-size="11.0" fill="#333333">point — right... there.</text>
<text x="383.0" y="876.4" text-anchor="end" font-size="12" font-weight="bold" fill="#888888" opacity="0.6">4</text>
<text x="389.0" y="1165.0" text-anchor="end" font-size="9" fill="#888888" opacity="0.5">MW</text>
<rect x="405.0" y="860.4" width="366.0" height="310.6" rx="2" fill="#f5f0e8" stroke="#2a2a2a" stroke-width="1.5"/>
<ellipse cx="588.0" cy="990.9" rx="97.8" ry="139.8" fill="#c87533" opacity="0.18"/>
<path d="M485.3,942.0 Q588.0,830.1 690.7,942.0" fill="none" stroke="#c87533" stroke-width="3" opacity="0.35"/>
<line x1="553.8" y1="960.1" x2="583.1" y2="958.1" stroke="#a89888" stroke-width="1.5" opacity="0.45"/>
<line x1="592.9" y1="958.1" x2="622.2" y2="960.1" stroke="#a89888" stroke-width="1.5" opacity="0.45"/>
<ellipse cx="560.6" cy="974.1" rx="11.7" ry="7.0" fill="#a89888" opacity="0.45"/>
<ellipse cx="615.4" cy="974.1" rx="11.7" ry="7.0" fill="#a89888" opacity="0.45"/>
<line x1="588.0" y1="993.7" x2="588.0" y2="1016.0" stroke="#a89888" stroke-width="1.2" opacity="0.35"/>
<path d="M582.1,1016.0 Q588.0,1019.0 593.9,1016.0" fill="none" stroke="#a89888" stroke-width="1" opacity="0.3"/>
<line x1="563.5" y1="1035.6" x2="612.5" y2="1035.6" stroke="#a89888" stroke-width="1.2" opacity="0.35"/>
<rect x="411.0" y="868.4" width="223.8" height="40.0" rx="6" fill="white" stroke="#c87533" stroke-width="1.0" opacity="0.92"/>
<polygon points="478.1,908.4 486.1,908.4 475.1,916.4" fill="white" stroke="#c87533" stroke-width="0.8"/>
<line x1="477.6" y1="908.4" x2="486.6" y2="908.4" stroke="white" stroke-width="1.5"/>
<text x="417.0" y="885.4" font-size="11.0" fill="#c87533" font-weight="700">WREN</text>
<text x="417.0" y="899.4" font-size="11.0" fill="#333333">First pin. Clean. Moving to second.</text>
<rect x="547.3" y="918.4" width="217.7" height="40.0" rx="6" fill="white" stroke="#b0b0b0" stroke-width="1.0" opacity="0.92"/>
<polygon points="612.6,958.4 620.6,958.4 609.6,966.4" fill="white" stroke="#b0b0b0" stroke-width="0.8"/>
<line x1="612.1" y1="958.4" x2="621.1" y2="958.4" stroke="white" stroke-width="1.5"/>
<text x="553.3" y="935.4" font-size="11.0" fill="#b0b0b0" font-weight="700">SABLE</text>
<text x="553.3" y="949.4" font-size="11.0" fill="#333333">Keeper hasn't moved. You're clear.</text>
<text x="759.0" y="876.4" text-anchor="end" font-size="12" font-weight="bold" fill="#888888" opacity="0.6">5</text>
<text x="765.0" y="1165.0" text-anchor="end" font-size="9" fill="#888888" opacity="0.5">CU</text>
</svg>