<svg xmlns="http://www.w3.org/2000/svg" viewBox="0 0 800 1200" width="800" height="1200" style="background:#ffffff">
<style>
  text { font-family: "Helvetica Neue", Helvetica, Arial, sans-serif; }
</style>
<text x="400.0" y="22" text-anchor="middle" font-size="16" fill="#888888" font-weight="500">PAGE 4  (4 panels)</text>
<rect x="29.0" y="59.0" width="742.0" height="438.8" rx="2" fill="#f5f0e8" stroke="#2a2a2a" stroke-width="1.5"/>
<line x1="35.0" y1="401.3" x2="765.0" y2="401.3" stroke="#a89888" stroke-width="1.0" opacity="0.5"/>
<ellipse cx="276.3" cy="403.3" rx="11.2" ry="2.7" fill="#a89888" opacity="0.2"/>
<line x1="273.6" y1="385.5" x2="269.6" y2="401.3" stroke="#c49a6c" stroke-width="2" opacity="0.5"/>
<line x1="279.0" y1="385.5" x2="283.1" y2="401.3" stroke="#c49a6c" stroke-width="2" opacity="0.5"/>
<line x1="276.3" y1="372.5" x2="276.3" y2="385.5" stroke="#c49a6c" stroke-width="2.5" opacity="0.6"/>
<line x1="262.8" y1="374.5" x2="289.8" y2="374.5" stroke="#c49a6c" stroke-width="2" opacity="0.5"/>
<line x1="262.8" y1="374.5" x2="258.3" y2="386.0" stroke="#c49a6c" stroke-width="1.5" opacity="0.4"/>
<line x1="289.8" y1="374.5" x2="294.3" y2="386.0" stroke="#c49a6c" stroke-width="1.5" opacity="0.4"/>
<circle cx="276.3" cy="356.3" r="8.1" fill="#c49a6c" opacity="0.6"/>
<ellipse cx="523.7" cy="403.3" rx="11.2" ry="2.7" fill="#a89888" opacity="0.2"/>
<line x1="521.0" y1="385.5" x2="516.9" y2="401.3" stroke="#2e8b57" stroke-width="2" opacity="0.5"/>
<line x1="526.4" y1="385.5" x2="530.4" y2="401.3" stroke="#2e8b57" stroke-width="2" opacity="0.5"/>
<line x1="523.7" y1="372.5" x2="523.7" y2="385.5" stroke="#2e8b57" stroke-width="2.5" opacity="0.6"/>
<line x1="510.2" y1="374.5" x2="537.2" y2="374.5" stroke="#2e8b57" stroke-width="2" opacity="0.5"/>
<line x1="510.2" y1="374.5" x2="505.7" y2="386.0" stroke="#2e8b57" stroke-width="1.5" opacity="0.4"/>
<line x1="537.2" y1="374.5" x2="541.7" y2="386.0" stroke="#2e8b57" stroke-width="1.5" opacity="0.4"/>
<circle cx="523.7" cy="356.3" r="8.1" fill="#2e8b57" opacity="0.6"/>
<rect x="35.0" y="67.0" width="556.5" height="40.0" rx="6" fill="white" stroke="#c49a6c" stroke-width="1.0" opacity="0.92"/>
<polygon points="201.9,107.0 209.9,107.0 198.9,115.0" fill="white" stroke="#c49a6c" stroke-width="0.8"/>
<line x1="201.4" y1="107.0" x2="210.4" y2="107.0" stroke="white" stroke-width="1.5"/>
<text x="41.0" y="84.0" font-size="11.0" fill="#c49a6c" font-weight="700">THEODORE</text>
<text x="41.0" y="98.0" font-size="11.0" fill="#333333">*A plano-convex lens, four-inch diameter, crown glass. For a ship's lantern, if they ask.*</text>
<rect x="656.2" y="117.0" width="108.8" height="40.0" rx="6" fill="white" stroke="#2e8b57" stroke-width="1.0" opacity="0.92"/>
<polygon points="688.8,157.0 696.8,157.0 685.8,165.0" fill="white" stroke="#2e8b57" stroke-width="0.8"/>
<line x1="688.3" y1="157.0" x2="697.3" y2="157.0" stroke="white" stroke-width="1.5"/>
<text x="662.2" y="134.0" font-size="11.0" fill="#2e8b57" font-weight="700">JINK</text>
<text x="662.2" y="148.0" font-size="11.0" fill="#333333">You've got this.</text>
<text x="759.0" y="75.0" text-anchor="end" font-size="12" font-weight="bold" fill="#888888" opacity="0.6">1</text>
<text x="765.0" y="491.8" text-anchor="end" font-size="9" fill="#888888" opacity="0.5">EST</text>
<rect x="29.0" y="507.8" width="240.7" height="663.2" rx="2" fill="#f5f0e8" stroke="#2a2a2a" stroke-width="1.5"/>
<path d="M103.0,985.3 L107.2,780.5 Q111.4,776.5 136.5,776.5 L162.1,776.5 Q187.2,776.5 191.5,780.5 L195.7,985.3 Z" fill="#999999" opacity="0.35"/>
<line x1="107.2" y1="940.5" x2="191.5" y2="940.5" stroke="#999999" stroke-width="1" opacity="0.3"/>
<line x1="107.2" y1="780.5" x2="90.4" y2="855.1" stroke="#999999" stroke-width="2" opacity="0.3"/>
<line x1="90.4" y1="855.1" x2="103.0" y2="899.9" stroke="#999999" stroke-width="2" opacity="0.3"/>
<line x1="191.5" y1="780.5" x2="208.3" y2="855.1" stroke="#999999" stroke-width="2" opacity="0.3"/>
<line x1="208.3" y1="855.1" x2="195.7" y2="899.9" stroke="#999999" stroke-width="2" opacity="0.3"/>
<line x1="149.3" y1="718.9" x2="149.3" y2="776.5" stroke="#999999" stroke-width="3" opacity="0.35"/>
<circle cx="149.3" cy="686.9" r="32.0" fill="#999999" opacity="0.4"/>
<rect x="35.0" y="515.8" width="89.0" height="38.0" rx="6" fill="white" stroke="#999999" stroke-width="1.0" opacity="0.92"/>
<polygon points="61.7,553.8 69.7,553.8 58.7,561.8" fill="white" stroke="#999999" stroke-width="0.8"/>
<line x1="61.2" y1="553.8" x2="70.2" y2="553.8" stroke="white" stroke-width="1.5"/>
<text x="41.0" y="531.8" font-size="10.0" fill="#999999" font-weight="700">PRENTISS</text>
<text x="41.0" y="544.8" font-size="10.0" fill="#333333">Help you, lad?</text>
<rect x="35.0" y="563.8" width="228.7" height="77.0" rx="6" fill="white" stroke="#c49a6c" stroke-width="1.0" opacity="0.92"/>
<polygon points="103.6,640.8 111.6,640.8 100.6,648.8" fill="white" stroke="#c49a6c" stroke-width="0.8"/>
<line x1="103.1" y1="640.8" x2="112.1" y2="640.8" stroke="white" stroke-width="1.5"/>
<text x="41.0" y="579.8" font-size="10.0" fill="#c49a6c" font-weight="700">THEODORE</text>
<text x="41.0" y="592.8" font-size="10.0" fill="#333333">Good afternoon, sir. I'm sent by Mr.</text>
<text x="41.0" y="605.8" font-size="10.0" fill="#333333">Cribbage, clockmaker, Clerkenwell. He</text>
<text x="41.0" y="618.8" font-size="10.0" fill="#333333">requires a plano-convex lens, four inches</text>
<text x="41.0" y="631.8" font-size="10.0" fill="#333333">diameter. Crown glass, if you have it.</text>
<text x="257.7" y="523.8" text-anchor="end" font-size="12" font-weight="bold" fill="#888888" opacity="0.6">2</text>
<text x="263.7" y="1165.0" text-anchor="end" font-size="9" fill="#888888" opacity="0.5">MW</text>
<rect x="279.7" y="507.8" width="240.7" height="663.2" rx="2" fill="#f5f0e8" stroke="#2a2a2a" stroke-width="1.5"/>
<path d="M330.7,859.7 Q330.7,825.1 382.7,820.7 L417.3,820.7 Q469.3,825.1 469.3,859.7 L469.3,1091.4 L330.7,1091.4 Z" fill="#999999" opacity="0.25"/>
<path d="M384.8,820.7 L400.0,842.4 L415.2,820.7" fill="none" stroke="#999999" stroke-width="1" opacity="0.3"/>
<circle cx="400.0" cy="773.1" r="43.3" fill="#999999" opacity="0.35"/>
<path d="M356.7,781.7 Q363.2,820.7 400.0,822.9 Q436.8,820.7 443.3,781.7" fill="none" stroke="#999999" stroke-width="1.2" opacity="0.3"/>
<path d="M354.5,768.7 Q400.0,716.8 445.5,768.7" fill="none" stroke="#999999" stroke-width="2" opacity="0.4"/>
<ellipse cx="354.7" cy="775.2" rx="2.5" ry="4" fill="#999999" opacity="0.25"/>
<ellipse cx="445.3" cy="775.2" rx="2.5" ry="4" fill="#999999" opacity="0.25"/>
<rect x="285.7" y="515.8" width="226.5" height="51.0" rx="6" fill="white" stroke="#999999" stroke-width="1.0" opacity="0.92"/>
<polygon points="353.6,566.8 361.6,566.8 350.6,574.8" fill="white" stroke="#999999" stroke-width="0.8"/>
<line x1="353.1" y1="566.8" x2="362.1" y2="566.8" stroke="white" stroke-width="1.5"/>
<text x="291.7" y="531.8" font-size="10.0" fill="#999999" font-weight="700">PRENTISS</text>
<text x="291.7" y="544.8" font-size="10.0" fill="#333333">Cribbage, you say. Clockmaker. What's a</text>
<text x="291.7" y="557.8" font-size="10.0" fill="#333333">clockmaker want with optical glass?</text>
<rect x="285.7" y="576.8" width="228.7" height="51.0" rx="6" fill="white" stroke="#c49a6c" stroke-width="1.0" opacity="0.92"/>
<polygon points="354.3,627.8 362.3,627.8 351.3,635.8" fill="white" stroke="#c49a6c" stroke-width="0.8"/>
<line x1="353.8" y1="627.8" x2="362.8" y2="627.8" stroke="white" stroke-width="1.5"/>
<text x="291.7" y="592.8" font-size="10.0" fill="#c49a6c" font-weight="700">THEODORE</text>
<text x="291.7" y="605.8" font-size="10.0" fill="#333333">For a ship's lantern, sir. He's fitting a</text>
<text x="291.7" y="618.8" font-size="10.0" fill="#333333">commission for Blackwall Reach.</text>
<rect x="285.7" y="637.8" width="228.7" height="51.0" rx="6" fill="white" stroke="#999999" stroke-width="1.0" opacity="0.92"/>
<polygon points="354.3,688.8 362.3,688.8 351.3,696.8" fill="white" stroke="#999999" stroke-width="0.8"/>
<line x1="353.8" y1="688.8" x2="362.8" y2="688.8" stroke="white" stroke-width="1.5"/>
<text x="291.7" y="653.8" font-size="10.0" fill="#999999" font-weight="700">PRENTISS</text>
<text x="291.7" y="666.8" font-size="10.0" fill="#333333">Hmm. Four-inch plano-convex, crown glass.</text>
<text x="291.7" y="679.8" font-size="10.0" fill="#333333">I have one.</text>
<text x="508.3" y="523.8" text-anchor="end" font-size="12" font-weight="bold" fill="#888888" opacity="0.6">3</text>
<text x="514.3" y="1165.0" text-anchor="end" font-size="9" fill="#888888" opacity="0.5">MCU</text>
<rect x="530.3" y="507.8" width="240.7" height="663.2" rx="2" fill="#f5f0e8" stroke="#2a2a2a" stroke-width="1.5"/>
<ellipse cx="650.7" cy="786.3" rx="96.3" ry="298.4" fill="#999999" opacity="0.18"/>
<path d="M549.6,681.9 Q650.7,443.1 751.7,681.9" fill="none" stroke="#999999" stroke-width="3" opacity="0.35"/>
<line x1="617.0" y1="720.7" x2="645.9" y2="718.7" stroke="#a89888" stroke-width="1.5" opacity="0.45"/>
<line x1="655.5" y1="718.7" x2="684.4" y2="720.7" stroke="#a89888" stroke-width="1.5" opacity="0.45"/>
<ellipse cx="623.7" cy="750.5" rx="11.6" ry="14.9" fill="#a89888" opacity="0.45"/>
<ellipse cx="677.6" cy="750.5" rx="11.6" ry="14.9" fill="#a89888" opacity="0.45"/>
<line x1="650.7" y1="792.3" x2="650.7" y2="840.1" stroke="#a89888" stroke-width="1.2" opacity="0.35"/>
<path d="M644.9,840.1 Q650.7,843.1 656.4,840.1" fill="none" stroke="#a89888" stroke-width="1" opacity="0.3"/>
<line x1="626.6" y1="881.8" x2="674.7" y2="881.8" stroke="#a89888" stroke-width="1.2" opacity="0.35"/>
<rect x="536.3" y="515.8" width="149.5" height="38.0" rx="6" fill="white" stroke="#999999" stroke-width="1.0" opacity="0.92"/>
<polygon points="581.2,553.8 589.2,553.8 578.2,561.8" fill="white" stroke="#999999" stroke-width="0.8"/>
<line x1="580.7" y1="553.8" x2="589.7" y2="553.8" stroke="white" stroke-width="1.5"/>
<text x="542.3" y="531.8" font-size="10.0" fill="#999999" font-weight="700">PRENTISS</text>
<text x="542.3" y="544.8" font-size="10.0" fill="#333333">Three shillings sixpence.</text>
<rect x="648.5" y="563.8" width="116.5" height="38.0" rx="6" fill="white" stroke="#c49a6c" stroke-width="1.0" opacity="0.92"/>
<polygon points="683.5,601.8 691.5,601.8 680.5,609.8" fill="white" stroke="#c49a6c" stroke-width="0.8"/>
<line x1="683.0" y1="601.8" x2="692.0" y2="601.8" stroke="white" stroke-width="1.5"/>
<text x="654.5" y="579.8" font-size="10.0" fill="#c49a6c" font-weight="700">THEODORE</text>
<text x="654.5" y="592.8" font-size="10.0" fill="#333333">There you are, sir.</text>
<rect x="536.3" y="611.8" width="199.0" height="51.0" rx="6" fill="white" stroke="#999999" stroke-width="1.0" opacity="0.92"/>
<polygon points="596.0,662.8 604.0,662.8 593.0,670.8" fill="white" stroke="#999999" stroke-width="0.8"/>
<line x1="595.5" y1="662.8" x2="604.5" y2="662.8" stroke="white" stroke-width="1.5"/>
<text x="542.3" y="627.8" font-size="10.0" fill="#999999" font-weight="700">PRENTISS</text>
<text x="542.3" y="640.8" font-size="10.0" fill="#333333">Mind how you carry it. Crown glass</text>
<text x="542.3" y="653.8" font-size="10.0" fill="#333333">doesn't forgive rough handling.</text>
<text x="759.0" y="523.8" text-anchor="end" font-size="12" font-weight="bold" fill="#888888" opacity="0.6">4</text>
<text x="765.0" y="1165.0" text-anchor="end" font-size="9" fill="#888888" opacity="0.5">CU</text>
</svg>