<svg xmlns="http://www.w3.org/2000/svg" viewBox="0 0 800 1200" width="800" height="1200" style="background:#ffffff">
<style>
  text { font-family: "Helvetica Neue", Helvetica, Arial, sans-serif; }
</style>
<text x="400.0" y="22" text-anchor="middle" font-size="16" fill="#888888" font-weight="500">PAGE 5  (4 panels)</text>
<rect x="29.0" y="59.0" width="742.0" height="364.0" rx="2" fill="#f5f0e8" stroke="#2a2a2a" stroke-width="1.5"/>
<path d="M341.4,321.1 L346.8,274.6 Q352.1,270.6 383.8,270.6 L416.2,270.6 Q447.9,270.6 453.2,274.6 L458.6,321.1 Z" fill="#c49a6c" opacity="0.35"/>
<line x1="346.8" y1="296.5" x2="453.2" y2="296.5" stroke="#c49a6c" stroke-width="1" opacity="0.3"/>
<line x1="346.8" y1="274.6" x2="325.5" y2="315.5" stroke="#c49a6c" stroke-width="2" opacity="0.3"/>
<line x1="325.5" y1="315.5" x2="341.4" y2="340.1" stroke="#c49a6c" stroke-width="2" opacity="0.3"/>
<line x1="453.2" y1="274.6" x2="474.5" y2="315.5" stroke="#c49a6c" stroke-width="2" opacity="0.3"/>
<line x1="474.5" y1="315.5" x2="458.6" y2="340.1" stroke="#c49a6c" stroke-width="2" opacity="0.3"/>
<line x1="400.0" y1="197.7" x2="400.0" y2="270.6" stroke="#c49a6c" stroke-width="3" opacity="0.35"/>
<circle cx="400.0" cy="157.3" r="40.5" fill="#c49a6c" opacity="0.4"/>
<rect x="35.0" y="67.0" width="62.0" height="40.0" rx="6" fill="white" stroke="#c49a6c" stroke-width="1.0" opacity="0.92"/>
<polygon points="53.6,107.0 61.6,107.0 50.6,115.0" fill="white" stroke="#c49a6c" stroke-width="0.8"/>
<line x1="53.1" y1="107.0" x2="62.1" y2="107.0" stroke="white" stroke-width="1.5"/>
<text x="41.0" y="84.0" font-size="11.0" fill="#c49a6c" font-weight="700">THEODORE</text>
<text x="41.0" y="98.0" font-size="11.0" fill="#333333">Got it.</text>
<rect x="698.5" y="117.0" width="66.5" height="40.0" rx="6" fill="white" stroke="#2e8b57" stroke-width="1.0" opacity="0.92"/>
<polygon points="718.5,157.0 726.5,157.0 715.5,165.0" fill="white" stroke="#2e8b57" stroke-width="0.8"/>
<line x1="718.0" y1="157.0" x2="727.0" y2="157.0" stroke="white" stroke-width="1.5"/>
<text x="704.5" y="134.0" font-size="11.0" fill="#2e8b57" font-weight="700">JINK</text>
<text x="704.5" y="148.0" font-size="11.0" fill="#333333">Told you.</text>
<text x="759.0" y="75.0" text-anchor="end" font-size="12" font-weight="bold" fill="#888888" opacity="0.6">1</text>
<text x="765.0" y="417.0" text-anchor="end" font-size="9" fill="#888888" opacity="0.5">MW</text>
<rect x="29.0" y="433.0" width="366.0" height="364.0" rx="2" fill="#f5f0e8" stroke="#2a2a2a" stroke-width="1.5"/>
<path d="M153.4,695.1 L158.8,648.6 Q164.1,644.6 195.8,644.6 L228.2,644.6 Q259.9,644.6 265.2,648.6 L270.6,695.1 Z" fill="#2e8b57" opacity="0.35"/>
<line x1="158.8" y1="670.5" x2="265.2" y2="670.5" stroke="#2e8b57" stroke-width="1" opacity="0.3"/>
<line x1="158.8" y1="648.6" x2="137.5" y2="689.5" stroke="#2e8b57" stroke-width="2" opacity="0.3"/>
<line x1="137.5" y1="689.5" x2="153.4" y2="714.1" stroke="#2e8b57" stroke-width="2" opacity="0.3"/>
<line x1="265.2" y1="648.6" x2="286.5" y2="689.5" stroke="#2e8b57" stroke-width="2" opacity="0.3"/>
<line x1="286.5" y1="689.5" x2="270.6" y2="714.1" stroke="#2e8b57" stroke-width="2" opacity="0.3"/>
<line x1="212.0" y1="571.7" x2="212.0" y2="644.6" stroke="#2e8b57" stroke-width="3" opacity="0.35"/>
<circle cx="212.0" cy="531.3" r="40.5" fill="#2e8b57" opacity="0.4"/>
<rect x="35.0" y="441.0" width="229.8" height="40.0" rx="6" fill="white" stroke="#2e8b57" stroke-width="1.0" opacity="0.92"/>
<polygon points="103.9,481.0 111.9,481.0 100.9,489.0" fill="white" stroke="#2e8b57" stroke-width="0.8"/>
<line x1="103.4" y1="481.0" x2="112.4" y2="481.0" stroke="white" stroke-width="1.5"/>
<text x="41.0" y="458.0" font-size="11.0" fill="#2e8b57" font-weight="700">JINK</text>
<text x="41.0" y="472.0" font-size="11.0" fill="#333333">Your pocket smells like machine oil.</text>
<rect x="110.8" y="491.0" width="278.2" height="40.0" rx="6" fill="white" stroke="#c49a6c" stroke-width="1.0" opacity="0.92"/>
<polygon points="194.3,531.0 202.3,531.0 191.3,539.0" fill="white" stroke="#c49a6c" stroke-width="0.8"/>
<line x1="193.8" y1="531.0" x2="202.8" y2="531.0" stroke="white" stroke-width="1.5"/>
<text x="116.8" y="508.0" font-size="11.0" fill="#c49a6c" font-weight="700">THEODORE</text>
<text x="116.8" y="522.0" font-size="11.0" fill="#333333">Everything about me smells like machine oil.</text>
<text x="383.0" y="449.0" text-anchor="end" font-size="12" font-weight="bold" fill="#888888" opacity="0.6">2</text>
<text x="389.0" y="791.0" text-anchor="end" font-size="9" fill="#888888" opacity="0.5">MED</text>
<rect x="405.0" y="433.0" width="366.0" height="364.0" rx="2" fill="#f5f0e8" stroke="#2a2a2a" stroke-width="1.5"/>
<path d="M486.1,706.0 Q486.1,655.0 562.5,648.7 L613.5,648.7 Q689.9,655.0 689.9,706.0 L689.9,753.3 L486.1,753.3 Z" fill="#c49a6c" opacity="0.25"/>
<path d="M565.7,648.7 L588.0,680.5 L610.3,648.7" fill="none" stroke="#c49a6c" stroke-width="1" opacity="0.3"/>
<circle cx="588.0" cy="578.6" r="63.7" fill="#c49a6c" opacity="0.35"/>
<path d="M524.3,591.3 Q533.9,648.7 588.0,651.9 Q642.1,648.7 651.7,591.3" fill="none" stroke="#c49a6c" stroke-width="1.2" opacity="0.3"/>
<path d="M521.1,572.2 Q588.0,495.8 654.9,572.2" fill="none" stroke="#c49a6c" stroke-width="2" opacity="0.4"/>
<ellipse cx="522.3" cy="581.8" rx="2.5" ry="4" fill="#c49a6c" opacity="0.25"/>
<ellipse cx="653.7" cy="581.8" rx="2.5" ry="4" fill="#c49a6c" opacity="0.25"/>
<rect x="411.0" y="441.0" width="272.2" height="40.0" rx="6" fill="white" stroke="#c49a6c" stroke-width="1.0" opacity="0.92"/>
<polygon points="492.6,481.0 500.6,481.0 489.6,489.0" fill="white" stroke="#c49a6c" stroke-width="0.8"/>
<line x1="492.1" y1="481.0" x2="501.1" y2="481.0" stroke="white" stroke-width="1.5"/>
<text x="417.0" y="458.0" font-size="11.0" fill="#c49a6c" font-weight="700">THEODORE</text>
<text x="417.0" y="472.0" font-size="11.0" fill="#333333">Jink — do you miss it? Where you came from?</text>
<rect x="420.2" y="491.0" width="344.8" height="54.0" rx="6" fill="white" stroke="#2e8b57" stroke-width="1.0" opacity="0.92"/>
<polygon points="523.7,545.0 531.7,545.0 520.7,553.0" fill="white" stroke="#2e8b57" stroke-width="0.8"/>
<line x1="523.2" y1="545.0" x2="532.2" y2="545.0" stroke="white" stroke-width="1.5"/>
<text x="426.2" y="508.0" font-size="11.0" fill="#2e8b57" font-weight="700">JINK</text>
<text x="426.2" y="522.0" font-size="11.0" fill="#333333">Sometimes. Mostly I miss the boredom. Being bored meant</text>
<text x="426.2" y="536.0" font-size="11.0" fill="#333333">everything was safe.</text>
<text x="759.0" y="449.0" text-anchor="end" font-size="12" font-weight="bold" fill="#888888" opacity="0.6">3</text>
<text x="765.0" y="791.0" text-anchor="end" font-size="9" fill="#888888" opacity="0.5">MCU</text>
<rect x="29.0" y="807.0" width="742.0" height="364.0" rx="2" fill="#f5f0e8" stroke="#2a2a2a" stroke-width="1.5"/>
<line x1="35.0" y1="1090.9" x2="765.0" y2="1090.9" stroke="#a89888" stroke-width="1.0" opacity="0.5"/>
<ellipse cx="276.3" cy="1092.9" rx="11.2" ry="2.7" fill="#a89888" opacity="0.2"/>
<line x1="273.6" y1="1075.2" x2="269.6" y2="1090.9" stroke="#2e8b57" stroke-width="2" opacity="0.5"/>
<line x1="279.0" y1="1075.2" x2="283.1" y2="1090.9" stroke="#2e8b57" stroke-width="2" opacity="0.5"/>
<line x1="276.3" y1="1062.1" x2="276.3" y2="1075.2" stroke="#2e8b57" stroke-width="2.5" opacity="0.6"/>
<line x1="262.8" y1="1064.1" x2="289.8" y2="1064.1" stroke="#2e8b57" stroke-width="2" opacity="0.5"/>
<line x1="262.8" y1="1064.1" x2="258.3" y2="1075.6" stroke="#2e8b57" stroke-width="1.5" opacity="0.4"/>
<line x1="289.8" y1="1064.1" x2="294.3" y2="1075.6" stroke="#2e8b57" stroke-width="1.5" opacity="0.4"/>
<circle cx="276.3" cy="1045.9" r="8.1" fill="#2e8b57" opacity="0.6"/>
<ellipse cx="523.7" cy="1092.9" rx="11.2" ry="2.7" fill="#a89888" opacity="0.2"/>
<line x1="521.0" y1="1075.2" x2="516.9" y2="1090.9" stroke="#c49a6c" stroke-width="2" opacity="0.5"/>
<line x1="526.4" y1="1075.2" x2="530.4" y2="1090.9" stroke="#c49a6c" stroke-width="2" opacity="0.5"/>
<line x1="523.7" y1="1062.1" x2="523.7" y2="1075.2" stroke="#c49a6c" stroke-width="2.5" opacity="0.6"/>
<line x1="510.2" y1="1064.1" x2="537.2" y2="1064.1" stroke="#c49a6c" stroke-width="2" opacity="0.5"/>
<line x1="510.2" y1="1064.1" x2="505.7" y2="1075.6" stroke="#c49a6c" stroke-width="1.5" opacity="0.4"/>
<line x1="537.2" y1="1064.1" x2="541.7" y2="1075.6" stroke="#c49a6c" stroke-width="1.5" opacity="0.4"/>
<circle cx="523.7" cy="1045.9" r="8.1" fill="#c49a6c" opacity="0.6"/>
<rect x="35.0" y="815.0" width="108.8" height="40.0" rx="6" fill="white" stroke="#2e8b57" stroke-width="1.0" opacity="0.92"/>
<polygon points="67.6,855.0 75.6,855.0 64.6,863.0" fill="white" stroke="#2e8b57" stroke-width="0.8"/>
<line x1="67.1" y1="855.0" x2="76.1" y2="855.0" stroke="white" stroke-width="1.5"/>
<text x="41.0" y="832.0" font-size="11.0" fill="#2e8b57" font-weight="700">JINK</text>
<text x="41.0" y="846.0" font-size="11.0" fill="#333333">That's it, then.</text>
<rect x="335.5" y="865.0" width="429.5" height="40.0" rx="6" fill="white" stroke="#c49a6c" stroke-width="1.0" opacity="0.92"/>
<polygon points="464.4,905.0 472.4,905.0 461.4,913.0" fill="white" stroke="#c49a6c" stroke-width="0.8"/>
<line x1="463.9" y1="905.0" x2="472.9" y2="905.0" stroke="white" stroke-width="1.5"/>
<text x="341.5" y="882.0" font-size="11.0" fill="#c49a6c" font-weight="700">THEODORE</text>
<text x="341.5" y="896.0" font-size="11.0" fill="#333333">The keeper will have lit the lamp by now. It'll be burning all night.</text>
<rect x="35.0" y="915.0" width="187.5" height="40.0" rx="6" fill="white" stroke="#2e8b57" stroke-width="1.0" opacity="0.92"/>
<polygon points="91.2,955.0 99.2,955.0 88.2,963.0" fill="white" stroke="#2e8b57" stroke-width="0.8"/>
<line x1="90.7" y1="955.0" x2="99.7" y2="955.0" stroke="white" stroke-width="1.5"/>
<text x="41.0" y="932.0" font-size="11.0" fill="#2e8b57" font-weight="700">JINK</text>
<text x="41.0" y="946.0" font-size="11.0" fill="#333333">We wait for the others. Dusk.</text>
<text x="759.0" y="823.0" text-anchor="end" font-size="12" font-weight="bold" fill="#888888" opacity="0.6">4</text>
<text x="765.0" y="1165.0" text-anchor="end" font-size="9" fill="#888888" opacity="0.5">WIDE</text>
</svg>