<svg xmlns="http://www.w3.org/2000/svg" viewBox="0 0 800 1200" width="800" height="1200" style="background:#ffffff">
<style>
  text { font-family: "Helvetica Neue", Helvetica, Arial, sans-serif; }
</style>
<text x="400.0" y="22" text-anchor="middle" font-size="16" fill="#888888" font-weight="500">PAGE 7  (5 panels)</text>
<rect x="29.0" y="59.0" width="742.0" height="364.0" rx="2" fill="#f5f0e8" stroke="#2a2a2a" stroke-width="1.5"/>
<line x1="35.0" y1="342.9" x2="765.0" y2="342.9" stroke="#a89888" stroke-width="1.0" opacity="0.5"/>
<ellipse cx="276.3" cy="344.9" rx="11.2" ry="2.7" fill="#a89888" opacity="0.2"/>
<line x1="273.6" y1="327.2" x2="269.6" y2="342.9" stroke="#c49a6c" stroke-width="2" opacity="0.5"/>
<line x1="279.0" y1="327.2" x2="283.1" y2="342.9" stroke="#c49a6c" stroke-width="2" opacity="0.5"/>
<line x1="276.3" y1="314.1" x2="276.3" y2="327.2" stroke="#c49a6c" stroke-width="2.5" opacity="0.6"/>
<line x1="262.8" y1="316.1" x2="289.8" y2="316.1" stroke="#c49a6c" stroke-width="2" opacity="0.5"/>
<line x1="262.8" y1="316.1" x2="258.3" y2="327.6" stroke="#c49a6c" stroke-width="1.5" opacity="0.4"/>
<line x1="289.8" y1="316.1" x2="294.3" y2="327.6" stroke="#c49a6c" stroke-width="1.5" opacity="0.4"/>
<circle cx="276.3" cy="297.9" r="8.1" fill="#c49a6c" opacity="0.6"/>
<ellipse cx="523.7" cy="344.9" rx="11.2" ry="2.7" fill="#a89888" opacity="0.2"/>
<line x1="521.0" y1="327.2" x2="516.9" y2="342.9" stroke="#6a5acd" stroke-width="2" opacity="0.5"/>
<line x1="526.4" y1="327.2" x2="530.4" y2="342.9" stroke="#6a5acd" stroke-width="2" opacity="0.5"/>
<line x1="523.7" y1="314.1" x2="523.7" y2="327.2" stroke="#6a5acd" stroke-width="2.5" opacity="0.6"/>
<line x1="510.2" y1="316.1" x2="537.2" y2="316.1" stroke="#6a5acd" stroke-width="2" opacity="0.5"/>
<line x1="510.2" y1="316.1" x2="505.7" y2="327.6" stroke="#6a5acd" stroke-width="1.5" opacity="0.4"/>
<line x1="537.2" y1="316.1" x2="541.7" y2="327.6" stroke="#6a5acd" stroke-width="1.5" opacity="0.4"/>
<circle cx="523.7" cy="297.9" r="8.1" fill="#6a5acd" opacity="0.6"/>
<rect x="35.0" y="67.0" width="502.1" height="40.0" rx="6" fill="white" stroke="#c49a6c" stroke-width="1.0" opacity="0.92"/>
<polygon points="185.6,107.0 193.6,107.0 182.6,115.0" fill="white" stroke="#c49a6c" stroke-width="0.8"/>
<line x1="185.1" y1="107.0" x2="194.1" y2="107.0" stroke="white" stroke-width="1.5"/>
<text x="41.0" y="84.0" font-size="11.0" fill="#c49a6c" font-weight="700">THEODORE</text>
<text x="41.0" y="98.0" font-size="11.0" fill="#333333">The old parish is past the brewery. Not many go there since they shut the church.</text>
<rect x="583.6" y="117.0" width="181.4" height="40.0" rx="6" fill="white" stroke="#6a5acd" stroke-width="1.0" opacity="0.92"/>
<polygon points="638.0,157.0 646.0,157.0 635.0,165.0" fill="white" stroke="#6a5acd" stroke-width="0.8"/>
<line x1="637.5" y1="157.0" x2="646.5" y2="157.0" stroke="white" stroke-width="1.5"/>
<text x="589.6" y="134.0" font-size="11.0" fill="#6a5acd" font-weight="700">LUMA</text>
<text x="589.6" y="148.0" font-size="11.0" fill="#333333">How long has it been closed?</text>
<rect x="35.0" y="167.0" width="550.5" height="40.0" rx="6" fill="white" stroke="#c49a6c" stroke-width="1.0" opacity="0.92"/>
<polygon points="200.1,207.0 208.1,207.0 197.1,215.0" fill="white" stroke="#c49a6c" stroke-width="0.8"/>
<line x1="199.6" y1="207.0" x2="208.6" y2="207.0" stroke="white" stroke-width="1.5"/>
<text x="41.0" y="184.0" font-size="11.0" fill="#c49a6c" font-weight="700">THEODORE</text>
<text x="41.0" y="198.0" font-size="11.0" fill="#333333">Twenty years, I think. Maybe more. Mr. Cribbage said it were condemned when he was a boy.</text>
<text x="759.0" y="75.0" text-anchor="end" font-size="12" font-weight="bold" fill="#888888" opacity="0.6">1</text>
<text x="765.0" y="417.0" text-anchor="end" font-size="9" fill="#888888" opacity="0.5">EST</text>
<rect x="29.0" y="433.0" width="366.0" height="364.0" rx="2" fill="#f5f0e8" stroke="#2a2a2a" stroke-width="1.5"/>
<ellipse cx="212.0" cy="585.9" rx="114.7" ry="163.8" fill="#6a5acd" opacity="0.18"/>
<path d="M91.6,528.5 Q212.0,397.5 332.4,528.5" fill="none" stroke="#6a5acd" stroke-width="3" opacity="0.35"/>
<line x1="171.9" y1="549.8" x2="206.3" y2="547.8" stroke="#a89888" stroke-width="1.5" opacity="0.45"/>
<line x1="217.7" y1="547.8" x2="252.1" y2="549.8" stroke="#a89888" stroke-width="1.5" opacity="0.45"/>
<ellipse cx="179.9" cy="566.2" rx="13.8" ry="8.2" fill="#a89888" opacity="0.45"/>
<ellipse cx="244.1" cy="566.2" rx="13.8" ry="8.2" fill="#a89888" opacity="0.45"/>
<line x1="212.0" y1="589.2" x2="212.0" y2="615.4" stroke="#a89888" stroke-width="1.2" opacity="0.35"/>
<path d="M205.1,615.4 Q212.0,618.4 218.9,615.4" fill="none" stroke="#a89888" stroke-width="1" opacity="0.3"/>
<line x1="183.3" y1="638.3" x2="240.7" y2="638.3" stroke="#a89888" stroke-width="1.2" opacity="0.35"/>
<rect x="35.0" y="441.0" width="354.0" height="54.0" rx="6" fill="white" stroke="#6a5acd" stroke-width="1.0" opacity="0.92"/>
<polygon points="141.2,495.0 149.2,495.0 138.2,503.0" fill="white" stroke="#6a5acd" stroke-width="0.8"/>
<line x1="140.7" y1="495.0" x2="149.7" y2="495.0" stroke="white" stroke-width="1.5"/>
<text x="41.0" y="458.0" font-size="11.0" fill="#6a5acd" font-weight="700">LUMA</text>
<text x="41.0" y="472.0" font-size="11.0" fill="#333333">Left at the next corner. There's a marker on the wall — I</text>
<text x="41.0" y="486.0" font-size="11.0" fill="#333333">can feel the resonance already.</text>
<text x="383.0" y="449.0" text-anchor="end" font-size="12" font-weight="bold" fill="#888888" opacity="0.6">2</text>
<text x="389.0" y="791.0" text-anchor="end" font-size="9" fill="#888888" opacity="0.5">CU</text>
<rect x="405.0" y="433.0" width="366.0" height="364.0" rx="2" fill="#f5f0e8" stroke="#2a2a2a" stroke-width="1.5"/>
<path d="M529.4,695.1 L534.8,648.6 Q540.1,644.6 571.8,644.6 L604.2,644.6 Q635.9,644.6 641.2,648.6 L646.6,695.1 Z" fill="#c49a6c" opacity="0.35"/>
<line x1="534.8" y1="670.5" x2="641.2" y2="670.5" stroke="#c49a6c" stroke-width="1" opacity="0.3"/>
<line x1="534.8" y1="648.6" x2="513.5" y2="689.5" stroke="#c49a6c" stroke-width="2" opacity="0.3"/>
<line x1="513.5" y1="689.5" x2="529.4" y2="714.1" stroke="#c49a6c" stroke-width="2" opacity="0.3"/>
<line x1="641.2" y1="648.6" x2="662.5" y2="689.5" stroke="#c49a6c" stroke-width="2" opacity="0.3"/>
<line x1="662.5" y1="689.5" x2="646.6" y2="714.1" stroke="#c49a6c" stroke-width="2" opacity="0.3"/>
<line x1="588.0" y1="571.7" x2="588.0" y2="644.6" stroke="#c49a6c" stroke-width="3" opacity="0.35"/>
<circle cx="588.0" cy="531.3" r="40.5" fill="#c49a6c" opacity="0.4"/>
<rect x="411.0" y="441.0" width="181.4" height="40.0" rx="6" fill="white" stroke="#c49a6c" stroke-width="1.0" opacity="0.92"/>
<polygon points="465.4,481.0 473.4,481.0 462.4,489.0" fill="white" stroke="#c49a6c" stroke-width="0.8"/>
<line x1="464.9" y1="481.0" x2="473.9" y2="481.0" stroke="white" stroke-width="1.5"/>
<text x="417.0" y="458.0" font-size="11.0" fill="#c49a6c" font-weight="700">THEODORE</text>
<text x="417.0" y="472.0" font-size="11.0" fill="#333333">Here. Is this what you mean?</text>
<rect x="426.3" y="491.0" width="338.7" height="54.0" rx="6" fill="white" stroke="#6a5acd" stroke-width="1.0" opacity="0.92"/>
<polygon points="527.9,545.0 535.9,545.0 524.9,553.0" fill="white" stroke="#6a5acd" stroke-width="0.8"/>
<line x1="527.4" y1="545.0" x2="536.4" y2="545.0" stroke="white" stroke-width="1.5"/>
<text x="432.3" y="508.0" font-size="11.0" fill="#6a5acd" font-weight="700">LUMA</text>
<text x="432.3" y="522.0" font-size="11.0" fill="#333333">Don't touch it — no, actually, press your thumb to the</text>
<text x="432.3" y="536.0" font-size="11.0" fill="#333333">center. My scanner can read the pressure response.</text>
<text x="759.0" y="449.0" text-anchor="end" font-size="12" font-weight="bold" fill="#888888" opacity="0.6">3</text>
<text x="765.0" y="791.0" text-anchor="end" font-size="9" fill="#888888" opacity="0.5">MED</text>
<rect x="29.0" y="807.0" width="493.8" height="364.0" rx="2" fill="#f5f0e8" stroke="#2a2a2a" stroke-width="1.5"/>
<line x1="35.0" y1="1090.9" x2="516.8" y2="1090.9" stroke="#a89888" stroke-width="1.0" opacity="0.5"/>
<ellipse cx="193.6" cy="1092.9" rx="11.2" ry="2.7" fill="#a89888" opacity="0.2"/>
<line x1="190.9" y1="1075.2" x2="186.9" y2="1090.9" stroke="#c49a6c" stroke-width="2" opacity="0.5"/>
<line x1="196.3" y1="1075.2" x2="200.4" y2="1090.9" stroke="#c49a6c" stroke-width="2" opacity="0.5"/>
<line x1="193.6" y1="1062.1" x2="193.6" y2="1075.2" stroke="#c49a6c" stroke-width="2.5" opacity="0.6"/>
<line x1="180.1" y1="1064.1" x2="207.1" y2="1064.1" stroke="#c49a6c" stroke-width="2" opacity="0.5"/>
<line x1="180.1" y1="1064.1" x2="175.6" y2="1075.6" stroke="#c49a6c" stroke-width="1.5" opacity="0.4"/>
<line x1="207.1" y1="1064.1" x2="211.6" y2="1075.6" stroke="#c49a6c" stroke-width="1.5" opacity="0.4"/>
<circle cx="193.6" cy="1045.9" r="8.1" fill="#c49a6c" opacity="0.6"/>
<ellipse cx="358.2" cy="1092.9" rx="11.2" ry="2.7" fill="#a89888" opacity="0.2"/>
<line x1="355.5" y1="1075.2" x2="351.5" y2="1090.9" stroke="#6a5acd" stroke-width="2" opacity="0.5"/>
<line x1="360.9" y1="1075.2" x2="365.0" y2="1090.9" stroke="#6a5acd" stroke-width="2" opacity="0.5"/>
<line x1="358.2" y1="1062.1" x2="358.2" y2="1075.2" stroke="#6a5acd" stroke-width="2.5" opacity="0.6"/>
<line x1="344.7" y1="1064.1" x2="371.7" y2="1064.1" stroke="#6a5acd" stroke-width="2" opacity="0.5"/>
<line x1="344.7" y1="1064.1" x2="340.2" y2="1075.6" stroke="#6a5acd" stroke-width="1.5" opacity="0.4"/>
<line x1="371.7" y1="1064.1" x2="376.2" y2="1075.6" stroke="#6a5acd" stroke-width="1.5" opacity="0.4"/>
<circle cx="358.2" cy="1045.9" r="8.1" fill="#6a5acd" opacity="0.6"/>
<rect x="35.0" y="815.0" width="481.8" height="54.0" rx="6" fill="white" stroke="#c49a6c" stroke-width="1.0" opacity="0.92"/>
<polygon points="179.6,869.0 187.6,869.0 176.6,877.0" fill="white" stroke="#c49a6c" stroke-width="0.8"/>
<line x1="179.1" y1="869.0" x2="188.1" y2="869.0" stroke="white" stroke-width="1.5"/>
<text x="41.0" y="832.0" font-size="11.0" fill="#c49a6c" font-weight="700">THEODORE</text>
<text x="41.0" y="846.0" font-size="11.0" fill="#333333">My dad brought me here once. Said the oldest buildings in London are hidden behind</text>
<text x="41.0" y="860.0" font-size="11.0" fill="#333333">the new ones.</text>
<rect x="147.9" y="879.0" width="369.0" height="40.0" rx="6" fill="white" stroke="#6a5acd" stroke-width="1.0" opacity="0.92"/>
<polygon points="258.6,919.0 266.6,919.0 255.6,927.0" fill="white" stroke="#6a5acd" stroke-width="0.8"/>
<line x1="258.1" y1="919.0" x2="267.1" y2="919.0" stroke="white" stroke-width="1.5"/>
<text x="153.9" y="896.0" font-size="11.0" fill="#6a5acd" font-weight="700">LUMA</text>
<text x="153.9" y="910.0" font-size="11.0" fill="#333333">He was right. The glyph density is increasing. We're close.</text>
<text x="510.8" y="823.0" text-anchor="end" font-size="12" font-weight="bold" fill="#888888" opacity="0.6">4</text>
<text x="516.8" y="1165.0" text-anchor="end" font-size="9" fill="#888888" opacity="0.5">WIDE</text>
<rect x="532.8" y="807.0" width="238.2" height="364.0" rx="2" fill="#f5f0e8" stroke="#2a2a2a" stroke-width="1.5"/>
<ellipse cx="651.9" cy="959.9" rx="95.3" ry="163.8" fill="#6a5acd" opacity="0.18"/>
<path d="M551.9,902.5 Q651.9,771.5 751.9,902.5" fill="none" stroke="#6a5acd" stroke-width="3" opacity="0.35"/>
<line x1="618.6" y1="923.8" x2="647.2" y2="921.8" stroke="#a89888" stroke-width="1.5" opacity="0.45"/>
<line x1="656.7" y1="921.8" x2="685.3" y2="923.8" stroke="#a89888" stroke-width="1.5" opacity="0.45"/>
<ellipse cx="625.2" cy="940.2" rx="11.4" ry="8.2" fill="#a89888" opacity="0.45"/>
<ellipse cx="678.6" cy="940.2" rx="11.4" ry="8.2" fill="#a89888" opacity="0.45"/>
<line x1="651.9" y1="963.2" x2="651.9" y2="989.4" stroke="#a89888" stroke-width="1.2" opacity="0.35"/>
<path d="M646.2,989.4 Q651.9,992.4 657.6,989.4" fill="none" stroke="#a89888" stroke-width="1" opacity="0.3"/>
<line x1="628.1" y1="1012.3" x2="675.7" y2="1012.3" stroke="#a89888" stroke-width="1.2" opacity="0.35"/>
<rect x="538.8" y="815.0" width="221.0" height="77.0" rx="6" fill="white" stroke="#6a5acd" stroke-width="1.0" opacity="0.92"/>
<polygon points="605.1,892.0 613.1,892.0 602.1,900.0" fill="white" stroke="#6a5acd" stroke-width="0.8"/>
<line x1="604.6" y1="892.0" x2="613.6" y2="892.0" stroke="white" stroke-width="1.5"/>
<text x="544.8" y="831.0" font-size="10.0" fill="#6a5acd" font-weight="700">LUMA</text>
<text x="544.8" y="844.0" font-size="10.0" fill="#333333">Fourteenth century. This one is older.</text>
<text x="544.8" y="857.0" font-size="10.0" fill="#333333">The script is an older dialect — the</text>
<text x="544.8" y="870.0" font-size="10.0" fill="#333333">geometric forms are simpler, more</text>
<text x="544.8" y="883.0" font-size="10.0" fill="#333333">angular.</text>
<text x="759.0" y="823.0" text-anchor="end" font-size="12" font-weight="bold" fill="#888888" opacity="0.6">5</text>
<text x="765.0" y="1165.0" text-anchor="end" font-size="9" fill="#888888" opacity="0.5">CU</text>
</svg>