<svg xmlns="http://www.w3.org/2000/svg" viewBox="0 0 800 1200" width="800" height="1200" style="background:#ffffff">
<style>
  text { font-family: "Helvetica Neue", Helvetica, Arial, sans-serif; }
</style>
<text x="400.0" y="22" text-anchor="middle" font-size="16" fill="#888888" font-weight="500">PAGE 3  (4 panels)</text>
<rect x="29.0" y="59.0" width="366.0" height="457.5" rx="2" fill="#f5f0e8" stroke="#2a2a2a" stroke-width="1.5"/>
<path d="M141.5,388.4 L147.9,322.8 Q154.4,318.8 192.5,318.8 L231.5,318.8 Q269.6,318.8 276.1,322.8 L282.5,388.4 Z" fill="#b0b0b0" opacity="0.35"/>
<line x1="147.9" y1="357.5" x2="276.1" y2="357.5" stroke="#b0b0b0" stroke-width="1" opacity="0.3"/>
<line x1="147.9" y1="322.8" x2="122.3" y2="374.3" stroke="#b0b0b0" stroke-width="2" opacity="0.3"/>
<line x1="122.3" y1="374.3" x2="141.5" y2="405.2" stroke="#b0b0b0" stroke-width="2" opacity="0.3"/>
<line x1="276.1" y1="322.8" x2="301.7" y2="374.3" stroke="#b0b0b0" stroke-width="2" opacity="0.3"/>
<line x1="301.7" y1="374.3" x2="282.5" y2="405.2" stroke="#b0b0b0" stroke-width="2" opacity="0.3"/>
<line x1="212.0" y1="231.2" x2="212.0" y2="318.8" stroke="#b0b0b0" stroke-width="3" opacity="0.35"/>
<circle cx="212.0" cy="182.5" r="48.7" fill="#b0b0b0" opacity="0.4"/>
<rect x="35.0" y="67.0" width="354.0" height="68.0" rx="6" fill="white" stroke="#b0b0b0" stroke-width="1.0" opacity="0.92"/>
<polygon points="141.2,135.0 149.2,135.0 138.2,143.0" fill="white" stroke="#b0b0b0" stroke-width="0.8"/>
<line x1="140.7" y1="135.0" x2="149.7" y2="135.0" stroke="white" stroke-width="1.5"/>
<text x="41.0" y="84.0" font-size="11.0" fill="#b0b0b0" font-weight="700">SABLE</text>
<text x="41.0" y="98.0" font-size="11.0" fill="#333333">If there is a sealed lower level — foundation-era,</text>
<text x="41.0" y="112.0" font-size="11.0" fill="#333333">pre-church construction — that is where you will find what</text>
<text x="41.0" y="126.0" font-size="11.0" fill="#333333">you are looking for. Focus there.</text>
<rect x="219.7" y="145.0" width="169.3" height="40.0" rx="6" fill="white" stroke="#6a5acd" stroke-width="1.0" opacity="0.92"/>
<polygon points="270.5,185.0 278.5,185.0 267.5,193.0" fill="white" stroke="#6a5acd" stroke-width="0.8"/>
<line x1="270.0" y1="185.0" x2="279.0" y2="185.0" stroke="white" stroke-width="1.5"/>
<text x="225.7" y="162.0" font-size="11.0" fill="#6a5acd" font-weight="700">LUMA</text>
<text x="225.7" y="176.0" font-size="11.0" fill="#333333">How do you know there's a—</text>
<rect x="35.0" y="195.0" width="302.4" height="40.0" rx="6" fill="white" stroke="#b0b0b0" stroke-width="1.0" opacity="0.92"/>
<polygon points="125.7,235.0 133.7,235.0 122.7,243.0" fill="white" stroke="#b0b0b0" stroke-width="0.8"/>
<line x1="125.2" y1="235.0" x2="134.2" y2="235.0" stroke="white" stroke-width="1.5"/>
<text x="41.0" y="212.0" font-size="11.0" fill="#b0b0b0" font-weight="700">SABLE</text>
<text x="41.0" y="226.0" font-size="11.0" fill="#333333">I do not. I am extrapolating from your data. Go.</text>
<text x="383.0" y="75.0" text-anchor="end" font-size="12" font-weight="bold" fill="#888888" opacity="0.6">1</text>
<text x="389.0" y="510.5" text-anchor="end" font-size="9" fill="#888888" opacity="0.5">MED</text>
<rect x="405.0" y="59.0" width="366.0" height="457.5" rx="2" fill="#f5f0e8" stroke="#2a2a2a" stroke-width="1.5"/>
<ellipse cx="588.0" cy="251.2" rx="144.1" ry="205.9" fill="#c87533" opacity="0.18"/>
<path d="M436.7,179.1 Q588.0,14.4 739.3,179.1" fill="none" stroke="#c87533" stroke-width="3" opacity="0.35"/>
<line x1="537.6" y1="205.9" x2="580.8" y2="203.9" stroke="#a89888" stroke-width="1.5" opacity="0.45"/>
<line x1="595.2" y1="203.9" x2="638.4" y2="205.9" stroke="#a89888" stroke-width="1.5" opacity="0.45"/>
<ellipse cx="547.6" cy="226.4" rx="17.3" ry="10.3" fill="#a89888" opacity="0.45"/>
<ellipse cx="628.4" cy="226.4" rx="17.3" ry="10.3" fill="#a89888" opacity="0.45"/>
<line x1="588.0" y1="255.3" x2="588.0" y2="288.2" stroke="#a89888" stroke-width="1.2" opacity="0.35"/>
<path d="M579.4,288.2 Q588.0,291.2 596.6,288.2" fill="none" stroke="#a89888" stroke-width="1" opacity="0.3"/>
<line x1="552.0" y1="317.0" x2="624.0" y2="317.0" stroke="#a89888" stroke-width="1.2" opacity="0.35"/>
<rect x="411.0" y="67.0" width="354.0" height="54.0" rx="6" fill="white" stroke="#c87533" stroke-width="1.0" opacity="0.92"/>
<polygon points="517.2,121.0 525.2,121.0 514.2,129.0" fill="white" stroke="#c87533" stroke-width="0.8"/>
<line x1="516.7" y1="121.0" x2="525.7" y2="121.0" stroke="white" stroke-width="1.5"/>
<text x="417.0" y="84.0" font-size="11.0" fill="#c87533" font-weight="700">WREN</text>
<text x="417.0" y="98.0" font-size="11.0" fill="#333333">She knew. Before Luma said anything about prior operatives,</text>
<text x="417.0" y="112.0" font-size="11.0" fill="#333333">Sable already knew.</text>
<rect x="650.1" y="131.0" width="114.9" height="40.0" rx="6" fill="white" stroke="#2e8b57" stroke-width="1.0" opacity="0.92"/>
<polygon points="684.6,171.0 692.6,171.0 681.6,179.0" fill="white" stroke="#2e8b57" stroke-width="0.8"/>
<line x1="684.1" y1="171.0" x2="693.1" y2="171.0" stroke="white" stroke-width="1.5"/>
<text x="656.1" y="148.0" font-size="11.0" fill="#2e8b57" font-weight="700">JINK</text>
<text x="656.1" y="162.0" font-size="11.0" fill="#333333">Maybe she's just—</text>
<rect x="411.0" y="181.0" width="354.0" height="54.0" rx="6" fill="white" stroke="#c87533" stroke-width="1.0" opacity="0.92"/>
<polygon points="517.2,235.0 525.2,235.0 514.2,243.0" fill="white" stroke="#c87533" stroke-width="0.8"/>
<line x1="516.7" y1="235.0" x2="525.7" y2="235.0" stroke="white" stroke-width="1.5"/>
<text x="417.0" y="198.0" font-size="11.0" fill="#c87533" font-weight="700">WREN</text>
<text x="417.0" y="212.0" font-size="11.0" fill="#333333">She told Luma to look for a sealed lower level. Luma never</text>
<text x="417.0" y="226.0" font-size="11.0" fill="#333333">mentioned sealed anything.</text>
<text x="759.0" y="75.0" text-anchor="end" font-size="12" font-weight="bold" fill="#888888" opacity="0.6">2</text>
<text x="765.0" y="510.5" text-anchor="end" font-size="9" fill="#888888" opacity="0.5">CU</text>
<rect x="29.0" y="526.5" width="742.0" height="457.5" rx="2" fill="#f5f0e8" stroke="#2a2a2a" stroke-width="1.5"/>
<line x1="35.0" y1="883.4" x2="765.0" y2="883.4" stroke="#a89888" stroke-width="1.0" opacity="0.5"/>
<ellipse cx="276.3" cy="885.4" rx="11.2" ry="2.7" fill="#a89888" opacity="0.2"/>
<line x1="273.6" y1="867.6" x2="269.6" y2="883.4" stroke="#b22222" stroke-width="2" opacity="0.5"/>
<line x1="279.0" y1="867.6" x2="283.1" y2="883.4" stroke="#b22222" stroke-width="2" opacity="0.5"/>
<line x1="276.3" y1="854.6" x2="276.3" y2="867.6" stroke="#b22222" stroke-width="2.5" opacity="0.6"/>
<line x1="262.8" y1="856.6" x2="289.8" y2="856.6" stroke="#b22222" stroke-width="2" opacity="0.5"/>
<line x1="262.8" y1="856.6" x2="258.3" y2="868.1" stroke="#b22222" stroke-width="1.5" opacity="0.4"/>
<line x1="289.8" y1="856.6" x2="294.3" y2="868.1" stroke="#b22222" stroke-width="1.5" opacity="0.4"/>
<circle cx="276.3" cy="838.4" r="8.1" fill="#b22222" opacity="0.6"/>
<ellipse cx="523.7" cy="885.4" rx="11.2" ry="2.7" fill="#a89888" opacity="0.2"/>
<line x1="521.0" y1="867.6" x2="516.9" y2="883.4" stroke="#b0b0b0" stroke-width="2" opacity="0.5"/>
<line x1="526.4" y1="867.6" x2="530.4" y2="883.4" stroke="#b0b0b0" stroke-width="2" opacity="0.5"/>
<line x1="523.7" y1="854.6" x2="523.7" y2="867.6" stroke="#b0b0b0" stroke-width="2.5" opacity="0.6"/>
<line x1="510.2" y1="856.6" x2="537.2" y2="856.6" stroke="#b0b0b0" stroke-width="2" opacity="0.5"/>
<line x1="510.2" y1="856.6" x2="505.7" y2="868.1" stroke="#b0b0b0" stroke-width="1.5" opacity="0.4"/>
<line x1="537.2" y1="856.6" x2="541.7" y2="868.1" stroke="#b0b0b0" stroke-width="1.5" opacity="0.4"/>
<circle cx="523.7" cy="838.4" r="8.1" fill="#b0b0b0" opacity="0.6"/>
<rect x="35.0" y="534.5" width="369.0" height="40.0" rx="6" fill="white" stroke="#b22222" stroke-width="1.0" opacity="0.92"/>
<polygon points="145.7,574.5 153.7,574.5 142.7,582.5" fill="white" stroke="#b22222" stroke-width="0.8"/>
<line x1="145.2" y1="574.5" x2="154.2" y2="574.5" stroke="white" stroke-width="1.5"/>
<text x="41.0" y="551.5" font-size="11.0" fill="#b22222" font-weight="700">THRESH</text>
<text x="41.0" y="565.5" font-size="11.0" fill="#333333">I'll take first watch. Alley south of the carpenter's shop.</text>
<rect x="468.6" y="584.5" width="296.4" height="40.0" rx="6" fill="white" stroke="#b0b0b0" stroke-width="1.0" opacity="0.92"/>
<polygon points="557.6,624.5 565.6,624.5 554.6,632.5" fill="white" stroke="#b0b0b0" stroke-width="0.8"/>
<line x1="557.1" y1="624.5" x2="566.1" y2="624.5" stroke="white" stroke-width="1.5"/>
<text x="474.6" y="601.5" font-size="11.0" fill="#b0b0b0" font-weight="700">SABLE</text>
<text x="474.6" y="615.5" font-size="11.0" fill="#333333">Acknowledged. Jink relieves at oh-four-hundred.</text>
<text x="759.0" y="542.5" text-anchor="end" font-size="12" font-weight="bold" fill="#888888" opacity="0.6">3</text>
<text x="765.0" y="978.0" text-anchor="end" font-size="9" fill="#888888" opacity="0.5">WIDE</text>
<rect x="29.0" y="994.0" width="742.0" height="177.0" rx="2" fill="#f5f0e8" stroke="#2a2a2a" stroke-width="1.5"/>
<ellipse cx="400.0" cy="1068.3" rx="55.8" ry="79.7" fill="#c0b8a8" opacity="0.18"/>
<path d="M341.5,1040.5 Q400.0,976.7 458.5,1040.5" fill="none" stroke="#c0b8a8" stroke-width="3" opacity="0.35"/>
<line x1="380.5" y1="1050.8" x2="397.2" y2="1048.8" stroke="#a89888" stroke-width="1.5" opacity="0.45"/>
<line x1="402.8" y1="1048.8" x2="419.5" y2="1050.8" stroke="#a89888" stroke-width="1.5" opacity="0.45"/>
<ellipse cx="384.4" cy="1058.8" rx="6.7" ry="4.0" fill="#a89888" opacity="0.45"/>
<ellipse cx="415.6" cy="1058.8" rx="6.7" ry="4.0" fill="#a89888" opacity="0.45"/>
<line x1="400.0" y1="1069.9" x2="400.0" y2="1082.7" stroke="#a89888" stroke-width="1.2" opacity="0.35"/>
<path d="M396.7,1082.7 Q400.0,1085.7 403.3,1082.7" fill="none" stroke="#a89888" stroke-width="1" opacity="0.3"/>
<line x1="386.1" y1="1093.8" x2="413.9" y2="1093.8" stroke="#a89888" stroke-width="1.2" opacity="0.35"/>
<text x="759.0" y="1010.0" text-anchor="end" font-size="12" font-weight="bold" fill="#888888" opacity="0.6">4</text>
<text x="765.0" y="1165.0" text-anchor="end" font-size="9" fill="#888888" opacity="0.5">CU</text>
</svg>