<svg xmlns="http://www.w3.org/2000/svg" viewBox="0 0 800 1200" width="800" height="1200" style="background:#ffffff">
<style>
  text { font-family: "Helvetica Neue", Helvetica, Arial, sans-serif; }
</style>
<text x="400.0" y="22" text-anchor="middle" font-size="16" fill="#888888" font-weight="500">PAGE 11  (4 panels)</text>
<rect x="29.0" y="59.0" width="742.0" height="1112.0" rx="2" fill="#f5f0e8" stroke="#2a2a2a" stroke-width="1.5"/>
<line x1="35.0" y1="926.4" x2="765.0" y2="926.4" stroke="#a89888" stroke-width="1.0" opacity="0.5"/>
<ellipse cx="276.3" cy="928.4" rx="11.2" ry="2.7" fill="#a89888" opacity="0.2"/>
<line x1="273.6" y1="910.6" x2="269.6" y2="926.4" stroke="#6a5acd" stroke-width="2" opacity="0.5"/>
<line x1="279.0" y1="910.6" x2="283.1" y2="926.4" stroke="#6a5acd" stroke-width="2" opacity="0.5"/>
<line x1="276.3" y1="897.6" x2="276.3" y2="910.6" stroke="#6a5acd" stroke-width="2.5" opacity="0.6"/>
<line x1="262.8" y1="899.6" x2="289.8" y2="899.6" stroke="#6a5acd" stroke-width="2" opacity="0.5"/>
<line x1="262.8" y1="899.6" x2="258.3" y2="911.1" stroke="#6a5acd" stroke-width="1.5" opacity="0.4"/>
<line x1="289.8" y1="899.6" x2="294.3" y2="911.1" stroke="#6a5acd" stroke-width="1.5" opacity="0.4"/>
<circle cx="276.3" cy="881.4" r="8.1" fill="#6a5acd" opacity="0.6"/>
<ellipse cx="523.7" cy="928.4" rx="11.2" ry="2.7" fill="#a89888" opacity="0.2"/>
<line x1="521.0" y1="910.6" x2="516.9" y2="926.4" stroke="#c49a6c" stroke-width="2" opacity="0.5"/>
<line x1="526.4" y1="910.6" x2="530.4" y2="926.4" stroke="#c49a6c" stroke-width="2" opacity="0.5"/>
<line x1="523.7" y1="897.6" x2="523.7" y2="910.6" stroke="#c49a6c" stroke-width="2.5" opacity="0.6"/>
<line x1="510.2" y1="899.6" x2="537.2" y2="899.6" stroke="#c49a6c" stroke-width="2" opacity="0.5"/>
<line x1="510.2" y1="899.6" x2="505.7" y2="911.1" stroke="#c49a6c" stroke-width="1.5" opacity="0.4"/>
<line x1="537.2" y1="899.6" x2="541.7" y2="911.1" stroke="#c49a6c" stroke-width="1.5" opacity="0.4"/>
<circle cx="523.7" cy="881.4" r="8.1" fill="#c49a6c" opacity="0.6"/>
<rect x="35.0" y="67.0" width="223.8" height="40.0" rx="6" fill="white" stroke="#6a5acd" stroke-width="1.0" opacity="0.92"/>
<polygon points="102.1,107.0 110.1,107.0 99.1,115.0" fill="white" stroke="#6a5acd" stroke-width="0.8"/>
<line x1="101.6" y1="107.0" x2="110.6" y2="107.0" stroke="white" stroke-width="1.5"/>
<text x="41.0" y="84.0" font-size="11.0" fill="#6a5acd" font-weight="700">LUMA</text>
<text x="41.0" y="98.0" font-size="11.0" fill="#333333">Someone lived here. Someone stayed.</text>
<rect x="577.5" y="117.0" width="187.5" height="40.0" rx="6" fill="white" stroke="#c49a6c" stroke-width="1.0" opacity="0.92"/>
<polygon points="633.8,157.0 641.8,157.0 630.8,165.0" fill="white" stroke="#c49a6c" stroke-width="0.8"/>
<line x1="633.3" y1="157.0" x2="642.3" y2="157.0" stroke="white" stroke-width="1.5"/>
<text x="583.5" y="134.0" font-size="11.0" fill="#c49a6c" font-weight="700">THEODORE</text>
<text x="583.5" y="148.0" font-size="11.0" fill="#333333">Miss Luma? Are you all right?</text>
<rect x="35.0" y="167.0" width="175.4" height="40.0" rx="6" fill="white" stroke="#6a5acd" stroke-width="1.0" opacity="0.92"/>
<polygon points="87.6,207.0 95.6,207.0 84.6,215.0" fill="white" stroke="#6a5acd" stroke-width="0.8"/>
<line x1="87.1" y1="207.0" x2="96.1" y2="207.0" stroke="white" stroke-width="1.5"/>
<text x="41.0" y="184.0" font-size="11.0" fill="#6a5acd" font-weight="700">LUMA</text>
<text x="41.0" y="198.0" font-size="11.0" fill="#333333">No. No, I don't think I am.</text>
<text x="759.0" y="75.0" text-anchor="end" font-size="12" font-weight="bold" fill="#888888" opacity="0.6">1</text>
<text x="765.0" y="1165.0" text-anchor="end" font-size="9" fill="#888888" opacity="0.5">WIDE</text>
<rect x="588.0" y="110.1" width="150.4" height="224.4" rx="2" fill="#e8e0d0" stroke="#2a2a2a" stroke-width="1.0"/>
<ellipse cx="663.2" cy="204.3" rx="60.2" ry="101.0" fill="#c0b8a8" opacity="0.18"/>
<path d="M600.0,169.0 Q663.2,88.2 726.4,169.0" fill="none" stroke="#c0b8a8" stroke-width="3" opacity="0.35"/>
<line x1="642.1" y1="182.1" x2="660.2" y2="180.1" stroke="#a89888" stroke-width="1.5" opacity="0.45"/>
<line x1="666.2" y1="180.1" x2="684.3" y2="182.1" stroke="#a89888" stroke-width="1.5" opacity="0.45"/>
<ellipse cx="646.4" cy="192.2" rx="7.2" ry="5.0" fill="#a89888" opacity="0.45"/>
<ellipse cx="680.0" cy="192.2" rx="7.2" ry="5.0" fill="#a89888" opacity="0.45"/>
<line x1="663.2" y1="206.4" x2="663.2" y2="222.5" stroke="#a89888" stroke-width="1.2" opacity="0.35"/>
<path d="M659.6,222.5 Q663.2,225.5 666.8,222.5" fill="none" stroke="#a89888" stroke-width="1" opacity="0.3"/>
<line x1="648.2" y1="236.7" x2="678.2" y2="236.7" stroke="#a89888" stroke-width="1.2" opacity="0.35"/>
<text x="726.4" y="126.1" text-anchor="end" font-size="12" font-weight="bold" fill="#888888" opacity="0.6">2</text>
<text x="732.4" y="328.5" text-anchor="end" font-size="9" fill="#888888" opacity="0.5">ECU</text>
<rect x="588.0" y="502.8" width="150.4" height="224.4" rx="2" fill="#e8e0d0" stroke="#2a2a2a" stroke-width="1.0"/>
<ellipse cx="663.2" cy="597.0" rx="60.2" ry="101.0" fill="#c0b8a8" opacity="0.18"/>
<path d="M600.0,561.7 Q663.2,480.9 726.4,561.7" fill="none" stroke="#c0b8a8" stroke-width="3" opacity="0.35"/>
<line x1="642.1" y1="574.8" x2="660.2" y2="572.8" stroke="#a89888" stroke-width="1.5" opacity="0.45"/>
<line x1="666.2" y1="572.8" x2="684.3" y2="574.8" stroke="#a89888" stroke-width="1.5" opacity="0.45"/>
<ellipse cx="646.4" cy="584.9" rx="7.2" ry="5.0" fill="#a89888" opacity="0.45"/>
<ellipse cx="680.0" cy="584.9" rx="7.2" ry="5.0" fill="#a89888" opacity="0.45"/>
<line x1="663.2" y1="599.1" x2="663.2" y2="615.2" stroke="#a89888" stroke-width="1.2" opacity="0.35"/>
<path d="M659.6,615.2 Q663.2,618.2 666.8,615.2" fill="none" stroke="#a89888" stroke-width="1" opacity="0.3"/>
<line x1="648.2" y1="629.4" x2="678.2" y2="629.4" stroke="#a89888" stroke-width="1.2" opacity="0.35"/>
<text x="726.4" y="518.8" text-anchor="end" font-size="12" font-weight="bold" fill="#888888" opacity="0.6">3</text>
<text x="732.4" y="721.2" text-anchor="end" font-size="9" fill="#888888" opacity="0.5">CU</text>
<rect x="588.0" y="895.5" width="150.4" height="224.4" rx="2" fill="#e8e0d0" stroke="#2a2a2a" stroke-width="1.0"/>
<ellipse cx="663.2" cy="989.7" rx="60.2" ry="101.0" fill="#6a5acd" opacity="0.18"/>
<path d="M600.0,954.4 Q663.2,873.6 726.4,954.4" fill="none" stroke="#6a5acd" stroke-width="3" opacity="0.35"/>
<line x1="642.1" y1="967.5" x2="660.2" y2="965.5" stroke="#a89888" stroke-width="1.5" opacity="0.45"/>
<line x1="666.2" y1="965.5" x2="684.3" y2="967.5" stroke="#a89888" stroke-width="1.5" opacity="0.45"/>
<ellipse cx="646.4" cy="977.6" rx="7.2" ry="5.0" fill="#a89888" opacity="0.45"/>
<ellipse cx="680.0" cy="977.6" rx="7.2" ry="5.0" fill="#a89888" opacity="0.45"/>
<line x1="663.2" y1="991.8" x2="663.2" y2="1007.9" stroke="#a89888" stroke-width="1.2" opacity="0.35"/>
<path d="M659.6,1007.9 Q663.2,1010.9 666.8,1007.9" fill="none" stroke="#a89888" stroke-width="1" opacity="0.3"/>
<line x1="648.2" y1="1022.1" x2="678.2" y2="1022.1" stroke="#a89888" stroke-width="1.2" opacity="0.35"/>
<rect x="594.0" y="903.5" width="138.4" height="90.0" rx="6" fill="white" stroke="#6a5acd" stroke-width="1.0" opacity="0.92"/>
<polygon points="635.5,993.5 643.5,993.5 632.5,1001.5" fill="white" stroke="#6a5acd" stroke-width="0.8"/>
<line x1="635.0" y1="993.5" x2="644.0" y2="993.5" stroke="white" stroke-width="1.5"/>
<text x="600.0" y="919.5" font-size="10.0" fill="#6a5acd" font-weight="700">LUMA</text>
<text x="600.0" y="932.5" font-size="10.0" fill="#333333">The data core. It's dead</text>
<text x="600.0" y="945.5" font-size="10.0" fill="#333333">but... there might be</text>
<text x="600.0" y="958.5" font-size="10.0" fill="#333333">recoverable data. If I</text>
<text x="600.0" y="971.5" font-size="10.0" fill="#333333">can interface with it</text>
<text x="600.0" y="984.5" font-size="10.0" fill="#333333">back at camp...</text>
<text x="726.4" y="911.5" text-anchor="end" font-size="12" font-weight="bold" fill="#888888" opacity="0.6">4</text>
<text x="732.4" y="1113.9" text-anchor="end" font-size="9" fill="#888888" opacity="0.5">CU</text>
</svg>