<svg xmlns="http://www.w3.org/2000/svg" viewBox="0 0 800 1200" width="800" height="1200" style="background:#ffffff">
<style>
  text { font-family: "Helvetica Neue", Helvetica, Arial, sans-serif; }
</style>
<text x="400.0" y="22" text-anchor="middle" font-size="16" fill="#888888" font-weight="500">PAGE 8  (4 panels)</text>
<rect x="29.0" y="59.0" width="366.0" height="364.0" rx="2" fill="#f5f0e8" stroke="#2a2a2a" stroke-width="1.5"/>
<path d="M110.1,332.0 Q110.1,281.0 186.5,274.7 L237.5,274.7 Q313.9,281.0 313.9,332.0 L313.9,379.3 L110.1,379.3 Z" fill="#b0b0b0" opacity="0.25"/>
<path d="M189.7,274.7 L212.0,306.5 L234.3,274.7" fill="none" stroke="#b0b0b0" stroke-width="1" opacity="0.3"/>
<circle cx="212.0" cy="204.6" r="63.7" fill="#b0b0b0" opacity="0.35"/>
<path d="M148.3,217.3 Q157.9,274.7 212.0,277.9 Q266.1,274.7 275.7,217.3" fill="none" stroke="#b0b0b0" stroke-width="1.2" opacity="0.3"/>
<path d="M145.1,198.2 Q212.0,121.8 278.9,198.2" fill="none" stroke="#b0b0b0" stroke-width="2" opacity="0.4"/>
<ellipse cx="146.3" cy="207.8" rx="2.5" ry="4" fill="#b0b0b0" opacity="0.25"/>
<ellipse cx="277.7" cy="207.8" rx="2.5" ry="4" fill="#b0b0b0" opacity="0.25"/>
<rect x="35.0" y="67.0" width="354.0" height="68.0" rx="6" fill="white" stroke="#b0b0b0" stroke-width="1.0" opacity="0.92"/>
<polygon points="141.2,135.0 149.2,135.0 138.2,143.0" fill="white" stroke="#b0b0b0" stroke-width="0.8"/>
<line x1="140.7" y1="135.0" x2="149.7" y2="135.0" stroke="white" stroke-width="1.5"/>
<text x="41.0" y="84.0" font-size="11.0" fill="#b0b0b0" font-weight="700">SABLE</text>
<text x="41.0" y="98.0" font-size="11.0" fill="#333333">He is a civilian child. In a city full of people he talks</text>
<text x="41.0" y="112.0" font-size="11.0" fill="#333333">to. We put our survival in his hands and he tells one</text>
<text x="41.0" y="126.0" font-size="11.0" fill="#333333">friend — ONE — and we are done.</text>
<rect x="219.7" y="145.0" width="169.3" height="40.0" rx="6" fill="white" stroke="#c87533" stroke-width="1.0" opacity="0.92"/>
<polygon points="270.5,185.0 278.5,185.0 267.5,193.0" fill="white" stroke="#c87533" stroke-width="0.8"/>
<line x1="270.0" y1="185.0" x2="279.0" y2="185.0" stroke="white" stroke-width="1.5"/>
<text x="225.7" y="162.0" font-size="11.0" fill="#c87533" font-weight="700">WREN</text>
<text x="225.7" y="176.0" font-size="11.0" fill="#333333">He hasn't told anyone yet.</text>
<rect x="35.0" y="195.0" width="139.1" height="40.0" rx="6" fill="white" stroke="#b0b0b0" stroke-width="1.0" opacity="0.92"/>
<polygon points="76.7,235.0 84.7,235.0 73.7,243.0" fill="white" stroke="#b0b0b0" stroke-width="0.8"/>
<line x1="76.2" y1="235.0" x2="85.2" y2="235.0" stroke="white" stroke-width="1.5"/>
<text x="41.0" y="212.0" font-size="11.0" fill="#b0b0b0" font-weight="700">SABLE</text>
<text x="41.0" y="226.0" font-size="11.0" fill="#333333">You do not know that.</text>
<text x="383.0" y="75.0" text-anchor="end" font-size="12" font-weight="bold" fill="#888888" opacity="0.6">1</text>
<text x="389.0" y="417.0" text-anchor="end" font-size="9" fill="#888888" opacity="0.5">MCU</text>
<rect x="405.0" y="59.0" width="366.0" height="364.0" rx="2" fill="#f5f0e8" stroke="#2a2a2a" stroke-width="1.5"/>
<rect x="411.0" y="67.0" width="241.9" height="40.0" rx="6" fill="white" stroke="#c49a6c" stroke-width="1.0" opacity="0.92"/>
<polygon points="483.6,107.0 491.6,107.0 480.6,115.0" fill="white" stroke="#c49a6c" stroke-width="0.8"/>
<line x1="483.1" y1="107.0" x2="492.1" y2="107.0" stroke="white" stroke-width="1.5"/>
<text x="417.0" y="84.0" font-size="11.0" fill="#c49a6c" font-weight="700">THEODORE</text>
<text x="417.0" y="98.0" font-size="11.0" fill="#333333">Ma'am. I haven't told anyone. I won't.</text>
<rect x="468.6" y="117.0" width="296.4" height="40.0" rx="6" fill="white" stroke="#c49a6c" stroke-width="1.0" opacity="0.92"/>
<polygon points="557.6,157.0 565.6,157.0 554.6,165.0" fill="white" stroke="#c49a6c" stroke-width="0.8"/>
<line x1="557.1" y1="157.0" x2="566.1" y2="157.0" stroke="white" stroke-width="1.5"/>
<text x="474.6" y="134.0" font-size="11.0" fill="#c49a6c" font-weight="700">THEODORE</text>
<text x="474.6" y="148.0" font-size="11.0" fill="#333333">But I can show you something. If you'll let me.</text>
<text x="759.0" y="75.0" text-anchor="end" font-size="12" font-weight="bold" fill="#888888" opacity="0.6">2</text>
<rect x="29.0" y="433.0" width="742.0" height="364.0" rx="2" fill="#f5f0e8" stroke="#2a2a2a" stroke-width="1.5"/>
<line x1="35.0" y1="716.9" x2="765.0" y2="716.9" stroke="#a89888" stroke-width="1.0" opacity="0.5"/>
<ellipse cx="400.0" cy="718.9" rx="11.2" ry="2.7" fill="#a89888" opacity="0.2"/>
<line x1="397.3" y1="701.2" x2="393.2" y2="716.9" stroke="#b0b0b0" stroke-width="2" opacity="0.5"/>
<line x1="402.7" y1="701.2" x2="406.8" y2="716.9" stroke="#b0b0b0" stroke-width="2" opacity="0.5"/>
<line x1="400.0" y1="688.1" x2="400.0" y2="701.2" stroke="#b0b0b0" stroke-width="2.5" opacity="0.6"/>
<line x1="386.5" y1="690.1" x2="413.5" y2="690.1" stroke="#b0b0b0" stroke-width="2" opacity="0.5"/>
<line x1="386.5" y1="690.1" x2="382.0" y2="701.6" stroke="#b0b0b0" stroke-width="1.5" opacity="0.4"/>
<line x1="413.5" y1="690.1" x2="418.0" y2="701.6" stroke="#b0b0b0" stroke-width="1.5" opacity="0.4"/>
<circle cx="400.0" cy="671.9" r="8.1" fill="#b0b0b0" opacity="0.6"/>
<rect x="35.0" y="441.0" width="62.0" height="40.0" rx="6" fill="white" stroke="#b0b0b0" stroke-width="1.0" opacity="0.92"/>
<polygon points="53.6,481.0 61.6,481.0 50.6,489.0" fill="white" stroke="#b0b0b0" stroke-width="0.8"/>
<line x1="53.1" y1="481.0" x2="62.1" y2="481.0" stroke="white" stroke-width="1.5"/>
<text x="41.0" y="458.0" font-size="11.0" fill="#b0b0b0" font-weight="700">SABLE</text>
<text x="41.0" y="472.0" font-size="11.0" fill="#333333">Show us.</text>
<text x="759.0" y="449.0" text-anchor="end" font-size="12" font-weight="bold" fill="#888888" opacity="0.6">3</text>
<text x="765.0" y="791.0" text-anchor="end" font-size="9" fill="#888888" opacity="0.5">WIDE</text>
<rect x="29.0" y="807.0" width="742.0" height="364.0" rx="2" fill="#f5f0e8" stroke="#2a2a2a" stroke-width="1.5"/>
<rect x="35.0" y="815.0" width="308.5" height="40.0" rx="6" fill="white" stroke="#c49a6c" stroke-width="1.0" opacity="0.92"/>
<polygon points="127.5,855.0 135.5,855.0 124.5,863.0" fill="white" stroke="#c49a6c" stroke-width="0.8"/>
<line x1="127.0" y1="855.0" x2="136.0" y2="855.0" stroke="white" stroke-width="1.5"/>
<text x="41.0" y="832.0" font-size="11.0" fill="#c49a6c" font-weight="700">THEODORE</text>
<text x="41.0" y="846.0" font-size="11.0" fill="#333333">I made this. From workshop brass and copper wire.</text>
<rect x="166.1" y="865.0" width="598.9" height="40.0" rx="6" fill="white" stroke="#c49a6c" stroke-width="1.0" opacity="0.92"/>
<polygon points="345.8,905.0 353.8,905.0 342.8,913.0" fill="white" stroke="#c49a6c" stroke-width="0.8"/>
<line x1="345.3" y1="905.0" x2="354.3" y2="905.0" stroke="white" stroke-width="1.5"/>
<text x="172.1" y="882.0" font-size="11.0" fill="#c49a6c" font-weight="700">THEODORE</text>
<text x="172.1" y="896.0" font-size="11.0" fill="#333333">I studied the piece — the shard Jink left. How the light moves inside it. The geometric patterns.</text>
<rect x="35.0" y="915.0" width="181.4" height="40.0" rx="6" fill="white" stroke="#c49a6c" stroke-width="1.0" opacity="0.92"/>
<polygon points="89.4,955.0 97.4,955.0 86.4,963.0" fill="white" stroke="#c49a6c" stroke-width="0.8"/>
<line x1="88.9" y1="955.0" x2="97.9" y2="955.0" stroke="white" stroke-width="1.5"/>
<text x="41.0" y="932.0" font-size="11.0" fill="#c49a6c" font-weight="700">THEODORE</text>
<text x="41.0" y="946.0" font-size="11.0" fill="#333333">I worked out how to feed it.</text>
<text x="759.0" y="823.0" text-anchor="end" font-size="12" font-weight="bold" fill="#888888" opacity="0.6">4</text>
</svg>