<svg xmlns="http://www.w3.org/2000/svg" viewBox="0 0 800 1200" width="800" height="1200" style="background:#ffffff">
<style>
  text { font-family: "Helvetica Neue", Helvetica, Arial, sans-serif; }
</style>
<text x="400.0" y="22" text-anchor="middle" font-size="16" fill="#888888" font-weight="500">PAGE 4  (4 panels)</text>
<rect x="29.0" y="59.0" width="742.0" height="364.0" rx="2" fill="#f5f0e8" stroke="#2a2a2a" stroke-width="1.5"/>
<path d="M341.4,321.1 L346.8,274.6 Q352.1,270.6 383.8,270.6 L416.2,270.6 Q447.9,270.6 453.2,274.6 L458.6,321.1 Z" fill="#2e8b57" opacity="0.35"/>
<line x1="346.8" y1="296.5" x2="453.2" y2="296.5" stroke="#2e8b57" stroke-width="1" opacity="0.3"/>
<line x1="346.8" y1="274.6" x2="325.5" y2="315.5" stroke="#2e8b57" stroke-width="2" opacity="0.3"/>
<line x1="325.5" y1="315.5" x2="341.4" y2="340.1" stroke="#2e8b57" stroke-width="2" opacity="0.3"/>
<line x1="453.2" y1="274.6" x2="474.5" y2="315.5" stroke="#2e8b57" stroke-width="2" opacity="0.3"/>
<line x1="474.5" y1="315.5" x2="458.6" y2="340.1" stroke="#2e8b57" stroke-width="2" opacity="0.3"/>
<line x1="400.0" y1="197.7" x2="400.0" y2="270.6" stroke="#2e8b57" stroke-width="3" opacity="0.35"/>
<circle cx="400.0" cy="157.3" r="40.5" fill="#2e8b57" opacity="0.4"/>
<rect x="35.0" y="67.0" width="90.7" height="40.0" rx="6" fill="white" stroke="#2e8b57" stroke-width="1.0" opacity="0.92"/>
<polygon points="62.2,107.0 70.2,107.0 59.2,115.0" fill="white" stroke="#2e8b57" stroke-width="0.8"/>
<line x1="61.7" y1="107.0" x2="70.7" y2="107.0" stroke="white" stroke-width="1.5"/>
<text x="41.0" y="84.0" font-size="11.0" fill="#2e8b57" font-weight="700">JINK</text>
<text x="41.0" y="98.0" font-size="11.0" fill="#333333">You found us.</text>
<rect x="347.6" y="117.0" width="417.4" height="40.0" rx="6" fill="white" stroke="#c49a6c" stroke-width="1.0" opacity="0.92"/>
<polygon points="472.9,157.0 480.9,157.0 469.9,165.0" fill="white" stroke="#c49a6c" stroke-width="0.8"/>
<line x1="472.4" y1="157.0" x2="481.4" y2="157.0" stroke="white" stroke-width="1.5"/>
<text x="353.6" y="134.0" font-size="11.0" fill="#c49a6c" font-weight="700">THEODORE</text>
<text x="353.6" y="148.0" font-size="11.0" fill="#333333">I followed the marks. In the courtyard. The scratches on the brick.</text>
<rect x="35.0" y="167.0" width="120.9" height="40.0" rx="6" fill="white" stroke="#2e8b57" stroke-width="1.0" opacity="0.92"/>
<polygon points="71.3,207.0 79.3,207.0 68.3,215.0" fill="white" stroke="#2e8b57" stroke-width="0.8"/>
<line x1="70.8" y1="207.0" x2="79.8" y2="207.0" stroke="white" stroke-width="1.5"/>
<text x="41.0" y="184.0" font-size="11.0" fill="#2e8b57" font-weight="700">JINK</text>
<text x="41.0" y="198.0" font-size="11.0" fill="#333333">Of course you did.</text>
<text x="759.0" y="75.0" text-anchor="end" font-size="12" font-weight="bold" fill="#888888" opacity="0.6">1</text>
<text x="765.0" y="417.0" text-anchor="end" font-size="9" fill="#888888" opacity="0.5">MW</text>
<rect x="29.0" y="433.0" width="742.0" height="364.0" rx="2" fill="#f5f0e8" stroke="#2a2a2a" stroke-width="1.5"/>
<path d="M298.1,706.0 Q298.1,655.0 374.5,648.7 L425.5,648.7 Q501.9,655.0 501.9,706.0 L501.9,753.3 L298.1,753.3 Z" fill="#c49a6c" opacity="0.25"/>
<path d="M377.7,648.7 L400.0,680.5 L422.3,648.7" fill="none" stroke="#c49a6c" stroke-width="1" opacity="0.3"/>
<circle cx="400.0" cy="578.6" r="63.7" fill="#c49a6c" opacity="0.35"/>
<path d="M336.3,591.3 Q345.9,648.7 400.0,651.9 Q454.1,648.7 463.7,591.3" fill="none" stroke="#c49a6c" stroke-width="1.2" opacity="0.3"/>
<path d="M333.1,572.2 Q400.0,495.8 466.9,572.2" fill="none" stroke="#c49a6c" stroke-width="2" opacity="0.4"/>
<ellipse cx="334.3" cy="581.8" rx="2.5" ry="4" fill="#c49a6c" opacity="0.25"/>
<ellipse cx="465.7" cy="581.8" rx="2.5" ry="4" fill="#c49a6c" opacity="0.25"/>
<rect x="35.0" y="441.0" width="199.6" height="40.0" rx="6" fill="white" stroke="#c49a6c" stroke-width="1.0" opacity="0.92"/>
<polygon points="94.9,481.0 102.9,481.0 91.9,489.0" fill="white" stroke="#c49a6c" stroke-width="0.8"/>
<line x1="94.4" y1="481.0" x2="103.4" y2="481.0" stroke="white" stroke-width="1.5"/>
<text x="41.0" y="458.0" font-size="11.0" fill="#c49a6c" font-weight="700">THEODORE</text>
<text x="41.0" y="472.0" font-size="11.0" fill="#333333">I won't hurt anyone. I promise.</text>
<rect x="703.0" y="491.0" width="62.0" height="40.0" rx="6" fill="white" stroke="#2e8b57" stroke-width="1.0" opacity="0.92"/>
<polygon points="721.6,531.0 729.6,531.0 718.6,539.0" fill="white" stroke="#2e8b57" stroke-width="0.8"/>
<line x1="721.1" y1="531.0" x2="730.1" y2="531.0" stroke="white" stroke-width="1.5"/>
<text x="709.0" y="508.0" font-size="11.0" fill="#2e8b57" font-weight="700">JINK</text>
<text x="709.0" y="522.0" font-size="11.0" fill="#333333">I know.</text>
<rect x="35.0" y="541.0" width="151.2" height="40.0" rx="6" fill="white" stroke="#2e8b57" stroke-width="1.0" opacity="0.92"/>
<polygon points="80.3,581.0 88.3,581.0 77.3,589.0" fill="white" stroke="#2e8b57" stroke-width="0.8"/>
<line x1="79.8" y1="581.0" x2="88.8" y2="581.0" stroke="white" stroke-width="1.5"/>
<text x="41.0" y="558.0" font-size="11.0" fill="#2e8b57" font-weight="700">JINK</text>
<text x="41.0" y="572.0" font-size="11.0" fill="#333333">That's not the problem.</text>
<text x="759.0" y="449.0" text-anchor="end" font-size="12" font-weight="bold" fill="#888888" opacity="0.6">2</text>
<text x="765.0" y="791.0" text-anchor="end" font-size="9" fill="#888888" opacity="0.5">MCU</text>
<rect x="29.0" y="807.0" width="366.0" height="364.0" rx="2" fill="#f5f0e8" stroke="#2a2a2a" stroke-width="1.5"/>
<path d="M153.4,1069.1 L158.8,1022.6 Q164.1,1018.6 195.8,1018.6 L228.2,1018.6 Q259.9,1018.6 265.2,1022.6 L270.6,1069.1 Z" fill="#2e8b57" opacity="0.35"/>
<line x1="158.8" y1="1044.5" x2="265.2" y2="1044.5" stroke="#2e8b57" stroke-width="1" opacity="0.3"/>
<line x1="158.8" y1="1022.6" x2="137.5" y2="1063.5" stroke="#2e8b57" stroke-width="2" opacity="0.3"/>
<line x1="137.5" y1="1063.5" x2="153.4" y2="1088.1" stroke="#2e8b57" stroke-width="2" opacity="0.3"/>
<line x1="265.2" y1="1022.6" x2="286.5" y2="1063.5" stroke="#2e8b57" stroke-width="2" opacity="0.3"/>
<line x1="286.5" y1="1063.5" x2="270.6" y2="1088.1" stroke="#2e8b57" stroke-width="2" opacity="0.3"/>
<line x1="212.0" y1="945.7" x2="212.0" y2="1018.6" stroke="#2e8b57" stroke-width="3" opacity="0.35"/>
<circle cx="212.0" cy="905.3" r="40.5" fill="#2e8b57" opacity="0.4"/>
<rect x="35.0" y="815.0" width="350.8" height="54.0" rx="6" fill="white" stroke="#2e8b57" stroke-width="1.0" opacity="0.92"/>
<polygon points="140.2,869.0 148.2,869.0 137.2,877.0" fill="white" stroke="#2e8b57" stroke-width="0.8"/>
<line x1="139.7" y1="869.0" x2="148.7" y2="869.0" stroke="white" stroke-width="1.5"/>
<text x="41.0" y="832.0" font-size="11.0" fill="#2e8b57" font-weight="700">JINK</text>
<text x="41.0" y="846.0" font-size="11.0" fill="#333333">Captain. He found us on his own. He followed Wren's tool</text>
<text x="41.0" y="860.0" font-size="11.0" fill="#333333">marks.</text>
<rect x="237.8" y="879.0" width="151.2" height="40.0" rx="6" fill="white" stroke="#2e8b57" stroke-width="1.0" opacity="0.92"/>
<polygon points="283.2,919.0 291.2,919.0 280.2,927.0" fill="white" stroke="#2e8b57" stroke-width="0.8"/>
<line x1="282.7" y1="919.0" x2="291.7" y2="919.0" stroke="white" stroke-width="1.5"/>
<text x="243.8" y="896.0" font-size="11.0" fill="#2e8b57" font-weight="700">JINK</text>
<text x="243.8" y="910.0" font-size="11.0" fill="#333333">We need to talk to him.</text>
<text x="383.0" y="823.0" text-anchor="end" font-size="12" font-weight="bold" fill="#888888" opacity="0.6">3</text>
<text x="389.0" y="1165.0" text-anchor="end" font-size="9" fill="#888888" opacity="0.5">MED</text>
<rect x="405.0" y="807.0" width="366.0" height="364.0" rx="2" fill="#f5f0e8" stroke="#2a2a2a" stroke-width="1.5"/>
<path d="M486.1,1080.0 Q486.1,1029.0 562.5,1022.7 L613.5,1022.7 Q689.9,1029.0 689.9,1080.0 L689.9,1127.3 L486.1,1127.3 Z" fill="#b0b0b0" opacity="0.25"/>
<path d="M565.7,1022.7 L588.0,1054.5 L610.3,1022.7" fill="none" stroke="#b0b0b0" stroke-width="1" opacity="0.3"/>
<circle cx="588.0" cy="952.6" r="63.7" fill="#b0b0b0" opacity="0.35"/>
<path d="M524.3,965.3 Q533.9,1022.7 588.0,1025.9 Q642.1,1022.7 651.7,965.3" fill="none" stroke="#b0b0b0" stroke-width="1.2" opacity="0.3"/>
<path d="M521.1,946.2 Q588.0,869.8 654.9,946.2" fill="none" stroke="#b0b0b0" stroke-width="2" opacity="0.4"/>
<ellipse cx="522.3" cy="955.8" rx="2.5" ry="4" fill="#b0b0b0" opacity="0.25"/>
<ellipse cx="653.7" cy="955.8" rx="2.5" ry="4" fill="#b0b0b0" opacity="0.25"/>
<rect x="411.0" y="815.0" width="344.8" height="54.0" rx="6" fill="white" stroke="#b0b0b0" stroke-width="1.0" opacity="0.92"/>
<polygon points="514.4,869.0 522.4,869.0 511.4,877.0" fill="white" stroke="#b0b0b0" stroke-width="0.8"/>
<line x1="513.9" y1="869.0" x2="522.9" y2="869.0" stroke="white" stroke-width="1.5"/>
<text x="417.0" y="832.0" font-size="11.0" fill="#b0b0b0" font-weight="700">SABLE</text>
<text x="417.0" y="846.0" font-size="11.0" fill="#333333">Bring him to the beam. Wren, perimeter scan — if anyone</text>
<text x="417.0" y="860.0" font-size="11.0" fill="#333333">else followed, I want to know.</text>
<rect x="571.5" y="879.0" width="193.5" height="40.0" rx="6" fill="white" stroke="#b0b0b0" stroke-width="1.0" opacity="0.92"/>
<polygon points="629.5,919.0 637.5,919.0 626.5,927.0" fill="white" stroke="#b0b0b0" stroke-width="0.8"/>
<line x1="629.0" y1="919.0" x2="638.0" y2="919.0" stroke="white" stroke-width="1.5"/>
<text x="577.5" y="896.0" font-size="11.0" fill="#b0b0b0" font-weight="700">SABLE</text>
<text x="577.5" y="910.0" font-size="11.0" fill="#333333">Thresh. Weapon down but ready.</text>
<rect x="411.0" y="929.0" width="114.9" height="40.0" rx="6" fill="white" stroke="#c87533" stroke-width="1.0" opacity="0.92"/>
<polygon points="445.5,969.0 453.5,969.0 442.5,977.0" fill="white" stroke="#c87533" stroke-width="0.8"/>
<line x1="445.0" y1="969.0" x2="454.0" y2="969.0" stroke="white" stroke-width="1.5"/>
<text x="417.0" y="946.0" font-size="11.0" fill="#c87533" font-weight="700">WREN</text>
<text x="417.0" y="960.0" font-size="11.0" fill="#333333">Already scanning.</text>
<text x="759.0" y="823.0" text-anchor="end" font-size="12" font-weight="bold" fill="#888888" opacity="0.6">4</text>
<text x="765.0" y="1165.0" text-anchor="end" font-size="9" fill="#888888" opacity="0.5">MCU</text>
</svg>