<svg xmlns="http://www.w3.org/2000/svg" viewBox="0 0 800 1200" width="800" height="1200" style="background:#ffffff">
<style>
  text { font-family: "Helvetica Neue", Helvetica, Arial, sans-serif; }
</style>
<text x="400.0" y="22" text-anchor="middle" font-size="16" fill="#888888" font-weight="500">PAGE 9  (5 panels)</text>
<rect x="29.0" y="59.0" width="742.0" height="248.9" rx="2" fill="#f5f0e8" stroke="#2a2a2a" stroke-width="1.5"/>
<line x1="35.0" y1="253.2" x2="765.0" y2="253.2" stroke="#a89888" stroke-width="1.0" opacity="0.5"/>
<ellipse cx="276.3" cy="255.2" rx="11.2" ry="2.7" fill="#a89888" opacity="0.2"/>
<line x1="273.6" y1="237.5" x2="269.6" y2="253.2" stroke="#c87533" stroke-width="2" opacity="0.5"/>
<line x1="279.0" y1="237.5" x2="283.1" y2="253.2" stroke="#c87533" stroke-width="2" opacity="0.5"/>
<line x1="276.3" y1="224.5" x2="276.3" y2="237.5" stroke="#c87533" stroke-width="2.5" opacity="0.6"/>
<line x1="262.9" y1="226.5" x2="289.8" y2="226.5" stroke="#c87533" stroke-width="2" opacity="0.5"/>
<line x1="262.9" y1="226.5" x2="258.4" y2="237.9" stroke="#c87533" stroke-width="1.5" opacity="0.4"/>
<line x1="289.8" y1="226.5" x2="294.3" y2="237.9" stroke="#c87533" stroke-width="1.5" opacity="0.4"/>
<circle cx="276.3" cy="208.4" r="8.1" fill="#c87533" opacity="0.6"/>
<ellipse cx="523.7" cy="255.2" rx="11.2" ry="2.7" fill="#a89888" opacity="0.2"/>
<line x1="521.0" y1="237.5" x2="516.9" y2="253.2" stroke="#6a5acd" stroke-width="2" opacity="0.5"/>
<line x1="526.4" y1="237.5" x2="530.4" y2="253.2" stroke="#6a5acd" stroke-width="2" opacity="0.5"/>
<line x1="523.7" y1="224.5" x2="523.7" y2="237.5" stroke="#6a5acd" stroke-width="2.5" opacity="0.6"/>
<line x1="510.2" y1="226.5" x2="537.1" y2="226.5" stroke="#6a5acd" stroke-width="2" opacity="0.5"/>
<line x1="510.2" y1="226.5" x2="505.7" y2="237.9" stroke="#6a5acd" stroke-width="1.5" opacity="0.4"/>
<line x1="537.1" y1="226.5" x2="541.6" y2="237.9" stroke="#6a5acd" stroke-width="1.5" opacity="0.4"/>
<circle cx="523.7" cy="208.4" r="8.1" fill="#6a5acd" opacity="0.6"/>
<rect x="35.0" y="67.0" width="139.1" height="40.0" rx="6" fill="white" stroke="#c87533" stroke-width="1.0" opacity="0.92"/>
<polygon points="76.7,107.0 84.7,107.0 73.7,115.0" fill="white" stroke="#c87533" stroke-width="0.8"/>
<line x1="76.2" y1="107.0" x2="85.2" y2="107.0" stroke="white" stroke-width="1.5"/>
<text x="41.0" y="84.0" font-size="11.0" fill="#c87533" font-weight="700">WREN</text>
<text x="41.0" y="98.0" font-size="11.0" fill="#333333">That's a Type-4 cell.</text>
<rect x="571.5" y="117.0" width="193.5" height="40.0" rx="6" fill="white" stroke="#c87533" stroke-width="1.0" opacity="0.92"/>
<polygon points="629.5,157.0 637.5,157.0 626.5,165.0" fill="white" stroke="#c87533" stroke-width="0.8"/>
<line x1="629.0" y1="157.0" x2="638.0" y2="157.0" stroke="white" stroke-width="1.5"/>
<text x="577.5" y="134.0" font-size="11.0" fill="#c87533" font-weight="700">WREN</text>
<text x="577.5" y="148.0" font-size="11.0" fill="#333333">It's at eighty percent charge.</text>
<rect x="35.0" y="167.0" width="62.0" height="40.0" rx="6" fill="white" stroke="#6a5acd" stroke-width="1.0" opacity="0.92"/>
<polygon points="53.6,207.0 61.6,207.0 50.6,215.0" fill="white" stroke="#6a5acd" stroke-width="0.8"/>
<line x1="53.1" y1="207.0" x2="62.1" y2="207.0" stroke="white" stroke-width="1.5"/>
<text x="41.0" y="184.0" font-size="11.0" fill="#6a5acd" font-weight="700">LUMA</text>
<text x="41.0" y="198.0" font-size="11.0" fill="#333333">How—</text>
<text x="759.0" y="75.0" text-anchor="end" font-size="12" font-weight="bold" fill="#888888" opacity="0.6">1</text>
<text x="765.0" y="301.9" text-anchor="end" font-size="9" fill="#888888" opacity="0.5">WIDE</text>
<rect x="29.0" y="317.9" width="366.0" height="421.5" rx="2" fill="#f5f0e8" stroke="#2a2a2a" stroke-width="1.5"/>
<ellipse cx="212.0" cy="495.0" rx="132.8" ry="189.7" fill="#c87533" opacity="0.18"/>
<path d="M72.6,428.6 Q212.0,276.8 351.4,428.6" fill="none" stroke="#c87533" stroke-width="3" opacity="0.35"/>
<line x1="165.5" y1="453.2" x2="205.4" y2="451.2" stroke="#a89888" stroke-width="1.5" opacity="0.45"/>
<line x1="218.6" y1="451.2" x2="258.5" y2="453.2" stroke="#a89888" stroke-width="1.5" opacity="0.45"/>
<ellipse cx="174.8" cy="472.2" rx="15.9" ry="9.5" fill="#a89888" opacity="0.45"/>
<ellipse cx="249.2" cy="472.2" rx="15.9" ry="9.5" fill="#a89888" opacity="0.45"/>
<line x1="212.0" y1="498.8" x2="212.0" y2="529.1" stroke="#a89888" stroke-width="1.2" opacity="0.35"/>
<path d="M204.0,529.1 Q212.0,532.1 220.0,529.1" fill="none" stroke="#a89888" stroke-width="1" opacity="0.3"/>
<line x1="178.8" y1="555.7" x2="245.2" y2="555.7" stroke="#a89888" stroke-width="1.2" opacity="0.35"/>
<rect x="35.0" y="325.9" width="320.6" height="54.0" rx="6" fill="white" stroke="#c87533" stroke-width="1.0" opacity="0.92"/>
<polygon points="131.2,379.9 139.2,379.9 128.2,387.9" fill="white" stroke="#c87533" stroke-width="0.8"/>
<line x1="130.7" y1="379.9" x2="139.7" y2="379.9" stroke="white" stroke-width="1.5"/>
<text x="41.0" y="342.9" font-size="11.0" fill="#c87533" font-weight="700">WREN</text>
<text x="41.0" y="356.9" font-size="11.0" fill="#333333">Copper wire induction coils. He's built a primitive</text>
<text x="41.0" y="370.9" font-size="11.0" fill="#333333">resonance charger.</text>
<rect x="268.1" y="389.9" width="120.9" height="40.0" rx="6" fill="white" stroke="#c87533" stroke-width="1.0" opacity="0.92"/>
<polygon points="304.4,429.9 312.4,429.9 301.4,437.9" fill="white" stroke="#c87533" stroke-width="0.8"/>
<line x1="303.9" y1="429.9" x2="312.9" y2="429.9" stroke="white" stroke-width="1.5"/>
<text x="274.1" y="406.9" font-size="11.0" fill="#c87533" font-weight="700">WREN</text>
<text x="274.1" y="420.9" font-size="11.0" fill="#333333">It shouldn't work.</text>
<rect x="35.0" y="439.9" width="66.5" height="40.0" rx="6" fill="white" stroke="#c87533" stroke-width="1.0" opacity="0.92"/>
<polygon points="54.9,479.9 62.9,479.9 51.9,487.9" fill="white" stroke="#c87533" stroke-width="0.8"/>
<line x1="54.4" y1="479.9" x2="63.4" y2="479.9" stroke="white" stroke-width="1.5"/>
<text x="41.0" y="456.9" font-size="11.0" fill="#c87533" font-weight="700">WREN</text>
<text x="41.0" y="470.9" font-size="11.0" fill="#333333">It works.</text>
<text x="383.0" y="333.9" text-anchor="end" font-size="12" font-weight="bold" fill="#888888" opacity="0.6">2</text>
<text x="389.0" y="733.5" text-anchor="end" font-size="9" fill="#888888" opacity="0.5">CU</text>
<rect x="405.0" y="317.9" width="366.0" height="421.5" rx="2" fill="#f5f0e8" stroke="#2a2a2a" stroke-width="1.5"/>
<circle cx="588.0" cy="528.7" r="45.0" fill="#b0b0b0" opacity="0.22"/>
<line x1="563.2" y1="517.4" x2="581.2" y2="509.8" stroke="#a89888" stroke-width="1.5" opacity="0.5"/>
<line x1="594.8" y1="509.8" x2="612.8" y2="517.4" stroke="#a89888" stroke-width="1.5" opacity="0.5"/>
<ellipse cx="574.5" cy="524.2" rx="4.5" ry="2.7" fill="#a89888" opacity="0.5"/>
<ellipse cx="601.5" cy="524.2" rx="4.5" ry="2.7" fill="#a89888" opacity="0.5"/>
<line x1="588.0" y1="529.6" x2="588.0" y2="537.7" stroke="#a89888" stroke-width="1" opacity="0.35"/>
<ellipse cx="588.0" cy="545.8" rx="6.8" ry="3.6" fill="#a89888" opacity="0.25"/>
<line x1="632.8" y1="554.6" x2="640.6" y2="559.1" stroke="#a89888" stroke-width="1" opacity="0.3"/>
<line x1="613.9" y1="573.5" x2="618.4" y2="581.3" stroke="#a89888" stroke-width="1" opacity="0.3"/>
<line x1="562.1" y1="573.5" x2="557.6" y2="581.3" stroke="#a89888" stroke-width="1" opacity="0.3"/>
<line x1="543.2" y1="554.6" x2="535.4" y2="559.1" stroke="#a89888" stroke-width="1" opacity="0.3"/>
<line x1="543.2" y1="502.8" x2="535.4" y2="498.3" stroke="#a89888" stroke-width="1" opacity="0.3"/>
<line x1="562.1" y1="483.9" x2="557.6" y2="476.1" stroke="#a89888" stroke-width="1" opacity="0.3"/>
<line x1="613.9" y1="483.9" x2="618.4" y2="476.1" stroke="#a89888" stroke-width="1" opacity="0.3"/>
<line x1="632.8" y1="502.8" x2="640.6" y2="498.3" stroke="#a89888" stroke-width="1" opacity="0.3"/>
<rect x="411.0" y="325.9" width="84.6" height="40.0" rx="6" fill="white" stroke="#b0b0b0" stroke-width="1.0" opacity="0.92"/>
<polygon points="436.4,365.9 444.4,365.9 433.4,373.9" fill="white" stroke="#b0b0b0" stroke-width="0.8"/>
<line x1="435.9" y1="365.9" x2="444.9" y2="365.9" stroke="white" stroke-width="1.5"/>
<text x="417.0" y="342.9" font-size="11.0" fill="#b0b0b0" font-weight="700">SABLE</text>
<text x="417.0" y="356.9" font-size="11.0" fill="#333333">You're sure?</text>
<rect x="698.5" y="375.9" width="66.5" height="40.0" rx="6" fill="white" stroke="#c87533" stroke-width="1.0" opacity="0.92"/>
<polygon points="718.5,415.9 726.5,415.9 715.5,423.9" fill="white" stroke="#c87533" stroke-width="0.8"/>
<line x1="718.0" y1="415.9" x2="727.0" y2="415.9" stroke="white" stroke-width="1.5"/>
<text x="704.5" y="392.9" font-size="11.0" fill="#c87533" font-weight="700">WREN</text>
<text x="704.5" y="406.9" font-size="11.0" fill="#333333">I'm sure.</text>
<text x="759.0" y="333.9" text-anchor="end" font-size="12" font-weight="bold" fill="#888888" opacity="0.6">3</text>
<text x="765.0" y="733.5" text-anchor="end" font-size="9" fill="#888888" opacity="0.5">RXN</text>
<rect x="29.0" y="749.5" width="238.2" height="421.5" rx="2" fill="#f5f0e8" stroke="#2a2a2a" stroke-width="1.5"/>
<path d="M102.2,1053.0 L106.4,956.0 Q110.6,952.0 135.4,952.0 L160.8,952.0 Q185.6,952.0 189.8,956.0 L193.9,1053.0 Z" fill="#c0b8a8" opacity="0.35"/>
<line x1="106.4" y1="1024.5" x2="189.8" y2="1024.5" stroke="#c0b8a8" stroke-width="1" opacity="0.3"/>
<line x1="106.4" y1="956.0" x2="89.7" y2="1003.4" stroke="#c0b8a8" stroke-width="2" opacity="0.3"/>
<line x1="89.7" y1="1003.4" x2="102.2" y2="1031.8" stroke="#c0b8a8" stroke-width="2" opacity="0.3"/>
<line x1="189.8" y1="956.0" x2="206.4" y2="1003.4" stroke="#c0b8a8" stroke-width="2" opacity="0.3"/>
<line x1="206.4" y1="1003.4" x2="193.9" y2="1031.8" stroke="#c0b8a8" stroke-width="2" opacity="0.3"/>
<line x1="148.1" y1="895.0" x2="148.1" y2="952.0" stroke="#c0b8a8" stroke-width="3" opacity="0.35"/>
<circle cx="148.1" cy="863.3" r="31.7" fill="#c0b8a8" opacity="0.4"/>
<text x="255.2" y="765.5" text-anchor="end" font-size="12" font-weight="bold" fill="#888888" opacity="0.6">4</text>
<text x="261.2" y="1165.0" text-anchor="end" font-size="9" fill="#888888" opacity="0.5">MED</text>
<rect x="277.2" y="749.5" width="493.8" height="421.5" rx="2" fill="#f5f0e8" stroke="#2a2a2a" stroke-width="1.5"/>
<path d="M456.3,1053.0 L462.4,998.5 Q468.6,994.5 505.3,994.5 L542.8,994.5 Q579.6,994.5 585.7,998.5 L591.9,1053.0 Z" fill="#b0b0b0" opacity="0.35"/>
<line x1="462.4" y1="1024.5" x2="585.7" y2="1024.5" stroke="#b0b0b0" stroke-width="1" opacity="0.3"/>
<line x1="462.4" y1="998.5" x2="437.8" y2="1045.9" stroke="#b0b0b0" stroke-width="2" opacity="0.3"/>
<line x1="437.8" y1="1045.9" x2="456.3" y2="1074.3" stroke="#b0b0b0" stroke-width="2" opacity="0.3"/>
<line x1="585.7" y1="998.5" x2="610.4" y2="1045.9" stroke="#b0b0b0" stroke-width="2" opacity="0.3"/>
<line x1="610.4" y1="1045.9" x2="591.9" y2="1074.3" stroke="#b0b0b0" stroke-width="2" opacity="0.3"/>
<line x1="524.1" y1="910.1" x2="524.1" y2="994.5" stroke="#b0b0b0" stroke-width="3" opacity="0.35"/>
<circle cx="524.1" cy="863.3" r="46.9" fill="#b0b0b0" opacity="0.4"/>
<rect x="283.2" y="757.5" width="175.4" height="40.0" rx="6" fill="white" stroke="#b0b0b0" stroke-width="1.0" opacity="0.92"/>
<polygon points="335.8,797.5 343.8,797.5 332.8,805.5" fill="white" stroke="#b0b0b0" stroke-width="0.8"/>
<line x1="335.3" y1="797.5" x2="344.3" y2="797.5" stroke="white" stroke-width="1.5"/>
<text x="289.2" y="774.5" font-size="11.0" fill="#b0b0b0" font-weight="700">SABLE</text>
<text x="289.2" y="788.5" font-size="11.0" fill="#333333">Conditions. Non-negotiable.</text>
<rect x="283.2" y="807.5" width="481.8" height="54.0" rx="6" fill="white" stroke="#b0b0b0" stroke-width="1.0" opacity="0.92"/>
<polygon points="427.7,861.5 435.7,861.5 424.7,869.5" fill="white" stroke="#b0b0b0" stroke-width="0.8"/>
<line x1="427.2" y1="861.5" x2="436.2" y2="861.5" stroke="white" stroke-width="1.5"/>
<text x="289.2" y="824.5" font-size="11.0" fill="#b0b0b0" font-weight="700">SABLE</text>
<text x="289.2" y="838.5" font-size="11.0" fill="#333333">One. You tell no one. Not a friend. Not family. Not a prayer whispered in church.</text>
<text x="289.2" y="852.5" font-size="11.0" fill="#333333">NO ONE.</text>
<rect x="283.2" y="871.5" width="332.7" height="40.0" rx="6" fill="white" stroke="#b0b0b0" stroke-width="1.0" opacity="0.92"/>
<polygon points="383.0,911.5 391.0,911.5 380.0,919.5" fill="white" stroke="#b0b0b0" stroke-width="0.8"/>
<line x1="382.5" y1="911.5" x2="391.5" y2="911.5" stroke="white" stroke-width="1.5"/>
<text x="289.2" y="888.5" font-size="11.0" fill="#b0b0b0" font-weight="700">SABLE</text>
<text x="289.2" y="902.5" font-size="11.0" fill="#333333">Two. You follow instructions. Mine. Not Jink's. MINE.</text>
<text x="759.0" y="765.5" text-anchor="end" font-size="12" font-weight="bold" fill="#888888" opacity="0.6">5</text>
<text x="765.0" y="1165.0" text-anchor="end" font-size="9" fill="#888888" opacity="0.5">MW</text>
</svg>