<svg xmlns="http://www.w3.org/2000/svg" viewBox="0 0 800 1200" width="800" height="1200" style="background:#ffffff">
<style>
  text { font-family: "Helvetica Neue", Helvetica, Arial, sans-serif; }
</style>
<text x="400.0" y="22" text-anchor="middle" font-size="16" fill="#888888" font-weight="500">PAGE 18  (4 panels)</text>
<rect x="29.0" y="59.0" width="366.0" height="364.0" rx="2" fill="#f5f0e8" stroke="#2a2a2a" stroke-width="1.5"/>
<ellipse cx="212.0" cy="211.9" rx="114.7" ry="163.8" fill="#6a5acd" opacity="0.18"/>
<path d="M91.6,154.6 Q212.0,23.5 332.4,154.6" fill="none" stroke="#6a5acd" stroke-width="3" opacity="0.35"/>
<line x1="171.9" y1="175.8" x2="206.3" y2="173.8" stroke="#a89888" stroke-width="1.5" opacity="0.45"/>
<line x1="217.7" y1="173.8" x2="252.1" y2="175.8" stroke="#a89888" stroke-width="1.5" opacity="0.45"/>
<ellipse cx="179.9" cy="192.2" rx="13.8" ry="8.2" fill="#a89888" opacity="0.45"/>
<ellipse cx="244.1" cy="192.2" rx="13.8" ry="8.2" fill="#a89888" opacity="0.45"/>
<line x1="212.0" y1="215.2" x2="212.0" y2="241.4" stroke="#a89888" stroke-width="1.2" opacity="0.35"/>
<path d="M205.1,241.4 Q212.0,244.4 218.9,241.4" fill="none" stroke="#a89888" stroke-width="1" opacity="0.3"/>
<line x1="183.3" y1="264.3" x2="240.7" y2="264.3" stroke="#a89888" stroke-width="1.2" opacity="0.35"/>
<rect x="35.0" y="67.0" width="354.0" height="40.0" rx="6" fill="white" stroke="#6a5acd" stroke-width="1.0" opacity="0.92"/>
<polygon points="141.2,107.0 149.2,107.0 138.2,115.0" fill="white" stroke="#6a5acd" stroke-width="0.8"/>
<line x1="140.7" y1="107.0" x2="149.7" y2="107.0" stroke="white" stroke-width="1.5"/>
<text x="41.0" y="84.0" font-size="11.0" fill="#6a5acd" font-weight="700">LUMA</text>
<text x="41.0" y="98.0" font-size="11.0" fill="#333333">It's a marker. A waypoint glyph. Standard survey notation.</text>
<rect x="122.9" y="117.0" width="266.1" height="40.0" rx="6" fill="white" stroke="#6a5acd" stroke-width="1.0" opacity="0.92"/>
<polygon points="202.7,157.0 210.7,157.0 199.7,165.0" fill="white" stroke="#6a5acd" stroke-width="0.8"/>
<line x1="202.2" y1="157.0" x2="211.2" y2="157.0" stroke="white" stroke-width="1.5"/>
<text x="128.9" y="134.0" font-size="11.0" fill="#6a5acd" font-weight="700">LUMA</text>
<text x="128.9" y="148.0" font-size="11.0" fill="#333333">Standard survey notation from our service.</text>
<text x="383.0" y="75.0" text-anchor="end" font-size="12" font-weight="bold" fill="#888888" opacity="0.6">1</text>
<text x="389.0" y="417.0" text-anchor="end" font-size="9" fill="#888888" opacity="0.5">ECU</text>
<rect x="405.0" y="59.0" width="366.0" height="364.0" rx="2" fill="#f5f0e8" stroke="#2a2a2a" stroke-width="1.5"/>
<path d="M486.1,332.0 Q486.1,281.0 562.5,274.7 L613.5,274.7 Q689.9,281.0 689.9,332.0 L689.9,379.3 L486.1,379.3 Z" fill="#6a5acd" opacity="0.25"/>
<path d="M565.7,274.7 L588.0,306.5 L610.3,274.7" fill="none" stroke="#6a5acd" stroke-width="1" opacity="0.3"/>
<circle cx="588.0" cy="204.6" r="63.7" fill="#6a5acd" opacity="0.35"/>
<path d="M524.3,217.3 Q533.9,274.7 588.0,277.9 Q642.1,274.7 651.7,217.3" fill="none" stroke="#6a5acd" stroke-width="1.2" opacity="0.3"/>
<path d="M521.1,198.2 Q588.0,121.8 654.9,198.2" fill="none" stroke="#6a5acd" stroke-width="2" opacity="0.4"/>
<ellipse cx="522.3" cy="207.8" rx="2.5" ry="4" fill="#6a5acd" opacity="0.25"/>
<ellipse cx="653.7" cy="207.8" rx="2.5" ry="4" fill="#6a5acd" opacity="0.25"/>
<rect x="411.0" y="67.0" width="354.0" height="96.0" rx="6" fill="white" stroke="#6a5acd" stroke-width="1.0" opacity="0.92"/>
<polygon points="517.2,163.0 525.2,163.0 514.2,171.0" fill="white" stroke="#6a5acd" stroke-width="0.8"/>
<line x1="516.7" y1="163.0" x2="525.7" y2="163.0" stroke="white" stroke-width="1.5"/>
<text x="417.0" y="84.0" font-size="11.0" fill="#6a5acd" font-weight="700">LUMA</text>
<text x="417.0" y="98.0" font-size="11.0" fill="#333333">Glyph photographed. Spectral analysis confirms fairy-script</text>
<text x="417.0" y="112.0" font-size="11.0" fill="#333333">substrate consistent with standard survey tools, estimated</text>
<text x="417.0" y="126.0" font-size="11.0" fill="#333333">manufacture date pre-1600. Residual charge detected.</text>
<text x="417.0" y="140.0" font-size="11.0" fill="#333333">Material match to current-issue scanning equipment at</text>
<text x="417.0" y="154.0" font-size="11.0" fill="#333333">ninety-four point two percent.</text>
<rect x="420.2" y="173.0" width="344.8" height="40.0" rx="6" fill="white" stroke="#6a5acd" stroke-width="1.0" opacity="0.92"/>
<polygon points="523.7,213.0 531.7,213.0 520.7,221.0" fill="white" stroke="#6a5acd" stroke-width="0.8"/>
<line x1="523.2" y1="213.0" x2="532.2" y2="213.0" stroke="white" stroke-width="1.5"/>
<text x="426.2" y="190.0" font-size="11.0" fill="#6a5acd" font-weight="700">LUMA</text>
<text x="426.2" y="204.0" font-size="11.0" fill="#333333">Someone from our service was here. Centuries before us.</text>
<text x="759.0" y="75.0" text-anchor="end" font-size="12" font-weight="bold" fill="#888888" opacity="0.6">2</text>
<text x="765.0" y="417.0" text-anchor="end" font-size="9" fill="#888888" opacity="0.5">MCU</text>
<rect x="29.0" y="433.0" width="742.0" height="364.0" rx="2" fill="#f5f0e8" stroke="#2a2a2a" stroke-width="1.5"/>
<path d="M341.4,695.1 L346.8,648.6 Q352.1,644.6 383.8,644.6 L416.2,644.6 Q447.9,644.6 453.2,648.6 L458.6,695.1 Z" fill="#6a5acd" opacity="0.35"/>
<line x1="346.8" y1="670.5" x2="453.2" y2="670.5" stroke="#6a5acd" stroke-width="1" opacity="0.3"/>
<line x1="346.8" y1="648.6" x2="325.5" y2="689.5" stroke="#6a5acd" stroke-width="2" opacity="0.3"/>
<line x1="325.5" y1="689.5" x2="341.4" y2="714.1" stroke="#6a5acd" stroke-width="2" opacity="0.3"/>
<line x1="453.2" y1="648.6" x2="474.5" y2="689.5" stroke="#6a5acd" stroke-width="2" opacity="0.3"/>
<line x1="474.5" y1="689.5" x2="458.6" y2="714.1" stroke="#6a5acd" stroke-width="2" opacity="0.3"/>
<line x1="400.0" y1="571.7" x2="400.0" y2="644.6" stroke="#6a5acd" stroke-width="3" opacity="0.35"/>
<circle cx="400.0" cy="531.3" r="40.5" fill="#6a5acd" opacity="0.4"/>
<rect x="35.0" y="441.0" width="284.2" height="40.0" rx="6" fill="white" stroke="#6a5acd" stroke-width="1.0" opacity="0.92"/>
<polygon points="120.3,481.0 128.3,481.0 117.3,489.0" fill="white" stroke="#6a5acd" stroke-width="0.8"/>
<line x1="119.8" y1="481.0" x2="128.8" y2="481.0" stroke="white" stroke-width="1.5"/>
<text x="41.0" y="458.0" font-size="11.0" fill="#6a5acd" font-weight="700">LUMA</text>
<text x="41.0" y="472.0" font-size="11.0" fill="#333333">You followed protocol. Even alone. Even here.</text>
<text x="759.0" y="449.0" text-anchor="end" font-size="12" font-weight="bold" fill="#888888" opacity="0.6">3</text>
<text x="765.0" y="791.0" text-anchor="end" font-size="9" fill="#888888" opacity="0.5">MED</text>
<rect x="29.0" y="807.0" width="742.0" height="364.0" rx="2" fill="#f5f0e8" stroke="#2a2a2a" stroke-width="1.5"/>
<line x1="35.0" y1="1090.9" x2="765.0" y2="1090.9" stroke="#a89888" stroke-width="1.0" opacity="0.5"/>
<ellipse cx="400.0" cy="1092.9" rx="11.2" ry="2.7" fill="#a89888" opacity="0.2"/>
<line x1="397.3" y1="1075.2" x2="393.2" y2="1090.9" stroke="#6a5acd" stroke-width="2" opacity="0.5"/>
<line x1="402.7" y1="1075.2" x2="406.8" y2="1090.9" stroke="#6a5acd" stroke-width="2" opacity="0.5"/>
<line x1="400.0" y1="1062.1" x2="400.0" y2="1075.2" stroke="#6a5acd" stroke-width="2.5" opacity="0.6"/>
<line x1="386.5" y1="1064.1" x2="413.5" y2="1064.1" stroke="#6a5acd" stroke-width="2" opacity="0.5"/>
<line x1="386.5" y1="1064.1" x2="382.0" y2="1075.6" stroke="#6a5acd" stroke-width="1.5" opacity="0.4"/>
<line x1="413.5" y1="1064.1" x2="418.0" y2="1075.6" stroke="#6a5acd" stroke-width="1.5" opacity="0.4"/>
<circle cx="400.0" cy="1045.9" r="8.1" fill="#6a5acd" opacity="0.6"/>
<rect x="35.0" y="815.0" width="223.8" height="40.0" rx="6" fill="white" stroke="#6a5acd" stroke-width="1.0" opacity="0.92"/>
<polygon points="102.1,855.0 110.1,855.0 99.1,863.0" fill="white" stroke="#6a5acd" stroke-width="0.8"/>
<line x1="101.6" y1="855.0" x2="110.6" y2="855.0" stroke="white" stroke-width="1.5"/>
<text x="41.0" y="832.0" font-size="11.0" fill="#6a5acd" font-weight="700">LUMA</text>
<text x="41.0" y="846.0" font-size="11.0" fill="#333333">Not yet. I need more data before I—</text>
<rect x="650.1" y="865.0" width="114.9" height="40.0" rx="6" fill="white" stroke="#6a5acd" stroke-width="1.0" opacity="0.92"/>
<polygon points="684.6,905.0 692.6,905.0 681.6,913.0" fill="white" stroke="#6a5acd" stroke-width="0.8"/>
<line x1="684.1" y1="905.0" x2="693.1" y2="905.0" stroke="white" stroke-width="1.5"/>
<text x="656.1" y="882.0" font-size="11.0" fill="#6a5acd" font-weight="700">LUMA</text>
<text x="656.1" y="896.0" font-size="11.0" fill="#333333">I need more data.</text>
<text x="759.0" y="823.0" text-anchor="end" font-size="12" font-weight="bold" fill="#888888" opacity="0.6">4</text>
<text x="765.0" y="1165.0" text-anchor="end" font-size="9" fill="#888888" opacity="0.5">WIDE</text>
</svg>