<svg xmlns="http://www.w3.org/2000/svg" viewBox="0 0 800 1200" width="800" height="1200" style="background:#ffffff">
<style>
  text { font-family: "Helvetica Neue", Helvetica, Arial, sans-serif; }
</style>
<text x="400.0" y="22" text-anchor="middle" font-size="16" fill="#888888" font-weight="500">PAGE 10  (5 panels)</text>
<rect x="29.0" y="59.0" width="742.0" height="364.0" rx="2" fill="#f5f0e8" stroke="#2a2a2a" stroke-width="1.5"/>
<path d="M341.4,321.1 L346.8,274.6 Q352.1,270.6 383.8,270.6 L416.2,270.6 Q447.9,270.6 453.2,274.6 L458.6,321.1 Z" fill="#b0b0b0" opacity="0.35"/>
<line x1="346.8" y1="296.5" x2="453.2" y2="296.5" stroke="#b0b0b0" stroke-width="1" opacity="0.3"/>
<line x1="346.8" y1="274.6" x2="325.5" y2="315.5" stroke="#b0b0b0" stroke-width="2" opacity="0.3"/>
<line x1="325.5" y1="315.5" x2="341.4" y2="340.1" stroke="#b0b0b0" stroke-width="2" opacity="0.3"/>
<line x1="453.2" y1="274.6" x2="474.5" y2="315.5" stroke="#b0b0b0" stroke-width="2" opacity="0.3"/>
<line x1="474.5" y1="315.5" x2="458.6" y2="340.1" stroke="#b0b0b0" stroke-width="2" opacity="0.3"/>
<line x1="400.0" y1="197.7" x2="400.0" y2="270.6" stroke="#b0b0b0" stroke-width="3" opacity="0.35"/>
<circle cx="400.0" cy="157.3" r="40.5" fill="#b0b0b0" opacity="0.4"/>
<rect x="35.0" y="67.0" width="730.0" height="40.0" rx="6" fill="white" stroke="#b0b0b0" stroke-width="1.0" opacity="0.92"/>
<polygon points="254.0,107.0 262.0,107.0 251.0,115.0" fill="white" stroke="#b0b0b0" stroke-width="0.8"/>
<line x1="253.5" y1="107.0" x2="262.5" y2="107.0" stroke="white" stroke-width="1.5"/>
<text x="41.0" y="84.0" font-size="11.0" fill="#b0b0b0" font-weight="700">SABLE</text>
<text x="41.0" y="98.0" font-size="11.0" fill="#333333">Three. We are not fairies. We are not magic. We are soldiers, stranded, trying to get home. You do not make us into a story.</text>
<rect x="686.5" y="117.0" width="78.6" height="40.0" rx="6" fill="white" stroke="#c49a6c" stroke-width="1.0" opacity="0.92"/>
<polygon points="710.0,157.0 718.0,157.0 707.0,165.0" fill="white" stroke="#c49a6c" stroke-width="0.8"/>
<line x1="709.5" y1="157.0" x2="718.5" y2="157.0" stroke="white" stroke-width="1.5"/>
<text x="692.5" y="134.0" font-size="11.0" fill="#c49a6c" font-weight="700">THEODORE</text>
<text x="692.5" y="148.0" font-size="11.0" fill="#333333">Yes, ma'am.</text>
<rect x="35.0" y="167.0" width="647.2" height="40.0" rx="6" fill="white" stroke="#b0b0b0" stroke-width="1.0" opacity="0.92"/>
<polygon points="229.2,207.0 237.2,207.0 226.2,215.0" fill="white" stroke="#b0b0b0" stroke-width="0.8"/>
<line x1="228.7" y1="207.0" x2="237.7" y2="207.0" stroke="white" stroke-width="1.5"/>
<text x="41.0" y="184.0" font-size="11.0" fill="#b0b0b0" font-weight="700">SABLE</text>
<text x="41.0" y="198.0" font-size="11.0" fill="#333333">And understand this. If you compromise us — if you tell, or lead someone here, or put this squad at risk—</text>
<rect x="438.4" y="217.0" width="326.6" height="40.0" rx="6" fill="white" stroke="#b0b0b0" stroke-width="1.0" opacity="0.92"/>
<polygon points="536.4,257.0 544.4,257.0 533.4,265.0" fill="white" stroke="#b0b0b0" stroke-width="0.8"/>
<line x1="535.9" y1="257.0" x2="544.9" y2="257.0" stroke="white" stroke-width="1.5"/>
<text x="444.4" y="234.0" font-size="11.0" fill="#b0b0b0" font-weight="700">SABLE</text>
<text x="444.4" y="248.0" font-size="11.0" fill="#333333">We disappear. And we take your memory of us with us.</text>
<text x="759.0" y="75.0" text-anchor="end" font-size="12" font-weight="bold" fill="#888888" opacity="0.6">1</text>
<text x="765.0" y="417.0" text-anchor="end" font-size="9" fill="#888888" opacity="0.5">MED</text>
<rect x="29.0" y="433.0" width="493.8" height="364.0" rx="2" fill="#f5f0e8" stroke="#2a2a2a" stroke-width="1.5"/>
<rect x="35.0" y="441.0" width="199.6" height="40.0" rx="6" fill="white" stroke="#c49a6c" stroke-width="1.0" opacity="0.92"/>
<polygon points="94.9,481.0 102.9,481.0 91.9,489.0" fill="white" stroke="#c49a6c" stroke-width="0.8"/>
<line x1="94.4" y1="481.0" x2="103.4" y2="481.0" stroke="white" stroke-width="1.5"/>
<text x="41.0" y="458.0" font-size="11.0" fill="#c49a6c" font-weight="700">THEODORE</text>
<text x="41.0" y="472.0" font-size="11.0" fill="#333333">I give you my word. Not a soul.</text>
<rect x="129.7" y="491.0" width="387.1" height="40.0" rx="6" fill="white" stroke="#c49a6c" stroke-width="1.0" opacity="0.92"/>
<polygon points="245.9,531.0 253.9,531.0 242.9,539.0" fill="white" stroke="#c49a6c" stroke-width="0.8"/>
<line x1="245.4" y1="531.0" x2="254.4" y2="531.0" stroke="white" stroke-width="1.5"/>
<text x="135.7" y="508.0" font-size="11.0" fill="#c49a6c" font-weight="700">THEODORE</text>
<text x="135.7" y="522.0" font-size="11.0" fill="#333333">And I know you're not fairies. I know you're something better.</text>
<text x="510.8" y="449.0" text-anchor="end" font-size="12" font-weight="bold" fill="#888888" opacity="0.6">2</text>
<rect x="532.8" y="433.0" width="238.2" height="364.0" rx="2" fill="#f5f0e8" stroke="#2a2a2a" stroke-width="1.5"/>
<circle cx="651.9" cy="615.0" r="45.0" fill="#c0b8a8" opacity="0.22"/>
<line x1="627.2" y1="603.8" x2="645.2" y2="596.1" stroke="#a89888" stroke-width="1.5" opacity="0.5"/>
<line x1="658.7" y1="596.1" x2="676.7" y2="603.8" stroke="#a89888" stroke-width="1.5" opacity="0.5"/>
<ellipse cx="638.4" cy="610.5" rx="4.5" ry="2.7" fill="#a89888" opacity="0.5"/>
<ellipse cx="665.4" cy="610.5" rx="4.5" ry="2.7" fill="#a89888" opacity="0.5"/>
<line x1="651.9" y1="615.9" x2="651.9" y2="624.0" stroke="#a89888" stroke-width="1" opacity="0.35"/>
<ellipse cx="651.9" cy="632.1" rx="6.8" ry="3.6" fill="#a89888" opacity="0.25"/>
<line x1="696.7" y1="640.9" x2="704.5" y2="645.4" stroke="#a89888" stroke-width="1" opacity="0.3"/>
<line x1="677.8" y1="659.8" x2="682.3" y2="667.6" stroke="#a89888" stroke-width="1" opacity="0.3"/>
<line x1="626.0" y1="659.8" x2="621.5" y2="667.6" stroke="#a89888" stroke-width="1" opacity="0.3"/>
<line x1="607.1" y1="640.9" x2="599.3" y2="645.4" stroke="#a89888" stroke-width="1" opacity="0.3"/>
<line x1="607.1" y1="589.1" x2="599.3" y2="584.6" stroke="#a89888" stroke-width="1" opacity="0.3"/>
<line x1="626.0" y1="570.2" x2="621.5" y2="562.4" stroke="#a89888" stroke-width="1" opacity="0.3"/>
<line x1="677.8" y1="570.2" x2="682.3" y2="562.4" stroke="#a89888" stroke-width="1" opacity="0.3"/>
<line x1="696.7" y1="589.1" x2="704.5" y2="584.6" stroke="#a89888" stroke-width="1" opacity="0.3"/>
<text x="759.0" y="449.0" text-anchor="end" font-size="12" font-weight="bold" fill="#888888" opacity="0.6">3</text>
<text x="765.0" y="791.0" text-anchor="end" font-size="9" fill="#888888" opacity="0.5">RXN</text>
<rect x="29.0" y="807.0" width="366.0" height="364.0" rx="2" fill="#f5f0e8" stroke="#2a2a2a" stroke-width="1.5"/>
<path d="M153.4,1069.1 L158.8,1022.6 Q164.1,1018.6 195.8,1018.6 L228.2,1018.6 Q259.9,1018.6 265.2,1022.6 L270.6,1069.1 Z" fill="#c87533" opacity="0.35"/>
<line x1="158.8" y1="1044.5" x2="265.2" y2="1044.5" stroke="#c87533" stroke-width="1" opacity="0.3"/>
<line x1="158.8" y1="1022.6" x2="137.5" y2="1063.5" stroke="#c87533" stroke-width="2" opacity="0.3"/>
<line x1="137.5" y1="1063.5" x2="153.4" y2="1088.1" stroke="#c87533" stroke-width="2" opacity="0.3"/>
<line x1="265.2" y1="1022.6" x2="286.5" y2="1063.5" stroke="#c87533" stroke-width="2" opacity="0.3"/>
<line x1="286.5" y1="1063.5" x2="270.6" y2="1088.1" stroke="#c87533" stroke-width="2" opacity="0.3"/>
<line x1="212.0" y1="945.7" x2="212.0" y2="1018.6" stroke="#c87533" stroke-width="3" opacity="0.35"/>
<circle cx="212.0" cy="905.3" r="40.5" fill="#c87533" opacity="0.4"/>
<rect x="35.0" y="815.0" width="354.0" height="40.0" rx="6" fill="white" stroke="#c87533" stroke-width="1.0" opacity="0.92"/>
<polygon points="141.2,855.0 149.2,855.0 138.2,863.0" fill="white" stroke="#c87533" stroke-width="0.8"/>
<line x1="140.7" y1="855.0" x2="149.7" y2="855.0" stroke="white" stroke-width="1.5"/>
<text x="41.0" y="832.0" font-size="11.0" fill="#c87533" font-weight="700">WREN</text>
<text x="41.0" y="846.0" font-size="11.0" fill="#333333">If the resonance charger scales... the induction ratio...</text>
<text x="383.0" y="823.0" text-anchor="end" font-size="12" font-weight="bold" fill="#888888" opacity="0.6">4</text>
<text x="389.0" y="1165.0" text-anchor="end" font-size="9" fill="#888888" opacity="0.5">MED</text>
<rect x="405.0" y="807.0" width="366.0" height="364.0" rx="2" fill="#f5f0e8" stroke="#2a2a2a" stroke-width="1.5"/>
<path d="M486.1,1080.0 Q486.1,1029.0 562.5,1022.7 L613.5,1022.7 Q689.9,1029.0 689.9,1080.0 L689.9,1127.3 L486.1,1127.3 Z" fill="#c87533" opacity="0.25"/>
<path d="M565.7,1022.7 L588.0,1054.5 L610.3,1022.7" fill="none" stroke="#c87533" stroke-width="1" opacity="0.3"/>
<circle cx="588.0" cy="952.6" r="63.7" fill="#c87533" opacity="0.35"/>
<path d="M524.3,965.3 Q533.9,1022.7 588.0,1025.9 Q642.1,1022.7 651.7,965.3" fill="none" stroke="#c87533" stroke-width="1.2" opacity="0.3"/>
<path d="M521.1,946.2 Q588.0,869.8 654.9,946.2" fill="none" stroke="#c87533" stroke-width="2" opacity="0.4"/>
<ellipse cx="522.3" cy="955.8" rx="2.5" ry="4" fill="#c87533" opacity="0.25"/>
<ellipse cx="653.7" cy="955.8" rx="2.5" ry="4" fill="#c87533" opacity="0.25"/>
<rect x="411.0" y="815.0" width="354.0" height="68.0" rx="6" fill="white" stroke="#c87533" stroke-width="1.0" opacity="0.92"/>
<polygon points="517.2,883.0 525.2,883.0 514.2,891.0" fill="white" stroke="#c87533" stroke-width="0.8"/>
<line x1="516.7" y1="883.0" x2="525.7" y2="883.0" stroke="white" stroke-width="1.5"/>
<text x="417.0" y="832.0" font-size="11.0" fill="#c87533" font-weight="700">WREN</text>
<text x="417.0" y="846.0" font-size="11.0" fill="#333333">He got the principle right. The execution is crude — coil</text>
<text x="417.0" y="860.0" font-size="11.0" fill="#333333">ratios are wrong, the brass is too impure to sustain clean</text>
<text x="417.0" y="874.0" font-size="11.0" fill="#333333">resonance.</text>
<rect x="411.0" y="893.0" width="354.0" height="54.0" rx="6" fill="white" stroke="#c87533" stroke-width="1.0" opacity="0.92"/>
<polygon points="517.2,947.0 525.2,947.0 514.2,955.0" fill="white" stroke="#c87533" stroke-width="0.8"/>
<line x1="516.7" y1="947.0" x2="525.7" y2="947.0" stroke="white" stroke-width="1.5"/>
<text x="417.0" y="910.0" font-size="11.0" fill="#c87533" font-weight="700">WREN</text>
<text x="417.0" y="924.0" font-size="11.0" fill="#333333">But the principle. He reverse-engineered resonance charging</text>
<text x="417.0" y="938.0" font-size="11.0" fill="#333333">from a dead shard.</text>
<rect x="411.0" y="957.0" width="84.6" height="40.0" rx="6" fill="white" stroke="#6a5acd" stroke-width="1.0" opacity="0.92"/>
<polygon points="436.4,997.0 444.4,997.0 433.4,1005.0" fill="white" stroke="#6a5acd" stroke-width="0.8"/>
<line x1="435.9" y1="997.0" x2="444.9" y2="997.0" stroke="white" stroke-width="1.5"/>
<text x="417.0" y="974.0" font-size="11.0" fill="#6a5acd" font-weight="700">LUMA</text>
<text x="417.0" y="988.0" font-size="11.0" fill="#333333">He's clever.</text>
<rect x="680.4" y="1007.0" width="84.6" height="40.0" rx="6" fill="white" stroke="#c87533" stroke-width="1.0" opacity="0.92"/>
<polygon points="705.8,1047.0 713.8,1047.0 702.8,1055.0" fill="white" stroke="#c87533" stroke-width="0.8"/>
<line x1="705.3" y1="1047.0" x2="714.3" y2="1047.0" stroke="white" stroke-width="1.5"/>
<text x="686.4" y="1024.0" font-size="11.0" fill="#c87533" font-weight="700">WREN</text>
<text x="686.4" y="1038.0" font-size="11.0" fill="#333333">He's useful.</text>
<text x="759.0" y="823.0" text-anchor="end" font-size="12" font-weight="bold" fill="#888888" opacity="0.6">5</text>
<text x="765.0" y="1165.0" text-anchor="end" font-size="9" fill="#888888" opacity="0.5">MCU</text>
</svg>