<svg xmlns="http://www.w3.org/2000/svg" viewBox="0 0 800 1200" width="800" height="1200" style="background:#ffffff">
<style>
  text { font-family: "Helvetica Neue", Helvetica, Arial, sans-serif; }
</style>
<text x="400.0" y="22" text-anchor="middle" font-size="16" fill="#888888" font-weight="500">PAGE 5  (5 panels)</text>
<rect x="29.0" y="59.0" width="742.0" height="1112.0" rx="2" fill="#f5f0e8" stroke="#2a2a2a" stroke-width="1.5"/>
<line x1="37.0" y1="448.2" x2="763.0" y2="448.2" stroke="#a89888" stroke-width="0.6" opacity="0.2"/>
<line x1="400.0" y1="448.2" x2="103.2" y2="1059.8" stroke="#a89888" stroke-width="0.8" opacity="0.25"/>
<line x1="400.0" y1="448.2" x2="251.6" y2="1059.8" stroke="#a89888" stroke-width="0.8" opacity="0.25"/>
<line x1="400.0" y1="448.2" x2="348.1" y2="1059.8" stroke="#a89888" stroke-width="0.8" opacity="0.25"/>
<line x1="400.0" y1="448.2" x2="451.9" y2="1059.8" stroke="#a89888" stroke-width="0.8" opacity="0.25"/>
<line x1="400.0" y1="448.2" x2="548.4" y2="1059.8" stroke="#a89888" stroke-width="0.8" opacity="0.25"/>
<line x1="400.0" y1="448.2" x2="696.8" y2="1059.8" stroke="#a89888" stroke-width="0.8" opacity="0.25"/>
<circle cx="400.0" cy="448.2" r="3" fill="#a89888" opacity="0.3"/>
<rect x="35.0" y="67.0" width="193.5" height="40.0" rx="6" fill="white" stroke="#c49a6c" stroke-width="1.0" opacity="0.92"/>
<polygon points="93.1,107.0 101.1,107.0 90.1,115.0" fill="white" stroke="#c49a6c" stroke-width="0.8"/>
<line x1="92.6" y1="107.0" x2="101.6" y2="107.0" stroke="white" stroke-width="1.5"/>
<text x="41.0" y="84.0" font-size="11.0" fill="#c49a6c" font-weight="700">THEODORE</text>
<text x="41.0" y="98.0" font-size="11.0" fill="#333333">You're all here. You're all...</text>
<rect x="703.0" y="117.0" width="62.0" height="40.0" rx="6" fill="white" stroke="#c49a6c" stroke-width="1.0" opacity="0.92"/>
<polygon points="721.6,157.0 729.6,157.0 718.6,165.0" fill="white" stroke="#c49a6c" stroke-width="0.8"/>
<line x1="721.1" y1="157.0" x2="730.1" y2="157.0" stroke="white" stroke-width="1.5"/>
<text x="709.0" y="134.0" font-size="11.0" fill="#c49a6c" font-weight="700">THEODORE</text>
<text x="709.0" y="148.0" font-size="11.0" fill="#333333">...real.</text>
<rect x="35.0" y="167.0" width="538.4" height="40.0" rx="6" fill="white" stroke="#b0b0b0" stroke-width="1.0" opacity="0.92"/>
<polygon points="196.5,207.0 204.5,207.0 193.5,215.0" fill="white" stroke="#b0b0b0" stroke-width="0.8"/>
<line x1="196.0" y1="207.0" x2="205.0" y2="207.0" stroke="white" stroke-width="1.5"/>
<text x="41.0" y="184.0" font-size="11.0" fill="#b0b0b0" font-weight="700">SABLE</text>
<text x="41.0" y="198.0" font-size="11.0" fill="#333333">We are real. We are not fairies. We are not magic. And you are not supposed to be here.</text>
<text x="759.0" y="75.0" text-anchor="end" font-size="12" font-weight="bold" fill="#888888" opacity="0.6">1</text>
<text x="765.0" y="1165.0" text-anchor="end" font-size="9" fill="#888888" opacity="0.5">POV</text>
<rect x="61.6" y="110.1" width="150.4" height="224.4" rx="2" fill="#e8e0d0" stroke="#2a2a2a" stroke-width="1.0"/>
<ellipse cx="136.8" cy="204.3" rx="60.2" ry="101.0" fill="#c0b8a8" opacity="0.18"/>
<path d="M73.6,169.0 Q136.8,88.2 200.0,169.0" fill="none" stroke="#c0b8a8" stroke-width="3" opacity="0.35"/>
<line x1="115.7" y1="182.1" x2="133.8" y2="180.1" stroke="#a89888" stroke-width="1.5" opacity="0.45"/>
<line x1="139.8" y1="180.1" x2="157.9" y2="182.1" stroke="#a89888" stroke-width="1.5" opacity="0.45"/>
<ellipse cx="120.0" cy="192.2" rx="7.2" ry="5.0" fill="#a89888" opacity="0.45"/>
<ellipse cx="153.6" cy="192.2" rx="7.2" ry="5.0" fill="#a89888" opacity="0.45"/>
<line x1="136.8" y1="206.4" x2="136.8" y2="222.5" stroke="#a89888" stroke-width="1.2" opacity="0.35"/>
<path d="M133.2,222.5 Q136.8,225.5 140.4,222.5" fill="none" stroke="#a89888" stroke-width="1" opacity="0.3"/>
<line x1="121.8" y1="236.7" x2="151.8" y2="236.7" stroke="#a89888" stroke-width="1.2" opacity="0.35"/>
<text x="200.0" y="126.1" text-anchor="end" font-size="12" font-weight="bold" fill="#888888" opacity="0.6">2</text>
<text x="206.0" y="328.5" text-anchor="end" font-size="9" fill="#888888" opacity="0.5">CU</text>
<rect x="61.6" y="502.8" width="150.4" height="224.4" rx="2" fill="#e8e0d0" stroke="#2a2a2a" stroke-width="1.0"/>
<circle cx="136.8" cy="615.0" r="36.1" fill="#c0b8a8" opacity="0.22"/>
<line x1="116.9" y1="606.0" x2="131.4" y2="599.8" stroke="#a89888" stroke-width="1.5" opacity="0.5"/>
<line x1="142.2" y1="599.8" x2="156.7" y2="606.0" stroke="#a89888" stroke-width="1.5" opacity="0.5"/>
<ellipse cx="126.0" cy="611.4" rx="3.6" ry="2.2" fill="#a89888" opacity="0.5"/>
<ellipse cx="147.6" cy="611.4" rx="3.6" ry="2.2" fill="#a89888" opacity="0.5"/>
<line x1="136.8" y1="615.7" x2="136.8" y2="622.2" stroke="#a89888" stroke-width="1" opacity="0.35"/>
<ellipse cx="136.8" cy="628.7" rx="5.4" ry="2.9" fill="#a89888" opacity="0.25"/>
<line x1="172.7" y1="635.8" x2="179.0" y2="639.4" stroke="#a89888" stroke-width="1" opacity="0.3"/>
<line x1="157.6" y1="650.9" x2="161.2" y2="657.2" stroke="#a89888" stroke-width="1" opacity="0.3"/>
<line x1="116.0" y1="650.9" x2="112.4" y2="657.2" stroke="#a89888" stroke-width="1" opacity="0.3"/>
<line x1="100.9" y1="635.8" x2="94.6" y2="639.4" stroke="#a89888" stroke-width="1" opacity="0.3"/>
<line x1="100.9" y1="594.2" x2="94.6" y2="590.6" stroke="#a89888" stroke-width="1" opacity="0.3"/>
<line x1="116.0" y1="579.1" x2="112.4" y2="572.8" stroke="#a89888" stroke-width="1" opacity="0.3"/>
<line x1="157.6" y1="579.1" x2="161.2" y2="572.8" stroke="#a89888" stroke-width="1" opacity="0.3"/>
<line x1="172.7" y1="594.2" x2="179.0" y2="590.6" stroke="#a89888" stroke-width="1" opacity="0.3"/>
<text x="200.0" y="518.8" text-anchor="end" font-size="12" font-weight="bold" fill="#888888" opacity="0.6">3</text>
<text x="206.0" y="721.2" text-anchor="end" font-size="9" fill="#888888" opacity="0.5">RXN</text>
<rect x="61.6" y="895.5" width="150.4" height="224.4" rx="2" fill="#e8e0d0" stroke="#2a2a2a" stroke-width="1.0"/>
<circle cx="136.8" cy="1007.7" r="36.1" fill="#c0b8a8" opacity="0.22"/>
<line x1="116.9" y1="998.7" x2="131.4" y2="992.5" stroke="#a89888" stroke-width="1.5" opacity="0.5"/>
<line x1="142.2" y1="992.5" x2="156.7" y2="998.7" stroke="#a89888" stroke-width="1.5" opacity="0.5"/>
<ellipse cx="126.0" cy="1004.1" rx="3.6" ry="2.2" fill="#a89888" opacity="0.5"/>
<ellipse cx="147.6" cy="1004.1" rx="3.6" ry="2.2" fill="#a89888" opacity="0.5"/>
<line x1="136.8" y1="1008.4" x2="136.8" y2="1014.9" stroke="#a89888" stroke-width="1" opacity="0.35"/>
<ellipse cx="136.8" cy="1021.4" rx="5.4" ry="2.9" fill="#a89888" opacity="0.25"/>
<line x1="172.7" y1="1028.5" x2="179.0" y2="1032.1" stroke="#a89888" stroke-width="1" opacity="0.3"/>
<line x1="157.6" y1="1043.6" x2="161.2" y2="1049.9" stroke="#a89888" stroke-width="1" opacity="0.3"/>
<line x1="116.0" y1="1043.6" x2="112.4" y2="1049.9" stroke="#a89888" stroke-width="1" opacity="0.3"/>
<line x1="100.9" y1="1028.5" x2="94.6" y2="1032.1" stroke="#a89888" stroke-width="1" opacity="0.3"/>
<line x1="100.9" y1="986.9" x2="94.6" y2="983.3" stroke="#a89888" stroke-width="1" opacity="0.3"/>
<line x1="116.0" y1="971.8" x2="112.4" y2="965.5" stroke="#a89888" stroke-width="1" opacity="0.3"/>
<line x1="157.6" y1="971.8" x2="161.2" y2="965.5" stroke="#a89888" stroke-width="1" opacity="0.3"/>
<line x1="172.7" y1="986.9" x2="179.0" y2="983.3" stroke="#a89888" stroke-width="1" opacity="0.3"/>
<text x="200.0" y="911.5" text-anchor="end" font-size="12" font-weight="bold" fill="#888888" opacity="0.6">4</text>
<text x="206.0" y="1113.9" text-anchor="end" font-size="9" fill="#888888" opacity="0.5">RXN</text>
</svg>