<svg xmlns="http://www.w3.org/2000/svg" viewBox="0 0 800 1200" width="800" height="1200" style="background:#ffffff">
<style>
  text { font-family: "Helvetica Neue", Helvetica, Arial, sans-serif; }
</style>
<text x="400.0" y="22" text-anchor="middle" font-size="16" fill="#888888" font-weight="500">PAGE 7  (5 panels)</text>
<rect x="29.0" y="59.0" width="742.0" height="364.0" rx="2" fill="#f5f0e8" stroke="#2a2a2a" stroke-width="1.5"/>
<path d="M341.4,321.1 L346.8,274.6 Q352.1,270.6 383.8,270.6 L416.2,270.6 Q447.9,270.6 453.2,274.6 L458.6,321.1 Z" fill="#6a5acd" opacity="0.35"/>
<line x1="346.8" y1="296.5" x2="453.2" y2="296.5" stroke="#6a5acd" stroke-width="1" opacity="0.3"/>
<line x1="346.8" y1="274.6" x2="325.5" y2="315.5" stroke="#6a5acd" stroke-width="2" opacity="0.3"/>
<line x1="325.5" y1="315.5" x2="341.4" y2="340.1" stroke="#6a5acd" stroke-width="2" opacity="0.3"/>
<line x1="453.2" y1="274.6" x2="474.5" y2="315.5" stroke="#6a5acd" stroke-width="2" opacity="0.3"/>
<line x1="474.5" y1="315.5" x2="458.6" y2="340.1" stroke="#6a5acd" stroke-width="2" opacity="0.3"/>
<line x1="400.0" y1="197.7" x2="400.0" y2="270.6" stroke="#6a5acd" stroke-width="3" opacity="0.35"/>
<circle cx="400.0" cy="157.3" r="40.5" fill="#6a5acd" opacity="0.4"/>
<rect x="35.0" y="67.0" width="550.5" height="40.0" rx="6" fill="white" stroke="#6a5acd" stroke-width="1.0" opacity="0.92"/>
<polygon points="200.1,107.0 208.1,107.0 197.1,115.0" fill="white" stroke="#6a5acd" stroke-width="0.8"/>
<line x1="199.6" y1="107.0" x2="208.6" y2="107.0" stroke="white" stroke-width="1.5"/>
<text x="41.0" y="84.0" font-size="11.0" fill="#6a5acd" font-weight="700">LUMA</text>
<text x="41.0" y="98.0" font-size="11.0" fill="#333333">Captain. Before we consider the neural modifier — I need to present a medical assessment.</text>
<rect x="601.8" y="117.0" width="163.2" height="40.0" rx="6" fill="white" stroke="#b0b0b0" stroke-width="1.0" opacity="0.92"/>
<polygon points="650.7,157.0 658.7,157.0 647.7,165.0" fill="white" stroke="#b0b0b0" stroke-width="0.8"/>
<line x1="650.2" y1="157.0" x2="659.2" y2="157.0" stroke="white" stroke-width="1.5"/>
<text x="607.8" y="134.0" font-size="11.0" fill="#b0b0b0" font-weight="700">SABLE</text>
<text x="607.8" y="148.0" font-size="11.0" fill="#333333">You've had three minutes.</text>
<rect x="35.0" y="167.0" width="730.0" height="40.0" rx="6" fill="white" stroke="#6a5acd" stroke-width="1.0" opacity="0.92"/>
<polygon points="254.0,207.0 262.0,207.0 251.0,215.0" fill="white" stroke="#6a5acd" stroke-width="0.8"/>
<line x1="253.5" y1="207.0" x2="262.5" y2="207.0" stroke="white" stroke-width="1.5"/>
<text x="41.0" y="184.0" font-size="11.0" fill="#6a5acd" font-weight="700">LUMA</text>
<text x="41.0" y="198.0" font-size="11.0" fill="#333333">Three minutes and a full neural scan through the floorboards. His brain is still developing. The prefrontal cortex alone—</text>
<text x="759.0" y="75.0" text-anchor="end" font-size="12" font-weight="bold" fill="#888888" opacity="0.6">1</text>
<text x="765.0" y="417.0" text-anchor="end" font-size="9" fill="#888888" opacity="0.5">MW</text>
<rect x="29.0" y="433.0" width="366.0" height="364.0" rx="2" fill="#f5f0e8" stroke="#2a2a2a" stroke-width="1.5"/>
<ellipse cx="212.0" cy="585.9" rx="114.7" ry="163.8" fill="#6a5acd" opacity="0.18"/>
<path d="M91.6,528.5 Q212.0,397.5 332.4,528.5" fill="none" stroke="#6a5acd" stroke-width="3" opacity="0.35"/>
<line x1="171.9" y1="549.8" x2="206.3" y2="547.8" stroke="#a89888" stroke-width="1.5" opacity="0.45"/>
<line x1="217.7" y1="547.8" x2="252.1" y2="549.8" stroke="#a89888" stroke-width="1.5" opacity="0.45"/>
<ellipse cx="179.9" cy="566.2" rx="13.8" ry="8.2" fill="#a89888" opacity="0.45"/>
<ellipse cx="244.1" cy="566.2" rx="13.8" ry="8.2" fill="#a89888" opacity="0.45"/>
<line x1="212.0" y1="589.2" x2="212.0" y2="615.4" stroke="#a89888" stroke-width="1.2" opacity="0.35"/>
<path d="M205.1,615.4 Q212.0,618.4 218.9,615.4" fill="none" stroke="#a89888" stroke-width="1" opacity="0.3"/>
<line x1="183.3" y1="638.3" x2="240.7" y2="638.3" stroke="#a89888" stroke-width="1.2" opacity="0.35"/>
<rect x="35.0" y="441.0" width="354.0" height="82.0" rx="6" fill="white" stroke="#6a5acd" stroke-width="1.0" opacity="0.92"/>
<polygon points="141.2,523.0 149.2,523.0 138.2,531.0" fill="white" stroke="#6a5acd" stroke-width="0.8"/>
<line x1="140.7" y1="523.0" x2="149.7" y2="523.0" stroke="white" stroke-width="1.5"/>
<text x="41.0" y="458.0" font-size="11.0" fill="#6a5acd" font-weight="700">LUMA</text>
<text x="41.0" y="472.0" font-size="11.0" fill="#333333">His neural architecture isn't like ours. The modifier was</text>
<text x="41.0" y="486.0" font-size="11.0" fill="#333333">calibrated for our species. Applied to a human — to a</text>
<text x="41.0" y="500.0" font-size="11.0" fill="#333333">developing human brain — the risk of collateral erasure is</text>
<text x="41.0" y="514.0" font-size="11.0" fill="#333333">significant.</text>
<rect x="74.5" y="533.0" width="314.5" height="54.0" rx="6" fill="white" stroke="#6a5acd" stroke-width="1.0" opacity="0.92"/>
<polygon points="168.8,587.0 176.8,587.0 165.8,595.0" fill="white" stroke="#6a5acd" stroke-width="0.8"/>
<line x1="168.3" y1="587.0" x2="177.3" y2="587.0" stroke="white" stroke-width="1.5"/>
<text x="80.5" y="550.0" font-size="11.0" fill="#6a5acd" font-weight="700">LUMA</text>
<text x="80.5" y="564.0" font-size="11.0" fill="#333333">I'm not talking about headaches. I'm talking about</text>
<text x="80.5" y="578.0" font-size="11.0" fill="#333333">language. Motor function. Self-recognition.</text>
<text x="383.0" y="449.0" text-anchor="end" font-size="12" font-weight="bold" fill="#888888" opacity="0.6">2</text>
<text x="389.0" y="791.0" text-anchor="end" font-size="9" fill="#888888" opacity="0.5">CU</text>
<rect x="405.0" y="433.0" width="366.0" height="364.0" rx="2" fill="#f5f0e8" stroke="#2a2a2a" stroke-width="1.5"/>
<rect x="411.0" y="441.0" width="133.0" height="40.0" rx="6" fill="white" stroke="#b0b0b0" stroke-width="1.0" opacity="0.92"/>
<polygon points="450.9,481.0 458.9,481.0 447.9,489.0" fill="white" stroke="#b0b0b0" stroke-width="0.8"/>
<line x1="450.4" y1="481.0" x2="459.4" y2="481.0" stroke="white" stroke-width="1.5"/>
<text x="417.0" y="458.0" font-size="11.0" fill="#b0b0b0" font-weight="700">SABLE</text>
<text x="417.0" y="472.0" font-size="11.0" fill="#333333">Risk. Not certainty.</text>
<rect x="577.5" y="491.0" width="187.5" height="40.0" rx="6" fill="white" stroke="#6a5acd" stroke-width="1.0" opacity="0.92"/>
<polygon points="633.8,531.0 641.8,531.0 630.8,539.0" fill="white" stroke="#6a5acd" stroke-width="0.8"/>
<line x1="633.3" y1="531.0" x2="642.3" y2="531.0" stroke="white" stroke-width="1.5"/>
<text x="583.5" y="508.0" font-size="11.0" fill="#6a5acd" font-weight="700">LUMA</text>
<text x="583.5" y="522.0" font-size="11.0" fill="#333333">Significant risk. To a child.</text>
<rect x="411.0" y="541.0" width="62.0" height="40.0" rx="6" fill="white" stroke="#b0b0b0" stroke-width="1.0" opacity="0.92"/>
<polygon points="429.6,581.0 437.6,581.0 426.6,589.0" fill="white" stroke="#b0b0b0" stroke-width="0.8"/>
<line x1="429.1" y1="581.0" x2="438.1" y2="581.0" stroke="white" stroke-width="1.5"/>
<text x="417.0" y="558.0" font-size="11.0" fill="#b0b0b0" font-weight="700">SABLE</text>
<text x="417.0" y="572.0" font-size="11.0" fill="#333333">Noted.</text>
<text x="759.0" y="449.0" text-anchor="end" font-size="12" font-weight="bold" fill="#888888" opacity="0.6">3</text>
<rect x="29.0" y="807.0" width="238.2" height="364.0" rx="2" fill="#f5f0e8" stroke="#2a2a2a" stroke-width="1.5"/>
<path d="M79.5,1038.3 Q79.5,1004.0 130.9,999.8 L165.2,999.8 Q216.7,1004.0 216.7,1038.3 L216.7,1127.3 L79.5,1127.3 Z" fill="#c87533" opacity="0.25"/>
<path d="M133.1,999.8 L148.1,1021.2 L163.1,999.8" fill="none" stroke="#c87533" stroke-width="1" opacity="0.3"/>
<circle cx="148.1" cy="952.6" r="42.9" fill="#c87533" opacity="0.35"/>
<path d="M105.2,961.2 Q111.6,999.8 148.1,1001.9 Q184.5,999.8 190.9,961.2" fill="none" stroke="#c87533" stroke-width="1.2" opacity="0.3"/>
<path d="M103.1,948.3 Q148.1,896.9 193.1,948.3" fill="none" stroke="#c87533" stroke-width="2" opacity="0.4"/>
<ellipse cx="103.2" cy="954.7" rx="2.5" ry="4" fill="#c87533" opacity="0.25"/>
<ellipse cx="192.9" cy="954.7" rx="2.5" ry="4" fill="#c87533" opacity="0.25"/>
<rect x="35.0" y="815.0" width="111.0" height="38.0" rx="6" fill="white" stroke="#c87533" stroke-width="1.0" opacity="0.92"/>
<polygon points="68.3,853.0 76.3,853.0 65.3,861.0" fill="white" stroke="#c87533" stroke-width="0.8"/>
<line x1="67.8" y1="853.0" x2="76.8" y2="853.0" stroke="white" stroke-width="1.5"/>
<text x="41.0" y="831.0" font-size="10.0" fill="#c87533" font-weight="700">WREN</text>
<text x="41.0" y="844.0" font-size="10.0" fill="#333333">Both of you. Stop.</text>
<text x="255.2" y="823.0" text-anchor="end" font-size="12" font-weight="bold" fill="#888888" opacity="0.6">4</text>
<text x="261.2" y="1165.0" text-anchor="end" font-size="9" fill="#888888" opacity="0.5">MCU</text>
<rect x="277.2" y="807.0" width="493.8" height="364.0" rx="2" fill="#f5f0e8" stroke="#2a2a2a" stroke-width="1.5"/>
<path d="M465.5,1069.1 L470.8,1022.6 Q476.2,1018.6 507.9,1018.6 L540.3,1018.6 Q572.0,1018.6 577.3,1022.6 L582.6,1069.1 Z" fill="#c87533" opacity="0.35"/>
<line x1="470.8" y1="1044.5" x2="577.3" y2="1044.5" stroke="#c87533" stroke-width="1" opacity="0.3"/>
<line x1="470.8" y1="1022.6" x2="449.6" y2="1063.5" stroke="#c87533" stroke-width="2" opacity="0.3"/>
<line x1="449.6" y1="1063.5" x2="465.5" y2="1088.1" stroke="#c87533" stroke-width="2" opacity="0.3"/>
<line x1="577.3" y1="1022.6" x2="598.6" y2="1063.5" stroke="#c87533" stroke-width="2" opacity="0.3"/>
<line x1="598.6" y1="1063.5" x2="582.6" y2="1088.1" stroke="#c87533" stroke-width="2" opacity="0.3"/>
<line x1="524.1" y1="945.7" x2="524.1" y2="1018.6" stroke="#c87533" stroke-width="3" opacity="0.35"/>
<circle cx="524.1" cy="905.3" r="40.5" fill="#c87533" opacity="0.4"/>
<rect x="283.2" y="815.0" width="481.8" height="54.0" rx="6" fill="white" stroke="#c87533" stroke-width="1.0" opacity="0.92"/>
<polygon points="427.7,869.0 435.7,869.0 424.7,877.0" fill="white" stroke="#c87533" stroke-width="0.8"/>
<line x1="427.2" y1="869.0" x2="436.2" y2="869.0" stroke="white" stroke-width="1.5"/>
<text x="289.2" y="832.0" font-size="11.0" fill="#c87533" font-weight="700">WREN</text>
<text x="289.2" y="846.0" font-size="11.0" fill="#333333">We need copper induction coils from a telegraph station. A precision lens from a</text>
<text x="289.2" y="860.0" font-size="11.0" fill="#333333">lighthouse. Conductor wire from a foundry. And that's the SHORT list.</text>
<rect x="283.2" y="879.0" width="481.8" height="54.0" rx="6" fill="white" stroke="#c87533" stroke-width="1.0" opacity="0.92"/>
<polygon points="427.7,933.0 435.7,933.0 424.7,941.0" fill="white" stroke="#c87533" stroke-width="0.8"/>
<line x1="427.2" y1="933.0" x2="436.2" y2="933.0" stroke="white" stroke-width="1.5"/>
<text x="289.2" y="896.0" font-size="11.0" fill="#c87533" font-weight="700">WREN</text>
<text x="289.2" y="910.0" font-size="11.0" fill="#333333">Every item is behind a human door, on a human shelf, in a human building. We are</text>
<text x="289.2" y="924.0" font-size="11.0" fill="#333333">FOUR INCHES TALL.</text>
<rect x="283.2" y="943.0" width="229.8" height="40.0" rx="6" fill="white" stroke="#c87533" stroke-width="1.0" opacity="0.92"/>
<polygon points="352.1,983.0 360.1,983.0 349.1,991.0" fill="white" stroke="#c87533" stroke-width="0.8"/>
<line x1="351.6" y1="983.0" x2="360.6" y2="983.0" stroke="white" stroke-width="1.5"/>
<text x="289.2" y="960.0" font-size="11.0" fill="#c87533" font-weight="700">WREN</text>
<text x="289.2" y="974.0" font-size="11.0" fill="#333333">He's not a problem. He's a solution.</text>
<text x="759.0" y="823.0" text-anchor="end" font-size="12" font-weight="bold" fill="#888888" opacity="0.6">5</text>
<text x="765.0" y="1165.0" text-anchor="end" font-size="9" fill="#888888" opacity="0.5">MED</text>
</svg>