<svg xmlns="http://www.w3.org/2000/svg" viewBox="0 0 800 1200" width="800" height="1200" style="background:#ffffff">
<style>
  text { font-family: "Helvetica Neue", Helvetica, Arial, sans-serif; }
</style>
<text x="400.0" y="22" text-anchor="middle" font-size="16" fill="#888888" font-weight="500">PAGE 13  (5 panels)</text>
<rect x="29.0" y="59.0" width="742.0" height="364.0" rx="2" fill="#f5f0e8" stroke="#2a2a2a" stroke-width="1.5"/>
<path d="M341.4,321.1 L346.8,274.6 Q352.1,270.6 383.8,270.6 L416.2,270.6 Q447.9,270.6 453.2,274.6 L458.6,321.1 Z" fill="#6a5acd" opacity="0.35"/>
<line x1="346.8" y1="296.5" x2="453.2" y2="296.5" stroke="#6a5acd" stroke-width="1" opacity="0.3"/>
<line x1="346.8" y1="274.6" x2="325.5" y2="315.5" stroke="#6a5acd" stroke-width="2" opacity="0.3"/>
<line x1="325.5" y1="315.5" x2="341.4" y2="340.1" stroke="#6a5acd" stroke-width="2" opacity="0.3"/>
<line x1="453.2" y1="274.6" x2="474.5" y2="315.5" stroke="#6a5acd" stroke-width="2" opacity="0.3"/>
<line x1="474.5" y1="315.5" x2="458.6" y2="340.1" stroke="#6a5acd" stroke-width="2" opacity="0.3"/>
<line x1="400.0" y1="197.7" x2="400.0" y2="270.6" stroke="#6a5acd" stroke-width="3" opacity="0.35"/>
<circle cx="400.0" cy="157.3" r="40.5" fill="#6a5acd" opacity="0.4"/>
<rect x="35.0" y="67.0" width="730.0" height="54.0" rx="6" fill="white" stroke="#6a5acd" stroke-width="1.0" opacity="0.92"/>
<polygon points="254.0,121.0 262.0,121.0 251.0,129.0" fill="white" stroke="#6a5acd" stroke-width="0.8"/>
<line x1="253.5" y1="121.0" x2="262.5" y2="121.0" stroke="white" stroke-width="1.5"/>
<text x="41.0" y="84.0" font-size="11.0" fill="#6a5acd" font-weight="700">LUMA</text>
<text x="41.0" y="98.0" font-size="11.0" fill="#333333">Theodore. When you first saw Jink, you called them 'fair folk.' What does that mean to your people? What do your stories say</text>
<text x="41.0" y="112.0" font-size="11.0" fill="#333333">about beings like us?</text>
<rect x="426.3" y="131.0" width="338.7" height="40.0" rx="6" fill="white" stroke="#c49a6c" stroke-width="1.0" opacity="0.92"/>
<polygon points="527.9,171.0 535.9,171.0 524.9,179.0" fill="white" stroke="#c49a6c" stroke-width="0.8"/>
<line x1="527.4" y1="171.0" x2="536.4" y2="171.0" stroke="white" stroke-width="1.5"/>
<text x="432.3" y="148.0" font-size="11.0" fill="#c49a6c" font-weight="700">THEODORE</text>
<text x="432.3" y="162.0" font-size="11.0" fill="#333333">Oh. Oh, there's ever so much. You really want to know?</text>
<text x="759.0" y="75.0" text-anchor="end" font-size="12" font-weight="bold" fill="#888888" opacity="0.6">1</text>
<text x="765.0" y="417.0" text-anchor="end" font-size="9" fill="#888888" opacity="0.5">MW</text>
<rect x="29.0" y="433.0" width="742.0" height="364.0" rx="2" fill="#f5f0e8" stroke="#2a2a2a" stroke-width="1.5"/>
<path d="M341.4,695.1 L346.8,648.6 Q352.1,644.6 383.8,644.6 L416.2,644.6 Q447.9,644.6 453.2,648.6 L458.6,695.1 Z" fill="#c49a6c" opacity="0.35"/>
<line x1="346.8" y1="670.5" x2="453.2" y2="670.5" stroke="#c49a6c" stroke-width="1" opacity="0.3"/>
<line x1="346.8" y1="648.6" x2="325.5" y2="689.5" stroke="#c49a6c" stroke-width="2" opacity="0.3"/>
<line x1="325.5" y1="689.5" x2="341.4" y2="714.1" stroke="#c49a6c" stroke-width="2" opacity="0.3"/>
<line x1="453.2" y1="648.6" x2="474.5" y2="689.5" stroke="#c49a6c" stroke-width="2" opacity="0.3"/>
<line x1="474.5" y1="689.5" x2="458.6" y2="714.1" stroke="#c49a6c" stroke-width="2" opacity="0.3"/>
<line x1="400.0" y1="571.7" x2="400.0" y2="644.6" stroke="#c49a6c" stroke-width="3" opacity="0.35"/>
<circle cx="400.0" cy="531.3" r="40.5" fill="#c49a6c" opacity="0.4"/>
<rect x="35.0" y="441.0" width="730.0" height="54.0" rx="6" fill="white" stroke="#c49a6c" stroke-width="1.0" opacity="0.92"/>
<polygon points="254.0,495.0 262.0,495.0 251.0,503.0" fill="white" stroke="#c49a6c" stroke-width="0.8"/>
<line x1="253.5" y1="495.0" x2="262.5" y2="495.0" stroke="white" stroke-width="1.5"/>
<text x="41.0" y="458.0" font-size="11.0" fill="#c49a6c" font-weight="700">THEODORE</text>
<text x="41.0" y="472.0" font-size="11.0" fill="#333333">Well, fairies — the fair folk, the good neighbours, the gentle people — you never call them by their true name, see, or they</text>
<text x="41.0" y="486.0" font-size="11.0" fill="#333333">take offence—</text>
<rect x="35.0" y="505.0" width="730.0" height="54.0" rx="6" fill="white" stroke="#c49a6c" stroke-width="1.0" opacity="0.92"/>
<polygon points="254.0,559.0 262.0,559.0 251.0,567.0" fill="white" stroke="#c49a6c" stroke-width="0.8"/>
<line x1="253.5" y1="559.0" x2="262.5" y2="559.0" stroke="white" stroke-width="1.5"/>
<text x="41.0" y="522.0" font-size="11.0" fill="#c49a6c" font-weight="700">THEODORE</text>
<text x="41.0" y="536.0" font-size="11.0" fill="#333333">They live in hollow hills and under bridges and in the spaces between. They've got courts and kings and queens. Some are</text>
<text x="41.0" y="550.0" font-size="11.0" fill="#333333">kind, the Seelie sort. And some are...</text>
<rect x="35.0" y="569.0" width="120.9" height="40.0" rx="6" fill="white" stroke="#c49a6c" stroke-width="1.0" opacity="0.92"/>
<polygon points="71.3,609.0 79.3,609.0 68.3,617.0" fill="white" stroke="#c49a6c" stroke-width="0.8"/>
<line x1="70.8" y1="609.0" x2="79.8" y2="609.0" stroke="white" stroke-width="1.5"/>
<text x="41.0" y="586.0" font-size="11.0" fill="#c49a6c" font-weight="700">THEODORE</text>
<text x="41.0" y="600.0" font-size="11.0" fill="#333333">...the other kind.</text>
<text x="759.0" y="449.0" text-anchor="end" font-size="12" font-weight="bold" fill="#888888" opacity="0.6">2</text>
<text x="765.0" y="791.0" text-anchor="end" font-size="9" fill="#888888" opacity="0.5">MED</text>
<rect x="29.0" y="807.0" width="240.7" height="364.0" rx="2" fill="#f5f0e8" stroke="#2a2a2a" stroke-width="1.5"/>
<ellipse cx="149.3" cy="959.9" rx="96.3" ry="163.8" fill="#b0b0b0" opacity="0.18"/>
<path d="M48.3,902.5 Q149.3,771.5 250.4,902.5" fill="none" stroke="#b0b0b0" stroke-width="3" opacity="0.35"/>
<line x1="115.6" y1="923.8" x2="144.5" y2="921.8" stroke="#a89888" stroke-width="1.5" opacity="0.45"/>
<line x1="154.1" y1="921.8" x2="183.0" y2="923.8" stroke="#a89888" stroke-width="1.5" opacity="0.45"/>
<ellipse cx="122.4" cy="940.2" rx="11.6" ry="8.2" fill="#a89888" opacity="0.45"/>
<ellipse cx="176.3" cy="940.2" rx="11.6" ry="8.2" fill="#a89888" opacity="0.45"/>
<line x1="149.3" y1="963.2" x2="149.3" y2="989.4" stroke="#a89888" stroke-width="1.2" opacity="0.35"/>
<path d="M143.6,989.4 Q149.3,992.4 155.1,989.4" fill="none" stroke="#a89888" stroke-width="1" opacity="0.3"/>
<line x1="125.3" y1="1012.3" x2="173.4" y2="1012.3" stroke="#a89888" stroke-width="1.2" opacity="0.35"/>
<rect x="35.0" y="815.0" width="221.0" height="51.0" rx="6" fill="white" stroke="#b0b0b0" stroke-width="1.0" opacity="0.92"/>
<polygon points="101.3,866.0 109.3,866.0 98.3,874.0" fill="white" stroke="#b0b0b0" stroke-width="0.8"/>
<line x1="100.8" y1="866.0" x2="109.8" y2="866.0" stroke="white" stroke-width="1.5"/>
<text x="41.0" y="831.0" font-size="10.0" fill="#b0b0b0" font-weight="700">SABLE</text>
<text x="41.0" y="844.0" font-size="10.0" fill="#333333">Courts and kings. We're a recon squad,</text>
<text x="41.0" y="857.0" font-size="10.0" fill="#333333">not a pantomime.</text>
<text x="257.7" y="823.0" text-anchor="end" font-size="12" font-weight="bold" fill="#888888" opacity="0.6">3</text>
<text x="263.7" y="1165.0" text-anchor="end" font-size="9" fill="#888888" opacity="0.5">CU</text>
<rect x="279.7" y="807.0" width="240.7" height="364.0" rx="2" fill="#f5f0e8" stroke="#2a2a2a" stroke-width="1.5"/>
<ellipse cx="400.0" cy="959.9" rx="96.3" ry="163.8" fill="#c87533" opacity="0.18"/>
<path d="M298.9,902.5 Q400.0,771.5 501.1,902.5" fill="none" stroke="#c87533" stroke-width="3" opacity="0.35"/>
<line x1="366.3" y1="923.8" x2="395.2" y2="921.8" stroke="#a89888" stroke-width="1.5" opacity="0.45"/>
<line x1="404.8" y1="921.8" x2="433.7" y2="923.8" stroke="#a89888" stroke-width="1.5" opacity="0.45"/>
<ellipse cx="373.0" cy="940.2" rx="11.6" ry="8.2" fill="#a89888" opacity="0.45"/>
<ellipse cx="427.0" cy="940.2" rx="11.6" ry="8.2" fill="#a89888" opacity="0.45"/>
<line x1="400.0" y1="963.2" x2="400.0" y2="989.4" stroke="#a89888" stroke-width="1.2" opacity="0.35"/>
<path d="M394.2,989.4 Q400.0,992.4 405.8,989.4" fill="none" stroke="#a89888" stroke-width="1" opacity="0.3"/>
<line x1="375.9" y1="1012.3" x2="424.1" y2="1012.3" stroke="#a89888" stroke-width="1.2" opacity="0.35"/>
<rect x="285.7" y="815.0" width="226.5" height="38.0" rx="6" fill="white" stroke="#c87533" stroke-width="1.0" opacity="0.92"/>
<polygon points="353.6,853.0 361.6,853.0 350.6,861.0" fill="white" stroke="#c87533" stroke-width="0.8"/>
<line x1="353.1" y1="853.0" x2="362.1" y2="853.0" stroke="white" stroke-width="1.5"/>
<text x="291.7" y="831.0" font-size="10.0" fill="#c87533" font-weight="700">WREN</text>
<text x="291.7" y="844.0" font-size="10.0" fill="#333333">Does any of this help us fix the drive?</text>
<rect x="403.3" y="863.0" width="111.0" height="38.0" rx="6" fill="white" stroke="#c87533" stroke-width="1.0" opacity="0.92"/>
<polygon points="436.6,901.0 444.6,901.0 433.6,909.0" fill="white" stroke="#c87533" stroke-width="0.8"/>
<line x1="436.1" y1="901.0" x2="445.1" y2="901.0" stroke="white" stroke-width="1.5"/>
<text x="409.3" y="879.0" font-size="10.0" fill="#c87533" font-weight="700">WREN</text>
<text x="409.3" y="892.0" font-size="10.0" fill="#333333">No? Then I'm busy.</text>
<text x="508.3" y="823.0" text-anchor="end" font-size="12" font-weight="bold" fill="#888888" opacity="0.6">4</text>
<text x="514.3" y="1165.0" text-anchor="end" font-size="9" fill="#888888" opacity="0.5">CU</text>
<rect x="530.3" y="807.0" width="240.7" height="364.0" rx="2" fill="#f5f0e8" stroke="#2a2a2a" stroke-width="1.5"/>
<ellipse cx="650.7" cy="959.9" rx="96.3" ry="163.8" fill="#2e8b57" opacity="0.18"/>
<path d="M549.6,902.5 Q650.7,771.5 751.7,902.5" fill="none" stroke="#2e8b57" stroke-width="3" opacity="0.35"/>
<line x1="617.0" y1="923.8" x2="645.9" y2="921.8" stroke="#a89888" stroke-width="1.5" opacity="0.45"/>
<line x1="655.5" y1="921.8" x2="684.4" y2="923.8" stroke="#a89888" stroke-width="1.5" opacity="0.45"/>
<ellipse cx="623.7" cy="940.2" rx="11.6" ry="8.2" fill="#a89888" opacity="0.45"/>
<ellipse cx="677.6" cy="940.2" rx="11.6" ry="8.2" fill="#a89888" opacity="0.45"/>
<line x1="650.7" y1="963.2" x2="650.7" y2="989.4" stroke="#a89888" stroke-width="1.2" opacity="0.35"/>
<path d="M644.9,989.4 Q650.7,992.4 656.4,989.4" fill="none" stroke="#a89888" stroke-width="1" opacity="0.3"/>
<line x1="626.6" y1="1012.3" x2="674.7" y2="1012.3" stroke="#a89888" stroke-width="1.2" opacity="0.35"/>
<rect x="536.3" y="815.0" width="228.7" height="51.0" rx="6" fill="white" stroke="#2e8b57" stroke-width="1.0" opacity="0.92"/>
<polygon points="604.9,866.0 612.9,866.0 601.9,874.0" fill="white" stroke="#2e8b57" stroke-width="0.8"/>
<line x1="604.4" y1="866.0" x2="613.4" y2="866.0" stroke="white" stroke-width="1.5"/>
<text x="542.3" y="831.0" font-size="10.0" fill="#2e8b57" font-weight="700">JINK</text>
<text x="542.3" y="844.0" font-size="10.0" fill="#333333">Fairy knights. Wings of light. I mean...</text>
<text x="542.3" y="857.0" font-size="10.0" fill="#333333">they're not wrong.</text>
<text x="759.0" y="823.0" text-anchor="end" font-size="12" font-weight="bold" fill="#888888" opacity="0.6">5</text>
<text x="765.0" y="1165.0" text-anchor="end" font-size="9" fill="#888888" opacity="0.5">CU</text>
</svg>