<svg xmlns="http://www.w3.org/2000/svg" viewBox="0 0 800 1200" width="800" height="1200" style="background:#ffffff">
<style>
  text { font-family: "Helvetica Neue", Helvetica, Arial, sans-serif; }
</style>
<text x="400.0" y="22" text-anchor="middle" font-size="16" fill="#888888" font-weight="500">PAGE 3  (5 panels)</text>
<rect x="29.0" y="59.0" width="742.0" height="364.0" rx="2" fill="#f5f0e8" stroke="#2a2a2a" stroke-width="1.5"/>
<line x1="35.0" y1="342.9" x2="765.0" y2="342.9" stroke="#a89888" stroke-width="1.0" opacity="0.5"/>
<ellipse cx="400.0" cy="344.9" rx="11.2" ry="2.7" fill="#a89888" opacity="0.2"/>
<line x1="397.3" y1="327.2" x2="393.2" y2="342.9" stroke="#b22222" stroke-width="2" opacity="0.5"/>
<line x1="402.7" y1="327.2" x2="406.8" y2="342.9" stroke="#b22222" stroke-width="2" opacity="0.5"/>
<line x1="400.0" y1="314.1" x2="400.0" y2="327.2" stroke="#b22222" stroke-width="2.5" opacity="0.6"/>
<line x1="386.5" y1="316.1" x2="413.5" y2="316.1" stroke="#b22222" stroke-width="2" opacity="0.5"/>
<line x1="386.5" y1="316.1" x2="382.0" y2="327.6" stroke="#b22222" stroke-width="1.5" opacity="0.4"/>
<line x1="413.5" y1="316.1" x2="418.0" y2="327.6" stroke="#b22222" stroke-width="1.5" opacity="0.4"/>
<circle cx="400.0" cy="297.9" r="8.1" fill="#b22222" opacity="0.6"/>
<rect x="35.0" y="67.0" width="62.0" height="40.0" rx="6" fill="white" stroke="#b22222" stroke-width="1.0" opacity="0.92"/>
<polygon points="53.6,107.0 61.6,107.0 50.6,115.0" fill="white" stroke="#b22222" stroke-width="0.8"/>
<line x1="53.1" y1="107.0" x2="62.1" y2="107.0" stroke="white" stroke-width="1.5"/>
<text x="41.0" y="84.0" font-size="11.0" fill="#b22222" font-weight="700">THRESH</text>
<text x="41.0" y="98.0" font-size="11.0" fill="#333333">Contact.</text>
<text x="759.0" y="75.0" text-anchor="end" font-size="12" font-weight="bold" fill="#888888" opacity="0.6">1</text>
<text x="765.0" y="417.0" text-anchor="end" font-size="9" fill="#888888" opacity="0.5">WIDE</text>
<rect x="29.0" y="433.0" width="240.7" height="364.0" rx="2" fill="#f5f0e8" stroke="#2a2a2a" stroke-width="1.5"/>
<path d="M80.0,665.2 Q80.0,630.6 132.0,626.3 L166.7,626.3 Q218.6,630.6 218.6,665.2 L218.6,753.3 L80.0,753.3 Z" fill="#b22222" opacity="0.25"/>
<path d="M134.2,626.3 L149.3,647.9 L164.5,626.3" fill="none" stroke="#b22222" stroke-width="1" opacity="0.3"/>
<circle cx="149.3" cy="578.6" r="43.3" fill="#b22222" opacity="0.35"/>
<path d="M106.0,587.3 Q112.5,626.3 149.3,628.4 Q186.2,626.3 192.7,587.3" fill="none" stroke="#b22222" stroke-width="1.2" opacity="0.3"/>
<path d="M103.8,574.3 Q149.3,522.3 194.8,574.3" fill="none" stroke="#b22222" stroke-width="2" opacity="0.4"/>
<ellipse cx="104.0" cy="580.8" rx="2.5" ry="4" fill="#b22222" opacity="0.25"/>
<ellipse cx="194.7" cy="580.8" rx="2.5" ry="4" fill="#b22222" opacity="0.25"/>
<rect x="35.0" y="441.0" width="89.0" height="38.0" rx="6" fill="white" stroke="#b22222" stroke-width="1.0" opacity="0.92"/>
<polygon points="61.7,479.0 69.7,479.0 58.7,487.0" fill="white" stroke="#b22222" stroke-width="0.8"/>
<line x1="61.2" y1="479.0" x2="70.2" y2="479.0" stroke="white" stroke-width="1.5"/>
<text x="41.0" y="457.0" font-size="10.0" fill="#b22222" font-weight="700">THRESH</text>
<text x="41.0" y="470.0" font-size="10.0" fill="#333333">Sable. Orders.</text>
<text x="257.7" y="449.0" text-anchor="end" font-size="12" font-weight="bold" fill="#888888" opacity="0.6">2</text>
<text x="263.7" y="791.0" text-anchor="end" font-size="9" fill="#888888" opacity="0.5">MCU</text>
<rect x="279.7" y="433.0" width="240.7" height="364.0" rx="2" fill="#f5f0e8" stroke="#2a2a2a" stroke-width="1.5"/>
<line x1="287.7" y1="560.4" x2="512.3" y2="560.4" stroke="#a89888" stroke-width="0.6" opacity="0.2"/>
<line x1="400.0" y1="560.4" x2="303.7" y2="760.6" stroke="#a89888" stroke-width="0.8" opacity="0.25"/>
<line x1="400.0" y1="560.4" x2="351.9" y2="760.6" stroke="#a89888" stroke-width="0.8" opacity="0.25"/>
<line x1="400.0" y1="560.4" x2="383.2" y2="760.6" stroke="#a89888" stroke-width="0.8" opacity="0.25"/>
<line x1="400.0" y1="560.4" x2="416.8" y2="760.6" stroke="#a89888" stroke-width="0.8" opacity="0.25"/>
<line x1="400.0" y1="560.4" x2="448.1" y2="760.6" stroke="#a89888" stroke-width="0.8" opacity="0.25"/>
<line x1="400.0" y1="560.4" x2="496.3" y2="760.6" stroke="#a89888" stroke-width="0.8" opacity="0.25"/>
<circle cx="400.0" cy="560.4" r="3" fill="#a89888" opacity="0.3"/>
<rect x="285.7" y="441.0" width="89.0" height="38.0" rx="6" fill="white" stroke="#c49a6c" stroke-width="1.0" opacity="0.92"/>
<polygon points="312.4,479.0 320.4,479.0 309.4,487.0" fill="white" stroke="#c49a6c" stroke-width="0.8"/>
<line x1="311.9" y1="479.0" x2="320.9" y2="479.0" stroke="white" stroke-width="1.5"/>
<text x="291.7" y="457.0" font-size="10.0" fill="#c49a6c" font-weight="700">THEODORE</text>
<text x="291.7" y="470.0" font-size="10.0" fill="#333333">I can see you.</text>
<rect x="441.8" y="489.0" width="72.5" height="38.0" rx="6" fill="white" stroke="#c49a6c" stroke-width="1.0" opacity="0.92"/>
<polygon points="463.6,527.0 471.6,527.0 460.6,535.0" fill="white" stroke="#c49a6c" stroke-width="0.8"/>
<line x1="463.1" y1="527.0" x2="472.1" y2="527.0" stroke="white" stroke-width="1.5"/>
<text x="447.8" y="505.0" font-size="10.0" fill="#c49a6c" font-weight="700">THEODORE</text>
<text x="447.8" y="518.0" font-size="10.0" fill="#333333">All of you.</text>
<text x="508.3" y="449.0" text-anchor="end" font-size="12" font-weight="bold" fill="#888888" opacity="0.6">3</text>
<text x="514.3" y="791.0" text-anchor="end" font-size="9" fill="#888888" opacity="0.5">POV</text>
<rect x="530.3" y="433.0" width="240.7" height="364.0" rx="2" fill="#f5f0e8" stroke="#2a2a2a" stroke-width="1.5"/>
<path d="M581.4,665.2 Q581.4,630.6 633.3,626.3 L668.0,626.3 Q720.0,630.6 720.0,665.2 L720.0,753.3 L581.4,753.3 Z" fill="#b0b0b0" opacity="0.25"/>
<path d="M635.5,626.3 L650.7,647.9 L665.8,626.3" fill="none" stroke="#b0b0b0" stroke-width="1" opacity="0.3"/>
<circle cx="650.7" cy="578.6" r="43.3" fill="#b0b0b0" opacity="0.35"/>
<path d="M607.3,587.3 Q613.8,626.3 650.7,628.4 Q687.5,626.3 694.0,587.3" fill="none" stroke="#b0b0b0" stroke-width="1.2" opacity="0.3"/>
<path d="M605.2,574.3 Q650.7,522.3 696.2,574.3" fill="none" stroke="#b0b0b0" stroke-width="2" opacity="0.4"/>
<ellipse cx="605.3" cy="580.8" rx="2.5" ry="4" fill="#b0b0b0" opacity="0.25"/>
<ellipse cx="696.0" cy="580.8" rx="2.5" ry="4" fill="#b0b0b0" opacity="0.25"/>
<rect x="536.3" y="441.0" width="62.0" height="38.0" rx="6" fill="white" stroke="#b0b0b0" stroke-width="1.0" opacity="0.92"/>
<polygon points="554.9,479.0 562.9,479.0 551.9,487.0" fill="white" stroke="#b0b0b0" stroke-width="0.8"/>
<line x1="554.4" y1="479.0" x2="563.4" y2="479.0" stroke="white" stroke-width="1.5"/>
<text x="542.3" y="457.0" font-size="10.0" fill="#b0b0b0" font-weight="700">SABLE</text>
<text x="542.3" y="470.0" font-size="10.0" fill="#333333">Jink.</text>
<rect x="681.5" y="489.0" width="83.5" height="38.0" rx="6" fill="white" stroke="#b0b0b0" stroke-width="1.0" opacity="0.92"/>
<polygon points="706.5,527.0 714.5,527.0 703.5,535.0" fill="white" stroke="#b0b0b0" stroke-width="0.8"/>
<line x1="706.0" y1="527.0" x2="715.0" y2="527.0" stroke="white" stroke-width="1.5"/>
<text x="687.5" y="505.0" font-size="10.0" fill="#b0b0b0" font-weight="700">SABLE</text>
<text x="687.5" y="518.0" font-size="10.0" fill="#333333">You did this.</text>
<text x="759.0" y="449.0" text-anchor="end" font-size="12" font-weight="bold" fill="#888888" opacity="0.6">4</text>
<text x="765.0" y="791.0" text-anchor="end" font-size="9" fill="#888888" opacity="0.5">MCU</text>
<rect x="29.0" y="807.0" width="742.0" height="364.0" rx="2" fill="#f5f0e8" stroke="#2a2a2a" stroke-width="1.5"/>
<line x1="37.0" y1="934.4" x2="763.0" y2="934.4" stroke="#a89888" stroke-width="0.6" opacity="0.2"/>
<line x1="400.0" y1="934.4" x2="103.2" y2="1134.6" stroke="#a89888" stroke-width="0.8" opacity="0.25"/>
<line x1="400.0" y1="934.4" x2="251.6" y2="1134.6" stroke="#a89888" stroke-width="0.8" opacity="0.25"/>
<line x1="400.0" y1="934.4" x2="348.1" y2="1134.6" stroke="#a89888" stroke-width="0.8" opacity="0.25"/>
<line x1="400.0" y1="934.4" x2="451.9" y2="1134.6" stroke="#a89888" stroke-width="0.8" opacity="0.25"/>
<line x1="400.0" y1="934.4" x2="548.4" y2="1134.6" stroke="#a89888" stroke-width="0.8" opacity="0.25"/>
<line x1="400.0" y1="934.4" x2="696.8" y2="1134.6" stroke="#a89888" stroke-width="0.8" opacity="0.25"/>
<circle cx="400.0" cy="934.4" r="3" fill="#a89888" opacity="0.3"/>
<rect x="35.0" y="815.0" width="235.9" height="40.0" rx="6" fill="white" stroke="#2e8b57" stroke-width="1.0" opacity="0.92"/>
<polygon points="105.8,855.0 113.8,855.0 102.8,863.0" fill="white" stroke="#2e8b57" stroke-width="0.8"/>
<line x1="105.3" y1="855.0" x2="114.3" y2="855.0" stroke="white" stroke-width="1.5"/>
<text x="41.0" y="832.0" font-size="11.0" fill="#2e8b57" font-weight="700">JINK</text>
<text x="41.0" y="846.0" font-size="11.0" fill="#333333">Theodore. Don't move. I'm coming out.</text>
<text x="759.0" y="823.0" text-anchor="end" font-size="12" font-weight="bold" fill="#888888" opacity="0.6">5</text>
<text x="765.0" y="1165.0" text-anchor="end" font-size="9" fill="#888888" opacity="0.5">POV</text>
</svg>