<svg xmlns="http://www.w3.org/2000/svg" viewBox="0 0 800 1200" width="800" height="1200" style="background:#ffffff">
<style>
  text { font-family: "Helvetica Neue", Helvetica, Arial, sans-serif; }
</style>
<text x="400.0" y="22" text-anchor="middle" font-size="16" fill="#888888" font-weight="500">PAGE 6  (5 panels)</text>
<rect x="29.0" y="59.0" width="493.8" height="364.0" rx="2" fill="#f5f0e8" stroke="#2a2a2a" stroke-width="1.5"/>
<path d="M217.4,321.1 L222.7,274.6 Q228.0,270.6 259.7,270.6 L292.1,270.6 Q323.8,270.6 329.2,274.6 L334.5,321.1 Z" fill="#b0b0b0" opacity="0.35"/>
<line x1="222.7" y1="296.5" x2="329.2" y2="296.5" stroke="#b0b0b0" stroke-width="1" opacity="0.3"/>
<line x1="222.7" y1="274.6" x2="201.4" y2="315.5" stroke="#b0b0b0" stroke-width="2" opacity="0.3"/>
<line x1="201.4" y1="315.5" x2="217.4" y2="340.1" stroke="#b0b0b0" stroke-width="2" opacity="0.3"/>
<line x1="329.2" y1="274.6" x2="350.4" y2="315.5" stroke="#b0b0b0" stroke-width="2" opacity="0.3"/>
<line x1="350.4" y1="315.5" x2="334.5" y2="340.1" stroke="#b0b0b0" stroke-width="2" opacity="0.3"/>
<line x1="275.9" y1="197.7" x2="275.9" y2="270.6" stroke="#b0b0b0" stroke-width="3" opacity="0.35"/>
<circle cx="275.9" cy="157.3" r="40.5" fill="#b0b0b0" opacity="0.4"/>
<rect x="35.0" y="67.0" width="399.2" height="40.0" rx="6" fill="white" stroke="#b0b0b0" stroke-width="1.0" opacity="0.92"/>
<polygon points="154.8,107.0 162.8,107.0 151.8,115.0" fill="white" stroke="#b0b0b0" stroke-width="0.8"/>
<line x1="154.3" y1="107.0" x2="163.3" y2="107.0" stroke="white" stroke-width="1.5"/>
<text x="41.0" y="84.0" font-size="11.0" fill="#b0b0b0" font-weight="700">SABLE</text>
<text x="41.0" y="98.0" font-size="11.0" fill="#333333">You had contact. Unsanctioned. Unreported. And you said NOTHING.</text>
<rect x="414.1" y="117.0" width="102.8" height="40.0" rx="6" fill="white" stroke="#2e8b57" stroke-width="1.0" opacity="0.92"/>
<polygon points="444.9,157.0 452.9,157.0 441.9,165.0" fill="white" stroke="#2e8b57" stroke-width="0.8"/>
<line x1="444.4" y1="157.0" x2="453.4" y2="157.0" stroke="white" stroke-width="1.5"/>
<text x="420.1" y="134.0" font-size="11.0" fill="#2e8b57" font-weight="700">JINK</text>
<text x="420.1" y="148.0" font-size="11.0" fill="#333333">I was going to—</text>
<rect x="35.0" y="167.0" width="429.5" height="40.0" rx="6" fill="white" stroke="#b0b0b0" stroke-width="1.0" opacity="0.92"/>
<polygon points="163.8,207.0 171.8,207.0 160.8,215.0" fill="white" stroke="#b0b0b0" stroke-width="0.8"/>
<line x1="163.3" y1="207.0" x2="172.3" y2="207.0" stroke="white" stroke-width="1.5"/>
<text x="41.0" y="184.0" font-size="11.0" fill="#b0b0b0" font-weight="700">SABLE</text>
<text x="41.0" y="198.0" font-size="11.0" fill="#333333">When? When were you going to report that a human knows where we live?</text>
<text x="510.8" y="75.0" text-anchor="end" font-size="12" font-weight="bold" fill="#888888" opacity="0.6">1</text>
<text x="516.8" y="417.0" text-anchor="end" font-size="9" fill="#888888" opacity="0.5">MED</text>
<rect x="532.8" y="59.0" width="238.2" height="364.0" rx="2" fill="#f5f0e8" stroke="#2a2a2a" stroke-width="1.5"/>
<ellipse cx="651.9" cy="211.9" rx="95.3" ry="163.8" fill="#2e8b57" opacity="0.18"/>
<path d="M551.9,154.6 Q651.9,23.5 751.9,154.6" fill="none" stroke="#2e8b57" stroke-width="3" opacity="0.35"/>
<line x1="618.6" y1="175.8" x2="647.2" y2="173.8" stroke="#a89888" stroke-width="1.5" opacity="0.45"/>
<line x1="656.7" y1="173.8" x2="685.3" y2="175.8" stroke="#a89888" stroke-width="1.5" opacity="0.45"/>
<ellipse cx="625.2" cy="192.2" rx="11.4" ry="8.2" fill="#a89888" opacity="0.45"/>
<ellipse cx="678.6" cy="192.2" rx="11.4" ry="8.2" fill="#a89888" opacity="0.45"/>
<line x1="651.9" y1="215.2" x2="651.9" y2="241.4" stroke="#a89888" stroke-width="1.2" opacity="0.35"/>
<path d="M646.2,241.4 Q651.9,244.4 657.6,241.4" fill="none" stroke="#a89888" stroke-width="1" opacity="0.3"/>
<line x1="628.1" y1="264.3" x2="675.7" y2="264.3" stroke="#a89888" stroke-width="1.2" opacity="0.35"/>
<rect x="538.8" y="67.0" width="215.5" height="38.0" rx="6" fill="white" stroke="#2e8b57" stroke-width="1.0" opacity="0.92"/>
<polygon points="603.5,105.0 611.5,105.0 600.5,113.0" fill="white" stroke="#2e8b57" stroke-width="0.8"/>
<line x1="603.0" y1="105.0" x2="612.0" y2="105.0" stroke="white" stroke-width="1.5"/>
<text x="544.8" y="83.0" font-size="10.0" fill="#2e8b57" font-weight="700">JINK</text>
<text x="544.8" y="96.0" font-size="10.0" fill="#333333">He's not a threat, Sable. He's a boy.</text>
<rect x="538.8" y="115.0" width="226.2" height="51.0" rx="6" fill="white" stroke="#b0b0b0" stroke-width="1.0" opacity="0.92"/>
<polygon points="606.7,166.0 614.7,166.0 603.7,174.0" fill="white" stroke="#b0b0b0" stroke-width="0.8"/>
<line x1="606.2" y1="166.0" x2="615.2" y2="166.0" stroke="white" stroke-width="1.5"/>
<text x="544.8" y="131.0" font-size="10.0" fill="#b0b0b0" font-weight="700">SABLE</text>
<text x="544.8" y="144.0" font-size="10.0" fill="#333333">He's a GIANT. With a voice that carries</text>
<text x="544.8" y="157.0" font-size="10.0" fill="#333333">and friends he can tell.</text>
<text x="759.0" y="75.0" text-anchor="end" font-size="12" font-weight="bold" fill="#888888" opacity="0.6">2</text>
<text x="765.0" y="417.0" text-anchor="end" font-size="9" fill="#888888" opacity="0.5">CU</text>
<rect x="29.0" y="433.0" width="742.0" height="364.0" rx="2" fill="#f5f0e8" stroke="#2a2a2a" stroke-width="1.5"/>
<path d="M341.4,695.1 L346.8,648.6 Q352.1,644.6 383.8,644.6 L416.2,644.6 Q447.9,644.6 453.2,648.6 L458.6,695.1 Z" fill="#b0b0b0" opacity="0.35"/>
<line x1="346.8" y1="670.5" x2="453.2" y2="670.5" stroke="#b0b0b0" stroke-width="1" opacity="0.3"/>
<line x1="346.8" y1="648.6" x2="325.5" y2="689.5" stroke="#b0b0b0" stroke-width="2" opacity="0.3"/>
<line x1="325.5" y1="689.5" x2="341.4" y2="714.1" stroke="#b0b0b0" stroke-width="2" opacity="0.3"/>
<line x1="453.2" y1="648.6" x2="474.5" y2="689.5" stroke="#b0b0b0" stroke-width="2" opacity="0.3"/>
<line x1="474.5" y1="689.5" x2="458.6" y2="714.1" stroke="#b0b0b0" stroke-width="2" opacity="0.3"/>
<line x1="400.0" y1="571.7" x2="400.0" y2="644.6" stroke="#b0b0b0" stroke-width="3" opacity="0.35"/>
<circle cx="400.0" cy="531.3" r="40.5" fill="#b0b0b0" opacity="0.4"/>
<rect x="35.0" y="441.0" width="320.6" height="40.0" rx="6" fill="white" stroke="#b0b0b0" stroke-width="1.0" opacity="0.92"/>
<polygon points="131.2,481.0 139.2,481.0 128.2,489.0" fill="white" stroke="#b0b0b0" stroke-width="0.8"/>
<line x1="130.7" y1="481.0" x2="139.7" y2="481.0" stroke="white" stroke-width="1.5"/>
<text x="41.0" y="458.0" font-size="11.0" fill="#b0b0b0" font-weight="700">SABLE</text>
<text x="41.0" y="472.0" font-size="11.0" fill="#333333">This is a containment problem. We have two options.</text>
<rect x="35.0" y="491.0" width="725.9" height="40.0" rx="6" fill="white" stroke="#b0b0b0" stroke-width="1.0" opacity="0.92"/>
<polygon points="252.8,531.0 260.8,531.0 249.8,539.0" fill="white" stroke="#b0b0b0" stroke-width="0.8"/>
<line x1="252.3" y1="531.0" x2="261.3" y2="531.0" stroke="white" stroke-width="1.5"/>
<text x="41.0" y="508.0" font-size="11.0" fill="#b0b0b0" font-weight="700">SABLE</text>
<text x="41.0" y="522.0" font-size="11.0" fill="#333333">We relocate. Abandon this position, find a new camp, disappear. He has no way to follow if we do not want to be found.</text>
<rect x="35.0" y="541.0" width="145.1" height="40.0" rx="6" fill="white" stroke="#c87533" stroke-width="1.0" opacity="0.92"/>
<polygon points="78.5,581.0 86.5,581.0 75.5,589.0" fill="white" stroke="#c87533" stroke-width="0.8"/>
<line x1="78.0" y1="581.0" x2="87.0" y2="581.0" stroke="white" stroke-width="1.5"/>
<text x="41.0" y="558.0" font-size="11.0" fill="#c87533" font-weight="700">WREN</text>
<text x="41.0" y="572.0" font-size="11.0" fill="#333333">And the second option?</text>
<text x="759.0" y="449.0" text-anchor="end" font-size="12" font-weight="bold" fill="#888888" opacity="0.6">3</text>
<text x="765.0" y="791.0" text-anchor="end" font-size="9" fill="#888888" opacity="0.5">MW</text>
<rect x="29.0" y="807.0" width="366.0" height="364.0" rx="2" fill="#f5f0e8" stroke="#2a2a2a" stroke-width="1.5"/>
<path d="M110.1,1080.0 Q110.1,1029.0 186.5,1022.7 L237.5,1022.7 Q313.9,1029.0 313.9,1080.0 L313.9,1127.3 L110.1,1127.3 Z" fill="#b0b0b0" opacity="0.25"/>
<path d="M189.7,1022.7 L212.0,1054.5 L234.3,1022.7" fill="none" stroke="#b0b0b0" stroke-width="1" opacity="0.3"/>
<circle cx="212.0" cy="952.6" r="63.7" fill="#b0b0b0" opacity="0.35"/>
<path d="M148.3,965.3 Q157.9,1022.7 212.0,1025.9 Q266.1,1022.7 275.7,965.3" fill="none" stroke="#b0b0b0" stroke-width="1.2" opacity="0.3"/>
<path d="M145.1,946.2 Q212.0,869.8 278.9,946.2" fill="none" stroke="#b0b0b0" stroke-width="2" opacity="0.4"/>
<ellipse cx="146.3" cy="955.8" rx="2.5" ry="4" fill="#b0b0b0" opacity="0.25"/>
<ellipse cx="277.7" cy="955.8" rx="2.5" ry="4" fill="#b0b0b0" opacity="0.25"/>
<rect x="35.0" y="815.0" width="344.8" height="68.0" rx="6" fill="white" stroke="#b0b0b0" stroke-width="1.0" opacity="0.92"/>
<polygon points="138.4,883.0 146.4,883.0 135.4,891.0" fill="white" stroke="#b0b0b0" stroke-width="0.8"/>
<line x1="137.9" y1="883.0" x2="146.9" y2="883.0" stroke="white" stroke-width="1.5"/>
<text x="41.0" y="832.0" font-size="11.0" fill="#b0b0b0" font-weight="700">SABLE</text>
<text x="41.0" y="846.0" font-size="11.0" fill="#333333">Or we wipe him. The neural modifier can target specific</text>
<text x="41.0" y="860.0" font-size="11.0" fill="#333333">memory clusters. He forgets us. He goes home. Problem</text>
<text x="41.0" y="874.0" font-size="11.0" fill="#333333">contained.</text>
<text x="383.0" y="823.0" text-anchor="end" font-size="12" font-weight="bold" fill="#888888" opacity="0.6">4</text>
<text x="389.0" y="1165.0" text-anchor="end" font-size="9" fill="#888888" opacity="0.5">MCU</text>
<rect x="405.0" y="807.0" width="366.0" height="364.0" rx="2" fill="#f5f0e8" stroke="#2a2a2a" stroke-width="1.5"/>
<circle cx="588.0" cy="989.0" r="45.0" fill="#c49a6c" opacity="0.22"/>
<line x1="563.2" y1="977.8" x2="581.2" y2="970.1" stroke="#a89888" stroke-width="1.5" opacity="0.5"/>
<line x1="594.8" y1="970.1" x2="612.8" y2="977.8" stroke="#a89888" stroke-width="1.5" opacity="0.5"/>
<ellipse cx="574.5" cy="984.5" rx="4.5" ry="2.7" fill="#a89888" opacity="0.5"/>
<ellipse cx="601.5" cy="984.5" rx="4.5" ry="2.7" fill="#a89888" opacity="0.5"/>
<line x1="588.0" y1="989.9" x2="588.0" y2="998.0" stroke="#a89888" stroke-width="1" opacity="0.35"/>
<ellipse cx="588.0" cy="1006.1" rx="6.8" ry="3.6" fill="#a89888" opacity="0.25"/>
<line x1="632.8" y1="1014.9" x2="640.6" y2="1019.4" stroke="#a89888" stroke-width="1" opacity="0.3"/>
<line x1="613.9" y1="1033.8" x2="618.4" y2="1041.6" stroke="#a89888" stroke-width="1" opacity="0.3"/>
<line x1="562.1" y1="1033.8" x2="557.6" y2="1041.6" stroke="#a89888" stroke-width="1" opacity="0.3"/>
<line x1="543.2" y1="1014.9" x2="535.4" y2="1019.4" stroke="#a89888" stroke-width="1" opacity="0.3"/>
<line x1="543.2" y1="963.1" x2="535.4" y2="958.6" stroke="#a89888" stroke-width="1" opacity="0.3"/>
<line x1="562.1" y1="944.2" x2="557.6" y2="936.4" stroke="#a89888" stroke-width="1" opacity="0.3"/>
<line x1="613.9" y1="944.2" x2="618.4" y2="936.4" stroke="#a89888" stroke-width="1" opacity="0.3"/>
<line x1="632.8" y1="963.1" x2="640.6" y2="958.6" stroke="#a89888" stroke-width="1" opacity="0.3"/>
<rect x="411.0" y="815.0" width="62.0" height="40.0" rx="6" fill="white" stroke="#c49a6c" stroke-width="1.0" opacity="0.92"/>
<polygon points="429.6,855.0 437.6,855.0 426.6,863.0" fill="white" stroke="#c49a6c" stroke-width="0.8"/>
<line x1="429.1" y1="855.0" x2="438.1" y2="855.0" stroke="white" stroke-width="1.5"/>
<text x="417.0" y="832.0" font-size="11.0" fill="#c49a6c" font-weight="700">THEODORE</text>
<text x="417.0" y="846.0" font-size="11.0" fill="#333333">Wipe...</text>
<text x="759.0" y="823.0" text-anchor="end" font-size="12" font-weight="bold" fill="#888888" opacity="0.6">5</text>
<text x="765.0" y="1165.0" text-anchor="end" font-size="9" fill="#888888" opacity="0.5">RXN</text>
</svg>