<svg xmlns="http://www.w3.org/2000/svg" viewBox="0 0 800 1200" width="800" height="1200" style="background:#ffffff">
<style>
  text { font-family: "Helvetica Neue", Helvetica, Arial, sans-serif; }
</style>
<text x="400.0" y="22" text-anchor="middle" font-size="16" fill="#888888" font-weight="500">PAGE 17  (5 panels)</text>
<rect x="29.0" y="59.0" width="366.0" height="470.9" rx="2" fill="#f5f0e8" stroke="#2a2a2a" stroke-width="1.5"/>
<line x1="35.0" y1="426.3" x2="389.0" y2="426.3" stroke="#a89888" stroke-width="1.0" opacity="0.5"/>
<ellipse cx="212.0" cy="428.3" rx="11.2" ry="2.7" fill="#a89888" opacity="0.2"/>
<line x1="209.3" y1="410.5" x2="205.2" y2="426.3" stroke="#6a5acd" stroke-width="2" opacity="0.5"/>
<line x1="214.7" y1="410.5" x2="218.8" y2="426.3" stroke="#6a5acd" stroke-width="2" opacity="0.5"/>
<line x1="212.0" y1="397.5" x2="212.0" y2="410.5" stroke="#6a5acd" stroke-width="2.5" opacity="0.6"/>
<line x1="198.5" y1="399.5" x2="225.5" y2="399.5" stroke="#6a5acd" stroke-width="2" opacity="0.5"/>
<line x1="198.5" y1="399.5" x2="194.0" y2="411.0" stroke="#6a5acd" stroke-width="1.5" opacity="0.4"/>
<line x1="225.5" y1="399.5" x2="230.0" y2="411.0" stroke="#6a5acd" stroke-width="1.5" opacity="0.4"/>
<circle cx="212.0" cy="381.3" r="8.1" fill="#6a5acd" opacity="0.6"/>
<rect x="35.0" y="67.0" width="354.0" height="54.0" rx="6" fill="white" stroke="#6a5acd" stroke-width="1.0" opacity="0.92"/>
<polygon points="141.2,121.0 149.2,121.0 138.2,129.0" fill="white" stroke="#6a5acd" stroke-width="0.8"/>
<line x1="140.7" y1="121.0" x2="149.7" y2="121.0" stroke="white" stroke-width="1.5"/>
<text x="41.0" y="84.0" font-size="11.0" fill="#6a5acd" font-weight="700">LUMA</text>
<text x="41.0" y="98.0" font-size="11.0" fill="#333333">This is everything. Every glyph. Every trace. Every story.</text>
<text x="41.0" y="112.0" font-size="11.0" fill="#333333">I've mapped them.</text>
<text x="383.0" y="75.0" text-anchor="end" font-size="12" font-weight="bold" fill="#888888" opacity="0.6">1</text>
<text x="389.0" y="523.9" text-anchor="end" font-size="9" fill="#888888" opacity="0.5">WIDE</text>
<rect x="405.0" y="59.0" width="366.0" height="470.9" rx="2" fill="#f5f0e8" stroke="#2a2a2a" stroke-width="1.5"/>
<path d="M482.6,379.1 Q482.6,326.4 561.6,319.8 L614.4,319.8 Q693.4,326.4 693.4,379.1 L693.4,473.4 L482.6,473.4 Z" fill="#6a5acd" opacity="0.25"/>
<path d="M564.9,319.8 L588.0,352.8 L611.1,319.8" fill="none" stroke="#6a5acd" stroke-width="1" opacity="0.3"/>
<circle cx="588.0" cy="247.3" r="65.9" fill="#6a5acd" opacity="0.35"/>
<path d="M522.1,260.5 Q532.0,319.8 588.0,323.1 Q644.0,319.8 653.9,260.5" fill="none" stroke="#6a5acd" stroke-width="1.2" opacity="0.3"/>
<path d="M518.8,240.8 Q588.0,161.7 657.2,240.8" fill="none" stroke="#6a5acd" stroke-width="2" opacity="0.4"/>
<ellipse cx="520.1" cy="250.6" rx="2.5" ry="4" fill="#6a5acd" opacity="0.25"/>
<ellipse cx="655.9" cy="250.6" rx="2.5" ry="4" fill="#6a5acd" opacity="0.25"/>
<rect x="411.0" y="67.0" width="354.0" height="82.0" rx="6" fill="white" stroke="#6a5acd" stroke-width="1.0" opacity="0.92"/>
<polygon points="517.2,149.0 525.2,149.0 514.2,157.0" fill="white" stroke="#6a5acd" stroke-width="0.8"/>
<line x1="516.7" y1="149.0" x2="525.7" y2="149.0" stroke="white" stroke-width="1.5"/>
<text x="417.0" y="84.0" font-size="11.0" fill="#6a5acd" font-weight="700">LUMA</text>
<text x="417.0" y="98.0" font-size="11.0" fill="#333333">Prior operatives — at least three deployments over</text>
<text x="417.0" y="112.0" font-size="11.0" fill="#333333">centuries. Each one carved glyphs. Each one left technology</text>
<text x="417.0" y="126.0" font-size="11.0" fill="#333333">behind. Each one stayed. They didn't fail to leave. They</text>
<text x="417.0" y="140.0" font-size="11.0" fill="#333333">chose to stay.</text>
<text x="759.0" y="75.0" text-anchor="end" font-size="12" font-weight="bold" fill="#888888" opacity="0.6">2</text>
<text x="765.0" y="523.9" text-anchor="end" font-size="9" fill="#888888" opacity="0.5">MCU</text>
<rect x="29.0" y="539.9" width="366.0" height="310.6" rx="2" fill="#f5f0e8" stroke="#2a2a2a" stroke-width="1.5"/>
<path d="M125.0,772.8 Q125.0,729.3 190.3,723.9 L233.7,723.9 Q299.0,729.3 299.0,772.8 L299.0,813.2 L125.0,813.2 Z" fill="#6a5acd" opacity="0.25"/>
<path d="M193.0,723.9 L212.0,751.0 L231.0,723.9" fill="none" stroke="#6a5acd" stroke-width="1" opacity="0.3"/>
<circle cx="212.0" cy="664.1" r="54.3" fill="#6a5acd" opacity="0.35"/>
<path d="M157.7,675.0 Q165.8,723.9 212.0,726.6 Q258.2,723.9 266.4,675.0" fill="none" stroke="#6a5acd" stroke-width="1.2" opacity="0.3"/>
<path d="M154.9,658.7 Q212.0,593.4 269.1,658.7" fill="none" stroke="#6a5acd" stroke-width="2" opacity="0.4"/>
<ellipse cx="155.7" cy="666.8" rx="2.5" ry="4" fill="#6a5acd" opacity="0.25"/>
<ellipse cx="268.4" cy="666.8" rx="2.5" ry="4" fill="#6a5acd" opacity="0.25"/>
<rect x="35.0" y="547.9" width="354.0" height="82.0" rx="6" fill="white" stroke="#6a5acd" stroke-width="1.0" opacity="0.92"/>
<polygon points="141.2,629.9 149.2,629.9 138.2,637.9" fill="white" stroke="#6a5acd" stroke-width="0.8"/>
<line x1="140.7" y1="629.9" x2="149.7" y2="629.9" stroke="white" stroke-width="1.5"/>
<text x="41.0" y="564.9" font-size="11.0" fill="#6a5acd" font-weight="700">LUMA</text>
<text x="41.0" y="578.9" font-size="11.0" fill="#333333">And everywhere they went, stories followed. Humans saw</text>
<text x="41.0" y="592.9" font-size="11.0" fill="#333333">them. Told stories about them. Published them. The fairy</text>
<text x="41.0" y="606.9" font-size="11.0" fill="#333333">tales aren't incidental. They're the record. They're what</text>
<text x="41.0" y="620.9" font-size="11.0" fill="#333333">persists.</text>
<text x="383.0" y="555.9" text-anchor="end" font-size="12" font-weight="bold" fill="#888888" opacity="0.6">3</text>
<text x="389.0" y="844.4" text-anchor="end" font-size="9" fill="#888888" opacity="0.5">MCU</text>
<rect x="405.0" y="539.9" width="366.0" height="310.6" rx="2" fill="#f5f0e8" stroke="#2a2a2a" stroke-width="1.5"/>
<path d="M538.0,763.5 L542.6,724.4 Q547.1,720.4 574.2,720.4 L601.8,720.4 Q628.9,720.4 633.4,724.4 L638.0,763.5 Z" fill="#c87533" opacity="0.35"/>
<line x1="542.6" y1="742.5" x2="633.4" y2="742.5" stroke="#c87533" stroke-width="1" opacity="0.3"/>
<line x1="542.6" y1="724.4" x2="524.4" y2="759.3" stroke="#c87533" stroke-width="2" opacity="0.3"/>
<line x1="524.4" y1="759.3" x2="538.0" y2="780.3" stroke="#c87533" stroke-width="2" opacity="0.3"/>
<line x1="633.4" y1="724.4" x2="651.6" y2="759.3" stroke="#c87533" stroke-width="2" opacity="0.3"/>
<line x1="651.6" y1="759.3" x2="638.0" y2="780.3" stroke="#c87533" stroke-width="2" opacity="0.3"/>
<line x1="588.0" y1="658.2" x2="588.0" y2="720.4" stroke="#c87533" stroke-width="3" opacity="0.35"/>
<circle cx="588.0" cy="623.7" r="34.5" fill="#c87533" opacity="0.4"/>
<rect x="411.0" y="547.9" width="354.0" height="68.0" rx="6" fill="white" stroke="#c87533" stroke-width="1.0" opacity="0.92"/>
<polygon points="517.2,615.9 525.2,615.9 514.2,623.9" fill="white" stroke="#c87533" stroke-width="0.8"/>
<line x1="516.7" y1="615.9" x2="525.7" y2="615.9" stroke="white" stroke-width="1.5"/>
<text x="417.0" y="564.9" font-size="11.0" fill="#c87533" font-weight="700">WREN</text>
<text x="417.0" y="578.9" font-size="11.0" fill="#333333">Stories don't build civilizations, Luma. Technology does.</text>
<text x="417.0" y="592.9" font-size="11.0" fill="#333333">Infrastructure. The telegraph doesn't care about fairy</text>
<text x="417.0" y="606.9" font-size="11.0" fill="#333333">tales.</text>
<rect x="411.0" y="625.9" width="354.0" height="96.0" rx="6" fill="white" stroke="#6a5acd" stroke-width="1.0" opacity="0.92"/>
<polygon points="517.2,721.9 525.2,721.9 514.2,729.9" fill="white" stroke="#6a5acd" stroke-width="0.8"/>
<line x1="516.7" y1="721.9" x2="525.7" y2="721.9" stroke="white" stroke-width="1.5"/>
<text x="417.0" y="642.9" font-size="11.0" fill="#6a5acd" font-weight="700">LUMA</text>
<text x="417.0" y="656.9" font-size="11.0" fill="#333333">The telegraph carries information that shapes what people</text>
<text x="417.0" y="670.9" font-size="11.0" fill="#333333">believe. You proved that yourself — the Titan devices were</text>
<text x="417.0" y="684.9" font-size="11.0" fill="#333333">steering human development through the stories the</text>
<text x="417.0" y="698.9" font-size="11.0" fill="#333333">telegraph transmitted. The medium shapes the message. The</text>
<text x="417.0" y="712.9" font-size="11.0" fill="#333333">message shapes the civilization.</text>
<text x="759.0" y="555.9" text-anchor="end" font-size="12" font-weight="bold" fill="#888888" opacity="0.6">4</text>
<text x="765.0" y="844.4" text-anchor="end" font-size="9" fill="#888888" opacity="0.5">MED</text>
<rect x="29.0" y="860.4" width="742.0" height="310.6" rx="2" fill="#f5f0e8" stroke="#2a2a2a" stroke-width="1.5"/>
<path d="M350.0,1084.0 L354.6,1044.9 Q359.1,1040.9 386.2,1040.9 L413.8,1040.9 Q440.9,1040.9 445.4,1044.9 L450.0,1084.0 Z" fill="#2e8b57" opacity="0.35"/>
<line x1="354.6" y1="1063.1" x2="445.4" y2="1063.1" stroke="#2e8b57" stroke-width="1" opacity="0.3"/>
<line x1="354.6" y1="1044.9" x2="336.4" y2="1079.9" stroke="#2e8b57" stroke-width="2" opacity="0.3"/>
<line x1="336.4" y1="1079.9" x2="350.0" y2="1100.8" stroke="#2e8b57" stroke-width="2" opacity="0.3"/>
<line x1="445.4" y1="1044.9" x2="463.6" y2="1079.9" stroke="#2e8b57" stroke-width="2" opacity="0.3"/>
<line x1="463.6" y1="1079.9" x2="450.0" y2="1100.8" stroke="#2e8b57" stroke-width="2" opacity="0.3"/>
<line x1="400.0" y1="978.8" x2="400.0" y2="1040.9" stroke="#2e8b57" stroke-width="3" opacity="0.35"/>
<circle cx="400.0" cy="944.3" r="34.5" fill="#2e8b57" opacity="0.4"/>
<rect x="35.0" y="868.4" width="272.2" height="40.0" rx="6" fill="white" stroke="#2e8b57" stroke-width="1.0" opacity="0.92"/>
<polygon points="116.6,908.4 124.6,908.4 113.6,916.4" fill="white" stroke="#2e8b57" stroke-width="0.8"/>
<line x1="116.1" y1="908.4" x2="125.1" y2="908.4" stroke="white" stroke-width="1.5"/>
<text x="41.0" y="885.4" font-size="11.0" fill="#2e8b57" font-weight="700">JINK</text>
<text x="41.0" y="899.4" font-size="11.0" fill="#333333">So we're not stuck here. We're needed here.</text>
<text x="759.0" y="876.4" text-anchor="end" font-size="12" font-weight="bold" fill="#888888" opacity="0.6">5</text>
<text x="765.0" y="1165.0" text-anchor="end" font-size="9" fill="#888888" opacity="0.5">MED</text>
</svg>