<svg xmlns="http://www.w3.org/2000/svg" viewBox="0 0 800 1200" width="800" height="1200" style="background:#ffffff">
<style>
  text { font-family: "Helvetica Neue", Helvetica, Arial, sans-serif; }
</style>
<text x="400.0" y="22" text-anchor="middle" font-size="16" fill="#888888" font-weight="500">PAGE 11  (4 panels)</text>
<rect x="29.0" y="59.0" width="742.0" height="551.0" rx="2" fill="#f5f0e8" stroke="#2a2a2a" stroke-width="1.5"/>
<line x1="35.0" y1="488.8" x2="765.0" y2="488.8" stroke="#a89888" stroke-width="1.0" opacity="0.5"/>
<ellipse cx="276.3" cy="490.8" rx="11.2" ry="2.7" fill="#a89888" opacity="0.2"/>
<line x1="273.6" y1="473.0" x2="269.6" y2="488.8" stroke="#c87533" stroke-width="2" opacity="0.5"/>
<line x1="279.0" y1="473.0" x2="283.1" y2="488.8" stroke="#c87533" stroke-width="2" opacity="0.5"/>
<line x1="276.3" y1="460.0" x2="276.3" y2="473.0" stroke="#c87533" stroke-width="2.5" opacity="0.6"/>
<line x1="262.8" y1="462.0" x2="289.8" y2="462.0" stroke="#c87533" stroke-width="2" opacity="0.5"/>
<line x1="262.8" y1="462.0" x2="258.3" y2="473.5" stroke="#c87533" stroke-width="1.5" opacity="0.4"/>
<line x1="289.8" y1="462.0" x2="294.3" y2="473.5" stroke="#c87533" stroke-width="1.5" opacity="0.4"/>
<circle cx="276.3" cy="443.8" r="8.1" fill="#c87533" opacity="0.6"/>
<ellipse cx="523.7" cy="490.8" rx="11.2" ry="2.7" fill="#a89888" opacity="0.2"/>
<line x1="521.0" y1="473.0" x2="516.9" y2="488.8" stroke="#b0b0b0" stroke-width="2" opacity="0.5"/>
<line x1="526.4" y1="473.0" x2="530.4" y2="488.8" stroke="#b0b0b0" stroke-width="2" opacity="0.5"/>
<line x1="523.7" y1="460.0" x2="523.7" y2="473.0" stroke="#b0b0b0" stroke-width="2.5" opacity="0.6"/>
<line x1="510.2" y1="462.0" x2="537.2" y2="462.0" stroke="#b0b0b0" stroke-width="2" opacity="0.5"/>
<line x1="510.2" y1="462.0" x2="505.7" y2="473.5" stroke="#b0b0b0" stroke-width="1.5" opacity="0.4"/>
<line x1="537.2" y1="462.0" x2="541.7" y2="473.5" stroke="#b0b0b0" stroke-width="1.5" opacity="0.4"/>
<circle cx="523.7" cy="443.8" r="8.1" fill="#b0b0b0" opacity="0.6"/>
<rect x="35.0" y="67.0" width="730.0" height="54.0" rx="6" fill="white" stroke="#c87533" stroke-width="1.0" opacity="0.92"/>
<polygon points="254.0,121.0 262.0,121.0 251.0,129.0" fill="white" stroke="#c87533" stroke-width="0.8"/>
<line x1="253.5" y1="121.0" x2="262.5" y2="121.0" stroke="white" stroke-width="1.5"/>
<text x="41.0" y="84.0" font-size="11.0" fill="#c87533" font-weight="700">WREN</text>
<text x="41.0" y="98.0" font-size="11.0" fill="#333333">Sable — the satellites are reactivating. The hub is pushing a restore signal. We need to kill the hub before the network</text>
<text x="41.0" y="112.0" font-size="11.0" fill="#333333">comes back online.</text>
<rect x="698.5" y="131.0" width="66.5" height="40.0" rx="6" fill="white" stroke="#b0b0b0" stroke-width="1.0" opacity="0.92"/>
<polygon points="718.5,171.0 726.5,171.0 715.5,179.0" fill="white" stroke="#b0b0b0" stroke-width="0.8"/>
<line x1="718.0" y1="171.0" x2="727.0" y2="171.0" stroke="white" stroke-width="1.5"/>
<text x="704.5" y="148.0" font-size="11.0" fill="#b0b0b0" font-weight="700">SABLE</text>
<text x="704.5" y="162.0" font-size="11.0" fill="#333333">How long?</text>
<rect x="35.0" y="181.0" width="133.0" height="40.0" rx="6" fill="white" stroke="#c87533" stroke-width="1.0" opacity="0.92"/>
<polygon points="74.9,221.0 82.9,221.0 71.9,229.0" fill="white" stroke="#c87533" stroke-width="0.8"/>
<line x1="74.4" y1="221.0" x2="83.4" y2="221.0" stroke="white" stroke-width="1.5"/>
<text x="41.0" y="198.0" font-size="11.0" fill="#c87533" font-weight="700">WREN</text>
<text x="41.0" y="212.0" font-size="11.0" fill="#333333">Minutes. Maybe less.</text>
<rect x="317.4" y="231.0" width="447.6" height="40.0" rx="6" fill="white" stroke="#b0b0b0" stroke-width="1.0" opacity="0.92"/>
<polygon points="451.7,271.0 459.7,271.0 448.7,279.0" fill="white" stroke="#b0b0b0" stroke-width="0.8"/>
<line x1="451.2" y1="271.0" x2="460.2" y2="271.0" stroke="white" stroke-width="1.5"/>
<text x="323.4" y="248.0" font-size="11.0" fill="#b0b0b0" font-weight="700">SABLE</text>
<text x="323.4" y="262.0" font-size="11.0" fill="#333333">Beat. &quot;Theodore. Open the cabinet. Jink — get back to the exchange. Now.</text>
<text x="759.0" y="75.0" text-anchor="end" font-size="12" font-weight="bold" fill="#888888" opacity="0.6">1</text>
<text x="765.0" y="604.0" text-anchor="end" font-size="9" fill="#888888" opacity="0.5">WIDE</text>
<rect x="29.0" y="620.0" width="240.7" height="551.0" rx="2" fill="#f5f0e8" stroke="#2a2a2a" stroke-width="1.5"/>
<path d="M103.0,1016.7 L107.2,862.4 Q111.4,858.4 136.5,858.4 L162.1,858.4 Q187.2,858.4 191.5,862.4 L195.7,1016.7 Z" fill="#2e8b57" opacity="0.35"/>
<line x1="107.2" y1="979.5" x2="191.5" y2="979.5" stroke="#2e8b57" stroke-width="1" opacity="0.3"/>
<line x1="107.2" y1="862.4" x2="90.4" y2="924.4" stroke="#2e8b57" stroke-width="2" opacity="0.3"/>
<line x1="90.4" y1="924.4" x2="103.0" y2="961.6" stroke="#2e8b57" stroke-width="2" opacity="0.3"/>
<line x1="191.5" y1="862.4" x2="208.3" y2="924.4" stroke="#2e8b57" stroke-width="2" opacity="0.3"/>
<line x1="208.3" y1="924.4" x2="195.7" y2="961.6" stroke="#2e8b57" stroke-width="2" opacity="0.3"/>
<line x1="149.3" y1="800.8" x2="149.3" y2="858.4" stroke="#2e8b57" stroke-width="3" opacity="0.35"/>
<circle cx="149.3" cy="768.8" r="32.0" fill="#2e8b57" opacity="0.4"/>
<rect x="35.0" y="628.0" width="228.7" height="51.0" rx="6" fill="white" stroke="#2e8b57" stroke-width="1.0" opacity="0.92"/>
<polygon points="103.6,679.0 111.6,679.0 100.6,687.0" fill="white" stroke="#2e8b57" stroke-width="0.8"/>
<line x1="103.1" y1="679.0" x2="112.1" y2="679.0" stroke="white" stroke-width="1.5"/>
<text x="41.0" y="644.0" font-size="10.0" fill="#2e8b57" font-weight="700">JINK</text>
<text x="41.0" y="657.0" font-size="10.0" fill="#333333">Airborne! En route to exchange! Theodore,</text>
<text x="41.0" y="670.0" font-size="10.0" fill="#333333">don't start without me!</text>
<text x="257.7" y="636.0" text-anchor="end" font-size="12" font-weight="bold" fill="#888888" opacity="0.6">2</text>
<text x="263.7" y="1165.0" text-anchor="end" font-size="9" fill="#888888" opacity="0.5">MED</text>
<rect x="279.7" y="620.0" width="240.7" height="551.0" rx="2" fill="#f5f0e8" stroke="#2a2a2a" stroke-width="1.5"/>
<ellipse cx="400.0" cy="851.4" rx="96.3" ry="248.0" fill="#c49a6c" opacity="0.18"/>
<path d="M298.9,764.6 Q400.0,566.3 501.1,764.6" fill="none" stroke="#c49a6c" stroke-width="3" opacity="0.35"/>
<line x1="366.3" y1="796.9" x2="395.2" y2="794.9" stroke="#a89888" stroke-width="1.5" opacity="0.45"/>
<line x1="404.8" y1="794.9" x2="433.7" y2="796.9" stroke="#a89888" stroke-width="1.5" opacity="0.45"/>
<ellipse cx="373.0" cy="821.7" rx="11.6" ry="12.4" fill="#a89888" opacity="0.45"/>
<ellipse cx="427.0" cy="821.7" rx="11.6" ry="12.4" fill="#a89888" opacity="0.45"/>
<line x1="400.0" y1="856.4" x2="400.0" y2="896.1" stroke="#a89888" stroke-width="1.2" opacity="0.35"/>
<path d="M394.2,896.1 Q400.0,899.1 405.8,896.1" fill="none" stroke="#a89888" stroke-width="1" opacity="0.3"/>
<line x1="375.9" y1="930.8" x2="424.1" y2="930.8" stroke="#a89888" stroke-width="1.2" opacity="0.35"/>
<rect x="285.7" y="628.0" width="210.0" height="38.0" rx="6" fill="white" stroke="#c49a6c" stroke-width="1.0" opacity="0.92"/>
<polygon points="348.7,666.0 356.7,666.0 345.7,674.0" fill="white" stroke="#c49a6c" stroke-width="0.8"/>
<line x1="348.2" y1="666.0" x2="357.2" y2="666.0" stroke="white" stroke-width="1.5"/>
<text x="291.7" y="644.0" font-size="10.0" fill="#c49a6c" font-weight="700">THEODORE</text>
<text x="291.7" y="657.0" font-size="10.0" fill="#333333">I'm not waiting. I'm opening it now.</text>
<rect x="447.3" y="676.0" width="67.0" height="38.0" rx="6" fill="white" stroke="#b0b0b0" stroke-width="1.0" opacity="0.92"/>
<polygon points="467.4,714.0 475.4,714.0 464.4,722.0" fill="white" stroke="#b0b0b0" stroke-width="0.8"/>
<line x1="466.9" y1="714.0" x2="475.9" y2="714.0" stroke="white" stroke-width="1.5"/>
<text x="453.3" y="692.0" font-size="10.0" fill="#b0b0b0" font-weight="700">SABLE</text>
<text x="453.3" y="705.0" font-size="10.0" fill="#333333">Theodore —</text>
<rect x="285.7" y="724.0" width="215.5" height="38.0" rx="6" fill="white" stroke="#c49a6c" stroke-width="1.0" opacity="0.92"/>
<polygon points="350.3,762.0 358.3,762.0 347.3,770.0" fill="white" stroke="#c49a6c" stroke-width="0.8"/>
<line x1="349.8" y1="762.0" x2="358.8" y2="762.0" stroke="white" stroke-width="1.5"/>
<text x="291.7" y="740.0" font-size="10.0" fill="#c49a6c" font-weight="700">THEODORE</text>
<text x="291.7" y="753.0" font-size="10.0" fill="#333333">You need my hands. My hands are here.</text>
<text x="508.3" y="636.0" text-anchor="end" font-size="12" font-weight="bold" fill="#888888" opacity="0.6">3</text>
<text x="514.3" y="1165.0" text-anchor="end" font-size="9" fill="#888888" opacity="0.5">CU</text>
<rect x="530.3" y="620.0" width="240.7" height="551.0" rx="2" fill="#f5f0e8" stroke="#2a2a2a" stroke-width="1.5"/>
<path d="M604.3,1016.7 L608.6,862.4 Q612.8,858.4 637.9,858.4 L663.5,858.4 Q688.6,858.4 692.8,862.4 L697.0,1016.7 Z" fill="#c49a6c" opacity="0.35"/>
<line x1="608.6" y1="979.5" x2="692.8" y2="979.5" stroke="#c49a6c" stroke-width="1" opacity="0.3"/>
<line x1="608.6" y1="862.4" x2="591.7" y2="924.4" stroke="#c49a6c" stroke-width="2" opacity="0.3"/>
<line x1="591.7" y1="924.4" x2="604.3" y2="961.6" stroke="#c49a6c" stroke-width="2" opacity="0.3"/>
<line x1="692.8" y1="862.4" x2="709.6" y2="924.4" stroke="#c49a6c" stroke-width="2" opacity="0.3"/>
<line x1="709.6" y1="924.4" x2="697.0" y2="961.6" stroke="#c49a6c" stroke-width="2" opacity="0.3"/>
<line x1="650.7" y1="800.8" x2="650.7" y2="858.4" stroke="#c49a6c" stroke-width="3" opacity="0.35"/>
<circle cx="650.7" cy="768.8" r="32.0" fill="#c49a6c" opacity="0.4"/>
<rect x="536.3" y="628.0" width="221.0" height="64.0" rx="6" fill="white" stroke="#c49a6c" stroke-width="1.0" opacity="0.92"/>
<polygon points="602.6,692.0 610.6,692.0 599.6,700.0" fill="white" stroke="#c49a6c" stroke-width="0.8"/>
<line x1="602.1" y1="692.0" x2="611.1" y2="692.0" stroke="white" stroke-width="1.5"/>
<text x="542.3" y="644.0" font-size="10.0" fill="#c49a6c" font-weight="700">THEODORE</text>
<text x="542.3" y="657.0" font-size="10.0" fill="#333333">I see it. It's... it's not like any</text>
<text x="542.3" y="670.0" font-size="10.0" fill="#333333">mechanism I've seen. But I see the</text>
<text x="542.3" y="683.0" font-size="10.0" fill="#333333">connections. I think I see what to do.</text>
<rect x="582.5" y="702.0" width="182.5" height="38.0" rx="6" fill="white" stroke="#c87533" stroke-width="1.0" opacity="0.92"/>
<polygon points="637.2,740.0 645.2,740.0 634.2,748.0" fill="white" stroke="#c87533" stroke-width="0.8"/>
<line x1="636.8" y1="740.0" x2="645.8" y2="740.0" stroke="white" stroke-width="1.5"/>
<text x="588.5" y="718.0" font-size="10.0" fill="#c87533" font-weight="700">WREN</text>
<text x="588.5" y="731.0" font-size="10.0" fill="#333333">Describe what you see. Exactly.</text>
<text x="759.0" y="636.0" text-anchor="end" font-size="12" font-weight="bold" fill="#888888" opacity="0.6">4</text>
<text x="765.0" y="1165.0" text-anchor="end" font-size="9" fill="#888888" opacity="0.5">MED</text>
</svg>