<svg xmlns="http://www.w3.org/2000/svg" viewBox="0 0 800 1200" width="800" height="1200" style="background:#ffffff">
<style>
  text { font-family: "Helvetica Neue", Helvetica, Arial, sans-serif; }
</style>
<text x="400.0" y="22" text-anchor="middle" font-size="16" fill="#888888" font-weight="500">PAGE 16  (4 panels)</text>
<rect x="29.0" y="59.0" width="742.0" height="551.0" rx="2" fill="#f5f0e8" stroke="#2a2a2a" stroke-width="1.5"/>
<line x1="35.0" y1="488.8" x2="765.0" y2="488.8" stroke="#a89888" stroke-width="1.0" opacity="0.5"/>
<ellipse cx="214.5" cy="490.8" rx="11.2" ry="2.7" fill="#a89888" opacity="0.2"/>
<line x1="211.8" y1="473.0" x2="207.8" y2="488.8" stroke="#b0b0b0" stroke-width="2" opacity="0.5"/>
<line x1="217.2" y1="473.0" x2="221.2" y2="488.8" stroke="#b0b0b0" stroke-width="2" opacity="0.5"/>
<line x1="214.5" y1="460.0" x2="214.5" y2="473.0" stroke="#b0b0b0" stroke-width="2.5" opacity="0.6"/>
<line x1="201.0" y1="462.0" x2="228.0" y2="462.0" stroke="#b0b0b0" stroke-width="2" opacity="0.5"/>
<line x1="201.0" y1="462.0" x2="196.5" y2="473.5" stroke="#b0b0b0" stroke-width="1.5" opacity="0.4"/>
<line x1="228.0" y1="462.0" x2="232.5" y2="473.5" stroke="#b0b0b0" stroke-width="1.5" opacity="0.4"/>
<circle cx="214.5" cy="443.8" r="8.1" fill="#b0b0b0" opacity="0.6"/>
<ellipse cx="400.0" cy="490.8" rx="11.2" ry="2.7" fill="#a89888" opacity="0.2"/>
<line x1="397.3" y1="473.0" x2="393.2" y2="488.8" stroke="#c87533" stroke-width="2" opacity="0.5"/>
<line x1="402.7" y1="473.0" x2="406.8" y2="488.8" stroke="#c87533" stroke-width="2" opacity="0.5"/>
<line x1="400.0" y1="460.0" x2="400.0" y2="473.0" stroke="#c87533" stroke-width="2.5" opacity="0.6"/>
<line x1="386.5" y1="462.0" x2="413.5" y2="462.0" stroke="#c87533" stroke-width="2" opacity="0.5"/>
<line x1="386.5" y1="462.0" x2="382.0" y2="473.5" stroke="#c87533" stroke-width="1.5" opacity="0.4"/>
<line x1="413.5" y1="462.0" x2="418.0" y2="473.5" stroke="#c87533" stroke-width="1.5" opacity="0.4"/>
<circle cx="400.0" cy="443.8" r="8.1" fill="#c87533" opacity="0.6"/>
<ellipse cx="585.5" cy="490.8" rx="11.2" ry="2.7" fill="#a89888" opacity="0.2"/>
<line x1="582.8" y1="473.0" x2="578.8" y2="488.8" stroke="#2e8b57" stroke-width="2" opacity="0.5"/>
<line x1="588.2" y1="473.0" x2="592.2" y2="488.8" stroke="#2e8b57" stroke-width="2" opacity="0.5"/>
<line x1="585.5" y1="460.0" x2="585.5" y2="473.0" stroke="#2e8b57" stroke-width="2.5" opacity="0.6"/>
<line x1="572.0" y1="462.0" x2="599.0" y2="462.0" stroke="#2e8b57" stroke-width="2" opacity="0.5"/>
<line x1="572.0" y1="462.0" x2="567.5" y2="473.5" stroke="#2e8b57" stroke-width="1.5" opacity="0.4"/>
<line x1="599.0" y1="462.0" x2="603.5" y2="473.5" stroke="#2e8b57" stroke-width="1.5" opacity="0.4"/>
<circle cx="585.5" cy="443.8" r="8.1" fill="#2e8b57" opacity="0.6"/>
<rect x="35.0" y="67.0" width="62.0" height="40.0" rx="6" fill="white" stroke="#b0b0b0" stroke-width="1.0" opacity="0.92"/>
<polygon points="53.6,107.0 61.6,107.0 50.6,115.0" fill="white" stroke="#b0b0b0" stroke-width="0.8"/>
<line x1="53.1" y1="107.0" x2="62.1" y2="107.0" stroke="white" stroke-width="1.5"/>
<text x="41.0" y="84.0" font-size="11.0" fill="#b0b0b0" font-weight="700">SABLE</text>
<text x="41.0" y="98.0" font-size="11.0" fill="#333333">Report.</text>
<rect x="35.0" y="117.0" width="730.0" height="40.0" rx="6" fill="white" stroke="#c87533" stroke-width="1.0" opacity="0.92"/>
<polygon points="254.0,157.0 262.0,157.0 251.0,165.0" fill="white" stroke="#c87533" stroke-width="0.8"/>
<line x1="253.5" y1="157.0" x2="262.5" y2="157.0" stroke="white" stroke-width="1.5"/>
<text x="41.0" y="134.0" font-size="11.0" fill="#c87533" font-weight="700">WREN</text>
<text x="41.0" y="148.0" font-size="11.0" fill="#333333">All five devices neutralized. Network collapsed. The Titans will adapt, but this city's telegraph infrastructure is clean.</text>
<rect x="35.0" y="167.0" width="62.0" height="40.0" rx="6" fill="white" stroke="#2e8b57" stroke-width="1.0" opacity="0.92"/>
<polygon points="53.6,207.0 61.6,207.0 50.6,215.0" fill="white" stroke="#2e8b57" stroke-width="0.8"/>
<line x1="53.1" y1="207.0" x2="62.1" y2="207.0" stroke="white" stroke-width="1.5"/>
<text x="41.0" y="184.0" font-size="11.0" fill="#2e8b57" font-weight="700">JINK</text>
<text x="41.0" y="198.0" font-size="11.0" fill="#333333">For now.</text>
<rect x="644.1" y="217.0" width="120.9" height="40.0" rx="6" fill="white" stroke="#b0b0b0" stroke-width="1.0" opacity="0.92"/>
<polygon points="680.4,257.0 688.4,257.0 677.4,265.0" fill="white" stroke="#b0b0b0" stroke-width="0.8"/>
<line x1="679.9" y1="257.0" x2="688.9" y2="257.0" stroke="white" stroke-width="1.5"/>
<text x="650.1" y="234.0" font-size="11.0" fill="#b0b0b0" font-weight="700">SABLE</text>
<text x="650.1" y="248.0" font-size="11.0" fill="#333333">For now is enough.</text>
<text x="759.0" y="75.0" text-anchor="end" font-size="12" font-weight="bold" fill="#888888" opacity="0.6">1</text>
<text x="765.0" y="604.0" text-anchor="end" font-size="9" fill="#888888" opacity="0.5">WIDE</text>
<rect x="29.0" y="620.0" width="366.0" height="551.0" rx="2" fill="#f5f0e8" stroke="#2a2a2a" stroke-width="1.5"/>
<path d="M141.5,1016.7 L147.9,909.1 Q154.4,905.1 192.5,905.1 L231.5,905.1 Q269.6,905.1 276.1,909.1 L282.5,1016.7 Z" fill="#6a5acd" opacity="0.35"/>
<line x1="147.9" y1="979.5" x2="276.1" y2="979.5" stroke="#6a5acd" stroke-width="1" opacity="0.3"/>
<line x1="147.9" y1="909.1" x2="122.3" y2="971.1" stroke="#6a5acd" stroke-width="2" opacity="0.3"/>
<line x1="122.3" y1="971.1" x2="141.5" y2="1008.2" stroke="#6a5acd" stroke-width="2" opacity="0.3"/>
<line x1="276.1" y1="909.1" x2="301.7" y2="971.1" stroke="#6a5acd" stroke-width="2" opacity="0.3"/>
<line x1="301.7" y1="971.1" x2="282.5" y2="1008.2" stroke="#6a5acd" stroke-width="2" opacity="0.3"/>
<line x1="212.0" y1="817.4" x2="212.0" y2="905.1" stroke="#6a5acd" stroke-width="3" opacity="0.35"/>
<circle cx="212.0" cy="768.8" r="48.7" fill="#6a5acd" opacity="0.4"/>
<rect x="35.0" y="628.0" width="354.0" height="54.0" rx="6" fill="white" stroke="#6a5acd" stroke-width="1.0" opacity="0.92"/>
<polygon points="141.2,682.0 149.2,682.0 138.2,690.0" fill="white" stroke="#6a5acd" stroke-width="0.8"/>
<line x1="140.7" y1="682.0" x2="149.7" y2="682.0" stroke="white" stroke-width="1.5"/>
<text x="41.0" y="645.0" font-size="11.0" fill="#6a5acd" font-weight="700">LUMA</text>
<text x="41.0" y="659.0" font-size="11.0" fill="#333333">Before we go back to camp. Before we talk about what comes</text>
<text x="41.0" y="673.0" font-size="11.0" fill="#333333">next. There's something I need to show you. All of you.</text>
<rect x="327.0" y="692.0" width="62.0" height="40.0" rx="6" fill="white" stroke="#b0b0b0" stroke-width="1.0" opacity="0.92"/>
<polygon points="345.6,732.0 353.6,732.0 342.6,740.0" fill="white" stroke="#b0b0b0" stroke-width="0.8"/>
<line x1="345.1" y1="732.0" x2="354.1" y2="732.0" stroke="white" stroke-width="1.5"/>
<text x="333.0" y="709.0" font-size="11.0" fill="#b0b0b0" font-weight="700">SABLE</text>
<text x="333.0" y="723.0" font-size="11.0" fill="#333333">Luma?</text>
<rect x="35.0" y="742.0" width="354.0" height="68.0" rx="6" fill="white" stroke="#6a5acd" stroke-width="1.0" opacity="0.92"/>
<polygon points="141.2,810.0 149.2,810.0 138.2,818.0" fill="white" stroke="#6a5acd" stroke-width="0.8"/>
<line x1="140.7" y1="810.0" x2="149.7" y2="810.0" stroke="white" stroke-width="1.5"/>
<text x="41.0" y="759.0" font-size="11.0" fill="#6a5acd" font-weight="700">LUMA</text>
<text x="41.0" y="773.0" font-size="11.0" fill="#333333">I've been mapping the patterns. Since Issue — since the</text>
<text x="41.0" y="787.0" font-size="11.0" fill="#333333">first glyph. Since the church. Since 'STAY.' I know what we</text>
<text x="41.0" y="801.0" font-size="11.0" fill="#333333">are.</text>
<text x="383.0" y="636.0" text-anchor="end" font-size="12" font-weight="bold" fill="#888888" opacity="0.6">2</text>
<text x="389.0" y="1165.0" text-anchor="end" font-size="9" fill="#888888" opacity="0.5">MW</text>
<rect x="405.0" y="620.0" width="178.0" height="551.0" rx="2" fill="#f5f0e8" stroke="#2a2a2a" stroke-width="1.5"/>
<ellipse cx="494.0" cy="851.4" rx="71.2" ry="248.0" fill="#c0b8a8" opacity="0.18"/>
<path d="M419.2,764.6 Q494.0,566.3 568.8,764.6" fill="none" stroke="#c0b8a8" stroke-width="3" opacity="0.35"/>
<line x1="469.1" y1="796.9" x2="490.4" y2="794.9" stroke="#a89888" stroke-width="1.5" opacity="0.45"/>
<line x1="497.6" y1="794.9" x2="518.9" y2="796.9" stroke="#a89888" stroke-width="1.5" opacity="0.45"/>
<ellipse cx="474.1" cy="821.7" rx="8.5" ry="12.4" fill="#a89888" opacity="0.45"/>
<ellipse cx="513.9" cy="821.7" rx="8.5" ry="12.4" fill="#a89888" opacity="0.45"/>
<line x1="494.0" y1="856.4" x2="494.0" y2="896.1" stroke="#a89888" stroke-width="1.2" opacity="0.35"/>
<path d="M489.7,896.1 Q494.0,899.1 498.3,896.1" fill="none" stroke="#a89888" stroke-width="1" opacity="0.3"/>
<line x1="476.2" y1="930.8" x2="511.8" y2="930.8" stroke="#a89888" stroke-width="1.2" opacity="0.35"/>
<text x="571.0" y="636.0" text-anchor="end" font-size="12" font-weight="bold" fill="#888888" opacity="0.6">3</text>
<text x="577.0" y="1165.0" text-anchor="end" font-size="9" fill="#888888" opacity="0.5">CU</text>
<rect x="593.0" y="620.0" width="178.0" height="551.0" rx="2" fill="#f5f0e8" stroke="#2a2a2a" stroke-width="1.5"/>
<ellipse cx="682.0" cy="851.4" rx="71.2" ry="248.0" fill="#c0b8a8" opacity="0.18"/>
<path d="M607.2,764.6 Q682.0,566.3 756.8,764.6" fill="none" stroke="#c0b8a8" stroke-width="3" opacity="0.35"/>
<line x1="657.1" y1="796.9" x2="678.4" y2="794.9" stroke="#a89888" stroke-width="1.5" opacity="0.45"/>
<line x1="685.6" y1="794.9" x2="706.9" y2="796.9" stroke="#a89888" stroke-width="1.5" opacity="0.45"/>
<ellipse cx="662.1" cy="821.7" rx="8.5" ry="12.4" fill="#a89888" opacity="0.45"/>
<ellipse cx="701.9" cy="821.7" rx="8.5" ry="12.4" fill="#a89888" opacity="0.45"/>
<line x1="682.0" y1="856.4" x2="682.0" y2="896.1" stroke="#a89888" stroke-width="1.2" opacity="0.35"/>
<path d="M677.7,896.1 Q682.0,899.1 686.3,896.1" fill="none" stroke="#a89888" stroke-width="1" opacity="0.3"/>
<line x1="664.2" y1="930.8" x2="699.8" y2="930.8" stroke="#a89888" stroke-width="1.2" opacity="0.35"/>
<text x="759.0" y="636.0" text-anchor="end" font-size="12" font-weight="bold" fill="#888888" opacity="0.6">4</text>
<text x="765.0" y="1165.0" text-anchor="end" font-size="9" fill="#888888" opacity="0.5">CU</text>
</svg>