<svg xmlns="http://www.w3.org/2000/svg" viewBox="0 0 800 1200" width="800" height="1200" style="background:#ffffff">
<style>
  text { font-family: "Helvetica Neue", Helvetica, Arial, sans-serif; }
</style>
<text x="400.0" y="22" text-anchor="middle" font-size="16" fill="#888888" font-weight="500">PAGE 21  (4 panels)</text>
<rect x="29.0" y="59.0" width="742.0" height="551.0" rx="2" fill="#f5f0e8" stroke="#2a2a2a" stroke-width="1.5"/>
<line x1="35.0" y1="488.8" x2="765.0" y2="488.8" stroke="#a89888" stroke-width="1.0" opacity="0.5"/>
<ellipse cx="214.5" cy="490.8" rx="11.2" ry="2.7" fill="#a89888" opacity="0.2"/>
<line x1="211.8" y1="473.0" x2="207.8" y2="488.8" stroke="#c0b8a8" stroke-width="2" opacity="0.5"/>
<line x1="217.2" y1="473.0" x2="221.2" y2="488.8" stroke="#c0b8a8" stroke-width="2" opacity="0.5"/>
<line x1="214.5" y1="460.0" x2="214.5" y2="473.0" stroke="#c0b8a8" stroke-width="2.5" opacity="0.6"/>
<line x1="201.0" y1="462.0" x2="228.0" y2="462.0" stroke="#c0b8a8" stroke-width="2" opacity="0.5"/>
<line x1="201.0" y1="462.0" x2="196.5" y2="473.5" stroke="#c0b8a8" stroke-width="1.5" opacity="0.4"/>
<line x1="228.0" y1="462.0" x2="232.5" y2="473.5" stroke="#c0b8a8" stroke-width="1.5" opacity="0.4"/>
<circle cx="214.5" cy="443.8" r="8.1" fill="#c0b8a8" opacity="0.6"/>
<ellipse cx="400.0" cy="490.8" rx="11.2" ry="2.7" fill="#a89888" opacity="0.2"/>
<line x1="397.3" y1="473.0" x2="393.2" y2="488.8" stroke="#c0b8a8" stroke-width="2" opacity="0.5"/>
<line x1="402.7" y1="473.0" x2="406.8" y2="488.8" stroke="#c0b8a8" stroke-width="2" opacity="0.5"/>
<line x1="400.0" y1="460.0" x2="400.0" y2="473.0" stroke="#c0b8a8" stroke-width="2.5" opacity="0.6"/>
<line x1="386.5" y1="462.0" x2="413.5" y2="462.0" stroke="#c0b8a8" stroke-width="2" opacity="0.5"/>
<line x1="386.5" y1="462.0" x2="382.0" y2="473.5" stroke="#c0b8a8" stroke-width="1.5" opacity="0.4"/>
<line x1="413.5" y1="462.0" x2="418.0" y2="473.5" stroke="#c0b8a8" stroke-width="1.5" opacity="0.4"/>
<circle cx="400.0" cy="443.8" r="8.1" fill="#c0b8a8" opacity="0.6"/>
<ellipse cx="585.5" cy="490.8" rx="11.2" ry="2.7" fill="#a89888" opacity="0.2"/>
<line x1="582.8" y1="473.0" x2="578.8" y2="488.8" stroke="#c0b8a8" stroke-width="2" opacity="0.5"/>
<line x1="588.2" y1="473.0" x2="592.2" y2="488.8" stroke="#c0b8a8" stroke-width="2" opacity="0.5"/>
<line x1="585.5" y1="460.0" x2="585.5" y2="473.0" stroke="#c0b8a8" stroke-width="2.5" opacity="0.6"/>
<line x1="572.0" y1="462.0" x2="599.0" y2="462.0" stroke="#c0b8a8" stroke-width="2" opacity="0.5"/>
<line x1="572.0" y1="462.0" x2="567.5" y2="473.5" stroke="#c0b8a8" stroke-width="1.5" opacity="0.4"/>
<line x1="599.0" y1="462.0" x2="603.5" y2="473.5" stroke="#c0b8a8" stroke-width="1.5" opacity="0.4"/>
<circle cx="585.5" cy="443.8" r="8.1" fill="#c0b8a8" opacity="0.6"/>
<text x="759.0" y="75.0" text-anchor="end" font-size="12" font-weight="bold" fill="#888888" opacity="0.6">1</text>
<text x="765.0" y="604.0" text-anchor="end" font-size="9" fill="#888888" opacity="0.5">EST</text>
<rect x="29.0" y="620.0" width="240.7" height="551.0" rx="2" fill="#f5f0e8" stroke="#2a2a2a" stroke-width="1.5"/>
<path d="M80.0,927.0 Q80.0,892.4 132.0,888.1 L166.7,888.1 Q218.6,892.4 218.6,927.0 L218.6,1104.9 L80.0,1104.9 Z" fill="#c0b8a8" opacity="0.25"/>
<path d="M134.2,888.1 L149.3,909.7 L164.5,888.1" fill="none" stroke="#c0b8a8" stroke-width="1" opacity="0.3"/>
<circle cx="149.3" cy="840.4" r="43.3" fill="#c0b8a8" opacity="0.35"/>
<path d="M106.0,849.1 Q112.5,888.1 149.3,890.2 Q186.2,888.1 192.7,849.1" fill="none" stroke="#c0b8a8" stroke-width="1.2" opacity="0.3"/>
<path d="M103.8,836.1 Q149.3,784.1 194.8,836.1" fill="none" stroke="#c0b8a8" stroke-width="2" opacity="0.4"/>
<ellipse cx="104.0" cy="842.6" rx="2.5" ry="4" fill="#c0b8a8" opacity="0.25"/>
<ellipse cx="194.7" cy="842.6" rx="2.5" ry="4" fill="#c0b8a8" opacity="0.25"/>
<text x="257.7" y="636.0" text-anchor="end" font-size="12" font-weight="bold" fill="#888888" opacity="0.6">2</text>
<text x="263.7" y="1165.0" text-anchor="end" font-size="9" fill="#888888" opacity="0.5">MCU</text>
<rect x="279.7" y="620.0" width="240.7" height="551.0" rx="2" fill="#f5f0e8" stroke="#2a2a2a" stroke-width="1.5"/>
<ellipse cx="400.0" cy="851.4" rx="96.3" ry="248.0" fill="#c0b8a8" opacity="0.18"/>
<path d="M298.9,764.6 Q400.0,566.3 501.1,764.6" fill="none" stroke="#c0b8a8" stroke-width="3" opacity="0.35"/>
<line x1="366.3" y1="796.9" x2="395.2" y2="794.9" stroke="#a89888" stroke-width="1.5" opacity="0.45"/>
<line x1="404.8" y1="794.9" x2="433.7" y2="796.9" stroke="#a89888" stroke-width="1.5" opacity="0.45"/>
<ellipse cx="373.0" cy="821.7" rx="11.6" ry="12.4" fill="#a89888" opacity="0.45"/>
<ellipse cx="427.0" cy="821.7" rx="11.6" ry="12.4" fill="#a89888" opacity="0.45"/>
<line x1="400.0" y1="856.4" x2="400.0" y2="896.1" stroke="#a89888" stroke-width="1.2" opacity="0.35"/>
<path d="M394.2,896.1 Q400.0,899.1 405.8,896.1" fill="none" stroke="#a89888" stroke-width="1" opacity="0.3"/>
<line x1="375.9" y1="930.8" x2="424.1" y2="930.8" stroke="#a89888" stroke-width="1.2" opacity="0.35"/>
<text x="508.3" y="636.0" text-anchor="end" font-size="12" font-weight="bold" fill="#888888" opacity="0.6">3</text>
<text x="514.3" y="1165.0" text-anchor="end" font-size="9" fill="#888888" opacity="0.5">CU</text>
<rect x="530.3" y="620.0" width="240.7" height="551.0" rx="2" fill="#f5f0e8" stroke="#2a2a2a" stroke-width="1.5"/>
<ellipse cx="650.7" cy="851.4" rx="96.3" ry="248.0" fill="#c0b8a8" opacity="0.18"/>
<path d="M549.6,764.6 Q650.7,566.3 751.7,764.6" fill="none" stroke="#c0b8a8" stroke-width="3" opacity="0.35"/>
<line x1="617.0" y1="796.9" x2="645.9" y2="794.9" stroke="#a89888" stroke-width="1.5" opacity="0.45"/>
<line x1="655.5" y1="794.9" x2="684.4" y2="796.9" stroke="#a89888" stroke-width="1.5" opacity="0.45"/>
<ellipse cx="623.7" cy="821.7" rx="11.6" ry="12.4" fill="#a89888" opacity="0.45"/>
<ellipse cx="677.6" cy="821.7" rx="11.6" ry="12.4" fill="#a89888" opacity="0.45"/>
<line x1="650.7" y1="856.4" x2="650.7" y2="896.1" stroke="#a89888" stroke-width="1.2" opacity="0.35"/>
<path d="M644.9,896.1 Q650.7,899.1 656.4,896.1" fill="none" stroke="#a89888" stroke-width="1" opacity="0.3"/>
<line x1="626.6" y1="930.8" x2="674.7" y2="930.8" stroke="#a89888" stroke-width="1.2" opacity="0.35"/>
<text x="759.0" y="636.0" text-anchor="end" font-size="12" font-weight="bold" fill="#888888" opacity="0.6">4</text>
<text x="765.0" y="1165.0" text-anchor="end" font-size="9" fill="#888888" opacity="0.5">CU</text>
</svg>