<svg xmlns="http://www.w3.org/2000/svg" viewBox="0 0 800 1200" width="800" height="1200" style="background:#ffffff">
<style>
  text { font-family: "Helvetica Neue", Helvetica, Arial, sans-serif; }
</style>
<text x="400.0" y="22" text-anchor="middle" font-size="16" fill="#888888" font-weight="500">PAGE 14  (4 panels)</text>
<rect x="29.0" y="59.0" width="366.0" height="551.0" rx="2" fill="#f5f0e8" stroke="#2a2a2a" stroke-width="1.5"/>
<ellipse cx="212.0" cy="290.4" rx="146.4" ry="248.0" fill="#c49a6c" opacity="0.18"/>
<path d="M58.3,203.6 Q212.0,5.3 365.7,203.6" fill="none" stroke="#c49a6c" stroke-width="3" opacity="0.35"/>
<line x1="160.8" y1="235.9" x2="204.7" y2="233.9" stroke="#a89888" stroke-width="1.5" opacity="0.45"/>
<line x1="219.3" y1="233.9" x2="263.2" y2="235.9" stroke="#a89888" stroke-width="1.5" opacity="0.45"/>
<ellipse cx="171.0" cy="260.7" rx="17.6" ry="12.4" fill="#a89888" opacity="0.45"/>
<ellipse cx="253.0" cy="260.7" rx="17.6" ry="12.4" fill="#a89888" opacity="0.45"/>
<line x1="212.0" y1="295.4" x2="212.0" y2="335.1" stroke="#a89888" stroke-width="1.2" opacity="0.35"/>
<path d="M203.2,335.1 Q212.0,338.1 220.8,335.1" fill="none" stroke="#a89888" stroke-width="1" opacity="0.3"/>
<line x1="175.4" y1="369.8" x2="248.6" y2="369.8" stroke="#a89888" stroke-width="1.2" opacity="0.35"/>
<rect x="35.0" y="67.0" width="108.8" height="40.0" rx="6" fill="white" stroke="#c49a6c" stroke-width="1.0" opacity="0.92"/>
<polygon points="67.6,107.0 75.6,107.0 64.6,115.0" fill="white" stroke="#c49a6c" stroke-width="0.8"/>
<line x1="67.1" y1="107.0" x2="76.1" y2="107.0" stroke="white" stroke-width="1.5"/>
<text x="41.0" y="84.0" font-size="11.0" fill="#c49a6c" font-weight="700">THEODORE</text>
<text x="41.0" y="98.0" font-size="11.0" fill="#333333">Sixth. One more.</text>
<rect x="35.0" y="117.0" width="354.0" height="68.0" rx="6" fill="white" stroke="#c87533" stroke-width="1.0" opacity="0.92"/>
<polygon points="141.2,185.0 149.2,185.0 138.2,193.0" fill="white" stroke="#c87533" stroke-width="0.8"/>
<line x1="140.7" y1="185.0" x2="149.7" y2="185.0" stroke="white" stroke-width="1.5"/>
<text x="41.0" y="134.0" font-size="11.0" fill="#c87533" font-weight="700">WREN</text>
<text x="41.0" y="148.0" font-size="11.0" fill="#333333">One more. The last node is the anchor — it holds the device</text>
<text x="41.0" y="162.0" font-size="11.0" fill="#333333">to the infrastructure. When it comes free, the device</text>
<text x="41.0" y="176.0" font-size="11.0" fill="#333333">powers down permanently.</text>
<text x="383.0" y="75.0" text-anchor="end" font-size="12" font-weight="bold" fill="#888888" opacity="0.6">1</text>
<text x="389.0" y="604.0" text-anchor="end" font-size="9" fill="#888888" opacity="0.5">CU</text>
<rect x="405.0" y="59.0" width="366.0" height="551.0" rx="2" fill="#f5f0e8" stroke="#2a2a2a" stroke-width="1.5"/>
<ellipse cx="588.0" cy="290.4" rx="146.4" ry="248.0" fill="#b0b0b0" opacity="0.18"/>
<path d="M434.3,203.6 Q588.0,5.3 741.7,203.6" fill="none" stroke="#b0b0b0" stroke-width="3" opacity="0.35"/>
<line x1="536.8" y1="235.9" x2="580.7" y2="233.9" stroke="#a89888" stroke-width="1.5" opacity="0.45"/>
<line x1="595.3" y1="233.9" x2="639.2" y2="235.9" stroke="#a89888" stroke-width="1.5" opacity="0.45"/>
<ellipse cx="547.0" cy="260.7" rx="17.6" ry="12.4" fill="#a89888" opacity="0.45"/>
<ellipse cx="629.0" cy="260.7" rx="17.6" ry="12.4" fill="#a89888" opacity="0.45"/>
<line x1="588.0" y1="295.4" x2="588.0" y2="335.1" stroke="#a89888" stroke-width="1.2" opacity="0.35"/>
<path d="M579.2,335.1 Q588.0,338.1 596.8,335.1" fill="none" stroke="#a89888" stroke-width="1" opacity="0.3"/>
<line x1="551.4" y1="369.8" x2="624.6" y2="369.8" stroke="#a89888" stroke-width="1.2" opacity="0.35"/>
<rect x="411.0" y="67.0" width="332.7" height="54.0" rx="6" fill="white" stroke="#b0b0b0" stroke-width="1.0" opacity="0.92"/>
<polygon points="510.8,121.0 518.8,121.0 507.8,129.0" fill="white" stroke="#b0b0b0" stroke-width="0.8"/>
<line x1="510.3" y1="121.0" x2="519.3" y2="121.0" stroke="white" stroke-width="1.5"/>
<text x="417.0" y="84.0" font-size="11.0" fill="#b0b0b0" font-weight="700">SABLE</text>
<text x="417.0" y="98.0" font-size="11.0" fill="#333333">The satellites are stabilizing. The restore signal is</text>
<text x="417.0" y="112.0" font-size="11.0" fill="#333333">weakening. One more, Theodore.</text>
<text x="759.0" y="75.0" text-anchor="end" font-size="12" font-weight="bold" fill="#888888" opacity="0.6">2</text>
<text x="765.0" y="604.0" text-anchor="end" font-size="9" fill="#888888" opacity="0.5">CU</text>
<rect x="29.0" y="620.0" width="366.0" height="551.0" rx="2" fill="#f5f0e8" stroke="#2a2a2a" stroke-width="1.5"/>
<path d="M106.6,972.2 Q106.6,919.5 185.6,912.9 L238.4,912.9 Q317.4,919.5 317.4,972.2 L317.4,1104.9 L106.6,1104.9 Z" fill="#c49a6c" opacity="0.25"/>
<path d="M188.9,912.9 L212.0,945.8 L235.1,912.9" fill="none" stroke="#c49a6c" stroke-width="1" opacity="0.3"/>
<circle cx="212.0" cy="840.4" r="65.9" fill="#c49a6c" opacity="0.35"/>
<path d="M146.1,853.6 Q156.0,912.9 212.0,916.2 Q268.0,912.9 277.9,853.6" fill="none" stroke="#c49a6c" stroke-width="1.2" opacity="0.3"/>
<path d="M142.8,833.8 Q212.0,754.8 281.2,833.8" fill="none" stroke="#c49a6c" stroke-width="2" opacity="0.4"/>
<ellipse cx="144.1" cy="843.7" rx="2.5" ry="4" fill="#c49a6c" opacity="0.25"/>
<ellipse cx="279.9" cy="843.7" rx="2.5" ry="4" fill="#c49a6c" opacity="0.25"/>
<rect x="35.0" y="628.0" width="320.6" height="40.0" rx="6" fill="white" stroke="#c49a6c" stroke-width="1.0" opacity="0.92"/>
<polygon points="131.2,668.0 139.2,668.0 128.2,676.0" fill="white" stroke="#c49a6c" stroke-width="0.8"/>
<line x1="130.7" y1="668.0" x2="139.7" y2="668.0" stroke="white" stroke-width="1.5"/>
<text x="41.0" y="645.0" font-size="11.0" fill="#c49a6c" font-weight="700">THEODORE</text>
<text x="41.0" y="659.0" font-size="11.0" fill="#333333">I feel it. The anchor. It's deeper than the others.</text>
<rect x="35.0" y="678.0" width="354.0" height="40.0" rx="6" fill="white" stroke="#c87533" stroke-width="1.0" opacity="0.92"/>
<polygon points="141.2,718.0 149.2,718.0 138.2,726.0" fill="white" stroke="#c87533" stroke-width="0.8"/>
<line x1="140.7" y1="718.0" x2="149.7" y2="718.0" stroke="white" stroke-width="1.5"/>
<text x="41.0" y="695.0" font-size="11.0" fill="#c87533" font-weight="700">WREN</text>
<text x="41.0" y="709.0" font-size="11.0" fill="#333333">Same technique. Pressure, rotation, pull. Trust your hands.</text>
<rect x="35.0" y="728.0" width="90.7" height="40.0" rx="6" fill="white" stroke="#c49a6c" stroke-width="1.0" opacity="0.92"/>
<polygon points="62.2,768.0 70.2,768.0 59.2,776.0" fill="white" stroke="#c49a6c" stroke-width="0.8"/>
<line x1="61.7" y1="768.0" x2="70.7" y2="768.0" stroke="white" stroke-width="1.5"/>
<text x="41.0" y="745.0" font-size="11.0" fill="#c49a6c" font-weight="700">THEODORE</text>
<text x="41.0" y="759.0" font-size="11.0" fill="#333333">I trust them.</text>
<text x="383.0" y="636.0" text-anchor="end" font-size="12" font-weight="bold" fill="#888888" opacity="0.6">3</text>
<text x="389.0" y="1165.0" text-anchor="end" font-size="9" fill="#888888" opacity="0.5">MCU</text>
<rect x="405.0" y="620.0" width="366.0" height="551.0" rx="2" fill="#f5f0e8" stroke="#2a2a2a" stroke-width="1.5"/>
<ellipse cx="588.0" cy="851.4" rx="146.4" ry="248.0" fill="#c49a6c" opacity="0.18"/>
<path d="M434.3,764.6 Q588.0,566.3 741.7,764.6" fill="none" stroke="#c49a6c" stroke-width="3" opacity="0.35"/>
<line x1="536.8" y1="796.9" x2="580.7" y2="794.9" stroke="#a89888" stroke-width="1.5" opacity="0.45"/>
<line x1="595.3" y1="794.9" x2="639.2" y2="796.9" stroke="#a89888" stroke-width="1.5" opacity="0.45"/>
<ellipse cx="547.0" cy="821.7" rx="17.6" ry="12.4" fill="#a89888" opacity="0.45"/>
<ellipse cx="629.0" cy="821.7" rx="17.6" ry="12.4" fill="#a89888" opacity="0.45"/>
<line x1="588.0" y1="856.4" x2="588.0" y2="896.1" stroke="#a89888" stroke-width="1.2" opacity="0.35"/>
<path d="M579.2,896.1 Q588.0,899.1 596.8,896.1" fill="none" stroke="#a89888" stroke-width="1" opacity="0.3"/>
<line x1="551.4" y1="930.8" x2="624.6" y2="930.8" stroke="#a89888" stroke-width="1.2" opacity="0.35"/>
<rect x="411.0" y="628.0" width="181.4" height="40.0" rx="6" fill="white" stroke="#c49a6c" stroke-width="1.0" opacity="0.92"/>
<polygon points="465.4,668.0 473.4,668.0 462.4,676.0" fill="white" stroke="#c49a6c" stroke-width="0.8"/>
<line x1="464.9" y1="668.0" x2="473.9" y2="668.0" stroke="white" stroke-width="1.5"/>
<text x="417.0" y="645.0" font-size="11.0" fill="#c49a6c" font-weight="700">THEODORE</text>
<text x="417.0" y="659.0" font-size="11.0" fill="#333333">It's out. The light is gone.</text>
<text x="759.0" y="636.0" text-anchor="end" font-size="12" font-weight="bold" fill="#888888" opacity="0.6">4</text>
<text x="765.0" y="1165.0" text-anchor="end" font-size="9" fill="#888888" opacity="0.5">CU</text>
</svg>