<svg xmlns="http://www.w3.org/2000/svg" viewBox="0 0 800 1200" width="800" height="1200" style="background:#ffffff">
<style>
  text { font-family: "Helvetica Neue", Helvetica, Arial, sans-serif; }
</style>
<text x="400.0" y="22" text-anchor="middle" font-size="16" fill="#888888" font-weight="500">PAGE 8  (4 panels)</text>
<rect x="29.0" y="59.0" width="366.0" height="1112.0" rx="2" fill="#f5f0e8" stroke="#2a2a2a" stroke-width="1.5"/>
<path d="M141.5,859.6 L147.9,499.5 Q154.4,495.5 192.5,495.5 L231.5,495.5 Q269.6,495.5 276.1,499.5 L282.5,859.6 Z" fill="#b22222" opacity="0.35"/>
<line x1="147.9" y1="784.6" x2="276.1" y2="784.6" stroke="#b22222" stroke-width="1" opacity="0.3"/>
<line x1="147.9" y1="499.5" x2="122.3" y2="624.6" stroke="#b22222" stroke-width="2" opacity="0.3"/>
<line x1="122.3" y1="624.6" x2="141.5" y2="699.7" stroke="#b22222" stroke-width="2" opacity="0.3"/>
<line x1="276.1" y1="499.5" x2="301.7" y2="624.6" stroke="#b22222" stroke-width="2" opacity="0.3"/>
<line x1="301.7" y1="624.6" x2="282.5" y2="699.7" stroke="#b22222" stroke-width="2" opacity="0.3"/>
<line x1="212.0" y1="407.9" x2="212.0" y2="495.5" stroke="#b22222" stroke-width="3" opacity="0.35"/>
<circle cx="212.0" cy="359.2" r="48.7" fill="#b22222" opacity="0.4"/>
<rect x="35.0" y="67.0" width="163.2" height="40.0" rx="6" fill="white" stroke="#b22222" stroke-width="1.0" opacity="0.92"/>
<polygon points="84.0,107.0 92.0,107.0 81.0,115.0" fill="white" stroke="#b22222" stroke-width="0.8"/>
<line x1="83.5" y1="107.0" x2="92.5" y2="107.0" stroke="white" stroke-width="1.5"/>
<text x="41.0" y="84.0" font-size="11.0" fill="#b22222" font-weight="700">THRESH</text>
<text x="41.0" y="98.0" font-size="11.0" fill="#333333">I'm out. What did I miss?</text>
<rect x="35.0" y="117.0" width="350.8" height="54.0" rx="6" fill="white" stroke="#b0b0b0" stroke-width="1.0" opacity="0.92"/>
<polygon points="140.2,171.0 148.2,171.0 137.2,179.0" fill="white" stroke="#b0b0b0" stroke-width="0.8"/>
<line x1="139.7" y1="171.0" x2="148.7" y2="171.0" stroke="white" stroke-width="1.5"/>
<text x="41.0" y="134.0" font-size="11.0" fill="#b0b0b0" font-weight="700">SABLE</text>
<text x="41.0" y="148.0" font-size="11.0" fill="#333333">Fifth device. Theodore's on it. Regroup at the exchange.</text>
<text x="41.0" y="162.0" font-size="11.0" fill="#333333">All teams.</text>
<text x="383.0" y="75.0" text-anchor="end" font-size="12" font-weight="bold" fill="#888888" opacity="0.6">1</text>
<text x="389.0" y="1165.0" text-anchor="end" font-size="9" fill="#888888" opacity="0.5">MED</text>
<rect x="405.0" y="59.0" width="366.0" height="1112.0" rx="2" fill="#f5f0e8" stroke="#2a2a2a" stroke-width="1.5"/>
<path d="M517.5,859.6 L524.0,499.5 Q530.4,495.5 568.5,495.5 L607.5,495.5 Q645.6,495.5 652.0,499.5 L658.5,859.6 Z" fill="#2e8b57" opacity="0.35"/>
<line x1="524.0" y1="784.6" x2="652.0" y2="784.6" stroke="#2e8b57" stroke-width="1" opacity="0.3"/>
<line x1="524.0" y1="499.5" x2="498.3" y2="624.6" stroke="#2e8b57" stroke-width="2" opacity="0.3"/>
<line x1="498.3" y1="624.6" x2="517.5" y2="699.7" stroke="#2e8b57" stroke-width="2" opacity="0.3"/>
<line x1="652.0" y1="499.5" x2="677.7" y2="624.6" stroke="#2e8b57" stroke-width="2" opacity="0.3"/>
<line x1="677.7" y1="624.6" x2="658.5" y2="699.7" stroke="#2e8b57" stroke-width="2" opacity="0.3"/>
<line x1="588.0" y1="407.9" x2="588.0" y2="495.5" stroke="#2e8b57" stroke-width="3" opacity="0.35"/>
<circle cx="588.0" cy="359.2" r="48.7" fill="#2e8b57" opacity="0.4"/>
<rect x="411.0" y="67.0" width="338.7" height="54.0" rx="6" fill="white" stroke="#2e8b57" stroke-width="1.0" opacity="0.92"/>
<polygon points="512.6,121.0 520.6,121.0 509.6,129.0" fill="white" stroke="#2e8b57" stroke-width="0.8"/>
<line x1="512.1" y1="121.0" x2="521.1" y2="121.0" stroke="white" stroke-width="1.5"/>
<text x="417.0" y="84.0" font-size="11.0" fill="#2e8b57" font-weight="700">JINK</text>
<text x="417.0" y="98.0" font-size="11.0" fill="#333333">On my way. I'll be Theodore's relay. Wren, send me the</text>
<text x="417.0" y="112.0" font-size="11.0" fill="#333333">talk-through.</text>
<rect x="650.1" y="131.0" width="114.9" height="40.0" rx="6" fill="white" stroke="#c87533" stroke-width="1.0" opacity="0.92"/>
<polygon points="684.6,171.0 692.6,171.0 681.6,179.0" fill="white" stroke="#c87533" stroke-width="0.8"/>
<line x1="684.1" y1="171.0" x2="693.1" y2="171.0" stroke="white" stroke-width="1.5"/>
<text x="656.1" y="148.0" font-size="11.0" fill="#c87533" font-weight="700">WREN</text>
<text x="656.1" y="162.0" font-size="11.0" fill="#333333">Transmitting now.</text>
<text x="759.0" y="75.0" text-anchor="end" font-size="12" font-weight="bold" fill="#888888" opacity="0.6">2</text>
<text x="765.0" y="1165.0" text-anchor="end" font-size="9" fill="#888888" opacity="0.5">MW</text>
<rect x="588.0" y="895.5" width="150.4" height="224.4" rx="2" fill="#e8e0d0" stroke="#2a2a2a" stroke-width="1.0"/>
<line x1="594.0" y1="1070.5" x2="732.4" y2="1070.5" stroke="#a89888" stroke-width="1.0" opacity="0.5"/>
<ellipse cx="638.1" cy="1072.5" rx="10.1" ry="2.4" fill="#a89888" opacity="0.2"/>
<line x1="635.7" y1="1056.4" x2="632.1" y2="1070.5" stroke="#c49a6c" stroke-width="2" opacity="0.5"/>
<line x1="640.6" y1="1056.4" x2="644.2" y2="1070.5" stroke="#c49a6c" stroke-width="2" opacity="0.5"/>
<line x1="638.1" y1="1044.7" x2="638.1" y2="1056.4" stroke="#c49a6c" stroke-width="2.5" opacity="0.6"/>
<line x1="626.0" y1="1046.7" x2="650.3" y2="1046.7" stroke="#c49a6c" stroke-width="2" opacity="0.5"/>
<line x1="626.0" y1="1046.7" x2="622.0" y2="1056.8" stroke="#c49a6c" stroke-width="1.5" opacity="0.4"/>
<line x1="650.3" y1="1046.7" x2="654.3" y2="1056.8" stroke="#c49a6c" stroke-width="1.5" opacity="0.4"/>
<circle cx="638.1" cy="1030.1" r="7.3" fill="#c49a6c" opacity="0.6"/>
<ellipse cx="688.3" cy="1072.5" rx="10.1" ry="2.4" fill="#a89888" opacity="0.2"/>
<line x1="685.8" y1="1056.4" x2="682.2" y2="1070.5" stroke="#b0b0b0" stroke-width="2" opacity="0.5"/>
<line x1="690.7" y1="1056.4" x2="694.3" y2="1070.5" stroke="#b0b0b0" stroke-width="2" opacity="0.5"/>
<line x1="688.3" y1="1044.7" x2="688.3" y2="1056.4" stroke="#b0b0b0" stroke-width="2.5" opacity="0.6"/>
<line x1="676.1" y1="1046.7" x2="700.4" y2="1046.7" stroke="#b0b0b0" stroke-width="2" opacity="0.5"/>
<line x1="676.1" y1="1046.7" x2="672.1" y2="1056.8" stroke="#b0b0b0" stroke-width="1.5" opacity="0.4"/>
<line x1="700.4" y1="1046.7" x2="704.4" y2="1056.8" stroke="#b0b0b0" stroke-width="1.5" opacity="0.4"/>
<circle cx="688.3" cy="1030.1" r="7.3" fill="#b0b0b0" opacity="0.6"/>
<rect x="594.0" y="903.5" width="127.5" height="51.0" rx="6" fill="white" stroke="#c49a6c" stroke-width="1.0" opacity="0.92"/>
<polygon points="632.2,954.5 640.2,954.5 629.2,962.5" fill="white" stroke="#c49a6c" stroke-width="0.8"/>
<line x1="631.8" y1="954.5" x2="640.8" y2="954.5" stroke="white" stroke-width="1.5"/>
<text x="600.0" y="919.5" font-size="10.0" fill="#c49a6c" font-weight="700">THEODORE</text>
<text x="600.0" y="932.5" font-size="10.0" fill="#333333">I'm here. I see it.</text>
<text x="600.0" y="945.5" font-size="10.0" fill="#333333">There's people about.</text>
<rect x="594.0" y="964.5" width="138.4" height="64.0" rx="6" fill="white" stroke="#b0b0b0" stroke-width="1.0" opacity="0.92"/>
<polygon points="635.5,1028.5 643.5,1028.5 632.5,1036.5" fill="white" stroke="#b0b0b0" stroke-width="0.8"/>
<line x1="635.0" y1="1028.5" x2="644.0" y2="1028.5" stroke="white" stroke-width="1.5"/>
<text x="600.0" y="980.5" font-size="10.0" fill="#b0b0b0" font-weight="700">SABLE</text>
<text x="600.0" y="993.5" font-size="10.0" fill="#333333">Wait for Jink. The relay</text>
<text x="600.0" y="1006.5" font-size="10.0" fill="#333333">needs to be in place</text>
<text x="600.0" y="1019.5" font-size="10.0" fill="#333333">before you open it.</text>
<text x="726.4" y="911.5" text-anchor="end" font-size="12" font-weight="bold" fill="#888888" opacity="0.6">3</text>
<text x="732.4" y="1113.9" text-anchor="end" font-size="9" fill="#888888" opacity="0.5">WIDE</text>
<rect x="588.0" y="895.5" width="150.4" height="224.4" rx="2" fill="#e8e0d0" stroke="#2a2a2a" stroke-width="1.0"/>
<ellipse cx="663.2" cy="989.7" rx="60.2" ry="101.0" fill="#2e8b57" opacity="0.18"/>
<path d="M600.0,954.4 Q663.2,873.6 726.4,954.4" fill="none" stroke="#2e8b57" stroke-width="3" opacity="0.35"/>
<line x1="642.1" y1="967.5" x2="660.2" y2="965.5" stroke="#a89888" stroke-width="1.5" opacity="0.45"/>
<line x1="666.2" y1="965.5" x2="684.3" y2="967.5" stroke="#a89888" stroke-width="1.5" opacity="0.45"/>
<ellipse cx="646.4" cy="977.6" rx="7.2" ry="5.0" fill="#a89888" opacity="0.45"/>
<ellipse cx="680.0" cy="977.6" rx="7.2" ry="5.0" fill="#a89888" opacity="0.45"/>
<line x1="663.2" y1="991.8" x2="663.2" y2="1007.9" stroke="#a89888" stroke-width="1.2" opacity="0.35"/>
<path d="M659.6,1007.9 Q663.2,1010.9 666.8,1007.9" fill="none" stroke="#a89888" stroke-width="1" opacity="0.3"/>
<line x1="648.2" y1="1022.1" x2="678.2" y2="1022.1" stroke="#a89888" stroke-width="1.2" opacity="0.35"/>
<rect x="594.0" y="903.5" width="133.0" height="64.0" rx="6" fill="white" stroke="#2e8b57" stroke-width="1.0" opacity="0.92"/>
<polygon points="633.9,967.5 641.9,967.5 630.9,975.5" fill="white" stroke="#2e8b57" stroke-width="0.8"/>
<line x1="633.4" y1="967.5" x2="642.4" y2="967.5" stroke="white" stroke-width="1.5"/>
<text x="600.0" y="919.5" font-size="10.0" fill="#2e8b57" font-weight="700">JINK</text>
<text x="600.0" y="932.5" font-size="10.0" fill="#333333">Relay in position. I'm</text>
<text x="600.0" y="945.5" font-size="10.0" fill="#333333">on the box. Theodore,</text>
<text x="600.0" y="958.5" font-size="10.0" fill="#333333">whenever you're ready.</text>
<text x="726.4" y="911.5" text-anchor="end" font-size="12" font-weight="bold" fill="#888888" opacity="0.6">4</text>
<text x="732.4" y="1113.9" text-anchor="end" font-size="9" fill="#888888" opacity="0.5">CU</text>
</svg>