<svg xmlns="http://www.w3.org/2000/svg" viewBox="0 0 800 1200" width="800" height="1200" style="background:#ffffff">
<style>
  text { font-family: "Helvetica Neue", Helvetica, Arial, sans-serif; }
</style>
<text x="400.0" y="22" text-anchor="middle" font-size="16" fill="#888888" font-weight="500">PAGE 15  (4 panels)</text>
<rect x="29.0" y="59.0" width="493.8" height="738.0" rx="2" fill="#f5f0e8" stroke="#2a2a2a" stroke-width="1.5"/>
<line x1="261.1" y1="492.6" x2="216.7" y2="573.8" stroke="#2e8b57" stroke-width="3" opacity="0.35"/>
<line x1="216.7" y1="573.8" x2="246.3" y2="634.6" stroke="#2e8b57" stroke-width="3" opacity="0.35"/>
<line x1="290.7" y1="492.6" x2="350.0" y2="553.5" stroke="#2e8b57" stroke-width="3" opacity="0.35"/>
<line x1="350.0" y1="553.5" x2="364.8" y2="602.2" stroke="#2e8b57" stroke-width="3" opacity="0.35"/>
<line x1="305.6" y1="272.7" x2="267.0" y2="492.6" stroke="#2e8b57" stroke-width="3.5" opacity="0.4"/>
<circle cx="305.6" cy="228.7" r="20.0" fill="#2e8b57" opacity="0.4"/>
<line x1="290.7" y1="333.6" x2="364.8" y2="274.6" stroke="#2e8b57" stroke-width="2.5" opacity="0.35"/>
<line x1="290.7" y1="333.6" x2="206.8" y2="377.9" stroke="#2e8b57" stroke-width="2.5" opacity="0.35"/>
<path d="M290.7,313.3 Q231.5,239.5 251.2,180.5" fill="none" stroke="#2e8b57" stroke-width="1.5" opacity="0.25"/>
<path d="M290.7,313.3 Q350.0,239.5 330.2,180.5" fill="none" stroke="#2e8b57" stroke-width="1.5" opacity="0.25"/>
<line x1="414.2" y1="295.2" x2="498.1" y2="295.2" stroke="#a89888" stroke-width="1.2" opacity="0.3"/>
<line x1="414.2" y1="369.0" x2="498.1" y2="369.0" stroke="#a89888" stroke-width="1.2" opacity="0.3"/>
<line x1="414.2" y1="442.8" x2="498.1" y2="442.8" stroke="#a89888" stroke-width="1.2" opacity="0.3"/>
<line x1="414.2" y1="516.6" x2="498.1" y2="516.6" stroke="#a89888" stroke-width="1.2" opacity="0.3"/>
<line x1="53.7" y1="206.6" x2="117.9" y2="206.6" stroke="#a89888" stroke-width="1" opacity="0.2"/>
<line x1="53.7" y1="317.3" x2="117.9" y2="317.3" stroke="#a89888" stroke-width="1" opacity="0.2"/>
<line x1="53.7" y1="538.7" x2="117.9" y2="538.7" stroke="#a89888" stroke-width="1" opacity="0.2"/>
<line x1="53.7" y1="649.4" x2="117.9" y2="649.4" stroke="#a89888" stroke-width="1" opacity="0.2"/>
<rect x="35.0" y="67.0" width="78.6" height="40.0" rx="6" fill="white" stroke="#2e8b57" stroke-width="1.0" opacity="0.92"/>
<polygon points="58.6,107.0 66.6,107.0 55.6,115.0" fill="white" stroke="#2e8b57" stroke-width="0.8"/>
<line x1="58.1" y1="107.0" x2="67.1" y2="107.0" stroke="white" stroke-width="1.5"/>
<text x="41.0" y="84.0" font-size="11.0" fill="#2e8b57" font-weight="700">JINK</text>
<text x="41.0" y="98.0" font-size="11.0" fill="#333333">You did it.</text>
<rect x="444.3" y="117.0" width="72.5" height="40.0" rx="6" fill="white" stroke="#c49a6c" stroke-width="1.0" opacity="0.92"/>
<polygon points="466.1,157.0 474.1,157.0 463.1,165.0" fill="white" stroke="#c49a6c" stroke-width="0.8"/>
<line x1="465.6" y1="157.0" x2="474.6" y2="157.0" stroke="white" stroke-width="1.5"/>
<text x="450.3" y="134.0" font-size="11.0" fill="#c49a6c" font-weight="700">THEODORE</text>
<text x="450.3" y="148.0" font-size="11.0" fill="#333333">We did it.</text>
<text x="510.8" y="75.0" text-anchor="end" font-size="12" font-weight="bold" fill="#888888" opacity="0.6">1</text>
<text x="516.8" y="791.0" text-anchor="end" font-size="9" fill="#888888" opacity="0.5">SPLASH</text>
<rect x="532.8" y="59.0" width="238.2" height="738.0" rx="2" fill="#f5f0e8" stroke="#2a2a2a" stroke-width="1.5"/>
<ellipse cx="651.9" cy="369.0" rx="95.3" ry="332.1" fill="#b0b0b0" opacity="0.18"/>
<path d="M551.9,252.7 Q651.9,-13.0 751.9,252.7" fill="none" stroke="#b0b0b0" stroke-width="3" opacity="0.35"/>
<line x1="618.6" y1="295.9" x2="647.2" y2="293.9" stroke="#a89888" stroke-width="1.5" opacity="0.45"/>
<line x1="656.7" y1="293.9" x2="685.3" y2="295.9" stroke="#a89888" stroke-width="1.5" opacity="0.45"/>
<ellipse cx="625.2" cy="329.1" rx="11.4" ry="16.6" fill="#a89888" opacity="0.45"/>
<ellipse cx="678.6" cy="329.1" rx="11.4" ry="16.6" fill="#a89888" opacity="0.45"/>
<line x1="651.9" y1="375.6" x2="651.9" y2="428.7" stroke="#a89888" stroke-width="1.2" opacity="0.35"/>
<path d="M646.2,428.7 Q651.9,431.7 657.6,428.7" fill="none" stroke="#a89888" stroke-width="1" opacity="0.3"/>
<line x1="628.1" y1="475.2" x2="675.7" y2="475.2" stroke="#a89888" stroke-width="1.2" opacity="0.35"/>
<rect x="538.8" y="67.0" width="188.0" height="51.0" rx="6" fill="white" stroke="#b0b0b0" stroke-width="1.0" opacity="0.92"/>
<polygon points="595.2,118.0 603.2,118.0 592.2,126.0" fill="white" stroke="#b0b0b0" stroke-width="0.8"/>
<line x1="594.7" y1="118.0" x2="603.7" y2="118.0" stroke="white" stroke-width="1.5"/>
<text x="544.8" y="83.0" font-size="10.0" fill="#b0b0b0" font-weight="700">SABLE</text>
<text x="544.8" y="96.0" font-size="10.0" fill="#333333">All devices neutralized. Network</text>
<text x="544.8" y="109.0" font-size="10.0" fill="#333333">collapsed. Operation complete.</text>
<text x="759.0" y="75.0" text-anchor="end" font-size="12" font-weight="bold" fill="#888888" opacity="0.6">2</text>
<text x="765.0" y="791.0" text-anchor="end" font-size="9" fill="#888888" opacity="0.5">CU</text>
<rect x="29.0" y="807.0" width="366.0" height="364.0" rx="2" fill="#f5f0e8" stroke="#2a2a2a" stroke-width="1.5"/>
<circle cx="212.0" cy="989.0" r="45.0" fill="#c87533" opacity="0.22"/>
<line x1="187.2" y1="977.8" x2="205.2" y2="970.1" stroke="#a89888" stroke-width="1.5" opacity="0.5"/>
<line x1="218.8" y1="970.1" x2="236.8" y2="977.8" stroke="#a89888" stroke-width="1.5" opacity="0.5"/>
<ellipse cx="198.5" cy="984.5" rx="4.5" ry="2.7" fill="#a89888" opacity="0.5"/>
<ellipse cx="225.5" cy="984.5" rx="4.5" ry="2.7" fill="#a89888" opacity="0.5"/>
<line x1="212.0" y1="989.9" x2="212.0" y2="998.0" stroke="#a89888" stroke-width="1" opacity="0.35"/>
<ellipse cx="212.0" cy="1006.1" rx="6.8" ry="3.6" fill="#a89888" opacity="0.25"/>
<line x1="256.8" y1="1014.9" x2="264.6" y2="1019.4" stroke="#a89888" stroke-width="1" opacity="0.3"/>
<line x1="237.9" y1="1033.8" x2="242.4" y2="1041.6" stroke="#a89888" stroke-width="1" opacity="0.3"/>
<line x1="186.1" y1="1033.8" x2="181.6" y2="1041.6" stroke="#a89888" stroke-width="1" opacity="0.3"/>
<line x1="167.2" y1="1014.9" x2="159.4" y2="1019.4" stroke="#a89888" stroke-width="1" opacity="0.3"/>
<line x1="167.2" y1="963.1" x2="159.4" y2="958.6" stroke="#a89888" stroke-width="1" opacity="0.3"/>
<line x1="186.1" y1="944.2" x2="181.6" y2="936.4" stroke="#a89888" stroke-width="1" opacity="0.3"/>
<line x1="237.9" y1="944.2" x2="242.4" y2="936.4" stroke="#a89888" stroke-width="1" opacity="0.3"/>
<line x1="256.8" y1="963.1" x2="264.6" y2="958.6" stroke="#a89888" stroke-width="1" opacity="0.3"/>
<rect x="35.0" y="815.0" width="133.0" height="40.0" rx="6" fill="white" stroke="#c87533" stroke-width="1.0" opacity="0.92"/>
<polygon points="74.9,855.0 82.9,855.0 71.9,863.0" fill="white" stroke="#c87533" stroke-width="0.8"/>
<line x1="74.4" y1="855.0" x2="83.4" y2="855.0" stroke="white" stroke-width="1.5"/>
<text x="41.0" y="832.0" font-size="11.0" fill="#c87533" font-weight="700">WREN</text>
<text x="41.0" y="846.0" font-size="11.0" fill="#333333">Well done, Theodore.</text>
<text x="383.0" y="823.0" text-anchor="end" font-size="12" font-weight="bold" fill="#888888" opacity="0.6">3</text>
<text x="389.0" y="1165.0" text-anchor="end" font-size="9" fill="#888888" opacity="0.5">RXN</text>
<rect x="405.0" y="807.0" width="366.0" height="364.0" rx="2" fill="#f5f0e8" stroke="#2a2a2a" stroke-width="1.5"/>
<path d="M529.4,1069.1 L534.8,1022.6 Q540.1,1018.6 571.8,1018.6 L604.2,1018.6 Q635.9,1018.6 641.2,1022.6 L646.6,1069.1 Z" fill="#b22222" opacity="0.35"/>
<line x1="534.8" y1="1044.5" x2="641.2" y2="1044.5" stroke="#b22222" stroke-width="1" opacity="0.3"/>
<line x1="534.8" y1="1022.6" x2="513.5" y2="1063.5" stroke="#b22222" stroke-width="2" opacity="0.3"/>
<line x1="513.5" y1="1063.5" x2="529.4" y2="1088.1" stroke="#b22222" stroke-width="2" opacity="0.3"/>
<line x1="641.2" y1="1022.6" x2="662.5" y2="1063.5" stroke="#b22222" stroke-width="2" opacity="0.3"/>
<line x1="662.5" y1="1063.5" x2="646.6" y2="1088.1" stroke="#b22222" stroke-width="2" opacity="0.3"/>
<line x1="588.0" y1="945.7" x2="588.0" y2="1018.6" stroke="#b22222" stroke-width="3" opacity="0.35"/>
<circle cx="588.0" cy="905.3" r="40.5" fill="#b22222" opacity="0.4"/>
<rect x="411.0" y="815.0" width="350.8" height="40.0" rx="6" fill="white" stroke="#b22222" stroke-width="1.0" opacity="0.92"/>
<polygon points="516.2,855.0 524.2,855.0 513.2,863.0" fill="white" stroke="#b22222" stroke-width="0.8"/>
<line x1="515.7" y1="855.0" x2="524.7" y2="855.0" stroke="white" stroke-width="1.5"/>
<text x="417.0" y="832.0" font-size="11.0" fill="#b22222" font-weight="700">THRESH</text>
<text x="417.0" y="846.0" font-size="11.0" fill="#333333">Soldier... confirms. We did it. All of us. Even the boy.</text>
<text x="759.0" y="823.0" text-anchor="end" font-size="12" font-weight="bold" fill="#888888" opacity="0.6">4</text>
<text x="765.0" y="1165.0" text-anchor="end" font-size="9" fill="#888888" opacity="0.5">MED</text>
</svg>