<svg xmlns="http://www.w3.org/2000/svg" viewBox="0 0 800 1200" width="800" height="1200" style="background:#ffffff">
<style>
  text { font-family: "Helvetica Neue", Helvetica, Arial, sans-serif; }
</style>
<text x="400.0" y="22" text-anchor="middle" font-size="16" fill="#888888" font-weight="500">PAGE 5  (4 panels)</text>
<rect x="29.0" y="59.0" width="742.0" height="551.0" rx="2" fill="#f5f0e8" stroke="#2a2a2a" stroke-width="1.5"/>
<line x1="377.7" y1="382.7" x2="311.0" y2="443.3" stroke="#b0b0b0" stroke-width="3" opacity="0.35"/>
<line x1="311.0" y1="443.3" x2="355.5" y2="488.8" stroke="#b0b0b0" stroke-width="3" opacity="0.35"/>
<line x1="422.3" y1="382.7" x2="511.3" y2="428.2" stroke="#b0b0b0" stroke-width="3" opacity="0.35"/>
<line x1="511.3" y1="428.2" x2="533.6" y2="464.5" stroke="#b0b0b0" stroke-width="3" opacity="0.35"/>
<line x1="444.5" y1="229.7" x2="386.6" y2="382.7" stroke="#b0b0b0" stroke-width="3.5" opacity="0.4"/>
<circle cx="444.5" cy="185.7" r="20.0" fill="#b0b0b0" opacity="0.4"/>
<line x1="422.3" y1="275.2" x2="533.6" y2="231.1" stroke="#b0b0b0" stroke-width="2.5" opacity="0.35"/>
<line x1="422.3" y1="275.2" x2="296.1" y2="308.2" stroke="#b0b0b0" stroke-width="2.5" opacity="0.35"/>
<path d="M422.3,260.0 Q333.2,204.9 362.9,160.9" fill="none" stroke="#b0b0b0" stroke-width="1.5" opacity="0.25"/>
<path d="M422.3,260.0 Q511.3,204.9 481.6,160.9" fill="none" stroke="#b0b0b0" stroke-width="1.5" opacity="0.25"/>
<line x1="607.8" y1="235.3" x2="733.9" y2="235.3" stroke="#a89888" stroke-width="1.2" opacity="0.3"/>
<line x1="607.8" y1="290.4" x2="733.9" y2="290.4" stroke="#a89888" stroke-width="1.2" opacity="0.3"/>
<line x1="607.8" y1="345.5" x2="733.9" y2="345.5" stroke="#a89888" stroke-width="1.2" opacity="0.3"/>
<line x1="607.8" y1="400.6" x2="733.9" y2="400.6" stroke="#a89888" stroke-width="1.2" opacity="0.3"/>
<line x1="66.1" y1="169.2" x2="162.6" y2="169.2" stroke="#a89888" stroke-width="1" opacity="0.2"/>
<line x1="66.1" y1="251.9" x2="162.6" y2="251.9" stroke="#a89888" stroke-width="1" opacity="0.2"/>
<line x1="66.1" y1="417.1" x2="162.6" y2="417.1" stroke="#a89888" stroke-width="1" opacity="0.2"/>
<line x1="66.1" y1="499.8" x2="162.6" y2="499.8" stroke="#a89888" stroke-width="1" opacity="0.2"/>
<rect x="35.0" y="67.0" width="332.7" height="40.0" rx="6" fill="white" stroke="#b0b0b0" stroke-width="1.0" opacity="0.92"/>
<polygon points="134.8,107.0 142.8,107.0 131.8,115.0" fill="white" stroke="#b0b0b0" stroke-width="0.8"/>
<line x1="134.3" y1="107.0" x2="143.3" y2="107.0" stroke="white" stroke-width="1.5"/>
<text x="41.0" y="84.0" font-size="11.0" fill="#b0b0b0" font-weight="700">SABLE</text>
<text x="41.0" y="98.0" font-size="11.0" fill="#333333">Three targets neutralized. Thresh, status on Charlie.</text>
<rect x="541.2" y="117.0" width="223.8" height="40.0" rx="6" fill="white" stroke="#b22222" stroke-width="1.0" opacity="0.92"/>
<polygon points="608.4,157.0 616.4,157.0 605.4,165.0" fill="white" stroke="#b22222" stroke-width="0.8"/>
<line x1="607.9" y1="157.0" x2="616.9" y2="157.0" stroke="white" stroke-width="1.5"/>
<text x="547.2" y="134.0" font-size="11.0" fill="#b22222" font-weight="700">THRESH</text>
<text x="547.2" y="148.0" font-size="11.0" fill="#333333">Two connections left. Almost there.</text>
<text x="759.0" y="75.0" text-anchor="end" font-size="12" font-weight="bold" fill="#888888" opacity="0.6">1</text>
<text x="765.0" y="604.0" text-anchor="end" font-size="9" fill="#888888" opacity="0.5">DYN</text>
<rect x="29.0" y="620.0" width="240.7" height="551.0" rx="2" fill="#f5f0e8" stroke="#2a2a2a" stroke-width="1.5"/>
<ellipse cx="149.3" cy="851.4" rx="96.3" ry="248.0" fill="#b22222" opacity="0.18"/>
<path d="M48.3,764.6 Q149.3,566.3 250.4,764.6" fill="none" stroke="#b22222" stroke-width="3" opacity="0.35"/>
<line x1="115.6" y1="796.9" x2="144.5" y2="794.9" stroke="#a89888" stroke-width="1.5" opacity="0.45"/>
<line x1="154.1" y1="794.9" x2="183.0" y2="796.9" stroke="#a89888" stroke-width="1.5" opacity="0.45"/>
<ellipse cx="122.4" cy="821.7" rx="11.6" ry="12.4" fill="#a89888" opacity="0.45"/>
<ellipse cx="176.3" cy="821.7" rx="11.6" ry="12.4" fill="#a89888" opacity="0.45"/>
<line x1="149.3" y1="856.4" x2="149.3" y2="896.1" stroke="#a89888" stroke-width="1.2" opacity="0.35"/>
<path d="M143.6,896.1 Q149.3,899.1 155.1,896.1" fill="none" stroke="#a89888" stroke-width="1" opacity="0.3"/>
<line x1="125.3" y1="930.8" x2="173.4" y2="930.8" stroke="#a89888" stroke-width="1.2" opacity="0.35"/>
<rect x="35.0" y="628.0" width="171.5" height="38.0" rx="6" fill="white" stroke="#b22222" stroke-width="1.0" opacity="0.92"/>
<polygon points="86.4,666.0 94.4,666.0 83.4,674.0" fill="white" stroke="#b22222" stroke-width="0.8"/>
<line x1="85.9" y1="666.0" x2="94.9" y2="666.0" stroke="white" stroke-width="1.5"/>
<text x="41.0" y="644.0" font-size="10.0" fill="#b22222" font-weight="700">THRESH</text>
<text x="41.0" y="657.0" font-size="10.0" fill="#333333">Six down. One left. One more.</text>
<text x="257.7" y="636.0" text-anchor="end" font-size="12" font-weight="bold" fill="#888888" opacity="0.6">2</text>
<text x="263.7" y="1165.0" text-anchor="end" font-size="9" fill="#888888" opacity="0.5">CU</text>
<rect x="279.7" y="620.0" width="240.7" height="551.0" rx="2" fill="#f5f0e8" stroke="#2a2a2a" stroke-width="1.5"/>
<ellipse cx="400.0" cy="851.4" rx="96.3" ry="248.0" fill="#c0b8a8" opacity="0.18"/>
<path d="M298.9,764.6 Q400.0,566.3 501.1,764.6" fill="none" stroke="#c0b8a8" stroke-width="3" opacity="0.35"/>
<line x1="366.3" y1="796.9" x2="395.2" y2="794.9" stroke="#a89888" stroke-width="1.5" opacity="0.45"/>
<line x1="404.8" y1="794.9" x2="433.7" y2="796.9" stroke="#a89888" stroke-width="1.5" opacity="0.45"/>
<ellipse cx="373.0" cy="821.7" rx="11.6" ry="12.4" fill="#a89888" opacity="0.45"/>
<ellipse cx="427.0" cy="821.7" rx="11.6" ry="12.4" fill="#a89888" opacity="0.45"/>
<line x1="400.0" y1="856.4" x2="400.0" y2="896.1" stroke="#a89888" stroke-width="1.2" opacity="0.35"/>
<path d="M394.2,896.1 Q400.0,899.1 405.8,896.1" fill="none" stroke="#a89888" stroke-width="1" opacity="0.3"/>
<line x1="375.9" y1="930.8" x2="424.1" y2="930.8" stroke="#a89888" stroke-width="1.2" opacity="0.35"/>
<text x="508.3" y="636.0" text-anchor="end" font-size="12" font-weight="bold" fill="#888888" opacity="0.6">3</text>
<text x="514.3" y="1165.0" text-anchor="end" font-size="9" fill="#888888" opacity="0.5">CU</text>
<rect x="530.3" y="620.0" width="240.7" height="551.0" rx="2" fill="#f5f0e8" stroke="#2a2a2a" stroke-width="1.5"/>
<path d="M604.3,1016.7 L608.6,862.4 Q612.8,858.4 637.9,858.4 L663.5,858.4 Q688.6,858.4 692.8,862.4 L697.0,1016.7 Z" fill="#b22222" opacity="0.35"/>
<line x1="608.6" y1="979.5" x2="692.8" y2="979.5" stroke="#b22222" stroke-width="1" opacity="0.3"/>
<line x1="608.6" y1="862.4" x2="591.7" y2="924.4" stroke="#b22222" stroke-width="2" opacity="0.3"/>
<line x1="591.7" y1="924.4" x2="604.3" y2="961.6" stroke="#b22222" stroke-width="2" opacity="0.3"/>
<line x1="692.8" y1="862.4" x2="709.6" y2="924.4" stroke="#b22222" stroke-width="2" opacity="0.3"/>
<line x1="709.6" y1="924.4" x2="697.0" y2="961.6" stroke="#b22222" stroke-width="2" opacity="0.3"/>
<line x1="650.7" y1="800.8" x2="650.7" y2="858.4" stroke="#b22222" stroke-width="3" opacity="0.35"/>
<circle cx="650.7" cy="768.8" r="32.0" fill="#b22222" opacity="0.4"/>
<rect x="536.3" y="628.0" width="226.5" height="51.0" rx="6" fill="white" stroke="#b22222" stroke-width="1.0" opacity="0.92"/>
<polygon points="604.3,679.0 612.3,679.0 601.3,687.0" fill="white" stroke="#b22222" stroke-width="0.8"/>
<line x1="603.8" y1="679.0" x2="612.8" y2="679.0" stroke="white" stroke-width="1.5"/>
<text x="542.3" y="644.0" font-size="10.0" fill="#b22222" font-weight="700">THRESH</text>
<text x="542.3" y="657.0" font-size="10.0" fill="#333333">Charlie neutralized. I did it. All four</text>
<text x="542.3" y="670.0" font-size="10.0" fill="#333333">down.</text>
<rect x="536.3" y="689.0" width="228.7" height="51.0" rx="6" fill="white" stroke="#b0b0b0" stroke-width="1.0" opacity="0.92"/>
<polygon points="604.9,740.0 612.9,740.0 601.9,748.0" fill="white" stroke="#b0b0b0" stroke-width="0.8"/>
<line x1="604.4" y1="740.0" x2="613.4" y2="740.0" stroke="white" stroke-width="1.5"/>
<text x="542.3" y="705.0" font-size="10.0" fill="#b0b0b0" font-weight="700">SABLE</text>
<text x="542.3" y="718.0" font-size="10.0" fill="#333333">Confirmed. All targets neutralized. Well</text>
<text x="542.3" y="731.0" font-size="10.0" fill="#333333">done, Thresh.</text>
<text x="759.0" y="636.0" text-anchor="end" font-size="12" font-weight="bold" fill="#888888" opacity="0.6">4</text>
<text x="765.0" y="1165.0" text-anchor="end" font-size="9" fill="#888888" opacity="0.5">MED</text>
</svg>