<svg xmlns="http://www.w3.org/2000/svg" viewBox="0 0 800 1200" width="800" height="1200" style="background:#ffffff">
<style>
  text { font-family: "Helvetica Neue", Helvetica, Arial, sans-serif; }
</style>
<text x="400.0" y="22" text-anchor="middle" font-size="16" fill="#888888" font-weight="500">PAGE 4  (5 panels)</text>
<rect x="29.0" y="59.0" width="742.0" height="364.0" rx="2" fill="#f5f0e8" stroke="#2a2a2a" stroke-width="1.5"/>
<path d="M341.4,321.1 L346.8,274.6 Q352.1,270.6 383.8,270.6 L416.2,270.6 Q447.9,270.6 453.2,274.6 L458.6,321.1 Z" fill="#b22222" opacity="0.35"/>
<line x1="346.8" y1="296.5" x2="453.2" y2="296.5" stroke="#b22222" stroke-width="1" opacity="0.3"/>
<line x1="346.8" y1="274.6" x2="325.5" y2="315.5" stroke="#b22222" stroke-width="2" opacity="0.3"/>
<line x1="325.5" y1="315.5" x2="341.4" y2="340.1" stroke="#b22222" stroke-width="2" opacity="0.3"/>
<line x1="453.2" y1="274.6" x2="474.5" y2="315.5" stroke="#b22222" stroke-width="2" opacity="0.3"/>
<line x1="474.5" y1="315.5" x2="458.6" y2="340.1" stroke="#b22222" stroke-width="2" opacity="0.3"/>
<line x1="400.0" y1="197.7" x2="400.0" y2="270.6" stroke="#b22222" stroke-width="3" opacity="0.35"/>
<circle cx="400.0" cy="157.3" r="40.5" fill="#b22222" opacity="0.4"/>
<rect x="35.0" y="67.0" width="223.8" height="40.0" rx="6" fill="white" stroke="#b22222" stroke-width="1.0" opacity="0.92"/>
<polygon points="102.1,107.0 110.1,107.0 99.1,115.0" fill="white" stroke="#b22222" stroke-width="0.8"/>
<line x1="101.6" y1="107.0" x2="110.6" y2="107.0" stroke="white" stroke-width="1.5"/>
<text x="41.0" y="84.0" font-size="11.0" fill="#b22222" font-weight="700">THRESH</text>
<text x="41.0" y="98.0" font-size="11.0" fill="#333333">Advancing. Twenty meters to device.</text>
<text x="759.0" y="75.0" text-anchor="end" font-size="12" font-weight="bold" fill="#888888" opacity="0.6">1</text>
<text x="765.0" y="417.0" text-anchor="end" font-size="9" fill="#888888" opacity="0.5">MW</text>
<rect x="29.0" y="433.0" width="366.0" height="364.0" rx="2" fill="#f5f0e8" stroke="#2a2a2a" stroke-width="1.5"/>
<ellipse cx="212.0" cy="585.9" rx="114.7" ry="163.8" fill="#b0b0b0" opacity="0.18"/>
<path d="M91.6,528.5 Q212.0,397.5 332.4,528.5" fill="none" stroke="#b0b0b0" stroke-width="3" opacity="0.35"/>
<line x1="171.9" y1="549.8" x2="206.3" y2="547.8" stroke="#a89888" stroke-width="1.5" opacity="0.45"/>
<line x1="217.7" y1="547.8" x2="252.1" y2="549.8" stroke="#a89888" stroke-width="1.5" opacity="0.45"/>
<ellipse cx="179.9" cy="566.2" rx="13.8" ry="8.2" fill="#a89888" opacity="0.45"/>
<ellipse cx="244.1" cy="566.2" rx="13.8" ry="8.2" fill="#a89888" opacity="0.45"/>
<line x1="212.0" y1="589.2" x2="212.0" y2="615.4" stroke="#a89888" stroke-width="1.2" opacity="0.35"/>
<path d="M205.1,615.4 Q212.0,618.4 218.9,615.4" fill="none" stroke="#a89888" stroke-width="1" opacity="0.3"/>
<line x1="183.3" y1="638.3" x2="240.7" y2="638.3" stroke="#a89888" stroke-width="1.2" opacity="0.35"/>
<rect x="35.0" y="441.0" width="344.8" height="54.0" rx="6" fill="white" stroke="#b0b0b0" stroke-width="1.0" opacity="0.92"/>
<polygon points="138.4,495.0 146.4,495.0 135.4,503.0" fill="white" stroke="#b0b0b0" stroke-width="0.8"/>
<line x1="137.9" y1="495.0" x2="146.9" y2="495.0" stroke="white" stroke-width="1.5"/>
<text x="41.0" y="458.0" font-size="11.0" fill="#b0b0b0" font-weight="700">SABLE</text>
<text x="41.0" y="472.0" font-size="11.0" fill="#333333">Alpha neutralized. Bravo in progress. Charlie and Delta</text>
<text x="41.0" y="486.0" font-size="11.0" fill="#333333">pending. On schedule.</text>
<text x="383.0" y="449.0" text-anchor="end" font-size="12" font-weight="bold" fill="#888888" opacity="0.6">2</text>
<text x="389.0" y="791.0" text-anchor="end" font-size="9" fill="#888888" opacity="0.5">CU</text>
<rect x="405.0" y="433.0" width="366.0" height="364.0" rx="2" fill="#f5f0e8" stroke="#2a2a2a" stroke-width="1.5"/>
<path d="M529.4,695.1 L534.8,648.6 Q540.1,644.6 571.8,644.6 L604.2,644.6 Q635.9,644.6 641.2,648.6 L646.6,695.1 Z" fill="#c87533" opacity="0.35"/>
<line x1="534.8" y1="670.5" x2="641.2" y2="670.5" stroke="#c87533" stroke-width="1" opacity="0.3"/>
<line x1="534.8" y1="648.6" x2="513.5" y2="689.5" stroke="#c87533" stroke-width="2" opacity="0.3"/>
<line x1="513.5" y1="689.5" x2="529.4" y2="714.1" stroke="#c87533" stroke-width="2" opacity="0.3"/>
<line x1="641.2" y1="648.6" x2="662.5" y2="689.5" stroke="#c87533" stroke-width="2" opacity="0.3"/>
<line x1="662.5" y1="689.5" x2="646.6" y2="714.1" stroke="#c87533" stroke-width="2" opacity="0.3"/>
<line x1="588.0" y1="571.7" x2="588.0" y2="644.6" stroke="#c87533" stroke-width="3" opacity="0.35"/>
<circle cx="588.0" cy="531.3" r="40.5" fill="#c87533" opacity="0.4"/>
<rect x="411.0" y="441.0" width="354.0" height="54.0" rx="6" fill="white" stroke="#c87533" stroke-width="1.0" opacity="0.92"/>
<polygon points="517.2,495.0 525.2,495.0 514.2,503.0" fill="white" stroke="#c87533" stroke-width="0.8"/>
<line x1="516.7" y1="495.0" x2="525.7" y2="495.0" stroke="white" stroke-width="1.5"/>
<text x="417.0" y="458.0" font-size="11.0" fill="#c87533" font-weight="700">WREN</text>
<text x="417.0" y="472.0" font-size="11.0" fill="#333333">Station Bravo neutralized. Device extracted intact — might</text>
<text x="417.0" y="486.0" font-size="11.0" fill="#333333">learn something from this one. Two down.</text>
<text x="759.0" y="449.0" text-anchor="end" font-size="12" font-weight="bold" fill="#888888" opacity="0.6">3</text>
<text x="765.0" y="791.0" text-anchor="end" font-size="9" fill="#888888" opacity="0.5">MED</text>
<rect x="29.0" y="807.0" width="238.2" height="364.0" rx="2" fill="#f5f0e8" stroke="#2a2a2a" stroke-width="1.5"/>
<ellipse cx="148.1" cy="959.9" rx="95.3" ry="163.8" fill="#b22222" opacity="0.18"/>
<path d="M48.1,902.5 Q148.1,771.5 248.1,902.5" fill="none" stroke="#b22222" stroke-width="3" opacity="0.35"/>
<line x1="114.7" y1="923.8" x2="143.3" y2="921.8" stroke="#a89888" stroke-width="1.5" opacity="0.45"/>
<line x1="152.8" y1="921.8" x2="181.4" y2="923.8" stroke="#a89888" stroke-width="1.5" opacity="0.45"/>
<ellipse cx="121.4" cy="940.2" rx="11.4" ry="8.2" fill="#a89888" opacity="0.45"/>
<ellipse cx="174.8" cy="940.2" rx="11.4" ry="8.2" fill="#a89888" opacity="0.45"/>
<line x1="148.1" y1="963.2" x2="148.1" y2="989.4" stroke="#a89888" stroke-width="1.2" opacity="0.35"/>
<path d="M142.4,989.4 Q148.1,992.4 153.8,989.4" fill="none" stroke="#a89888" stroke-width="1" opacity="0.3"/>
<line x1="124.3" y1="1012.3" x2="171.9" y2="1012.3" stroke="#a89888" stroke-width="1.2" opacity="0.35"/>
<rect x="35.0" y="815.0" width="210.0" height="51.0" rx="6" fill="white" stroke="#b22222" stroke-width="1.0" opacity="0.92"/>
<polygon points="98.0,866.0 106.0,866.0 95.0,874.0" fill="white" stroke="#b22222" stroke-width="0.8"/>
<line x1="97.5" y1="866.0" x2="106.5" y2="866.0" stroke="white" stroke-width="1.5"/>
<text x="41.0" y="831.0" font-size="10.0" fill="#b22222" font-weight="700">THRESH</text>
<text x="41.0" y="844.0" font-size="10.0" fill="#333333">Soldier at device Charlie. I'm here.</text>
<text x="41.0" y="857.0" font-size="10.0" fill="#333333">Starting disarm.</text>
<text x="255.2" y="823.0" text-anchor="end" font-size="12" font-weight="bold" fill="#888888" opacity="0.6">4</text>
<text x="261.2" y="1165.0" text-anchor="end" font-size="9" fill="#888888" opacity="0.5">CU</text>
<rect x="277.2" y="807.0" width="493.8" height="364.0" rx="2" fill="#f5f0e8" stroke="#2a2a2a" stroke-width="1.5"/>
<path d="M465.5,1069.1 L470.8,1022.6 Q476.2,1018.6 507.9,1018.6 L540.3,1018.6 Q572.0,1018.6 577.3,1022.6 L582.6,1069.1 Z" fill="#b22222" opacity="0.35"/>
<line x1="470.8" y1="1044.5" x2="577.3" y2="1044.5" stroke="#b22222" stroke-width="1" opacity="0.3"/>
<line x1="470.8" y1="1022.6" x2="449.6" y2="1063.5" stroke="#b22222" stroke-width="2" opacity="0.3"/>
<line x1="449.6" y1="1063.5" x2="465.5" y2="1088.1" stroke="#b22222" stroke-width="2" opacity="0.3"/>
<line x1="577.3" y1="1022.6" x2="598.6" y2="1063.5" stroke="#b22222" stroke-width="2" opacity="0.3"/>
<line x1="598.6" y1="1063.5" x2="582.6" y2="1088.1" stroke="#b22222" stroke-width="2" opacity="0.3"/>
<line x1="524.1" y1="945.7" x2="524.1" y2="1018.6" stroke="#b22222" stroke-width="3" opacity="0.35"/>
<circle cx="524.1" cy="905.3" r="40.5" fill="#b22222" opacity="0.4"/>
<rect x="283.2" y="815.0" width="356.9" height="40.0" rx="6" fill="white" stroke="#b22222" stroke-width="1.0" opacity="0.92"/>
<polygon points="390.2,855.0 398.2,855.0 387.2,863.0" fill="white" stroke="#b22222" stroke-width="0.8"/>
<line x1="389.7" y1="855.0" x2="398.7" y2="855.0" stroke="white" stroke-width="1.5"/>
<text x="289.2" y="832.0" font-size="11.0" fill="#b22222" font-weight="700">THRESH</text>
<text x="289.2" y="846.0" font-size="11.0" fill="#333333">Three connections down. Four to go. My hands are shaking.</text>
<rect x="420.2" y="865.0" width="344.8" height="40.0" rx="6" fill="white" stroke="#c87533" stroke-width="1.0" opacity="0.92"/>
<polygon points="523.7,905.0 531.7,905.0 520.7,913.0" fill="white" stroke="#c87533" stroke-width="0.8"/>
<line x1="523.2" y1="905.0" x2="532.2" y2="905.0" stroke="white" stroke-width="1.5"/>
<text x="426.2" y="882.0" font-size="11.0" fill="#c87533" font-weight="700">WREN</text>
<text x="426.2" y="896.0" font-size="11.0" fill="#333333">Doesn't matter. Slow and complete. You've trained this.</text>
<text x="759.0" y="823.0" text-anchor="end" font-size="12" font-weight="bold" fill="#888888" opacity="0.6">5</text>
<text x="765.0" y="1165.0" text-anchor="end" font-size="9" fill="#888888" opacity="0.5">MW</text>
</svg>