<svg xmlns="http://www.w3.org/2000/svg" viewBox="0 0 800 1200" width="800" height="1200" style="background:#ffffff">
<style>
  text { font-family: "Helvetica Neue", Helvetica, Arial, sans-serif; }
</style>
<text x="400.0" y="22" text-anchor="middle" font-size="16" fill="#888888" font-weight="500">PAGE 1  (6 panels)</text>
<rect x="29.0" y="59.0" width="742.0" height="364.0" rx="2" fill="#f5f0e8" stroke="#2a2a2a" stroke-width="1.5"/>
<line x1="35.0" y1="342.9" x2="765.0" y2="342.9" stroke="#a89888" stroke-width="1.0" opacity="0.5"/>
<ellipse cx="400.0" cy="344.9" rx="11.2" ry="2.7" fill="#a89888" opacity="0.2"/>
<line x1="397.3" y1="327.2" x2="393.2" y2="342.9" stroke="#b0b0b0" stroke-width="2" opacity="0.5"/>
<line x1="402.7" y1="327.2" x2="406.8" y2="342.9" stroke="#b0b0b0" stroke-width="2" opacity="0.5"/>
<line x1="400.0" y1="314.1" x2="400.0" y2="327.2" stroke="#b0b0b0" stroke-width="2.5" opacity="0.6"/>
<line x1="386.5" y1="316.1" x2="413.5" y2="316.1" stroke="#b0b0b0" stroke-width="2" opacity="0.5"/>
<line x1="386.5" y1="316.1" x2="382.0" y2="327.6" stroke="#b0b0b0" stroke-width="1.5" opacity="0.4"/>
<line x1="413.5" y1="316.1" x2="418.0" y2="327.6" stroke="#b0b0b0" stroke-width="1.5" opacity="0.4"/>
<circle cx="400.0" cy="297.9" r="8.1" fill="#b0b0b0" opacity="0.6"/>
<rect x="35.0" y="67.0" width="163.2" height="40.0" rx="2" fill="#f5ecd8" stroke="#c8b898" stroke-width="0.8" opacity="0.92"/>
<text x="41.0" y="84.0" font-size="11.0" fill="#5a4a30" font-style="italic" font-weight="500">CAPTION</text>
<text x="41.0" y="98.0" font-size="11.0" fill="#5a4a30" font-style="italic">Dawn. Operation commence.</text>
<rect x="35.0" y="111.0" width="320.6" height="40.0" rx="6" fill="white" stroke="#b0b0b0" stroke-width="1.0" opacity="0.92"/>
<polygon points="131.2,151.0 139.2,151.0 128.2,159.0" fill="white" stroke="#b0b0b0" stroke-width="0.8"/>
<line x1="130.7" y1="151.0" x2="139.7" y2="151.0" stroke="white" stroke-width="1.5"/>
<text x="41.0" y="128.0" font-size="11.0" fill="#b0b0b0" font-weight="700">SABLE</text>
<text x="41.0" y="142.0" font-size="11.0" fill="#333333">All positions, this is Command. Confirm deployment.</text>
<text x="759.0" y="75.0" text-anchor="end" font-size="12" font-weight="bold" fill="#888888" opacity="0.6">1</text>
<text x="765.0" y="417.0" text-anchor="end" font-size="9" fill="#888888" opacity="0.5">EST</text>
<rect x="29.0" y="433.0" width="240.7" height="364.0" rx="2" fill="#f5f0e8" stroke="#2a2a2a" stroke-width="1.5"/>
<path d="M80.0,665.2 Q80.0,630.6 132.0,626.3 L166.7,626.3 Q218.6,630.6 218.6,665.2 L218.6,753.3 L80.0,753.3 Z" fill="#2e8b57" opacity="0.25"/>
<path d="M134.2,626.3 L149.3,647.9 L164.5,626.3" fill="none" stroke="#2e8b57" stroke-width="1" opacity="0.3"/>
<circle cx="149.3" cy="578.6" r="43.3" fill="#2e8b57" opacity="0.35"/>
<path d="M106.0,587.3 Q112.5,626.3 149.3,628.4 Q186.2,626.3 192.7,587.3" fill="none" stroke="#2e8b57" stroke-width="1.2" opacity="0.3"/>
<path d="M103.8,574.3 Q149.3,522.3 194.8,574.3" fill="none" stroke="#2e8b57" stroke-width="2" opacity="0.4"/>
<ellipse cx="104.0" cy="580.8" rx="2.5" ry="4" fill="#2e8b57" opacity="0.25"/>
<ellipse cx="194.7" cy="580.8" rx="2.5" ry="4" fill="#2e8b57" opacity="0.25"/>
<rect x="35.0" y="441.0" width="215.5" height="51.0" rx="6" fill="white" stroke="#2e8b57" stroke-width="1.0" opacity="0.92"/>
<polygon points="99.7,492.0 107.7,492.0 96.7,500.0" fill="white" stroke="#2e8b57" stroke-width="0.8"/>
<line x1="99.2" y1="492.0" x2="108.2" y2="492.0" stroke="white" stroke-width="1.5"/>
<text x="41.0" y="457.0" font-size="10.0" fill="#2e8b57" font-weight="700">JINK</text>
<text x="41.0" y="470.0" font-size="10.0" fill="#333333">Scout, airborne. En route to Junction</text>
<text x="41.0" y="483.0" font-size="10.0" fill="#333333">Alpha.</text>
<text x="257.7" y="449.0" text-anchor="end" font-size="12" font-weight="bold" fill="#888888" opacity="0.6">2</text>
<text x="263.7" y="791.0" text-anchor="end" font-size="9" fill="#888888" opacity="0.5">MCU</text>
<rect x="279.7" y="433.0" width="240.7" height="364.0" rx="2" fill="#f5f0e8" stroke="#2a2a2a" stroke-width="1.5"/>
<path d="M353.7,695.1 L357.9,624.9 Q362.1,620.9 387.2,620.9 L412.8,620.9 Q437.9,620.9 442.1,624.9 L446.3,695.1 Z" fill="#c87533" opacity="0.35"/>
<line x1="357.9" y1="670.5" x2="442.1" y2="670.5" stroke="#c87533" stroke-width="1" opacity="0.3"/>
<line x1="357.9" y1="624.9" x2="341.0" y2="665.9" stroke="#c87533" stroke-width="2" opacity="0.3"/>
<line x1="341.0" y1="665.9" x2="353.7" y2="690.4" stroke="#c87533" stroke-width="2" opacity="0.3"/>
<line x1="442.1" y1="624.9" x2="459.0" y2="665.9" stroke="#c87533" stroke-width="2" opacity="0.3"/>
<line x1="459.0" y1="665.9" x2="446.3" y2="690.4" stroke="#c87533" stroke-width="2" opacity="0.3"/>
<line x1="400.0" y1="563.3" x2="400.0" y2="620.9" stroke="#c87533" stroke-width="3" opacity="0.35"/>
<circle cx="400.0" cy="531.3" r="32.0" fill="#c87533" opacity="0.4"/>
<rect x="285.7" y="441.0" width="228.7" height="51.0" rx="6" fill="white" stroke="#c87533" stroke-width="1.0" opacity="0.92"/>
<polygon points="354.3,492.0 362.3,492.0 351.3,500.0" fill="white" stroke="#c87533" stroke-width="0.8"/>
<line x1="353.8" y1="492.0" x2="362.8" y2="492.0" stroke="white" stroke-width="1.5"/>
<text x="291.7" y="457.0" font-size="10.0" fill="#c87533" font-weight="700">WREN</text>
<text x="291.7" y="470.0" font-size="10.0" fill="#333333">Engineer, approaching Station Bravo. Two</text>
<text x="291.7" y="483.0" font-size="10.0" fill="#333333">minutes to entry.</text>
<text x="508.3" y="449.0" text-anchor="end" font-size="12" font-weight="bold" fill="#888888" opacity="0.6">3</text>
<text x="514.3" y="791.0" text-anchor="end" font-size="9" fill="#888888" opacity="0.5">MED</text>
<rect x="530.3" y="433.0" width="240.7" height="364.0" rx="2" fill="#f5f0e8" stroke="#2a2a2a" stroke-width="1.5"/>
<path d="M604.3,695.1 L608.6,624.9 Q612.8,620.9 637.9,620.9 L663.5,620.9 Q688.6,620.9 692.8,624.9 L697.0,695.1 Z" fill="#b22222" opacity="0.35"/>
<line x1="608.6" y1="670.5" x2="692.8" y2="670.5" stroke="#b22222" stroke-width="1" opacity="0.3"/>
<line x1="608.6" y1="624.9" x2="591.7" y2="665.9" stroke="#b22222" stroke-width="2" opacity="0.3"/>
<line x1="591.7" y1="665.9" x2="604.3" y2="690.4" stroke="#b22222" stroke-width="2" opacity="0.3"/>
<line x1="692.8" y1="624.9" x2="709.6" y2="665.9" stroke="#b22222" stroke-width="2" opacity="0.3"/>
<line x1="709.6" y1="665.9" x2="697.0" y2="690.4" stroke="#b22222" stroke-width="2" opacity="0.3"/>
<line x1="650.7" y1="563.3" x2="650.7" y2="620.9" stroke="#b22222" stroke-width="3" opacity="0.35"/>
<circle cx="650.7" cy="531.3" r="32.0" fill="#b22222" opacity="0.4"/>
<rect x="536.3" y="441.0" width="228.7" height="51.0" rx="6" fill="white" stroke="#b22222" stroke-width="1.0" opacity="0.92"/>
<polygon points="604.9,492.0 612.9,492.0 601.9,500.0" fill="white" stroke="#b22222" stroke-width="0.8"/>
<line x1="604.4" y1="492.0" x2="613.4" y2="492.0" stroke="white" stroke-width="1.5"/>
<text x="542.3" y="457.0" font-size="10.0" fill="#b22222" font-weight="700">THRESH</text>
<text x="542.3" y="470.0" font-size="10.0" fill="#333333">Soldier, entering Basement Charlie. It's</text>
<text x="542.3" y="483.0" font-size="10.0" fill="#333333">dark down here.</text>
<text x="759.0" y="449.0" text-anchor="end" font-size="12" font-weight="bold" fill="#888888" opacity="0.6">4</text>
<text x="765.0" y="791.0" text-anchor="end" font-size="9" fill="#888888" opacity="0.5">MED</text>
<rect x="29.0" y="807.0" width="493.8" height="364.0" rx="2" fill="#f5f0e8" stroke="#2a2a2a" stroke-width="1.5"/>
<line x1="35.0" y1="1090.9" x2="516.8" y2="1090.9" stroke="#a89888" stroke-width="1.0" opacity="0.5"/>
<ellipse cx="275.9" cy="1092.9" rx="11.2" ry="2.7" fill="#a89888" opacity="0.2"/>
<line x1="273.2" y1="1075.2" x2="269.2" y2="1090.9" stroke="#b0b0b0" stroke-width="2" opacity="0.5"/>
<line x1="278.6" y1="1075.2" x2="282.7" y2="1090.9" stroke="#b0b0b0" stroke-width="2" opacity="0.5"/>
<line x1="275.9" y1="1062.1" x2="275.9" y2="1075.2" stroke="#b0b0b0" stroke-width="2.5" opacity="0.6"/>
<line x1="262.4" y1="1064.1" x2="289.4" y2="1064.1" stroke="#b0b0b0" stroke-width="2" opacity="0.5"/>
<line x1="262.4" y1="1064.1" x2="257.9" y2="1075.6" stroke="#b0b0b0" stroke-width="1.5" opacity="0.4"/>
<line x1="289.4" y1="1064.1" x2="293.9" y2="1075.6" stroke="#b0b0b0" stroke-width="1.5" opacity="0.4"/>
<circle cx="275.9" cy="1045.9" r="8.1" fill="#b0b0b0" opacity="0.6"/>
<rect x="35.0" y="815.0" width="441.6" height="40.0" rx="6" fill="white" stroke="#b0b0b0" stroke-width="1.0" opacity="0.92"/>
<polygon points="167.5,855.0 175.5,855.0 164.5,863.0" fill="white" stroke="#b0b0b0" stroke-width="0.8"/>
<line x1="167.0" y1="855.0" x2="176.0" y2="855.0" stroke="white" stroke-width="1.5"/>
<text x="41.0" y="832.0" font-size="11.0" fill="#b0b0b0" font-weight="700">SABLE</text>
<text x="41.0" y="846.0" font-size="11.0" fill="#333333">Command in position. Steeple Delta. I have tactical. All teams proceed.</text>
<text x="510.8" y="823.0" text-anchor="end" font-size="12" font-weight="bold" fill="#888888" opacity="0.6">5</text>
<text x="516.8" y="1165.0" text-anchor="end" font-size="9" fill="#888888" opacity="0.5">WIDE</text>
<rect x="532.8" y="807.0" width="238.2" height="364.0" rx="2" fill="#f5f0e8" stroke="#2a2a2a" stroke-width="1.5"/>
<path d="M606.1,1069.1 L610.2,998.0 Q614.4,994.0 639.2,994.0 L664.6,994.0 Q689.4,994.0 693.6,998.0 L697.8,1069.1 Z" fill="#c49a6c" opacity="0.35"/>
<line x1="610.2" y1="1044.5" x2="693.6" y2="1044.5" stroke="#c49a6c" stroke-width="1" opacity="0.3"/>
<line x1="610.2" y1="998.0" x2="593.6" y2="1038.9" stroke="#c49a6c" stroke-width="2" opacity="0.3"/>
<line x1="593.6" y1="1038.9" x2="606.1" y2="1063.5" stroke="#c49a6c" stroke-width="2" opacity="0.3"/>
<line x1="693.6" y1="998.0" x2="710.3" y2="1038.9" stroke="#c49a6c" stroke-width="2" opacity="0.3"/>
<line x1="710.3" y1="1038.9" x2="697.8" y2="1063.5" stroke="#c49a6c" stroke-width="2" opacity="0.3"/>
<line x1="651.9" y1="937.0" x2="651.9" y2="994.0" stroke="#c49a6c" stroke-width="3" opacity="0.35"/>
<circle cx="651.9" cy="905.3" r="31.7" fill="#c49a6c" opacity="0.4"/>
<rect x="538.8" y="815.0" width="215.5" height="38.0" rx="6" fill="white" stroke="#c49a6c" stroke-width="1.0" opacity="0.92"/>
<polygon points="603.5,853.0 611.5,853.0 600.5,861.0" fill="white" stroke="#c49a6c" stroke-width="0.8"/>
<line x1="603.0" y1="853.0" x2="612.0" y2="853.0" stroke="white" stroke-width="1.5"/>
<text x="544.8" y="831.0" font-size="10.0" fill="#c49a6c" font-weight="700">THEODORE</text>
<text x="544.8" y="844.0" font-size="10.0" fill="#333333">Theodore, moving. I know where to go.</text>
<text x="759.0" y="823.0" text-anchor="end" font-size="12" font-weight="bold" fill="#888888" opacity="0.6">6</text>
<text x="765.0" y="1165.0" text-anchor="end" font-size="9" fill="#888888" opacity="0.5">MED</text>
</svg>