<svg xmlns="http://www.w3.org/2000/svg" viewBox="0 0 800 1200" width="800" height="1200" style="background:#ffffff">
<style>
  text { font-family: "Helvetica Neue", Helvetica, Arial, sans-serif; }
</style>
<text x="400.0" y="22" text-anchor="middle" font-size="16" fill="#888888" font-weight="500">PAGE 2  (4 panels)</text>
<rect x="29.0" y="59.0" width="742.0" height="551.0" rx="2" fill="#f5f0e8" stroke="#2a2a2a" stroke-width="1.5"/>
<line x1="37.0" y1="251.8" x2="763.0" y2="251.8" stroke="#a89888" stroke-width="0.6" opacity="0.2"/>
<line x1="400.0" y1="251.8" x2="103.2" y2="554.9" stroke="#a89888" stroke-width="0.8" opacity="0.25"/>
<line x1="400.0" y1="251.8" x2="251.6" y2="554.9" stroke="#a89888" stroke-width="0.8" opacity="0.25"/>
<line x1="400.0" y1="251.8" x2="348.1" y2="554.9" stroke="#a89888" stroke-width="0.8" opacity="0.25"/>
<line x1="400.0" y1="251.8" x2="451.9" y2="554.9" stroke="#a89888" stroke-width="0.8" opacity="0.25"/>
<line x1="400.0" y1="251.8" x2="548.4" y2="554.9" stroke="#a89888" stroke-width="0.8" opacity="0.25"/>
<line x1="400.0" y1="251.8" x2="696.8" y2="554.9" stroke="#a89888" stroke-width="0.8" opacity="0.25"/>
<circle cx="400.0" cy="251.8" r="3" fill="#a89888" opacity="0.3"/>
<rect x="35.0" y="67.0" width="344.8" height="40.0" rx="6" fill="white" stroke="#2e8b57" stroke-width="1.0" opacity="0.92"/>
<polygon points="138.4,107.0 146.4,107.0 135.4,115.0" fill="white" stroke="#2e8b57" stroke-width="0.8"/>
<line x1="137.9" y1="107.0" x2="146.9" y2="107.0" stroke="white" stroke-width="1.5"/>
<text x="41.0" y="84.0" font-size="11.0" fill="#2e8b57" font-weight="700">JINK</text>
<text x="41.0" y="98.0" font-size="11.0" fill="#333333">Visual on Junction Alpha. I see the device. Ugly thing.</text>
<rect x="468.6" y="117.0" width="296.4" height="40.0" rx="6" fill="white" stroke="#b0b0b0" stroke-width="1.0" opacity="0.92"/>
<polygon points="557.6,157.0 565.6,157.0 554.6,165.0" fill="white" stroke="#b0b0b0" stroke-width="0.8"/>
<line x1="557.1" y1="157.0" x2="566.1" y2="157.0" stroke="white" stroke-width="1.5"/>
<text x="474.6" y="134.0" font-size="11.0" fill="#b0b0b0" font-weight="700">SABLE</text>
<text x="474.6" y="148.0" font-size="11.0" fill="#333333">Confirmed. Hold approach until synchronization.</text>
<text x="759.0" y="75.0" text-anchor="end" font-size="12" font-weight="bold" fill="#888888" opacity="0.6">1</text>
<text x="765.0" y="604.0" text-anchor="end" font-size="9" fill="#888888" opacity="0.5">POV</text>
<rect x="29.0" y="620.0" width="240.7" height="551.0" rx="2" fill="#f5f0e8" stroke="#2a2a2a" stroke-width="1.5"/>
<ellipse cx="149.3" cy="851.4" rx="96.3" ry="248.0" fill="#b0b0b0" opacity="0.18"/>
<path d="M48.3,764.6 Q149.3,566.3 250.4,764.6" fill="none" stroke="#b0b0b0" stroke-width="3" opacity="0.35"/>
<line x1="115.6" y1="796.9" x2="144.5" y2="794.9" stroke="#a89888" stroke-width="1.5" opacity="0.45"/>
<line x1="154.1" y1="794.9" x2="183.0" y2="796.9" stroke="#a89888" stroke-width="1.5" opacity="0.45"/>
<ellipse cx="122.4" cy="821.7" rx="11.6" ry="12.4" fill="#a89888" opacity="0.45"/>
<ellipse cx="176.3" cy="821.7" rx="11.6" ry="12.4" fill="#a89888" opacity="0.45"/>
<line x1="149.3" y1="856.4" x2="149.3" y2="896.1" stroke="#a89888" stroke-width="1.2" opacity="0.35"/>
<path d="M143.6,896.1 Q149.3,899.1 155.1,896.1" fill="none" stroke="#a89888" stroke-width="1" opacity="0.3"/>
<line x1="125.3" y1="930.8" x2="173.4" y2="930.8" stroke="#a89888" stroke-width="1.2" opacity="0.35"/>
<rect x="35.0" y="628.0" width="204.5" height="64.0" rx="6" fill="white" stroke="#b0b0b0" stroke-width="1.0" opacity="0.92"/>
<polygon points="96.4,692.0 104.4,692.0 93.4,700.0" fill="white" stroke="#b0b0b0" stroke-width="0.8"/>
<line x1="95.9" y1="692.0" x2="104.9" y2="692.0" stroke="white" stroke-width="1.5"/>
<text x="41.0" y="644.0" font-size="10.0" fill="#b0b0b0" font-weight="700">SABLE</text>
<text x="41.0" y="657.0" font-size="10.0" fill="#333333">Synchronization window opens in six</text>
<text x="41.0" y="670.0" font-size="10.0" fill="#333333">minutes. All teams hold positions.</text>
<text x="41.0" y="683.0" font-size="10.0" fill="#333333">Neutralize on my mark.</text>
<rect x="35.0" y="702.0" width="228.7" height="38.0" rx="6" fill="white" stroke="#6a5acd" stroke-width="1.0" opacity="0.92"/>
<polygon points="103.6,740.0 111.6,740.0 100.6,748.0" fill="white" stroke="#6a5acd" stroke-width="0.8"/>
<line x1="103.1" y1="740.0" x2="112.1" y2="740.0" stroke="white" stroke-width="1.5"/>
<text x="41.0" y="718.0" font-size="10.0" fill="#6a5acd" font-weight="700">LUMA</text>
<text x="41.0" y="731.0" font-size="10.0" fill="#333333">Medic confirms. Monitoring all channels.</text>
<text x="257.7" y="636.0" text-anchor="end" font-size="12" font-weight="bold" fill="#888888" opacity="0.6">2</text>
<text x="263.7" y="1165.0" text-anchor="end" font-size="9" fill="#888888" opacity="0.5">CU</text>
<rect x="279.7" y="620.0" width="240.7" height="551.0" rx="2" fill="#f5f0e8" stroke="#2a2a2a" stroke-width="1.5"/>
<path d="M330.7,927.0 Q330.7,892.4 382.7,888.1 L417.3,888.1 Q469.3,892.4 469.3,927.0 L469.3,1104.9 L330.7,1104.9 Z" fill="#6a5acd" opacity="0.25"/>
<path d="M384.8,888.1 L400.0,909.7 L415.2,888.1" fill="none" stroke="#6a5acd" stroke-width="1" opacity="0.3"/>
<circle cx="400.0" cy="840.4" r="43.3" fill="#6a5acd" opacity="0.35"/>
<path d="M356.7,849.1 Q363.2,888.1 400.0,890.2 Q436.8,888.1 443.3,849.1" fill="none" stroke="#6a5acd" stroke-width="1.2" opacity="0.3"/>
<path d="M354.5,836.1 Q400.0,784.1 445.5,836.1" fill="none" stroke="#6a5acd" stroke-width="2" opacity="0.4"/>
<ellipse cx="354.7" cy="842.6" rx="2.5" ry="4" fill="#6a5acd" opacity="0.25"/>
<ellipse cx="445.3" cy="842.6" rx="2.5" ry="4" fill="#6a5acd" opacity="0.25"/>
<rect x="285.7" y="628.0" width="221.0" height="51.0" rx="6" fill="white" stroke="#6a5acd" stroke-width="1.0" opacity="0.92"/>
<polygon points="352.0,679.0 360.0,679.0 349.0,687.0" fill="white" stroke="#6a5acd" stroke-width="0.8"/>
<line x1="351.5" y1="679.0" x2="360.5" y2="679.0" stroke="white" stroke-width="1.5"/>
<text x="291.7" y="644.0" font-size="10.0" fill="#6a5acd" font-weight="700">LUMA</text>
<text x="291.7" y="657.0" font-size="10.0" fill="#333333">All vitals nominal. Thresh, your heart</text>
<text x="291.7" y="670.0" font-size="10.0" fill="#333333">rate is elevated.</text>
<rect x="452.3" y="689.0" width="62.0" height="38.0" rx="6" fill="white" stroke="#b22222" stroke-width="1.0" opacity="0.92"/>
<polygon points="470.9,727.0 478.9,727.0 467.9,735.0" fill="white" stroke="#b22222" stroke-width="0.8"/>
<line x1="470.4" y1="727.0" x2="479.4" y2="727.0" stroke="white" stroke-width="1.5"/>
<text x="458.3" y="705.0" font-size="10.0" fill="#b22222" font-weight="700">THRESH</text>
<text x="458.3" y="718.0" font-size="10.0" fill="#333333">I know.</text>
<text x="508.3" y="636.0" text-anchor="end" font-size="12" font-weight="bold" fill="#888888" opacity="0.6">3</text>
<text x="514.3" y="1165.0" text-anchor="end" font-size="9" fill="#888888" opacity="0.5">MCU</text>
<rect x="530.3" y="620.0" width="240.7" height="551.0" rx="2" fill="#f5f0e8" stroke="#2a2a2a" stroke-width="1.5"/>
<ellipse cx="650.7" cy="851.4" rx="96.3" ry="248.0" fill="#c49a6c" opacity="0.18"/>
<path d="M549.6,764.6 Q650.7,566.3 751.7,764.6" fill="none" stroke="#c49a6c" stroke-width="3" opacity="0.35"/>
<line x1="617.0" y1="796.9" x2="645.9" y2="794.9" stroke="#a89888" stroke-width="1.5" opacity="0.45"/>
<line x1="655.5" y1="794.9" x2="684.4" y2="796.9" stroke="#a89888" stroke-width="1.5" opacity="0.45"/>
<ellipse cx="623.7" cy="821.7" rx="11.6" ry="12.4" fill="#a89888" opacity="0.45"/>
<ellipse cx="677.6" cy="821.7" rx="11.6" ry="12.4" fill="#a89888" opacity="0.45"/>
<line x1="650.7" y1="856.4" x2="650.7" y2="896.1" stroke="#a89888" stroke-width="1.2" opacity="0.35"/>
<path d="M644.9,896.1 Q650.7,899.1 656.4,896.1" fill="none" stroke="#a89888" stroke-width="1" opacity="0.3"/>
<line x1="626.6" y1="930.8" x2="674.7" y2="930.8" stroke="#a89888" stroke-width="1.2" opacity="0.35"/>
<rect x="536.3" y="628.0" width="221.0" height="51.0" rx="6" fill="white" stroke="#c49a6c" stroke-width="1.0" opacity="0.92"/>
<polygon points="602.6,679.0 610.6,679.0 599.6,687.0" fill="white" stroke="#c49a6c" stroke-width="0.8"/>
<line x1="602.1" y1="679.0" x2="611.1" y2="679.0" stroke="white" stroke-width="1.5"/>
<text x="542.3" y="644.0" font-size="10.0" fill="#c49a6c" font-weight="700">THEODORE</text>
<text x="542.3" y="657.0" font-size="10.0" fill="#333333">I'm near the exchange. Waiting for the</text>
<text x="542.3" y="670.0" font-size="10.0" fill="#333333">mark.</text>
<text x="759.0" y="636.0" text-anchor="end" font-size="12" font-weight="bold" fill="#888888" opacity="0.6">4</text>
<text x="765.0" y="1165.0" text-anchor="end" font-size="9" fill="#888888" opacity="0.5">ECU</text>
</svg>