<svg xmlns="http://www.w3.org/2000/svg" viewBox="0 0 800 1200" width="800" height="1200" style="background:#ffffff">
<style>
  text { font-family: "Helvetica Neue", Helvetica, Arial, sans-serif; }
</style>
<text x="400.0" y="22" text-anchor="middle" font-size="16" fill="#888888" font-weight="500">PAGE 20  (3 panels)</text>
<rect x="29.0" y="59.0" width="742.0" height="570.3" rx="2" fill="#f5f0e8" stroke="#2a2a2a" stroke-width="1.5"/>
<line x1="35.0" y1="503.9" x2="765.0" y2="503.9" stroke="#a89888" stroke-width="1.0" opacity="0.5"/>
<ellipse cx="214.5" cy="505.9" rx="11.2" ry="2.7" fill="#a89888" opacity="0.2"/>
<line x1="211.8" y1="488.1" x2="207.8" y2="503.9" stroke="#c0b8a8" stroke-width="2" opacity="0.5"/>
<line x1="217.2" y1="488.1" x2="221.2" y2="503.9" stroke="#c0b8a8" stroke-width="2" opacity="0.5"/>
<line x1="214.5" y1="475.1" x2="214.5" y2="488.1" stroke="#c0b8a8" stroke-width="2.5" opacity="0.6"/>
<line x1="201.0" y1="477.1" x2="228.0" y2="477.1" stroke="#c0b8a8" stroke-width="2" opacity="0.5"/>
<line x1="201.0" y1="477.1" x2="196.5" y2="488.6" stroke="#c0b8a8" stroke-width="1.5" opacity="0.4"/>
<line x1="228.0" y1="477.1" x2="232.5" y2="488.6" stroke="#c0b8a8" stroke-width="1.5" opacity="0.4"/>
<circle cx="214.5" cy="458.9" r="8.1" fill="#c0b8a8" opacity="0.6"/>
<ellipse cx="400.0" cy="505.9" rx="11.2" ry="2.7" fill="#a89888" opacity="0.2"/>
<line x1="397.3" y1="488.1" x2="393.2" y2="503.9" stroke="#c0b8a8" stroke-width="2" opacity="0.5"/>
<line x1="402.7" y1="488.1" x2="406.8" y2="503.9" stroke="#c0b8a8" stroke-width="2" opacity="0.5"/>
<line x1="400.0" y1="475.1" x2="400.0" y2="488.1" stroke="#c0b8a8" stroke-width="2.5" opacity="0.6"/>
<line x1="386.5" y1="477.1" x2="413.5" y2="477.1" stroke="#c0b8a8" stroke-width="2" opacity="0.5"/>
<line x1="386.5" y1="477.1" x2="382.0" y2="488.6" stroke="#c0b8a8" stroke-width="1.5" opacity="0.4"/>
<line x1="413.5" y1="477.1" x2="418.0" y2="488.6" stroke="#c0b8a8" stroke-width="1.5" opacity="0.4"/>
<circle cx="400.0" cy="458.9" r="8.1" fill="#c0b8a8" opacity="0.6"/>
<ellipse cx="585.5" cy="505.9" rx="11.2" ry="2.7" fill="#a89888" opacity="0.2"/>
<line x1="582.8" y1="488.1" x2="578.8" y2="503.9" stroke="#c0b8a8" stroke-width="2" opacity="0.5"/>
<line x1="588.2" y1="488.1" x2="592.2" y2="503.9" stroke="#c0b8a8" stroke-width="2" opacity="0.5"/>
<line x1="585.5" y1="475.1" x2="585.5" y2="488.1" stroke="#c0b8a8" stroke-width="2.5" opacity="0.6"/>
<line x1="572.0" y1="477.1" x2="599.0" y2="477.1" stroke="#c0b8a8" stroke-width="2" opacity="0.5"/>
<line x1="572.0" y1="477.1" x2="567.5" y2="488.6" stroke="#c0b8a8" stroke-width="1.5" opacity="0.4"/>
<line x1="599.0" y1="477.1" x2="603.5" y2="488.6" stroke="#c0b8a8" stroke-width="1.5" opacity="0.4"/>
<circle cx="585.5" cy="458.9" r="8.1" fill="#c0b8a8" opacity="0.6"/>
<text x="759.0" y="75.0" text-anchor="end" font-size="12" font-weight="bold" fill="#888888" opacity="0.6">1</text>
<text x="765.0" y="623.3" text-anchor="end" font-size="9" fill="#888888" opacity="0.5">WIDE</text>
<rect x="29.0" y="639.3" width="742.0" height="376.9" rx="2" fill="#f5f0e8" stroke="#2a2a2a" stroke-width="1.5"/>
<path d="M294.5,922.0 Q294.5,869.3 373.6,862.7 L426.4,862.7 Q505.5,869.3 505.5,922.0 L505.5,971.0 L294.5,971.0 Z" fill="#b0b0b0" opacity="0.25"/>
<path d="M376.9,862.7 L400.0,895.6 L423.1,862.7" fill="none" stroke="#b0b0b0" stroke-width="1" opacity="0.3"/>
<circle cx="400.0" cy="790.1" r="66.0" fill="#b0b0b0" opacity="0.35"/>
<path d="M334.0,803.3 Q343.9,862.7 400.0,866.0 Q456.1,862.7 466.0,803.3" fill="none" stroke="#b0b0b0" stroke-width="1.2" opacity="0.3"/>
<path d="M330.7,783.5 Q400.0,704.4 469.3,783.5" fill="none" stroke="#b0b0b0" stroke-width="2" opacity="0.4"/>
<ellipse cx="332.0" cy="793.4" rx="2.5" ry="4" fill="#b0b0b0" opacity="0.25"/>
<ellipse cx="468.0" cy="793.4" rx="2.5" ry="4" fill="#b0b0b0" opacity="0.25"/>
<rect x="35.0" y="647.3" width="90.7" height="40.0" rx="6" fill="white" stroke="#b0b0b0" stroke-width="1.0" opacity="0.92"/>
<polygon points="62.2,687.3 70.2,687.3 59.2,695.3" fill="white" stroke="#b0b0b0" stroke-width="0.8"/>
<line x1="61.7" y1="687.3" x2="70.7" y2="687.3" stroke="white" stroke-width="1.5"/>
<text x="41.0" y="664.3" font-size="11.0" fill="#b0b0b0" font-weight="700">SABLE</text>
<text x="41.0" y="678.3" font-size="11.0" fill="#333333">Then we stay.</text>
<text x="759.0" y="655.3" text-anchor="end" font-size="12" font-weight="bold" fill="#888888" opacity="0.6">2</text>
<text x="765.0" y="1010.2" text-anchor="end" font-size="9" fill="#888888" opacity="0.5">MCU</text>
<rect x="29.0" y="1026.2" width="742.0" height="144.8" rx="2" fill="#f5f0e8" stroke="#2a2a2a" stroke-width="1.5"/>
<line x1="35.0" y1="1139.2" x2="765.0" y2="1139.2" stroke="#a89888" stroke-width="1.0" opacity="0.5"/>
<ellipse cx="214.5" cy="1141.2" rx="6.5" ry="1.6" fill="#a89888" opacity="0.2"/>
<line x1="212.9" y1="1130.0" x2="210.6" y2="1139.2" stroke="#c0b8a8" stroke-width="2" opacity="0.5"/>
<line x1="216.1" y1="1130.0" x2="218.4" y2="1139.2" stroke="#c0b8a8" stroke-width="2" opacity="0.5"/>
<line x1="214.5" y1="1122.5" x2="214.5" y2="1130.0" stroke="#c0b8a8" stroke-width="2.5" opacity="0.6"/>
<line x1="206.7" y1="1124.5" x2="222.3" y2="1124.5" stroke="#c0b8a8" stroke-width="2" opacity="0.5"/>
<line x1="206.7" y1="1124.5" x2="204.1" y2="1130.3" stroke="#c0b8a8" stroke-width="1.5" opacity="0.4"/>
<line x1="222.3" y1="1124.5" x2="224.9" y2="1130.3" stroke="#c0b8a8" stroke-width="1.5" opacity="0.4"/>
<circle cx="214.5" cy="1113.1" r="4.7" fill="#c0b8a8" opacity="0.6"/>
<ellipse cx="400.0" cy="1141.2" rx="6.5" ry="1.6" fill="#a89888" opacity="0.2"/>
<line x1="398.4" y1="1130.0" x2="396.1" y2="1139.2" stroke="#c0b8a8" stroke-width="2" opacity="0.5"/>
<line x1="401.6" y1="1130.0" x2="403.9" y2="1139.2" stroke="#c0b8a8" stroke-width="2" opacity="0.5"/>
<line x1="400.0" y1="1122.5" x2="400.0" y2="1130.0" stroke="#c0b8a8" stroke-width="2.5" opacity="0.6"/>
<line x1="392.2" y1="1124.5" x2="407.8" y2="1124.5" stroke="#c0b8a8" stroke-width="2" opacity="0.5"/>
<line x1="392.2" y1="1124.5" x2="389.6" y2="1130.3" stroke="#c0b8a8" stroke-width="1.5" opacity="0.4"/>
<line x1="407.8" y1="1124.5" x2="410.4" y2="1130.3" stroke="#c0b8a8" stroke-width="1.5" opacity="0.4"/>
<circle cx="400.0" cy="1113.1" r="4.7" fill="#c0b8a8" opacity="0.6"/>
<ellipse cx="585.5" cy="1141.2" rx="6.5" ry="1.6" fill="#a89888" opacity="0.2"/>
<line x1="583.9" y1="1130.0" x2="581.6" y2="1139.2" stroke="#c0b8a8" stroke-width="2" opacity="0.5"/>
<line x1="587.1" y1="1130.0" x2="589.4" y2="1139.2" stroke="#c0b8a8" stroke-width="2" opacity="0.5"/>
<line x1="585.5" y1="1122.5" x2="585.5" y2="1130.0" stroke="#c0b8a8" stroke-width="2.5" opacity="0.6"/>
<line x1="577.7" y1="1124.5" x2="593.3" y2="1124.5" stroke="#c0b8a8" stroke-width="2" opacity="0.5"/>
<line x1="577.7" y1="1124.5" x2="575.1" y2="1130.3" stroke="#c0b8a8" stroke-width="1.5" opacity="0.4"/>
<line x1="593.3" y1="1124.5" x2="595.9" y2="1130.3" stroke="#c0b8a8" stroke-width="1.5" opacity="0.4"/>
<circle cx="585.5" cy="1113.1" r="4.7" fill="#c0b8a8" opacity="0.6"/>
<text x="759.0" y="1042.2" text-anchor="end" font-size="12" font-weight="bold" fill="#888888" opacity="0.6">3</text>
<text x="765.0" y="1165.0" text-anchor="end" font-size="9" fill="#888888" opacity="0.5">XWIDE</text>
</svg>