<svg xmlns="http://www.w3.org/2000/svg" viewBox="0 0 800 1200" width="800" height="1200" style="background:#ffffff">
<style>
  text { font-family: "Helvetica Neue", Helvetica, Arial, sans-serif; }
</style>
<text x="400.0" y="22" text-anchor="middle" font-size="16" fill="#888888" font-weight="500">PAGE 22  (3 panels)</text>
<rect x="29.0" y="59.0" width="742.0" height="376.9" rx="2" fill="#f5f0e8" stroke="#2a2a2a" stroke-width="1.5"/>
<path d="M339.4,330.4 L344.9,282.1 Q350.4,278.1 383.2,278.1 L416.8,278.1 Q449.6,278.1 455.1,282.1 L460.6,330.4 Z" fill="#c0b8a8" opacity="0.35"/>
<line x1="344.9" y1="304.9" x2="455.1" y2="304.9" stroke="#c0b8a8" stroke-width="1" opacity="0.3"/>
<line x1="344.9" y1="282.1" x2="322.8" y2="324.5" stroke="#c0b8a8" stroke-width="2" opacity="0.3"/>
<line x1="322.8" y1="324.5" x2="339.4" y2="349.9" stroke="#c0b8a8" stroke-width="2" opacity="0.3"/>
<line x1="455.1" y1="282.1" x2="477.2" y2="324.5" stroke="#c0b8a8" stroke-width="2" opacity="0.3"/>
<line x1="477.2" y1="324.5" x2="460.6" y2="349.9" stroke="#c0b8a8" stroke-width="2" opacity="0.3"/>
<line x1="400.0" y1="202.7" x2="400.0" y2="278.1" stroke="#c0b8a8" stroke-width="3" opacity="0.35"/>
<circle cx="400.0" cy="160.8" r="41.9" fill="#c0b8a8" opacity="0.4"/>
<text x="759.0" y="75.0" text-anchor="end" font-size="12" font-weight="bold" fill="#888888" opacity="0.6">1</text>
<text x="765.0" y="429.9" text-anchor="end" font-size="9" fill="#888888" opacity="0.5">MW</text>
<rect x="29.0" y="445.9" width="742.0" height="570.3" rx="2" fill="#f5f0e8" stroke="#2a2a2a" stroke-width="1.5"/>
<text x="759.0" y="461.9" text-anchor="end" font-size="12" font-weight="bold" fill="#888888" opacity="0.6">2</text>
<rect x="29.0" y="1026.2" width="742.0" height="144.8" rx="2" fill="#f5f0e8" stroke="#2a2a2a" stroke-width="1.5"/>
<ellipse cx="400.0" cy="1087.0" rx="45.6" ry="65.1" fill="#c0b8a8" opacity="0.18"/>
<path d="M352.1,1064.2 Q400.0,1012.1 447.9,1064.2" fill="none" stroke="#c0b8a8" stroke-width="3" opacity="0.35"/>
<line x1="384.0" y1="1072.7" x2="397.7" y2="1070.7" stroke="#a89888" stroke-width="1.5" opacity="0.45"/>
<line x1="402.3" y1="1070.7" x2="416.0" y2="1072.7" stroke="#a89888" stroke-width="1.5" opacity="0.45"/>
<ellipse cx="387.2" cy="1079.2" rx="5.5" ry="3.3" fill="#a89888" opacity="0.45"/>
<ellipse cx="412.8" cy="1079.2" rx="5.5" ry="3.3" fill="#a89888" opacity="0.45"/>
<line x1="400.0" y1="1088.3" x2="400.0" y2="1098.8" stroke="#a89888" stroke-width="1.2" opacity="0.35"/>
<path d="M397.3,1098.8 Q400.0,1101.8 402.7,1098.8" fill="none" stroke="#a89888" stroke-width="1" opacity="0.3"/>
<line x1="388.6" y1="1107.9" x2="411.4" y2="1107.9" stroke="#a89888" stroke-width="1.2" opacity="0.35"/>
<text x="759.0" y="1042.2" text-anchor="end" font-size="12" font-weight="bold" fill="#888888" opacity="0.6">3</text>
<text x="765.0" y="1165.0" text-anchor="end" font-size="9" fill="#888888" opacity="0.5">ECU</text>
</svg>