<svg xmlns="http://www.w3.org/2000/svg" viewBox="0 0 800 1200" width="800" height="1200" style="background:#ffffff">
<style>
  text { font-family: "Helvetica Neue", Helvetica, Arial, sans-serif; }
</style>
<text x="400.0" y="22" text-anchor="middle" font-size="16" fill="#888888" font-weight="500">PAGE 3  (5 panels)</text>
<rect x="29.0" y="59.0" width="493.8" height="364.0" rx="2" fill="#f5f0e8" stroke="#2a2a2a" stroke-width="1.5"/>
<line x1="35.0" y1="342.9" x2="516.8" y2="342.9" stroke="#a89888" stroke-width="1.0" opacity="0.5"/>
<ellipse cx="275.9" cy="344.9" rx="11.2" ry="2.7" fill="#a89888" opacity="0.2"/>
<line x1="273.2" y1="327.2" x2="269.2" y2="342.9" stroke="#c87533" stroke-width="2" opacity="0.5"/>
<line x1="278.6" y1="327.2" x2="282.7" y2="342.9" stroke="#c87533" stroke-width="2" opacity="0.5"/>
<line x1="275.9" y1="314.1" x2="275.9" y2="327.2" stroke="#c87533" stroke-width="2.5" opacity="0.6"/>
<line x1="262.4" y1="316.1" x2="289.4" y2="316.1" stroke="#c87533" stroke-width="2" opacity="0.5"/>
<line x1="262.4" y1="316.1" x2="257.9" y2="327.6" stroke="#c87533" stroke-width="1.5" opacity="0.4"/>
<line x1="289.4" y1="316.1" x2="293.9" y2="327.6" stroke="#c87533" stroke-width="1.5" opacity="0.4"/>
<circle cx="275.9" cy="297.9" r="8.1" fill="#c87533" opacity="0.6"/>
<rect x="35.0" y="67.0" width="481.8" height="54.0" rx="6" fill="white" stroke="#c87533" stroke-width="1.0" opacity="0.92"/>
<polygon points="179.6,121.0 187.6,121.0 176.6,129.0" fill="white" stroke="#c87533" stroke-width="0.8"/>
<line x1="179.1" y1="121.0" x2="188.1" y2="121.0" stroke="white" stroke-width="1.5"/>
<text x="41.0" y="84.0" font-size="11.0" fill="#c87533" font-weight="700">WREN</text>
<text x="41.0" y="98.0" font-size="11.0" fill="#333333">Engineer at Station Bravo. Device located. It's integrated into the relay coils —</text>
<text x="41.0" y="112.0" font-size="11.0" fill="#333333">deep. This is going to take the full window.</text>
<text x="510.8" y="75.0" text-anchor="end" font-size="12" font-weight="bold" fill="#888888" opacity="0.6">1</text>
<text x="516.8" y="417.0" text-anchor="end" font-size="9" fill="#888888" opacity="0.5">EST</text>
<rect x="532.8" y="59.0" width="238.2" height="364.0" rx="2" fill="#f5f0e8" stroke="#2a2a2a" stroke-width="1.5"/>
<ellipse cx="651.9" cy="211.9" rx="95.3" ry="163.8" fill="#2e8b57" opacity="0.18"/>
<path d="M551.9,154.6 Q651.9,23.5 751.9,154.6" fill="none" stroke="#2e8b57" stroke-width="3" opacity="0.35"/>
<line x1="618.6" y1="175.8" x2="647.2" y2="173.8" stroke="#a89888" stroke-width="1.5" opacity="0.45"/>
<line x1="656.7" y1="173.8" x2="685.3" y2="175.8" stroke="#a89888" stroke-width="1.5" opacity="0.45"/>
<ellipse cx="625.2" cy="192.2" rx="11.4" ry="8.2" fill="#a89888" opacity="0.45"/>
<ellipse cx="678.6" cy="192.2" rx="11.4" ry="8.2" fill="#a89888" opacity="0.45"/>
<line x1="651.9" y1="215.2" x2="651.9" y2="241.4" stroke="#a89888" stroke-width="1.2" opacity="0.35"/>
<path d="M646.2,241.4 Q651.9,244.4 657.6,241.4" fill="none" stroke="#a89888" stroke-width="1" opacity="0.3"/>
<line x1="628.1" y1="264.3" x2="675.7" y2="264.3" stroke="#a89888" stroke-width="1.2" opacity="0.35"/>
<rect x="538.8" y="67.0" width="226.2" height="64.0" rx="6" fill="white" stroke="#2e8b57" stroke-width="1.0" opacity="0.92"/>
<polygon points="606.7,131.0 614.7,131.0 603.7,139.0" fill="white" stroke="#2e8b57" stroke-width="0.8"/>
<line x1="606.2" y1="131.0" x2="615.2" y2="131.0" stroke="white" stroke-width="1.5"/>
<text x="544.8" y="83.0" font-size="10.0" fill="#2e8b57" font-weight="700">JINK</text>
<text x="544.8" y="96.0" font-size="10.0" fill="#333333">Scout at Junction Alpha. Device exposed.</text>
<text x="544.8" y="109.0" font-size="10.0" fill="#333333">Nasty little thing. Give me three</text>
<text x="544.8" y="122.0" font-size="10.0" fill="#333333">minutes.</text>
<text x="759.0" y="75.0" text-anchor="end" font-size="12" font-weight="bold" fill="#888888" opacity="0.6">2</text>
<text x="765.0" y="417.0" text-anchor="end" font-size="9" fill="#888888" opacity="0.5">CU</text>
<rect x="29.0" y="433.0" width="742.0" height="364.0" rx="2" fill="#f5f0e8" stroke="#2a2a2a" stroke-width="1.5"/>
<line x1="37.0" y1="560.4" x2="763.0" y2="560.4" stroke="#a89888" stroke-width="0.6" opacity="0.2"/>
<line x1="400.0" y1="560.4" x2="103.2" y2="760.6" stroke="#a89888" stroke-width="0.8" opacity="0.25"/>
<line x1="400.0" y1="560.4" x2="251.6" y2="760.6" stroke="#a89888" stroke-width="0.8" opacity="0.25"/>
<line x1="400.0" y1="560.4" x2="348.1" y2="760.6" stroke="#a89888" stroke-width="0.8" opacity="0.25"/>
<line x1="400.0" y1="560.4" x2="451.9" y2="760.6" stroke="#a89888" stroke-width="0.8" opacity="0.25"/>
<line x1="400.0" y1="560.4" x2="548.4" y2="760.6" stroke="#a89888" stroke-width="0.8" opacity="0.25"/>
<line x1="400.0" y1="560.4" x2="696.8" y2="760.6" stroke="#a89888" stroke-width="0.8" opacity="0.25"/>
<circle cx="400.0" cy="560.4" r="3" fill="#a89888" opacity="0.3"/>
<rect x="35.0" y="441.0" width="393.2" height="40.0" rx="6" fill="white" stroke="#b22222" stroke-width="1.0" opacity="0.92"/>
<polygon points="152.9,481.0 160.9,481.0 149.9,489.0" fill="white" stroke="#b22222" stroke-width="0.8"/>
<line x1="152.4" y1="481.0" x2="161.4" y2="481.0" stroke="white" stroke-width="1.5"/>
<text x="41.0" y="458.0" font-size="11.0" fill="#b22222" font-weight="700">THRESH</text>
<text x="41.0" y="472.0" font-size="11.0" fill="#333333">Soldier at Basement Charlie. I can see the device. It's... far.</text>
<rect x="535.2" y="491.0" width="229.8" height="40.0" rx="6" fill="white" stroke="#b0b0b0" stroke-width="1.0" opacity="0.92"/>
<polygon points="604.1,531.0 612.1,531.0 601.1,539.0" fill="white" stroke="#b0b0b0" stroke-width="0.8"/>
<line x1="603.6" y1="531.0" x2="612.6" y2="531.0" stroke="white" stroke-width="1.5"/>
<text x="541.2" y="508.0" font-size="11.0" fill="#b0b0b0" font-weight="700">SABLE</text>
<text x="541.2" y="522.0" font-size="11.0" fill="#333333">Take your time. You have the window.</text>
<text x="759.0" y="449.0" text-anchor="end" font-size="12" font-weight="bold" fill="#888888" opacity="0.6">3</text>
<text x="765.0" y="791.0" text-anchor="end" font-size="9" fill="#888888" opacity="0.5">POV</text>
<rect x="29.0" y="807.0" width="366.0" height="364.0" rx="2" fill="#f5f0e8" stroke="#2a2a2a" stroke-width="1.5"/>
<path d="M110.1,1080.0 Q110.1,1029.0 186.5,1022.7 L237.5,1022.7 Q313.9,1029.0 313.9,1080.0 L313.9,1127.3 L110.1,1127.3 Z" fill="#c87533" opacity="0.25"/>
<path d="M189.7,1022.7 L212.0,1054.5 L234.3,1022.7" fill="none" stroke="#c87533" stroke-width="1" opacity="0.3"/>
<circle cx="212.0" cy="952.6" r="63.7" fill="#c87533" opacity="0.35"/>
<path d="M148.3,965.3 Q157.9,1022.7 212.0,1025.9 Q266.1,1022.7 275.7,965.3" fill="none" stroke="#c87533" stroke-width="1.2" opacity="0.3"/>
<path d="M145.1,946.2 Q212.0,869.8 278.9,946.2" fill="none" stroke="#c87533" stroke-width="2" opacity="0.4"/>
<ellipse cx="146.3" cy="955.8" rx="2.5" ry="4" fill="#c87533" opacity="0.25"/>
<ellipse cx="277.7" cy="955.8" rx="2.5" ry="4" fill="#c87533" opacity="0.25"/>
<rect x="35.0" y="815.0" width="354.0" height="68.0" rx="6" fill="white" stroke="#c87533" stroke-width="1.0" opacity="0.92"/>
<polygon points="141.2,883.0 149.2,883.0 138.2,891.0" fill="white" stroke="#c87533" stroke-width="0.8"/>
<line x1="140.7" y1="883.0" x2="149.7" y2="883.0" stroke="white" stroke-width="1.5"/>
<text x="41.0" y="832.0" font-size="11.0" fill="#c87533" font-weight="700">WREN</text>
<text x="41.0" y="846.0" font-size="11.0" fill="#333333">Interface points identified. Seven connections to the relay</text>
<text x="41.0" y="860.0" font-size="11.0" fill="#333333">coils. Isolating now. This design is... elegant. I hate</text>
<text x="41.0" y="874.0" font-size="11.0" fill="#333333">that.</text>
<text x="383.0" y="823.0" text-anchor="end" font-size="12" font-weight="bold" fill="#888888" opacity="0.6">4</text>
<text x="389.0" y="1165.0" text-anchor="end" font-size="9" fill="#888888" opacity="0.5">MCU</text>
<rect x="405.0" y="807.0" width="366.0" height="364.0" rx="2" fill="#f5f0e8" stroke="#2a2a2a" stroke-width="1.5"/>
<line x1="577.0" y1="1020.9" x2="544.1" y2="1060.9" stroke="#2e8b57" stroke-width="3" opacity="0.35"/>
<line x1="544.1" y1="1060.9" x2="566.0" y2="1090.9" stroke="#2e8b57" stroke-width="3" opacity="0.35"/>
<line x1="599.0" y1="1020.9" x2="642.9" y2="1050.9" stroke="#2e8b57" stroke-width="3" opacity="0.35"/>
<line x1="642.9" y1="1050.9" x2="653.9" y2="1074.9" stroke="#2e8b57" stroke-width="3" opacity="0.35"/>
<line x1="610.0" y1="934.7" x2="581.4" y2="1020.9" stroke="#2e8b57" stroke-width="3.5" opacity="0.4"/>
<circle cx="610.0" cy="890.7" r="20.0" fill="#2e8b57" opacity="0.4"/>
<line x1="599.0" y1="964.8" x2="653.9" y2="935.6" stroke="#2e8b57" stroke-width="2.5" opacity="0.35"/>
<line x1="599.0" y1="964.8" x2="536.8" y2="986.6" stroke="#2e8b57" stroke-width="2.5" opacity="0.35"/>
<path d="M599.0,954.7 Q555.1,918.3 569.7,889.2" fill="none" stroke="#2e8b57" stroke-width="1.5" opacity="0.25"/>
<path d="M599.0,954.7 Q642.9,918.3 628.3,889.2" fill="none" stroke="#2e8b57" stroke-width="1.5" opacity="0.25"/>
<line x1="690.5" y1="923.5" x2="752.7" y2="923.5" stroke="#a89888" stroke-width="1.2" opacity="0.3"/>
<line x1="690.5" y1="959.9" x2="752.7" y2="959.9" stroke="#a89888" stroke-width="1.2" opacity="0.3"/>
<line x1="690.5" y1="996.3" x2="752.7" y2="996.3" stroke="#a89888" stroke-width="1.2" opacity="0.3"/>
<line x1="690.5" y1="1032.7" x2="752.7" y2="1032.7" stroke="#a89888" stroke-width="1.2" opacity="0.3"/>
<line x1="423.3" y1="879.8" x2="470.9" y2="879.8" stroke="#a89888" stroke-width="1" opacity="0.2"/>
<line x1="423.3" y1="934.4" x2="470.9" y2="934.4" stroke="#a89888" stroke-width="1" opacity="0.2"/>
<line x1="423.3" y1="1043.6" x2="470.9" y2="1043.6" stroke="#a89888" stroke-width="1" opacity="0.2"/>
<line x1="423.3" y1="1098.2" x2="470.9" y2="1098.2" stroke="#a89888" stroke-width="1" opacity="0.2"/>
<rect x="411.0" y="815.0" width="332.7" height="40.0" rx="6" fill="white" stroke="#2e8b57" stroke-width="1.0" opacity="0.92"/>
<polygon points="510.8,855.0 518.8,855.0 507.8,863.0" fill="white" stroke="#2e8b57" stroke-width="0.8"/>
<line x1="510.3" y1="855.0" x2="519.3" y2="855.0" stroke="white" stroke-width="1.5"/>
<text x="417.0" y="832.0" font-size="11.0" fill="#2e8b57" font-weight="700">JINK</text>
<text x="417.0" y="846.0" font-size="11.0" fill="#333333">Junction Alpha neutralized. Core extracted. One down.</text>
<rect x="601.8" y="865.0" width="163.2" height="40.0" rx="6" fill="white" stroke="#b0b0b0" stroke-width="1.0" opacity="0.92"/>
<polygon points="650.7,905.0 658.7,905.0 647.7,913.0" fill="white" stroke="#b0b0b0" stroke-width="0.8"/>
<line x1="650.2" y1="905.0" x2="659.2" y2="905.0" stroke="white" stroke-width="1.5"/>
<text x="607.8" y="882.0" font-size="11.0" fill="#b0b0b0" font-weight="700">SABLE</text>
<text x="607.8" y="896.0" font-size="11.0" fill="#333333">Confirmed. Hold position.</text>
<text x="759.0" y="823.0" text-anchor="end" font-size="12" font-weight="bold" fill="#888888" opacity="0.6">5</text>
<text x="765.0" y="1165.0" text-anchor="end" font-size="9" fill="#888888" opacity="0.5">DYN</text>
</svg>