<svg xmlns="http://www.w3.org/2000/svg" viewBox="0 0 800 1200" width="800" height="1200" style="background:#ffffff">
<style>
  text { font-family: "Helvetica Neue", Helvetica, Arial, sans-serif; }
</style>
<text x="400.0" y="22" text-anchor="middle" font-size="16" fill="#888888" font-weight="500">PAGE 13  (5 panels)</text>
<rect x="29.0" y="59.0" width="742.0" height="364.0" rx="2" fill="#f5f0e8" stroke="#2a2a2a" stroke-width="1.5"/>
<line x1="37.0" y1="186.4" x2="763.0" y2="186.4" stroke="#a89888" stroke-width="0.6" opacity="0.2"/>
<line x1="400.0" y1="186.4" x2="103.2" y2="386.6" stroke="#a89888" stroke-width="0.8" opacity="0.25"/>
<line x1="400.0" y1="186.4" x2="251.6" y2="386.6" stroke="#a89888" stroke-width="0.8" opacity="0.25"/>
<line x1="400.0" y1="186.4" x2="348.1" y2="386.6" stroke="#a89888" stroke-width="0.8" opacity="0.25"/>
<line x1="400.0" y1="186.4" x2="451.9" y2="386.6" stroke="#a89888" stroke-width="0.8" opacity="0.25"/>
<line x1="400.0" y1="186.4" x2="548.4" y2="386.6" stroke="#a89888" stroke-width="0.8" opacity="0.25"/>
<line x1="400.0" y1="186.4" x2="696.8" y2="386.6" stroke="#a89888" stroke-width="0.8" opacity="0.25"/>
<circle cx="400.0" cy="186.4" r="3" fill="#a89888" opacity="0.3"/>
<rect x="35.0" y="67.0" width="730.0" height="40.0" rx="6" fill="white" stroke="#c87533" stroke-width="1.0" opacity="0.92"/>
<polygon points="254.0,107.0 262.0,107.0 251.0,115.0" fill="white" stroke="#c87533" stroke-width="0.8"/>
<line x1="253.5" y1="107.0" x2="262.5" y2="107.0" stroke="white" stroke-width="1.5"/>
<text x="41.0" y="84.0" font-size="11.0" fill="#c87533" font-weight="700">WREN</text>
<text x="41.0" y="98.0" font-size="11.0" fill="#333333">Fourth node. Same principle. This one's deeper — reach past the relay coil, feel for the crystalline edge. It'll be warm.</text>
<rect x="432.3" y="117.0" width="332.7" height="40.0" rx="6" fill="white" stroke="#c49a6c" stroke-width="1.0" opacity="0.92"/>
<polygon points="532.1,157.0 540.1,157.0 529.1,165.0" fill="white" stroke="#c49a6c" stroke-width="0.8"/>
<line x1="531.6" y1="157.0" x2="540.6" y2="157.0" stroke="white" stroke-width="1.5"/>
<text x="438.3" y="134.0" font-size="11.0" fill="#c49a6c" font-weight="700">THEODORE</text>
<text x="438.3" y="148.0" font-size="11.0" fill="#333333">I feel it. Warm. Like a gear that's been running hot.</text>
<rect x="35.0" y="167.0" width="241.9" height="40.0" rx="6" fill="white" stroke="#c87533" stroke-width="1.0" opacity="0.92"/>
<polygon points="107.6,207.0 115.6,207.0 104.6,215.0" fill="white" stroke="#c87533" stroke-width="0.8"/>
<line x1="107.1" y1="207.0" x2="116.1" y2="207.0" stroke="white" stroke-width="1.5"/>
<text x="41.0" y="184.0" font-size="11.0" fill="#c87533" font-weight="700">WREN</text>
<text x="41.0" y="198.0" font-size="11.0" fill="#333333">Exactly like that. Quarter-turn, pull.</text>
<text x="759.0" y="75.0" text-anchor="end" font-size="12" font-weight="bold" fill="#888888" opacity="0.6">1</text>
<text x="765.0" y="417.0" text-anchor="end" font-size="9" fill="#888888" opacity="0.5">POV</text>
<rect x="29.0" y="433.0" width="366.0" height="364.0" rx="2" fill="#f5f0e8" stroke="#2a2a2a" stroke-width="1.5"/>
<ellipse cx="212.0" cy="585.9" rx="114.7" ry="163.8" fill="#c49a6c" opacity="0.18"/>
<path d="M91.6,528.5 Q212.0,397.5 332.4,528.5" fill="none" stroke="#c49a6c" stroke-width="3" opacity="0.35"/>
<line x1="171.9" y1="549.8" x2="206.3" y2="547.8" stroke="#a89888" stroke-width="1.5" opacity="0.45"/>
<line x1="217.7" y1="547.8" x2="252.1" y2="549.8" stroke="#a89888" stroke-width="1.5" opacity="0.45"/>
<ellipse cx="179.9" cy="566.2" rx="13.8" ry="8.2" fill="#a89888" opacity="0.45"/>
<ellipse cx="244.1" cy="566.2" rx="13.8" ry="8.2" fill="#a89888" opacity="0.45"/>
<line x1="212.0" y1="589.2" x2="212.0" y2="615.4" stroke="#a89888" stroke-width="1.2" opacity="0.35"/>
<path d="M205.1,615.4 Q212.0,618.4 218.9,615.4" fill="none" stroke="#a89888" stroke-width="1" opacity="0.3"/>
<line x1="183.3" y1="638.3" x2="240.7" y2="638.3" stroke="#a89888" stroke-width="1.2" opacity="0.35"/>
<rect x="35.0" y="441.0" width="169.3" height="40.0" rx="6" fill="white" stroke="#c49a6c" stroke-width="1.0" opacity="0.92"/>
<polygon points="85.8,481.0 93.8,481.0 82.8,489.0" fill="white" stroke="#c49a6c" stroke-width="0.8"/>
<line x1="85.3" y1="481.0" x2="94.3" y2="481.0" stroke="white" stroke-width="1.5"/>
<text x="41.0" y="458.0" font-size="11.0" fill="#c49a6c" font-weight="700">THEODORE</text>
<text x="41.0" y="472.0" font-size="11.0" fill="#333333">Pressure... turn... there.</text>
<text x="383.0" y="449.0" text-anchor="end" font-size="12" font-weight="bold" fill="#888888" opacity="0.6">2</text>
<text x="389.0" y="791.0" text-anchor="end" font-size="9" fill="#888888" opacity="0.5">CU</text>
<rect x="405.0" y="433.0" width="366.0" height="364.0" rx="2" fill="#f5f0e8" stroke="#2a2a2a" stroke-width="1.5"/>
<path d="M529.4,695.1 L534.8,648.6 Q540.1,644.6 571.8,644.6 L604.2,644.6 Q635.9,644.6 641.2,648.6 L646.6,695.1 Z" fill="#c87533" opacity="0.35"/>
<line x1="534.8" y1="670.5" x2="641.2" y2="670.5" stroke="#c87533" stroke-width="1" opacity="0.3"/>
<line x1="534.8" y1="648.6" x2="513.5" y2="689.5" stroke="#c87533" stroke-width="2" opacity="0.3"/>
<line x1="513.5" y1="689.5" x2="529.4" y2="714.1" stroke="#c87533" stroke-width="2" opacity="0.3"/>
<line x1="641.2" y1="648.6" x2="662.5" y2="689.5" stroke="#c87533" stroke-width="2" opacity="0.3"/>
<line x1="662.5" y1="689.5" x2="646.6" y2="714.1" stroke="#c87533" stroke-width="2" opacity="0.3"/>
<line x1="588.0" y1="571.7" x2="588.0" y2="644.6" stroke="#c87533" stroke-width="3" opacity="0.35"/>
<circle cx="588.0" cy="531.3" r="40.5" fill="#c87533" opacity="0.4"/>
<rect x="411.0" y="441.0" width="354.0" height="82.0" rx="6" fill="white" stroke="#c87533" stroke-width="1.0" opacity="0.92"/>
<polygon points="517.2,523.0 525.2,523.0 514.2,531.0" fill="white" stroke="#c87533" stroke-width="0.8"/>
<line x1="516.7" y1="523.0" x2="525.7" y2="523.0" stroke="white" stroke-width="1.5"/>
<text x="417.0" y="458.0" font-size="11.0" fill="#c87533" font-weight="700">WREN</text>
<text x="417.0" y="472.0" font-size="11.0" fill="#333333">Fifth node is the tricky one. It's load-bearing — the</text>
<text x="417.0" y="486.0" font-size="11.0" fill="#333333">network routes through it. When you pull it, the device may</text>
<text x="417.0" y="500.0" font-size="11.0" fill="#333333">pulse. Don't let go. Ride the pulse, then twist and</text>
<text x="417.0" y="514.0" font-size="11.0" fill="#333333">extract.</text>
<rect x="426.3" y="533.0" width="338.7" height="54.0" rx="6" fill="white" stroke="#c49a6c" stroke-width="1.0" opacity="0.92"/>
<polygon points="527.9,587.0 535.9,587.0 524.9,595.0" fill="white" stroke="#c49a6c" stroke-width="0.8"/>
<line x1="527.4" y1="587.0" x2="536.4" y2="587.0" stroke="white" stroke-width="1.5"/>
<text x="432.3" y="550.0" font-size="11.0" fill="#c49a6c" font-weight="700">THEODORE</text>
<text x="432.3" y="564.0" font-size="11.0" fill="#333333">Like the main escapement wheel in a longcase clock. It</text>
<text x="432.3" y="578.0" font-size="11.0" fill="#333333">kicks when you disengage it.</text>
<rect x="411.0" y="597.0" width="169.3" height="40.0" rx="6" fill="white" stroke="#c87533" stroke-width="1.0" opacity="0.92"/>
<polygon points="461.8,637.0 469.8,637.0 458.8,645.0" fill="white" stroke="#c87533" stroke-width="0.8"/>
<line x1="461.3" y1="637.0" x2="470.3" y2="637.0" stroke="white" stroke-width="1.5"/>
<text x="417.0" y="614.0" font-size="11.0" fill="#c87533" font-weight="700">WREN</text>
<text x="417.0" y="628.0" font-size="11.0" fill="#333333">...yes. Exactly like that.</text>
<text x="759.0" y="449.0" text-anchor="end" font-size="12" font-weight="bold" fill="#888888" opacity="0.6">3</text>
<text x="765.0" y="791.0" text-anchor="end" font-size="9" fill="#888888" opacity="0.5">MED</text>
<rect x="29.0" y="807.0" width="238.2" height="364.0" rx="2" fill="#f5f0e8" stroke="#2a2a2a" stroke-width="1.5"/>
<ellipse cx="148.1" cy="959.9" rx="95.3" ry="163.8" fill="#c49a6c" opacity="0.18"/>
<path d="M48.1,902.5 Q148.1,771.5 248.1,902.5" fill="none" stroke="#c49a6c" stroke-width="3" opacity="0.35"/>
<line x1="114.7" y1="923.8" x2="143.3" y2="921.8" stroke="#a89888" stroke-width="1.5" opacity="0.45"/>
<line x1="152.8" y1="921.8" x2="181.4" y2="923.8" stroke="#a89888" stroke-width="1.5" opacity="0.45"/>
<ellipse cx="121.4" cy="940.2" rx="11.4" ry="8.2" fill="#a89888" opacity="0.45"/>
<ellipse cx="174.8" cy="940.2" rx="11.4" ry="8.2" fill="#a89888" opacity="0.45"/>
<line x1="148.1" y1="963.2" x2="148.1" y2="989.4" stroke="#a89888" stroke-width="1.2" opacity="0.35"/>
<path d="M142.4,989.4 Q148.1,992.4 153.8,989.4" fill="none" stroke="#a89888" stroke-width="1" opacity="0.3"/>
<line x1="124.3" y1="1012.3" x2="171.9" y2="1012.3" stroke="#a89888" stroke-width="1.2" opacity="0.35"/>
<rect x="35.0" y="815.0" width="221.0" height="38.0" rx="6" fill="white" stroke="#c49a6c" stroke-width="1.0" opacity="0.92"/>
<polygon points="101.3,853.0 109.3,853.0 98.3,861.0" fill="white" stroke="#c49a6c" stroke-width="0.8"/>
<line x1="100.8" y1="853.0" x2="109.8" y2="853.0" stroke="white" stroke-width="1.5"/>
<text x="41.0" y="831.0" font-size="10.0" fill="#c49a6c" font-weight="700">THEODORE</text>
<text x="41.0" y="844.0" font-size="10.0" fill="#333333">It kicked. I held it. Fifth node free.</text>
<rect x="100.7" y="863.0" width="160.5" height="38.0" rx="6" fill="white" stroke="#c87533" stroke-width="1.0" opacity="0.92"/>
<polygon points="148.8,901.0 156.8,901.0 145.8,909.0" fill="white" stroke="#c87533" stroke-width="0.8"/>
<line x1="148.3" y1="901.0" x2="157.3" y2="901.0" stroke="white" stroke-width="1.5"/>
<text x="106.7" y="879.0" font-size="10.0" fill="#c87533" font-weight="700">WREN</text>
<text x="106.7" y="892.0" font-size="10.0" fill="#333333">Clean extraction. Two left.</text>
<text x="255.2" y="823.0" text-anchor="end" font-size="12" font-weight="bold" fill="#888888" opacity="0.6">4</text>
<text x="261.2" y="1165.0" text-anchor="end" font-size="9" fill="#888888" opacity="0.5">ECU</text>
<rect x="277.2" y="807.0" width="493.8" height="364.0" rx="2" fill="#f5f0e8" stroke="#2a2a2a" stroke-width="1.5"/>
<path d="M465.5,1069.1 L470.8,1022.6 Q476.2,1018.6 507.9,1018.6 L540.3,1018.6 Q572.0,1018.6 577.3,1022.6 L582.6,1069.1 Z" fill="#c0b8a8" opacity="0.35"/>
<line x1="470.8" y1="1044.5" x2="577.3" y2="1044.5" stroke="#c0b8a8" stroke-width="1" opacity="0.3"/>
<line x1="470.8" y1="1022.6" x2="449.6" y2="1063.5" stroke="#c0b8a8" stroke-width="2" opacity="0.3"/>
<line x1="449.6" y1="1063.5" x2="465.5" y2="1088.1" stroke="#c0b8a8" stroke-width="2" opacity="0.3"/>
<line x1="577.3" y1="1022.6" x2="598.6" y2="1063.5" stroke="#c0b8a8" stroke-width="2" opacity="0.3"/>
<line x1="598.6" y1="1063.5" x2="582.6" y2="1088.1" stroke="#c0b8a8" stroke-width="2" opacity="0.3"/>
<line x1="524.1" y1="945.7" x2="524.1" y2="1018.6" stroke="#c0b8a8" stroke-width="3" opacity="0.35"/>
<circle cx="524.1" cy="905.3" r="40.5" fill="#c0b8a8" opacity="0.4"/>
<text x="759.0" y="823.0" text-anchor="end" font-size="12" font-weight="bold" fill="#888888" opacity="0.6">5</text>
<text x="765.0" y="1165.0" text-anchor="end" font-size="9" fill="#888888" opacity="0.5">MW</text>
</svg>