<svg xmlns="http://www.w3.org/2000/svg" viewBox="0 0 800 1200" width="800" height="1200" style="background:#ffffff">
<style>
  text { font-family: "Helvetica Neue", Helvetica, Arial, sans-serif; }
</style>
<text x="400.0" y="22" text-anchor="middle" font-size="16" fill="#888888" font-weight="500">PAGE 10  (5 panels)</text>
<rect x="29.0" y="59.0" width="742.0" height="364.0" rx="2" fill="#f5f0e8" stroke="#2a2a2a" stroke-width="1.5"/>
<line x1="377.7" y1="272.9" x2="311.0" y2="312.9" stroke="#b22222" stroke-width="3" opacity="0.35"/>
<line x1="311.0" y1="312.9" x2="355.5" y2="342.9" stroke="#b22222" stroke-width="3" opacity="0.35"/>
<line x1="422.3" y1="272.9" x2="511.3" y2="302.9" stroke="#b22222" stroke-width="3" opacity="0.35"/>
<line x1="511.3" y1="302.9" x2="533.6" y2="326.9" stroke="#b22222" stroke-width="3" opacity="0.35"/>
<line x1="444.5" y1="186.7" x2="386.6" y2="272.9" stroke="#b22222" stroke-width="3.5" opacity="0.4"/>
<circle cx="444.5" cy="142.7" r="20.0" fill="#b22222" opacity="0.4"/>
<line x1="422.3" y1="216.8" x2="533.6" y2="187.6" stroke="#b22222" stroke-width="2.5" opacity="0.35"/>
<line x1="422.3" y1="216.8" x2="296.1" y2="238.6" stroke="#b22222" stroke-width="2.5" opacity="0.35"/>
<path d="M422.3,206.7 Q333.2,170.3 362.9,141.2" fill="none" stroke="#b22222" stroke-width="1.5" opacity="0.25"/>
<path d="M422.3,206.7 Q511.3,170.3 481.6,141.2" fill="none" stroke="#b22222" stroke-width="1.5" opacity="0.25"/>
<line x1="607.8" y1="175.5" x2="733.9" y2="175.5" stroke="#a89888" stroke-width="1.2" opacity="0.3"/>
<line x1="607.8" y1="211.9" x2="733.9" y2="211.9" stroke="#a89888" stroke-width="1.2" opacity="0.3"/>
<line x1="607.8" y1="248.3" x2="733.9" y2="248.3" stroke="#a89888" stroke-width="1.2" opacity="0.3"/>
<line x1="607.8" y1="284.7" x2="733.9" y2="284.7" stroke="#a89888" stroke-width="1.2" opacity="0.3"/>
<line x1="66.1" y1="131.8" x2="162.6" y2="131.8" stroke="#a89888" stroke-width="1" opacity="0.2"/>
<line x1="66.1" y1="186.4" x2="162.6" y2="186.4" stroke="#a89888" stroke-width="1" opacity="0.2"/>
<line x1="66.1" y1="295.6" x2="162.6" y2="295.6" stroke="#a89888" stroke-width="1" opacity="0.2"/>
<line x1="66.1" y1="350.2" x2="162.6" y2="350.2" stroke="#a89888" stroke-width="1" opacity="0.2"/>
<rect x="35.0" y="67.0" width="193.5" height="40.0" rx="6" fill="white" stroke="#b22222" stroke-width="1.0" opacity="0.92"/>
<polygon points="93.1,107.0 101.1,107.0 90.1,115.0" fill="white" stroke="#b22222" stroke-width="0.8"/>
<line x1="92.6" y1="107.0" x2="101.6" y2="107.0" stroke="white" stroke-width="1.5"/>
<text x="41.0" y="84.0" font-size="11.0" fill="#b22222" font-weight="700">THRESH</text>
<text x="41.0" y="98.0" font-size="11.0" fill="#333333">Weapon's barely scratching it!</text>
<rect x="577.5" y="117.0" width="187.5" height="40.0" rx="6" fill="white" stroke="#2e8b57" stroke-width="1.0" opacity="0.92"/>
<polygon points="633.8,157.0 641.8,157.0 630.8,165.0" fill="white" stroke="#2e8b57" stroke-width="0.8"/>
<line x1="633.3" y1="157.0" x2="642.3" y2="157.0" stroke="white" stroke-width="1.5"/>
<text x="583.5" y="134.0" font-size="11.0" fill="#2e8b57" font-weight="700">JINK</text>
<text x="583.5" y="148.0" font-size="11.0" fill="#333333">Then let's scratch it louder!</text>
<text x="759.0" y="75.0" text-anchor="end" font-size="12" font-weight="bold" fill="#888888" opacity="0.6">1</text>
<text x="765.0" y="417.0" text-anchor="end" font-size="9" fill="#888888" opacity="0.5">DYN</text>
<rect x="29.0" y="433.0" width="366.0" height="364.0" rx="2" fill="#f5f0e8" stroke="#2a2a2a" stroke-width="1.5"/>
<path d="M110.1,706.0 Q110.1,655.0 186.5,648.7 L237.5,648.7 Q313.9,655.0 313.9,706.0 L313.9,753.3 L110.1,753.3 Z" fill="#b22222" opacity="0.25"/>
<path d="M189.7,648.7 L212.0,680.5 L234.3,648.7" fill="none" stroke="#b22222" stroke-width="1" opacity="0.3"/>
<circle cx="212.0" cy="578.6" r="63.7" fill="#b22222" opacity="0.35"/>
<path d="M148.3,591.3 Q157.9,648.7 212.0,651.9 Q266.1,648.7 275.7,591.3" fill="none" stroke="#b22222" stroke-width="1.2" opacity="0.3"/>
<path d="M145.1,572.2 Q212.0,495.8 278.9,572.2" fill="none" stroke="#b22222" stroke-width="2" opacity="0.4"/>
<ellipse cx="146.3" cy="581.8" rx="2.5" ry="4" fill="#b22222" opacity="0.25"/>
<ellipse cx="277.7" cy="581.8" rx="2.5" ry="4" fill="#b22222" opacity="0.25"/>
<rect x="35.0" y="441.0" width="354.0" height="68.0" rx="6" fill="white" stroke="#b22222" stroke-width="1.0" opacity="0.92"/>
<polygon points="141.2,509.0 149.2,509.0 138.2,517.0" fill="white" stroke="#b22222" stroke-width="0.8"/>
<line x1="140.7" y1="509.0" x2="149.7" y2="509.0" stroke="white" stroke-width="1.5"/>
<text x="41.0" y="458.0" font-size="11.0" fill="#b22222" font-weight="700">THRESH</text>
<text x="41.0" y="472.0" font-size="11.0" fill="#333333">I hate this. I hate this. I hate this.&quot; (Then, louder, into</text>
<text x="41.0" y="486.0" font-size="11.0" fill="#333333">radio) &quot;Jink, get its attention. I'll hit the sensor</text>
<text x="41.0" y="500.0" font-size="11.0" fill="#333333">cluster.</text>
<text x="383.0" y="449.0" text-anchor="end" font-size="12" font-weight="bold" fill="#888888" opacity="0.6">2</text>
<text x="389.0" y="791.0" text-anchor="end" font-size="9" fill="#888888" opacity="0.5">MCU</text>
<rect x="405.0" y="433.0" width="366.0" height="364.0" rx="2" fill="#f5f0e8" stroke="#2a2a2a" stroke-width="1.5"/>
<line x1="577.0" y1="646.9" x2="544.1" y2="686.9" stroke="#2e8b57" stroke-width="3" opacity="0.35"/>
<line x1="544.1" y1="686.9" x2="566.0" y2="716.9" stroke="#2e8b57" stroke-width="3" opacity="0.35"/>
<line x1="599.0" y1="646.9" x2="642.9" y2="676.9" stroke="#2e8b57" stroke-width="3" opacity="0.35"/>
<line x1="642.9" y1="676.9" x2="653.9" y2="700.9" stroke="#2e8b57" stroke-width="3" opacity="0.35"/>
<line x1="610.0" y1="560.7" x2="581.4" y2="646.9" stroke="#2e8b57" stroke-width="3.5" opacity="0.4"/>
<circle cx="610.0" cy="516.7" r="20.0" fill="#2e8b57" opacity="0.4"/>
<line x1="599.0" y1="590.8" x2="653.9" y2="561.6" stroke="#2e8b57" stroke-width="2.5" opacity="0.35"/>
<line x1="599.0" y1="590.8" x2="536.8" y2="612.6" stroke="#2e8b57" stroke-width="2.5" opacity="0.35"/>
<path d="M599.0,580.7 Q555.1,544.3 569.7,515.2" fill="none" stroke="#2e8b57" stroke-width="1.5" opacity="0.25"/>
<path d="M599.0,580.7 Q642.9,544.3 628.3,515.2" fill="none" stroke="#2e8b57" stroke-width="1.5" opacity="0.25"/>
<line x1="690.5" y1="549.5" x2="752.7" y2="549.5" stroke="#a89888" stroke-width="1.2" opacity="0.3"/>
<line x1="690.5" y1="585.9" x2="752.7" y2="585.9" stroke="#a89888" stroke-width="1.2" opacity="0.3"/>
<line x1="690.5" y1="622.3" x2="752.7" y2="622.3" stroke="#a89888" stroke-width="1.2" opacity="0.3"/>
<line x1="690.5" y1="658.7" x2="752.7" y2="658.7" stroke="#a89888" stroke-width="1.2" opacity="0.3"/>
<line x1="423.3" y1="505.8" x2="470.9" y2="505.8" stroke="#a89888" stroke-width="1" opacity="0.2"/>
<line x1="423.3" y1="560.4" x2="470.9" y2="560.4" stroke="#a89888" stroke-width="1" opacity="0.2"/>
<line x1="423.3" y1="669.6" x2="470.9" y2="669.6" stroke="#a89888" stroke-width="1" opacity="0.2"/>
<line x1="423.3" y1="724.2" x2="470.9" y2="724.2" stroke="#a89888" stroke-width="1" opacity="0.2"/>
<rect x="411.0" y="441.0" width="344.8" height="40.0" rx="6" fill="white" stroke="#2e8b57" stroke-width="1.0" opacity="0.92"/>
<polygon points="514.4,481.0 522.4,481.0 511.4,489.0" fill="white" stroke="#2e8b57" stroke-width="0.8"/>
<line x1="513.9" y1="481.0" x2="522.9" y2="481.0" stroke="white" stroke-width="1.5"/>
<text x="417.0" y="458.0" font-size="11.0" fill="#2e8b57" font-weight="700">JINK</text>
<text x="417.0" y="472.0" font-size="11.0" fill="#333333">Hey, ugly! Over here! Can't catch what you can't track!</text>
<text x="759.0" y="449.0" text-anchor="end" font-size="12" font-weight="bold" fill="#888888" opacity="0.6">3</text>
<text x="765.0" y="791.0" text-anchor="end" font-size="9" fill="#888888" opacity="0.5">DYN</text>
<rect x="29.0" y="807.0" width="238.2" height="364.0" rx="2" fill="#f5f0e8" stroke="#2a2a2a" stroke-width="1.5"/>
<ellipse cx="148.1" cy="959.9" rx="95.3" ry="163.8" fill="#b22222" opacity="0.18"/>
<path d="M48.1,902.5 Q148.1,771.5 248.1,902.5" fill="none" stroke="#b22222" stroke-width="3" opacity="0.35"/>
<line x1="114.7" y1="923.8" x2="143.3" y2="921.8" stroke="#a89888" stroke-width="1.5" opacity="0.45"/>
<line x1="152.8" y1="921.8" x2="181.4" y2="923.8" stroke="#a89888" stroke-width="1.5" opacity="0.45"/>
<ellipse cx="121.4" cy="940.2" rx="11.4" ry="8.2" fill="#a89888" opacity="0.45"/>
<ellipse cx="174.8" cy="940.2" rx="11.4" ry="8.2" fill="#a89888" opacity="0.45"/>
<line x1="148.1" y1="963.2" x2="148.1" y2="989.4" stroke="#a89888" stroke-width="1.2" opacity="0.35"/>
<path d="M142.4,989.4 Q148.1,992.4 153.8,989.4" fill="none" stroke="#a89888" stroke-width="1" opacity="0.3"/>
<line x1="124.3" y1="1012.3" x2="171.9" y2="1012.3" stroke="#a89888" stroke-width="1.2" opacity="0.35"/>
<rect x="35.0" y="815.0" width="62.0" height="38.0" rx="6" fill="white" stroke="#b22222" stroke-width="1.0" opacity="0.92"/>
<polygon points="53.6,853.0 61.6,853.0 50.6,861.0" fill="white" stroke="#b22222" stroke-width="0.8"/>
<line x1="53.1" y1="853.0" x2="62.1" y2="853.0" stroke="white" stroke-width="1.5"/>
<text x="41.0" y="831.0" font-size="10.0" fill="#b22222" font-weight="700">THRESH</text>
<text x="41.0" y="844.0" font-size="10.0" fill="#333333">Now.</text>
<text x="255.2" y="823.0" text-anchor="end" font-size="12" font-weight="bold" fill="#888888" opacity="0.6">4</text>
<text x="261.2" y="1165.0" text-anchor="end" font-size="9" fill="#888888" opacity="0.5">CU</text>
<rect x="277.2" y="807.0" width="493.8" height="364.0" rx="2" fill="#f5f0e8" stroke="#2a2a2a" stroke-width="1.5"/>
<path d="M465.5,1069.1 L470.8,1022.6 Q476.2,1018.6 507.9,1018.6 L540.3,1018.6 Q572.0,1018.6 577.3,1022.6 L582.6,1069.1 Z" fill="#2e8b57" opacity="0.35"/>
<line x1="470.8" y1="1044.5" x2="577.3" y2="1044.5" stroke="#2e8b57" stroke-width="1" opacity="0.3"/>
<line x1="470.8" y1="1022.6" x2="449.6" y2="1063.5" stroke="#2e8b57" stroke-width="2" opacity="0.3"/>
<line x1="449.6" y1="1063.5" x2="465.5" y2="1088.1" stroke="#2e8b57" stroke-width="2" opacity="0.3"/>
<line x1="577.3" y1="1022.6" x2="598.6" y2="1063.5" stroke="#2e8b57" stroke-width="2" opacity="0.3"/>
<line x1="598.6" y1="1063.5" x2="582.6" y2="1088.1" stroke="#2e8b57" stroke-width="2" opacity="0.3"/>
<line x1="524.1" y1="945.7" x2="524.1" y2="1018.6" stroke="#2e8b57" stroke-width="3" opacity="0.35"/>
<circle cx="524.1" cy="905.3" r="40.5" fill="#2e8b57" opacity="0.4"/>
<rect x="283.2" y="815.0" width="193.5" height="40.0" rx="6" fill="white" stroke="#2e8b57" stroke-width="1.0" opacity="0.92"/>
<polygon points="341.2,855.0 349.2,855.0 338.2,863.0" fill="white" stroke="#2e8b57" stroke-width="0.8"/>
<line x1="340.7" y1="855.0" x2="349.7" y2="855.0" stroke="white" stroke-width="1.5"/>
<text x="289.2" y="832.0" font-size="11.0" fill="#2e8b57" font-weight="700">JINK</text>
<text x="289.2" y="846.0" font-size="11.0" fill="#333333">Direct hit! It's pulling back!</text>
<rect x="674.4" y="865.0" width="90.7" height="40.0" rx="6" fill="white" stroke="#b22222" stroke-width="1.0" opacity="0.92"/>
<polygon points="701.5,905.0 709.5,905.0 698.5,913.0" fill="white" stroke="#b22222" stroke-width="0.8"/>
<line x1="701.0" y1="905.0" x2="710.0" y2="905.0" stroke="white" stroke-width="1.5"/>
<text x="680.4" y="882.0" font-size="11.0" fill="#b22222" font-weight="700">THRESH</text>
<text x="680.4" y="896.0" font-size="11.0" fill="#333333">Did I get it?</text>
<rect x="283.2" y="915.0" width="199.6" height="40.0" rx="6" fill="white" stroke="#2e8b57" stroke-width="1.0" opacity="0.92"/>
<polygon points="343.0,955.0 351.0,955.0 340.0,963.0" fill="white" stroke="#2e8b57" stroke-width="0.8"/>
<line x1="342.5" y1="955.0" x2="351.5" y2="955.0" stroke="white" stroke-width="1.5"/>
<text x="289.2" y="932.0" font-size="11.0" fill="#2e8b57" font-weight="700">JINK</text>
<text x="289.2" y="946.0" font-size="11.0" fill="#333333">You got it, Thresh. You got it.</text>
<text x="759.0" y="823.0" text-anchor="end" font-size="12" font-weight="bold" fill="#888888" opacity="0.6">5</text>
<text x="765.0" y="1165.0" text-anchor="end" font-size="9" fill="#888888" opacity="0.5">MW</text>
</svg>