<svg xmlns="http://www.w3.org/2000/svg" viewBox="0 0 800 1200" width="800" height="1200" style="background:#ffffff">
<style>
  text { font-family: "Helvetica Neue", Helvetica, Arial, sans-serif; }
</style>
<text x="400.0" y="22" text-anchor="middle" font-size="16" fill="#888888" font-weight="500">PAGE 19  (3 panels)</text>
<rect x="29.0" y="59.0" width="742.0" height="551.0" rx="2" fill="#f5f0e8" stroke="#2a2a2a" stroke-width="1.5"/>
<path d="M311.4,455.7 L319.4,383.3 Q327.5,379.3 375.5,379.3 L424.5,379.3 Q472.5,379.3 480.6,383.3 L488.6,455.7 Z" fill="#6a5acd" opacity="0.35"/>
<line x1="319.4" y1="418.5" x2="480.6" y2="418.5" stroke="#6a5acd" stroke-width="1" opacity="0.3"/>
<line x1="319.4" y1="383.3" x2="287.2" y2="445.2" stroke="#6a5acd" stroke-width="2" opacity="0.3"/>
<line x1="287.2" y1="445.2" x2="311.4" y2="482.4" stroke="#6a5acd" stroke-width="2" opacity="0.3"/>
<line x1="480.6" y1="383.3" x2="512.8" y2="445.2" stroke="#6a5acd" stroke-width="2" opacity="0.3"/>
<line x1="512.8" y1="445.2" x2="488.6" y2="482.4" stroke="#6a5acd" stroke-width="2" opacity="0.3"/>
<line x1="400.0" y1="269.0" x2="400.0" y2="379.3" stroke="#6a5acd" stroke-width="3" opacity="0.35"/>
<circle cx="400.0" cy="207.8" r="61.2" fill="#6a5acd" opacity="0.4"/>
<rect x="35.0" y="67.0" width="730.0" height="54.0" rx="6" fill="white" stroke="#6a5acd" stroke-width="1.0" opacity="0.92"/>
<polygon points="254.0,121.0 262.0,121.0 251.0,129.0" fill="white" stroke="#6a5acd" stroke-width="0.8"/>
<line x1="253.5" y1="121.0" x2="262.5" y2="121.0" stroke="white" stroke-width="1.5"/>
<text x="41.0" y="84.0" font-size="11.0" fill="#6a5acd" font-weight="700">LUMA</text>
<text x="41.0" y="98.0" font-size="11.0" fill="#333333">I can't separate my analysis from my desire to stay. I know that. I've tried. The evidence is the evidence. The bias is the</text>
<text x="41.0" y="112.0" font-size="11.0" fill="#333333">bias. Both exist.</text>
<rect x="396.0" y="131.0" width="369.0" height="40.0" rx="6" fill="white" stroke="#c87533" stroke-width="1.0" opacity="0.92"/>
<polygon points="506.7,171.0 514.7,171.0 503.7,179.0" fill="white" stroke="#c87533" stroke-width="0.8"/>
<line x1="506.2" y1="171.0" x2="515.2" y2="171.0" stroke="white" stroke-width="1.5"/>
<text x="402.0" y="148.0" font-size="11.0" fill="#c87533" font-weight="700">WREN</text>
<text x="402.0" y="162.0" font-size="11.0" fill="#333333">That's the most honest thing anyone's said on this mission.</text>
<text x="759.0" y="75.0" text-anchor="end" font-size="12" font-weight="bold" fill="#888888" opacity="0.6">1</text>
<text x="765.0" y="604.0" text-anchor="end" font-size="9" fill="#888888" opacity="0.5">MW</text>
<rect x="29.0" y="620.0" width="493.8" height="551.0" rx="2" fill="#f5f0e8" stroke="#2a2a2a" stroke-width="1.5"/>
<path d="M187.3,1016.7 L195.3,944.3 Q203.4,940.3 251.4,940.3 L300.4,940.3 Q348.4,940.3 356.5,944.3 L364.6,1016.7 Z" fill="#c0b8a8" opacity="0.35"/>
<line x1="195.3" y1="979.5" x2="356.5" y2="979.5" stroke="#c0b8a8" stroke-width="1" opacity="0.3"/>
<line x1="195.3" y1="944.3" x2="163.1" y2="1006.2" stroke="#c0b8a8" stroke-width="2" opacity="0.3"/>
<line x1="163.1" y1="1006.2" x2="187.3" y2="1043.4" stroke="#c0b8a8" stroke-width="2" opacity="0.3"/>
<line x1="356.5" y1="944.3" x2="388.7" y2="1006.2" stroke="#c0b8a8" stroke-width="2" opacity="0.3"/>
<line x1="388.7" y1="1006.2" x2="364.6" y2="1043.4" stroke="#c0b8a8" stroke-width="2" opacity="0.3"/>
<line x1="275.9" y1="830.0" x2="275.9" y2="940.3" stroke="#c0b8a8" stroke-width="3" opacity="0.35"/>
<circle cx="275.9" cy="768.8" r="61.2" fill="#c0b8a8" opacity="0.4"/>
<text x="510.8" y="636.0" text-anchor="end" font-size="12" font-weight="bold" fill="#888888" opacity="0.6">2</text>
<text x="516.8" y="1165.0" text-anchor="end" font-size="9" fill="#888888" opacity="0.5">MED</text>
<rect x="532.8" y="620.0" width="238.2" height="551.0" rx="2" fill="#f5f0e8" stroke="#2a2a2a" stroke-width="1.5"/>
<ellipse cx="651.9" cy="851.4" rx="95.3" ry="248.0" fill="#c0b8a8" opacity="0.18"/>
<path d="M551.9,764.6 Q651.9,566.3 751.9,764.6" fill="none" stroke="#c0b8a8" stroke-width="3" opacity="0.35"/>
<line x1="618.6" y1="796.9" x2="647.2" y2="794.9" stroke="#a89888" stroke-width="1.5" opacity="0.45"/>
<line x1="656.7" y1="794.9" x2="685.3" y2="796.9" stroke="#a89888" stroke-width="1.5" opacity="0.45"/>
<ellipse cx="625.2" cy="821.7" rx="11.4" ry="12.4" fill="#a89888" opacity="0.45"/>
<ellipse cx="678.6" cy="821.7" rx="11.4" ry="12.4" fill="#a89888" opacity="0.45"/>
<line x1="651.9" y1="856.4" x2="651.9" y2="896.1" stroke="#a89888" stroke-width="1.2" opacity="0.35"/>
<path d="M646.2,896.1 Q651.9,899.1 657.6,896.1" fill="none" stroke="#a89888" stroke-width="1" opacity="0.3"/>
<line x1="628.1" y1="930.8" x2="675.7" y2="930.8" stroke="#a89888" stroke-width="1.2" opacity="0.35"/>
<text x="759.0" y="636.0" text-anchor="end" font-size="12" font-weight="bold" fill="#888888" opacity="0.6">3</text>
<text x="765.0" y="1165.0" text-anchor="end" font-size="9" fill="#888888" opacity="0.5">CU</text>
</svg>