<svg xmlns="http://www.w3.org/2000/svg" viewBox="0 0 800 1200" width="800" height="1200" style="background:#ffffff">
<style>
  text { font-family: "Helvetica Neue", Helvetica, Arial, sans-serif; }
</style>
<text x="400.0" y="22" text-anchor="middle" font-size="16" fill="#888888" font-weight="500">PAGE 18  (4 panels)</text>
<rect x="29.0" y="59.0" width="366.0" height="551.0" rx="2" fill="#f5f0e8" stroke="#2a2a2a" stroke-width="1.5"/>
<path d="M106.6,411.2 Q106.6,358.5 185.6,351.9 L238.4,351.9 Q317.4,358.5 317.4,411.2 L317.4,543.9 L106.6,543.9 Z" fill="#6a5acd" opacity="0.25"/>
<path d="M188.9,351.9 L212.0,384.8 L235.1,351.9" fill="none" stroke="#6a5acd" stroke-width="1" opacity="0.3"/>
<circle cx="212.0" cy="279.4" r="65.9" fill="#6a5acd" opacity="0.35"/>
<path d="M146.1,292.6 Q156.0,351.9 212.0,355.2 Q268.0,351.9 277.9,292.6" fill="none" stroke="#6a5acd" stroke-width="1.2" opacity="0.3"/>
<path d="M142.8,272.8 Q212.0,193.8 281.2,272.8" fill="none" stroke="#6a5acd" stroke-width="2" opacity="0.4"/>
<ellipse cx="144.1" cy="282.7" rx="2.5" ry="4" fill="#6a5acd" opacity="0.25"/>
<ellipse cx="279.9" cy="282.7" rx="2.5" ry="4" fill="#6a5acd" opacity="0.25"/>
<rect x="35.0" y="67.0" width="354.0" height="138.0" rx="6" fill="white" stroke="#6a5acd" stroke-width="1.0" opacity="0.92"/>
<polygon points="141.2,205.0 149.2,205.0 138.2,213.0" fill="white" stroke="#6a5acd" stroke-width="0.8"/>
<line x1="140.7" y1="205.0" x2="149.7" y2="205.0" stroke="white" stroke-width="1.5"/>
<text x="41.0" y="84.0" font-size="11.0" fill="#6a5acd" font-weight="700">LUMA</text>
<text x="41.0" y="98.0" font-size="11.0" fill="#333333">The convergence point isn't technological. It's narrative.</text>
<text x="41.0" y="112.0" font-size="11.0" fill="#333333">What humanity believes about the unknown — about fairies,</text>
<text x="41.0" y="126.0" font-size="11.0" fill="#333333">about monsters, about wonder and fear — shapes the</text>
<text x="41.0" y="140.0" font-size="11.0" fill="#333333">civilization they become. Those beliefs are set here, now,</text>
<text x="41.0" y="154.0" font-size="11.0" fill="#333333">in these stories. Our stories. The mission isn't to change</text>
<text x="41.0" y="168.0" font-size="11.0" fill="#333333">an event. The mission is to be here. To be the fairies in</text>
<text x="41.0" y="182.0" font-size="11.0" fill="#333333">the fairy tales. To be what they see. That's the</text>
<text x="41.0" y="196.0" font-size="11.0" fill="#333333">intervention. That's what 'STAY' means.</text>
<text x="383.0" y="75.0" text-anchor="end" font-size="12" font-weight="bold" fill="#888888" opacity="0.6">1</text>
<text x="389.0" y="604.0" text-anchor="end" font-size="9" fill="#888888" opacity="0.5">MCU</text>
<rect x="405.0" y="59.0" width="366.0" height="551.0" rx="2" fill="#f5f0e8" stroke="#2a2a2a" stroke-width="1.5"/>
<path d="M517.5,455.7 L524.0,348.1 Q530.4,344.1 568.5,344.1 L607.5,344.1 Q645.6,344.1 652.0,348.1 L658.5,455.7 Z" fill="#b22222" opacity="0.35"/>
<line x1="524.0" y1="418.5" x2="652.0" y2="418.5" stroke="#b22222" stroke-width="1" opacity="0.3"/>
<line x1="524.0" y1="348.1" x2="498.3" y2="410.1" stroke="#b22222" stroke-width="2" opacity="0.3"/>
<line x1="498.3" y1="410.1" x2="517.5" y2="447.2" stroke="#b22222" stroke-width="2" opacity="0.3"/>
<line x1="652.0" y1="348.1" x2="677.7" y2="410.1" stroke="#b22222" stroke-width="2" opacity="0.3"/>
<line x1="677.7" y1="410.1" x2="658.5" y2="447.2" stroke="#b22222" stroke-width="2" opacity="0.3"/>
<line x1="588.0" y1="256.4" x2="588.0" y2="344.1" stroke="#b22222" stroke-width="3" opacity="0.35"/>
<circle cx="588.0" cy="207.8" r="48.7" fill="#b22222" opacity="0.4"/>
<rect x="411.0" y="67.0" width="278.2" height="40.0" rx="6" fill="white" stroke="#b22222" stroke-width="1.0" opacity="0.92"/>
<polygon points="494.5,107.0 502.5,107.0 491.5,115.0" fill="white" stroke="#b22222" stroke-width="0.8"/>
<line x1="494.0" y1="107.0" x2="503.0" y2="107.0" stroke="white" stroke-width="1.5"/>
<text x="417.0" y="84.0" font-size="11.0" fill="#b22222" font-weight="700">THRESH</text>
<text x="417.0" y="98.0" font-size="11.0" fill="#333333">I don't want to stay.&quot; (A beat.) &quot;I'll stay.</text>
<text x="759.0" y="75.0" text-anchor="end" font-size="12" font-weight="bold" fill="#888888" opacity="0.6">2</text>
<text x="765.0" y="604.0" text-anchor="end" font-size="9" fill="#888888" opacity="0.5">MED</text>
<rect x="29.0" y="620.0" width="742.0" height="551.0" rx="2" fill="#f5f0e8" stroke="#2a2a2a" stroke-width="1.5"/>
<line x1="35.0" y1="1049.8" x2="765.0" y2="1049.8" stroke="#a89888" stroke-width="1.0" opacity="0.5"/>
<ellipse cx="276.3" cy="1051.8" rx="11.2" ry="2.7" fill="#a89888" opacity="0.2"/>
<line x1="273.6" y1="1034.0" x2="269.6" y2="1049.8" stroke="#c87533" stroke-width="2" opacity="0.5"/>
<line x1="279.0" y1="1034.0" x2="283.1" y2="1049.8" stroke="#c87533" stroke-width="2" opacity="0.5"/>
<line x1="276.3" y1="1021.0" x2="276.3" y2="1034.0" stroke="#c87533" stroke-width="2.5" opacity="0.6"/>
<line x1="262.8" y1="1023.0" x2="289.8" y2="1023.0" stroke="#c87533" stroke-width="2" opacity="0.5"/>
<line x1="262.8" y1="1023.0" x2="258.3" y2="1034.5" stroke="#c87533" stroke-width="1.5" opacity="0.4"/>
<line x1="289.8" y1="1023.0" x2="294.3" y2="1034.5" stroke="#c87533" stroke-width="1.5" opacity="0.4"/>
<circle cx="276.3" cy="1004.8" r="8.1" fill="#c87533" opacity="0.6"/>
<ellipse cx="523.7" cy="1051.8" rx="11.2" ry="2.7" fill="#a89888" opacity="0.2"/>
<line x1="521.0" y1="1034.0" x2="516.9" y2="1049.8" stroke="#6a5acd" stroke-width="2" opacity="0.5"/>
<line x1="526.4" y1="1034.0" x2="530.4" y2="1049.8" stroke="#6a5acd" stroke-width="2" opacity="0.5"/>
<line x1="523.7" y1="1021.0" x2="523.7" y2="1034.0" stroke="#6a5acd" stroke-width="2.5" opacity="0.6"/>
<line x1="510.2" y1="1023.0" x2="537.2" y2="1023.0" stroke="#6a5acd" stroke-width="2" opacity="0.5"/>
<line x1="510.2" y1="1023.0" x2="505.7" y2="1034.5" stroke="#6a5acd" stroke-width="1.5" opacity="0.4"/>
<line x1="537.2" y1="1023.0" x2="541.7" y2="1034.5" stroke="#6a5acd" stroke-width="1.5" opacity="0.4"/>
<circle cx="523.7" cy="1004.8" r="8.1" fill="#6a5acd" opacity="0.6"/>
<rect x="35.0" y="628.0" width="730.0" height="40.0" rx="6" fill="white" stroke="#c87533" stroke-width="1.0" opacity="0.92"/>
<polygon points="254.0,668.0 262.0,668.0 251.0,676.0" fill="white" stroke="#c87533" stroke-width="0.8"/>
<line x1="253.5" y1="668.0" x2="262.5" y2="668.0" stroke="white" stroke-width="1.5"/>
<text x="41.0" y="645.0" font-size="11.0" fill="#c87533" font-weight="700">WREN</text>
<text x="41.0" y="659.0" font-size="11.0" fill="#333333">The telegraph carries stories. Stories shape beliefs. Beliefs shape civilizations.&quot; (A pause.) &quot;I hate that this makes sense.</text>
<rect x="703.0" y="678.0" width="62.0" height="40.0" rx="6" fill="white" stroke="#6a5acd" stroke-width="1.0" opacity="0.92"/>
<polygon points="721.6,718.0 729.6,718.0 718.6,726.0" fill="white" stroke="#6a5acd" stroke-width="0.8"/>
<line x1="721.1" y1="718.0" x2="730.1" y2="718.0" stroke="white" stroke-width="1.5"/>
<text x="709.0" y="695.0" font-size="11.0" fill="#6a5acd" font-weight="700">LUMA</text>
<text x="709.0" y="709.0" font-size="11.0" fill="#333333">I know.</text>
<text x="759.0" y="636.0" text-anchor="end" font-size="12" font-weight="bold" fill="#888888" opacity="0.6">3</text>
<text x="765.0" y="1165.0" text-anchor="end" font-size="9" fill="#888888" opacity="0.5">WIDE</text>
</svg>