<svg xmlns="http://www.w3.org/2000/svg" viewBox="0 0 800 1200" width="800" height="1200" style="background:#ffffff">
<style>
  text { font-family: "Helvetica Neue", Helvetica, Arial, sans-serif; }
</style>
<text x="400.0" y="22" text-anchor="middle" font-size="16" fill="#888888" font-weight="500">PAGE 12  (4 panels)</text>
<rect x="29.0" y="59.0" width="742.0" height="551.0" rx="2" fill="#f5f0e8" stroke="#2a2a2a" stroke-width="1.5"/>
<line x1="35.0" y1="488.8" x2="765.0" y2="488.8" stroke="#a89888" stroke-width="1.0" opacity="0.5"/>
<ellipse cx="214.5" cy="490.8" rx="11.2" ry="2.7" fill="#a89888" opacity="0.2"/>
<line x1="211.8" y1="473.0" x2="207.8" y2="488.8" stroke="#2e8b57" stroke-width="2" opacity="0.5"/>
<line x1="217.2" y1="473.0" x2="221.2" y2="488.8" stroke="#2e8b57" stroke-width="2" opacity="0.5"/>
<line x1="214.5" y1="460.0" x2="214.5" y2="473.0" stroke="#2e8b57" stroke-width="2.5" opacity="0.6"/>
<line x1="201.0" y1="462.0" x2="228.0" y2="462.0" stroke="#2e8b57" stroke-width="2" opacity="0.5"/>
<line x1="201.0" y1="462.0" x2="196.5" y2="473.5" stroke="#2e8b57" stroke-width="1.5" opacity="0.4"/>
<line x1="228.0" y1="462.0" x2="232.5" y2="473.5" stroke="#2e8b57" stroke-width="1.5" opacity="0.4"/>
<circle cx="214.5" cy="443.8" r="8.1" fill="#2e8b57" opacity="0.6"/>
<ellipse cx="400.0" cy="490.8" rx="11.2" ry="2.7" fill="#a89888" opacity="0.2"/>
<line x1="397.3" y1="473.0" x2="393.2" y2="488.8" stroke="#c87533" stroke-width="2" opacity="0.5"/>
<line x1="402.7" y1="473.0" x2="406.8" y2="488.8" stroke="#c87533" stroke-width="2" opacity="0.5"/>
<line x1="400.0" y1="460.0" x2="400.0" y2="473.0" stroke="#c87533" stroke-width="2.5" opacity="0.6"/>
<line x1="386.5" y1="462.0" x2="413.5" y2="462.0" stroke="#c87533" stroke-width="2" opacity="0.5"/>
<line x1="386.5" y1="462.0" x2="382.0" y2="473.5" stroke="#c87533" stroke-width="1.5" opacity="0.4"/>
<line x1="413.5" y1="462.0" x2="418.0" y2="473.5" stroke="#c87533" stroke-width="1.5" opacity="0.4"/>
<circle cx="400.0" cy="443.8" r="8.1" fill="#c87533" opacity="0.6"/>
<ellipse cx="585.5" cy="490.8" rx="11.2" ry="2.7" fill="#a89888" opacity="0.2"/>
<line x1="582.8" y1="473.0" x2="578.8" y2="488.8" stroke="#c49a6c" stroke-width="2" opacity="0.5"/>
<line x1="588.2" y1="473.0" x2="592.2" y2="488.8" stroke="#c49a6c" stroke-width="2" opacity="0.5"/>
<line x1="585.5" y1="460.0" x2="585.5" y2="473.0" stroke="#c49a6c" stroke-width="2.5" opacity="0.6"/>
<line x1="572.0" y1="462.0" x2="599.0" y2="462.0" stroke="#c49a6c" stroke-width="2" opacity="0.5"/>
<line x1="572.0" y1="462.0" x2="567.5" y2="473.5" stroke="#c49a6c" stroke-width="1.5" opacity="0.4"/>
<line x1="599.0" y1="462.0" x2="603.5" y2="473.5" stroke="#c49a6c" stroke-width="1.5" opacity="0.4"/>
<circle cx="585.5" cy="443.8" r="8.1" fill="#c49a6c" opacity="0.6"/>
<rect x="35.0" y="67.0" width="163.2" height="40.0" rx="6" fill="white" stroke="#2e8b57" stroke-width="1.0" opacity="0.92"/>
<polygon points="84.0,107.0 92.0,107.0 81.0,115.0" fill="white" stroke="#2e8b57" stroke-width="0.8"/>
<line x1="83.5" y1="107.0" x2="92.5" y2="107.0" stroke="white" stroke-width="1.5"/>
<text x="41.0" y="84.0" font-size="11.0" fill="#2e8b57" font-weight="700">JINK</text>
<text x="41.0" y="98.0" font-size="11.0" fill="#333333">I'm here. Projecting now.</text>
<rect x="35.0" y="117.0" width="730.0" height="54.0" rx="6" fill="white" stroke="#c87533" stroke-width="1.0" opacity="0.92"/>
<polygon points="254.0,171.0 262.0,171.0 251.0,179.0" fill="white" stroke="#c87533" stroke-width="0.8"/>
<line x1="253.5" y1="171.0" x2="262.5" y2="171.0" stroke="white" stroke-width="1.5"/>
<text x="41.0" y="134.0" font-size="11.0" fill="#c87533" font-weight="700">WREN</text>
<text x="41.0" y="148.0" font-size="11.0" fill="#333333">Theodore. Seven connections, same as the satellites. The crystalline nodes are the interface points. They respond to pressure</text>
<text x="41.0" y="162.0" font-size="11.0" fill="#333333">and rotation — like unscrewing a jewel from a setting. Your clockwork training. Use it.</text>
<rect x="35.0" y="181.0" width="296.4" height="40.0" rx="6" fill="white" stroke="#c49a6c" stroke-width="1.0" opacity="0.92"/>
<polygon points="123.9,221.0 131.9,221.0 120.9,229.0" fill="white" stroke="#c49a6c" stroke-width="0.8"/>
<line x1="123.4" y1="221.0" x2="132.4" y2="221.0" stroke="white" stroke-width="1.5"/>
<text x="41.0" y="198.0" font-size="11.0" fill="#c49a6c" font-weight="700">THEODORE</text>
<text x="41.0" y="212.0" font-size="11.0" fill="#333333">I see them. Seven nodes. Pressure and rotation.</text>
<text x="759.0" y="75.0" text-anchor="end" font-size="12" font-weight="bold" fill="#888888" opacity="0.6">1</text>
<text x="765.0" y="604.0" text-anchor="end" font-size="9" fill="#888888" opacity="0.5">WIDE</text>
<rect x="29.0" y="620.0" width="240.7" height="551.0" rx="2" fill="#f5f0e8" stroke="#2a2a2a" stroke-width="1.5"/>
<ellipse cx="149.3" cy="851.4" rx="96.3" ry="248.0" fill="#b0b0b0" opacity="0.18"/>
<path d="M48.3,764.6 Q149.3,566.3 250.4,764.6" fill="none" stroke="#b0b0b0" stroke-width="3" opacity="0.35"/>
<line x1="115.6" y1="796.9" x2="144.5" y2="794.9" stroke="#a89888" stroke-width="1.5" opacity="0.45"/>
<line x1="154.1" y1="794.9" x2="183.0" y2="796.9" stroke="#a89888" stroke-width="1.5" opacity="0.45"/>
<ellipse cx="122.4" cy="821.7" rx="11.6" ry="12.4" fill="#a89888" opacity="0.45"/>
<ellipse cx="176.3" cy="821.7" rx="11.6" ry="12.4" fill="#a89888" opacity="0.45"/>
<line x1="149.3" y1="856.4" x2="149.3" y2="896.1" stroke="#a89888" stroke-width="1.2" opacity="0.35"/>
<path d="M143.6,896.1 Q149.3,899.1 155.1,896.1" fill="none" stroke="#a89888" stroke-width="1" opacity="0.3"/>
<line x1="125.3" y1="930.8" x2="173.4" y2="930.8" stroke="#a89888" stroke-width="1.2" opacity="0.35"/>
<rect x="35.0" y="628.0" width="182.5" height="51.0" rx="6" fill="white" stroke="#b0b0b0" stroke-width="1.0" opacity="0.92"/>
<polygon points="89.8,679.0 97.8,679.0 86.8,687.0" fill="white" stroke="#b0b0b0" stroke-width="0.8"/>
<line x1="89.2" y1="679.0" x2="98.2" y2="679.0" stroke="white" stroke-width="1.5"/>
<text x="41.0" y="644.0" font-size="10.0" fill="#b0b0b0" font-weight="700">SABLE</text>
<text x="41.0" y="657.0" font-size="10.0" fill="#333333">Theodore, the satellites are</text>
<text x="41.0" y="670.0" font-size="10.0" fill="#333333">reactivating. You have minutes.</text>
<rect x="185.7" y="689.0" width="78.0" height="38.0" rx="6" fill="white" stroke="#c49a6c" stroke-width="1.0" opacity="0.92"/>
<polygon points="209.1,727.0 217.1,727.0 206.1,735.0" fill="white" stroke="#c49a6c" stroke-width="0.8"/>
<line x1="208.6" y1="727.0" x2="217.6" y2="727.0" stroke="white" stroke-width="1.5"/>
<text x="191.7" y="705.0" font-size="10.0" fill="#c49a6c" font-weight="700">THEODORE</text>
<text x="191.7" y="718.0" font-size="10.0" fill="#333333">I'm working.</text>
<text x="257.7" y="636.0" text-anchor="end" font-size="12" font-weight="bold" fill="#888888" opacity="0.6">2</text>
<text x="263.7" y="1165.0" text-anchor="end" font-size="9" fill="#888888" opacity="0.5">CU</text>
<rect x="279.7" y="620.0" width="240.7" height="551.0" rx="2" fill="#f5f0e8" stroke="#2a2a2a" stroke-width="1.5"/>
<ellipse cx="400.0" cy="851.4" rx="96.3" ry="248.0" fill="#c87533" opacity="0.18"/>
<path d="M298.9,764.6 Q400.0,566.3 501.1,764.6" fill="none" stroke="#c87533" stroke-width="3" opacity="0.35"/>
<line x1="366.3" y1="796.9" x2="395.2" y2="794.9" stroke="#a89888" stroke-width="1.5" opacity="0.45"/>
<line x1="404.8" y1="794.9" x2="433.7" y2="796.9" stroke="#a89888" stroke-width="1.5" opacity="0.45"/>
<ellipse cx="373.0" cy="821.7" rx="11.6" ry="12.4" fill="#a89888" opacity="0.45"/>
<ellipse cx="427.0" cy="821.7" rx="11.6" ry="12.4" fill="#a89888" opacity="0.45"/>
<line x1="400.0" y1="856.4" x2="400.0" y2="896.1" stroke="#a89888" stroke-width="1.2" opacity="0.35"/>
<path d="M394.2,896.1 Q400.0,899.1 405.8,896.1" fill="none" stroke="#a89888" stroke-width="1" opacity="0.3"/>
<line x1="375.9" y1="930.8" x2="424.1" y2="930.8" stroke="#a89888" stroke-width="1.2" opacity="0.35"/>
<rect x="285.7" y="628.0" width="204.5" height="64.0" rx="6" fill="white" stroke="#c87533" stroke-width="1.0" opacity="0.92"/>
<polygon points="347.0,692.0 355.0,692.0 344.0,700.0" fill="white" stroke="#c87533" stroke-width="0.8"/>
<line x1="346.5" y1="692.0" x2="355.5" y2="692.0" stroke="white" stroke-width="1.5"/>
<text x="291.7" y="644.0" font-size="10.0" fill="#c87533" font-weight="700">WREN</text>
<text x="291.7" y="657.0" font-size="10.0" fill="#333333">First node. Quarter-turn</text>
<text x="291.7" y="670.0" font-size="10.0" fill="#333333">counterclockwise, then pull. Like a</text>
<text x="291.7" y="683.0" font-size="10.0" fill="#333333">mainspring retainer.</text>
<rect x="298.8" y="702.0" width="215.5" height="51.0" rx="6" fill="white" stroke="#c49a6c" stroke-width="1.0" opacity="0.92"/>
<polygon points="363.5,753.0 371.5,753.0 360.5,761.0" fill="white" stroke="#c49a6c" stroke-width="0.8"/>
<line x1="363.0" y1="753.0" x2="372.0" y2="753.0" stroke="white" stroke-width="1.5"/>
<text x="304.8" y="718.0" font-size="10.0" fill="#c49a6c" font-weight="700">THEODORE</text>
<text x="304.8" y="731.0" font-size="10.0" fill="#333333">Like a mainspring retainer.&quot; (A beat)</text>
<text x="304.8" y="744.0" font-size="10.0" fill="#333333">&quot;Got it. First node free.</text>
<text x="508.3" y="636.0" text-anchor="end" font-size="12" font-weight="bold" fill="#888888" opacity="0.6">3</text>
<text x="514.3" y="1165.0" text-anchor="end" font-size="9" fill="#888888" opacity="0.5">ECU</text>
<rect x="530.3" y="620.0" width="240.7" height="551.0" rx="2" fill="#f5f0e8" stroke="#2a2a2a" stroke-width="1.5"/>
<path d="M581.4,927.0 Q581.4,892.4 633.3,888.1 L668.0,888.1 Q720.0,892.4 720.0,927.0 L720.0,1104.9 L581.4,1104.9 Z" fill="#2e8b57" opacity="0.25"/>
<path d="M635.5,888.1 L650.7,909.7 L665.8,888.1" fill="none" stroke="#2e8b57" stroke-width="1" opacity="0.3"/>
<circle cx="650.7" cy="840.4" r="43.3" fill="#2e8b57" opacity="0.35"/>
<path d="M607.3,849.1 Q613.8,888.1 650.7,890.2 Q687.5,888.1 694.0,849.1" fill="none" stroke="#2e8b57" stroke-width="1.2" opacity="0.3"/>
<path d="M605.2,836.1 Q650.7,784.1 696.2,836.1" fill="none" stroke="#2e8b57" stroke-width="2" opacity="0.4"/>
<ellipse cx="605.3" cy="842.6" rx="2.5" ry="4" fill="#2e8b57" opacity="0.25"/>
<ellipse cx="696.0" cy="842.6" rx="2.5" ry="4" fill="#2e8b57" opacity="0.25"/>
<rect x="536.3" y="628.0" width="182.5" height="38.0" rx="6" fill="white" stroke="#2e8b57" stroke-width="1.0" opacity="0.92"/>
<polygon points="591.1,666.0 599.1,666.0 588.1,674.0" fill="white" stroke="#2e8b57" stroke-width="0.8"/>
<line x1="590.6" y1="666.0" x2="599.6" y2="666.0" stroke="white" stroke-width="1.5"/>
<text x="542.3" y="644.0" font-size="10.0" fill="#2e8b57" font-weight="700">JINK</text>
<text x="542.3" y="657.0" font-size="10.0" fill="#333333">Come on, mate. You've got this.</text>
<text x="759.0" y="636.0" text-anchor="end" font-size="12" font-weight="bold" fill="#888888" opacity="0.6">4</text>
<text x="765.0" y="1165.0" text-anchor="end" font-size="9" fill="#888888" opacity="0.5">MCU</text>
</svg>