<svg xmlns="http://www.w3.org/2000/svg" viewBox="0 0 800 1200" width="800" height="1200" style="background:#ffffff">
<style>
  text { font-family: "Helvetica Neue", Helvetica, Arial, sans-serif; }
</style>
<text x="400.0" y="22" text-anchor="middle" font-size="16" fill="#888888" font-weight="500">PAGE 9  (5 panels)</text>
<rect x="29.0" y="59.0" width="493.8" height="738.0" rx="2" fill="#f5f0e8" stroke="#2a2a2a" stroke-width="1.5"/>
<line x1="261.1" y1="492.6" x2="216.7" y2="573.8" stroke="#b22222" stroke-width="3" opacity="0.35"/>
<line x1="216.7" y1="573.8" x2="246.3" y2="634.6" stroke="#b22222" stroke-width="3" opacity="0.35"/>
<line x1="290.7" y1="492.6" x2="350.0" y2="553.5" stroke="#b22222" stroke-width="3" opacity="0.35"/>
<line x1="350.0" y1="553.5" x2="364.8" y2="602.2" stroke="#b22222" stroke-width="3" opacity="0.35"/>
<line x1="305.6" y1="272.7" x2="267.0" y2="492.6" stroke="#b22222" stroke-width="3.5" opacity="0.4"/>
<circle cx="305.6" cy="228.7" r="20.0" fill="#b22222" opacity="0.4"/>
<line x1="290.7" y1="333.6" x2="364.8" y2="274.6" stroke="#b22222" stroke-width="2.5" opacity="0.35"/>
<line x1="290.7" y1="333.6" x2="206.8" y2="377.9" stroke="#b22222" stroke-width="2.5" opacity="0.35"/>
<path d="M290.7,313.3 Q231.5,239.5 251.2,180.5" fill="none" stroke="#b22222" stroke-width="1.5" opacity="0.25"/>
<path d="M290.7,313.3 Q350.0,239.5 330.2,180.5" fill="none" stroke="#b22222" stroke-width="1.5" opacity="0.25"/>
<line x1="414.2" y1="295.2" x2="498.1" y2="295.2" stroke="#a89888" stroke-width="1.2" opacity="0.3"/>
<line x1="414.2" y1="369.0" x2="498.1" y2="369.0" stroke="#a89888" stroke-width="1.2" opacity="0.3"/>
<line x1="414.2" y1="442.8" x2="498.1" y2="442.8" stroke="#a89888" stroke-width="1.2" opacity="0.3"/>
<line x1="414.2" y1="516.6" x2="498.1" y2="516.6" stroke="#a89888" stroke-width="1.2" opacity="0.3"/>
<line x1="53.7" y1="206.6" x2="117.9" y2="206.6" stroke="#a89888" stroke-width="1" opacity="0.2"/>
<line x1="53.7" y1="317.3" x2="117.9" y2="317.3" stroke="#a89888" stroke-width="1" opacity="0.2"/>
<line x1="53.7" y1="538.7" x2="117.9" y2="538.7" stroke="#a89888" stroke-width="1" opacity="0.2"/>
<line x1="53.7" y1="649.4" x2="117.9" y2="649.4" stroke="#a89888" stroke-width="1" opacity="0.2"/>
<rect x="35.0" y="67.0" width="459.7" height="40.0" rx="6" fill="white" stroke="#b22222" stroke-width="1.0" opacity="0.92"/>
<polygon points="172.9,107.0 180.9,107.0 169.9,115.0" fill="white" stroke="#b22222" stroke-width="0.8"/>
<line x1="172.4" y1="107.0" x2="181.4" y2="107.0" stroke="white" stroke-width="1.5"/>
<text x="41.0" y="84.0" font-size="11.0" fill="#b22222" font-weight="700">THRESH</text>
<text x="41.0" y="98.0" font-size="11.0" fill="#333333">CONTACT! Drone! In the basement! It was on the ceiling — it's activating —</text>
<rect x="238.6" y="117.0" width="278.2" height="40.0" rx="6" fill="white" stroke="#b0b0b0" stroke-width="1.0" opacity="0.92"/>
<polygon points="322.1,157.0 330.1,157.0 319.1,165.0" fill="white" stroke="#b0b0b0" stroke-width="0.8"/>
<line x1="321.6" y1="157.0" x2="330.6" y2="157.0" stroke="white" stroke-width="1.5"/>
<text x="244.6" y="134.0" font-size="11.0" fill="#b0b0b0" font-weight="700">SABLE</text>
<text x="244.6" y="148.0" font-size="11.0" fill="#333333">All teams — Thresh is engaged. Jink, divert!</text>
<text x="510.8" y="75.0" text-anchor="end" font-size="12" font-weight="bold" fill="#888888" opacity="0.6">1</text>
<text x="516.8" y="791.0" text-anchor="end" font-size="9" fill="#888888" opacity="0.5">SPLASH</text>
<rect x="532.8" y="59.0" width="238.2" height="738.0" rx="2" fill="#f5f0e8" stroke="#2a2a2a" stroke-width="1.5"/>
<ellipse cx="651.9" cy="369.0" rx="95.3" ry="332.1" fill="#b0b0b0" opacity="0.18"/>
<path d="M551.9,252.7 Q651.9,-13.0 751.9,252.7" fill="none" stroke="#b0b0b0" stroke-width="3" opacity="0.35"/>
<line x1="618.6" y1="295.9" x2="647.2" y2="293.9" stroke="#a89888" stroke-width="1.5" opacity="0.45"/>
<line x1="656.7" y1="293.9" x2="685.3" y2="295.9" stroke="#a89888" stroke-width="1.5" opacity="0.45"/>
<ellipse cx="625.2" cy="329.1" rx="11.4" ry="16.6" fill="#a89888" opacity="0.45"/>
<ellipse cx="678.6" cy="329.1" rx="11.4" ry="16.6" fill="#a89888" opacity="0.45"/>
<line x1="651.9" y1="375.6" x2="651.9" y2="428.7" stroke="#a89888" stroke-width="1.2" opacity="0.35"/>
<path d="M646.2,428.7 Q651.9,431.7 657.6,428.7" fill="none" stroke="#a89888" stroke-width="1" opacity="0.3"/>
<line x1="628.1" y1="475.2" x2="675.7" y2="475.2" stroke="#a89888" stroke-width="1.2" opacity="0.35"/>
<rect x="538.8" y="67.0" width="226.2" height="64.0" rx="6" fill="white" stroke="#b0b0b0" stroke-width="1.0" opacity="0.92"/>
<polygon points="606.7,131.0 614.7,131.0 603.7,139.0" fill="white" stroke="#b0b0b0" stroke-width="0.8"/>
<line x1="606.2" y1="131.0" x2="615.2" y2="131.0" stroke="white" stroke-width="1.5"/>
<text x="544.8" y="83.0" font-size="10.0" fill="#b0b0b0" font-weight="700">SABLE</text>
<text x="544.8" y="96.0" font-size="10.0" fill="#333333">Jink, divert to Basement Charlie. Support</text>
<text x="544.8" y="109.0" font-size="10.0" fill="#333333">Thresh. Wren, what does this do to the</text>
<text x="544.8" y="122.0" font-size="10.0" fill="#333333">network?</text>
<rect x="538.8" y="141.0" width="226.2" height="64.0" rx="6" fill="white" stroke="#c87533" stroke-width="1.0" opacity="0.92"/>
<polygon points="606.7,205.0 614.7,205.0 603.7,213.0" fill="white" stroke="#c87533" stroke-width="0.8"/>
<line x1="606.2" y1="205.0" x2="615.2" y2="205.0" stroke="white" stroke-width="1.5"/>
<text x="544.8" y="157.0" font-size="10.0" fill="#c87533" font-weight="700">WREN</text>
<text x="544.8" y="170.0" font-size="10.0" fill="#333333">The fifth device is still active. If the</text>
<text x="544.8" y="183.0" font-size="10.0" fill="#333333">drone is a guardian, it may try to</text>
<text x="544.8" y="196.0" font-size="10.0" fill="#333333">reactivate the satellite nodes.</text>
<text x="759.0" y="75.0" text-anchor="end" font-size="12" font-weight="bold" fill="#888888" opacity="0.6">2</text>
<text x="765.0" y="791.0" text-anchor="end" font-size="9" fill="#888888" opacity="0.5">CU</text>
<rect x="29.0" y="807.0" width="366.0" height="364.0" rx="2" fill="#f5f0e8" stroke="#2a2a2a" stroke-width="1.5"/>
<path d="M153.4,1069.1 L158.8,1022.6 Q164.1,1018.6 195.8,1018.6 L228.2,1018.6 Q259.9,1018.6 265.2,1022.6 L270.6,1069.1 Z" fill="#2e8b57" opacity="0.35"/>
<line x1="158.8" y1="1044.5" x2="265.2" y2="1044.5" stroke="#2e8b57" stroke-width="1" opacity="0.3"/>
<line x1="158.8" y1="1022.6" x2="137.5" y2="1063.5" stroke="#2e8b57" stroke-width="2" opacity="0.3"/>
<line x1="137.5" y1="1063.5" x2="153.4" y2="1088.1" stroke="#2e8b57" stroke-width="2" opacity="0.3"/>
<line x1="265.2" y1="1022.6" x2="286.5" y2="1063.5" stroke="#2e8b57" stroke-width="2" opacity="0.3"/>
<line x1="286.5" y1="1063.5" x2="270.6" y2="1088.1" stroke="#2e8b57" stroke-width="2" opacity="0.3"/>
<line x1="212.0" y1="945.7" x2="212.0" y2="1018.6" stroke="#2e8b57" stroke-width="3" opacity="0.35"/>
<circle cx="212.0" cy="905.3" r="40.5" fill="#2e8b57" opacity="0.4"/>
<rect x="35.0" y="815.0" width="181.4" height="40.0" rx="6" fill="white" stroke="#2e8b57" stroke-width="1.0" opacity="0.92"/>
<polygon points="89.4,855.0 97.4,855.0 86.4,863.0" fill="white" stroke="#2e8b57" stroke-width="0.8"/>
<line x1="88.9" y1="855.0" x2="97.9" y2="855.0" stroke="white" stroke-width="1.5"/>
<text x="41.0" y="832.0" font-size="11.0" fill="#2e8b57" font-weight="700">JINK</text>
<text x="41.0" y="846.0" font-size="11.0" fill="#333333">I'm coming, Thresh. Hold on.</text>
<text x="383.0" y="823.0" text-anchor="end" font-size="12" font-weight="bold" fill="#888888" opacity="0.6">3</text>
<text x="389.0" y="1165.0" text-anchor="end" font-size="9" fill="#888888" opacity="0.5">MED</text>
<rect x="405.0" y="807.0" width="366.0" height="364.0" rx="2" fill="#f5f0e8" stroke="#2a2a2a" stroke-width="1.5"/>
<ellipse cx="588.0" cy="959.9" rx="114.7" ry="163.8" fill="#c49a6c" opacity="0.18"/>
<path d="M467.6,902.5 Q588.0,771.5 708.4,902.5" fill="none" stroke="#c49a6c" stroke-width="3" opacity="0.35"/>
<line x1="547.9" y1="923.8" x2="582.3" y2="921.8" stroke="#a89888" stroke-width="1.5" opacity="0.45"/>
<line x1="593.7" y1="921.8" x2="628.1" y2="923.8" stroke="#a89888" stroke-width="1.5" opacity="0.45"/>
<ellipse cx="555.9" cy="940.2" rx="13.8" ry="8.2" fill="#a89888" opacity="0.45"/>
<ellipse cx="620.1" cy="940.2" rx="13.8" ry="8.2" fill="#a89888" opacity="0.45"/>
<line x1="588.0" y1="963.2" x2="588.0" y2="989.4" stroke="#a89888" stroke-width="1.2" opacity="0.35"/>
<path d="M581.1,989.4 Q588.0,992.4 594.9,989.4" fill="none" stroke="#a89888" stroke-width="1" opacity="0.3"/>
<line x1="559.3" y1="1012.3" x2="616.7" y2="1012.3" stroke="#a89888" stroke-width="1.2" opacity="0.35"/>
<rect x="411.0" y="815.0" width="354.0" height="40.0" rx="6" fill="white" stroke="#c49a6c" stroke-width="1.0" opacity="0.92"/>
<polygon points="517.2,855.0 525.2,855.0 514.2,863.0" fill="white" stroke="#c49a6c" stroke-width="0.8"/>
<line x1="516.7" y1="855.0" x2="525.7" y2="855.0" stroke="white" stroke-width="1.5"/>
<text x="417.0" y="832.0" font-size="11.0" fill="#c49a6c" font-weight="700">THEODORE</text>
<text x="417.0" y="846.0" font-size="11.0" fill="#333333">What's happening? Jink's gone. I heard — is someone hurt?</text>
<rect x="432.3" y="865.0" width="332.7" height="40.0" rx="6" fill="white" stroke="#b0b0b0" stroke-width="1.0" opacity="0.92"/>
<polygon points="532.1,905.0 540.1,905.0 529.1,913.0" fill="white" stroke="#b0b0b0" stroke-width="0.8"/>
<line x1="531.6" y1="905.0" x2="540.6" y2="905.0" stroke="white" stroke-width="1.5"/>
<text x="438.3" y="882.0" font-size="11.0" fill="#b0b0b0" font-weight="700">SABLE</text>
<text x="438.3" y="896.0" font-size="11.0" fill="#333333">Theodore, hold position. Do not open the cabinet yet.</text>
<text x="759.0" y="823.0" text-anchor="end" font-size="12" font-weight="bold" fill="#888888" opacity="0.6">4</text>
<text x="765.0" y="1165.0" text-anchor="end" font-size="9" fill="#888888" opacity="0.5">CU</text>
</svg>