<svg xmlns="http://www.w3.org/2000/svg" viewBox="0 0 800 1200" width="800" height="1200" style="background:#ffffff">
<style>
  text { font-family: "Helvetica Neue", Helvetica, Arial, sans-serif; }
</style>
<text x="400.0" y="22" text-anchor="middle" font-size="16" fill="#888888" font-weight="500">PAGE 3  (4 panels)</text>
<rect x="29.0" y="59.0" width="742.0" height="364.0" rx="2" fill="#f5f0e8" stroke="#2a2a2a" stroke-width="1.5"/>
<line x1="35.0" y1="342.9" x2="765.0" y2="342.9" stroke="#a89888" stroke-width="1.0" opacity="0.5"/>
<ellipse cx="400.0" cy="344.9" rx="11.2" ry="2.7" fill="#a89888" opacity="0.2"/>
<line x1="397.3" y1="327.2" x2="393.2" y2="342.9" stroke="#c87533" stroke-width="2" opacity="0.5"/>
<line x1="402.7" y1="327.2" x2="406.8" y2="342.9" stroke="#c87533" stroke-width="2" opacity="0.5"/>
<line x1="400.0" y1="314.1" x2="400.0" y2="327.2" stroke="#c87533" stroke-width="2.5" opacity="0.6"/>
<line x1="386.5" y1="316.1" x2="413.5" y2="316.1" stroke="#c87533" stroke-width="2" opacity="0.5"/>
<line x1="386.5" y1="316.1" x2="382.0" y2="327.6" stroke="#c87533" stroke-width="1.5" opacity="0.4"/>
<line x1="413.5" y1="316.1" x2="418.0" y2="327.6" stroke="#c87533" stroke-width="1.5" opacity="0.4"/>
<circle cx="400.0" cy="297.9" r="8.1" fill="#c87533" opacity="0.6"/>
<rect x="35.0" y="67.0" width="730.0" height="54.0" rx="6" fill="white" stroke="#c87533" stroke-width="1.0" opacity="0.92"/>
<polygon points="254.0,121.0 262.0,121.0 251.0,129.0" fill="white" stroke="#c87533" stroke-width="0.8"/>
<line x1="253.5" y1="121.0" x2="262.5" y2="121.0" stroke="white" stroke-width="1.5"/>
<text x="41.0" y="84.0" font-size="11.0" fill="#c87533" font-weight="700">WREN</text>
<text x="41.0" y="98.0" font-size="11.0" fill="#333333">Fourteen devices I can confirm. Possibly more. Each one at a critical node in the telegraph network. They've been doing this</text>
<text x="41.0" y="112.0" font-size="11.0" fill="#333333">longer than we've been here.</text>
<text x="759.0" y="75.0" text-anchor="end" font-size="12" font-weight="bold" fill="#888888" opacity="0.6">1</text>
<text x="765.0" y="417.0" text-anchor="end" font-size="9" fill="#888888" opacity="0.5">WIDE</text>
<rect x="29.0" y="433.0" width="366.0" height="364.0" rx="2" fill="#f5f0e8" stroke="#2a2a2a" stroke-width="1.5"/>
<path d="M153.4,695.1 L158.8,648.6 Q164.1,644.6 195.8,644.6 L228.2,644.6 Q259.9,644.6 265.2,648.6 L270.6,695.1 Z" fill="#c87533" opacity="0.35"/>
<line x1="158.8" y1="670.5" x2="265.2" y2="670.5" stroke="#c87533" stroke-width="1" opacity="0.3"/>
<line x1="158.8" y1="648.6" x2="137.5" y2="689.5" stroke="#c87533" stroke-width="2" opacity="0.3"/>
<line x1="137.5" y1="689.5" x2="153.4" y2="714.1" stroke="#c87533" stroke-width="2" opacity="0.3"/>
<line x1="265.2" y1="648.6" x2="286.5" y2="689.5" stroke="#c87533" stroke-width="2" opacity="0.3"/>
<line x1="286.5" y1="689.5" x2="270.6" y2="714.1" stroke="#c87533" stroke-width="2" opacity="0.3"/>
<line x1="212.0" y1="571.7" x2="212.0" y2="644.6" stroke="#c87533" stroke-width="3" opacity="0.35"/>
<circle cx="212.0" cy="531.3" r="40.5" fill="#c87533" opacity="0.4"/>
<rect x="35.0" y="441.0" width="354.0" height="68.0" rx="6" fill="white" stroke="#c87533" stroke-width="1.0" opacity="0.92"/>
<polygon points="141.2,509.0 149.2,509.0 138.2,517.0" fill="white" stroke="#c87533" stroke-width="0.8"/>
<line x1="140.7" y1="509.0" x2="149.7" y2="509.0" stroke="white" stroke-width="1.5"/>
<text x="41.0" y="458.0" font-size="11.0" fill="#c87533" font-weight="700">WREN</text>
<text x="41.0" y="472.0" font-size="11.0" fill="#333333">The earliest installations predate our arrival by at least</text>
<text x="41.0" y="486.0" font-size="11.0" fill="#333333">three months. Possibly longer. They were already operating</text>
<text x="41.0" y="500.0" font-size="11.0" fill="#333333">when we crashed.</text>
<text x="383.0" y="449.0" text-anchor="end" font-size="12" font-weight="bold" fill="#888888" opacity="0.6">2</text>
<text x="389.0" y="791.0" text-anchor="end" font-size="9" fill="#888888" opacity="0.5">MED</text>
<rect x="405.0" y="433.0" width="366.0" height="364.0" rx="2" fill="#f5f0e8" stroke="#2a2a2a" stroke-width="1.5"/>
<path d="M486.1,706.0 Q486.1,655.0 562.5,648.7 L613.5,648.7 Q689.9,655.0 689.9,706.0 L689.9,753.3 L486.1,753.3 Z" fill="#b0b0b0" opacity="0.25"/>
<path d="M565.7,648.7 L588.0,680.5 L610.3,648.7" fill="none" stroke="#b0b0b0" stroke-width="1" opacity="0.3"/>
<circle cx="588.0" cy="578.6" r="63.7" fill="#b0b0b0" opacity="0.35"/>
<path d="M524.3,591.3 Q533.9,648.7 588.0,651.9 Q642.1,648.7 651.7,591.3" fill="none" stroke="#b0b0b0" stroke-width="1.2" opacity="0.3"/>
<path d="M521.1,572.2 Q588.0,495.8 654.9,572.2" fill="none" stroke="#b0b0b0" stroke-width="2" opacity="0.4"/>
<ellipse cx="522.3" cy="581.8" rx="2.5" ry="4" fill="#b0b0b0" opacity="0.25"/>
<ellipse cx="653.7" cy="581.8" rx="2.5" ry="4" fill="#b0b0b0" opacity="0.25"/>
<rect x="411.0" y="441.0" width="157.2" height="40.0" rx="6" fill="white" stroke="#b0b0b0" stroke-width="1.0" opacity="0.92"/>
<polygon points="458.2,481.0 466.2,481.0 455.2,489.0" fill="white" stroke="#b0b0b0" stroke-width="0.8"/>
<line x1="457.7" y1="481.0" x2="466.7" y2="481.0" stroke="white" stroke-width="1.5"/>
<text x="417.0" y="458.0" font-size="11.0" fill="#b0b0b0" font-weight="700">SABLE</text>
<text x="417.0" y="472.0" font-size="11.0" fill="#333333">Can they be neutralized?</text>
<text x="759.0" y="449.0" text-anchor="end" font-size="12" font-weight="bold" fill="#888888" opacity="0.6">3</text>
<text x="765.0" y="791.0" text-anchor="end" font-size="9" fill="#888888" opacity="0.5">MCU</text>
<rect x="29.0" y="807.0" width="742.0" height="364.0" rx="2" fill="#f5f0e8" stroke="#2a2a2a" stroke-width="1.5"/>
<path d="M341.4,1069.1 L346.8,1022.6 Q352.1,1018.6 383.8,1018.6 L416.2,1018.6 Q447.9,1018.6 453.2,1022.6 L458.6,1069.1 Z" fill="#c87533" opacity="0.35"/>
<line x1="346.8" y1="1044.5" x2="453.2" y2="1044.5" stroke="#c87533" stroke-width="1" opacity="0.3"/>
<line x1="346.8" y1="1022.6" x2="325.5" y2="1063.5" stroke="#c87533" stroke-width="2" opacity="0.3"/>
<line x1="325.5" y1="1063.5" x2="341.4" y2="1088.1" stroke="#c87533" stroke-width="2" opacity="0.3"/>
<line x1="453.2" y1="1022.6" x2="474.5" y2="1063.5" stroke="#c87533" stroke-width="2" opacity="0.3"/>
<line x1="474.5" y1="1063.5" x2="458.6" y2="1088.1" stroke="#c87533" stroke-width="2" opacity="0.3"/>
<line x1="400.0" y1="945.7" x2="400.0" y2="1018.6" stroke="#c87533" stroke-width="3" opacity="0.35"/>
<circle cx="400.0" cy="905.3" r="40.5" fill="#c87533" opacity="0.4"/>
<rect x="35.0" y="815.0" width="719.9" height="54.0" rx="6" fill="white" stroke="#c87533" stroke-width="1.0" opacity="0.92"/>
<polygon points="251.0,869.0 259.0,869.0 248.0,877.0" fill="white" stroke="#c87533" stroke-width="0.8"/>
<line x1="250.5" y1="869.0" x2="259.5" y2="869.0" stroke="white" stroke-width="1.5"/>
<text x="41.0" y="832.0" font-size="11.0" fill="#c87533" font-weight="700">WREN</text>
<text x="41.0" y="846.0" font-size="11.0" fill="#333333">Individually, yes. Each device can be disabled at its installation point. But they're networked. Single-point failure</text>
<text x="41.0" y="860.0" font-size="11.0" fill="#333333">triggers a failsafe — the other devices compensate and the network adapts.</text>
<rect x="329.5" y="879.0" width="435.5" height="40.0" rx="6" fill="white" stroke="#c87533" stroke-width="1.0" opacity="0.92"/>
<polygon points="460.1,919.0 468.1,919.0 457.1,927.0" fill="white" stroke="#c87533" stroke-width="0.8"/>
<line x1="459.6" y1="919.0" x2="468.6" y2="919.0" stroke="white" stroke-width="1.5"/>
<text x="335.5" y="896.0" font-size="11.0" fill="#c87533" font-weight="700">WREN</text>
<text x="335.5" y="910.0" font-size="11.0" fill="#333333">To take the network down, we'd need to hit them all. At the same time.</text>
<text x="759.0" y="823.0" text-anchor="end" font-size="12" font-weight="bold" fill="#888888" opacity="0.6">4</text>
<text x="765.0" y="1165.0" text-anchor="end" font-size="9" fill="#888888" opacity="0.5">MW</text>
</svg>