<svg xmlns="http://www.w3.org/2000/svg" viewBox="0 0 800 1200" width="800" height="1200" style="background:#ffffff">
<style>
  text { font-family: "Helvetica Neue", Helvetica, Arial, sans-serif; }
</style>
<text x="400.0" y="22" text-anchor="middle" font-size="16" fill="#888888" font-weight="500">PAGE 8  (4 panels)</text>
<rect x="29.0" y="59.0" width="366.0" height="457.5" rx="2" fill="#f5f0e8" stroke="#2a2a2a" stroke-width="1.5"/>
<path d="M141.5,388.4 L147.9,322.8 Q154.4,318.8 192.5,318.8 L231.5,318.8 Q269.6,318.8 276.1,322.8 L282.5,388.4 Z" fill="#b0b0b0" opacity="0.35"/>
<line x1="147.9" y1="357.5" x2="276.1" y2="357.5" stroke="#b0b0b0" stroke-width="1" opacity="0.3"/>
<line x1="147.9" y1="322.8" x2="122.3" y2="374.3" stroke="#b0b0b0" stroke-width="2" opacity="0.3"/>
<line x1="122.3" y1="374.3" x2="141.5" y2="405.2" stroke="#b0b0b0" stroke-width="2" opacity="0.3"/>
<line x1="276.1" y1="322.8" x2="301.7" y2="374.3" stroke="#b0b0b0" stroke-width="2" opacity="0.3"/>
<line x1="301.7" y1="374.3" x2="282.5" y2="405.2" stroke="#b0b0b0" stroke-width="2" opacity="0.3"/>
<line x1="212.0" y1="231.2" x2="212.0" y2="318.8" stroke="#b0b0b0" stroke-width="3" opacity="0.35"/>
<circle cx="212.0" cy="182.5" r="48.7" fill="#b0b0b0" opacity="0.4"/>
<rect x="35.0" y="67.0" width="354.0" height="68.0" rx="6" fill="white" stroke="#b0b0b0" stroke-width="1.0" opacity="0.92"/>
<polygon points="141.2,135.0 149.2,135.0 138.2,143.0" fill="white" stroke="#b0b0b0" stroke-width="0.8"/>
<line x1="140.7" y1="135.0" x2="149.7" y2="135.0" stroke="white" stroke-width="1.5"/>
<text x="41.0" y="84.0" font-size="11.0" fill="#b0b0b0" font-weight="700">SABLE</text>
<text x="41.0" y="98.0" font-size="11.0" fill="#333333">Synchronization window is ninety seconds. From the first</text>
<text x="41.0" y="112.0" font-size="11.0" fill="#333333">device going dark to the last, ninety seconds. Any longer,</text>
<text x="41.0" y="126.0" font-size="11.0" fill="#333333">the failsafe triggers.</text>
<text x="383.0" y="75.0" text-anchor="end" font-size="12" font-weight="bold" fill="#888888" opacity="0.6">1</text>
<text x="389.0" y="510.5" text-anchor="end" font-size="9" fill="#888888" opacity="0.5">MED</text>
<rect x="405.0" y="59.0" width="366.0" height="457.5" rx="2" fill="#f5f0e8" stroke="#2a2a2a" stroke-width="1.5"/>
<path d="M517.5,388.4 L524.0,322.8 Q530.4,318.8 568.5,318.8 L607.5,318.8 Q645.6,318.8 652.0,322.8 L658.5,388.4 Z" fill="#c87533" opacity="0.35"/>
<line x1="524.0" y1="357.5" x2="652.0" y2="357.5" stroke="#c87533" stroke-width="1" opacity="0.3"/>
<line x1="524.0" y1="322.8" x2="498.3" y2="374.3" stroke="#c87533" stroke-width="2" opacity="0.3"/>
<line x1="498.3" y1="374.3" x2="517.5" y2="405.2" stroke="#c87533" stroke-width="2" opacity="0.3"/>
<line x1="652.0" y1="322.8" x2="677.7" y2="374.3" stroke="#c87533" stroke-width="2" opacity="0.3"/>
<line x1="677.7" y1="374.3" x2="658.5" y2="405.2" stroke="#c87533" stroke-width="2" opacity="0.3"/>
<line x1="588.0" y1="231.2" x2="588.0" y2="318.8" stroke="#c87533" stroke-width="3" opacity="0.35"/>
<circle cx="588.0" cy="182.5" r="48.7" fill="#c87533" opacity="0.4"/>
<rect x="411.0" y="67.0" width="354.0" height="68.0" rx="6" fill="white" stroke="#c87533" stroke-width="1.0" opacity="0.92"/>
<polygon points="517.2,135.0 525.2,135.0 514.2,143.0" fill="white" stroke="#c87533" stroke-width="0.8"/>
<line x1="516.7" y1="135.0" x2="525.7" y2="135.0" stroke="white" stroke-width="1.5"/>
<text x="417.0" y="84.0" font-size="11.0" fill="#c87533" font-weight="700">WREN</text>
<text x="417.0" y="98.0" font-size="11.0" fill="#333333">I've rigged a synchronized signal from the remaining comms</text>
<text x="417.0" y="112.0" font-size="11.0" fill="#333333">equipment. One pulse starts all timers. The countdown is</text>
<text x="417.0" y="126.0" font-size="11.0" fill="#333333">shared.</text>
<text x="759.0" y="75.0" text-anchor="end" font-size="12" font-weight="bold" fill="#888888" opacity="0.6">2</text>
<text x="765.0" y="510.5" text-anchor="end" font-size="9" fill="#888888" opacity="0.5">MED</text>
<rect x="29.0" y="526.5" width="742.0" height="457.5" rx="2" fill="#f5f0e8" stroke="#2a2a2a" stroke-width="1.5"/>
<path d="M326.4,855.9 L333.1,796.4 Q339.8,792.4 379.7,792.4 L420.3,792.4 Q460.2,792.4 466.9,796.4 L473.6,855.9 Z" fill="#2e8b57" opacity="0.35"/>
<line x1="333.1" y1="825.0" x2="466.9" y2="825.0" stroke="#2e8b57" stroke-width="1" opacity="0.3"/>
<line x1="333.1" y1="796.4" x2="306.3" y2="847.9" stroke="#2e8b57" stroke-width="2" opacity="0.3"/>
<line x1="306.3" y1="847.9" x2="326.4" y2="878.8" stroke="#2e8b57" stroke-width="2" opacity="0.3"/>
<line x1="466.9" y1="796.4" x2="493.7" y2="847.9" stroke="#2e8b57" stroke-width="2" opacity="0.3"/>
<line x1="493.7" y1="847.9" x2="473.6" y2="878.8" stroke="#2e8b57" stroke-width="2" opacity="0.3"/>
<line x1="400.0" y1="700.9" x2="400.0" y2="792.4" stroke="#2e8b57" stroke-width="3" opacity="0.35"/>
<circle cx="400.0" cy="650.0" r="50.9" fill="#2e8b57" opacity="0.4"/>
<rect x="35.0" y="534.5" width="102.8" height="40.0" rx="6" fill="white" stroke="#2e8b57" stroke-width="1.0" opacity="0.92"/>
<polygon points="65.8,574.5 73.8,574.5 62.8,582.5" fill="white" stroke="#2e8b57" stroke-width="0.8"/>
<line x1="65.3" y1="574.5" x2="74.3" y2="574.5" stroke="white" stroke-width="1.5"/>
<text x="41.0" y="551.5" font-size="11.0" fill="#2e8b57" font-weight="700">JINK</text>
<text x="41.0" y="565.5" font-size="11.0" fill="#333333">Ninety seconds.</text>
<rect x="680.4" y="584.5" width="84.6" height="40.0" rx="6" fill="white" stroke="#b22222" stroke-width="1.0" opacity="0.92"/>
<polygon points="705.8,624.5 713.8,624.5 702.8,632.5" fill="white" stroke="#b22222" stroke-width="0.8"/>
<line x1="705.3" y1="624.5" x2="714.3" y2="624.5" stroke="white" stroke-width="1.5"/>
<text x="686.4" y="601.5" font-size="11.0" fill="#b22222" font-weight="700">THRESH</text>
<text x="686.4" y="615.5" font-size="11.0" fill="#333333">It's enough.</text>
<text x="759.0" y="542.5" text-anchor="end" font-size="12" font-weight="bold" fill="#888888" opacity="0.6">3</text>
<text x="765.0" y="978.0" text-anchor="end" font-size="9" fill="#888888" opacity="0.5">MW</text>
<rect x="29.0" y="994.0" width="742.0" height="177.0" rx="2" fill="#f5f0e8" stroke="#2a2a2a" stroke-width="1.5"/>
<line x1="35.0" y1="1132.1" x2="765.0" y2="1132.1" stroke="#a89888" stroke-width="1.0" opacity="0.5"/>
<ellipse cx="214.5" cy="1134.1" rx="8.0" ry="1.9" fill="#a89888" opacity="0.2"/>
<line x1="212.6" y1="1120.9" x2="209.7" y2="1132.1" stroke="#c0b8a8" stroke-width="2" opacity="0.5"/>
<line x1="216.4" y1="1120.9" x2="219.3" y2="1132.1" stroke="#c0b8a8" stroke-width="2" opacity="0.5"/>
<line x1="214.5" y1="1111.7" x2="214.5" y2="1120.9" stroke="#c0b8a8" stroke-width="2.5" opacity="0.6"/>
<line x1="204.9" y1="1113.7" x2="224.1" y2="1113.7" stroke="#c0b8a8" stroke-width="2" opacity="0.5"/>
<line x1="204.9" y1="1113.7" x2="201.8" y2="1121.2" stroke="#c0b8a8" stroke-width="1.5" opacity="0.4"/>
<line x1="224.1" y1="1113.7" x2="227.2" y2="1121.2" stroke="#c0b8a8" stroke-width="1.5" opacity="0.4"/>
<circle cx="214.5" cy="1100.2" r="5.7" fill="#c0b8a8" opacity="0.6"/>
<ellipse cx="400.0" cy="1134.1" rx="8.0" ry="1.9" fill="#a89888" opacity="0.2"/>
<line x1="398.1" y1="1120.9" x2="395.2" y2="1132.1" stroke="#c0b8a8" stroke-width="2" opacity="0.5"/>
<line x1="401.9" y1="1120.9" x2="404.8" y2="1132.1" stroke="#c0b8a8" stroke-width="2" opacity="0.5"/>
<line x1="400.0" y1="1111.7" x2="400.0" y2="1120.9" stroke="#c0b8a8" stroke-width="2.5" opacity="0.6"/>
<line x1="390.4" y1="1113.7" x2="409.6" y2="1113.7" stroke="#c0b8a8" stroke-width="2" opacity="0.5"/>
<line x1="390.4" y1="1113.7" x2="387.3" y2="1121.2" stroke="#c0b8a8" stroke-width="1.5" opacity="0.4"/>
<line x1="409.6" y1="1113.7" x2="412.7" y2="1121.2" stroke="#c0b8a8" stroke-width="1.5" opacity="0.4"/>
<circle cx="400.0" cy="1100.2" r="5.7" fill="#c0b8a8" opacity="0.6"/>
<ellipse cx="585.5" cy="1134.1" rx="8.0" ry="1.9" fill="#a89888" opacity="0.2"/>
<line x1="583.6" y1="1120.9" x2="580.7" y2="1132.1" stroke="#c0b8a8" stroke-width="2" opacity="0.5"/>
<line x1="587.4" y1="1120.9" x2="590.3" y2="1132.1" stroke="#c0b8a8" stroke-width="2" opacity="0.5"/>
<line x1="585.5" y1="1111.7" x2="585.5" y2="1120.9" stroke="#c0b8a8" stroke-width="2.5" opacity="0.6"/>
<line x1="575.9" y1="1113.7" x2="595.1" y2="1113.7" stroke="#c0b8a8" stroke-width="2" opacity="0.5"/>
<line x1="575.9" y1="1113.7" x2="572.8" y2="1121.2" stroke="#c0b8a8" stroke-width="1.5" opacity="0.4"/>
<line x1="595.1" y1="1113.7" x2="598.2" y2="1121.2" stroke="#c0b8a8" stroke-width="1.5" opacity="0.4"/>
<circle cx="585.5" cy="1100.2" r="5.7" fill="#c0b8a8" opacity="0.6"/>
<rect x="35.0" y="1002.0" width="260.1" height="40.0" rx="2" fill="#f5ecd8" stroke="#c8b898" stroke-width="0.8" opacity="0.92"/>
<text x="41.0" y="1019.0" font-size="11.0" fill="#5a4a30" font-style="italic" font-weight="500">CAPTION</text>
<text x="41.0" y="1033.0" font-size="11.0" fill="#5a4a30" font-style="italic">The nervous system of the industrial age.</text>
<text x="759.0" y="1010.0" text-anchor="end" font-size="12" font-weight="bold" fill="#888888" opacity="0.6">4</text>
<text x="765.0" y="1165.0" text-anchor="end" font-size="9" fill="#888888" opacity="0.5">EST</text>
</svg>