<svg xmlns="http://www.w3.org/2000/svg" viewBox="0 0 800 1200" width="800" height="1200" style="background:#ffffff">
<style>
  text { font-family: "Helvetica Neue", Helvetica, Arial, sans-serif; }
</style>
<text x="400.0" y="22" text-anchor="middle" font-size="16" fill="#888888" font-weight="500">PAGE 19  (4 panels)</text>
<rect x="29.0" y="59.0" width="742.0" height="364.0" rx="2" fill="#f5f0e8" stroke="#2a2a2a" stroke-width="1.5"/>
<path d="M341.4,321.1 L346.8,274.6 Q352.1,270.6 383.8,270.6 L416.2,270.6 Q447.9,270.6 453.2,274.6 L458.6,321.1 Z" fill="#c49a6c" opacity="0.35"/>
<line x1="346.8" y1="296.5" x2="453.2" y2="296.5" stroke="#c49a6c" stroke-width="1" opacity="0.3"/>
<line x1="346.8" y1="274.6" x2="325.5" y2="315.5" stroke="#c49a6c" stroke-width="2" opacity="0.3"/>
<line x1="325.5" y1="315.5" x2="341.4" y2="340.1" stroke="#c49a6c" stroke-width="2" opacity="0.3"/>
<line x1="453.2" y1="274.6" x2="474.5" y2="315.5" stroke="#c49a6c" stroke-width="2" opacity="0.3"/>
<line x1="474.5" y1="315.5" x2="458.6" y2="340.1" stroke="#c49a6c" stroke-width="2" opacity="0.3"/>
<line x1="400.0" y1="197.7" x2="400.0" y2="270.6" stroke="#c49a6c" stroke-width="3" opacity="0.35"/>
<circle cx="400.0" cy="157.3" r="40.5" fill="#c49a6c" opacity="0.4"/>
<rect x="35.0" y="67.0" width="84.6" height="40.0" rx="6" fill="white" stroke="#c49a6c" stroke-width="1.0" opacity="0.92"/>
<polygon points="60.4,107.0 68.4,107.0 57.4,115.0" fill="white" stroke="#c49a6c" stroke-width="0.8"/>
<line x1="59.9" y1="107.0" x2="68.9" y2="107.0" stroke="white" stroke-width="1.5"/>
<text x="41.0" y="84.0" font-size="11.0" fill="#c49a6c" font-weight="700">THEODORE</text>
<text x="41.0" y="98.0" font-size="11.0" fill="#333333">First light.</text>
<rect x="589.6" y="117.0" width="175.4" height="40.0" rx="6" fill="white" stroke="#b0b0b0" stroke-width="1.0" opacity="0.92"/>
<polygon points="642.3,157.0 650.3,157.0 639.3,165.0" fill="white" stroke="#b0b0b0" stroke-width="0.8"/>
<line x1="641.8" y1="157.0" x2="650.8" y2="157.0" stroke="white" stroke-width="1.5"/>
<text x="595.6" y="134.0" font-size="11.0" fill="#b0b0b0" font-weight="700">SABLE</text>
<text x="595.6" y="148.0" font-size="11.0" fill="#333333">First light. Are you ready?</text>
<rect x="35.0" y="167.0" width="90.7" height="40.0" rx="6" fill="white" stroke="#c49a6c" stroke-width="1.0" opacity="0.92"/>
<polygon points="62.2,207.0 70.2,207.0 59.2,215.0" fill="white" stroke="#c49a6c" stroke-width="0.8"/>
<line x1="61.7" y1="207.0" x2="70.7" y2="207.0" stroke="white" stroke-width="1.5"/>
<text x="41.0" y="184.0" font-size="11.0" fill="#c49a6c" font-weight="700">THEODORE</text>
<text x="41.0" y="198.0" font-size="11.0" fill="#333333">Yes, Captain.</text>
<text x="759.0" y="75.0" text-anchor="end" font-size="12" font-weight="bold" fill="#888888" opacity="0.6">1</text>
<text x="765.0" y="417.0" text-anchor="end" font-size="9" fill="#888888" opacity="0.5">MW</text>
<rect x="29.0" y="433.0" width="366.0" height="364.0" rx="2" fill="#f5f0e8" stroke="#2a2a2a" stroke-width="1.5"/>
<path d="M153.4,695.1 L158.8,648.6 Q164.1,644.6 195.8,644.6 L228.2,644.6 Q259.9,644.6 265.2,648.6 L270.6,695.1 Z" fill="#b0b0b0" opacity="0.35"/>
<line x1="158.8" y1="670.5" x2="265.2" y2="670.5" stroke="#b0b0b0" stroke-width="1" opacity="0.3"/>
<line x1="158.8" y1="648.6" x2="137.5" y2="689.5" stroke="#b0b0b0" stroke-width="2" opacity="0.3"/>
<line x1="137.5" y1="689.5" x2="153.4" y2="714.1" stroke="#b0b0b0" stroke-width="2" opacity="0.3"/>
<line x1="265.2" y1="648.6" x2="286.5" y2="689.5" stroke="#b0b0b0" stroke-width="2" opacity="0.3"/>
<line x1="286.5" y1="689.5" x2="270.6" y2="714.1" stroke="#b0b0b0" stroke-width="2" opacity="0.3"/>
<line x1="212.0" y1="571.7" x2="212.0" y2="644.6" stroke="#b0b0b0" stroke-width="3" opacity="0.35"/>
<circle cx="212.0" cy="531.3" r="40.5" fill="#b0b0b0" opacity="0.4"/>
<rect x="35.0" y="441.0" width="344.8" height="54.0" rx="6" fill="white" stroke="#b0b0b0" stroke-width="1.0" opacity="0.92"/>
<polygon points="138.4,495.0 146.4,495.0 135.4,503.0" fill="white" stroke="#b0b0b0" stroke-width="0.8"/>
<line x1="137.9" y1="495.0" x2="146.9" y2="495.0" stroke="white" stroke-width="1.5"/>
<text x="41.0" y="458.0" font-size="11.0" fill="#b0b0b0" font-weight="700">SABLE</text>
<text x="41.0" y="472.0" font-size="11.0" fill="#333333">Comms live. Countdown on standby. All operators confirm</text>
<text x="41.0" y="486.0" font-size="11.0" fill="#333333">ready status at position.</text>
<text x="383.0" y="449.0" text-anchor="end" font-size="12" font-weight="bold" fill="#888888" opacity="0.6">2</text>
<text x="389.0" y="791.0" text-anchor="end" font-size="9" fill="#888888" opacity="0.5">MED</text>
<rect x="405.0" y="433.0" width="366.0" height="364.0" rx="2" fill="#f5f0e8" stroke="#2a2a2a" stroke-width="1.5"/>
<path d="M529.4,695.1 L534.8,648.6 Q540.1,644.6 571.8,644.6 L604.2,644.6 Q635.9,644.6 641.2,648.6 L646.6,695.1 Z" fill="#c87533" opacity="0.35"/>
<line x1="534.8" y1="670.5" x2="641.2" y2="670.5" stroke="#c87533" stroke-width="1" opacity="0.3"/>
<line x1="534.8" y1="648.6" x2="513.5" y2="689.5" stroke="#c87533" stroke-width="2" opacity="0.3"/>
<line x1="513.5" y1="689.5" x2="529.4" y2="714.1" stroke="#c87533" stroke-width="2" opacity="0.3"/>
<line x1="641.2" y1="648.6" x2="662.5" y2="689.5" stroke="#c87533" stroke-width="2" opacity="0.3"/>
<line x1="662.5" y1="689.5" x2="646.6" y2="714.1" stroke="#c87533" stroke-width="2" opacity="0.3"/>
<line x1="588.0" y1="571.7" x2="588.0" y2="644.6" stroke="#c87533" stroke-width="3" opacity="0.35"/>
<circle cx="588.0" cy="531.3" r="40.5" fill="#c87533" opacity="0.4"/>
<rect x="411.0" y="441.0" width="199.6" height="40.0" rx="6" fill="white" stroke="#c87533" stroke-width="1.0" opacity="0.92"/>
<polygon points="470.9,481.0 478.9,481.0 467.9,489.0" fill="white" stroke="#c87533" stroke-width="0.8"/>
<line x1="470.4" y1="481.0" x2="479.4" y2="481.0" stroke="white" stroke-width="1.5"/>
<text x="417.0" y="458.0" font-size="11.0" fill="#c87533" font-weight="700">WREN</text>
<text x="417.0" y="472.0" font-size="11.0" fill="#333333">All units synced. Signal clear.</text>
<rect x="703.0" y="491.0" width="62.0" height="40.0" rx="6" fill="white" stroke="#2e8b57" stroke-width="1.0" opacity="0.92"/>
<polygon points="721.6,531.0 729.6,531.0 718.6,539.0" fill="white" stroke="#2e8b57" stroke-width="0.8"/>
<line x1="721.1" y1="531.0" x2="730.1" y2="531.0" stroke="white" stroke-width="1.5"/>
<text x="709.0" y="508.0" font-size="11.0" fill="#2e8b57" font-weight="700">JINK</text>
<text x="709.0" y="522.0" font-size="11.0" fill="#333333">Ready.</text>
<rect x="411.0" y="541.0" width="62.0" height="40.0" rx="6" fill="white" stroke="#b22222" stroke-width="1.0" opacity="0.92"/>
<polygon points="429.6,581.0 437.6,581.0 426.6,589.0" fill="white" stroke="#b22222" stroke-width="0.8"/>
<line x1="429.1" y1="581.0" x2="438.1" y2="581.0" stroke="white" stroke-width="1.5"/>
<text x="417.0" y="558.0" font-size="11.0" fill="#b22222" font-weight="700">THRESH</text>
<text x="417.0" y="572.0" font-size="11.0" fill="#333333">Ready.</text>
<rect x="703.0" y="591.0" width="62.0" height="40.0" rx="6" fill="white" stroke="#6a5acd" stroke-width="1.0" opacity="0.92"/>
<polygon points="721.6,631.0 729.6,631.0 718.6,639.0" fill="white" stroke="#6a5acd" stroke-width="0.8"/>
<line x1="721.1" y1="631.0" x2="730.1" y2="631.0" stroke="white" stroke-width="1.5"/>
<text x="709.0" y="608.0" font-size="11.0" fill="#6a5acd" font-weight="700">LUMA</text>
<text x="709.0" y="622.0" font-size="11.0" fill="#333333">Ready.</text>
<rect x="411.0" y="641.0" width="62.0" height="40.0" rx="6" fill="white" stroke="#c49a6c" stroke-width="1.0" opacity="0.92"/>
<polygon points="429.6,681.0 437.6,681.0 426.6,689.0" fill="white" stroke="#c49a6c" stroke-width="0.8"/>
<line x1="429.1" y1="681.0" x2="438.1" y2="681.0" stroke="white" stroke-width="1.5"/>
<text x="417.0" y="658.0" font-size="11.0" fill="#c49a6c" font-weight="700">THEODORE</text>
<text x="417.0" y="672.0" font-size="11.0" fill="#333333">Ready.</text>
<text x="759.0" y="449.0" text-anchor="end" font-size="12" font-weight="bold" fill="#888888" opacity="0.6">3</text>
<text x="765.0" y="791.0" text-anchor="end" font-size="9" fill="#888888" opacity="0.5">MED</text>
<rect x="29.0" y="807.0" width="742.0" height="364.0" rx="2" fill="#f5f0e8" stroke="#2a2a2a" stroke-width="1.5"/>
<line x1="35.0" y1="1090.9" x2="765.0" y2="1090.9" stroke="#a89888" stroke-width="1.0" opacity="0.5"/>
<ellipse cx="400.0" cy="1092.9" rx="11.2" ry="2.7" fill="#a89888" opacity="0.2"/>
<line x1="397.3" y1="1075.2" x2="393.2" y2="1090.9" stroke="#b0b0b0" stroke-width="2" opacity="0.5"/>
<line x1="402.7" y1="1075.2" x2="406.8" y2="1090.9" stroke="#b0b0b0" stroke-width="2" opacity="0.5"/>
<line x1="400.0" y1="1062.1" x2="400.0" y2="1075.2" stroke="#b0b0b0" stroke-width="2.5" opacity="0.6"/>
<line x1="386.5" y1="1064.1" x2="413.5" y2="1064.1" stroke="#b0b0b0" stroke-width="2" opacity="0.5"/>
<line x1="386.5" y1="1064.1" x2="382.0" y2="1075.6" stroke="#b0b0b0" stroke-width="1.5" opacity="0.4"/>
<line x1="413.5" y1="1064.1" x2="418.0" y2="1075.6" stroke="#b0b0b0" stroke-width="1.5" opacity="0.4"/>
<circle cx="400.0" cy="1045.9" r="8.1" fill="#b0b0b0" opacity="0.6"/>
<rect x="35.0" y="815.0" width="629.1" height="40.0" rx="6" fill="white" stroke="#b0b0b0" stroke-width="1.0" opacity="0.92"/>
<polygon points="223.7,855.0 231.7,855.0 220.7,863.0" fill="white" stroke="#b0b0b0" stroke-width="0.8"/>
<line x1="223.2" y1="855.0" x2="232.2" y2="855.0" stroke="white" stroke-width="1.5"/>
<text x="41.0" y="832.0" font-size="11.0" fill="#b0b0b0" font-weight="700">SABLE</text>
<text x="41.0" y="846.0" font-size="11.0" fill="#333333">We move in ten minutes. Jink deploys first — highest and farthest. Then Thresh, Luma, Wren. I go last.</text>
<rect x="341.6" y="865.0" width="423.4" height="40.0" rx="6" fill="white" stroke="#b0b0b0" stroke-width="1.0" opacity="0.92"/>
<polygon points="468.6,905.0 476.6,905.0 465.6,913.0" fill="white" stroke="#b0b0b0" stroke-width="0.8"/>
<line x1="468.1" y1="905.0" x2="477.1" y2="905.0" stroke="white" stroke-width="1.5"/>
<text x="347.6" y="882.0" font-size="11.0" fill="#b0b0b0" font-weight="700">SABLE</text>
<text x="347.6" y="896.0" font-size="11.0" fill="#333333">Theodore — you are already in position. Stay there until the signal.</text>
<text x="759.0" y="823.0" text-anchor="end" font-size="12" font-weight="bold" fill="#888888" opacity="0.6">4</text>
<text x="765.0" y="1165.0" text-anchor="end" font-size="9" fill="#888888" opacity="0.5">WIDE</text>
</svg>