<svg xmlns="http://www.w3.org/2000/svg" viewBox="0 0 800 1200" width="800" height="1200" style="background:#ffffff">
<style>
  text { font-family: "Helvetica Neue", Helvetica, Arial, sans-serif; }
</style>
<text x="400.0" y="22" text-anchor="middle" font-size="16" fill="#888888" font-weight="500">PAGE 12  (5 panels)</text>
<rect x="29.0" y="59.0" width="742.0" height="364.0" rx="2" fill="#f5f0e8" stroke="#2a2a2a" stroke-width="1.5"/>
<line x1="35.0" y1="342.9" x2="765.0" y2="342.9" stroke="#a89888" stroke-width="1.0" opacity="0.5"/>
<ellipse cx="214.5" cy="344.9" rx="11.2" ry="2.7" fill="#a89888" opacity="0.2"/>
<line x1="211.8" y1="327.2" x2="207.8" y2="342.9" stroke="#c0b8a8" stroke-width="2" opacity="0.5"/>
<line x1="217.2" y1="327.2" x2="221.2" y2="342.9" stroke="#c0b8a8" stroke-width="2" opacity="0.5"/>
<line x1="214.5" y1="314.1" x2="214.5" y2="327.2" stroke="#c0b8a8" stroke-width="2.5" opacity="0.6"/>
<line x1="201.0" y1="316.1" x2="228.0" y2="316.1" stroke="#c0b8a8" stroke-width="2" opacity="0.5"/>
<line x1="201.0" y1="316.1" x2="196.5" y2="327.6" stroke="#c0b8a8" stroke-width="1.5" opacity="0.4"/>
<line x1="228.0" y1="316.1" x2="232.5" y2="327.6" stroke="#c0b8a8" stroke-width="1.5" opacity="0.4"/>
<circle cx="214.5" cy="297.9" r="8.1" fill="#c0b8a8" opacity="0.6"/>
<ellipse cx="400.0" cy="344.9" rx="11.2" ry="2.7" fill="#a89888" opacity="0.2"/>
<line x1="397.3" y1="327.2" x2="393.2" y2="342.9" stroke="#c0b8a8" stroke-width="2" opacity="0.5"/>
<line x1="402.7" y1="327.2" x2="406.8" y2="342.9" stroke="#c0b8a8" stroke-width="2" opacity="0.5"/>
<line x1="400.0" y1="314.1" x2="400.0" y2="327.2" stroke="#c0b8a8" stroke-width="2.5" opacity="0.6"/>
<line x1="386.5" y1="316.1" x2="413.5" y2="316.1" stroke="#c0b8a8" stroke-width="2" opacity="0.5"/>
<line x1="386.5" y1="316.1" x2="382.0" y2="327.6" stroke="#c0b8a8" stroke-width="1.5" opacity="0.4"/>
<line x1="413.5" y1="316.1" x2="418.0" y2="327.6" stroke="#c0b8a8" stroke-width="1.5" opacity="0.4"/>
<circle cx="400.0" cy="297.9" r="8.1" fill="#c0b8a8" opacity="0.6"/>
<ellipse cx="585.5" cy="344.9" rx="11.2" ry="2.7" fill="#a89888" opacity="0.2"/>
<line x1="582.8" y1="327.2" x2="578.8" y2="342.9" stroke="#c0b8a8" stroke-width="2" opacity="0.5"/>
<line x1="588.2" y1="327.2" x2="592.2" y2="342.9" stroke="#c0b8a8" stroke-width="2" opacity="0.5"/>
<line x1="585.5" y1="314.1" x2="585.5" y2="327.2" stroke="#c0b8a8" stroke-width="2.5" opacity="0.6"/>
<line x1="572.0" y1="316.1" x2="599.0" y2="316.1" stroke="#c0b8a8" stroke-width="2" opacity="0.5"/>
<line x1="572.0" y1="316.1" x2="567.5" y2="327.6" stroke="#c0b8a8" stroke-width="1.5" opacity="0.4"/>
<line x1="599.0" y1="316.1" x2="603.5" y2="327.6" stroke="#c0b8a8" stroke-width="1.5" opacity="0.4"/>
<circle cx="585.5" cy="297.9" r="8.1" fill="#c0b8a8" opacity="0.6"/>
<rect x="35.0" y="67.0" width="90.7" height="40.0" rx="2" fill="#f5ecd8" stroke="#c8b898" stroke-width="0.8" opacity="0.92"/>
<text x="41.0" y="84.0" font-size="11.0" fill="#5a4a30" font-style="italic" font-weight="500">CAPTION</text>
<text x="41.0" y="98.0" font-size="11.0" fill="#5a4a30" font-style="italic">Night before.</text>
<text x="759.0" y="75.0" text-anchor="end" font-size="12" font-weight="bold" fill="#888888" opacity="0.6">1</text>
<text x="765.0" y="417.0" text-anchor="end" font-size="9" fill="#888888" opacity="0.5">EST</text>
<rect x="29.0" y="433.0" width="366.0" height="364.0" rx="2" fill="#f5f0e8" stroke="#2a2a2a" stroke-width="1.5"/>
<path d="M153.4,695.1 L158.8,648.6 Q164.1,644.6 195.8,644.6 L228.2,644.6 Q259.9,644.6 265.2,648.6 L270.6,695.1 Z" fill="#c0b8a8" opacity="0.35"/>
<line x1="158.8" y1="670.5" x2="265.2" y2="670.5" stroke="#c0b8a8" stroke-width="1" opacity="0.3"/>
<line x1="158.8" y1="648.6" x2="137.5" y2="689.5" stroke="#c0b8a8" stroke-width="2" opacity="0.3"/>
<line x1="137.5" y1="689.5" x2="153.4" y2="714.1" stroke="#c0b8a8" stroke-width="2" opacity="0.3"/>
<line x1="265.2" y1="648.6" x2="286.5" y2="689.5" stroke="#c0b8a8" stroke-width="2" opacity="0.3"/>
<line x1="286.5" y1="689.5" x2="270.6" y2="714.1" stroke="#c0b8a8" stroke-width="2" opacity="0.3"/>
<line x1="212.0" y1="571.7" x2="212.0" y2="644.6" stroke="#c0b8a8" stroke-width="3" opacity="0.35"/>
<circle cx="212.0" cy="531.3" r="40.5" fill="#c0b8a8" opacity="0.4"/>
<text x="383.0" y="449.0" text-anchor="end" font-size="12" font-weight="bold" fill="#888888" opacity="0.6">2</text>
<text x="389.0" y="791.0" text-anchor="end" font-size="9" fill="#888888" opacity="0.5">MED</text>
<rect x="405.0" y="433.0" width="366.0" height="364.0" rx="2" fill="#f5f0e8" stroke="#2a2a2a" stroke-width="1.5"/>
<path d="M486.1,706.0 Q486.1,655.0 562.5,648.7 L613.5,648.7 Q689.9,655.0 689.9,706.0 L689.9,753.3 L486.1,753.3 Z" fill="#c0b8a8" opacity="0.25"/>
<path d="M565.7,648.7 L588.0,680.5 L610.3,648.7" fill="none" stroke="#c0b8a8" stroke-width="1" opacity="0.3"/>
<circle cx="588.0" cy="578.6" r="63.7" fill="#c0b8a8" opacity="0.35"/>
<path d="M524.3,591.3 Q533.9,648.7 588.0,651.9 Q642.1,648.7 651.7,591.3" fill="none" stroke="#c0b8a8" stroke-width="1.2" opacity="0.3"/>
<path d="M521.1,572.2 Q588.0,495.8 654.9,572.2" fill="none" stroke="#c0b8a8" stroke-width="2" opacity="0.4"/>
<ellipse cx="522.3" cy="581.8" rx="2.5" ry="4" fill="#c0b8a8" opacity="0.25"/>
<ellipse cx="653.7" cy="581.8" rx="2.5" ry="4" fill="#c0b8a8" opacity="0.25"/>
<text x="759.0" y="449.0" text-anchor="end" font-size="12" font-weight="bold" fill="#888888" opacity="0.6">3</text>
<text x="765.0" y="791.0" text-anchor="end" font-size="9" fill="#888888" opacity="0.5">MCU</text>
<rect x="29.0" y="807.0" width="493.8" height="364.0" rx="2" fill="#f5f0e8" stroke="#2a2a2a" stroke-width="1.5"/>
<path d="M217.4,1069.1 L222.7,1022.6 Q228.0,1018.6 259.7,1018.6 L292.1,1018.6 Q323.8,1018.6 329.2,1022.6 L334.5,1069.1 Z" fill="#2e8b57" opacity="0.35"/>
<line x1="222.7" y1="1044.5" x2="329.2" y2="1044.5" stroke="#2e8b57" stroke-width="1" opacity="0.3"/>
<line x1="222.7" y1="1022.6" x2="201.4" y2="1063.5" stroke="#2e8b57" stroke-width="2" opacity="0.3"/>
<line x1="201.4" y1="1063.5" x2="217.4" y2="1088.1" stroke="#2e8b57" stroke-width="2" opacity="0.3"/>
<line x1="329.2" y1="1022.6" x2="350.4" y2="1063.5" stroke="#2e8b57" stroke-width="2" opacity="0.3"/>
<line x1="350.4" y1="1063.5" x2="334.5" y2="1088.1" stroke="#2e8b57" stroke-width="2" opacity="0.3"/>
<line x1="275.9" y1="945.7" x2="275.9" y2="1018.6" stroke="#2e8b57" stroke-width="3" opacity="0.35"/>
<circle cx="275.9" cy="905.3" r="40.5" fill="#2e8b57" opacity="0.4"/>
<rect x="35.0" y="815.0" width="66.5" height="40.0" rx="6" fill="white" stroke="#2e8b57" stroke-width="1.0" opacity="0.92"/>
<polygon points="54.9,855.0 62.9,855.0 51.9,863.0" fill="white" stroke="#2e8b57" stroke-width="0.8"/>
<line x1="54.4" y1="855.0" x2="63.4" y2="855.0" stroke="white" stroke-width="1.5"/>
<text x="41.0" y="832.0" font-size="11.0" fill="#2e8b57" font-weight="700">JINK</text>
<text x="41.0" y="846.0" font-size="11.0" fill="#333333">Theodore.</text>
<rect x="454.8" y="865.0" width="62.0" height="40.0" rx="6" fill="white" stroke="#c49a6c" stroke-width="1.0" opacity="0.92"/>
<polygon points="473.4,905.0 481.4,905.0 470.4,913.0" fill="white" stroke="#c49a6c" stroke-width="0.8"/>
<line x1="472.9" y1="905.0" x2="481.9" y2="905.0" stroke="white" stroke-width="1.5"/>
<text x="460.8" y="882.0" font-size="11.0" fill="#c49a6c" font-weight="700">THEODORE</text>
<text x="460.8" y="896.0" font-size="11.0" fill="#333333">Mm?</text>
<rect x="35.0" y="915.0" width="477.9" height="54.0" rx="6" fill="white" stroke="#2e8b57" stroke-width="1.0" opacity="0.92"/>
<polygon points="178.4,969.0 186.4,969.0 175.4,977.0" fill="white" stroke="#2e8b57" stroke-width="0.8"/>
<line x1="177.9" y1="969.0" x2="186.9" y2="969.0" stroke="white" stroke-width="1.5"/>
<text x="41.0" y="932.0" font-size="11.0" fill="#2e8b57" font-weight="700">JINK</text>
<text x="41.0" y="946.0" font-size="11.0" fill="#333333">If things go wrong tomorrow — if the operation fails, if the devices don't go</text>
<text x="41.0" y="960.0" font-size="11.0" fill="#333333">down, if the Titans come — you walk away.</text>
<text x="510.8" y="823.0" text-anchor="end" font-size="12" font-weight="bold" fill="#888888" opacity="0.6">4</text>
<text x="516.8" y="1165.0" text-anchor="end" font-size="9" fill="#888888" opacity="0.5">MED</text>
<rect x="532.8" y="807.0" width="238.2" height="364.0" rx="2" fill="#f5f0e8" stroke="#2a2a2a" stroke-width="1.5"/>
<ellipse cx="651.9" cy="959.9" rx="95.3" ry="163.8" fill="#c49a6c" opacity="0.18"/>
<path d="M551.9,902.5 Q651.9,771.5 751.9,902.5" fill="none" stroke="#c49a6c" stroke-width="3" opacity="0.35"/>
<line x1="618.6" y1="923.8" x2="647.2" y2="921.8" stroke="#a89888" stroke-width="1.5" opacity="0.45"/>
<line x1="656.7" y1="921.8" x2="685.3" y2="923.8" stroke="#a89888" stroke-width="1.5" opacity="0.45"/>
<ellipse cx="625.2" cy="940.2" rx="11.4" ry="8.2" fill="#a89888" opacity="0.45"/>
<ellipse cx="678.6" cy="940.2" rx="11.4" ry="8.2" fill="#a89888" opacity="0.45"/>
<line x1="651.9" y1="963.2" x2="651.9" y2="989.4" stroke="#a89888" stroke-width="1.2" opacity="0.35"/>
<path d="M646.2,989.4 Q651.9,992.4 657.6,989.4" fill="none" stroke="#a89888" stroke-width="1" opacity="0.3"/>
<line x1="628.1" y1="1012.3" x2="675.7" y2="1012.3" stroke="#a89888" stroke-width="1.2" opacity="0.35"/>
<rect x="538.8" y="815.0" width="166.0" height="38.0" rx="6" fill="white" stroke="#c49a6c" stroke-width="1.0" opacity="0.92"/>
<polygon points="588.6,853.0 596.6,853.0 585.6,861.0" fill="white" stroke="#c49a6c" stroke-width="0.8"/>
<line x1="588.1" y1="853.0" x2="597.1" y2="853.0" stroke="white" stroke-width="1.5"/>
<text x="544.8" y="831.0" font-size="10.0" fill="#c49a6c" font-weight="700">THEODORE</text>
<text x="544.8" y="844.0" font-size="10.0" fill="#333333">What do you mean, walk away?</text>
<text x="759.0" y="823.0" text-anchor="end" font-size="12" font-weight="bold" fill="#888888" opacity="0.6">5</text>
<text x="765.0" y="1165.0" text-anchor="end" font-size="9" fill="#888888" opacity="0.5">CU</text>
</svg>