<svg xmlns="http://www.w3.org/2000/svg" viewBox="0 0 800 1200" width="800" height="1200" style="background:#ffffff">
<style>
  text { font-family: "Helvetica Neue", Helvetica, Arial, sans-serif; }
</style>
<text x="400.0" y="22" text-anchor="middle" font-size="16" fill="#888888" font-weight="500">PAGE 15  (5 panels)</text>
<rect x="29.0" y="59.0" width="742.0" height="364.0" rx="2" fill="#f5f0e8" stroke="#2a2a2a" stroke-width="1.5"/>
<line x1="35.0" y1="342.9" x2="765.0" y2="342.9" stroke="#a89888" stroke-width="1.0" opacity="0.5"/>
<ellipse cx="214.5" cy="344.9" rx="11.2" ry="2.7" fill="#a89888" opacity="0.2"/>
<line x1="211.8" y1="327.2" x2="207.8" y2="342.9" stroke="#c0b8a8" stroke-width="2" opacity="0.5"/>
<line x1="217.2" y1="327.2" x2="221.2" y2="342.9" stroke="#c0b8a8" stroke-width="2" opacity="0.5"/>
<line x1="214.5" y1="314.1" x2="214.5" y2="327.2" stroke="#c0b8a8" stroke-width="2.5" opacity="0.6"/>
<line x1="201.0" y1="316.1" x2="228.0" y2="316.1" stroke="#c0b8a8" stroke-width="2" opacity="0.5"/>
<line x1="201.0" y1="316.1" x2="196.5" y2="327.6" stroke="#c0b8a8" stroke-width="1.5" opacity="0.4"/>
<line x1="228.0" y1="316.1" x2="232.5" y2="327.6" stroke="#c0b8a8" stroke-width="1.5" opacity="0.4"/>
<circle cx="214.5" cy="297.9" r="8.1" fill="#c0b8a8" opacity="0.6"/>
<ellipse cx="400.0" cy="344.9" rx="11.2" ry="2.7" fill="#a89888" opacity="0.2"/>
<line x1="397.3" y1="327.2" x2="393.2" y2="342.9" stroke="#c0b8a8" stroke-width="2" opacity="0.5"/>
<line x1="402.7" y1="327.2" x2="406.8" y2="342.9" stroke="#c0b8a8" stroke-width="2" opacity="0.5"/>
<line x1="400.0" y1="314.1" x2="400.0" y2="327.2" stroke="#c0b8a8" stroke-width="2.5" opacity="0.6"/>
<line x1="386.5" y1="316.1" x2="413.5" y2="316.1" stroke="#c0b8a8" stroke-width="2" opacity="0.5"/>
<line x1="386.5" y1="316.1" x2="382.0" y2="327.6" stroke="#c0b8a8" stroke-width="1.5" opacity="0.4"/>
<line x1="413.5" y1="316.1" x2="418.0" y2="327.6" stroke="#c0b8a8" stroke-width="1.5" opacity="0.4"/>
<circle cx="400.0" cy="297.9" r="8.1" fill="#c0b8a8" opacity="0.6"/>
<ellipse cx="585.5" cy="344.9" rx="11.2" ry="2.7" fill="#a89888" opacity="0.2"/>
<line x1="582.8" y1="327.2" x2="578.8" y2="342.9" stroke="#c0b8a8" stroke-width="2" opacity="0.5"/>
<line x1="588.2" y1="327.2" x2="592.2" y2="342.9" stroke="#c0b8a8" stroke-width="2" opacity="0.5"/>
<line x1="585.5" y1="314.1" x2="585.5" y2="327.2" stroke="#c0b8a8" stroke-width="2.5" opacity="0.6"/>
<line x1="572.0" y1="316.1" x2="599.0" y2="316.1" stroke="#c0b8a8" stroke-width="2" opacity="0.5"/>
<line x1="572.0" y1="316.1" x2="567.5" y2="327.6" stroke="#c0b8a8" stroke-width="1.5" opacity="0.4"/>
<line x1="599.0" y1="316.1" x2="603.5" y2="327.6" stroke="#c0b8a8" stroke-width="1.5" opacity="0.4"/>
<circle cx="585.5" cy="297.9" r="8.1" fill="#c0b8a8" opacity="0.6"/>
<rect x="35.0" y="67.0" width="133.0" height="40.0" rx="2" fill="#f5ecd8" stroke="#c8b898" stroke-width="0.8" opacity="0.92"/>
<text x="41.0" y="84.0" font-size="11.0" fill="#5a4a30" font-style="italic" font-weight="500">CAPTION</text>
<text x="41.0" y="98.0" font-size="11.0" fill="#5a4a30" font-style="italic">The church basement.</text>
<text x="759.0" y="75.0" text-anchor="end" font-size="12" font-weight="bold" fill="#888888" opacity="0.6">1</text>
<text x="765.0" y="417.0" text-anchor="end" font-size="9" fill="#888888" opacity="0.5">EST</text>
<rect x="29.0" y="433.0" width="366.0" height="364.0" rx="2" fill="#f5f0e8" stroke="#2a2a2a" stroke-width="1.5"/>
<path d="M110.1,706.0 Q110.1,655.0 186.5,648.7 L237.5,648.7 Q313.9,655.0 313.9,706.0 L313.9,753.3 L110.1,753.3 Z" fill="#6a5acd" opacity="0.25"/>
<path d="M189.7,648.7 L212.0,680.5 L234.3,648.7" fill="none" stroke="#6a5acd" stroke-width="1" opacity="0.3"/>
<circle cx="212.0" cy="578.6" r="63.7" fill="#6a5acd" opacity="0.35"/>
<path d="M148.3,591.3 Q157.9,648.7 212.0,651.9 Q266.1,648.7 275.7,591.3" fill="none" stroke="#6a5acd" stroke-width="1.2" opacity="0.3"/>
<path d="M145.1,572.2 Q212.0,495.8 278.9,572.2" fill="none" stroke="#6a5acd" stroke-width="2" opacity="0.4"/>
<ellipse cx="146.3" cy="581.8" rx="2.5" ry="4" fill="#6a5acd" opacity="0.25"/>
<ellipse cx="277.7" cy="581.8" rx="2.5" ry="4" fill="#6a5acd" opacity="0.25"/>
<rect x="35.0" y="441.0" width="326.6" height="40.0" rx="6" fill="white" stroke="#6a5acd" stroke-width="1.0" opacity="0.92"/>
<polygon points="133.0,481.0 141.0,481.0 130.0,489.0" fill="white" stroke="#6a5acd" stroke-width="0.8"/>
<line x1="132.5" y1="481.0" x2="141.5" y2="481.0" stroke="white" stroke-width="1.5"/>
<text x="41.0" y="458.0" font-size="11.0" fill="#6a5acd" font-weight="700">LUMA</text>
<text x="41.0" y="472.0" font-size="11.0" fill="#333333">You knew, didn't you. You knew what the mission was.</text>
<text x="383.0" y="449.0" text-anchor="end" font-size="12" font-weight="bold" fill="#888888" opacity="0.6">2</text>
<text x="389.0" y="791.0" text-anchor="end" font-size="9" fill="#888888" opacity="0.5">MCU</text>
<rect x="405.0" y="433.0" width="366.0" height="364.0" rx="2" fill="#f5f0e8" stroke="#2a2a2a" stroke-width="1.5"/>
<ellipse cx="588.0" cy="585.9" rx="114.7" ry="163.8" fill="#6a5acd" opacity="0.18"/>
<path d="M467.6,528.5 Q588.0,397.5 708.4,528.5" fill="none" stroke="#6a5acd" stroke-width="3" opacity="0.35"/>
<line x1="547.9" y1="549.8" x2="582.3" y2="547.8" stroke="#a89888" stroke-width="1.5" opacity="0.45"/>
<line x1="593.7" y1="547.8" x2="628.1" y2="549.8" stroke="#a89888" stroke-width="1.5" opacity="0.45"/>
<ellipse cx="555.9" cy="566.2" rx="13.8" ry="8.2" fill="#a89888" opacity="0.45"/>
<ellipse cx="620.1" cy="566.2" rx="13.8" ry="8.2" fill="#a89888" opacity="0.45"/>
<line x1="588.0" y1="589.2" x2="588.0" y2="615.4" stroke="#a89888" stroke-width="1.2" opacity="0.35"/>
<path d="M581.1,615.4 Q588.0,618.4 594.9,615.4" fill="none" stroke="#a89888" stroke-width="1" opacity="0.3"/>
<line x1="559.3" y1="638.3" x2="616.7" y2="638.3" stroke="#a89888" stroke-width="1.2" opacity="0.35"/>
<rect x="411.0" y="441.0" width="344.8" height="54.0" rx="6" fill="white" stroke="#6a5acd" stroke-width="1.0" opacity="0.92"/>
<polygon points="514.4,495.0 522.4,495.0 511.4,503.0" fill="white" stroke="#6a5acd" stroke-width="0.8"/>
<line x1="513.9" y1="495.0" x2="522.9" y2="495.0" stroke="white" stroke-width="1.5"/>
<text x="417.0" y="458.0" font-size="11.0" fill="#6a5acd" font-weight="700">LUMA</text>
<text x="417.0" y="472.0" font-size="11.0" fill="#333333">You stayed until you couldn't fly anymore. And then you</text>
<text x="417.0" y="486.0" font-size="11.0" fill="#333333">stayed.</text>
<text x="759.0" y="449.0" text-anchor="end" font-size="12" font-weight="bold" fill="#888888" opacity="0.6">3</text>
<text x="765.0" y="791.0" text-anchor="end" font-size="9" fill="#888888" opacity="0.5">CU</text>
<rect x="29.0" y="807.0" width="238.2" height="364.0" rx="2" fill="#f5f0e8" stroke="#2a2a2a" stroke-width="1.5"/>
<ellipse cx="148.1" cy="959.9" rx="95.3" ry="163.8" fill="#c0b8a8" opacity="0.18"/>
<path d="M48.1,902.5 Q148.1,771.5 248.1,902.5" fill="none" stroke="#c0b8a8" stroke-width="3" opacity="0.35"/>
<line x1="114.7" y1="923.8" x2="143.3" y2="921.8" stroke="#a89888" stroke-width="1.5" opacity="0.45"/>
<line x1="152.8" y1="921.8" x2="181.4" y2="923.8" stroke="#a89888" stroke-width="1.5" opacity="0.45"/>
<ellipse cx="121.4" cy="940.2" rx="11.4" ry="8.2" fill="#a89888" opacity="0.45"/>
<ellipse cx="174.8" cy="940.2" rx="11.4" ry="8.2" fill="#a89888" opacity="0.45"/>
<line x1="148.1" y1="963.2" x2="148.1" y2="989.4" stroke="#a89888" stroke-width="1.2" opacity="0.35"/>
<path d="M142.4,989.4 Q148.1,992.4 153.8,989.4" fill="none" stroke="#a89888" stroke-width="1" opacity="0.3"/>
<line x1="124.3" y1="1012.3" x2="171.9" y2="1012.3" stroke="#a89888" stroke-width="1.2" opacity="0.35"/>
<text x="255.2" y="823.0" text-anchor="end" font-size="12" font-weight="bold" fill="#888888" opacity="0.6">4</text>
<text x="261.2" y="1165.0" text-anchor="end" font-size="9" fill="#888888" opacity="0.5">CU</text>
<rect x="277.2" y="807.0" width="493.8" height="364.0" rx="2" fill="#f5f0e8" stroke="#2a2a2a" stroke-width="1.5"/>
<path d="M465.5,1069.1 L470.8,1022.6 Q476.2,1018.6 507.9,1018.6 L540.3,1018.6 Q572.0,1018.6 577.3,1022.6 L582.6,1069.1 Z" fill="#c0b8a8" opacity="0.35"/>
<line x1="470.8" y1="1044.5" x2="577.3" y2="1044.5" stroke="#c0b8a8" stroke-width="1" opacity="0.3"/>
<line x1="470.8" y1="1022.6" x2="449.6" y2="1063.5" stroke="#c0b8a8" stroke-width="2" opacity="0.3"/>
<line x1="449.6" y1="1063.5" x2="465.5" y2="1088.1" stroke="#c0b8a8" stroke-width="2" opacity="0.3"/>
<line x1="577.3" y1="1022.6" x2="598.6" y2="1063.5" stroke="#c0b8a8" stroke-width="2" opacity="0.3"/>
<line x1="598.6" y1="1063.5" x2="582.6" y2="1088.1" stroke="#c0b8a8" stroke-width="2" opacity="0.3"/>
<line x1="524.1" y1="945.7" x2="524.1" y2="1018.6" stroke="#c0b8a8" stroke-width="3" opacity="0.35"/>
<circle cx="524.1" cy="905.3" r="40.5" fill="#c0b8a8" opacity="0.4"/>
<text x="759.0" y="823.0" text-anchor="end" font-size="12" font-weight="bold" fill="#888888" opacity="0.6">5</text>
<text x="765.0" y="1165.0" text-anchor="end" font-size="9" fill="#888888" opacity="0.5">MED</text>
</svg>