<svg xmlns="http://www.w3.org/2000/svg" viewBox="0 0 800 1200" width="800" height="1200" style="background:#ffffff">
<style>
  text { font-family: "Helvetica Neue", Helvetica, Arial, sans-serif; }
</style>
<text x="400.0" y="22" text-anchor="middle" font-size="16" fill="#888888" font-weight="500">PAGE 10  (5 panels)</text>
<rect x="29.0" y="59.0" width="742.0" height="364.0" rx="2" fill="#f5f0e8" stroke="#2a2a2a" stroke-width="1.5"/>
<path d="M341.4,321.1 L346.8,274.6 Q352.1,270.6 383.8,270.6 L416.2,270.6 Q447.9,270.6 453.2,274.6 L458.6,321.1 Z" fill="#2e8b57" opacity="0.35"/>
<line x1="346.8" y1="296.5" x2="453.2" y2="296.5" stroke="#2e8b57" stroke-width="1" opacity="0.3"/>
<line x1="346.8" y1="274.6" x2="325.5" y2="315.5" stroke="#2e8b57" stroke-width="2" opacity="0.3"/>
<line x1="325.5" y1="315.5" x2="341.4" y2="340.1" stroke="#2e8b57" stroke-width="2" opacity="0.3"/>
<line x1="453.2" y1="274.6" x2="474.5" y2="315.5" stroke="#2e8b57" stroke-width="2" opacity="0.3"/>
<line x1="474.5" y1="315.5" x2="458.6" y2="340.1" stroke="#2e8b57" stroke-width="2" opacity="0.3"/>
<line x1="400.0" y1="197.7" x2="400.0" y2="270.6" stroke="#2e8b57" stroke-width="3" opacity="0.35"/>
<circle cx="400.0" cy="157.3" r="40.5" fill="#2e8b57" opacity="0.4"/>
<rect x="35.0" y="67.0" width="653.3" height="40.0" rx="6" fill="white" stroke="#2e8b57" stroke-width="1.0" opacity="0.92"/>
<polygon points="231.0,107.0 239.0,107.0 228.0,115.0" fill="white" stroke="#2e8b57" stroke-width="0.8"/>
<line x1="230.5" y1="107.0" x2="239.5" y2="107.0" stroke="white" stroke-width="1.5"/>
<text x="41.0" y="84.0" font-size="11.0" fill="#2e8b57" font-weight="700">JINK</text>
<text x="41.0" y="98.0" font-size="11.0" fill="#333333">If I come in from the east roofline, I can use the chimney stacks as cover down to the third-floor window.</text>
<rect x="317.4" y="117.0" width="447.6" height="40.0" rx="6" fill="white" stroke="#c87533" stroke-width="1.0" opacity="0.92"/>
<polygon points="451.7,157.0 459.7,157.0 448.7,165.0" fill="white" stroke="#c87533" stroke-width="0.8"/>
<line x1="451.2" y1="157.0" x2="460.2" y2="157.0" stroke="white" stroke-width="1.5"/>
<text x="323.4" y="134.0" font-size="11.0" fill="#c87533" font-weight="700">WREN</text>
<text x="323.4" y="148.0" font-size="11.0" fill="#333333">The window's been sealed since my last recon. North approach is cleaner.</text>
<rect x="35.0" y="167.0" width="375.0" height="40.0" rx="6" fill="white" stroke="#2e8b57" stroke-width="1.0" opacity="0.92"/>
<polygon points="147.5,207.0 155.5,207.0 144.5,215.0" fill="white" stroke="#2e8b57" stroke-width="0.8"/>
<line x1="147.0" y1="207.0" x2="156.0" y2="207.0" stroke="white" stroke-width="1.5"/>
<text x="41.0" y="184.0" font-size="11.0" fill="#2e8b57" font-weight="700">JINK</text>
<text x="41.0" y="198.0" font-size="11.0" fill="#333333">North puts me in the telegraph line shadow for forty meters.</text>
<rect x="432.3" y="217.0" width="332.7" height="40.0" rx="6" fill="white" stroke="#b0b0b0" stroke-width="1.0" opacity="0.92"/>
<polygon points="532.1,257.0 540.1,257.0 529.1,265.0" fill="white" stroke="#b0b0b0" stroke-width="0.8"/>
<line x1="531.6" y1="257.0" x2="540.6" y2="257.0" stroke="white" stroke-width="1.5"/>
<text x="438.3" y="234.0" font-size="11.0" fill="#b0b0b0" font-weight="700">SABLE</text>
<text x="438.3" y="248.0" font-size="11.0" fill="#333333">Take the east. Use the chimneys. Jink knows rooftops.</text>
<text x="759.0" y="75.0" text-anchor="end" font-size="12" font-weight="bold" fill="#888888" opacity="0.6">1</text>
<text x="765.0" y="417.0" text-anchor="end" font-size="9" fill="#888888" opacity="0.5">MW</text>
<rect x="29.0" y="433.0" width="366.0" height="364.0" rx="2" fill="#f5f0e8" stroke="#2a2a2a" stroke-width="1.5"/>
<path d="M110.1,706.0 Q110.1,655.0 186.5,648.7 L237.5,648.7 Q313.9,655.0 313.9,706.0 L313.9,753.3 L110.1,753.3 Z" fill="#b0b0b0" opacity="0.25"/>
<path d="M189.7,648.7 L212.0,680.5 L234.3,648.7" fill="none" stroke="#b0b0b0" stroke-width="1" opacity="0.3"/>
<circle cx="212.0" cy="578.6" r="63.7" fill="#b0b0b0" opacity="0.35"/>
<path d="M148.3,591.3 Q157.9,648.7 212.0,651.9 Q266.1,648.7 275.7,591.3" fill="none" stroke="#b0b0b0" stroke-width="1.2" opacity="0.3"/>
<path d="M145.1,572.2 Q212.0,495.8 278.9,572.2" fill="none" stroke="#b0b0b0" stroke-width="2" opacity="0.4"/>
<ellipse cx="146.3" cy="581.8" rx="2.5" ry="4" fill="#b0b0b0" opacity="0.25"/>
<ellipse cx="277.7" cy="581.8" rx="2.5" ry="4" fill="#b0b0b0" opacity="0.25"/>
<rect x="35.0" y="441.0" width="350.8" height="54.0" rx="6" fill="white" stroke="#b0b0b0" stroke-width="1.0" opacity="0.92"/>
<polygon points="140.2,495.0 148.2,495.0 137.2,503.0" fill="white" stroke="#b0b0b0" stroke-width="0.8"/>
<line x1="139.7" y1="495.0" x2="148.7" y2="495.0" stroke="white" stroke-width="1.5"/>
<text x="41.0" y="458.0" font-size="11.0" fill="#b0b0b0" font-weight="700">SABLE</text>
<text x="41.0" y="472.0" font-size="11.0" fill="#333333">Comms check at position. My signal starts the countdown.</text>
<text x="41.0" y="486.0" font-size="11.0" fill="#333333">You will have ninety seconds from the pulse.</text>
<rect x="50.3" y="505.0" width="338.7" height="54.0" rx="6" fill="white" stroke="#b0b0b0" stroke-width="1.0" opacity="0.92"/>
<polygon points="151.9,559.0 159.9,559.0 148.9,567.0" fill="white" stroke="#b0b0b0" stroke-width="0.8"/>
<line x1="151.4" y1="559.0" x2="160.4" y2="559.0" stroke="white" stroke-width="1.5"/>
<text x="56.3" y="522.0" font-size="11.0" fill="#b0b0b0" font-weight="700">SABLE</text>
<text x="56.3" y="536.0" font-size="11.0" fill="#333333">If anyone is compromised, call it. We adapt. We do not</text>
<text x="56.3" y="550.0" font-size="11.0" fill="#333333">abort.</text>
<text x="383.0" y="449.0" text-anchor="end" font-size="12" font-weight="bold" fill="#888888" opacity="0.6">2</text>
<text x="389.0" y="791.0" text-anchor="end" font-size="9" fill="#888888" opacity="0.5">MCU</text>
<rect x="405.0" y="433.0" width="366.0" height="364.0" rx="2" fill="#f5f0e8" stroke="#2a2a2a" stroke-width="1.5"/>
<path d="M529.4,695.1 L534.8,648.6 Q540.1,644.6 571.8,644.6 L604.2,644.6 Q635.9,644.6 641.2,648.6 L646.6,695.1 Z" fill="#c87533" opacity="0.35"/>
<line x1="534.8" y1="670.5" x2="641.2" y2="670.5" stroke="#c87533" stroke-width="1" opacity="0.3"/>
<line x1="534.8" y1="648.6" x2="513.5" y2="689.5" stroke="#c87533" stroke-width="2" opacity="0.3"/>
<line x1="513.5" y1="689.5" x2="529.4" y2="714.1" stroke="#c87533" stroke-width="2" opacity="0.3"/>
<line x1="641.2" y1="648.6" x2="662.5" y2="689.5" stroke="#c87533" stroke-width="2" opacity="0.3"/>
<line x1="662.5" y1="689.5" x2="646.6" y2="714.1" stroke="#c87533" stroke-width="2" opacity="0.3"/>
<line x1="588.0" y1="571.7" x2="588.0" y2="644.6" stroke="#c87533" stroke-width="3" opacity="0.35"/>
<circle cx="588.0" cy="531.3" r="40.5" fill="#c87533" opacity="0.4"/>
<rect x="411.0" y="441.0" width="354.0" height="68.0" rx="6" fill="white" stroke="#c87533" stroke-width="1.0" opacity="0.92"/>
<polygon points="517.2,509.0 525.2,509.0 514.2,517.0" fill="white" stroke="#c87533" stroke-width="0.8"/>
<line x1="516.7" y1="509.0" x2="525.7" y2="509.0" stroke="white" stroke-width="1.5"/>
<text x="417.0" y="458.0" font-size="11.0" fill="#c87533" font-weight="700">WREN</text>
<text x="417.0" y="472.0" font-size="11.0" fill="#333333">Modified for your scale. The display is simplified — green</text>
<text x="417.0" y="486.0" font-size="11.0" fill="#333333">means go, red means stop, the counter shows your window.</text>
<text x="417.0" y="500.0" font-size="11.0" fill="#333333">Theodore, you understand the disarm sequence?</text>
<rect x="411.0" y="519.0" width="350.8" height="54.0" rx="6" fill="white" stroke="#c49a6c" stroke-width="1.0" opacity="0.92"/>
<polygon points="516.2,573.0 524.2,573.0 513.2,581.0" fill="white" stroke="#c49a6c" stroke-width="0.8"/>
<line x1="515.7" y1="573.0" x2="524.7" y2="573.0" stroke="white" stroke-width="1.5"/>
<text x="417.0" y="536.0" font-size="11.0" fill="#c49a6c" font-weight="700">THEODORE</text>
<text x="417.0" y="550.0" font-size="11.0" fill="#333333">Four couplings. Two copper, two insulated. Copper first,</text>
<text x="417.0" y="564.0" font-size="11.0" fill="#333333">then insulated. Counter-clockwise. I've rehearsed it.</text>
<text x="759.0" y="449.0" text-anchor="end" font-size="12" font-weight="bold" fill="#888888" opacity="0.6">3</text>
<text x="765.0" y="791.0" text-anchor="end" font-size="9" fill="#888888" opacity="0.5">MED</text>
<rect x="29.0" y="807.0" width="493.8" height="364.0" rx="2" fill="#f5f0e8" stroke="#2a2a2a" stroke-width="1.5"/>
<path d="M217.4,1069.1 L222.7,1022.6 Q228.0,1018.6 259.7,1018.6 L292.1,1018.6 Q323.8,1018.6 329.2,1022.6 L334.5,1069.1 Z" fill="#b0b0b0" opacity="0.35"/>
<line x1="222.7" y1="1044.5" x2="329.2" y2="1044.5" stroke="#b0b0b0" stroke-width="1" opacity="0.3"/>
<line x1="222.7" y1="1022.6" x2="201.4" y2="1063.5" stroke="#b0b0b0" stroke-width="2" opacity="0.3"/>
<line x1="201.4" y1="1063.5" x2="217.4" y2="1088.1" stroke="#b0b0b0" stroke-width="2" opacity="0.3"/>
<line x1="329.2" y1="1022.6" x2="350.4" y2="1063.5" stroke="#b0b0b0" stroke-width="2" opacity="0.3"/>
<line x1="350.4" y1="1063.5" x2="334.5" y2="1088.1" stroke="#b0b0b0" stroke-width="2" opacity="0.3"/>
<line x1="275.9" y1="945.7" x2="275.9" y2="1018.6" stroke="#b0b0b0" stroke-width="3" opacity="0.35"/>
<circle cx="275.9" cy="905.3" r="40.5" fill="#b0b0b0" opacity="0.4"/>
<rect x="35.0" y="815.0" width="481.8" height="54.0" rx="6" fill="white" stroke="#b0b0b0" stroke-width="1.0" opacity="0.92"/>
<polygon points="179.6,869.0 187.6,869.0 176.6,877.0" fill="white" stroke="#b0b0b0" stroke-width="0.8"/>
<line x1="179.1" y1="869.0" x2="188.1" y2="869.0" stroke="white" stroke-width="1.5"/>
<text x="41.0" y="832.0" font-size="11.0" fill="#b0b0b0" font-weight="700">SABLE</text>
<text x="41.0" y="846.0" font-size="11.0" fill="#333333">Extraction routes. Each operator returns to camp independently. Different routes,</text>
<text x="41.0" y="860.0" font-size="11.0" fill="#333333">staggered timing. If the operation succeeds, regroup here. If it fails —</text>
<rect x="450.4" y="879.0" width="66.5" height="40.0" rx="6" fill="white" stroke="#2e8b57" stroke-width="1.0" opacity="0.92"/>
<polygon points="470.3,919.0 478.3,919.0 467.3,927.0" fill="white" stroke="#2e8b57" stroke-width="0.8"/>
<line x1="469.8" y1="919.0" x2="478.8" y2="919.0" stroke="white" stroke-width="1.5"/>
<text x="456.4" y="896.0" font-size="11.0" fill="#2e8b57" font-weight="700">JINK</text>
<text x="456.4" y="910.0" font-size="11.0" fill="#333333">It won't.</text>
<rect x="35.0" y="929.0" width="481.8" height="54.0" rx="6" fill="white" stroke="#b0b0b0" stroke-width="1.0" opacity="0.92"/>
<polygon points="179.6,983.0 187.6,983.0 176.6,991.0" fill="white" stroke="#b0b0b0" stroke-width="0.8"/>
<line x1="179.1" y1="983.0" x2="188.1" y2="983.0" stroke="white" stroke-width="1.5"/>
<text x="41.0" y="946.0" font-size="11.0" fill="#b0b0b0" font-weight="700">SABLE</text>
<text x="41.0" y="960.0" font-size="11.0" fill="#333333">If it fails, scatter. Do not regroup. Find Theodore. He gets you out of the area.</text>
<text x="41.0" y="974.0" font-size="11.0" fill="#333333">Rendezvous at the secondary location — the church basement.</text>
<text x="510.8" y="823.0" text-anchor="end" font-size="12" font-weight="bold" fill="#888888" opacity="0.6">4</text>
<text x="516.8" y="1165.0" text-anchor="end" font-size="9" fill="#888888" opacity="0.5">MED</text>
<rect x="532.8" y="807.0" width="238.2" height="364.0" rx="2" fill="#f5f0e8" stroke="#2a2a2a" stroke-width="1.5"/>
<ellipse cx="651.9" cy="959.9" rx="95.3" ry="163.8" fill="#c0b8a8" opacity="0.18"/>
<path d="M551.9,902.5 Q651.9,771.5 751.9,902.5" fill="none" stroke="#c0b8a8" stroke-width="3" opacity="0.35"/>
<line x1="618.6" y1="923.8" x2="647.2" y2="921.8" stroke="#a89888" stroke-width="1.5" opacity="0.45"/>
<line x1="656.7" y1="921.8" x2="685.3" y2="923.8" stroke="#a89888" stroke-width="1.5" opacity="0.45"/>
<ellipse cx="625.2" cy="940.2" rx="11.4" ry="8.2" fill="#a89888" opacity="0.45"/>
<ellipse cx="678.6" cy="940.2" rx="11.4" ry="8.2" fill="#a89888" opacity="0.45"/>
<line x1="651.9" y1="963.2" x2="651.9" y2="989.4" stroke="#a89888" stroke-width="1.2" opacity="0.35"/>
<path d="M646.2,989.4 Q651.9,992.4 657.6,989.4" fill="none" stroke="#a89888" stroke-width="1" opacity="0.3"/>
<line x1="628.1" y1="1012.3" x2="675.7" y2="1012.3" stroke="#a89888" stroke-width="1.2" opacity="0.35"/>
<text x="759.0" y="823.0" text-anchor="end" font-size="12" font-weight="bold" fill="#888888" opacity="0.6">5</text>
<text x="765.0" y="1165.0" text-anchor="end" font-size="9" fill="#888888" opacity="0.5">CU</text>
</svg>