<svg xmlns="http://www.w3.org/2000/svg" viewBox="0 0 800 1200" width="800" height="1200" style="background:#ffffff">
<style>
  text { font-family: "Helvetica Neue", Helvetica, Arial, sans-serif; }
</style>
<text x="400.0" y="22" text-anchor="middle" font-size="16" fill="#888888" font-weight="500">PAGE 6  (4 panels)</text>
<rect x="29.0" y="59.0" width="742.0" height="364.0" rx="2" fill="#f5f0e8" stroke="#2a2a2a" stroke-width="1.5"/>
<path d="M341.4,321.1 L346.8,274.6 Q352.1,270.6 383.8,270.6 L416.2,270.6 Q447.9,270.6 453.2,274.6 L458.6,321.1 Z" fill="#b0b0b0" opacity="0.35"/>
<line x1="346.8" y1="296.5" x2="453.2" y2="296.5" stroke="#b0b0b0" stroke-width="1" opacity="0.3"/>
<line x1="346.8" y1="274.6" x2="325.5" y2="315.5" stroke="#b0b0b0" stroke-width="2" opacity="0.3"/>
<line x1="325.5" y1="315.5" x2="341.4" y2="340.1" stroke="#b0b0b0" stroke-width="2" opacity="0.3"/>
<line x1="453.2" y1="274.6" x2="474.5" y2="315.5" stroke="#b0b0b0" stroke-width="2" opacity="0.3"/>
<line x1="474.5" y1="315.5" x2="458.6" y2="340.1" stroke="#b0b0b0" stroke-width="2" opacity="0.3"/>
<line x1="400.0" y1="197.7" x2="400.0" y2="270.6" stroke="#b0b0b0" stroke-width="3" opacity="0.35"/>
<circle cx="400.0" cy="157.3" r="40.5" fill="#b0b0b0" opacity="0.4"/>
<rect x="35.0" y="67.0" width="260.1" height="40.0" rx="6" fill="white" stroke="#b0b0b0" stroke-width="1.0" opacity="0.92"/>
<polygon points="113.0,107.0 121.0,107.0 110.0,115.0" fill="white" stroke="#b0b0b0" stroke-width="0.8"/>
<line x1="112.5" y1="107.0" x2="121.5" y2="107.0" stroke="white" stroke-width="1.5"/>
<text x="41.0" y="84.0" font-size="11.0" fill="#b0b0b0" font-weight="700">SABLE</text>
<text x="41.0" y="98.0" font-size="11.0" fill="#333333">We're not leaving this era to the Titans.</text>
<text x="759.0" y="75.0" text-anchor="end" font-size="12" font-weight="bold" fill="#888888" opacity="0.6">1</text>
<text x="765.0" y="417.0" text-anchor="end" font-size="9" fill="#888888" opacity="0.5">MED</text>
<rect x="29.0" y="433.0" width="742.0" height="364.0" rx="2" fill="#f5f0e8" stroke="#2a2a2a" stroke-width="1.5"/>
<circle cx="400.0" cy="615.0" r="45.0" fill="#b0b0b0" opacity="0.22"/>
<line x1="375.2" y1="603.8" x2="393.2" y2="596.1" stroke="#a89888" stroke-width="1.5" opacity="0.5"/>
<line x1="406.8" y1="596.1" x2="424.8" y2="603.8" stroke="#a89888" stroke-width="1.5" opacity="0.5"/>
<ellipse cx="386.5" cy="610.5" rx="4.5" ry="2.7" fill="#a89888" opacity="0.5"/>
<ellipse cx="413.5" cy="610.5" rx="4.5" ry="2.7" fill="#a89888" opacity="0.5"/>
<line x1="400.0" y1="615.9" x2="400.0" y2="624.0" stroke="#a89888" stroke-width="1" opacity="0.35"/>
<ellipse cx="400.0" cy="632.1" rx="6.8" ry="3.6" fill="#a89888" opacity="0.25"/>
<line x1="444.8" y1="640.9" x2="452.6" y2="645.4" stroke="#a89888" stroke-width="1" opacity="0.3"/>
<line x1="425.9" y1="659.8" x2="430.4" y2="667.6" stroke="#a89888" stroke-width="1" opacity="0.3"/>
<line x1="374.1" y1="659.8" x2="369.6" y2="667.6" stroke="#a89888" stroke-width="1" opacity="0.3"/>
<line x1="355.2" y1="640.9" x2="347.4" y2="645.4" stroke="#a89888" stroke-width="1" opacity="0.3"/>
<line x1="355.2" y1="589.1" x2="347.4" y2="584.6" stroke="#a89888" stroke-width="1" opacity="0.3"/>
<line x1="374.1" y1="570.2" x2="369.6" y2="562.4" stroke="#a89888" stroke-width="1" opacity="0.3"/>
<line x1="425.9" y1="570.2" x2="430.4" y2="562.4" stroke="#a89888" stroke-width="1" opacity="0.3"/>
<line x1="444.8" y1="589.1" x2="452.6" y2="584.6" stroke="#a89888" stroke-width="1" opacity="0.3"/>
<rect x="35.0" y="441.0" width="405.3" height="40.0" rx="6" fill="white" stroke="#b0b0b0" stroke-width="1.0" opacity="0.92"/>
<polygon points="156.6,481.0 164.6,481.0 153.6,489.0" fill="white" stroke="#b0b0b0" stroke-width="0.8"/>
<line x1="156.1" y1="481.0" x2="165.1" y2="481.0" stroke="white" stroke-width="1.5"/>
<text x="41.0" y="458.0" font-size="11.0" fill="#b0b0b0" font-weight="700">SABLE</text>
<text x="41.0" y="472.0" font-size="11.0" fill="#333333">Wren, map the targets. This is a military operation. Not a heist.</text>
<text x="759.0" y="449.0" text-anchor="end" font-size="12" font-weight="bold" fill="#888888" opacity="0.6">2</text>
<text x="765.0" y="791.0" text-anchor="end" font-size="9" fill="#888888" opacity="0.5">RXN</text>
<rect x="29.0" y="807.0" width="366.0" height="364.0" rx="2" fill="#f5f0e8" stroke="#2a2a2a" stroke-width="1.5"/>
<path d="M153.4,1069.1 L158.8,1022.6 Q164.1,1018.6 195.8,1018.6 L228.2,1018.6 Q259.9,1018.6 265.2,1022.6 L270.6,1069.1 Z" fill="#c87533" opacity="0.35"/>
<line x1="158.8" y1="1044.5" x2="265.2" y2="1044.5" stroke="#c87533" stroke-width="1" opacity="0.3"/>
<line x1="158.8" y1="1022.6" x2="137.5" y2="1063.5" stroke="#c87533" stroke-width="2" opacity="0.3"/>
<line x1="137.5" y1="1063.5" x2="153.4" y2="1088.1" stroke="#c87533" stroke-width="2" opacity="0.3"/>
<line x1="265.2" y1="1022.6" x2="286.5" y2="1063.5" stroke="#c87533" stroke-width="2" opacity="0.3"/>
<line x1="286.5" y1="1063.5" x2="270.6" y2="1088.1" stroke="#c87533" stroke-width="2" opacity="0.3"/>
<line x1="212.0" y1="945.7" x2="212.0" y2="1018.6" stroke="#c87533" stroke-width="3" opacity="0.35"/>
<circle cx="212.0" cy="905.3" r="40.5" fill="#c87533" opacity="0.4"/>
<rect x="35.0" y="815.0" width="354.0" height="54.0" rx="6" fill="white" stroke="#c87533" stroke-width="1.0" opacity="0.92"/>
<polygon points="141.2,869.0 149.2,869.0 138.2,877.0" fill="white" stroke="#c87533" stroke-width="0.8"/>
<line x1="140.7" y1="869.0" x2="149.7" y2="869.0" stroke="white" stroke-width="1.5"/>
<text x="41.0" y="832.0" font-size="11.0" fill="#c87533" font-weight="700">WREN</text>
<text x="41.0" y="846.0" font-size="11.0" fill="#333333">Already done. Approach routes, timing windows, extraction</text>
<text x="41.0" y="860.0" font-size="11.0" fill="#333333">points. I've been mapping since last night.</text>
<text x="383.0" y="823.0" text-anchor="end" font-size="12" font-weight="bold" fill="#888888" opacity="0.6">3</text>
<text x="389.0" y="1165.0" text-anchor="end" font-size="9" fill="#888888" opacity="0.5">MED</text>
<rect x="405.0" y="807.0" width="366.0" height="364.0" rx="2" fill="#f5f0e8" stroke="#2a2a2a" stroke-width="1.5"/>
<path d="M486.1,1080.0 Q486.1,1029.0 562.5,1022.7 L613.5,1022.7 Q689.9,1029.0 689.9,1080.0 L689.9,1127.3 L486.1,1127.3 Z" fill="#b0b0b0" opacity="0.25"/>
<path d="M565.7,1022.7 L588.0,1054.5 L610.3,1022.7" fill="none" stroke="#b0b0b0" stroke-width="1" opacity="0.3"/>
<circle cx="588.0" cy="952.6" r="63.7" fill="#b0b0b0" opacity="0.35"/>
<path d="M524.3,965.3 Q533.9,1022.7 588.0,1025.9 Q642.1,1022.7 651.7,965.3" fill="none" stroke="#b0b0b0" stroke-width="1.2" opacity="0.3"/>
<path d="M521.1,946.2 Q588.0,869.8 654.9,946.2" fill="none" stroke="#b0b0b0" stroke-width="2" opacity="0.4"/>
<ellipse cx="522.3" cy="955.8" rx="2.5" ry="4" fill="#b0b0b0" opacity="0.25"/>
<ellipse cx="653.7" cy="955.8" rx="2.5" ry="4" fill="#b0b0b0" opacity="0.25"/>
<rect x="411.0" y="815.0" width="62.0" height="40.0" rx="6" fill="white" stroke="#b0b0b0" stroke-width="1.0" opacity="0.92"/>
<polygon points="429.6,855.0 437.6,855.0 426.6,863.0" fill="white" stroke="#b0b0b0" stroke-width="0.8"/>
<line x1="429.1" y1="855.0" x2="438.1" y2="855.0" stroke="white" stroke-width="1.5"/>
<text x="417.0" y="832.0" font-size="11.0" fill="#b0b0b0" font-weight="700">SABLE</text>
<text x="417.0" y="846.0" font-size="11.0" fill="#333333">Good.</text>
<text x="759.0" y="823.0" text-anchor="end" font-size="12" font-weight="bold" fill="#888888" opacity="0.6">4</text>
<text x="765.0" y="1165.0" text-anchor="end" font-size="9" fill="#888888" opacity="0.5">MCU</text>
</svg>