<svg xmlns="http://www.w3.org/2000/svg" viewBox="0 0 800 1200" width="800" height="1200" style="background:#ffffff">
<style>
  text { font-family: "Helvetica Neue", Helvetica, Arial, sans-serif; }
</style>
<text x="400.0" y="22" text-anchor="middle" font-size="16" fill="#888888" font-weight="500">PAGE 7  (5 panels)</text>
<rect x="29.0" y="59.0" width="742.0" height="364.0" rx="2" fill="#f5f0e8" stroke="#2a2a2a" stroke-width="1.5"/>
<line x1="35.0" y1="342.9" x2="765.0" y2="342.9" stroke="#a89888" stroke-width="1.0" opacity="0.5"/>
<ellipse cx="400.0" cy="344.9" rx="11.2" ry="2.7" fill="#a89888" opacity="0.2"/>
<line x1="397.3" y1="327.2" x2="393.2" y2="342.9" stroke="#c87533" stroke-width="2" opacity="0.5"/>
<line x1="402.7" y1="327.2" x2="406.8" y2="342.9" stroke="#c87533" stroke-width="2" opacity="0.5"/>
<line x1="400.0" y1="314.1" x2="400.0" y2="327.2" stroke="#c87533" stroke-width="2.5" opacity="0.6"/>
<line x1="386.5" y1="316.1" x2="413.5" y2="316.1" stroke="#c87533" stroke-width="2" opacity="0.5"/>
<line x1="386.5" y1="316.1" x2="382.0" y2="327.6" stroke="#c87533" stroke-width="1.5" opacity="0.4"/>
<line x1="413.5" y1="316.1" x2="418.0" y2="327.6" stroke="#c87533" stroke-width="1.5" opacity="0.4"/>
<circle cx="400.0" cy="297.9" r="8.1" fill="#c87533" opacity="0.6"/>
<rect x="35.0" y="67.0" width="695.7" height="40.0" rx="6" fill="white" stroke="#c87533" stroke-width="1.0" opacity="0.92"/>
<polygon points="243.7,107.0 251.7,107.0 240.7,115.0" fill="white" stroke="#c87533" stroke-width="0.8"/>
<line x1="243.2" y1="107.0" x2="252.2" y2="107.0" stroke="white" stroke-width="1.5"/>
<text x="41.0" y="84.0" font-size="11.0" fill="#c87533" font-weight="700">WREN</text>
<text x="41.0" y="98.0" font-size="11.0" fill="#333333">Six targets. Five fairy-scale, one human-scale. The underground junction — Theodore can reach that one. We can't.</text>
<text x="759.0" y="75.0" text-anchor="end" font-size="12" font-weight="bold" fill="#888888" opacity="0.6">1</text>
<text x="765.0" y="417.0" text-anchor="end" font-size="9" fill="#888888" opacity="0.5">WIDE</text>
<rect x="29.0" y="433.0" width="240.7" height="364.0" rx="2" fill="#f5f0e8" stroke="#2a2a2a" stroke-width="1.5"/>
<ellipse cx="149.3" cy="585.9" rx="96.3" ry="163.8" fill="#2e8b57" opacity="0.18"/>
<path d="M48.3,528.5 Q149.3,397.5 250.4,528.5" fill="none" stroke="#2e8b57" stroke-width="3" opacity="0.35"/>
<line x1="115.6" y1="549.8" x2="144.5" y2="547.8" stroke="#a89888" stroke-width="1.5" opacity="0.45"/>
<line x1="154.1" y1="547.8" x2="183.0" y2="549.8" stroke="#a89888" stroke-width="1.5" opacity="0.45"/>
<ellipse cx="122.4" cy="566.2" rx="11.6" ry="8.2" fill="#a89888" opacity="0.45"/>
<ellipse cx="176.3" cy="566.2" rx="11.6" ry="8.2" fill="#a89888" opacity="0.45"/>
<line x1="149.3" y1="589.2" x2="149.3" y2="615.4" stroke="#a89888" stroke-width="1.2" opacity="0.35"/>
<path d="M143.6,615.4 Q149.3,618.4 155.1,615.4" fill="none" stroke="#a89888" stroke-width="1" opacity="0.3"/>
<line x1="125.3" y1="638.3" x2="173.4" y2="638.3" stroke="#a89888" stroke-width="1.2" opacity="0.35"/>
<rect x="35.0" y="441.0" width="226.5" height="51.0" rx="6" fill="white" stroke="#2e8b57" stroke-width="1.0" opacity="0.92"/>
<polygon points="103.0,492.0 111.0,492.0 100.0,500.0" fill="white" stroke="#2e8b57" stroke-width="0.8"/>
<line x1="102.5" y1="492.0" x2="111.5" y2="492.0" stroke="white" stroke-width="1.5"/>
<text x="41.0" y="457.0" font-size="10.0" fill="#2e8b57" font-weight="700">JINK</text>
<text x="41.0" y="470.0" font-size="10.0" fill="#333333">High approach on the commercial center.</text>
<text x="41.0" y="483.0" font-size="10.0" fill="#333333">That's a long exposure run.</text>
<text x="257.7" y="449.0" text-anchor="end" font-size="12" font-weight="bold" fill="#888888" opacity="0.6">2</text>
<text x="263.7" y="791.0" text-anchor="end" font-size="9" fill="#888888" opacity="0.5">CU</text>
<rect x="279.7" y="433.0" width="240.7" height="364.0" rx="2" fill="#f5f0e8" stroke="#2a2a2a" stroke-width="1.5"/>
<ellipse cx="400.0" cy="585.9" rx="96.3" ry="163.8" fill="#b22222" opacity="0.18"/>
<path d="M298.9,528.5 Q400.0,397.5 501.1,528.5" fill="none" stroke="#b22222" stroke-width="3" opacity="0.35"/>
<line x1="366.3" y1="549.8" x2="395.2" y2="547.8" stroke="#a89888" stroke-width="1.5" opacity="0.45"/>
<line x1="404.8" y1="547.8" x2="433.7" y2="549.8" stroke="#a89888" stroke-width="1.5" opacity="0.45"/>
<ellipse cx="373.0" cy="566.2" rx="11.6" ry="8.2" fill="#a89888" opacity="0.45"/>
<ellipse cx="427.0" cy="566.2" rx="11.6" ry="8.2" fill="#a89888" opacity="0.45"/>
<line x1="400.0" y1="589.2" x2="400.0" y2="615.4" stroke="#a89888" stroke-width="1.2" opacity="0.35"/>
<path d="M394.2,615.4 Q400.0,618.4 405.8,615.4" fill="none" stroke="#a89888" stroke-width="1" opacity="0.3"/>
<line x1="375.9" y1="638.3" x2="424.1" y2="638.3" stroke="#a89888" stroke-width="1.2" opacity="0.35"/>
<rect x="285.7" y="441.0" width="215.5" height="51.0" rx="6" fill="white" stroke="#b22222" stroke-width="1.0" opacity="0.92"/>
<polygon points="350.3,492.0 358.3,492.0 347.3,500.0" fill="white" stroke="#b22222" stroke-width="0.8"/>
<line x1="349.8" y1="492.0" x2="358.8" y2="492.0" stroke="white" stroke-width="1.5"/>
<text x="291.7" y="457.0" font-size="10.0" fill="#b22222" font-weight="700">THRESH</text>
<text x="291.7" y="470.0" font-size="10.0" fill="#333333">Ground approach on the relay station.</text>
<text x="291.7" y="483.0" font-size="10.0" fill="#333333">Close quarters.</text>
<text x="508.3" y="449.0" text-anchor="end" font-size="12" font-weight="bold" fill="#888888" opacity="0.6">3</text>
<text x="514.3" y="791.0" text-anchor="end" font-size="9" fill="#888888" opacity="0.5">CU</text>
<rect x="530.3" y="433.0" width="240.7" height="364.0" rx="2" fill="#f5f0e8" stroke="#2a2a2a" stroke-width="1.5"/>
<ellipse cx="650.7" cy="585.9" rx="96.3" ry="163.8" fill="#6a5acd" opacity="0.18"/>
<path d="M549.6,528.5 Q650.7,397.5 751.7,528.5" fill="none" stroke="#6a5acd" stroke-width="3" opacity="0.35"/>
<line x1="617.0" y1="549.8" x2="645.9" y2="547.8" stroke="#a89888" stroke-width="1.5" opacity="0.45"/>
<line x1="655.5" y1="547.8" x2="684.4" y2="549.8" stroke="#a89888" stroke-width="1.5" opacity="0.45"/>
<ellipse cx="623.7" cy="566.2" rx="11.6" ry="8.2" fill="#a89888" opacity="0.45"/>
<ellipse cx="677.6" cy="566.2" rx="11.6" ry="8.2" fill="#a89888" opacity="0.45"/>
<line x1="650.7" y1="589.2" x2="650.7" y2="615.4" stroke="#a89888" stroke-width="1.2" opacity="0.35"/>
<path d="M644.9,615.4 Q650.7,618.4 656.4,615.4" fill="none" stroke="#a89888" stroke-width="1" opacity="0.3"/>
<line x1="626.6" y1="638.3" x2="674.7" y2="638.3" stroke="#a89888" stroke-width="1.2" opacity="0.35"/>
<rect x="536.3" y="441.0" width="228.7" height="51.0" rx="6" fill="white" stroke="#6a5acd" stroke-width="1.0" opacity="0.92"/>
<polygon points="604.9,492.0 612.9,492.0 601.9,500.0" fill="white" stroke="#6a5acd" stroke-width="0.8"/>
<line x1="604.4" y1="492.0" x2="613.4" y2="492.0" stroke="white" stroke-width="1.5"/>
<text x="542.3" y="457.0" font-size="10.0" fill="#6a5acd" font-weight="700">LUMA</text>
<text x="542.3" y="470.0" font-size="10.0" fill="#333333">Dispatch office. I'll need Wren's device</text>
<text x="542.3" y="483.0" font-size="10.0" fill="#333333">schematics loaded to my scanner.</text>
<text x="759.0" y="449.0" text-anchor="end" font-size="12" font-weight="bold" fill="#888888" opacity="0.6">4</text>
<text x="765.0" y="791.0" text-anchor="end" font-size="9" fill="#888888" opacity="0.5">CU</text>
<rect x="29.0" y="807.0" width="742.0" height="364.0" rx="2" fill="#f5f0e8" stroke="#2a2a2a" stroke-width="1.5"/>
<path d="M341.4,1069.1 L346.8,1022.6 Q352.1,1018.6 383.8,1018.6 L416.2,1018.6 Q447.9,1018.6 453.2,1022.6 L458.6,1069.1 Z" fill="#b0b0b0" opacity="0.35"/>
<line x1="346.8" y1="1044.5" x2="453.2" y2="1044.5" stroke="#b0b0b0" stroke-width="1" opacity="0.3"/>
<line x1="346.8" y1="1022.6" x2="325.5" y2="1063.5" stroke="#b0b0b0" stroke-width="2" opacity="0.3"/>
<line x1="325.5" y1="1063.5" x2="341.4" y2="1088.1" stroke="#b0b0b0" stroke-width="2" opacity="0.3"/>
<line x1="453.2" y1="1022.6" x2="474.5" y2="1063.5" stroke="#b0b0b0" stroke-width="2" opacity="0.3"/>
<line x1="474.5" y1="1063.5" x2="458.6" y2="1088.1" stroke="#b0b0b0" stroke-width="2" opacity="0.3"/>
<line x1="400.0" y1="945.7" x2="400.0" y2="1018.6" stroke="#b0b0b0" stroke-width="3" opacity="0.35"/>
<circle cx="400.0" cy="905.3" r="40.5" fill="#b0b0b0" opacity="0.4"/>
<rect x="35.0" y="815.0" width="719.9" height="54.0" rx="6" fill="white" stroke="#b0b0b0" stroke-width="1.0" opacity="0.92"/>
<polygon points="251.0,869.0 259.0,869.0 248.0,877.0" fill="white" stroke="#b0b0b0" stroke-width="0.8"/>
<line x1="250.5" y1="869.0" x2="259.5" y2="869.0" stroke="white" stroke-width="1.5"/>
<text x="41.0" y="832.0" font-size="11.0" fill="#b0b0b0" font-weight="700">SABLE</text>
<text x="41.0" y="846.0" font-size="11.0" fill="#333333">Wren takes the central exchange. Jink, commercial center. Thresh, relay station. Luma, dispatch office. I'll take the</text>
<text x="41.0" y="860.0" font-size="11.0" fill="#333333">secondary exchange from the church steeple. Theodore — the underground junction.</text>
<text x="759.0" y="823.0" text-anchor="end" font-size="12" font-weight="bold" fill="#888888" opacity="0.6">5</text>
<text x="765.0" y="1165.0" text-anchor="end" font-size="9" fill="#888888" opacity="0.5">MW</text>
</svg>