<svg xmlns="http://www.w3.org/2000/svg" viewBox="0 0 800 1200" width="800" height="1200" style="background:#ffffff">
<style>
  text { font-family: "Helvetica Neue", Helvetica, Arial, sans-serif; }
</style>
<text x="400.0" y="22" text-anchor="middle" font-size="16" fill="#888888" font-weight="500">PAGE 20  (4 panels)</text>
<rect x="29.0" y="59.0" width="742.0" height="364.0" rx="2" fill="#f5f0e8" stroke="#2a2a2a" stroke-width="1.5"/>
<path d="M341.4,321.1 L346.8,274.6 Q352.1,270.6 383.8,270.6 L416.2,270.6 Q447.9,270.6 453.2,274.6 L458.6,321.1 Z" fill="#b0b0b0" opacity="0.35"/>
<line x1="346.8" y1="296.5" x2="453.2" y2="296.5" stroke="#b0b0b0" stroke-width="1" opacity="0.3"/>
<line x1="346.8" y1="274.6" x2="325.5" y2="315.5" stroke="#b0b0b0" stroke-width="2" opacity="0.3"/>
<line x1="325.5" y1="315.5" x2="341.4" y2="340.1" stroke="#b0b0b0" stroke-width="2" opacity="0.3"/>
<line x1="453.2" y1="274.6" x2="474.5" y2="315.5" stroke="#b0b0b0" stroke-width="2" opacity="0.3"/>
<line x1="474.5" y1="315.5" x2="458.6" y2="340.1" stroke="#b0b0b0" stroke-width="2" opacity="0.3"/>
<line x1="400.0" y1="197.7" x2="400.0" y2="270.6" stroke="#b0b0b0" stroke-width="3" opacity="0.35"/>
<circle cx="400.0" cy="157.3" r="40.5" fill="#b0b0b0" opacity="0.4"/>
<rect x="35.0" y="67.0" width="169.3" height="40.0" rx="6" fill="white" stroke="#b0b0b0" stroke-width="1.0" opacity="0.92"/>
<polygon points="85.8,107.0 93.8,107.0 82.8,115.0" fill="white" stroke="#b0b0b0" stroke-width="0.8"/>
<line x1="85.3" y1="107.0" x2="94.3" y2="107.0" stroke="white" stroke-width="1.5"/>
<text x="41.0" y="84.0" font-size="11.0" fill="#b0b0b0" font-weight="700">SABLE</text>
<text x="41.0" y="98.0" font-size="11.0" fill="#333333">You look like fairy tales.</text>
<rect x="656.2" y="117.0" width="108.8" height="40.0" rx="6" fill="white" stroke="#b0b0b0" stroke-width="1.0" opacity="0.92"/>
<polygon points="688.8,157.0 696.8,157.0 685.8,165.0" fill="white" stroke="#b0b0b0" stroke-width="0.8"/>
<line x1="688.3" y1="157.0" x2="697.3" y2="157.0" stroke="white" stroke-width="1.5"/>
<text x="662.2" y="134.0" font-size="11.0" fill="#b0b0b0" font-weight="700">SABLE</text>
<text x="662.2" y="148.0" font-size="11.0" fill="#333333">Go be the story.</text>
<text x="759.0" y="75.0" text-anchor="end" font-size="12" font-weight="bold" fill="#888888" opacity="0.6">1</text>
<text x="765.0" y="417.0" text-anchor="end" font-size="9" fill="#888888" opacity="0.5">MED</text>
<rect x="29.0" y="433.0" width="366.0" height="364.0" rx="2" fill="#f5f0e8" stroke="#2a2a2a" stroke-width="1.5"/>
<circle cx="212.0" cy="615.0" r="45.0" fill="#c0b8a8" opacity="0.22"/>
<line x1="187.2" y1="603.8" x2="205.2" y2="596.1" stroke="#a89888" stroke-width="1.5" opacity="0.5"/>
<line x1="218.8" y1="596.1" x2="236.8" y2="603.8" stroke="#a89888" stroke-width="1.5" opacity="0.5"/>
<ellipse cx="198.5" cy="610.5" rx="4.5" ry="2.7" fill="#a89888" opacity="0.5"/>
<ellipse cx="225.5" cy="610.5" rx="4.5" ry="2.7" fill="#a89888" opacity="0.5"/>
<line x1="212.0" y1="615.9" x2="212.0" y2="624.0" stroke="#a89888" stroke-width="1" opacity="0.35"/>
<ellipse cx="212.0" cy="632.1" rx="6.8" ry="3.6" fill="#a89888" opacity="0.25"/>
<line x1="256.8" y1="640.9" x2="264.6" y2="645.4" stroke="#a89888" stroke-width="1" opacity="0.3"/>
<line x1="237.9" y1="659.8" x2="242.4" y2="667.6" stroke="#a89888" stroke-width="1" opacity="0.3"/>
<line x1="186.1" y1="659.8" x2="181.6" y2="667.6" stroke="#a89888" stroke-width="1" opacity="0.3"/>
<line x1="167.2" y1="640.9" x2="159.4" y2="645.4" stroke="#a89888" stroke-width="1" opacity="0.3"/>
<line x1="167.2" y1="589.1" x2="159.4" y2="584.6" stroke="#a89888" stroke-width="1" opacity="0.3"/>
<line x1="186.1" y1="570.2" x2="181.6" y2="562.4" stroke="#a89888" stroke-width="1" opacity="0.3"/>
<line x1="237.9" y1="570.2" x2="242.4" y2="562.4" stroke="#a89888" stroke-width="1" opacity="0.3"/>
<line x1="256.8" y1="589.1" x2="264.6" y2="584.6" stroke="#a89888" stroke-width="1" opacity="0.3"/>
<text x="383.0" y="449.0" text-anchor="end" font-size="12" font-weight="bold" fill="#888888" opacity="0.6">2</text>
<text x="389.0" y="791.0" text-anchor="end" font-size="9" fill="#888888" opacity="0.5">RXN</text>
<rect x="405.0" y="433.0" width="366.0" height="364.0" rx="2" fill="#f5f0e8" stroke="#2a2a2a" stroke-width="1.5"/>
<circle cx="588.0" cy="615.0" r="45.0" fill="#c0b8a8" opacity="0.22"/>
<line x1="563.2" y1="603.8" x2="581.2" y2="596.1" stroke="#a89888" stroke-width="1.5" opacity="0.5"/>
<line x1="594.8" y1="596.1" x2="612.8" y2="603.8" stroke="#a89888" stroke-width="1.5" opacity="0.5"/>
<ellipse cx="574.5" cy="610.5" rx="4.5" ry="2.7" fill="#a89888" opacity="0.5"/>
<ellipse cx="601.5" cy="610.5" rx="4.5" ry="2.7" fill="#a89888" opacity="0.5"/>
<line x1="588.0" y1="615.9" x2="588.0" y2="624.0" stroke="#a89888" stroke-width="1" opacity="0.35"/>
<ellipse cx="588.0" cy="632.1" rx="6.8" ry="3.6" fill="#a89888" opacity="0.25"/>
<line x1="632.8" y1="640.9" x2="640.6" y2="645.4" stroke="#a89888" stroke-width="1" opacity="0.3"/>
<line x1="613.9" y1="659.8" x2="618.4" y2="667.6" stroke="#a89888" stroke-width="1" opacity="0.3"/>
<line x1="562.1" y1="659.8" x2="557.6" y2="667.6" stroke="#a89888" stroke-width="1" opacity="0.3"/>
<line x1="543.2" y1="640.9" x2="535.4" y2="645.4" stroke="#a89888" stroke-width="1" opacity="0.3"/>
<line x1="543.2" y1="589.1" x2="535.4" y2="584.6" stroke="#a89888" stroke-width="1" opacity="0.3"/>
<line x1="562.1" y1="570.2" x2="557.6" y2="562.4" stroke="#a89888" stroke-width="1" opacity="0.3"/>
<line x1="613.9" y1="570.2" x2="618.4" y2="562.4" stroke="#a89888" stroke-width="1" opacity="0.3"/>
<line x1="632.8" y1="589.1" x2="640.6" y2="584.6" stroke="#a89888" stroke-width="1" opacity="0.3"/>
<text x="759.0" y="449.0" text-anchor="end" font-size="12" font-weight="bold" fill="#888888" opacity="0.6">3</text>
<text x="765.0" y="791.0" text-anchor="end" font-size="9" fill="#888888" opacity="0.5">RXN</text>
<rect x="29.0" y="807.0" width="742.0" height="364.0" rx="2" fill="#f5f0e8" stroke="#2a2a2a" stroke-width="1.5"/>
<line x1="35.0" y1="1090.9" x2="765.0" y2="1090.9" stroke="#a89888" stroke-width="1.0" opacity="0.5"/>
<ellipse cx="276.3" cy="1092.9" rx="11.2" ry="2.7" fill="#a89888" opacity="0.2"/>
<line x1="273.6" y1="1075.2" x2="269.6" y2="1090.9" stroke="#2e8b57" stroke-width="2" opacity="0.5"/>
<line x1="279.0" y1="1075.2" x2="283.1" y2="1090.9" stroke="#2e8b57" stroke-width="2" opacity="0.5"/>
<line x1="276.3" y1="1062.1" x2="276.3" y2="1075.2" stroke="#2e8b57" stroke-width="2.5" opacity="0.6"/>
<line x1="262.8" y1="1064.1" x2="289.8" y2="1064.1" stroke="#2e8b57" stroke-width="2" opacity="0.5"/>
<line x1="262.8" y1="1064.1" x2="258.3" y2="1075.6" stroke="#2e8b57" stroke-width="1.5" opacity="0.4"/>
<line x1="289.8" y1="1064.1" x2="294.3" y2="1075.6" stroke="#2e8b57" stroke-width="1.5" opacity="0.4"/>
<circle cx="276.3" cy="1045.9" r="8.1" fill="#2e8b57" opacity="0.6"/>
<ellipse cx="523.7" cy="1092.9" rx="11.2" ry="2.7" fill="#a89888" opacity="0.2"/>
<line x1="521.0" y1="1075.2" x2="516.9" y2="1090.9" stroke="#b0b0b0" stroke-width="2" opacity="0.5"/>
<line x1="526.4" y1="1075.2" x2="530.4" y2="1090.9" stroke="#b0b0b0" stroke-width="2" opacity="0.5"/>
<line x1="523.7" y1="1062.1" x2="523.7" y2="1075.2" stroke="#b0b0b0" stroke-width="2.5" opacity="0.6"/>
<line x1="510.2" y1="1064.1" x2="537.2" y2="1064.1" stroke="#b0b0b0" stroke-width="2" opacity="0.5"/>
<line x1="510.2" y1="1064.1" x2="505.7" y2="1075.6" stroke="#b0b0b0" stroke-width="1.5" opacity="0.4"/>
<line x1="537.2" y1="1064.1" x2="541.7" y2="1075.6" stroke="#b0b0b0" stroke-width="1.5" opacity="0.4"/>
<circle cx="523.7" cy="1045.9" r="8.1" fill="#b0b0b0" opacity="0.6"/>
<rect x="35.0" y="815.0" width="241.9" height="40.0" rx="6" fill="white" stroke="#2e8b57" stroke-width="1.0" opacity="0.92"/>
<polygon points="107.6,855.0 115.6,855.0 104.6,863.0" fill="white" stroke="#2e8b57" stroke-width="0.8"/>
<line x1="107.1" y1="855.0" x2="116.1" y2="855.0" stroke="white" stroke-width="1.5"/>
<text x="41.0" y="832.0" font-size="11.0" fill="#2e8b57" font-weight="700">JINK</text>
<text x="41.0" y="846.0" font-size="11.0" fill="#333333">Scout One, airborne. Moving to target.</text>
<rect x="577.5" y="865.0" width="187.5" height="40.0" rx="6" fill="white" stroke="#b0b0b0" stroke-width="1.0" opacity="0.92"/>
<polygon points="633.8,905.0 641.8,905.0 630.8,913.0" fill="white" stroke="#b0b0b0" stroke-width="0.8"/>
<line x1="633.3" y1="905.0" x2="642.3" y2="905.0" stroke="white" stroke-width="1.5"/>
<text x="583.5" y="882.0" font-size="11.0" fill="#b0b0b0" font-weight="700">SABLE</text>
<text x="583.5" y="896.0" font-size="11.0" fill="#333333">Acknowledged. Fly safe, Jink.</text>
<rect x="35.0" y="915.0" width="108.8" height="40.0" rx="6" fill="white" stroke="#2e8b57" stroke-width="1.0" opacity="0.92"/>
<polygon points="67.6,955.0 75.6,955.0 64.6,963.0" fill="white" stroke="#2e8b57" stroke-width="0.8"/>
<line x1="67.1" y1="955.0" x2="76.1" y2="955.0" stroke="white" stroke-width="1.5"/>
<text x="41.0" y="932.0" font-size="11.0" fill="#2e8b57" font-weight="700">JINK</text>
<text x="41.0" y="946.0" font-size="11.0" fill="#333333">Always, Captain.</text>
<text x="759.0" y="823.0" text-anchor="end" font-size="12" font-weight="bold" fill="#888888" opacity="0.6">4</text>
<text x="765.0" y="1165.0" text-anchor="end" font-size="9" fill="#888888" opacity="0.5">WIDE</text>
</svg>