<svg xmlns="http://www.w3.org/2000/svg" viewBox="0 0 800 1200" width="800" height="1200" style="background:#ffffff">
<style>
  text { font-family: "Helvetica Neue", Helvetica, Arial, sans-serif; }
</style>
<text x="400.0" y="22" text-anchor="middle" font-size="16" fill="#888888" font-weight="500">PAGE 14  (4 panels)</text>
<rect x="29.0" y="59.0" width="742.0" height="364.0" rx="2" fill="#f5f0e8" stroke="#2a2a2a" stroke-width="1.5"/>
<path d="M341.4,321.1 L346.8,274.6 Q352.1,270.6 383.8,270.6 L416.2,270.6 Q447.9,270.6 453.2,274.6 L458.6,321.1 Z" fill="#2e8b57" opacity="0.35"/>
<line x1="346.8" y1="296.5" x2="453.2" y2="296.5" stroke="#2e8b57" stroke-width="1" opacity="0.3"/>
<line x1="346.8" y1="274.6" x2="325.5" y2="315.5" stroke="#2e8b57" stroke-width="2" opacity="0.3"/>
<line x1="325.5" y1="315.5" x2="341.4" y2="340.1" stroke="#2e8b57" stroke-width="2" opacity="0.3"/>
<line x1="453.2" y1="274.6" x2="474.5" y2="315.5" stroke="#2e8b57" stroke-width="2" opacity="0.3"/>
<line x1="474.5" y1="315.5" x2="458.6" y2="340.1" stroke="#2e8b57" stroke-width="2" opacity="0.3"/>
<line x1="400.0" y1="197.7" x2="400.0" y2="270.6" stroke="#2e8b57" stroke-width="3" opacity="0.35"/>
<circle cx="400.0" cy="157.3" r="40.5" fill="#2e8b57" opacity="0.4"/>
<rect x="35.0" y="67.0" width="332.7" height="40.0" rx="6" fill="white" stroke="#2e8b57" stroke-width="1.0" opacity="0.92"/>
<polygon points="134.8,107.0 142.8,107.0 131.8,115.0" fill="white" stroke="#2e8b57" stroke-width="0.8"/>
<line x1="134.3" y1="107.0" x2="143.3" y2="107.0" stroke="white" stroke-width="1.5"/>
<text x="41.0" y="84.0" font-size="11.0" fill="#2e8b57" font-weight="700">JINK</text>
<text x="41.0" y="98.0" font-size="11.0" fill="#333333">It is not your choice, Theodore. I will not let you —</text>
<rect x="541.2" y="117.0" width="223.8" height="40.0" rx="6" fill="white" stroke="#c49a6c" stroke-width="1.0" opacity="0.92"/>
<polygon points="608.4,157.0 616.4,157.0 605.4,165.0" fill="white" stroke="#c49a6c" stroke-width="0.8"/>
<line x1="607.9" y1="157.0" x2="616.9" y2="157.0" stroke="white" stroke-width="1.5"/>
<text x="547.2" y="134.0" font-size="11.0" fill="#c49a6c" font-weight="700">THEODORE</text>
<text x="547.2" y="148.0" font-size="11.0" fill="#333333">It is not your choice either, Jink.</text>
<rect x="35.0" y="167.0" width="387.1" height="40.0" rx="6" fill="white" stroke="#c49a6c" stroke-width="1.0" opacity="0.92"/>
<polygon points="151.1,207.0 159.1,207.0 148.1,215.0" fill="white" stroke="#c49a6c" stroke-width="0.8"/>
<line x1="150.6" y1="207.0" x2="159.6" y2="207.0" stroke="white" stroke-width="1.5"/>
<text x="41.0" y="184.0" font-size="11.0" fill="#c49a6c" font-weight="700">THEODORE</text>
<text x="41.0" y="198.0" font-size="11.0" fill="#333333">You cannot choose who stays. I learned that from watching you.</text>
<text x="759.0" y="75.0" text-anchor="end" font-size="12" font-weight="bold" fill="#888888" opacity="0.6">1</text>
<text x="765.0" y="417.0" text-anchor="end" font-size="9" fill="#888888" opacity="0.5">MW</text>
<rect x="29.0" y="433.0" width="742.0" height="364.0" rx="2" fill="#f5f0e8" stroke="#2a2a2a" stroke-width="1.5"/>
<line x1="35.0" y1="716.9" x2="765.0" y2="716.9" stroke="#a89888" stroke-width="1.0" opacity="0.5"/>
<ellipse cx="276.3" cy="718.9" rx="11.2" ry="2.7" fill="#a89888" opacity="0.2"/>
<line x1="273.6" y1="701.2" x2="269.6" y2="716.9" stroke="#2e8b57" stroke-width="2" opacity="0.5"/>
<line x1="279.0" y1="701.2" x2="283.1" y2="716.9" stroke="#2e8b57" stroke-width="2" opacity="0.5"/>
<line x1="276.3" y1="688.1" x2="276.3" y2="701.2" stroke="#2e8b57" stroke-width="2.5" opacity="0.6"/>
<line x1="262.8" y1="690.1" x2="289.8" y2="690.1" stroke="#2e8b57" stroke-width="2" opacity="0.5"/>
<line x1="262.8" y1="690.1" x2="258.3" y2="701.6" stroke="#2e8b57" stroke-width="1.5" opacity="0.4"/>
<line x1="289.8" y1="690.1" x2="294.3" y2="701.6" stroke="#2e8b57" stroke-width="1.5" opacity="0.4"/>
<circle cx="276.3" cy="671.9" r="8.1" fill="#2e8b57" opacity="0.6"/>
<ellipse cx="523.7" cy="718.9" rx="11.2" ry="2.7" fill="#a89888" opacity="0.2"/>
<line x1="521.0" y1="701.2" x2="516.9" y2="716.9" stroke="#c49a6c" stroke-width="2" opacity="0.5"/>
<line x1="526.4" y1="701.2" x2="530.4" y2="716.9" stroke="#c49a6c" stroke-width="2" opacity="0.5"/>
<line x1="523.7" y1="688.1" x2="523.7" y2="701.2" stroke="#c49a6c" stroke-width="2.5" opacity="0.6"/>
<line x1="510.2" y1="690.1" x2="537.2" y2="690.1" stroke="#c49a6c" stroke-width="2" opacity="0.5"/>
<line x1="510.2" y1="690.1" x2="505.7" y2="701.6" stroke="#c49a6c" stroke-width="1.5" opacity="0.4"/>
<line x1="537.2" y1="690.1" x2="541.7" y2="701.6" stroke="#c49a6c" stroke-width="1.5" opacity="0.4"/>
<circle cx="523.7" cy="671.9" r="8.1" fill="#c49a6c" opacity="0.6"/>
<rect x="35.0" y="441.0" width="441.6" height="40.0" rx="6" fill="white" stroke="#2e8b57" stroke-width="1.0" opacity="0.92"/>
<polygon points="167.5,481.0 175.5,481.0 164.5,489.0" fill="white" stroke="#2e8b57" stroke-width="0.8"/>
<line x1="167.0" y1="481.0" x2="176.0" y2="481.0" stroke="white" stroke-width="1.5"/>
<text x="41.0" y="458.0" font-size="11.0" fill="#2e8b57" font-weight="700">JINK</text>
<text x="41.0" y="472.0" font-size="11.0" fill="#333333">You are the most stubborn person I have ever met. And I have met Sable.</text>
<rect x="287.1" y="491.0" width="477.9" height="40.0" rx="6" fill="white" stroke="#c49a6c" stroke-width="1.0" opacity="0.92"/>
<polygon points="430.5,531.0 438.5,531.0 427.5,539.0" fill="white" stroke="#c49a6c" stroke-width="0.8"/>
<line x1="430.0" y1="531.0" x2="439.0" y2="531.0" stroke="white" stroke-width="1.5"/>
<text x="293.1" y="508.0" font-size="11.0" fill="#c49a6c" font-weight="700">THEODORE</text>
<text x="293.1" y="522.0" font-size="11.0" fill="#333333">And you are the bravest person I have ever met. And I will be there tomorrow.</text>
<text x="759.0" y="449.0" text-anchor="end" font-size="12" font-weight="bold" fill="#888888" opacity="0.6">2</text>
<text x="765.0" y="791.0" text-anchor="end" font-size="9" fill="#888888" opacity="0.5">WIDE</text>
<rect x="29.0" y="807.0" width="366.0" height="364.0" rx="2" fill="#f5f0e8" stroke="#2a2a2a" stroke-width="1.5"/>
<ellipse cx="212.0" cy="959.9" rx="114.7" ry="163.8" fill="#c0b8a8" opacity="0.18"/>
<path d="M91.6,902.5 Q212.0,771.5 332.4,902.5" fill="none" stroke="#c0b8a8" stroke-width="3" opacity="0.35"/>
<line x1="171.9" y1="923.8" x2="206.3" y2="921.8" stroke="#a89888" stroke-width="1.5" opacity="0.45"/>
<line x1="217.7" y1="921.8" x2="252.1" y2="923.8" stroke="#a89888" stroke-width="1.5" opacity="0.45"/>
<ellipse cx="179.9" cy="940.2" rx="13.8" ry="8.2" fill="#a89888" opacity="0.45"/>
<ellipse cx="244.1" cy="940.2" rx="13.8" ry="8.2" fill="#a89888" opacity="0.45"/>
<line x1="212.0" y1="963.2" x2="212.0" y2="989.4" stroke="#a89888" stroke-width="1.2" opacity="0.35"/>
<path d="M205.1,989.4 Q212.0,992.4 218.9,989.4" fill="none" stroke="#a89888" stroke-width="1" opacity="0.3"/>
<line x1="183.3" y1="1012.3" x2="240.7" y2="1012.3" stroke="#a89888" stroke-width="1.2" opacity="0.35"/>
<text x="383.0" y="823.0" text-anchor="end" font-size="12" font-weight="bold" fill="#888888" opacity="0.6">3</text>
<text x="389.0" y="1165.0" text-anchor="end" font-size="9" fill="#888888" opacity="0.5">CU</text>
<rect x="405.0" y="807.0" width="366.0" height="364.0" rx="2" fill="#f5f0e8" stroke="#2a2a2a" stroke-width="1.5"/>
<ellipse cx="588.0" cy="959.9" rx="114.7" ry="163.8" fill="#c49a6c" opacity="0.18"/>
<path d="M467.6,902.5 Q588.0,771.5 708.4,902.5" fill="none" stroke="#c49a6c" stroke-width="3" opacity="0.35"/>
<line x1="547.9" y1="923.8" x2="582.3" y2="921.8" stroke="#a89888" stroke-width="1.5" opacity="0.45"/>
<line x1="593.7" y1="921.8" x2="628.1" y2="923.8" stroke="#a89888" stroke-width="1.5" opacity="0.45"/>
<ellipse cx="555.9" cy="940.2" rx="13.8" ry="8.2" fill="#a89888" opacity="0.45"/>
<ellipse cx="620.1" cy="940.2" rx="13.8" ry="8.2" fill="#a89888" opacity="0.45"/>
<line x1="588.0" y1="963.2" x2="588.0" y2="989.4" stroke="#a89888" stroke-width="1.2" opacity="0.35"/>
<path d="M581.1,989.4 Q588.0,992.4 594.9,989.4" fill="none" stroke="#a89888" stroke-width="1" opacity="0.3"/>
<line x1="559.3" y1="1012.3" x2="616.7" y2="1012.3" stroke="#a89888" stroke-width="1.2" opacity="0.35"/>
<rect x="411.0" y="815.0" width="241.9" height="40.0" rx="6" fill="white" stroke="#c49a6c" stroke-width="1.0" opacity="0.92"/>
<polygon points="483.6,855.0 491.6,855.0 480.6,863.0" fill="white" stroke="#c49a6c" stroke-width="0.8"/>
<line x1="483.1" y1="855.0" x2="492.1" y2="855.0" stroke="white" stroke-width="1.5"/>
<text x="417.0" y="832.0" font-size="11.0" fill="#c49a6c" font-weight="700">THEODORE</text>
<text x="417.0" y="846.0" font-size="11.0" fill="#333333">I should go. Mr. Cribbage will notice.</text>
<rect x="553.4" y="865.0" width="211.7" height="40.0" rx="6" fill="white" stroke="#c49a6c" stroke-width="1.0" opacity="0.92"/>
<polygon points="616.8,905.0 624.8,905.0 613.8,913.0" fill="white" stroke="#c49a6c" stroke-width="0.8"/>
<line x1="616.3" y1="905.0" x2="625.3" y2="905.0" stroke="white" stroke-width="1.5"/>
<text x="559.4" y="882.0" font-size="11.0" fill="#c49a6c" font-weight="700">THEODORE</text>
<text x="559.4" y="896.0" font-size="11.0" fill="#333333">First light, Jink. I'll be there.</text>
<text x="759.0" y="823.0" text-anchor="end" font-size="12" font-weight="bold" fill="#888888" opacity="0.6">4</text>
<text x="765.0" y="1165.0" text-anchor="end" font-size="9" fill="#888888" opacity="0.5">CU</text>
</svg>