<svg xmlns="http://www.w3.org/2000/svg" viewBox="0 0 800 1200" width="800" height="1200" style="background:#ffffff">
<style>
  text { font-family: "Helvetica Neue", Helvetica, Arial, sans-serif; }
</style>
<text x="400.0" y="22" text-anchor="middle" font-size="16" fill="#888888" font-weight="500">PAGE 21  (3 panels)</text>
<rect x="29.0" y="59.0" width="742.0" height="410.8" rx="2" fill="#f5f0e8" stroke="#2a2a2a" stroke-width="1.5"/>
<line x1="35.0" y1="379.4" x2="765.0" y2="379.4" stroke="#a89888" stroke-width="1.0" opacity="0.5"/>
<ellipse cx="214.5" cy="381.4" rx="11.2" ry="2.7" fill="#a89888" opacity="0.2"/>
<line x1="211.8" y1="363.6" x2="207.8" y2="379.4" stroke="#c0b8a8" stroke-width="2" opacity="0.5"/>
<line x1="217.2" y1="363.6" x2="221.2" y2="379.4" stroke="#c0b8a8" stroke-width="2" opacity="0.5"/>
<line x1="214.5" y1="350.6" x2="214.5" y2="363.6" stroke="#c0b8a8" stroke-width="2.5" opacity="0.6"/>
<line x1="201.0" y1="352.6" x2="228.0" y2="352.6" stroke="#c0b8a8" stroke-width="2" opacity="0.5"/>
<line x1="201.0" y1="352.6" x2="196.5" y2="364.1" stroke="#c0b8a8" stroke-width="1.5" opacity="0.4"/>
<line x1="228.0" y1="352.6" x2="232.5" y2="364.1" stroke="#c0b8a8" stroke-width="1.5" opacity="0.4"/>
<circle cx="214.5" cy="334.4" r="8.1" fill="#c0b8a8" opacity="0.6"/>
<ellipse cx="400.0" cy="381.4" rx="11.2" ry="2.7" fill="#a89888" opacity="0.2"/>
<line x1="397.3" y1="363.6" x2="393.2" y2="379.4" stroke="#c0b8a8" stroke-width="2" opacity="0.5"/>
<line x1="402.7" y1="363.6" x2="406.8" y2="379.4" stroke="#c0b8a8" stroke-width="2" opacity="0.5"/>
<line x1="400.0" y1="350.6" x2="400.0" y2="363.6" stroke="#c0b8a8" stroke-width="2.5" opacity="0.6"/>
<line x1="386.5" y1="352.6" x2="413.5" y2="352.6" stroke="#c0b8a8" stroke-width="2" opacity="0.5"/>
<line x1="386.5" y1="352.6" x2="382.0" y2="364.1" stroke="#c0b8a8" stroke-width="1.5" opacity="0.4"/>
<line x1="413.5" y1="352.6" x2="418.0" y2="364.1" stroke="#c0b8a8" stroke-width="1.5" opacity="0.4"/>
<circle cx="400.0" cy="334.4" r="8.1" fill="#c0b8a8" opacity="0.6"/>
<ellipse cx="585.5" cy="381.4" rx="11.2" ry="2.7" fill="#a89888" opacity="0.2"/>
<line x1="582.8" y1="363.6" x2="578.8" y2="379.4" stroke="#c0b8a8" stroke-width="2" opacity="0.5"/>
<line x1="588.2" y1="363.6" x2="592.2" y2="379.4" stroke="#c0b8a8" stroke-width="2" opacity="0.5"/>
<line x1="585.5" y1="350.6" x2="585.5" y2="363.6" stroke="#c0b8a8" stroke-width="2.5" opacity="0.6"/>
<line x1="572.0" y1="352.6" x2="599.0" y2="352.6" stroke="#c0b8a8" stroke-width="2" opacity="0.5"/>
<line x1="572.0" y1="352.6" x2="567.5" y2="364.1" stroke="#c0b8a8" stroke-width="1.5" opacity="0.4"/>
<line x1="599.0" y1="352.6" x2="603.5" y2="364.1" stroke="#c0b8a8" stroke-width="1.5" opacity="0.4"/>
<circle cx="585.5" cy="334.4" r="8.1" fill="#c0b8a8" opacity="0.6"/>
<rect x="35.0" y="67.0" width="96.7" height="40.0" rx="2" fill="#f5ecd8" stroke="#c8b898" stroke-width="0.8" opacity="0.92"/>
<text x="41.0" y="84.0" font-size="11.0" fill="#5a4a30" font-style="italic" font-weight="500">CAPTION</text>
<text x="41.0" y="98.0" font-size="11.0" fill="#5a4a30" font-style="italic">Nobody sleeps.</text>
<text x="759.0" y="75.0" text-anchor="end" font-size="12" font-weight="bold" fill="#888888" opacity="0.6">1</text>
<text x="765.0" y="463.8" text-anchor="end" font-size="9" fill="#888888" opacity="0.5">EST</text>
<rect x="29.0" y="479.8" width="742.0" height="410.8" rx="2" fill="#f5f0e8" stroke="#2a2a2a" stroke-width="1.5"/>
<path d="M333.9,775.5 L339.9,722.5 Q345.9,718.5 381.7,718.5 L418.3,718.5 Q454.1,718.5 460.1,722.5 L466.1,775.5 Z" fill="#c0b8a8" opacity="0.35"/>
<line x1="339.9" y1="747.8" x2="460.1" y2="747.8" stroke="#c0b8a8" stroke-width="1" opacity="0.3"/>
<line x1="339.9" y1="722.5" x2="315.9" y2="768.7" stroke="#c0b8a8" stroke-width="2" opacity="0.3"/>
<line x1="315.9" y1="768.7" x2="333.9" y2="796.4" stroke="#c0b8a8" stroke-width="2" opacity="0.3"/>
<line x1="460.1" y1="722.5" x2="484.1" y2="768.7" stroke="#c0b8a8" stroke-width="2" opacity="0.3"/>
<line x1="484.1" y1="768.7" x2="466.1" y2="796.4" stroke="#c0b8a8" stroke-width="2" opacity="0.3"/>
<line x1="400.0" y1="636.3" x2="400.0" y2="718.5" stroke="#c0b8a8" stroke-width="3" opacity="0.35"/>
<circle cx="400.0" cy="590.7" r="45.7" fill="#c0b8a8" opacity="0.4"/>
<text x="759.0" y="495.8" text-anchor="end" font-size="12" font-weight="bold" fill="#888888" opacity="0.6">2</text>
<text x="765.0" y="884.5" text-anchor="end" font-size="9" fill="#888888" opacity="0.5">MW</text>
<rect x="29.0" y="900.5" width="742.0" height="270.5" rx="2" fill="#f5f0e8" stroke="#2a2a2a" stroke-width="1.5"/>
<ellipse cx="400.0" cy="1014.1" rx="85.2" ry="121.7" fill="#c0b8a8" opacity="0.18"/>
<path d="M310.5,971.5 Q400.0,874.1 489.5,971.5" fill="none" stroke="#c0b8a8" stroke-width="3" opacity="0.35"/>
<line x1="370.2" y1="987.3" x2="395.7" y2="985.3" stroke="#a89888" stroke-width="1.5" opacity="0.45"/>
<line x1="404.3" y1="985.3" x2="429.8" y2="987.3" stroke="#a89888" stroke-width="1.5" opacity="0.45"/>
<ellipse cx="376.1" cy="999.5" rx="10.2" ry="6.1" fill="#a89888" opacity="0.45"/>
<ellipse cx="423.9" cy="999.5" rx="10.2" ry="6.1" fill="#a89888" opacity="0.45"/>
<line x1="400.0" y1="1016.5" x2="400.0" y2="1036.0" stroke="#a89888" stroke-width="1.2" opacity="0.35"/>
<path d="M394.9,1036.0 Q400.0,1039.0 405.1,1036.0" fill="none" stroke="#a89888" stroke-width="1" opacity="0.3"/>
<line x1="378.7" y1="1053.1" x2="421.3" y2="1053.1" stroke="#a89888" stroke-width="1.2" opacity="0.35"/>
<rect x="35.0" y="908.5" width="496.0" height="40.0" rx="2" fill="#f5ecd8" stroke="#c8b898" stroke-width="0.8" opacity="0.92"/>
<text x="41.0" y="925.5" font-size="11.0" fill="#5a4a30" font-style="italic" font-weight="500">CAPTION</text>
<text x="41.0" y="939.5" font-size="11.0" fill="#5a4a30" font-style="italic">The city beyond the wall. The stars above the city. The silence between breaths.</text>
<text x="759.0" y="916.5" text-anchor="end" font-size="12" font-weight="bold" fill="#888888" opacity="0.6">3</text>
<text x="765.0" y="1165.0" text-anchor="end" font-size="9" fill="#888888" opacity="0.5">CU</text>
</svg>