<svg xmlns="http://www.w3.org/2000/svg" viewBox="0 0 800 1200" width="800" height="1200" style="background:#ffffff">
<style>
  text { font-family: "Helvetica Neue", Helvetica, Arial, sans-serif; }
</style>
<text x="400.0" y="22" text-anchor="middle" font-size="16" fill="#888888" font-weight="500">PAGE 14  (5 panels)</text>
<rect x="29.0" y="59.0" width="366.0" height="364.0" rx="2" fill="#f5f0e8" stroke="#2a2a2a" stroke-width="1.5"/>
<ellipse cx="212.0" cy="211.9" rx="114.7" ry="163.8" fill="#2e8b57" opacity="0.18"/>
<path d="M91.6,154.6 Q212.0,23.5 332.4,154.6" fill="none" stroke="#2e8b57" stroke-width="3" opacity="0.35"/>
<line x1="171.9" y1="175.8" x2="206.3" y2="173.8" stroke="#a89888" stroke-width="1.5" opacity="0.45"/>
<line x1="217.7" y1="173.8" x2="252.1" y2="175.8" stroke="#a89888" stroke-width="1.5" opacity="0.45"/>
<ellipse cx="179.9" cy="192.2" rx="13.8" ry="8.2" fill="#a89888" opacity="0.45"/>
<ellipse cx="244.1" cy="192.2" rx="13.8" ry="8.2" fill="#a89888" opacity="0.45"/>
<line x1="212.0" y1="215.2" x2="212.0" y2="241.4" stroke="#a89888" stroke-width="1.2" opacity="0.35"/>
<path d="M205.1,241.4 Q212.0,244.4 218.9,241.4" fill="none" stroke="#a89888" stroke-width="1" opacity="0.3"/>
<line x1="183.3" y1="264.3" x2="240.7" y2="264.3" stroke="#a89888" stroke-width="1.2" opacity="0.35"/>
<rect x="35.0" y="67.0" width="332.7" height="40.0" rx="6" fill="white" stroke="#2e8b57" stroke-width="1.0" opacity="0.92"/>
<polygon points="134.8,107.0 142.8,107.0 131.8,115.0" fill="white" stroke="#2e8b57" stroke-width="0.8"/>
<line x1="134.3" y1="107.0" x2="143.3" y2="107.0" stroke="white" stroke-width="1.5"/>
<text x="41.0" y="84.0" font-size="11.0" fill="#2e8b57" font-weight="700">JINK</text>
<text x="41.0" y="98.0" font-size="11.0" fill="#333333">We fell. From... a long way away. There's five of us.</text>
<rect x="35.0" y="117.0" width="350.8" height="40.0" rx="6" fill="white" stroke="#2e8b57" stroke-width="1.0" opacity="0.92"/>
<polygon points="140.2,157.0 148.2,157.0 137.2,165.0" fill="white" stroke="#2e8b57" stroke-width="0.8"/>
<line x1="139.7" y1="157.0" x2="148.7" y2="157.0" stroke="white" stroke-width="1.5"/>
<text x="41.0" y="134.0" font-size="11.0" fill="#2e8b57" font-weight="700">JINK</text>
<text x="41.0" y="148.0" font-size="11.0" fill="#333333">We're not from here. We're not from anywhere you'd know.</text>
<text x="383.0" y="75.0" text-anchor="end" font-size="12" font-weight="bold" fill="#888888" opacity="0.6">1</text>
<text x="389.0" y="417.0" text-anchor="end" font-size="9" fill="#888888" opacity="0.5">CU</text>
<rect x="405.0" y="59.0" width="366.0" height="364.0" rx="2" fill="#f5f0e8" stroke="#2a2a2a" stroke-width="1.5"/>
<path d="M486.1,332.0 Q486.1,281.0 562.5,274.7 L613.5,274.7 Q689.9,281.0 689.9,332.0 L689.9,379.3 L486.1,379.3 Z" fill="#2e8b57" opacity="0.25"/>
<path d="M565.7,274.7 L588.0,306.5 L610.3,274.7" fill="none" stroke="#2e8b57" stroke-width="1" opacity="0.3"/>
<circle cx="588.0" cy="204.6" r="63.7" fill="#2e8b57" opacity="0.35"/>
<path d="M524.3,217.3 Q533.9,274.7 588.0,277.9 Q642.1,274.7 651.7,217.3" fill="none" stroke="#2e8b57" stroke-width="1.2" opacity="0.3"/>
<path d="M521.1,198.2 Q588.0,121.8 654.9,198.2" fill="none" stroke="#2e8b57" stroke-width="2" opacity="0.4"/>
<ellipse cx="522.3" cy="207.8" rx="2.5" ry="4" fill="#2e8b57" opacity="0.25"/>
<ellipse cx="653.7" cy="207.8" rx="2.5" ry="4" fill="#2e8b57" opacity="0.25"/>
<rect x="411.0" y="67.0" width="350.8" height="54.0" rx="6" fill="white" stroke="#2e8b57" stroke-width="1.0" opacity="0.92"/>
<polygon points="516.2,121.0 524.2,121.0 513.2,129.0" fill="white" stroke="#2e8b57" stroke-width="0.8"/>
<line x1="515.7" y1="121.0" x2="524.7" y2="121.0" stroke="white" stroke-width="1.5"/>
<text x="417.0" y="84.0" font-size="11.0" fill="#2e8b57" font-weight="700">JINK</text>
<text x="417.0" y="98.0" font-size="11.0" fill="#333333">Our ship broke apart. The pieces scattered. My captain's</text>
<text x="417.0" y="112.0" font-size="11.0" fill="#333333">trying to put it back together.</text>
<rect x="662.2" y="131.0" width="102.8" height="40.0" rx="6" fill="white" stroke="#2e8b57" stroke-width="1.0" opacity="0.92"/>
<polygon points="693.1,171.0 701.1,171.0 690.1,179.0" fill="white" stroke="#2e8b57" stroke-width="0.8"/>
<line x1="692.6" y1="171.0" x2="701.6" y2="171.0" stroke="white" stroke-width="1.5"/>
<text x="668.2" y="148.0" font-size="11.0" fill="#2e8b57" font-weight="700">JINK</text>
<text x="668.2" y="162.0" font-size="11.0" fill="#333333">We're... stuck.</text>
<text x="759.0" y="75.0" text-anchor="end" font-size="12" font-weight="bold" fill="#888888" opacity="0.6">2</text>
<text x="765.0" y="417.0" text-anchor="end" font-size="9" fill="#888888" opacity="0.5">MCU</text>
<rect x="29.0" y="433.0" width="742.0" height="364.0" rx="2" fill="#f5f0e8" stroke="#2a2a2a" stroke-width="1.5"/>
<line x1="35.0" y1="716.9" x2="765.0" y2="716.9" stroke="#a89888" stroke-width="1.0" opacity="0.5"/>
<ellipse cx="276.3" cy="718.9" rx="11.2" ry="2.7" fill="#a89888" opacity="0.2"/>
<line x1="273.6" y1="701.2" x2="269.6" y2="716.9" stroke="#c49a6c" stroke-width="2" opacity="0.5"/>
<line x1="279.0" y1="701.2" x2="283.1" y2="716.9" stroke="#c49a6c" stroke-width="2" opacity="0.5"/>
<line x1="276.3" y1="688.1" x2="276.3" y2="701.2" stroke="#c49a6c" stroke-width="2.5" opacity="0.6"/>
<line x1="262.8" y1="690.1" x2="289.8" y2="690.1" stroke="#c49a6c" stroke-width="2" opacity="0.5"/>
<line x1="262.8" y1="690.1" x2="258.3" y2="701.6" stroke="#c49a6c" stroke-width="1.5" opacity="0.4"/>
<line x1="289.8" y1="690.1" x2="294.3" y2="701.6" stroke="#c49a6c" stroke-width="1.5" opacity="0.4"/>
<circle cx="276.3" cy="671.9" r="8.1" fill="#c49a6c" opacity="0.6"/>
<ellipse cx="523.7" cy="718.9" rx="11.2" ry="2.7" fill="#a89888" opacity="0.2"/>
<line x1="521.0" y1="701.2" x2="516.9" y2="716.9" stroke="#2e8b57" stroke-width="2" opacity="0.5"/>
<line x1="526.4" y1="701.2" x2="530.4" y2="716.9" stroke="#2e8b57" stroke-width="2" opacity="0.5"/>
<line x1="523.7" y1="688.1" x2="523.7" y2="701.2" stroke="#2e8b57" stroke-width="2.5" opacity="0.6"/>
<line x1="510.2" y1="690.1" x2="537.2" y2="690.1" stroke="#2e8b57" stroke-width="2" opacity="0.5"/>
<line x1="510.2" y1="690.1" x2="505.7" y2="701.6" stroke="#2e8b57" stroke-width="1.5" opacity="0.4"/>
<line x1="537.2" y1="690.1" x2="541.7" y2="701.6" stroke="#2e8b57" stroke-width="1.5" opacity="0.4"/>
<circle cx="523.7" cy="671.9" r="8.1" fill="#2e8b57" opacity="0.6"/>
<rect x="35.0" y="441.0" width="217.7" height="40.0" rx="6" fill="white" stroke="#c49a6c" stroke-width="1.0" opacity="0.92"/>
<polygon points="100.3,481.0 108.3,481.0 97.3,489.0" fill="white" stroke="#c49a6c" stroke-width="0.8"/>
<line x1="99.8" y1="481.0" x2="108.8" y2="481.0" stroke="white" stroke-width="1.5"/>
<text x="41.0" y="458.0" font-size="11.0" fill="#c49a6c" font-weight="700">THEODORE</text>
<text x="41.0" y="472.0" font-size="11.0" fill="#333333">Five of you. Like you. This small.</text>
<rect x="432.3" y="491.0" width="332.7" height="40.0" rx="6" fill="white" stroke="#2e8b57" stroke-width="1.0" opacity="0.92"/>
<polygon points="532.1,531.0 540.1,531.0 529.1,539.0" fill="white" stroke="#2e8b57" stroke-width="0.8"/>
<line x1="531.6" y1="531.0" x2="540.6" y2="531.0" stroke="white" stroke-width="1.5"/>
<text x="438.3" y="508.0" font-size="11.0" fill="#2e8b57" font-weight="700">JINK</text>
<text x="438.3" y="522.0" font-size="11.0" fill="#333333">This small here. We're normal-sized where we're from.</text>
<rect x="35.0" y="541.0" width="114.9" height="40.0" rx="6" fill="white" stroke="#c49a6c" stroke-width="1.0" opacity="0.92"/>
<polygon points="69.5,581.0 77.5,581.0 66.5,589.0" fill="white" stroke="#c49a6c" stroke-width="0.8"/>
<line x1="69.0" y1="581.0" x2="78.0" y2="581.0" stroke="white" stroke-width="1.5"/>
<text x="41.0" y="558.0" font-size="11.0" fill="#c49a6c" font-weight="700">THEODORE</text>
<text x="41.0" y="572.0" font-size="11.0" fill="#333333">And where's that?</text>
<rect x="703.0" y="591.0" width="62.0" height="40.0" rx="6" fill="white" stroke="#2e8b57" stroke-width="1.0" opacity="0.92"/>
<polygon points="721.6,631.0 729.6,631.0 718.6,639.0" fill="white" stroke="#2e8b57" stroke-width="0.8"/>
<line x1="721.1" y1="631.0" x2="730.1" y2="631.0" stroke="white" stroke-width="1.5"/>
<text x="709.0" y="608.0" font-size="11.0" fill="#2e8b57" font-weight="700">JINK</text>
<text x="709.0" y="622.0" font-size="11.0" fill="#333333">...Far.</text>
<text x="759.0" y="449.0" text-anchor="end" font-size="12" font-weight="bold" fill="#888888" opacity="0.6">3</text>
<text x="765.0" y="791.0" text-anchor="end" font-size="9" fill="#888888" opacity="0.5">WIDE</text>
<rect x="29.0" y="807.0" width="366.0" height="364.0" rx="2" fill="#f5f0e8" stroke="#2a2a2a" stroke-width="1.5"/>
<ellipse cx="212.0" cy="959.9" rx="114.7" ry="163.8" fill="#c49a6c" opacity="0.18"/>
<path d="M91.6,902.5 Q212.0,771.5 332.4,902.5" fill="none" stroke="#c49a6c" stroke-width="3" opacity="0.35"/>
<line x1="171.9" y1="923.8" x2="206.3" y2="921.8" stroke="#a89888" stroke-width="1.5" opacity="0.45"/>
<line x1="217.7" y1="921.8" x2="252.1" y2="923.8" stroke="#a89888" stroke-width="1.5" opacity="0.45"/>
<ellipse cx="179.9" cy="940.2" rx="13.8" ry="8.2" fill="#a89888" opacity="0.45"/>
<ellipse cx="244.1" cy="940.2" rx="13.8" ry="8.2" fill="#a89888" opacity="0.45"/>
<line x1="212.0" y1="963.2" x2="212.0" y2="989.4" stroke="#a89888" stroke-width="1.2" opacity="0.35"/>
<path d="M205.1,989.4 Q212.0,992.4 218.9,989.4" fill="none" stroke="#a89888" stroke-width="1" opacity="0.3"/>
<line x1="183.3" y1="1012.3" x2="240.7" y2="1012.3" stroke="#a89888" stroke-width="1.2" opacity="0.35"/>
<rect x="35.0" y="815.0" width="354.0" height="54.0" rx="6" fill="white" stroke="#c49a6c" stroke-width="1.0" opacity="0.92"/>
<polygon points="141.2,869.0 149.2,869.0 138.2,877.0" fill="white" stroke="#c49a6c" stroke-width="0.8"/>
<line x1="140.7" y1="869.0" x2="149.7" y2="869.0" stroke="white" stroke-width="1.5"/>
<text x="41.0" y="832.0" font-size="11.0" fill="#c49a6c" font-weight="700">THEODORE</text>
<text x="41.0" y="846.0" font-size="11.0" fill="#333333">Your suit. It's metal, but it... glows. Not like gas. Not</text>
<text x="41.0" y="860.0" font-size="11.0" fill="#333333">like fire.</text>
<rect x="274.1" y="879.0" width="114.9" height="40.0" rx="6" fill="white" stroke="#c49a6c" stroke-width="1.0" opacity="0.92"/>
<polygon points="308.6,919.0 316.6,919.0 305.6,927.0" fill="white" stroke="#c49a6c" stroke-width="0.8"/>
<line x1="308.1" y1="919.0" x2="317.1" y2="919.0" stroke="white" stroke-width="1.5"/>
<text x="280.1" y="896.0" font-size="11.0" fill="#c49a6c" font-weight="700">THEODORE</text>
<text x="280.1" y="910.0" font-size="11.0" fill="#333333">How does it work?</text>
<text x="383.0" y="823.0" text-anchor="end" font-size="12" font-weight="bold" fill="#888888" opacity="0.6">4</text>
<text x="389.0" y="1165.0" text-anchor="end" font-size="9" fill="#888888" opacity="0.5">CU</text>
<rect x="405.0" y="807.0" width="366.0" height="364.0" rx="2" fill="#f5f0e8" stroke="#2a2a2a" stroke-width="1.5"/>
<path d="M529.4,1069.1 L534.8,1022.6 Q540.1,1018.6 571.8,1018.6 L604.2,1018.6 Q635.9,1018.6 641.2,1022.6 L646.6,1069.1 Z" fill="#2e8b57" opacity="0.35"/>
<line x1="534.8" y1="1044.5" x2="641.2" y2="1044.5" stroke="#2e8b57" stroke-width="1" opacity="0.3"/>
<line x1="534.8" y1="1022.6" x2="513.5" y2="1063.5" stroke="#2e8b57" stroke-width="2" opacity="0.3"/>
<line x1="513.5" y1="1063.5" x2="529.4" y2="1088.1" stroke="#2e8b57" stroke-width="2" opacity="0.3"/>
<line x1="641.2" y1="1022.6" x2="662.5" y2="1063.5" stroke="#2e8b57" stroke-width="2" opacity="0.3"/>
<line x1="662.5" y1="1063.5" x2="646.6" y2="1088.1" stroke="#2e8b57" stroke-width="2" opacity="0.3"/>
<line x1="588.0" y1="945.7" x2="588.0" y2="1018.6" stroke="#2e8b57" stroke-width="3" opacity="0.35"/>
<circle cx="588.0" cy="905.3" r="40.5" fill="#2e8b57" opacity="0.4"/>
<rect x="411.0" y="815.0" width="354.0" height="54.0" rx="6" fill="white" stroke="#2e8b57" stroke-width="1.0" opacity="0.92"/>
<polygon points="517.2,869.0 525.2,869.0 514.2,877.0" fill="white" stroke="#2e8b57" stroke-width="0.8"/>
<line x1="516.7" y1="869.0" x2="525.7" y2="869.0" stroke="white" stroke-width="1.5"/>
<text x="417.0" y="832.0" font-size="11.0" fill="#2e8b57" font-weight="700">JINK</text>
<text x="417.0" y="846.0" font-size="11.0" fill="#333333">That's your first question? Not 'are you magic?' Not 'are</text>
<text x="417.0" y="860.0" font-size="11.0" fill="#333333">you real?'</text>
<rect x="535.2" y="879.0" width="229.8" height="40.0" rx="6" fill="white" stroke="#2e8b57" stroke-width="1.0" opacity="0.92"/>
<polygon points="604.1,919.0 612.1,919.0 601.1,927.0" fill="white" stroke="#2e8b57" stroke-width="0.8"/>
<line x1="603.6" y1="919.0" x2="612.6" y2="919.0" stroke="white" stroke-width="1.5"/>
<text x="541.2" y="896.0" font-size="11.0" fill="#2e8b57" font-weight="700">JINK</text>
<text x="541.2" y="910.0" font-size="11.0" fill="#333333">You want to know how the SUIT works.</text>
<rect x="411.0" y="929.0" width="78.6" height="40.0" rx="6" fill="white" stroke="#2e8b57" stroke-width="1.0" opacity="0.92"/>
<polygon points="434.6,969.0 442.6,969.0 431.6,977.0" fill="white" stroke="#2e8b57" stroke-width="0.8"/>
<line x1="434.1" y1="969.0" x2="443.1" y2="969.0" stroke="white" stroke-width="1.5"/>
<text x="417.0" y="946.0" font-size="11.0" fill="#2e8b57" font-weight="700">JINK</text>
<text x="417.0" y="960.0" font-size="11.0" fill="#333333">I like you.</text>
<text x="759.0" y="823.0" text-anchor="end" font-size="12" font-weight="bold" fill="#888888" opacity="0.6">5</text>
<text x="765.0" y="1165.0" text-anchor="end" font-size="9" fill="#888888" opacity="0.5">MED</text>
</svg>