<svg xmlns="http://www.w3.org/2000/svg" viewBox="0 0 800 1200" width="800" height="1200" style="background:#ffffff">
<style>
  text { font-family: "Helvetica Neue", Helvetica, Arial, sans-serif; }
</style>
<text x="400.0" y="22" text-anchor="middle" font-size="16" fill="#888888" font-weight="500">PAGE 7  (5 panels)</text>
<rect x="29.0" y="59.0" width="742.0" height="364.0" rx="2" fill="#f5f0e8" stroke="#2a2a2a" stroke-width="1.5"/>
<path d="M341.4,321.1 L346.8,274.6 Q352.1,270.6 383.8,270.6 L416.2,270.6 Q447.9,270.6 453.2,274.6 L458.6,321.1 Z" fill="#c49a6c" opacity="0.35"/>
<line x1="346.8" y1="296.5" x2="453.2" y2="296.5" stroke="#c49a6c" stroke-width="1" opacity="0.3"/>
<line x1="346.8" y1="274.6" x2="325.5" y2="315.5" stroke="#c49a6c" stroke-width="2" opacity="0.3"/>
<line x1="325.5" y1="315.5" x2="341.4" y2="340.1" stroke="#c49a6c" stroke-width="2" opacity="0.3"/>
<line x1="453.2" y1="274.6" x2="474.5" y2="315.5" stroke="#c49a6c" stroke-width="2" opacity="0.3"/>
<line x1="474.5" y1="315.5" x2="458.6" y2="340.1" stroke="#c49a6c" stroke-width="2" opacity="0.3"/>
<line x1="400.0" y1="197.7" x2="400.0" y2="270.6" stroke="#c49a6c" stroke-width="3" opacity="0.35"/>
<circle cx="400.0" cy="157.3" r="40.5" fill="#c49a6c" opacity="0.4"/>
<rect x="35.0" y="67.0" width="272.2" height="40.0" rx="2" fill="#f5ecd8" stroke="#c8b898" stroke-width="0.8" opacity="0.92"/>
<text x="41.0" y="84.0" font-size="11.0" fill="#5a4a30" font-style="italic" font-weight="500">CAPTION</text>
<text x="41.0" y="98.0" font-size="11.0" fill="#5a4a30" font-style="italic">Night. Workshop closed. Cribbage long gone.</text>
<rect x="35.0" y="111.0" width="175.4" height="40.0" rx="6" fill="white" stroke="#c49a6c" stroke-width="1.0" opacity="0.92"/>
<polygon points="87.6,151.0 95.6,151.0 84.6,159.0" fill="white" stroke="#c49a6c" stroke-width="0.8"/>
<line x1="87.1" y1="151.0" x2="96.1" y2="151.0" stroke="white" stroke-width="1.5"/>
<text x="41.0" y="128.0" font-size="11.0" fill="#c49a6c" font-weight="700">THEODORE</text>
<text x="41.0" y="142.0" font-size="11.0" fill="#333333">Someone's been at my tools.</text>
<text x="759.0" y="75.0" text-anchor="end" font-size="12" font-weight="bold" fill="#888888" opacity="0.6">1</text>
<text x="765.0" y="417.0" text-anchor="end" font-size="9" fill="#888888" opacity="0.5">MW</text>
<rect x="29.0" y="433.0" width="742.0" height="364.0" rx="2" fill="#f5f0e8" stroke="#2a2a2a" stroke-width="1.5"/>
<line x1="37.0" y1="560.4" x2="763.0" y2="560.4" stroke="#a89888" stroke-width="0.6" opacity="0.2"/>
<line x1="400.0" y1="560.4" x2="103.2" y2="760.6" stroke="#a89888" stroke-width="0.8" opacity="0.25"/>
<line x1="400.0" y1="560.4" x2="251.6" y2="760.6" stroke="#a89888" stroke-width="0.8" opacity="0.25"/>
<line x1="400.0" y1="560.4" x2="348.1" y2="760.6" stroke="#a89888" stroke-width="0.8" opacity="0.25"/>
<line x1="400.0" y1="560.4" x2="451.9" y2="760.6" stroke="#a89888" stroke-width="0.8" opacity="0.25"/>
<line x1="400.0" y1="560.4" x2="548.4" y2="760.6" stroke="#a89888" stroke-width="0.8" opacity="0.25"/>
<line x1="400.0" y1="560.4" x2="696.8" y2="760.6" stroke="#a89888" stroke-width="0.8" opacity="0.25"/>
<circle cx="400.0" cy="560.4" r="3" fill="#a89888" opacity="0.3"/>
<rect x="35.0" y="441.0" width="139.1" height="40.0" rx="6" fill="white" stroke="#2e8b57" stroke-width="1.0" opacity="0.92"/>
<polygon points="76.7,481.0 84.7,481.0 73.7,489.0" fill="white" stroke="#2e8b57" stroke-width="0.8"/>
<line x1="76.2" y1="481.0" x2="85.2" y2="481.0" stroke="white" stroke-width="1.5"/>
<text x="41.0" y="458.0" font-size="11.0" fill="#2e8b57" font-weight="700">JINK</text>
<text x="41.0" y="472.0" font-size="11.0" fill="#333333">Took you long enough.</text>
<text x="759.0" y="449.0" text-anchor="end" font-size="12" font-weight="bold" fill="#888888" opacity="0.6">2</text>
<text x="765.0" y="791.0" text-anchor="end" font-size="9" fill="#888888" opacity="0.5">POV</text>
<rect x="29.0" y="807.0" width="240.7" height="364.0" rx="2" fill="#f5f0e8" stroke="#2a2a2a" stroke-width="1.5"/>
<ellipse cx="149.3" cy="959.9" rx="96.3" ry="163.8" fill="#c0b8a8" opacity="0.18"/>
<path d="M48.3,902.5 Q149.3,771.5 250.4,902.5" fill="none" stroke="#c0b8a8" stroke-width="3" opacity="0.35"/>
<line x1="115.6" y1="923.8" x2="144.5" y2="921.8" stroke="#a89888" stroke-width="1.5" opacity="0.45"/>
<line x1="154.1" y1="921.8" x2="183.0" y2="923.8" stroke="#a89888" stroke-width="1.5" opacity="0.45"/>
<ellipse cx="122.4" cy="940.2" rx="11.6" ry="8.2" fill="#a89888" opacity="0.45"/>
<ellipse cx="176.3" cy="940.2" rx="11.6" ry="8.2" fill="#a89888" opacity="0.45"/>
<line x1="149.3" y1="963.2" x2="149.3" y2="989.4" stroke="#a89888" stroke-width="1.2" opacity="0.35"/>
<path d="M143.6,989.4 Q149.3,992.4 155.1,989.4" fill="none" stroke="#a89888" stroke-width="1" opacity="0.3"/>
<line x1="125.3" y1="1012.3" x2="173.4" y2="1012.3" stroke="#a89888" stroke-width="1.2" opacity="0.35"/>
<text x="257.7" y="823.0" text-anchor="end" font-size="12" font-weight="bold" fill="#888888" opacity="0.6">3</text>
<text x="263.7" y="1165.0" text-anchor="end" font-size="9" fill="#888888" opacity="0.5">CU</text>
<rect x="279.7" y="807.0" width="240.7" height="364.0" rx="2" fill="#f5f0e8" stroke="#2a2a2a" stroke-width="1.5"/>
<line x1="287.7" y1="934.4" x2="512.3" y2="934.4" stroke="#a89888" stroke-width="0.6" opacity="0.2"/>
<line x1="400.0" y1="934.4" x2="303.7" y2="1134.6" stroke="#a89888" stroke-width="0.8" opacity="0.25"/>
<line x1="400.0" y1="934.4" x2="351.9" y2="1134.6" stroke="#a89888" stroke-width="0.8" opacity="0.25"/>
<line x1="400.0" y1="934.4" x2="383.2" y2="1134.6" stroke="#a89888" stroke-width="0.8" opacity="0.25"/>
<line x1="400.0" y1="934.4" x2="416.8" y2="1134.6" stroke="#a89888" stroke-width="0.8" opacity="0.25"/>
<line x1="400.0" y1="934.4" x2="448.1" y2="1134.6" stroke="#a89888" stroke-width="0.8" opacity="0.25"/>
<line x1="400.0" y1="934.4" x2="496.3" y2="1134.6" stroke="#a89888" stroke-width="0.8" opacity="0.25"/>
<circle cx="400.0" cy="934.4" r="3" fill="#a89888" opacity="0.3"/>
<rect x="285.7" y="815.0" width="228.7" height="51.0" rx="6" fill="white" stroke="#2e8b57" stroke-width="1.0" opacity="0.92"/>
<polygon points="354.3,866.0 362.3,866.0 351.3,874.0" fill="white" stroke="#2e8b57" stroke-width="0.8"/>
<line x1="353.8" y1="866.0" x2="362.8" y2="866.0" stroke="white" stroke-width="1.5"/>
<text x="291.7" y="831.0" font-size="10.0" fill="#2e8b57" font-weight="700">JINK</text>
<text x="291.7" y="844.0" font-size="10.0" fill="#333333">You going to stare all night, or are you</text>
<text x="291.7" y="857.0" font-size="10.0" fill="#333333">going to say hello?</text>
<text x="508.3" y="823.0" text-anchor="end" font-size="12" font-weight="bold" fill="#888888" opacity="0.6">4</text>
<text x="514.3" y="1165.0" text-anchor="end" font-size="9" fill="#888888" opacity="0.5">POV</text>
<rect x="530.3" y="807.0" width="240.7" height="364.0" rx="2" fill="#f5f0e8" stroke="#2a2a2a" stroke-width="1.5"/>
<path d="M604.3,1069.1 L608.6,998.9 Q612.8,994.9 637.9,994.9 L663.5,994.9 Q688.6,994.9 692.8,998.9 L697.0,1069.1 Z" fill="#c49a6c" opacity="0.35"/>
<line x1="608.6" y1="1044.5" x2="692.8" y2="1044.5" stroke="#c49a6c" stroke-width="1" opacity="0.3"/>
<line x1="608.6" y1="998.9" x2="591.7" y2="1039.9" stroke="#c49a6c" stroke-width="2" opacity="0.3"/>
<line x1="591.7" y1="1039.9" x2="604.3" y2="1064.4" stroke="#c49a6c" stroke-width="2" opacity="0.3"/>
<line x1="692.8" y1="998.9" x2="709.6" y2="1039.9" stroke="#c49a6c" stroke-width="2" opacity="0.3"/>
<line x1="709.6" y1="1039.9" x2="697.0" y2="1064.4" stroke="#c49a6c" stroke-width="2" opacity="0.3"/>
<line x1="650.7" y1="937.3" x2="650.7" y2="994.9" stroke="#c49a6c" stroke-width="3" opacity="0.35"/>
<circle cx="650.7" cy="905.3" r="32.0" fill="#c49a6c" opacity="0.4"/>
<rect x="536.3" y="815.0" width="100.0" height="38.0" rx="6" fill="white" stroke="#c49a6c" stroke-width="1.0" opacity="0.92"/>
<polygon points="566.3,853.0 574.3,853.0 563.3,861.0" fill="white" stroke="#c49a6c" stroke-width="0.8"/>
<line x1="565.8" y1="853.0" x2="574.8" y2="853.0" stroke="white" stroke-width="1.5"/>
<text x="542.3" y="831.0" font-size="10.0" fill="#c49a6c" font-weight="700">THEODORE</text>
<text x="542.3" y="844.0" font-size="10.0" fill="#333333">You... you're...</text>
<text x="759.0" y="823.0" text-anchor="end" font-size="12" font-weight="bold" fill="#888888" opacity="0.6">5</text>
<text x="765.0" y="1165.0" text-anchor="end" font-size="9" fill="#888888" opacity="0.5">MED</text>
</svg>