<svg xmlns="http://www.w3.org/2000/svg" viewBox="0 0 800 1200" width="800" height="1200" style="background:#ffffff">
<style>
  text { font-family: "Helvetica Neue", Helvetica, Arial, sans-serif; }
</style>
<text x="400.0" y="22" text-anchor="middle" font-size="16" fill="#888888" font-weight="500">PAGE 8  (5 panels)</text>
<rect x="29.0" y="59.0" width="742.0" height="364.0" rx="2" fill="#f5f0e8" stroke="#2a2a2a" stroke-width="1.5"/>
<line x1="35.0" y1="342.9" x2="765.0" y2="342.9" stroke="#a89888" stroke-width="1.0" opacity="0.5"/>
<ellipse cx="214.5" cy="344.9" rx="11.2" ry="2.7" fill="#a89888" opacity="0.2"/>
<line x1="211.8" y1="327.2" x2="207.8" y2="342.9" stroke="#c0b8a8" stroke-width="2" opacity="0.5"/>
<line x1="217.2" y1="327.2" x2="221.2" y2="342.9" stroke="#c0b8a8" stroke-width="2" opacity="0.5"/>
<line x1="214.5" y1="314.1" x2="214.5" y2="327.2" stroke="#c0b8a8" stroke-width="2.5" opacity="0.6"/>
<line x1="201.0" y1="316.1" x2="228.0" y2="316.1" stroke="#c0b8a8" stroke-width="2" opacity="0.5"/>
<line x1="201.0" y1="316.1" x2="196.5" y2="327.6" stroke="#c0b8a8" stroke-width="1.5" opacity="0.4"/>
<line x1="228.0" y1="316.1" x2="232.5" y2="327.6" stroke="#c0b8a8" stroke-width="1.5" opacity="0.4"/>
<circle cx="214.5" cy="297.9" r="8.1" fill="#c0b8a8" opacity="0.6"/>
<ellipse cx="400.0" cy="344.9" rx="11.2" ry="2.7" fill="#a89888" opacity="0.2"/>
<line x1="397.3" y1="327.2" x2="393.2" y2="342.9" stroke="#c0b8a8" stroke-width="2" opacity="0.5"/>
<line x1="402.7" y1="327.2" x2="406.8" y2="342.9" stroke="#c0b8a8" stroke-width="2" opacity="0.5"/>
<line x1="400.0" y1="314.1" x2="400.0" y2="327.2" stroke="#c0b8a8" stroke-width="2.5" opacity="0.6"/>
<line x1="386.5" y1="316.1" x2="413.5" y2="316.1" stroke="#c0b8a8" stroke-width="2" opacity="0.5"/>
<line x1="386.5" y1="316.1" x2="382.0" y2="327.6" stroke="#c0b8a8" stroke-width="1.5" opacity="0.4"/>
<line x1="413.5" y1="316.1" x2="418.0" y2="327.6" stroke="#c0b8a8" stroke-width="1.5" opacity="0.4"/>
<circle cx="400.0" cy="297.9" r="8.1" fill="#c0b8a8" opacity="0.6"/>
<ellipse cx="585.5" cy="344.9" rx="11.2" ry="2.7" fill="#a89888" opacity="0.2"/>
<line x1="582.8" y1="327.2" x2="578.8" y2="342.9" stroke="#c0b8a8" stroke-width="2" opacity="0.5"/>
<line x1="588.2" y1="327.2" x2="592.2" y2="342.9" stroke="#c0b8a8" stroke-width="2" opacity="0.5"/>
<line x1="585.5" y1="314.1" x2="585.5" y2="327.2" stroke="#c0b8a8" stroke-width="2.5" opacity="0.6"/>
<line x1="572.0" y1="316.1" x2="599.0" y2="316.1" stroke="#c0b8a8" stroke-width="2" opacity="0.5"/>
<line x1="572.0" y1="316.1" x2="567.5" y2="327.6" stroke="#c0b8a8" stroke-width="1.5" opacity="0.4"/>
<line x1="599.0" y1="316.1" x2="603.5" y2="327.6" stroke="#c0b8a8" stroke-width="1.5" opacity="0.4"/>
<circle cx="585.5" cy="297.9" r="8.1" fill="#c0b8a8" opacity="0.6"/>
<text x="759.0" y="75.0" text-anchor="end" font-size="12" font-weight="bold" fill="#888888" opacity="0.6">1</text>
<text x="765.0" y="417.0" text-anchor="end" font-size="9" fill="#888888" opacity="0.5">WIDE</text>
<rect x="29.0" y="433.0" width="366.0" height="364.0" rx="2" fill="#f5f0e8" stroke="#2a2a2a" stroke-width="1.5"/>
<path d="M153.4,695.1 L158.8,648.6 Q164.1,644.6 195.8,644.6 L228.2,644.6 Q259.9,644.6 265.2,648.6 L270.6,695.1 Z" fill="#2e8b57" opacity="0.35"/>
<line x1="158.8" y1="670.5" x2="265.2" y2="670.5" stroke="#2e8b57" stroke-width="1" opacity="0.3"/>
<line x1="158.8" y1="648.6" x2="137.5" y2="689.5" stroke="#2e8b57" stroke-width="2" opacity="0.3"/>
<line x1="137.5" y1="689.5" x2="153.4" y2="714.1" stroke="#2e8b57" stroke-width="2" opacity="0.3"/>
<line x1="265.2" y1="648.6" x2="286.5" y2="689.5" stroke="#2e8b57" stroke-width="2" opacity="0.3"/>
<line x1="286.5" y1="689.5" x2="270.6" y2="714.1" stroke="#2e8b57" stroke-width="2" opacity="0.3"/>
<line x1="212.0" y1="571.7" x2="212.0" y2="644.6" stroke="#2e8b57" stroke-width="3" opacity="0.35"/>
<circle cx="212.0" cy="531.3" r="40.5" fill="#2e8b57" opacity="0.4"/>
<rect x="35.0" y="441.0" width="354.0" height="54.0" rx="6" fill="white" stroke="#2e8b57" stroke-width="1.0" opacity="0.92"/>
<polygon points="141.2,495.0 149.2,495.0 138.2,503.0" fill="white" stroke="#2e8b57" stroke-width="0.8"/>
<line x1="140.7" y1="495.0" x2="149.7" y2="495.0" stroke="white" stroke-width="1.5"/>
<text x="41.0" y="458.0" font-size="11.0" fill="#2e8b57" font-weight="700">JINK</text>
<text x="41.0" y="472.0" font-size="11.0" fill="#333333">You're the one with the workshop, yeah? The boy who watches</text>
<text x="41.0" y="486.0" font-size="11.0" fill="#333333">things?</text>
<text x="383.0" y="449.0" text-anchor="end" font-size="12" font-weight="bold" fill="#888888" opacity="0.6">2</text>
<text x="389.0" y="791.0" text-anchor="end" font-size="9" fill="#888888" opacity="0.5">MED</text>
<rect x="405.0" y="433.0" width="366.0" height="364.0" rx="2" fill="#f5f0e8" stroke="#2a2a2a" stroke-width="1.5"/>
<ellipse cx="588.0" cy="585.9" rx="114.7" ry="163.8" fill="#c49a6c" opacity="0.18"/>
<path d="M467.6,528.5 Q588.0,397.5 708.4,528.5" fill="none" stroke="#c49a6c" stroke-width="3" opacity="0.35"/>
<line x1="547.9" y1="549.8" x2="582.3" y2="547.8" stroke="#a89888" stroke-width="1.5" opacity="0.45"/>
<line x1="593.7" y1="547.8" x2="628.1" y2="549.8" stroke="#a89888" stroke-width="1.5" opacity="0.45"/>
<ellipse cx="555.9" cy="566.2" rx="13.8" ry="8.2" fill="#a89888" opacity="0.45"/>
<ellipse cx="620.1" cy="566.2" rx="13.8" ry="8.2" fill="#a89888" opacity="0.45"/>
<line x1="588.0" y1="589.2" x2="588.0" y2="615.4" stroke="#a89888" stroke-width="1.2" opacity="0.35"/>
<path d="M581.1,615.4 Q588.0,618.4 594.9,615.4" fill="none" stroke="#a89888" stroke-width="1" opacity="0.3"/>
<line x1="559.3" y1="638.3" x2="616.7" y2="638.3" stroke="#a89888" stroke-width="1.2" opacity="0.35"/>
<rect x="411.0" y="441.0" width="338.7" height="40.0" rx="6" fill="white" stroke="#c49a6c" stroke-width="1.0" opacity="0.92"/>
<polygon points="512.6,481.0 520.6,481.0 509.6,489.0" fill="white" stroke="#c49a6c" stroke-width="0.8"/>
<line x1="512.1" y1="481.0" x2="521.1" y2="481.0" stroke="white" stroke-width="1.5"/>
<text x="417.0" y="458.0" font-size="11.0" fill="#c49a6c" font-weight="700">THEODORE</text>
<text x="417.0" y="472.0" font-size="11.0" fill="#333333">You're... you're real. You ain't a trick of the light.</text>
<text x="759.0" y="449.0" text-anchor="end" font-size="12" font-weight="bold" fill="#888888" opacity="0.6">3</text>
<text x="765.0" y="791.0" text-anchor="end" font-size="9" fill="#888888" opacity="0.5">CU</text>
<rect x="29.0" y="807.0" width="238.2" height="364.0" rx="2" fill="#f5f0e8" stroke="#2a2a2a" stroke-width="1.5"/>
<path d="M79.5,1038.3 Q79.5,1004.0 130.9,999.8 L165.2,999.8 Q216.7,1004.0 216.7,1038.3 L216.7,1127.3 L79.5,1127.3 Z" fill="#2e8b57" opacity="0.25"/>
<path d="M133.1,999.8 L148.1,1021.2 L163.1,999.8" fill="none" stroke="#2e8b57" stroke-width="1" opacity="0.3"/>
<circle cx="148.1" cy="952.6" r="42.9" fill="#2e8b57" opacity="0.35"/>
<path d="M105.2,961.2 Q111.6,999.8 148.1,1001.9 Q184.5,999.8 190.9,961.2" fill="none" stroke="#2e8b57" stroke-width="1.2" opacity="0.3"/>
<path d="M103.1,948.3 Q148.1,896.9 193.1,948.3" fill="none" stroke="#2e8b57" stroke-width="2" opacity="0.4"/>
<ellipse cx="103.2" cy="954.7" rx="2.5" ry="4" fill="#2e8b57" opacity="0.25"/>
<ellipse cx="192.9" cy="954.7" rx="2.5" ry="4" fill="#2e8b57" opacity="0.25"/>
<rect x="35.0" y="815.0" width="210.0" height="38.0" rx="6" fill="white" stroke="#2e8b57" stroke-width="1.0" opacity="0.92"/>
<polygon points="98.0,853.0 106.0,853.0 95.0,861.0" fill="white" stroke="#2e8b57" stroke-width="0.8"/>
<line x1="97.5" y1="853.0" x2="106.5" y2="853.0" stroke="white" stroke-width="1.5"/>
<text x="41.0" y="831.0" font-size="10.0" fill="#2e8b57" font-weight="700">JINK</text>
<text x="41.0" y="844.0" font-size="10.0" fill="#333333">Definitely not a trick of the light.</text>
<text x="255.2" y="823.0" text-anchor="end" font-size="12" font-weight="bold" fill="#888888" opacity="0.6">4</text>
<text x="261.2" y="1165.0" text-anchor="end" font-size="9" fill="#888888" opacity="0.5">MCU</text>
<rect x="277.2" y="807.0" width="493.8" height="364.0" rx="2" fill="#f5f0e8" stroke="#2a2a2a" stroke-width="1.5"/>
<path d="M465.5,1069.1 L470.8,1022.6 Q476.2,1018.6 507.9,1018.6 L540.3,1018.6 Q572.0,1018.6 577.3,1022.6 L582.6,1069.1 Z" fill="#c49a6c" opacity="0.35"/>
<line x1="470.8" y1="1044.5" x2="577.3" y2="1044.5" stroke="#c49a6c" stroke-width="1" opacity="0.3"/>
<line x1="470.8" y1="1022.6" x2="449.6" y2="1063.5" stroke="#c49a6c" stroke-width="2" opacity="0.3"/>
<line x1="449.6" y1="1063.5" x2="465.5" y2="1088.1" stroke="#c49a6c" stroke-width="2" opacity="0.3"/>
<line x1="577.3" y1="1022.6" x2="598.6" y2="1063.5" stroke="#c49a6c" stroke-width="2" opacity="0.3"/>
<line x1="598.6" y1="1063.5" x2="582.6" y2="1088.1" stroke="#c49a6c" stroke-width="2" opacity="0.3"/>
<line x1="524.1" y1="945.7" x2="524.1" y2="1018.6" stroke="#c49a6c" stroke-width="3" opacity="0.35"/>
<circle cx="524.1" cy="905.3" r="40.5" fill="#c49a6c" opacity="0.4"/>
<rect x="283.2" y="815.0" width="254.0" height="40.0" rx="6" fill="white" stroke="#c49a6c" stroke-width="1.0" opacity="0.92"/>
<polygon points="359.4,855.0 367.4,855.0 356.4,863.0" fill="white" stroke="#c49a6c" stroke-width="0.8"/>
<line x1="358.9" y1="855.0" x2="367.9" y2="855.0" stroke="white" stroke-width="1.5"/>
<text x="289.2" y="832.0" font-size="11.0" fill="#c49a6c" font-weight="700">THEODORE</text>
<text x="289.2" y="846.0" font-size="11.0" fill="#333333">Are you... are you one of the fair folk?</text>
<rect x="583.6" y="865.0" width="181.4" height="40.0" rx="6" fill="white" stroke="#2e8b57" stroke-width="1.0" opacity="0.92"/>
<polygon points="638.0,905.0 646.0,905.0 635.0,913.0" fill="white" stroke="#2e8b57" stroke-width="0.8"/>
<line x1="637.5" y1="905.0" x2="646.5" y2="905.0" stroke="white" stroke-width="1.5"/>
<text x="589.6" y="882.0" font-size="11.0" fill="#2e8b57" font-weight="700">JINK</text>
<text x="589.6" y="896.0" font-size="11.0" fill="#333333">...Sure. Let's go with that.</text>
<text x="759.0" y="823.0" text-anchor="end" font-size="12" font-weight="bold" fill="#888888" opacity="0.6">5</text>
<text x="765.0" y="1165.0" text-anchor="end" font-size="9" fill="#888888" opacity="0.5">MED</text>
</svg>