<svg xmlns="http://www.w3.org/2000/svg" viewBox="0 0 800 1200" width="800" height="1200" style="background:#ffffff">
<style>
  text { font-family: "Helvetica Neue", Helvetica, Arial, sans-serif; }
</style>
<text x="400.0" y="22" text-anchor="middle" font-size="16" fill="#888888" font-weight="500">PAGE 22  (5 panels)</text>
<rect x="29.0" y="59.0" width="742.0" height="364.0" rx="2" fill="#f5f0e8" stroke="#2a2a2a" stroke-width="1.5"/>
<line x1="35.0" y1="342.9" x2="765.0" y2="342.9" stroke="#a89888" stroke-width="1.0" opacity="0.5"/>
<ellipse cx="214.5" cy="344.9" rx="11.2" ry="2.7" fill="#a89888" opacity="0.2"/>
<line x1="211.8" y1="327.2" x2="207.8" y2="342.9" stroke="#c0b8a8" stroke-width="2" opacity="0.5"/>
<line x1="217.2" y1="327.2" x2="221.2" y2="342.9" stroke="#c0b8a8" stroke-width="2" opacity="0.5"/>
<line x1="214.5" y1="314.1" x2="214.5" y2="327.2" stroke="#c0b8a8" stroke-width="2.5" opacity="0.6"/>
<line x1="201.0" y1="316.1" x2="228.0" y2="316.1" stroke="#c0b8a8" stroke-width="2" opacity="0.5"/>
<line x1="201.0" y1="316.1" x2="196.5" y2="327.6" stroke="#c0b8a8" stroke-width="1.5" opacity="0.4"/>
<line x1="228.0" y1="316.1" x2="232.5" y2="327.6" stroke="#c0b8a8" stroke-width="1.5" opacity="0.4"/>
<circle cx="214.5" cy="297.9" r="8.1" fill="#c0b8a8" opacity="0.6"/>
<ellipse cx="400.0" cy="344.9" rx="11.2" ry="2.7" fill="#a89888" opacity="0.2"/>
<line x1="397.3" y1="327.2" x2="393.2" y2="342.9" stroke="#c0b8a8" stroke-width="2" opacity="0.5"/>
<line x1="402.7" y1="327.2" x2="406.8" y2="342.9" stroke="#c0b8a8" stroke-width="2" opacity="0.5"/>
<line x1="400.0" y1="314.1" x2="400.0" y2="327.2" stroke="#c0b8a8" stroke-width="2.5" opacity="0.6"/>
<line x1="386.5" y1="316.1" x2="413.5" y2="316.1" stroke="#c0b8a8" stroke-width="2" opacity="0.5"/>
<line x1="386.5" y1="316.1" x2="382.0" y2="327.6" stroke="#c0b8a8" stroke-width="1.5" opacity="0.4"/>
<line x1="413.5" y1="316.1" x2="418.0" y2="327.6" stroke="#c0b8a8" stroke-width="1.5" opacity="0.4"/>
<circle cx="400.0" cy="297.9" r="8.1" fill="#c0b8a8" opacity="0.6"/>
<ellipse cx="585.5" cy="344.9" rx="11.2" ry="2.7" fill="#a89888" opacity="0.2"/>
<line x1="582.8" y1="327.2" x2="578.8" y2="342.9" stroke="#c0b8a8" stroke-width="2" opacity="0.5"/>
<line x1="588.2" y1="327.2" x2="592.2" y2="342.9" stroke="#c0b8a8" stroke-width="2" opacity="0.5"/>
<line x1="585.5" y1="314.1" x2="585.5" y2="327.2" stroke="#c0b8a8" stroke-width="2.5" opacity="0.6"/>
<line x1="572.0" y1="316.1" x2="599.0" y2="316.1" stroke="#c0b8a8" stroke-width="2" opacity="0.5"/>
<line x1="572.0" y1="316.1" x2="567.5" y2="327.6" stroke="#c0b8a8" stroke-width="1.5" opacity="0.4"/>
<line x1="599.0" y1="316.1" x2="603.5" y2="327.6" stroke="#c0b8a8" stroke-width="1.5" opacity="0.4"/>
<circle cx="585.5" cy="297.9" r="8.1" fill="#c0b8a8" opacity="0.6"/>
<rect x="35.0" y="67.0" width="290.3" height="40.0" rx="2" fill="#f5ecd8" stroke="#c8b898" stroke-width="0.8" opacity="0.92"/>
<text x="41.0" y="84.0" font-size="11.0" fill="#5a4a30" font-style="italic" font-weight="500">CAPTION</text>
<text x="41.0" y="98.0" font-size="11.0" fill="#5a4a30" font-style="italic">Morning. The city did not know it had changed.</text>
<text x="759.0" y="75.0" text-anchor="end" font-size="12" font-weight="bold" fill="#888888" opacity="0.6">1</text>
<text x="765.0" y="417.0" text-anchor="end" font-size="9" fill="#888888" opacity="0.5">EST</text>
<rect x="29.0" y="433.0" width="366.0" height="364.0" rx="2" fill="#f5f0e8" stroke="#2a2a2a" stroke-width="1.5"/>
<path d="M153.4,695.1 L158.8,648.6 Q164.1,644.6 195.8,644.6 L228.2,644.6 Q259.9,644.6 265.2,648.6 L270.6,695.1 Z" fill="#999999" opacity="0.35"/>
<line x1="158.8" y1="670.5" x2="265.2" y2="670.5" stroke="#999999" stroke-width="1" opacity="0.3"/>
<line x1="158.8" y1="648.6" x2="137.5" y2="689.5" stroke="#999999" stroke-width="2" opacity="0.3"/>
<line x1="137.5" y1="689.5" x2="153.4" y2="714.1" stroke="#999999" stroke-width="2" opacity="0.3"/>
<line x1="265.2" y1="648.6" x2="286.5" y2="689.5" stroke="#999999" stroke-width="2" opacity="0.3"/>
<line x1="286.5" y1="689.5" x2="270.6" y2="714.1" stroke="#999999" stroke-width="2" opacity="0.3"/>
<line x1="212.0" y1="571.7" x2="212.0" y2="644.6" stroke="#999999" stroke-width="3" opacity="0.35"/>
<circle cx="212.0" cy="531.3" r="40.5" fill="#999999" opacity="0.4"/>
<rect x="35.0" y="441.0" width="96.7" height="40.0" rx="6" fill="white" stroke="#999999" stroke-width="1.0" opacity="0.92"/>
<polygon points="64.0,481.0 72.0,481.0 61.0,489.0" fill="white" stroke="#999999" stroke-width="0.8"/>
<line x1="63.5" y1="481.0" x2="72.5" y2="481.0" stroke="white" stroke-width="1.5"/>
<text x="41.0" y="458.0" font-size="11.0" fill="#999999" font-weight="700">BILLY</text>
<text x="41.0" y="472.0" font-size="11.0" fill="#333333">Alright, Theo?</text>
<rect x="80.5" y="491.0" width="308.5" height="40.0" rx="6" fill="white" stroke="#c49a6c" stroke-width="1.0" opacity="0.92"/>
<polygon points="173.1,531.0 181.1,531.0 170.1,539.0" fill="white" stroke="#c49a6c" stroke-width="0.8"/>
<line x1="172.6" y1="531.0" x2="181.6" y2="531.0" stroke="white" stroke-width="1.5"/>
<text x="86.5" y="508.0" font-size="11.0" fill="#c49a6c" font-weight="700">THEODORE</text>
<text x="86.5" y="522.0" font-size="11.0" fill="#333333">Billy. You won't... you won't believe what I saw.</text>
<rect x="35.0" y="541.0" width="62.0" height="40.0" rx="6" fill="white" stroke="#999999" stroke-width="1.0" opacity="0.92"/>
<polygon points="53.6,581.0 61.6,581.0 50.6,589.0" fill="white" stroke="#999999" stroke-width="0.8"/>
<line x1="53.1" y1="581.0" x2="62.1" y2="581.0" stroke="white" stroke-width="1.5"/>
<text x="41.0" y="558.0" font-size="11.0" fill="#999999" font-weight="700">BILLY</text>
<text x="41.0" y="572.0" font-size="11.0" fill="#333333">What?</text>
<text x="383.0" y="449.0" text-anchor="end" font-size="12" font-weight="bold" fill="#888888" opacity="0.6">2</text>
<text x="389.0" y="791.0" text-anchor="end" font-size="9" fill="#888888" opacity="0.5">MED</text>
<rect x="405.0" y="433.0" width="366.0" height="364.0" rx="2" fill="#f5f0e8" stroke="#2a2a2a" stroke-width="1.5"/>
<path d="M486.1,706.0 Q486.1,655.0 562.5,648.7 L613.5,648.7 Q689.9,655.0 689.9,706.0 L689.9,753.3 L486.1,753.3 Z" fill="#c49a6c" opacity="0.25"/>
<path d="M565.7,648.7 L588.0,680.5 L610.3,648.7" fill="none" stroke="#c49a6c" stroke-width="1" opacity="0.3"/>
<circle cx="588.0" cy="578.6" r="63.7" fill="#c49a6c" opacity="0.35"/>
<path d="M524.3,591.3 Q533.9,648.7 588.0,651.9 Q642.1,648.7 651.7,591.3" fill="none" stroke="#c49a6c" stroke-width="1.2" opacity="0.3"/>
<path d="M521.1,572.2 Q588.0,495.8 654.9,572.2" fill="none" stroke="#c49a6c" stroke-width="2" opacity="0.4"/>
<ellipse cx="522.3" cy="581.8" rx="2.5" ry="4" fill="#c49a6c" opacity="0.25"/>
<ellipse cx="653.7" cy="581.8" rx="2.5" ry="4" fill="#c49a6c" opacity="0.25"/>
<rect x="411.0" y="441.0" width="272.2" height="40.0" rx="6" fill="white" stroke="#c49a6c" stroke-width="1.0" opacity="0.92"/>
<polygon points="492.6,481.0 500.6,481.0 489.6,489.0" fill="white" stroke="#c49a6c" stroke-width="0.8"/>
<line x1="492.1" y1="481.0" x2="501.1" y2="481.0" stroke="white" stroke-width="1.5"/>
<text x="417.0" y="458.0" font-size="11.0" fill="#c49a6c" font-weight="700">THEODORE</text>
<text x="417.0" y="472.0" font-size="11.0" fill="#333333">I saw a fairy. Last night. In the workshop.</text>
<rect x="411.0" y="491.0" width="354.0" height="68.0" rx="6" fill="white" stroke="#c49a6c" stroke-width="1.0" opacity="0.92"/>
<polygon points="517.2,559.0 525.2,559.0 514.2,567.0" fill="white" stroke="#c49a6c" stroke-width="0.8"/>
<line x1="516.7" y1="559.0" x2="525.7" y2="559.0" stroke="white" stroke-width="1.5"/>
<text x="417.0" y="508.0" font-size="11.0" fill="#c49a6c" font-weight="700">THEODORE</text>
<text x="417.0" y="522.0" font-size="11.0" fill="#333333">It was this big--&quot; (his hands measuring four inches in the</text>
<text x="417.0" y="536.0" font-size="11.0" fill="#333333">air) &quot;--and it GLOWED. Green light, like... like nothing</text>
<text x="417.0" y="550.0" font-size="11.0" fill="#333333">I've ever seen.</text>
<rect x="411.0" y="569.0" width="260.1" height="40.0" rx="6" fill="white" stroke="#c49a6c" stroke-width="1.0" opacity="0.92"/>
<polygon points="489.0,609.0 497.0,609.0 486.0,617.0" fill="white" stroke="#c49a6c" stroke-width="0.8"/>
<line x1="488.5" y1="609.0" x2="497.5" y2="609.0" stroke="white" stroke-width="1.5"/>
<text x="417.0" y="586.0" font-size="11.0" fill="#c49a6c" font-weight="700">THEODORE</text>
<text x="417.0" y="600.0" font-size="11.0" fill="#333333">It had wings, Billy. Wings made of light.</text>
<text x="759.0" y="449.0" text-anchor="end" font-size="12" font-weight="bold" fill="#888888" opacity="0.6">3</text>
<text x="765.0" y="791.0" text-anchor="end" font-size="9" fill="#888888" opacity="0.5">MCU</text>
<rect x="29.0" y="807.0" width="493.8" height="364.0" rx="2" fill="#f5f0e8" stroke="#2a2a2a" stroke-width="1.5"/>
<circle cx="275.9" cy="989.0" r="45.0" fill="#999999" opacity="0.22"/>
<line x1="251.2" y1="977.8" x2="269.2" y2="970.1" stroke="#a89888" stroke-width="1.5" opacity="0.5"/>
<line x1="282.7" y1="970.1" x2="300.7" y2="977.8" stroke="#a89888" stroke-width="1.5" opacity="0.5"/>
<ellipse cx="262.4" cy="984.5" rx="4.5" ry="2.7" fill="#a89888" opacity="0.5"/>
<ellipse cx="289.4" cy="984.5" rx="4.5" ry="2.7" fill="#a89888" opacity="0.5"/>
<line x1="275.9" y1="989.9" x2="275.9" y2="998.0" stroke="#a89888" stroke-width="1" opacity="0.35"/>
<ellipse cx="275.9" cy="1006.1" rx="6.8" ry="3.6" fill="#a89888" opacity="0.25"/>
<line x1="320.7" y1="1014.9" x2="328.5" y2="1019.4" stroke="#a89888" stroke-width="1" opacity="0.3"/>
<line x1="301.8" y1="1033.8" x2="306.3" y2="1041.6" stroke="#a89888" stroke-width="1" opacity="0.3"/>
<line x1="250.0" y1="1033.8" x2="245.5" y2="1041.6" stroke="#a89888" stroke-width="1" opacity="0.3"/>
<line x1="231.1" y1="1014.9" x2="223.3" y2="1019.4" stroke="#a89888" stroke-width="1" opacity="0.3"/>
<line x1="231.1" y1="963.1" x2="223.3" y2="958.6" stroke="#a89888" stroke-width="1" opacity="0.3"/>
<line x1="250.0" y1="944.2" x2="245.5" y2="936.4" stroke="#a89888" stroke-width="1" opacity="0.3"/>
<line x1="301.8" y1="944.2" x2="306.3" y2="936.4" stroke="#a89888" stroke-width="1" opacity="0.3"/>
<line x1="320.7" y1="963.1" x2="328.5" y2="958.6" stroke="#a89888" stroke-width="1" opacity="0.3"/>
<rect x="35.0" y="815.0" width="62.0" height="40.0" rx="6" fill="white" stroke="#999999" stroke-width="1.0" opacity="0.92"/>
<polygon points="53.6,855.0 61.6,855.0 50.6,863.0" fill="white" stroke="#999999" stroke-width="0.8"/>
<line x1="53.1" y1="855.0" x2="62.1" y2="855.0" stroke="white" stroke-width="1.5"/>
<text x="41.0" y="832.0" font-size="11.0" fill="#999999" font-weight="700">BILLY</text>
<text x="41.0" y="846.0" font-size="11.0" fill="#333333">A fairy.</text>
<rect x="377.8" y="865.0" width="139.1" height="40.0" rx="6" fill="white" stroke="#c49a6c" stroke-width="1.0" opacity="0.92"/>
<polygon points="419.5,905.0 427.5,905.0 416.5,913.0" fill="white" stroke="#c49a6c" stroke-width="0.8"/>
<line x1="419.0" y1="905.0" x2="428.0" y2="905.0" stroke="white" stroke-width="1.5"/>
<text x="383.8" y="882.0" font-size="11.0" fill="#c49a6c" font-weight="700">THEODORE</text>
<text x="383.8" y="896.0" font-size="11.0" fill="#333333">I know how it sounds.</text>
<rect x="35.0" y="915.0" width="157.2" height="40.0" rx="6" fill="white" stroke="#999999" stroke-width="1.0" opacity="0.92"/>
<polygon points="82.2,955.0 90.2,955.0 79.2,963.0" fill="white" stroke="#999999" stroke-width="0.8"/>
<line x1="81.7" y1="955.0" x2="90.7" y2="955.0" stroke="white" stroke-width="1.5"/>
<text x="41.0" y="932.0" font-size="11.0" fill="#999999" font-weight="700">BILLY</text>
<text x="41.0" y="946.0" font-size="11.0" fill="#333333">You've gone barmy, Theo.</text>
<rect x="371.7" y="965.0" width="145.1" height="40.0" rx="6" fill="white" stroke="#999999" stroke-width="1.0" opacity="0.92"/>
<polygon points="415.3,1005.0 423.3,1005.0 412.3,1013.0" fill="white" stroke="#999999" stroke-width="0.8"/>
<line x1="414.8" y1="1005.0" x2="423.8" y2="1005.0" stroke="white" stroke-width="1.5"/>
<text x="377.7" y="982.0" font-size="11.0" fill="#999999" font-weight="700">BILLY</text>
<text x="377.7" y="996.0" font-size="11.0" fill="#333333">...What kind of wings?</text>
<text x="510.8" y="823.0" text-anchor="end" font-size="12" font-weight="bold" fill="#888888" opacity="0.6">4</text>
<text x="516.8" y="1165.0" text-anchor="end" font-size="9" fill="#888888" opacity="0.5">RXN</text>
<rect x="532.8" y="807.0" width="238.2" height="364.0" rx="2" fill="#f5f0e8" stroke="#2a2a2a" stroke-width="1.5"/>
<line x1="538.8" y1="1090.9" x2="765.0" y2="1090.9" stroke="#a89888" stroke-width="1.0" opacity="0.5"/>
<ellipse cx="612.2" cy="1092.9" rx="11.2" ry="2.7" fill="#a89888" opacity="0.2"/>
<line x1="609.5" y1="1075.2" x2="605.5" y2="1090.9" stroke="#999999" stroke-width="2" opacity="0.5"/>
<line x1="614.9" y1="1075.2" x2="619.0" y2="1090.9" stroke="#999999" stroke-width="2" opacity="0.5"/>
<line x1="612.2" y1="1062.1" x2="612.2" y2="1075.2" stroke="#999999" stroke-width="2.5" opacity="0.6"/>
<line x1="598.7" y1="1064.1" x2="625.7" y2="1064.1" stroke="#999999" stroke-width="2" opacity="0.5"/>
<line x1="598.7" y1="1064.1" x2="594.2" y2="1075.6" stroke="#999999" stroke-width="1.5" opacity="0.4"/>
<line x1="625.7" y1="1064.1" x2="630.2" y2="1075.6" stroke="#999999" stroke-width="1.5" opacity="0.4"/>
<circle cx="612.2" cy="1045.9" r="8.1" fill="#999999" opacity="0.6"/>
<ellipse cx="691.6" cy="1092.9" rx="11.2" ry="2.7" fill="#a89888" opacity="0.2"/>
<line x1="688.9" y1="1075.2" x2="684.9" y2="1090.9" stroke="#e8dcc8" stroke-width="2" opacity="0.5"/>
<line x1="694.3" y1="1075.2" x2="698.4" y2="1090.9" stroke="#e8dcc8" stroke-width="2" opacity="0.5"/>
<line x1="691.6" y1="1062.1" x2="691.6" y2="1075.2" stroke="#e8dcc8" stroke-width="2.5" opacity="0.6"/>
<line x1="678.1" y1="1064.1" x2="705.1" y2="1064.1" stroke="#e8dcc8" stroke-width="2" opacity="0.5"/>
<line x1="678.1" y1="1064.1" x2="673.6" y2="1075.6" stroke="#e8dcc8" stroke-width="1.5" opacity="0.4"/>
<line x1="705.1" y1="1064.1" x2="709.6" y2="1075.6" stroke="#e8dcc8" stroke-width="1.5" opacity="0.4"/>
<circle cx="691.6" cy="1045.9" r="8.1" fill="#e8dcc8" opacity="0.6"/>
<rect x="538.8" y="815.0" width="182.5" height="51.0" rx="6" fill="white" stroke="#999999" stroke-width="1.0" opacity="0.92"/>
<polygon points="593.6,866.0 601.6,866.0 590.6,874.0" fill="white" stroke="#999999" stroke-width="0.8"/>
<line x1="593.1" y1="866.0" x2="602.1" y2="866.0" stroke="white" stroke-width="1.5"/>
<text x="544.8" y="831.0" font-size="10.0" fill="#999999" font-weight="700">BILLY</text>
<text x="544.8" y="844.0" font-size="10.0" fill="#333333">Theo says he saw a fairy in his</text>
<text x="544.8" y="857.0" font-size="10.0" fill="#333333">workshop...</text>
<rect x="577.0" y="876.0" width="188.0" height="38.0" rx="6" fill="white" stroke="#e8dcc8" stroke-width="1.0" opacity="0.92"/>
<polygon points="633.4,914.0 641.4,914.0 630.4,922.0" fill="white" stroke="#e8dcc8" stroke-width="0.8"/>
<line x1="632.9" y1="914.0" x2="641.9" y2="914.0" stroke="white" stroke-width="1.5"/>
<text x="583.0" y="892.0" font-size="10.0" fill="#e8dcc8" font-weight="700">CAPTION</text>
<text x="583.0" y="905.0" font-size="10.0" fill="#333333">*&quot;The story had already begun.&quot;*</text>
<text x="759.0" y="823.0" text-anchor="end" font-size="12" font-weight="bold" fill="#888888" opacity="0.6">5</text>
<text x="765.0" y="1165.0" text-anchor="end" font-size="9" fill="#888888" opacity="0.5">WIDE</text>
</svg>