<svg xmlns="http://www.w3.org/2000/svg" viewBox="0 0 800 1200" width="800" height="1200" style="background:#ffffff">
<style>
  text { font-family: "Helvetica Neue", Helvetica, Arial, sans-serif; }
</style>
<text x="400.0" y="22" text-anchor="middle" font-size="16" fill="#888888" font-weight="500">PAGE 9  (5 panels)</text>
<rect x="29.0" y="59.0" width="366.0" height="364.0" rx="2" fill="#f5f0e8" stroke="#2a2a2a" stroke-width="1.5"/>
<ellipse cx="212.0" cy="211.9" rx="114.7" ry="163.8" fill="#2e8b57" opacity="0.18"/>
<path d="M91.6,154.6 Q212.0,23.5 332.4,154.6" fill="none" stroke="#2e8b57" stroke-width="3" opacity="0.35"/>
<line x1="171.9" y1="175.8" x2="206.3" y2="173.8" stroke="#a89888" stroke-width="1.5" opacity="0.45"/>
<line x1="217.7" y1="173.8" x2="252.1" y2="175.8" stroke="#a89888" stroke-width="1.5" opacity="0.45"/>
<ellipse cx="179.9" cy="192.2" rx="13.8" ry="8.2" fill="#a89888" opacity="0.45"/>
<ellipse cx="244.1" cy="192.2" rx="13.8" ry="8.2" fill="#a89888" opacity="0.45"/>
<line x1="212.0" y1="215.2" x2="212.0" y2="241.4" stroke="#a89888" stroke-width="1.2" opacity="0.35"/>
<path d="M205.1,241.4 Q212.0,244.4 218.9,241.4" fill="none" stroke="#a89888" stroke-width="1" opacity="0.3"/>
<line x1="183.3" y1="264.3" x2="240.7" y2="264.3" stroke="#a89888" stroke-width="1.2" opacity="0.35"/>
<rect x="35.0" y="67.0" width="354.0" height="54.0" rx="6" fill="white" stroke="#2e8b57" stroke-width="1.0" opacity="0.92"/>
<polygon points="141.2,121.0 149.2,121.0 138.2,129.0" fill="white" stroke="#2e8b57" stroke-width="0.8"/>
<line x1="140.7" y1="121.0" x2="149.7" y2="121.0" stroke="white" stroke-width="1.5"/>
<text x="41.0" y="84.0" font-size="11.0" fill="#2e8b57" font-weight="700">JINK</text>
<text x="41.0" y="98.0" font-size="11.0" fill="#333333">So what do you do here? All these gears and springs — you</text>
<text x="41.0" y="112.0" font-size="11.0" fill="#333333">make clocks?</text>
<text x="383.0" y="75.0" text-anchor="end" font-size="12" font-weight="bold" fill="#888888" opacity="0.6">1</text>
<text x="389.0" y="417.0" text-anchor="end" font-size="9" fill="#888888" opacity="0.5">CU</text>
<rect x="405.0" y="59.0" width="366.0" height="364.0" rx="2" fill="#f5f0e8" stroke="#2a2a2a" stroke-width="1.5"/>
<ellipse cx="588.0" cy="211.9" rx="114.7" ry="163.8" fill="#c49a6c" opacity="0.18"/>
<path d="M467.6,154.6 Q588.0,23.5 708.4,154.6" fill="none" stroke="#c49a6c" stroke-width="3" opacity="0.35"/>
<line x1="547.9" y1="175.8" x2="582.3" y2="173.8" stroke="#a89888" stroke-width="1.5" opacity="0.45"/>
<line x1="593.7" y1="173.8" x2="628.1" y2="175.8" stroke="#a89888" stroke-width="1.5" opacity="0.45"/>
<ellipse cx="555.9" cy="192.2" rx="13.8" ry="8.2" fill="#a89888" opacity="0.45"/>
<ellipse cx="620.1" cy="192.2" rx="13.8" ry="8.2" fill="#a89888" opacity="0.45"/>
<line x1="588.0" y1="215.2" x2="588.0" y2="241.4" stroke="#a89888" stroke-width="1.2" opacity="0.35"/>
<path d="M581.1,241.4 Q588.0,244.4 594.9,241.4" fill="none" stroke="#a89888" stroke-width="1" opacity="0.3"/>
<line x1="559.3" y1="264.3" x2="616.7" y2="264.3" stroke="#a89888" stroke-width="1.2" opacity="0.35"/>
<rect x="411.0" y="67.0" width="354.0" height="54.0" rx="6" fill="white" stroke="#c49a6c" stroke-width="1.0" opacity="0.92"/>
<polygon points="517.2,121.0 525.2,121.0 514.2,129.0" fill="white" stroke="#c49a6c" stroke-width="0.8"/>
<line x1="516.7" y1="121.0" x2="525.7" y2="121.0" stroke="white" stroke-width="1.5"/>
<text x="417.0" y="84.0" font-size="11.0" fill="#c49a6c" font-weight="700">THEODORE</text>
<text x="417.0" y="98.0" font-size="11.0" fill="#333333">I'm apprenticed to a clockmaker, yeah. I mend things. Fix</text>
<text x="417.0" y="112.0" font-size="11.0" fill="#333333">what's broke.</text>
<rect x="468.6" y="131.0" width="296.4" height="40.0" rx="6" fill="white" stroke="#c49a6c" stroke-width="1.0" opacity="0.92"/>
<polygon points="557.6,171.0 565.6,171.0 554.6,179.0" fill="white" stroke="#c49a6c" stroke-width="0.8"/>
<line x1="557.1" y1="171.0" x2="566.1" y2="171.0" stroke="white" stroke-width="1.5"/>
<text x="474.6" y="148.0" font-size="11.0" fill="#c49a6c" font-weight="700">THEODORE</text>
<text x="474.6" y="162.0" font-size="11.0" fill="#333333">I ain't very good at it yet. Mr. Cribbage says.</text>
<text x="759.0" y="75.0" text-anchor="end" font-size="12" font-weight="bold" fill="#888888" opacity="0.6">2</text>
<text x="765.0" y="417.0" text-anchor="end" font-size="9" fill="#888888" opacity="0.5">CU</text>
<rect x="29.0" y="433.0" width="742.0" height="364.0" rx="2" fill="#f5f0e8" stroke="#2a2a2a" stroke-width="1.5"/>
<path d="M341.4,695.1 L346.8,648.6 Q352.1,644.6 383.8,644.6 L416.2,644.6 Q447.9,644.6 453.2,648.6 L458.6,695.1 Z" fill="#2e8b57" opacity="0.35"/>
<line x1="346.8" y1="670.5" x2="453.2" y2="670.5" stroke="#2e8b57" stroke-width="1" opacity="0.3"/>
<line x1="346.8" y1="648.6" x2="325.5" y2="689.5" stroke="#2e8b57" stroke-width="2" opacity="0.3"/>
<line x1="325.5" y1="689.5" x2="341.4" y2="714.1" stroke="#2e8b57" stroke-width="2" opacity="0.3"/>
<line x1="453.2" y1="648.6" x2="474.5" y2="689.5" stroke="#2e8b57" stroke-width="2" opacity="0.3"/>
<line x1="474.5" y1="689.5" x2="458.6" y2="714.1" stroke="#2e8b57" stroke-width="2" opacity="0.3"/>
<line x1="400.0" y1="571.7" x2="400.0" y2="644.6" stroke="#2e8b57" stroke-width="3" opacity="0.35"/>
<circle cx="400.0" cy="531.3" r="40.5" fill="#2e8b57" opacity="0.4"/>
<rect x="35.0" y="441.0" width="550.5" height="40.0" rx="6" fill="white" stroke="#2e8b57" stroke-width="1.0" opacity="0.92"/>
<polygon points="200.1,481.0 208.1,481.0 197.1,489.0" fill="white" stroke="#2e8b57" stroke-width="0.8"/>
<line x1="199.6" y1="481.0" x2="208.6" y2="481.0" stroke="white" stroke-width="1.5"/>
<text x="41.0" y="458.0" font-size="11.0" fill="#2e8b57" font-weight="700">JINK</text>
<text x="41.0" y="472.0" font-size="11.0" fill="#333333">Not very good at it? I've been watching you work. You're the best thing in this building.</text>
<rect x="626.0" y="491.0" width="139.1" height="40.0" rx="6" fill="white" stroke="#c49a6c" stroke-width="1.0" opacity="0.92"/>
<polygon points="667.7,531.0 675.7,531.0 664.7,539.0" fill="white" stroke="#c49a6c" stroke-width="0.8"/>
<line x1="667.2" y1="531.0" x2="676.2" y2="531.0" stroke="white" stroke-width="1.5"/>
<text x="632.0" y="508.0" font-size="11.0" fill="#c49a6c" font-weight="700">THEODORE</text>
<text x="632.0" y="522.0" font-size="11.0" fill="#333333">You've been watching?</text>
<rect x="35.0" y="541.0" width="344.8" height="40.0" rx="6" fill="white" stroke="#2e8b57" stroke-width="1.0" opacity="0.92"/>
<polygon points="138.4,581.0 146.4,581.0 135.4,589.0" fill="white" stroke="#2e8b57" stroke-width="0.8"/>
<line x1="137.9" y1="581.0" x2="146.9" y2="581.0" stroke="white" stroke-width="1.5"/>
<text x="41.0" y="558.0" font-size="11.0" fill="#2e8b57" font-weight="700">JINK</text>
<text x="41.0" y="572.0" font-size="11.0" fill="#333333">Couple days now. You're interesting. The old man isn't.</text>
<text x="759.0" y="449.0" text-anchor="end" font-size="12" font-weight="bold" fill="#888888" opacity="0.6">3</text>
<text x="765.0" y="791.0" text-anchor="end" font-size="9" fill="#888888" opacity="0.5">MW</text>
<rect x="29.0" y="807.0" width="493.8" height="364.0" rx="2" fill="#f5f0e8" stroke="#2a2a2a" stroke-width="1.5"/>
<path d="M217.4,1069.1 L222.7,1022.6 Q228.0,1018.6 259.7,1018.6 L292.1,1018.6 Q323.8,1018.6 329.2,1022.6 L334.5,1069.1 Z" fill="#c49a6c" opacity="0.35"/>
<line x1="222.7" y1="1044.5" x2="329.2" y2="1044.5" stroke="#c49a6c" stroke-width="1" opacity="0.3"/>
<line x1="222.7" y1="1022.6" x2="201.4" y2="1063.5" stroke="#c49a6c" stroke-width="2" opacity="0.3"/>
<line x1="201.4" y1="1063.5" x2="217.4" y2="1088.1" stroke="#c49a6c" stroke-width="2" opacity="0.3"/>
<line x1="329.2" y1="1022.6" x2="350.4" y2="1063.5" stroke="#c49a6c" stroke-width="2" opacity="0.3"/>
<line x1="350.4" y1="1063.5" x2="334.5" y2="1088.1" stroke="#c49a6c" stroke-width="2" opacity="0.3"/>
<line x1="275.9" y1="945.7" x2="275.9" y2="1018.6" stroke="#c49a6c" stroke-width="3" opacity="0.35"/>
<circle cx="275.9" cy="905.3" r="40.5" fill="#c49a6c" opacity="0.4"/>
<rect x="35.0" y="815.0" width="481.8" height="54.0" rx="6" fill="white" stroke="#c49a6c" stroke-width="1.0" opacity="0.92"/>
<polygon points="179.6,869.0 187.6,869.0 176.6,877.0" fill="white" stroke="#c49a6c" stroke-width="0.8"/>
<line x1="179.1" y1="869.0" x2="188.1" y2="869.0" stroke="white" stroke-width="1.5"/>
<text x="41.0" y="832.0" font-size="11.0" fill="#c49a6c" font-weight="700">THEODORE</text>
<text x="41.0" y="846.0" font-size="11.0" fill="#333333">Your suit... it's like the shard. The same light. You fell from the sky, didn't</text>
<text x="41.0" y="860.0" font-size="11.0" fill="#333333">you? Three nights ago. The falling star.</text>
<text x="510.8" y="823.0" text-anchor="end" font-size="12" font-weight="bold" fill="#888888" opacity="0.6">4</text>
<text x="516.8" y="1165.0" text-anchor="end" font-size="9" fill="#888888" opacity="0.5">MED</text>
<rect x="532.8" y="807.0" width="238.2" height="364.0" rx="2" fill="#f5f0e8" stroke="#2a2a2a" stroke-width="1.5"/>
<ellipse cx="651.9" cy="959.9" rx="95.3" ry="163.8" fill="#2e8b57" opacity="0.18"/>
<path d="M551.9,902.5 Q651.9,771.5 751.9,902.5" fill="none" stroke="#2e8b57" stroke-width="3" opacity="0.35"/>
<line x1="618.6" y1="923.8" x2="647.2" y2="921.8" stroke="#a89888" stroke-width="1.5" opacity="0.45"/>
<line x1="656.7" y1="921.8" x2="685.3" y2="923.8" stroke="#a89888" stroke-width="1.5" opacity="0.45"/>
<ellipse cx="625.2" cy="940.2" rx="11.4" ry="8.2" fill="#a89888" opacity="0.45"/>
<ellipse cx="678.6" cy="940.2" rx="11.4" ry="8.2" fill="#a89888" opacity="0.45"/>
<line x1="651.9" y1="963.2" x2="651.9" y2="989.4" stroke="#a89888" stroke-width="1.2" opacity="0.35"/>
<path d="M646.2,989.4 Q651.9,992.4 657.6,989.4" fill="none" stroke="#a89888" stroke-width="1" opacity="0.3"/>
<line x1="628.1" y1="1012.3" x2="675.7" y2="1012.3" stroke="#a89888" stroke-width="1.2" opacity="0.35"/>
<rect x="538.8" y="815.0" width="89.0" height="38.0" rx="6" fill="white" stroke="#2e8b57" stroke-width="1.0" opacity="0.92"/>
<polygon points="565.5,853.0 573.5,853.0 562.5,861.0" fill="white" stroke="#2e8b57" stroke-width="0.8"/>
<line x1="565.0" y1="853.0" x2="574.0" y2="853.0" stroke="white" stroke-width="1.5"/>
<text x="544.8" y="831.0" font-size="10.0" fill="#2e8b57" font-weight="700">JINK</text>
<text x="544.8" y="844.0" font-size="10.0" fill="#333333">Yeah. We fell.</text>
<text x="759.0" y="823.0" text-anchor="end" font-size="12" font-weight="bold" fill="#888888" opacity="0.6">5</text>
<text x="765.0" y="1165.0" text-anchor="end" font-size="9" fill="#888888" opacity="0.5">CU</text>
</svg>