<svg xmlns="http://www.w3.org/2000/svg" viewBox="0 0 800 1200" width="800" height="1200" style="background:#ffffff">
<style>
  text { font-family: "Helvetica Neue", Helvetica, Arial, sans-serif; }
</style>
<text x="400.0" y="22" text-anchor="middle" font-size="16" fill="#888888" font-weight="500">PAGE 17  (4 panels)</text>
<rect x="29.0" y="59.0" width="742.0" height="364.0" rx="2" fill="#f5f0e8" stroke="#2a2a2a" stroke-width="1.5"/>
<path d="M341.4,321.1 L346.8,274.6 Q352.1,270.6 383.8,270.6 L416.2,270.6 Q447.9,270.6 453.2,274.6 L458.6,321.1 Z" fill="#2e8b57" opacity="0.35"/>
<line x1="346.8" y1="296.5" x2="453.2" y2="296.5" stroke="#2e8b57" stroke-width="1" opacity="0.3"/>
<line x1="346.8" y1="274.6" x2="325.5" y2="315.5" stroke="#2e8b57" stroke-width="2" opacity="0.3"/>
<line x1="325.5" y1="315.5" x2="341.4" y2="340.1" stroke="#2e8b57" stroke-width="2" opacity="0.3"/>
<line x1="453.2" y1="274.6" x2="474.5" y2="315.5" stroke="#2e8b57" stroke-width="2" opacity="0.3"/>
<line x1="474.5" y1="315.5" x2="458.6" y2="340.1" stroke="#2e8b57" stroke-width="2" opacity="0.3"/>
<line x1="400.0" y1="197.7" x2="400.0" y2="270.6" stroke="#2e8b57" stroke-width="3" opacity="0.35"/>
<circle cx="400.0" cy="157.3" r="40.5" fill="#2e8b57" opacity="0.4"/>
<rect x="35.0" y="67.0" width="84.6" height="40.0" rx="6" fill="white" stroke="#2e8b57" stroke-width="1.0" opacity="0.92"/>
<polygon points="60.4,107.0 68.4,107.0 57.4,115.0" fill="white" stroke="#2e8b57" stroke-width="0.8"/>
<line x1="59.9" y1="107.0" x2="68.9" y2="107.0" stroke="white" stroke-width="1.5"/>
<text x="41.0" y="84.0" font-size="11.0" fill="#2e8b57" font-weight="700">JINK</text>
<text x="41.0" y="98.0" font-size="11.0" fill="#333333">Hold steady.</text>
<text x="759.0" y="75.0" text-anchor="end" font-size="12" font-weight="bold" fill="#888888" opacity="0.6">1</text>
<text x="765.0" y="417.0" text-anchor="end" font-size="9" fill="#888888" opacity="0.5">MW</text>
<rect x="29.0" y="433.0" width="366.0" height="364.0" rx="2" fill="#f5f0e8" stroke="#2a2a2a" stroke-width="1.5"/>
<ellipse cx="212.0" cy="585.9" rx="114.7" ry="163.8" fill="#999999" opacity="0.18"/>
<path d="M91.6,528.5 Q212.0,397.5 332.4,528.5" fill="none" stroke="#999999" stroke-width="3" opacity="0.35"/>
<line x1="171.9" y1="549.8" x2="206.3" y2="547.8" stroke="#a89888" stroke-width="1.5" opacity="0.45"/>
<line x1="217.7" y1="547.8" x2="252.1" y2="549.8" stroke="#a89888" stroke-width="1.5" opacity="0.45"/>
<ellipse cx="179.9" cy="566.2" rx="13.8" ry="8.2" fill="#a89888" opacity="0.45"/>
<ellipse cx="244.1" cy="566.2" rx="13.8" ry="8.2" fill="#a89888" opacity="0.45"/>
<line x1="212.0" y1="589.2" x2="212.0" y2="615.4" stroke="#a89888" stroke-width="1.2" opacity="0.35"/>
<path d="M205.1,615.4 Q212.0,618.4 218.9,615.4" fill="none" stroke="#a89888" stroke-width="1" opacity="0.3"/>
<line x1="183.3" y1="638.3" x2="240.7" y2="638.3" stroke="#a89888" stroke-width="1.2" opacity="0.35"/>
<rect x="35.0" y="441.0" width="314.5" height="54.0" rx="6" fill="white" stroke="#999999" stroke-width="1.0" opacity="0.92"/>
<polygon points="129.3,495.0 137.3,495.0 126.3,503.0" fill="white" stroke="#999999" stroke-width="0.8"/>
<line x1="128.8" y1="495.0" x2="137.8" y2="495.0" stroke="white" stroke-width="1.5"/>
<text x="41.0" y="458.0" font-size="11.0" fill="#999999" font-weight="700">SFX</text>
<text x="41.0" y="472.0" font-size="11.0" fill="#333333">**tik-tik-tik-tik** (deployment mechanism, precise</text>
<text x="41.0" y="486.0" font-size="11.0" fill="#333333">clockwork-like sounds)</text>
<text x="383.0" y="449.0" text-anchor="end" font-size="12" font-weight="bold" fill="#888888" opacity="0.6">2</text>
<text x="389.0" y="791.0" text-anchor="end" font-size="9" fill="#888888" opacity="0.5">ECU</text>
<rect x="405.0" y="433.0" width="366.0" height="364.0" rx="2" fill="#f5f0e8" stroke="#2a2a2a" stroke-width="1.5"/>
<circle cx="588.0" cy="615.0" r="45.0" fill="#c0b8a8" opacity="0.22"/>
<line x1="563.2" y1="603.8" x2="581.2" y2="596.1" stroke="#a89888" stroke-width="1.5" opacity="0.5"/>
<line x1="594.8" y1="596.1" x2="612.8" y2="603.8" stroke="#a89888" stroke-width="1.5" opacity="0.5"/>
<ellipse cx="574.5" cy="610.5" rx="4.5" ry="2.7" fill="#a89888" opacity="0.5"/>
<ellipse cx="601.5" cy="610.5" rx="4.5" ry="2.7" fill="#a89888" opacity="0.5"/>
<line x1="588.0" y1="615.9" x2="588.0" y2="624.0" stroke="#a89888" stroke-width="1" opacity="0.35"/>
<ellipse cx="588.0" cy="632.1" rx="6.8" ry="3.6" fill="#a89888" opacity="0.25"/>
<line x1="632.8" y1="640.9" x2="640.6" y2="645.4" stroke="#a89888" stroke-width="1" opacity="0.3"/>
<line x1="613.9" y1="659.8" x2="618.4" y2="667.6" stroke="#a89888" stroke-width="1" opacity="0.3"/>
<line x1="562.1" y1="659.8" x2="557.6" y2="667.6" stroke="#a89888" stroke-width="1" opacity="0.3"/>
<line x1="543.2" y1="640.9" x2="535.4" y2="645.4" stroke="#a89888" stroke-width="1" opacity="0.3"/>
<line x1="543.2" y1="589.1" x2="535.4" y2="584.6" stroke="#a89888" stroke-width="1" opacity="0.3"/>
<line x1="562.1" y1="570.2" x2="557.6" y2="562.4" stroke="#a89888" stroke-width="1" opacity="0.3"/>
<line x1="613.9" y1="570.2" x2="618.4" y2="562.4" stroke="#a89888" stroke-width="1" opacity="0.3"/>
<line x1="632.8" y1="589.1" x2="640.6" y2="584.6" stroke="#a89888" stroke-width="1" opacity="0.3"/>
<text x="759.0" y="449.0" text-anchor="end" font-size="12" font-weight="bold" fill="#888888" opacity="0.6">3</text>
<text x="765.0" y="791.0" text-anchor="end" font-size="9" fill="#888888" opacity="0.5">RXN</text>
<rect x="29.0" y="807.0" width="742.0" height="364.0" rx="2" fill="#f5f0e8" stroke="#2a2a2a" stroke-width="1.5"/>
<line x1="35.0" y1="1090.9" x2="765.0" y2="1090.9" stroke="#a89888" stroke-width="1.0" opacity="0.5"/>
<ellipse cx="400.0" cy="1092.9" rx="11.2" ry="2.7" fill="#a89888" opacity="0.2"/>
<line x1="397.3" y1="1075.2" x2="393.2" y2="1090.9" stroke="#2e8b57" stroke-width="2" opacity="0.5"/>
<line x1="402.7" y1="1075.2" x2="406.8" y2="1090.9" stroke="#2e8b57" stroke-width="2" opacity="0.5"/>
<line x1="400.0" y1="1062.1" x2="400.0" y2="1075.2" stroke="#2e8b57" stroke-width="2.5" opacity="0.6"/>
<line x1="386.5" y1="1064.1" x2="413.5" y2="1064.1" stroke="#2e8b57" stroke-width="2" opacity="0.5"/>
<line x1="386.5" y1="1064.1" x2="382.0" y2="1075.6" stroke="#2e8b57" stroke-width="1.5" opacity="0.4"/>
<line x1="413.5" y1="1064.1" x2="418.0" y2="1075.6" stroke="#2e8b57" stroke-width="1.5" opacity="0.4"/>
<circle cx="400.0" cy="1045.9" r="8.1" fill="#2e8b57" opacity="0.6"/>
<rect x="35.0" y="815.0" width="151.2" height="40.0" rx="6" fill="white" stroke="#2e8b57" stroke-width="1.0" opacity="0.92"/>
<polygon points="80.3,855.0 88.3,855.0 77.3,863.0" fill="white" stroke="#2e8b57" stroke-width="0.8"/>
<line x1="79.8" y1="855.0" x2="88.8" y2="855.0" stroke="white" stroke-width="1.5"/>
<text x="41.0" y="832.0" font-size="11.0" fill="#2e8b57" font-weight="700">JINK</text>
<text x="41.0" y="846.0" font-size="11.0" fill="#333333">So... yeah. We can fly.</text>
<text x="759.0" y="823.0" text-anchor="end" font-size="12" font-weight="bold" fill="#888888" opacity="0.6">4</text>
<text x="765.0" y="1165.0" text-anchor="end" font-size="9" fill="#888888" opacity="0.5">WIDE</text>
</svg>