<svg xmlns="http://www.w3.org/2000/svg" viewBox="0 0 800 1200" width="800" height="1200" style="background:#ffffff">
<style>
  text { font-family: "Helvetica Neue", Helvetica, Arial, sans-serif; }
</style>
<text x="400.0" y="22" text-anchor="middle" font-size="16" fill="#888888" font-weight="500">PAGE 13  (4 panels)</text>
<rect x="29.0" y="59.0" width="493.8" height="364.0" rx="2" fill="#f5f0e8" stroke="#2a2a2a" stroke-width="1.5"/>
<path d="M174.0,332.0 Q174.0,281.0 250.4,274.7 L301.4,274.7 Q377.8,281.0 377.8,332.0 L377.8,379.3 L174.0,379.3 Z" fill="#c49a6c" opacity="0.25"/>
<path d="M253.6,274.7 L275.9,306.5 L298.2,274.7" fill="none" stroke="#c49a6c" stroke-width="1" opacity="0.3"/>
<circle cx="275.9" cy="204.6" r="63.7" fill="#c49a6c" opacity="0.35"/>
<path d="M212.2,217.3 Q221.8,274.7 275.9,277.9 Q330.1,274.7 339.6,217.3" fill="none" stroke="#c49a6c" stroke-width="1.2" opacity="0.3"/>
<path d="M209.0,198.2 Q275.9,121.8 342.8,198.2" fill="none" stroke="#c49a6c" stroke-width="2" opacity="0.4"/>
<ellipse cx="210.2" cy="207.8" rx="2.5" ry="4" fill="#c49a6c" opacity="0.25"/>
<ellipse cx="341.6" cy="207.8" rx="2.5" ry="4" fill="#c49a6c" opacity="0.25"/>
<rect x="35.0" y="67.0" width="139.1" height="40.0" rx="6" fill="white" stroke="#c49a6c" stroke-width="1.0" opacity="0.92"/>
<polygon points="76.7,107.0 84.7,107.0 73.7,115.0" fill="white" stroke="#c49a6c" stroke-width="0.8"/>
<line x1="76.2" y1="107.0" x2="85.2" y2="107.0" stroke="white" stroke-width="1.5"/>
<text x="41.0" y="84.0" font-size="11.0" fill="#c49a6c" font-weight="700">THEODORE</text>
<text x="41.0" y="98.0" font-size="11.0" fill="#333333">What... what are you?</text>
<text x="510.8" y="75.0" text-anchor="end" font-size="12" font-weight="bold" fill="#888888" opacity="0.6">1</text>
<text x="516.8" y="417.0" text-anchor="end" font-size="9" fill="#888888" opacity="0.5">MCU</text>
<rect x="532.8" y="59.0" width="238.2" height="364.0" rx="2" fill="#f5f0e8" stroke="#2a2a2a" stroke-width="1.5"/>
<path d="M606.1,321.1 L610.2,250.0 Q614.4,246.0 639.2,246.0 L664.6,246.0 Q689.4,246.0 693.6,250.0 L697.8,321.1 Z" fill="#2e8b57" opacity="0.35"/>
<line x1="610.2" y1="296.5" x2="693.6" y2="296.5" stroke="#2e8b57" stroke-width="1" opacity="0.3"/>
<line x1="610.2" y1="250.0" x2="593.6" y2="290.9" stroke="#2e8b57" stroke-width="2" opacity="0.3"/>
<line x1="593.6" y1="290.9" x2="606.1" y2="315.5" stroke="#2e8b57" stroke-width="2" opacity="0.3"/>
<line x1="693.6" y1="250.0" x2="710.3" y2="290.9" stroke="#2e8b57" stroke-width="2" opacity="0.3"/>
<line x1="710.3" y1="290.9" x2="697.8" y2="315.5" stroke="#2e8b57" stroke-width="2" opacity="0.3"/>
<line x1="651.9" y1="189.0" x2="651.9" y2="246.0" stroke="#2e8b57" stroke-width="3" opacity="0.35"/>
<circle cx="651.9" cy="157.3" r="31.7" fill="#2e8b57" opacity="0.4"/>
<rect x="538.8" y="67.0" width="62.0" height="38.0" rx="6" fill="white" stroke="#2e8b57" stroke-width="1.0" opacity="0.92"/>
<polygon points="557.4,105.0 565.4,105.0 554.4,113.0" fill="white" stroke="#2e8b57" stroke-width="0.8"/>
<line x1="556.9" y1="105.0" x2="565.9" y2="105.0" stroke="white" stroke-width="1.5"/>
<text x="544.8" y="83.0" font-size="10.0" fill="#2e8b57" font-weight="700">JINK</text>
<text x="544.8" y="96.0" font-size="10.0" fill="#333333">Soldier.</text>
<text x="759.0" y="75.0" text-anchor="end" font-size="12" font-weight="bold" fill="#888888" opacity="0.6">2</text>
<text x="765.0" y="417.0" text-anchor="end" font-size="9" fill="#888888" opacity="0.5">MED</text>
<rect x="29.0" y="433.0" width="742.0" height="364.0" rx="2" fill="#f5f0e8" stroke="#2a2a2a" stroke-width="1.5"/>
<circle cx="400.0" cy="615.0" r="45.0" fill="#c49a6c" opacity="0.22"/>
<line x1="375.2" y1="603.8" x2="393.2" y2="596.1" stroke="#a89888" stroke-width="1.5" opacity="0.5"/>
<line x1="406.8" y1="596.1" x2="424.8" y2="603.8" stroke="#a89888" stroke-width="1.5" opacity="0.5"/>
<ellipse cx="386.5" cy="610.5" rx="4.5" ry="2.7" fill="#a89888" opacity="0.5"/>
<ellipse cx="413.5" cy="610.5" rx="4.5" ry="2.7" fill="#a89888" opacity="0.5"/>
<line x1="400.0" y1="615.9" x2="400.0" y2="624.0" stroke="#a89888" stroke-width="1" opacity="0.35"/>
<ellipse cx="400.0" cy="632.1" rx="6.8" ry="3.6" fill="#a89888" opacity="0.25"/>
<line x1="444.8" y1="640.9" x2="452.6" y2="645.4" stroke="#a89888" stroke-width="1" opacity="0.3"/>
<line x1="425.9" y1="659.8" x2="430.4" y2="667.6" stroke="#a89888" stroke-width="1" opacity="0.3"/>
<line x1="374.1" y1="659.8" x2="369.6" y2="667.6" stroke="#a89888" stroke-width="1" opacity="0.3"/>
<line x1="355.2" y1="640.9" x2="347.4" y2="645.4" stroke="#a89888" stroke-width="1" opacity="0.3"/>
<line x1="355.2" y1="589.1" x2="347.4" y2="584.6" stroke="#a89888" stroke-width="1" opacity="0.3"/>
<line x1="374.1" y1="570.2" x2="369.6" y2="562.4" stroke="#a89888" stroke-width="1" opacity="0.3"/>
<line x1="425.9" y1="570.2" x2="430.4" y2="562.4" stroke="#a89888" stroke-width="1" opacity="0.3"/>
<line x1="444.8" y1="589.1" x2="452.6" y2="584.6" stroke="#a89888" stroke-width="1" opacity="0.3"/>
<rect x="35.0" y="441.0" width="72.5" height="40.0" rx="6" fill="white" stroke="#c49a6c" stroke-width="1.0" opacity="0.92"/>
<polygon points="56.8,481.0 64.8,481.0 53.8,489.0" fill="white" stroke="#c49a6c" stroke-width="0.8"/>
<line x1="56.2" y1="481.0" x2="65.2" y2="481.0" stroke="white" stroke-width="1.5"/>
<text x="41.0" y="458.0" font-size="11.0" fill="#c49a6c" font-weight="700">THEODORE</text>
<text x="41.0" y="472.0" font-size="11.0" fill="#333333">A soldier.</text>
<rect x="559.4" y="491.0" width="205.6" height="40.0" rx="6" fill="white" stroke="#c49a6c" stroke-width="1.0" opacity="0.92"/>
<polygon points="621.1,531.0 629.1,531.0 618.1,539.0" fill="white" stroke="#c49a6c" stroke-width="0.8"/>
<line x1="620.6" y1="531.0" x2="629.6" y2="531.0" stroke="white" stroke-width="1.5"/>
<text x="565.4" y="508.0" font-size="11.0" fill="#c49a6c" font-weight="700">THEODORE</text>
<text x="565.4" y="522.0" font-size="11.0" fill="#333333">You're very small for a soldier.</text>
<rect x="35.0" y="541.0" width="193.5" height="40.0" rx="6" fill="white" stroke="#c49a6c" stroke-width="1.0" opacity="0.92"/>
<polygon points="93.1,581.0 101.1,581.0 90.1,589.0" fill="white" stroke="#c49a6c" stroke-width="0.8"/>
<line x1="92.6" y1="581.0" x2="101.6" y2="581.0" stroke="white" stroke-width="1.5"/>
<text x="41.0" y="558.0" font-size="11.0" fill="#c49a6c" font-weight="700">THEODORE</text>
<text x="41.0" y="572.0" font-size="11.0" fill="#333333">You look like... like a fairy.</text>
<text x="759.0" y="449.0" text-anchor="end" font-size="12" font-weight="bold" fill="#888888" opacity="0.6">3</text>
<text x="765.0" y="791.0" text-anchor="end" font-size="9" fill="#888888" opacity="0.5">RXN</text>
<rect x="29.0" y="807.0" width="742.0" height="364.0" rx="2" fill="#f5f0e8" stroke="#2a2a2a" stroke-width="1.5"/>
<path d="M341.4,1069.1 L346.8,1022.6 Q352.1,1018.6 383.8,1018.6 L416.2,1018.6 Q447.9,1018.6 453.2,1022.6 L458.6,1069.1 Z" fill="#2e8b57" opacity="0.35"/>
<line x1="346.8" y1="1044.5" x2="453.2" y2="1044.5" stroke="#2e8b57" stroke-width="1" opacity="0.3"/>
<line x1="346.8" y1="1022.6" x2="325.5" y2="1063.5" stroke="#2e8b57" stroke-width="2" opacity="0.3"/>
<line x1="325.5" y1="1063.5" x2="341.4" y2="1088.1" stroke="#2e8b57" stroke-width="2" opacity="0.3"/>
<line x1="453.2" y1="1022.6" x2="474.5" y2="1063.5" stroke="#2e8b57" stroke-width="2" opacity="0.3"/>
<line x1="474.5" y1="1063.5" x2="458.6" y2="1088.1" stroke="#2e8b57" stroke-width="2" opacity="0.3"/>
<line x1="400.0" y1="945.7" x2="400.0" y2="1018.6" stroke="#2e8b57" stroke-width="3" opacity="0.35"/>
<circle cx="400.0" cy="905.3" r="40.5" fill="#2e8b57" opacity="0.4"/>
<rect x="35.0" y="815.0" width="145.1" height="40.0" rx="6" fill="white" stroke="#2e8b57" stroke-width="1.0" opacity="0.92"/>
<polygon points="78.5,855.0 86.5,855.0 75.5,863.0" fill="white" stroke="#2e8b57" stroke-width="0.8"/>
<line x1="78.0" y1="855.0" x2="87.0" y2="855.0" stroke="white" stroke-width="1.5"/>
<text x="41.0" y="832.0" font-size="11.0" fill="#2e8b57" font-weight="700">JINK</text>
<text x="41.0" y="846.0" font-size="11.0" fill="#333333">...Yeah. I guess I do.</text>
<text x="759.0" y="823.0" text-anchor="end" font-size="12" font-weight="bold" fill="#888888" opacity="0.6">4</text>
<text x="765.0" y="1165.0" text-anchor="end" font-size="9" fill="#888888" opacity="0.5">MED</text>
</svg>