<svg xmlns="http://www.w3.org/2000/svg" viewBox="0 0 800 1200" width="800" height="1200" style="background:#ffffff">
<style>
  text { font-family: "Helvetica Neue", Helvetica, Arial, sans-serif; }
</style>
<text x="400.0" y="22" text-anchor="middle" font-size="16" fill="#888888" font-weight="500">PAGE 16  (4 panels)</text>
<rect x="29.0" y="59.0" width="742.0" height="364.0" rx="2" fill="#f5f0e8" stroke="#2a2a2a" stroke-width="1.5"/>
<ellipse cx="400.0" cy="211.9" rx="114.7" ry="163.8" fill="#c49a6c" opacity="0.18"/>
<path d="M279.6,154.6 Q400.0,23.5 520.4,154.6" fill="none" stroke="#c49a6c" stroke-width="3" opacity="0.35"/>
<line x1="359.9" y1="175.8" x2="394.3" y2="173.8" stroke="#a89888" stroke-width="1.5" opacity="0.45"/>
<line x1="405.7" y1="173.8" x2="440.1" y2="175.8" stroke="#a89888" stroke-width="1.5" opacity="0.45"/>
<ellipse cx="367.9" cy="192.2" rx="13.8" ry="8.2" fill="#a89888" opacity="0.45"/>
<ellipse cx="432.1" cy="192.2" rx="13.8" ry="8.2" fill="#a89888" opacity="0.45"/>
<line x1="400.0" y1="215.2" x2="400.0" y2="241.4" stroke="#a89888" stroke-width="1.2" opacity="0.35"/>
<path d="M393.1,241.4 Q400.0,244.4 406.9,241.4" fill="none" stroke="#a89888" stroke-width="1" opacity="0.3"/>
<line x1="371.3" y1="264.3" x2="428.7" y2="264.3" stroke="#a89888" stroke-width="1.2" opacity="0.35"/>
<rect x="35.0" y="67.0" width="145.1" height="40.0" rx="6" fill="white" stroke="#c49a6c" stroke-width="1.0" opacity="0.92"/>
<polygon points="78.5,107.0 86.5,107.0 75.5,115.0" fill="white" stroke="#c49a6c" stroke-width="0.8"/>
<line x1="78.0" y1="107.0" x2="87.0" y2="107.0" stroke="white" stroke-width="1.5"/>
<text x="41.0" y="84.0" font-size="11.0" fill="#c49a6c" font-weight="700">THEODORE</text>
<text x="41.0" y="98.0" font-size="11.0" fill="#333333">I can barely feel you.</text>
<rect x="492.8" y="117.0" width="272.2" height="40.0" rx="6" fill="white" stroke="#2e8b57" stroke-width="1.0" opacity="0.92"/>
<polygon points="574.5,157.0 582.5,157.0 571.5,165.0" fill="white" stroke="#2e8b57" stroke-width="0.8"/>
<line x1="574.0" y1="157.0" x2="583.0" y2="157.0" stroke="white" stroke-width="1.5"/>
<text x="498.8" y="134.0" font-size="11.0" fill="#2e8b57" font-weight="700">JINK</text>
<text x="498.8" y="148.0" font-size="11.0" fill="#333333">We're light. Built for speed, not presence.</text>
<rect x="35.0" y="167.0" width="302.4" height="40.0" rx="6" fill="white" stroke="#c49a6c" stroke-width="1.0" opacity="0.92"/>
<polygon points="125.7,207.0 133.7,207.0 122.7,215.0" fill="white" stroke="#c49a6c" stroke-width="0.8"/>
<line x1="125.2" y1="207.0" x2="134.2" y2="207.0" stroke="white" stroke-width="1.5"/>
<text x="41.0" y="184.0" font-size="11.0" fill="#c49a6c" font-weight="700">THEODORE</text>
<text x="41.0" y="198.0" font-size="11.0" fill="#333333">You've got... quite a lot of presence, actually.</text>
<rect x="662.2" y="217.0" width="102.8" height="40.0" rx="6" fill="white" stroke="#2e8b57" stroke-width="1.0" opacity="0.92"/>
<polygon points="693.1,257.0 701.1,257.0 690.1,265.0" fill="white" stroke="#2e8b57" stroke-width="0.8"/>
<line x1="692.6" y1="257.0" x2="701.6" y2="257.0" stroke="white" stroke-width="1.5"/>
<text x="668.2" y="234.0" font-size="11.0" fill="#2e8b57" font-weight="700">JINK</text>
<text x="668.2" y="248.0" font-size="11.0" fill="#333333">I've been told.</text>
<text x="759.0" y="75.0" text-anchor="end" font-size="12" font-weight="bold" fill="#888888" opacity="0.6">1</text>
<text x="765.0" y="417.0" text-anchor="end" font-size="9" fill="#888888" opacity="0.5">ECU</text>
<rect x="29.0" y="433.0" width="742.0" height="364.0" rx="2" fill="#f5f0e8" stroke="#2a2a2a" stroke-width="1.5"/>
<path d="M341.4,695.1 L346.8,648.6 Q352.1,644.6 383.8,644.6 L416.2,644.6 Q447.9,644.6 453.2,648.6 L458.6,695.1 Z" fill="#c0b8a8" opacity="0.35"/>
<line x1="346.8" y1="670.5" x2="453.2" y2="670.5" stroke="#c0b8a8" stroke-width="1" opacity="0.3"/>
<line x1="346.8" y1="648.6" x2="325.5" y2="689.5" stroke="#c0b8a8" stroke-width="2" opacity="0.3"/>
<line x1="325.5" y1="689.5" x2="341.4" y2="714.1" stroke="#c0b8a8" stroke-width="2" opacity="0.3"/>
<line x1="453.2" y1="648.6" x2="474.5" y2="689.5" stroke="#c0b8a8" stroke-width="2" opacity="0.3"/>
<line x1="474.5" y1="689.5" x2="458.6" y2="714.1" stroke="#c0b8a8" stroke-width="2" opacity="0.3"/>
<line x1="400.0" y1="571.7" x2="400.0" y2="644.6" stroke="#c0b8a8" stroke-width="3" opacity="0.35"/>
<circle cx="400.0" cy="531.3" r="40.5" fill="#c0b8a8" opacity="0.4"/>
<text x="759.0" y="449.0" text-anchor="end" font-size="12" font-weight="bold" fill="#888888" opacity="0.6">2</text>
<text x="765.0" y="791.0" text-anchor="end" font-size="9" fill="#888888" opacity="0.5">MW</text>
<rect x="29.0" y="807.0" width="366.0" height="364.0" rx="2" fill="#f5f0e8" stroke="#2a2a2a" stroke-width="1.5"/>
<ellipse cx="212.0" cy="959.9" rx="114.7" ry="163.8" fill="#2e8b57" opacity="0.18"/>
<path d="M91.6,902.5 Q212.0,771.5 332.4,902.5" fill="none" stroke="#2e8b57" stroke-width="3" opacity="0.35"/>
<line x1="171.9" y1="923.8" x2="206.3" y2="921.8" stroke="#a89888" stroke-width="1.5" opacity="0.45"/>
<line x1="217.7" y1="921.8" x2="252.1" y2="923.8" stroke="#a89888" stroke-width="1.5" opacity="0.45"/>
<ellipse cx="179.9" cy="940.2" rx="13.8" ry="8.2" fill="#a89888" opacity="0.45"/>
<ellipse cx="244.1" cy="940.2" rx="13.8" ry="8.2" fill="#a89888" opacity="0.45"/>
<line x1="212.0" y1="963.2" x2="212.0" y2="989.4" stroke="#a89888" stroke-width="1.2" opacity="0.35"/>
<path d="M205.1,989.4 Q212.0,992.4 218.9,989.4" fill="none" stroke="#a89888" stroke-width="1" opacity="0.3"/>
<line x1="183.3" y1="1012.3" x2="240.7" y2="1012.3" stroke="#a89888" stroke-width="1.2" opacity="0.35"/>
<rect x="35.0" y="815.0" width="169.3" height="40.0" rx="6" fill="white" stroke="#2e8b57" stroke-width="1.0" opacity="0.92"/>
<polygon points="85.8,855.0 93.8,855.0 82.8,863.0" fill="white" stroke="#2e8b57" stroke-width="0.8"/>
<line x1="85.3" y1="855.0" x2="94.3" y2="855.0" stroke="white" stroke-width="1.5"/>
<text x="41.0" y="832.0" font-size="11.0" fill="#2e8b57" font-weight="700">JINK</text>
<text x="41.0" y="846.0" font-size="11.0" fill="#333333">You want to see something?</text>
<text x="383.0" y="823.0" text-anchor="end" font-size="12" font-weight="bold" fill="#888888" opacity="0.6">3</text>
<text x="389.0" y="1165.0" text-anchor="end" font-size="9" fill="#888888" opacity="0.5">CU</text>
<rect x="405.0" y="807.0" width="366.0" height="364.0" rx="2" fill="#f5f0e8" stroke="#2a2a2a" stroke-width="1.5"/>
<circle cx="588.0" cy="989.0" r="45.0" fill="#c49a6c" opacity="0.22"/>
<line x1="563.2" y1="977.8" x2="581.2" y2="970.1" stroke="#a89888" stroke-width="1.5" opacity="0.5"/>
<line x1="594.8" y1="970.1" x2="612.8" y2="977.8" stroke="#a89888" stroke-width="1.5" opacity="0.5"/>
<ellipse cx="574.5" cy="984.5" rx="4.5" ry="2.7" fill="#a89888" opacity="0.5"/>
<ellipse cx="601.5" cy="984.5" rx="4.5" ry="2.7" fill="#a89888" opacity="0.5"/>
<line x1="588.0" y1="989.9" x2="588.0" y2="998.0" stroke="#a89888" stroke-width="1" opacity="0.35"/>
<ellipse cx="588.0" cy="1006.1" rx="6.8" ry="3.6" fill="#a89888" opacity="0.25"/>
<line x1="632.8" y1="1014.9" x2="640.6" y2="1019.4" stroke="#a89888" stroke-width="1" opacity="0.3"/>
<line x1="613.9" y1="1033.8" x2="618.4" y2="1041.6" stroke="#a89888" stroke-width="1" opacity="0.3"/>
<line x1="562.1" y1="1033.8" x2="557.6" y2="1041.6" stroke="#a89888" stroke-width="1" opacity="0.3"/>
<line x1="543.2" y1="1014.9" x2="535.4" y2="1019.4" stroke="#a89888" stroke-width="1" opacity="0.3"/>
<line x1="543.2" y1="963.1" x2="535.4" y2="958.6" stroke="#a89888" stroke-width="1" opacity="0.3"/>
<line x1="562.1" y1="944.2" x2="557.6" y2="936.4" stroke="#a89888" stroke-width="1" opacity="0.3"/>
<line x1="613.9" y1="944.2" x2="618.4" y2="936.4" stroke="#a89888" stroke-width="1" opacity="0.3"/>
<line x1="632.8" y1="963.1" x2="640.6" y2="958.6" stroke="#a89888" stroke-width="1" opacity="0.3"/>
<rect x="411.0" y="815.0" width="62.0" height="40.0" rx="6" fill="white" stroke="#c49a6c" stroke-width="1.0" opacity="0.92"/>
<polygon points="429.6,855.0 437.6,855.0 426.6,863.0" fill="white" stroke="#c49a6c" stroke-width="0.8"/>
<line x1="429.1" y1="855.0" x2="438.1" y2="855.0" stroke="white" stroke-width="1.5"/>
<text x="417.0" y="832.0" font-size="11.0" fill="#c49a6c" font-weight="700">THEODORE</text>
<text x="417.0" y="846.0" font-size="11.0" fill="#333333">Please.</text>
<text x="759.0" y="823.0" text-anchor="end" font-size="12" font-weight="bold" fill="#888888" opacity="0.6">4</text>
<text x="765.0" y="1165.0" text-anchor="end" font-size="9" fill="#888888" opacity="0.5">RXN</text>
</svg>