<svg xmlns="http://www.w3.org/2000/svg" viewBox="0 0 800 1200" width="800" height="1200" style="background:#ffffff">
<style>
  text { font-family: "Helvetica Neue", Helvetica, Arial, sans-serif; }
</style>
<text x="400.0" y="22" text-anchor="middle" font-size="16" fill="#888888" font-weight="500">PAGE 4  (5 panels)</text>
<rect x="29.0" y="59.0" width="742.0" height="364.0" rx="2" fill="#f5f0e8" stroke="#2a2a2a" stroke-width="1.5"/>
<path d="M341.4,321.1 L346.8,274.6 Q352.1,270.6 383.8,270.6 L416.2,270.6 Q447.9,270.6 453.2,274.6 L458.6,321.1 Z" fill="#999999" opacity="0.35"/>
<line x1="346.8" y1="296.5" x2="453.2" y2="296.5" stroke="#999999" stroke-width="1" opacity="0.3"/>
<line x1="346.8" y1="274.6" x2="325.5" y2="315.5" stroke="#999999" stroke-width="2" opacity="0.3"/>
<line x1="325.5" y1="315.5" x2="341.4" y2="340.1" stroke="#999999" stroke-width="2" opacity="0.3"/>
<line x1="453.2" y1="274.6" x2="474.5" y2="315.5" stroke="#999999" stroke-width="2" opacity="0.3"/>
<line x1="474.5" y1="315.5" x2="458.6" y2="340.1" stroke="#999999" stroke-width="2" opacity="0.3"/>
<line x1="400.0" y1="197.7" x2="400.0" y2="270.6" stroke="#999999" stroke-width="3" opacity="0.35"/>
<circle cx="400.0" cy="157.3" r="40.5" fill="#999999" opacity="0.4"/>
<rect x="35.0" y="67.0" width="411.3" height="40.0" rx="6" fill="white" stroke="#999999" stroke-width="1.0" opacity="0.92"/>
<polygon points="158.4,107.0 166.4,107.0 155.4,115.0" fill="white" stroke="#999999" stroke-width="0.8"/>
<line x1="157.9" y1="107.0" x2="166.9" y2="107.0" stroke="white" stroke-width="1.5"/>
<text x="41.0" y="84.0" font-size="11.0" fill="#999999" font-weight="700">CRIBBAGE</text>
<text x="41.0" y="98.0" font-size="11.0" fill="#333333">Mind that spring. If you snap the arbor, it comes from your wages.</text>
<rect x="644.1" y="117.0" width="120.9" height="40.0" rx="6" fill="white" stroke="#c49a6c" stroke-width="1.0" opacity="0.92"/>
<polygon points="680.4,157.0 688.4,157.0 677.4,165.0" fill="white" stroke="#c49a6c" stroke-width="0.8"/>
<line x1="679.9" y1="157.0" x2="688.9" y2="157.0" stroke="white" stroke-width="1.5"/>
<text x="650.1" y="134.0" font-size="11.0" fill="#c49a6c" font-weight="700">THEODORE</text>
<text x="650.1" y="148.0" font-size="11.0" fill="#333333">Yes, Mr. Cribbage.</text>
<text x="759.0" y="75.0" text-anchor="end" font-size="12" font-weight="bold" fill="#888888" opacity="0.6">1</text>
<text x="765.0" y="417.0" text-anchor="end" font-size="9" fill="#888888" opacity="0.5">MW</text>
<rect x="29.0" y="433.0" width="240.7" height="364.0" rx="2" fill="#f5f0e8" stroke="#2a2a2a" stroke-width="1.5"/>
<path d="M80.0,665.2 Q80.0,630.6 132.0,626.3 L166.7,626.3 Q218.6,630.6 218.6,665.2 L218.6,753.3 L80.0,753.3 Z" fill="#999999" opacity="0.25"/>
<path d="M134.2,626.3 L149.3,647.9 L164.5,626.3" fill="none" stroke="#999999" stroke-width="1" opacity="0.3"/>
<circle cx="149.3" cy="578.6" r="43.3" fill="#999999" opacity="0.35"/>
<path d="M106.0,587.3 Q112.5,626.3 149.3,628.4 Q186.2,626.3 192.7,587.3" fill="none" stroke="#999999" stroke-width="1.2" opacity="0.3"/>
<path d="M103.8,574.3 Q149.3,522.3 194.8,574.3" fill="none" stroke="#999999" stroke-width="2" opacity="0.4"/>
<ellipse cx="104.0" cy="580.8" rx="2.5" ry="4" fill="#999999" opacity="0.25"/>
<ellipse cx="194.7" cy="580.8" rx="2.5" ry="4" fill="#999999" opacity="0.25"/>
<rect x="35.0" y="441.0" width="221.0" height="51.0" rx="6" fill="white" stroke="#999999" stroke-width="1.0" opacity="0.92"/>
<polygon points="101.3,492.0 109.3,492.0 98.3,500.0" fill="white" stroke="#999999" stroke-width="0.8"/>
<line x1="100.8" y1="492.0" x2="109.8" y2="492.0" stroke="white" stroke-width="1.5"/>
<text x="41.0" y="457.0" font-size="10.0" fill="#999999" font-weight="700">CRIBBAGE</text>
<text x="41.0" y="470.0" font-size="10.0" fill="#333333">Lock up when you've finished the</text>
<text x="41.0" y="483.0" font-size="10.0" fill="#333333">mainspring. Don't touch the Whitfield.</text>
<text x="257.7" y="449.0" text-anchor="end" font-size="12" font-weight="bold" fill="#888888" opacity="0.6">2</text>
<text x="263.7" y="791.0" text-anchor="end" font-size="9" fill="#888888" opacity="0.5">MCU</text>
<rect x="279.7" y="433.0" width="240.7" height="364.0" rx="2" fill="#f5f0e8" stroke="#2a2a2a" stroke-width="1.5"/>
<path d="M353.7,695.1 L357.9,624.9 Q362.1,620.9 387.2,620.9 L412.8,620.9 Q437.9,620.9 442.1,624.9 L446.3,695.1 Z" fill="#c0b8a8" opacity="0.35"/>
<line x1="357.9" y1="670.5" x2="442.1" y2="670.5" stroke="#c0b8a8" stroke-width="1" opacity="0.3"/>
<line x1="357.9" y1="624.9" x2="341.0" y2="665.9" stroke="#c0b8a8" stroke-width="2" opacity="0.3"/>
<line x1="341.0" y1="665.9" x2="353.7" y2="690.4" stroke="#c0b8a8" stroke-width="2" opacity="0.3"/>
<line x1="442.1" y1="624.9" x2="459.0" y2="665.9" stroke="#c0b8a8" stroke-width="2" opacity="0.3"/>
<line x1="459.0" y1="665.9" x2="446.3" y2="690.4" stroke="#c0b8a8" stroke-width="2" opacity="0.3"/>
<line x1="400.0" y1="563.3" x2="400.0" y2="620.9" stroke="#c0b8a8" stroke-width="3" opacity="0.35"/>
<circle cx="400.0" cy="531.3" r="32.0" fill="#c0b8a8" opacity="0.4"/>
<text x="508.3" y="449.0" text-anchor="end" font-size="12" font-weight="bold" fill="#888888" opacity="0.6">3</text>
<text x="514.3" y="791.0" text-anchor="end" font-size="9" fill="#888888" opacity="0.5">MED</text>
<rect x="530.3" y="433.0" width="240.7" height="364.0" rx="2" fill="#f5f0e8" stroke="#2a2a2a" stroke-width="1.5"/>
<line x1="536.3" y1="716.9" x2="765.0" y2="716.9" stroke="#a89888" stroke-width="1.0" opacity="0.5"/>
<ellipse cx="610.6" cy="718.9" rx="11.2" ry="2.7" fill="#a89888" opacity="0.2"/>
<line x1="607.9" y1="701.2" x2="603.8" y2="716.9" stroke="#c0b8a8" stroke-width="2" opacity="0.5"/>
<line x1="613.3" y1="701.2" x2="617.3" y2="716.9" stroke="#c0b8a8" stroke-width="2" opacity="0.5"/>
<line x1="610.6" y1="688.1" x2="610.6" y2="701.2" stroke="#c0b8a8" stroke-width="2.5" opacity="0.6"/>
<line x1="597.1" y1="690.1" x2="624.1" y2="690.1" stroke="#c0b8a8" stroke-width="2" opacity="0.5"/>
<line x1="597.1" y1="690.1" x2="592.6" y2="701.6" stroke="#c0b8a8" stroke-width="1.5" opacity="0.4"/>
<line x1="624.1" y1="690.1" x2="628.6" y2="701.6" stroke="#c0b8a8" stroke-width="1.5" opacity="0.4"/>
<circle cx="610.6" cy="671.9" r="8.1" fill="#c0b8a8" opacity="0.6"/>
<ellipse cx="690.8" cy="718.9" rx="11.2" ry="2.7" fill="#a89888" opacity="0.2"/>
<line x1="688.1" y1="701.2" x2="684.0" y2="716.9" stroke="#c0b8a8" stroke-width="2" opacity="0.5"/>
<line x1="693.5" y1="701.2" x2="697.5" y2="716.9" stroke="#c0b8a8" stroke-width="2" opacity="0.5"/>
<line x1="690.8" y1="688.1" x2="690.8" y2="701.2" stroke="#c0b8a8" stroke-width="2.5" opacity="0.6"/>
<line x1="677.3" y1="690.1" x2="704.3" y2="690.1" stroke="#c0b8a8" stroke-width="2" opacity="0.5"/>
<line x1="677.3" y1="690.1" x2="672.8" y2="701.6" stroke="#c0b8a8" stroke-width="1.5" opacity="0.4"/>
<line x1="704.3" y1="690.1" x2="708.8" y2="701.6" stroke="#c0b8a8" stroke-width="1.5" opacity="0.4"/>
<circle cx="690.8" cy="671.9" r="8.1" fill="#c0b8a8" opacity="0.6"/>
<rect x="536.3" y="441.0" width="67.0" height="38.0" rx="2" fill="#f5ecd8" stroke="#c8b898" stroke-width="0.8" opacity="0.92"/>
<text x="542.3" y="457.0" font-size="10.0" fill="#5a4a30" font-style="italic" font-weight="500">CAPTION</text>
<text x="542.3" y="470.0" font-size="10.0" fill="#5a4a30" font-style="italic">Elsewhere.</text>
<text x="759.0" y="449.0" text-anchor="end" font-size="12" font-weight="bold" fill="#888888" opacity="0.6">4</text>
<text x="765.0" y="791.0" text-anchor="end" font-size="9" fill="#888888" opacity="0.5">WIDE</text>
<rect x="29.0" y="807.0" width="742.0" height="364.0" rx="2" fill="#f5f0e8" stroke="#2a2a2a" stroke-width="1.5"/>
<path d="M298.1,1080.0 Q298.1,1029.0 374.5,1022.7 L425.5,1022.7 Q501.9,1029.0 501.9,1080.0 L501.9,1127.3 L298.1,1127.3 Z" fill="#c0b8a8" opacity="0.25"/>
<path d="M377.7,1022.7 L400.0,1054.5 L422.3,1022.7" fill="none" stroke="#c0b8a8" stroke-width="1" opacity="0.3"/>
<circle cx="400.0" cy="952.6" r="63.7" fill="#c0b8a8" opacity="0.35"/>
<path d="M336.3,965.3 Q345.9,1022.7 400.0,1025.9 Q454.1,1022.7 463.7,965.3" fill="none" stroke="#c0b8a8" stroke-width="1.2" opacity="0.3"/>
<path d="M333.1,946.2 Q400.0,869.8 466.9,946.2" fill="none" stroke="#c0b8a8" stroke-width="2" opacity="0.4"/>
<ellipse cx="334.3" cy="955.8" rx="2.5" ry="4" fill="#c0b8a8" opacity="0.25"/>
<ellipse cx="465.7" cy="955.8" rx="2.5" ry="4" fill="#c0b8a8" opacity="0.25"/>
<rect x="35.0" y="815.0" width="169.3" height="40.0" rx="2" fill="#f5ecd8" stroke="#c8b898" stroke-width="0.8" opacity="0.92"/>
<text x="41.0" y="832.0" font-size="11.0" fill="#5a4a30" font-style="italic" font-weight="500">CAPTION</text>
<text x="41.0" y="846.0" font-size="11.0" fill="#5a4a30" font-style="italic">Most days, this is enough.</text>
<text x="759.0" y="823.0" text-anchor="end" font-size="12" font-weight="bold" fill="#888888" opacity="0.6">5</text>
<text x="765.0" y="1165.0" text-anchor="end" font-size="9" fill="#888888" opacity="0.5">MCU</text>
</svg>