<svg xmlns="http://www.w3.org/2000/svg" viewBox="0 0 800 1200" width="800" height="1200" style="background:#ffffff">
<style>
  text { font-family: "Helvetica Neue", Helvetica, Arial, sans-serif; }
</style>
<text x="400.0" y="22" text-anchor="middle" font-size="16" fill="#888888" font-weight="500">PAGE 15  (4 panels)</text>
<rect x="29.0" y="59.0" width="742.0" height="364.0" rx="2" fill="#f5f0e8" stroke="#2a2a2a" stroke-width="1.5"/>
<line x1="35.0" y1="342.9" x2="765.0" y2="342.9" stroke="#a89888" stroke-width="1.0" opacity="0.5"/>
<ellipse cx="276.3" cy="344.9" rx="11.2" ry="2.7" fill="#a89888" opacity="0.2"/>
<line x1="273.6" y1="327.2" x2="269.6" y2="342.9" stroke="#2e8b57" stroke-width="2" opacity="0.5"/>
<line x1="279.0" y1="327.2" x2="283.1" y2="342.9" stroke="#2e8b57" stroke-width="2" opacity="0.5"/>
<line x1="276.3" y1="314.1" x2="276.3" y2="327.2" stroke="#2e8b57" stroke-width="2.5" opacity="0.6"/>
<line x1="262.8" y1="316.1" x2="289.8" y2="316.1" stroke="#2e8b57" stroke-width="2" opacity="0.5"/>
<line x1="262.8" y1="316.1" x2="258.3" y2="327.6" stroke="#2e8b57" stroke-width="1.5" opacity="0.4"/>
<line x1="289.8" y1="316.1" x2="294.3" y2="327.6" stroke="#2e8b57" stroke-width="1.5" opacity="0.4"/>
<circle cx="276.3" cy="297.9" r="8.1" fill="#2e8b57" opacity="0.6"/>
<ellipse cx="523.7" cy="344.9" rx="11.2" ry="2.7" fill="#a89888" opacity="0.2"/>
<line x1="521.0" y1="327.2" x2="516.9" y2="342.9" stroke="#c49a6c" stroke-width="2" opacity="0.5"/>
<line x1="526.4" y1="327.2" x2="530.4" y2="342.9" stroke="#c49a6c" stroke-width="2" opacity="0.5"/>
<line x1="523.7" y1="314.1" x2="523.7" y2="327.2" stroke="#c49a6c" stroke-width="2.5" opacity="0.6"/>
<line x1="510.2" y1="316.1" x2="537.2" y2="316.1" stroke="#c49a6c" stroke-width="2" opacity="0.5"/>
<line x1="510.2" y1="316.1" x2="505.7" y2="327.6" stroke="#c49a6c" stroke-width="1.5" opacity="0.4"/>
<line x1="537.2" y1="316.1" x2="541.7" y2="327.6" stroke="#c49a6c" stroke-width="1.5" opacity="0.4"/>
<circle cx="523.7" cy="297.9" r="8.1" fill="#c49a6c" opacity="0.6"/>
<rect x="35.0" y="67.0" width="254.0" height="40.0" rx="6" fill="white" stroke="#2e8b57" stroke-width="1.0" opacity="0.92"/>
<polygon points="111.2,107.0 119.2,107.0 108.2,115.0" fill="white" stroke="#2e8b57" stroke-width="0.8"/>
<line x1="110.7" y1="107.0" x2="119.7" y2="107.0" stroke="white" stroke-width="1.5"/>
<text x="41.0" y="84.0" font-size="11.0" fill="#2e8b57" font-weight="700">JINK</text>
<text x="41.0" y="98.0" font-size="11.0" fill="#333333">Our camp's here-ish. Hidden in the wall.</text>
<rect x="504.9" y="117.0" width="260.1" height="40.0" rx="6" fill="white" stroke="#2e8b57" stroke-width="1.0" opacity="0.92"/>
<polygon points="583.0,157.0 591.0,157.0 580.0,165.0" fill="white" stroke="#2e8b57" stroke-width="0.8"/>
<line x1="582.5" y1="157.0" x2="591.5" y2="157.0" stroke="white" stroke-width="1.5"/>
<text x="510.9" y="134.0" font-size="11.0" fill="#2e8b57" font-weight="700">JINK</text>
<text x="510.9" y="148.0" font-size="11.0" fill="#333333">This piece landed here. In your workshop.</text>
<rect x="35.0" y="167.0" width="344.8" height="40.0" rx="6" fill="white" stroke="#2e8b57" stroke-width="1.0" opacity="0.92"/>
<polygon points="138.4,207.0 146.4,207.0 135.4,215.0" fill="white" stroke="#2e8b57" stroke-width="0.8"/>
<line x1="137.9" y1="207.0" x2="146.9" y2="207.0" stroke="white" stroke-width="1.5"/>
<text x="41.0" y="184.0" font-size="11.0" fill="#2e8b57" font-weight="700">JINK</text>
<text x="41.0" y="198.0" font-size="11.0" fill="#333333">I came to get it back. You weren't supposed to be here.</text>
<rect x="498.9" y="217.0" width="266.1" height="40.0" rx="6" fill="white" stroke="#c49a6c" stroke-width="1.0" opacity="0.92"/>
<polygon points="578.7,257.0 586.7,257.0 575.7,265.0" fill="white" stroke="#c49a6c" stroke-width="0.8"/>
<line x1="578.2" y1="257.0" x2="587.2" y2="257.0" stroke="white" stroke-width="1.5"/>
<text x="504.9" y="234.0" font-size="11.0" fill="#c49a6c" font-weight="700">THEODORE</text>
<text x="504.9" y="248.0" font-size="11.0" fill="#333333">Mr. Cribbage lets me work late. Sometimes.</text>
<rect x="35.0" y="267.0" width="66.5" height="40.0" rx="6" fill="white" stroke="#2e8b57" stroke-width="1.0" opacity="0.92"/>
<polygon points="54.9,307.0 62.9,307.0 51.9,315.0" fill="white" stroke="#2e8b57" stroke-width="0.8"/>
<line x1="54.4" y1="307.0" x2="63.4" y2="307.0" stroke="white" stroke-width="1.5"/>
<text x="41.0" y="284.0" font-size="11.0" fill="#2e8b57" font-weight="700">JINK</text>
<text x="41.0" y="298.0" font-size="11.0" fill="#333333">Cribbage?</text>
<rect x="595.7" y="317.0" width="169.3" height="40.0" rx="6" fill="white" stroke="#c49a6c" stroke-width="1.0" opacity="0.92"/>
<polygon points="646.5,357.0 654.5,357.0 643.5,365.0" fill="white" stroke="#c49a6c" stroke-width="0.8"/>
<line x1="646.0" y1="357.0" x2="655.0" y2="357.0" stroke="white" stroke-width="1.5"/>
<text x="601.7" y="334.0" font-size="11.0" fill="#c49a6c" font-weight="700">THEODORE</text>
<text x="601.7" y="348.0" font-size="11.0" fill="#333333">My master. The clockmaker.</text>
<text x="759.0" y="75.0" text-anchor="end" font-size="12" font-weight="bold" fill="#888888" opacity="0.6">1</text>
<text x="765.0" y="417.0" text-anchor="end" font-size="9" fill="#888888" opacity="0.5">WIDE</text>
<rect x="29.0" y="433.0" width="366.0" height="364.0" rx="2" fill="#f5f0e8" stroke="#2a2a2a" stroke-width="1.5"/>
<path d="M110.1,706.0 Q110.1,655.0 186.5,648.7 L237.5,648.7 Q313.9,655.0 313.9,706.0 L313.9,753.3 L110.1,753.3 Z" fill="#c49a6c" opacity="0.25"/>
<path d="M189.7,648.7 L212.0,680.5 L234.3,648.7" fill="none" stroke="#c49a6c" stroke-width="1" opacity="0.3"/>
<circle cx="212.0" cy="578.6" r="63.7" fill="#c49a6c" opacity="0.35"/>
<path d="M148.3,591.3 Q157.9,648.7 212.0,651.9 Q266.1,648.7 275.7,591.3" fill="none" stroke="#c49a6c" stroke-width="1.2" opacity="0.3"/>
<path d="M145.1,572.2 Q212.0,495.8 278.9,572.2" fill="none" stroke="#c49a6c" stroke-width="2" opacity="0.4"/>
<ellipse cx="146.3" cy="581.8" rx="2.5" ry="4" fill="#c49a6c" opacity="0.25"/>
<ellipse cx="277.7" cy="581.8" rx="2.5" ry="4" fill="#c49a6c" opacity="0.25"/>
<rect x="35.0" y="441.0" width="62.0" height="40.0" rx="6" fill="white" stroke="#c49a6c" stroke-width="1.0" opacity="0.92"/>
<polygon points="53.6,481.0 61.6,481.0 50.6,489.0" fill="white" stroke="#c49a6c" stroke-width="0.8"/>
<line x1="53.1" y1="481.0" x2="62.1" y2="481.0" stroke="white" stroke-width="1.5"/>
<text x="41.0" y="458.0" font-size="11.0" fill="#c49a6c" font-weight="700">THEODORE</text>
<text x="41.0" y="472.0" font-size="11.0" fill="#333333">May I?</text>
<rect x="280.2" y="491.0" width="108.8" height="40.0" rx="6" fill="white" stroke="#2e8b57" stroke-width="1.0" opacity="0.92"/>
<polygon points="312.8,531.0 320.8,531.0 309.8,539.0" fill="white" stroke="#2e8b57" stroke-width="0.8"/>
<line x1="312.3" y1="531.0" x2="321.3" y2="531.0" stroke="white" stroke-width="1.5"/>
<text x="286.2" y="508.0" font-size="11.0" fill="#2e8b57" font-weight="700">JINK</text>
<text x="286.2" y="522.0" font-size="11.0" fill="#333333">...Yeah. Gently.</text>
<text x="383.0" y="449.0" text-anchor="end" font-size="12" font-weight="bold" fill="#888888" opacity="0.6">2</text>
<text x="389.0" y="791.0" text-anchor="end" font-size="9" fill="#888888" opacity="0.5">MCU</text>
<rect x="405.0" y="433.0" width="366.0" height="364.0" rx="2" fill="#f5f0e8" stroke="#2a2a2a" stroke-width="1.5"/>
<path d="M529.4,695.1 L534.8,648.6 Q540.1,644.6 571.8,644.6 L604.2,644.6 Q635.9,644.6 641.2,648.6 L646.6,695.1 Z" fill="#2e8b57" opacity="0.35"/>
<line x1="534.8" y1="670.5" x2="641.2" y2="670.5" stroke="#2e8b57" stroke-width="1" opacity="0.3"/>
<line x1="534.8" y1="648.6" x2="513.5" y2="689.5" stroke="#2e8b57" stroke-width="2" opacity="0.3"/>
<line x1="513.5" y1="689.5" x2="529.4" y2="714.1" stroke="#2e8b57" stroke-width="2" opacity="0.3"/>
<line x1="641.2" y1="648.6" x2="662.5" y2="689.5" stroke="#2e8b57" stroke-width="2" opacity="0.3"/>
<line x1="662.5" y1="689.5" x2="646.6" y2="714.1" stroke="#2e8b57" stroke-width="2" opacity="0.3"/>
<line x1="588.0" y1="571.7" x2="588.0" y2="644.6" stroke="#2e8b57" stroke-width="3" opacity="0.35"/>
<circle cx="588.0" cy="531.3" r="40.5" fill="#2e8b57" opacity="0.4"/>
<rect x="411.0" y="441.0" width="62.0" height="40.0" rx="6" fill="white" stroke="#2e8b57" stroke-width="1.0" opacity="0.92"/>
<polygon points="429.6,481.0 437.6,481.0 426.6,489.0" fill="white" stroke="#2e8b57" stroke-width="0.8"/>
<line x1="429.1" y1="481.0" x2="438.1" y2="481.0" stroke="white" stroke-width="1.5"/>
<text x="417.0" y="458.0" font-size="11.0" fill="#2e8b57" font-weight="700">JINK</text>
<text x="417.0" y="472.0" font-size="11.0" fill="#333333">Huh.</text>
<rect x="535.2" y="491.0" width="229.8" height="40.0" rx="6" fill="white" stroke="#c49a6c" stroke-width="1.0" opacity="0.92"/>
<polygon points="604.1,531.0 612.1,531.0 601.1,539.0" fill="white" stroke="#c49a6c" stroke-width="0.8"/>
<line x1="603.6" y1="531.0" x2="612.6" y2="531.0" stroke="white" stroke-width="1.5"/>
<text x="541.2" y="508.0" font-size="11.0" fill="#c49a6c" font-weight="700">THEODORE</text>
<text x="541.2" y="522.0" font-size="11.0" fill="#333333">It's warm. Like... like a heartbeat.</text>
<text x="759.0" y="449.0" text-anchor="end" font-size="12" font-weight="bold" fill="#888888" opacity="0.6">3</text>
<text x="765.0" y="791.0" text-anchor="end" font-size="9" fill="#888888" opacity="0.5">MED</text>
<rect x="29.0" y="807.0" width="742.0" height="364.0" rx="2" fill="#f5f0e8" stroke="#2a2a2a" stroke-width="1.5"/>
<path d="M298.1,1080.0 Q298.1,1029.0 374.5,1022.7 L425.5,1022.7 Q501.9,1029.0 501.9,1080.0 L501.9,1127.3 L298.1,1127.3 Z" fill="#c49a6c" opacity="0.25"/>
<path d="M377.7,1022.7 L400.0,1054.5 L422.3,1022.7" fill="none" stroke="#c49a6c" stroke-width="1" opacity="0.3"/>
<circle cx="400.0" cy="952.6" r="63.7" fill="#c49a6c" opacity="0.35"/>
<path d="M336.3,965.3 Q345.9,1022.7 400.0,1025.9 Q454.1,1022.7 463.7,965.3" fill="none" stroke="#c49a6c" stroke-width="1.2" opacity="0.3"/>
<path d="M333.1,946.2 Q400.0,869.8 466.9,946.2" fill="none" stroke="#c49a6c" stroke-width="2" opacity="0.4"/>
<ellipse cx="334.3" cy="955.8" rx="2.5" ry="4" fill="#c49a6c" opacity="0.25"/>
<ellipse cx="465.7" cy="955.8" rx="2.5" ry="4" fill="#c49a6c" opacity="0.25"/>
<rect x="35.0" y="815.0" width="84.6" height="40.0" rx="6" fill="white" stroke="#c49a6c" stroke-width="1.0" opacity="0.92"/>
<polygon points="60.4,855.0 68.4,855.0 57.4,863.0" fill="white" stroke="#c49a6c" stroke-width="0.8"/>
<line x1="59.9" y1="855.0" x2="68.9" y2="855.0" stroke="white" stroke-width="1.5"/>
<text x="41.0" y="832.0" font-size="11.0" fill="#c49a6c" font-weight="700">THEODORE</text>
<text x="41.0" y="846.0" font-size="11.0" fill="#333333">You can fly.</text>
<rect x="626.0" y="865.0" width="139.1" height="40.0" rx="6" fill="white" stroke="#2e8b57" stroke-width="1.0" opacity="0.92"/>
<polygon points="667.7,905.0 675.7,905.0 664.7,913.0" fill="white" stroke="#2e8b57" stroke-width="0.8"/>
<line x1="667.2" y1="905.0" x2="676.2" y2="905.0" stroke="white" stroke-width="1.5"/>
<text x="632.0" y="882.0" font-size="11.0" fill="#2e8b57" font-weight="700">JINK</text>
<text x="632.0" y="896.0" font-size="11.0" fill="#333333">Best part of the job.</text>
<rect x="35.0" y="915.0" width="102.8" height="40.0" rx="6" fill="white" stroke="#c49a6c" stroke-width="1.0" opacity="0.92"/>
<polygon points="65.8,955.0 73.8,955.0 62.8,963.0" fill="white" stroke="#c49a6c" stroke-width="0.8"/>
<line x1="65.3" y1="955.0" x2="74.3" y2="955.0" stroke="white" stroke-width="1.5"/>
<text x="41.0" y="932.0" font-size="11.0" fill="#c49a6c" font-weight="700">THEODORE</text>
<text x="41.0" y="946.0" font-size="11.0" fill="#333333">What's it like?</text>
<rect x="462.6" y="965.0" width="302.4" height="40.0" rx="6" fill="white" stroke="#2e8b57" stroke-width="1.0" opacity="0.92"/>
<polygon points="553.3,1005.0 561.3,1005.0 550.3,1013.0" fill="white" stroke="#2e8b57" stroke-width="0.8"/>
<line x1="552.8" y1="1005.0" x2="561.8" y2="1005.0" stroke="white" stroke-width="1.5"/>
<text x="468.6" y="982.0" font-size="11.0" fill="#2e8b57" font-weight="700">JINK</text>
<text x="468.6" y="996.0" font-size="11.0" fill="#333333">Like the world stops telling you where to stand.</text>
<text x="759.0" y="823.0" text-anchor="end" font-size="12" font-weight="bold" fill="#888888" opacity="0.6">4</text>
<text x="765.0" y="1165.0" text-anchor="end" font-size="9" fill="#888888" opacity="0.5">MCU</text>
</svg>