<svg xmlns="http://www.w3.org/2000/svg" viewBox="0 0 800 1200" width="800" height="1200" style="background:#ffffff">
<style>
  text { font-family: "Helvetica Neue", Helvetica, Arial, sans-serif; }
</style>
<text x="400.0" y="22" text-anchor="middle" font-size="16" fill="#888888" font-weight="500">PAGE 6  (5 panels)</text>
<rect x="29.0" y="59.0" width="366.0" height="364.0" rx="2" fill="#f5f0e8" stroke="#2a2a2a" stroke-width="1.5"/>
<path d="M153.4,321.1 L158.8,274.6 Q164.1,270.6 195.8,270.6 L228.2,270.6 Q259.9,270.6 265.2,274.6 L270.6,321.1 Z" fill="#c0b8a8" opacity="0.35"/>
<line x1="158.8" y1="296.5" x2="265.2" y2="296.5" stroke="#c0b8a8" stroke-width="1" opacity="0.3"/>
<line x1="158.8" y1="274.6" x2="137.5" y2="315.5" stroke="#c0b8a8" stroke-width="2" opacity="0.3"/>
<line x1="137.5" y1="315.5" x2="153.4" y2="340.1" stroke="#c0b8a8" stroke-width="2" opacity="0.3"/>
<line x1="265.2" y1="274.6" x2="286.5" y2="315.5" stroke="#c0b8a8" stroke-width="2" opacity="0.3"/>
<line x1="286.5" y1="315.5" x2="270.6" y2="340.1" stroke="#c0b8a8" stroke-width="2" opacity="0.3"/>
<line x1="212.0" y1="197.7" x2="212.0" y2="270.6" stroke="#c0b8a8" stroke-width="3" opacity="0.35"/>
<circle cx="212.0" cy="157.3" r="40.5" fill="#c0b8a8" opacity="0.4"/>
<text x="383.0" y="75.0" text-anchor="end" font-size="12" font-weight="bold" fill="#888888" opacity="0.6">1</text>
<text x="389.0" y="417.0" text-anchor="end" font-size="9" fill="#888888" opacity="0.5">MW</text>
<rect x="405.0" y="59.0" width="366.0" height="364.0" rx="2" fill="#f5f0e8" stroke="#2a2a2a" stroke-width="1.5"/>
<ellipse cx="588.0" cy="211.9" rx="114.7" ry="163.8" fill="#c0b8a8" opacity="0.18"/>
<path d="M467.6,154.6 Q588.0,23.5 708.4,154.6" fill="none" stroke="#c0b8a8" stroke-width="3" opacity="0.35"/>
<line x1="547.9" y1="175.8" x2="582.3" y2="173.8" stroke="#a89888" stroke-width="1.5" opacity="0.45"/>
<line x1="593.7" y1="173.8" x2="628.1" y2="175.8" stroke="#a89888" stroke-width="1.5" opacity="0.45"/>
<ellipse cx="555.9" cy="192.2" rx="13.8" ry="8.2" fill="#a89888" opacity="0.45"/>
<ellipse cx="620.1" cy="192.2" rx="13.8" ry="8.2" fill="#a89888" opacity="0.45"/>
<line x1="588.0" y1="215.2" x2="588.0" y2="241.4" stroke="#a89888" stroke-width="1.2" opacity="0.35"/>
<path d="M581.1,241.4 Q588.0,244.4 594.9,241.4" fill="none" stroke="#a89888" stroke-width="1" opacity="0.3"/>
<line x1="559.3" y1="264.3" x2="616.7" y2="264.3" stroke="#a89888" stroke-width="1.2" opacity="0.35"/>
<text x="759.0" y="75.0" text-anchor="end" font-size="12" font-weight="bold" fill="#888888" opacity="0.6">2</text>
<text x="765.0" y="417.0" text-anchor="end" font-size="9" fill="#888888" opacity="0.5">CU</text>
<rect x="29.0" y="433.0" width="742.0" height="364.0" rx="2" fill="#f5f0e8" stroke="#2a2a2a" stroke-width="1.5"/>
<path d="M298.1,706.0 Q298.1,655.0 374.5,648.7 L425.5,648.7 Q501.9,655.0 501.9,706.0 L501.9,753.3 L298.1,753.3 Z" fill="#c49a6c" opacity="0.25"/>
<path d="M377.7,648.7 L400.0,680.5 L422.3,648.7" fill="none" stroke="#c49a6c" stroke-width="1" opacity="0.3"/>
<circle cx="400.0" cy="578.6" r="63.7" fill="#c49a6c" opacity="0.35"/>
<path d="M336.3,591.3 Q345.9,648.7 400.0,651.9 Q454.1,648.7 463.7,591.3" fill="none" stroke="#c49a6c" stroke-width="1.2" opacity="0.3"/>
<path d="M333.1,572.2 Q400.0,495.8 466.9,572.2" fill="none" stroke="#c49a6c" stroke-width="2" opacity="0.4"/>
<ellipse cx="334.3" cy="581.8" rx="2.5" ry="4" fill="#c49a6c" opacity="0.25"/>
<ellipse cx="465.7" cy="581.8" rx="2.5" ry="4" fill="#c49a6c" opacity="0.25"/>
<rect x="35.0" y="441.0" width="90.7" height="40.0" rx="6" fill="white" stroke="#c49a6c" stroke-width="1.0" opacity="0.92"/>
<polygon points="62.2,481.0 70.2,481.0 59.2,489.0" fill="white" stroke="#c49a6c" stroke-width="0.8"/>
<line x1="61.7" y1="481.0" x2="70.7" y2="481.0" stroke="white" stroke-width="1.5"/>
<text x="41.0" y="458.0" font-size="11.0" fill="#c49a6c" font-weight="700">THEODORE</text>
<text x="41.0" y="472.0" font-size="11.0" fill="#333333">What are you?</text>
<text x="759.0" y="449.0" text-anchor="end" font-size="12" font-weight="bold" fill="#888888" opacity="0.6">3</text>
<text x="765.0" y="791.0" text-anchor="end" font-size="9" fill="#888888" opacity="0.5">MCU</text>
<rect x="29.0" y="807.0" width="366.0" height="364.0" rx="2" fill="#f5f0e8" stroke="#2a2a2a" stroke-width="1.5"/>
<path d="M153.4,1069.1 L158.8,1022.6 Q164.1,1018.6 195.8,1018.6 L228.2,1018.6 Q259.9,1018.6 265.2,1022.6 L270.6,1069.1 Z" fill="#c0b8a8" opacity="0.35"/>
<line x1="158.8" y1="1044.5" x2="265.2" y2="1044.5" stroke="#c0b8a8" stroke-width="1" opacity="0.3"/>
<line x1="158.8" y1="1022.6" x2="137.5" y2="1063.5" stroke="#c0b8a8" stroke-width="2" opacity="0.3"/>
<line x1="137.5" y1="1063.5" x2="153.4" y2="1088.1" stroke="#c0b8a8" stroke-width="2" opacity="0.3"/>
<line x1="265.2" y1="1022.6" x2="286.5" y2="1063.5" stroke="#c0b8a8" stroke-width="2" opacity="0.3"/>
<line x1="286.5" y1="1063.5" x2="270.6" y2="1088.1" stroke="#c0b8a8" stroke-width="2" opacity="0.3"/>
<line x1="212.0" y1="945.7" x2="212.0" y2="1018.6" stroke="#c0b8a8" stroke-width="3" opacity="0.35"/>
<circle cx="212.0" cy="905.3" r="40.5" fill="#c0b8a8" opacity="0.4"/>
<text x="383.0" y="823.0" text-anchor="end" font-size="12" font-weight="bold" fill="#888888" opacity="0.6">4</text>
<text x="389.0" y="1165.0" text-anchor="end" font-size="9" fill="#888888" opacity="0.5">MED</text>
<rect x="405.0" y="807.0" width="366.0" height="364.0" rx="2" fill="#f5f0e8" stroke="#2a2a2a" stroke-width="1.5"/>
<ellipse cx="588.0" cy="959.9" rx="114.7" ry="163.8" fill="#c0b8a8" opacity="0.18"/>
<path d="M467.6,902.5 Q588.0,771.5 708.4,902.5" fill="none" stroke="#c0b8a8" stroke-width="3" opacity="0.35"/>
<line x1="547.9" y1="923.8" x2="582.3" y2="921.8" stroke="#a89888" stroke-width="1.5" opacity="0.45"/>
<line x1="593.7" y1="921.8" x2="628.1" y2="923.8" stroke="#a89888" stroke-width="1.5" opacity="0.45"/>
<ellipse cx="555.9" cy="940.2" rx="13.8" ry="8.2" fill="#a89888" opacity="0.45"/>
<ellipse cx="620.1" cy="940.2" rx="13.8" ry="8.2" fill="#a89888" opacity="0.45"/>
<line x1="588.0" y1="963.2" x2="588.0" y2="989.4" stroke="#a89888" stroke-width="1.2" opacity="0.35"/>
<path d="M581.1,989.4 Q588.0,992.4 594.9,989.4" fill="none" stroke="#a89888" stroke-width="1" opacity="0.3"/>
<line x1="559.3" y1="1012.3" x2="616.7" y2="1012.3" stroke="#a89888" stroke-width="1.2" opacity="0.35"/>
<rect x="411.0" y="815.0" width="217.7" height="40.0" rx="2" fill="#f5ecd8" stroke="#c8b898" stroke-width="0.8" opacity="0.92"/>
<text x="417.0" y="832.0" font-size="11.0" fill="#5a4a30" font-style="italic" font-weight="500">CAPTION</text>
<text x="417.0" y="846.0" font-size="11.0" fill="#5a4a30" font-style="italic">Three days after the falling star.</text>
<rect x="411.0" y="859.0" width="175.4" height="40.0" rx="2" fill="#f5ecd8" stroke="#c8b898" stroke-width="0.8" opacity="0.92"/>
<text x="417.0" y="876.0" font-size="11.0" fill="#5a4a30" font-style="italic" font-weight="500">CAPTION</text>
<text x="417.0" y="890.0" font-size="11.0" fill="#5a4a30" font-style="italic">He has found a piece of it.</text>
<text x="759.0" y="823.0" text-anchor="end" font-size="12" font-weight="bold" fill="#888888" opacity="0.6">5</text>
<text x="765.0" y="1165.0" text-anchor="end" font-size="9" fill="#888888" opacity="0.5">CU</text>
</svg>