<svg xmlns="http://www.w3.org/2000/svg" viewBox="0 0 800 1200" width="800" height="1200" style="background:#ffffff">
<style>
  text { font-family: "Helvetica Neue", Helvetica, Arial, sans-serif; }
</style>
<text x="400.0" y="22" text-anchor="middle" font-size="16" fill="#888888" font-weight="500">PAGE 18  (3 panels)</text>
<rect x="29.0" y="59.0" width="742.0" height="1112.0" rx="2" fill="#f5f0e8" stroke="#2a2a2a" stroke-width="1.5"/>
<line x1="35.0" y1="926.4" x2="765.0" y2="926.4" stroke="#a89888" stroke-width="1.0" opacity="0.5"/>
<ellipse cx="214.5" cy="928.4" rx="11.2" ry="2.7" fill="#a89888" opacity="0.2"/>
<line x1="211.8" y1="910.6" x2="207.8" y2="926.4" stroke="#c0b8a8" stroke-width="2" opacity="0.5"/>
<line x1="217.2" y1="910.6" x2="221.2" y2="926.4" stroke="#c0b8a8" stroke-width="2" opacity="0.5"/>
<line x1="214.5" y1="897.6" x2="214.5" y2="910.6" stroke="#c0b8a8" stroke-width="2.5" opacity="0.6"/>
<line x1="201.0" y1="899.6" x2="228.0" y2="899.6" stroke="#c0b8a8" stroke-width="2" opacity="0.5"/>
<line x1="201.0" y1="899.6" x2="196.5" y2="911.1" stroke="#c0b8a8" stroke-width="1.5" opacity="0.4"/>
<line x1="228.0" y1="899.6" x2="232.5" y2="911.1" stroke="#c0b8a8" stroke-width="1.5" opacity="0.4"/>
<circle cx="214.5" cy="881.4" r="8.1" fill="#c0b8a8" opacity="0.6"/>
<ellipse cx="400.0" cy="928.4" rx="11.2" ry="2.7" fill="#a89888" opacity="0.2"/>
<line x1="397.3" y1="910.6" x2="393.2" y2="926.4" stroke="#c0b8a8" stroke-width="2" opacity="0.5"/>
<line x1="402.7" y1="910.6" x2="406.8" y2="926.4" stroke="#c0b8a8" stroke-width="2" opacity="0.5"/>
<line x1="400.0" y1="897.6" x2="400.0" y2="910.6" stroke="#c0b8a8" stroke-width="2.5" opacity="0.6"/>
<line x1="386.5" y1="899.6" x2="413.5" y2="899.6" stroke="#c0b8a8" stroke-width="2" opacity="0.5"/>
<line x1="386.5" y1="899.6" x2="382.0" y2="911.1" stroke="#c0b8a8" stroke-width="1.5" opacity="0.4"/>
<line x1="413.5" y1="899.6" x2="418.0" y2="911.1" stroke="#c0b8a8" stroke-width="1.5" opacity="0.4"/>
<circle cx="400.0" cy="881.4" r="8.1" fill="#c0b8a8" opacity="0.6"/>
<ellipse cx="585.5" cy="928.4" rx="11.2" ry="2.7" fill="#a89888" opacity="0.2"/>
<line x1="582.8" y1="910.6" x2="578.8" y2="926.4" stroke="#c0b8a8" stroke-width="2" opacity="0.5"/>
<line x1="588.2" y1="910.6" x2="592.2" y2="926.4" stroke="#c0b8a8" stroke-width="2" opacity="0.5"/>
<line x1="585.5" y1="897.6" x2="585.5" y2="910.6" stroke="#c0b8a8" stroke-width="2.5" opacity="0.6"/>
<line x1="572.0" y1="899.6" x2="599.0" y2="899.6" stroke="#c0b8a8" stroke-width="2" opacity="0.5"/>
<line x1="572.0" y1="899.6" x2="567.5" y2="911.1" stroke="#c0b8a8" stroke-width="1.5" opacity="0.4"/>
<line x1="599.0" y1="899.6" x2="603.5" y2="911.1" stroke="#c0b8a8" stroke-width="1.5" opacity="0.4"/>
<circle cx="585.5" cy="881.4" r="8.1" fill="#c0b8a8" opacity="0.6"/>
<text x="759.0" y="75.0" text-anchor="end" font-size="12" font-weight="bold" fill="#888888" opacity="0.6">1</text>
<text x="765.0" y="1165.0" text-anchor="end" font-size="9" fill="#888888" opacity="0.5">WIDE</text>
<rect x="61.6" y="895.5" width="150.4" height="224.4" rx="2" fill="#e8e0d0" stroke="#2a2a2a" stroke-width="1.0"/>
<ellipse cx="136.8" cy="989.7" rx="60.2" ry="101.0" fill="#c0b8a8" opacity="0.18"/>
<path d="M73.6,954.4 Q136.8,873.6 200.0,954.4" fill="none" stroke="#c0b8a8" stroke-width="3" opacity="0.35"/>
<line x1="115.7" y1="967.5" x2="133.8" y2="965.5" stroke="#a89888" stroke-width="1.5" opacity="0.45"/>
<line x1="139.8" y1="965.5" x2="157.9" y2="967.5" stroke="#a89888" stroke-width="1.5" opacity="0.45"/>
<ellipse cx="120.0" cy="977.6" rx="7.2" ry="5.0" fill="#a89888" opacity="0.45"/>
<ellipse cx="153.6" cy="977.6" rx="7.2" ry="5.0" fill="#a89888" opacity="0.45"/>
<line x1="136.8" y1="991.8" x2="136.8" y2="1007.9" stroke="#a89888" stroke-width="1.2" opacity="0.35"/>
<path d="M133.2,1007.9 Q136.8,1010.9 140.4,1007.9" fill="none" stroke="#a89888" stroke-width="1" opacity="0.3"/>
<line x1="121.8" y1="1022.1" x2="151.8" y2="1022.1" stroke="#a89888" stroke-width="1.2" opacity="0.35"/>
<text x="200.0" y="911.5" text-anchor="end" font-size="12" font-weight="bold" fill="#888888" opacity="0.6">2</text>
<text x="206.0" y="1113.9" text-anchor="end" font-size="9" fill="#888888" opacity="0.5">ECU</text>
<rect x="588.0" y="895.5" width="150.4" height="224.4" rx="2" fill="#e8e0d0" stroke="#2a2a2a" stroke-width="1.0"/>
<ellipse cx="663.2" cy="989.7" rx="60.2" ry="101.0" fill="#c0b8a8" opacity="0.18"/>
<path d="M600.0,954.4 Q663.2,873.6 726.4,954.4" fill="none" stroke="#c0b8a8" stroke-width="3" opacity="0.35"/>
<line x1="642.1" y1="967.5" x2="660.2" y2="965.5" stroke="#a89888" stroke-width="1.5" opacity="0.45"/>
<line x1="666.2" y1="965.5" x2="684.3" y2="967.5" stroke="#a89888" stroke-width="1.5" opacity="0.45"/>
<ellipse cx="646.4" cy="977.6" rx="7.2" ry="5.0" fill="#a89888" opacity="0.45"/>
<ellipse cx="680.0" cy="977.6" rx="7.2" ry="5.0" fill="#a89888" opacity="0.45"/>
<line x1="663.2" y1="991.8" x2="663.2" y2="1007.9" stroke="#a89888" stroke-width="1.2" opacity="0.35"/>
<path d="M659.6,1007.9 Q663.2,1010.9 666.8,1007.9" fill="none" stroke="#a89888" stroke-width="1" opacity="0.3"/>
<line x1="648.2" y1="1022.1" x2="678.2" y2="1022.1" stroke="#a89888" stroke-width="1.2" opacity="0.35"/>
<text x="726.4" y="911.5" text-anchor="end" font-size="12" font-weight="bold" fill="#888888" opacity="0.6">3</text>
<text x="732.4" y="1113.9" text-anchor="end" font-size="9" fill="#888888" opacity="0.5">CU</text>
</svg>