<svg xmlns="http://www.w3.org/2000/svg" viewBox="0 0 800 1200" width="800" height="1200" style="background:#ffffff">
<style>
  text { font-family: "Helvetica Neue", Helvetica, Arial, sans-serif; }
</style>
<text x="400.0" y="22" text-anchor="middle" font-size="16" fill="#888888" font-weight="500">PAGE 4  (5 panels)</text>
<rect x="29.0" y="59.0" width="742.0" height="248.9" rx="2" fill="#f5f0e8" stroke="#2a2a2a" stroke-width="1.5"/>
<line x1="35.0" y1="253.2" x2="765.0" y2="253.2" stroke="#a89888" stroke-width="1.0" opacity="0.5"/>
<ellipse cx="276.3" cy="255.2" rx="11.2" ry="2.7" fill="#a89888" opacity="0.2"/>
<line x1="273.6" y1="237.5" x2="269.6" y2="253.2" stroke="#2e8b57" stroke-width="2" opacity="0.5"/>
<line x1="279.0" y1="237.5" x2="283.1" y2="253.2" stroke="#2e8b57" stroke-width="2" opacity="0.5"/>
<line x1="276.3" y1="224.5" x2="276.3" y2="237.5" stroke="#2e8b57" stroke-width="2.5" opacity="0.6"/>
<line x1="262.9" y1="226.5" x2="289.8" y2="226.5" stroke="#2e8b57" stroke-width="2" opacity="0.5"/>
<line x1="262.9" y1="226.5" x2="258.4" y2="237.9" stroke="#2e8b57" stroke-width="1.5" opacity="0.4"/>
<line x1="289.8" y1="226.5" x2="294.3" y2="237.9" stroke="#2e8b57" stroke-width="1.5" opacity="0.4"/>
<circle cx="276.3" cy="208.4" r="8.1" fill="#2e8b57" opacity="0.6"/>
<ellipse cx="523.7" cy="255.2" rx="11.2" ry="2.7" fill="#a89888" opacity="0.2"/>
<line x1="521.0" y1="237.5" x2="516.9" y2="253.2" stroke="#b0b0b0" stroke-width="2" opacity="0.5"/>
<line x1="526.4" y1="237.5" x2="530.4" y2="253.2" stroke="#b0b0b0" stroke-width="2" opacity="0.5"/>
<line x1="523.7" y1="224.5" x2="523.7" y2="237.5" stroke="#b0b0b0" stroke-width="2.5" opacity="0.6"/>
<line x1="510.2" y1="226.5" x2="537.1" y2="226.5" stroke="#b0b0b0" stroke-width="2" opacity="0.5"/>
<line x1="510.2" y1="226.5" x2="505.7" y2="237.9" stroke="#b0b0b0" stroke-width="1.5" opacity="0.4"/>
<line x1="537.1" y1="226.5" x2="541.6" y2="237.9" stroke="#b0b0b0" stroke-width="1.5" opacity="0.4"/>
<circle cx="523.7" cy="208.4" r="8.1" fill="#b0b0b0" opacity="0.6"/>
<rect x="35.0" y="67.0" width="423.4" height="40.0" rx="6" fill="white" stroke="#2e8b57" stroke-width="1.0" opacity="0.92"/>
<polygon points="162.0,107.0 170.0,107.0 159.0,115.0" fill="white" stroke="#2e8b57" stroke-width="0.8"/>
<line x1="161.5" y1="107.0" x2="170.5" y2="107.0" stroke="white" stroke-width="1.5"/>
<text x="41.0" y="84.0" font-size="11.0" fill="#2e8b57" font-weight="700">JINK</text>
<text x="41.0" y="98.0" font-size="11.0" fill="#333333">Route clear to the second chimney stack. Turn west at the iron cowl.</text>
<rect x="703.0" y="117.0" width="62.0" height="40.0" rx="6" fill="white" stroke="#b0b0b0" stroke-width="1.0" opacity="0.92"/>
<polygon points="721.6,157.0 729.6,157.0 718.6,165.0" fill="white" stroke="#b0b0b0" stroke-width="0.8"/>
<line x1="721.1" y1="157.0" x2="730.1" y2="157.0" stroke="white" stroke-width="1.5"/>
<text x="709.0" y="134.0" font-size="11.0" fill="#b0b0b0" font-weight="700">SABLE</text>
<text x="709.0" y="148.0" font-size="11.0" fill="#333333">Copy.</text>
<text x="759.0" y="75.0" text-anchor="end" font-size="12" font-weight="bold" fill="#888888" opacity="0.6">1</text>
<text x="765.0" y="301.9" text-anchor="end" font-size="9" fill="#888888" opacity="0.5">EST</text>
<rect x="29.0" y="317.9" width="240.7" height="421.5" rx="2" fill="#f5f0e8" stroke="#2a2a2a" stroke-width="1.5"/>
<path d="M103.0,621.4 L107.2,525.4 Q111.4,521.4 136.5,521.4 L162.1,521.4 Q187.2,521.4 191.5,525.4 L195.7,621.4 Z" fill="#2e8b57" opacity="0.35"/>
<line x1="107.2" y1="593.0" x2="191.5" y2="593.0" stroke="#2e8b57" stroke-width="1" opacity="0.3"/>
<line x1="107.2" y1="525.4" x2="90.4" y2="572.8" stroke="#2e8b57" stroke-width="2" opacity="0.3"/>
<line x1="90.4" y1="572.8" x2="103.0" y2="601.2" stroke="#2e8b57" stroke-width="2" opacity="0.3"/>
<line x1="191.5" y1="525.4" x2="208.3" y2="572.8" stroke="#2e8b57" stroke-width="2" opacity="0.3"/>
<line x1="208.3" y1="572.8" x2="195.7" y2="601.2" stroke="#2e8b57" stroke-width="2" opacity="0.3"/>
<line x1="149.3" y1="463.7" x2="149.3" y2="521.4" stroke="#2e8b57" stroke-width="3" opacity="0.35"/>
<circle cx="149.3" cy="431.7" r="32.0" fill="#2e8b57" opacity="0.4"/>
<rect x="35.0" y="325.9" width="228.7" height="51.0" rx="6" fill="white" stroke="#2e8b57" stroke-width="1.0" opacity="0.92"/>
<polygon points="103.6,376.9 111.6,376.9 100.6,384.9" fill="white" stroke="#2e8b57" stroke-width="0.8"/>
<line x1="103.1" y1="376.9" x2="112.1" y2="376.9" stroke="white" stroke-width="1.5"/>
<text x="41.0" y="341.9" font-size="10.0" fill="#2e8b57" font-weight="700">JINK</text>
<text x="41.0" y="354.9" font-size="10.0" fill="#333333">I see the shop. Lights are on. He's still</text>
<text x="41.0" y="367.9" font-size="10.0" fill="#333333">inside.</text>
<rect x="35.0" y="386.9" width="228.7" height="51.0" rx="6" fill="white" stroke="#2e8b57" stroke-width="1.0" opacity="0.92"/>
<polygon points="103.6,437.9 111.6,437.9 100.6,445.9" fill="white" stroke="#2e8b57" stroke-width="0.8"/>
<line x1="103.1" y1="437.9" x2="112.1" y2="437.9" stroke="white" stroke-width="1.5"/>
<text x="41.0" y="402.9" font-size="10.0" fill="#2e8b57" font-weight="700">JINK</text>
<text x="41.0" y="415.9" font-size="10.0" fill="#333333">Lamplighter's working south to north.</text>
<text x="41.0" y="428.9" font-size="10.0" fill="#333333">He'll pass the shop in about ten minutes.</text>
<text x="257.7" y="333.9" text-anchor="end" font-size="12" font-weight="bold" fill="#888888" opacity="0.6">2</text>
<text x="263.7" y="733.5" text-anchor="end" font-size="9" fill="#888888" opacity="0.5">MED</text>
<rect x="279.7" y="317.9" width="240.7" height="421.5" rx="2" fill="#f5f0e8" stroke="#2a2a2a" stroke-width="1.5"/>
<path d="M353.7,621.4 L357.9,525.4 Q362.1,521.4 387.2,521.4 L412.8,521.4 Q437.9,521.4 442.1,525.4 L446.3,621.4 Z" fill="#b0b0b0" opacity="0.35"/>
<line x1="357.9" y1="593.0" x2="442.1" y2="593.0" stroke="#b0b0b0" stroke-width="1" opacity="0.3"/>
<line x1="357.9" y1="525.4" x2="341.0" y2="572.8" stroke="#b0b0b0" stroke-width="2" opacity="0.3"/>
<line x1="341.0" y1="572.8" x2="353.7" y2="601.2" stroke="#b0b0b0" stroke-width="2" opacity="0.3"/>
<line x1="442.1" y1="525.4" x2="459.0" y2="572.8" stroke="#b0b0b0" stroke-width="2" opacity="0.3"/>
<line x1="459.0" y1="572.8" x2="446.3" y2="601.2" stroke="#b0b0b0" stroke-width="2" opacity="0.3"/>
<line x1="400.0" y1="463.7" x2="400.0" y2="521.4" stroke="#b0b0b0" stroke-width="3" opacity="0.35"/>
<circle cx="400.0" cy="431.7" r="32.0" fill="#b0b0b0" opacity="0.4"/>
<rect x="285.7" y="325.9" width="193.5" height="51.0" rx="6" fill="white" stroke="#b0b0b0" stroke-width="1.0" opacity="0.92"/>
<polygon points="343.7,376.9 351.7,376.9 340.7,384.9" fill="white" stroke="#b0b0b0" stroke-width="0.8"/>
<line x1="343.2" y1="376.9" x2="352.2" y2="376.9" stroke="white" stroke-width="1.5"/>
<text x="291.7" y="341.9" font-size="10.0" fill="#b0b0b0" font-weight="700">SABLE</text>
<text x="291.7" y="354.9" font-size="10.0" fill="#333333">Acknowledged. Hold position until</text>
<text x="291.7" y="367.9" font-size="10.0" fill="#333333">lamplighter passes.</text>
<rect x="293.3" y="386.9" width="221.0" height="51.0" rx="6" fill="white" stroke="#c87533" stroke-width="1.0" opacity="0.92"/>
<polygon points="359.6,437.9 367.6,437.9 356.6,445.9" fill="white" stroke="#c87533" stroke-width="0.8"/>
<line x1="359.1" y1="437.9" x2="368.1" y2="437.9" stroke="white" stroke-width="1.5"/>
<text x="299.3" y="402.9" font-size="10.0" fill="#c87533" font-weight="700">WREN</text>
<text x="299.3" y="415.9" font-size="10.0" fill="#333333">We're close. Two hundred yards at this</text>
<text x="299.3" y="428.9" font-size="10.0" fill="#333333">scale.</text>
<text x="508.3" y="333.9" text-anchor="end" font-size="12" font-weight="bold" fill="#888888" opacity="0.6">3</text>
<text x="514.3" y="733.5" text-anchor="end" font-size="9" fill="#888888" opacity="0.5">MED</text>
<rect x="530.3" y="317.9" width="240.7" height="421.5" rx="2" fill="#f5f0e8" stroke="#2a2a2a" stroke-width="1.5"/>
<ellipse cx="650.7" cy="495.0" rx="96.3" ry="189.7" fill="#c0b8a8" opacity="0.18"/>
<path d="M549.6,428.6 Q650.7,276.8 751.7,428.6" fill="none" stroke="#c0b8a8" stroke-width="3" opacity="0.35"/>
<line x1="617.0" y1="453.2" x2="645.9" y2="451.2" stroke="#a89888" stroke-width="1.5" opacity="0.45"/>
<line x1="655.5" y1="451.2" x2="684.4" y2="453.2" stroke="#a89888" stroke-width="1.5" opacity="0.45"/>
<ellipse cx="623.7" cy="472.2" rx="11.6" ry="9.5" fill="#a89888" opacity="0.45"/>
<ellipse cx="677.6" cy="472.2" rx="11.6" ry="9.5" fill="#a89888" opacity="0.45"/>
<line x1="650.7" y1="498.8" x2="650.7" y2="529.1" stroke="#a89888" stroke-width="1.2" opacity="0.35"/>
<path d="M644.9,529.1 Q650.7,532.1 656.4,529.1" fill="none" stroke="#a89888" stroke-width="1" opacity="0.3"/>
<line x1="626.6" y1="555.7" x2="674.7" y2="555.7" stroke="#a89888" stroke-width="1.2" opacity="0.35"/>
<text x="759.0" y="333.9" text-anchor="end" font-size="12" font-weight="bold" fill="#888888" opacity="0.6">4</text>
<text x="765.0" y="733.5" text-anchor="end" font-size="9" fill="#888888" opacity="0.5">CU</text>
<rect x="29.0" y="749.5" width="742.0" height="421.5" rx="2" fill="#f5f0e8" stroke="#2a2a2a" stroke-width="1.5"/>
<line x1="35.0" y1="1078.3" x2="765.0" y2="1078.3" stroke="#a89888" stroke-width="1.0" opacity="0.5"/>
<ellipse cx="276.3" cy="1080.3" rx="11.2" ry="2.7" fill="#a89888" opacity="0.2"/>
<line x1="273.6" y1="1062.5" x2="269.6" y2="1078.3" stroke="#6a5acd" stroke-width="2" opacity="0.5"/>
<line x1="279.0" y1="1062.5" x2="283.1" y2="1078.3" stroke="#6a5acd" stroke-width="2" opacity="0.5"/>
<line x1="276.3" y1="1049.5" x2="276.3" y2="1062.5" stroke="#6a5acd" stroke-width="2.5" opacity="0.6"/>
<line x1="262.8" y1="1051.5" x2="289.8" y2="1051.5" stroke="#6a5acd" stroke-width="2" opacity="0.5"/>
<line x1="262.8" y1="1051.5" x2="258.3" y2="1063.0" stroke="#6a5acd" stroke-width="1.5" opacity="0.4"/>
<line x1="289.8" y1="1051.5" x2="294.3" y2="1063.0" stroke="#6a5acd" stroke-width="1.5" opacity="0.4"/>
<circle cx="276.3" cy="1033.3" r="8.1" fill="#6a5acd" opacity="0.6"/>
<ellipse cx="523.7" cy="1080.3" rx="11.2" ry="2.7" fill="#a89888" opacity="0.2"/>
<line x1="521.0" y1="1062.5" x2="516.9" y2="1078.3" stroke="#b22222" stroke-width="2" opacity="0.5"/>
<line x1="526.4" y1="1062.5" x2="530.4" y2="1078.3" stroke="#b22222" stroke-width="2" opacity="0.5"/>
<line x1="523.7" y1="1049.5" x2="523.7" y2="1062.5" stroke="#b22222" stroke-width="2.5" opacity="0.6"/>
<line x1="510.2" y1="1051.5" x2="537.2" y2="1051.5" stroke="#b22222" stroke-width="2" opacity="0.5"/>
<line x1="510.2" y1="1051.5" x2="505.7" y2="1063.0" stroke="#b22222" stroke-width="1.5" opacity="0.4"/>
<line x1="537.2" y1="1051.5" x2="541.7" y2="1063.0" stroke="#b22222" stroke-width="1.5" opacity="0.4"/>
<circle cx="523.7" cy="1033.3" r="8.1" fill="#b22222" opacity="0.6"/>
<rect x="35.0" y="757.5" width="381.1" height="40.0" rx="6" fill="white" stroke="#6a5acd" stroke-width="1.0" opacity="0.92"/>
<polygon points="149.3,797.5 157.3,797.5 146.3,805.5" fill="white" stroke="#6a5acd" stroke-width="0.8"/>
<line x1="148.8" y1="797.5" x2="157.8" y2="797.5" stroke="white" stroke-width="1.5"/>
<text x="41.0" y="774.5" font-size="11.0" fill="#6a5acd" font-weight="700">LUMA</text>
<text x="41.0" y="788.5" font-size="11.0" fill="#333333">Heart rates nominal. Thresh, your pulse is elevated. Breathe.</text>
<rect x="698.5" y="807.5" width="66.5" height="40.0" rx="6" fill="white" stroke="#b22222" stroke-width="1.0" opacity="0.92"/>
<polygon points="718.5,847.5 726.5,847.5 715.5,855.5" fill="white" stroke="#b22222" stroke-width="0.8"/>
<line x1="718.0" y1="847.5" x2="727.0" y2="847.5" stroke="white" stroke-width="1.5"/>
<text x="704.5" y="824.5" font-size="11.0" fill="#b22222" font-weight="700">THRESH</text>
<text x="704.5" y="838.5" font-size="11.0" fill="#333333">I'm fine.</text>
<text x="759.0" y="765.5" text-anchor="end" font-size="12" font-weight="bold" fill="#888888" opacity="0.6">5</text>
<text x="765.0" y="1165.0" text-anchor="end" font-size="9" fill="#888888" opacity="0.5">WIDE</text>
</svg>