<svg xmlns="http://www.w3.org/2000/svg" viewBox="0 0 800 1200" width="800" height="1200" style="background:#ffffff">
<style>
  text { font-family: "Helvetica Neue", Helvetica, Arial, sans-serif; }
</style>
<text x="400.0" y="22" text-anchor="middle" font-size="16" fill="#888888" font-weight="500">PAGE 22  (3 panels)</text>
<rect x="29.0" y="59.0" width="742.0" height="663.2" rx="2" fill="#f5f0e8" stroke="#2a2a2a" stroke-width="1.5"/>
<line x1="35.0" y1="576.3" x2="765.0" y2="576.3" stroke="#a89888" stroke-width="1.0" opacity="0.5"/>
<ellipse cx="400.0" cy="578.3" rx="11.2" ry="2.7" fill="#a89888" opacity="0.2"/>
<line x1="397.3" y1="560.5" x2="393.2" y2="576.3" stroke="#c87533" stroke-width="2" opacity="0.5"/>
<line x1="402.7" y1="560.5" x2="406.8" y2="576.3" stroke="#c87533" stroke-width="2" opacity="0.5"/>
<line x1="400.0" y1="547.5" x2="400.0" y2="560.5" stroke="#c87533" stroke-width="2.5" opacity="0.6"/>
<line x1="386.5" y1="549.5" x2="413.5" y2="549.5" stroke="#c87533" stroke-width="2" opacity="0.5"/>
<line x1="386.5" y1="549.5" x2="382.0" y2="561.0" stroke="#c87533" stroke-width="1.5" opacity="0.4"/>
<line x1="413.5" y1="549.5" x2="418.0" y2="561.0" stroke="#c87533" stroke-width="1.5" opacity="0.4"/>
<circle cx="400.0" cy="531.3" r="8.1" fill="#c87533" opacity="0.6"/>
<rect x="35.0" y="67.0" width="586.8" height="40.0" rx="6" fill="white" stroke="#c87533" stroke-width="1.0" opacity="0.92"/>
<polygon points="211.0,107.0 219.0,107.0 208.0,115.0" fill="white" stroke="#c87533" stroke-width="0.8"/>
<line x1="210.5" y1="107.0" x2="219.5" y2="107.0" stroke="white" stroke-width="1.5"/>
<text x="41.0" y="84.0" font-size="11.0" fill="#c87533" font-weight="700">WREN</text>
<text x="41.0" y="98.0" font-size="11.0" fill="#333333">Bimetallic strip for temperature compensation. The brass and steel expand at different rates...</text>
<rect x="414.2" y="117.0" width="350.8" height="40.0" rx="6" fill="white" stroke="#c87533" stroke-width="1.0" opacity="0.92"/>
<polygon points="519.4,157.0 527.4,157.0 516.4,165.0" fill="white" stroke="#c87533" stroke-width="0.8"/>
<line x1="518.9" y1="157.0" x2="527.9" y2="157.0" stroke="white" stroke-width="1.5"/>
<text x="420.2" y="134.0" font-size="11.0" fill="#c87533" font-weight="700">WREN</text>
<text x="420.2" y="148.0" font-size="11.0" fill="#333333">...and he calibrated the ratio by trial. Years of trial.</text>
<rect x="35.0" y="167.0" width="211.7" height="40.0" rx="6" fill="white" stroke="#c87533" stroke-width="1.0" opacity="0.92"/>
<polygon points="98.5,207.0 106.5,207.0 95.5,215.0" fill="white" stroke="#c87533" stroke-width="0.8"/>
<line x1="98.0" y1="207.0" x2="107.0" y2="207.0" stroke="white" stroke-width="1.5"/>
<text x="41.0" y="184.0" font-size="11.0" fill="#c87533" font-weight="700">WREN</text>
<text x="41.0" y="198.0" font-size="11.0" fill="#333333">I would not have thought of that.</text>
<text x="759.0" y="75.0" text-anchor="end" font-size="12" font-weight="bold" fill="#888888" opacity="0.6">1</text>
<text x="765.0" y="716.2" text-anchor="end" font-size="9" fill="#888888" opacity="0.5">EST</text>
<rect x="29.0" y="732.2" width="493.8" height="438.8" rx="2" fill="#f5f0e8" stroke="#2a2a2a" stroke-width="1.5"/>
<path d="M153.1,1061.3 Q153.1,999.9 245.2,992.2 L306.6,992.2 Q398.8,999.9 398.8,1061.3 L398.8,1118.3 L153.1,1118.3 Z" fill="#c87533" opacity="0.25"/>
<path d="M249.0,992.2 L275.9,1030.6 L302.8,992.2" fill="none" stroke="#c87533" stroke-width="1" opacity="0.3"/>
<circle cx="275.9" cy="907.7" r="76.8" fill="#c87533" opacity="0.35"/>
<path d="M199.1,923.1 Q210.6,992.2 275.9,996.0 Q341.2,992.2 352.7,923.1" fill="none" stroke="#c87533" stroke-width="1.2" opacity="0.3"/>
<path d="M195.3,900.0 Q275.9,807.9 356.5,900.0" fill="none" stroke="#c87533" stroke-width="2" opacity="0.4"/>
<ellipse cx="197.1" cy="911.6" rx="2.5" ry="4" fill="#c87533" opacity="0.25"/>
<ellipse cx="354.7" cy="911.6" rx="2.5" ry="4" fill="#c87533" opacity="0.25"/>
<rect x="35.0" y="740.2" width="102.8" height="40.0" rx="6" fill="white" stroke="#c87533" stroke-width="1.0" opacity="0.92"/>
<polygon points="65.8,780.2 73.8,780.2 62.8,788.2" fill="white" stroke="#c87533" stroke-width="0.8"/>
<line x1="65.3" y1="780.2" x2="74.3" y2="780.2" stroke="white" stroke-width="1.5"/>
<text x="41.0" y="757.2" font-size="11.0" fill="#c87533" font-weight="700">WREN</text>
<text x="41.0" y="771.2" font-size="11.0" fill="#333333">It's beautiful.</text>
<text x="510.8" y="748.2" text-anchor="end" font-size="12" font-weight="bold" fill="#888888" opacity="0.6">2</text>
<text x="516.8" y="1165.0" text-anchor="end" font-size="9" fill="#888888" opacity="0.5">MCU</text>
<rect x="532.8" y="732.2" width="238.2" height="438.8" rx="2" fill="#f5f0e8" stroke="#2a2a2a" stroke-width="1.5"/>
<ellipse cx="651.9" cy="916.5" rx="95.3" ry="197.5" fill="#c0b8a8" opacity="0.18"/>
<path d="M551.9,847.4 Q651.9,689.4 751.9,847.4" fill="none" stroke="#c0b8a8" stroke-width="3" opacity="0.35"/>
<line x1="618.6" y1="873.1" x2="647.2" y2="871.1" stroke="#a89888" stroke-width="1.5" opacity="0.45"/>
<line x1="656.7" y1="871.1" x2="685.3" y2="873.1" stroke="#a89888" stroke-width="1.5" opacity="0.45"/>
<ellipse cx="625.2" cy="892.8" rx="11.4" ry="9.9" fill="#a89888" opacity="0.45"/>
<ellipse cx="678.6" cy="892.8" rx="11.4" ry="9.9" fill="#a89888" opacity="0.45"/>
<line x1="651.9" y1="920.4" x2="651.9" y2="952.0" stroke="#a89888" stroke-width="1.2" opacity="0.35"/>
<path d="M646.2,952.0 Q651.9,955.0 657.6,952.0" fill="none" stroke="#a89888" stroke-width="1" opacity="0.3"/>
<line x1="628.1" y1="979.7" x2="675.7" y2="979.7" stroke="#a89888" stroke-width="1.2" opacity="0.35"/>
<rect x="538.8" y="740.2" width="171.5" height="38.0" rx="2" fill="#f5ecd8" stroke="#c8b898" stroke-width="0.8" opacity="0.92"/>
<text x="544.8" y="756.2" font-size="10.0" fill="#5a4a30" font-style="italic" font-weight="500">CAPTION</text>
<text x="544.8" y="769.2" font-size="10.0" fill="#5a4a30" font-style="italic">She did not sleep that night.</text>
<rect x="538.8" y="782.2" width="78.0" height="38.0" rx="2" fill="#f5ecd8" stroke="#c8b898" stroke-width="0.8" opacity="0.92"/>
<text x="544.8" y="798.2" font-size="10.0" fill="#5a4a30" font-style="italic" font-weight="500">CAPTION</text>
<text x="544.8" y="811.2" font-size="10.0" fill="#5a4a30" font-style="italic">She studied.</text>
<text x="759.0" y="748.2" text-anchor="end" font-size="12" font-weight="bold" fill="#888888" opacity="0.6">3</text>
<text x="765.0" y="1165.0" text-anchor="end" font-size="9" fill="#888888" opacity="0.5">CU</text>
</svg>