<svg xmlns="http://www.w3.org/2000/svg" viewBox="0 0 800 1200" width="800" height="1200" style="background:#ffffff">
<style>
  text { font-family: "Helvetica Neue", Helvetica, Arial, sans-serif; }
</style>
<text x="400.0" y="22" text-anchor="middle" font-size="16" fill="#888888" font-weight="500">PAGE 7  (5 panels)</text>
<rect x="29.0" y="59.0" width="742.0" height="310.6" rx="2" fill="#f5f0e8" stroke="#2a2a2a" stroke-width="1.5"/>
<path d="M350.0,282.6 L354.6,243.5 Q359.1,239.5 386.2,239.5 L413.8,239.5 Q440.9,239.5 445.4,243.5 L450.0,282.6 Z" fill="#c87533" opacity="0.35"/>
<line x1="354.6" y1="261.6" x2="445.4" y2="261.6" stroke="#c87533" stroke-width="1" opacity="0.3"/>
<line x1="354.6" y1="243.5" x2="336.4" y2="278.4" stroke="#c87533" stroke-width="2" opacity="0.3"/>
<line x1="336.4" y1="278.4" x2="350.0" y2="299.4" stroke="#c87533" stroke-width="2" opacity="0.3"/>
<line x1="445.4" y1="243.5" x2="463.6" y2="278.4" stroke="#c87533" stroke-width="2" opacity="0.3"/>
<line x1="463.6" y1="278.4" x2="450.0" y2="299.4" stroke="#c87533" stroke-width="2" opacity="0.3"/>
<line x1="400.0" y1="177.4" x2="400.0" y2="239.5" stroke="#c87533" stroke-width="3" opacity="0.35"/>
<circle cx="400.0" cy="142.9" r="34.5" fill="#c87533" opacity="0.4"/>
<rect x="35.0" y="67.0" width="641.2" height="40.0" rx="6" fill="white" stroke="#c87533" stroke-width="1.0" opacity="0.92"/>
<polygon points="227.4,107.0 235.4,107.0 224.4,115.0" fill="white" stroke="#c87533" stroke-width="0.8"/>
<line x1="226.9" y1="107.0" x2="235.9" y2="107.0" stroke="white" stroke-width="1.5"/>
<text x="41.0" y="84.0" font-size="11.0" fill="#c87533" font-weight="700">WREN</text>
<text x="41.0" y="98.0" font-size="11.0" fill="#333333">Entry point is sound. Wall cavity behind — timber lath and plaster. I can see through to the shop floor.</text>
<rect x="698.5" y="117.0" width="66.5" height="40.0" rx="6" fill="white" stroke="#c87533" stroke-width="1.0" opacity="0.92"/>
<polygon points="718.5,157.0 726.5,157.0 715.5,165.0" fill="white" stroke="#c87533" stroke-width="0.8"/>
<line x1="718.0" y1="157.0" x2="727.0" y2="157.0" stroke="white" stroke-width="1.5"/>
<text x="704.5" y="134.0" font-size="11.0" fill="#c87533" font-weight="700">WREN</text>
<text x="704.5" y="148.0" font-size="11.0" fill="#333333">Going in.</text>
<rect x="35.0" y="167.0" width="229.8" height="40.0" rx="6" fill="white" stroke="#b0b0b0" stroke-width="1.0" opacity="0.92"/>
<polygon points="103.9,207.0 111.9,207.0 100.9,215.0" fill="white" stroke="#b0b0b0" stroke-width="0.8"/>
<line x1="103.4" y1="207.0" x2="112.4" y2="207.0" stroke="white" stroke-width="1.5"/>
<text x="41.0" y="184.0" font-size="11.0" fill="#b0b0b0" font-weight="700">SABLE</text>
<text x="41.0" y="198.0" font-size="11.0" fill="#333333">Copy. Comms check every two minutes.</text>
<text x="759.0" y="75.0" text-anchor="end" font-size="12" font-weight="bold" fill="#888888" opacity="0.6">1</text>
<text x="765.0" y="363.6" text-anchor="end" font-size="9" fill="#888888" opacity="0.5">MW</text>
<rect x="29.0" y="379.6" width="366.0" height="310.6" rx="2" fill="#f5f0e8" stroke="#2a2a2a" stroke-width="1.5"/>
<path d="M162.0,603.2 L166.6,564.1 Q171.1,560.1 198.2,560.1 L225.8,560.1 Q252.9,560.1 257.4,564.1 L262.0,603.2 Z" fill="#c87533" opacity="0.35"/>
<line x1="166.6" y1="582.2" x2="257.4" y2="582.2" stroke="#c87533" stroke-width="1" opacity="0.3"/>
<line x1="166.6" y1="564.1" x2="148.4" y2="599.0" stroke="#c87533" stroke-width="2" opacity="0.3"/>
<line x1="148.4" y1="599.0" x2="162.0" y2="620.0" stroke="#c87533" stroke-width="2" opacity="0.3"/>
<line x1="257.4" y1="564.1" x2="275.6" y2="599.0" stroke="#c87533" stroke-width="2" opacity="0.3"/>
<line x1="275.6" y1="599.0" x2="262.0" y2="620.0" stroke="#c87533" stroke-width="2" opacity="0.3"/>
<line x1="212.0" y1="497.9" x2="212.0" y2="560.1" stroke="#c87533" stroke-width="3" opacity="0.35"/>
<circle cx="212.0" cy="463.4" r="34.5" fill="#c87533" opacity="0.4"/>
<rect x="35.0" y="387.6" width="344.8" height="40.0" rx="6" fill="white" stroke="#c87533" stroke-width="1.0" opacity="0.92"/>
<polygon points="138.4,427.6 146.4,427.6 135.4,435.6" fill="white" stroke="#c87533" stroke-width="0.8"/>
<line x1="137.9" y1="427.6" x2="146.9" y2="427.6" stroke="white" stroke-width="1.5"/>
<text x="41.0" y="404.6" font-size="11.0" fill="#c87533" font-weight="700">WREN</text>
<text x="41.0" y="418.6" font-size="11.0" fill="#333333">Inside the wall. Moving to the shop floor access point.</text>
<text x="383.0" y="395.6" text-anchor="end" font-size="12" font-weight="bold" fill="#888888" opacity="0.6">2</text>
<text x="389.0" y="684.1" text-anchor="end" font-size="9" fill="#888888" opacity="0.5">MED</text>
<rect x="405.0" y="379.6" width="366.0" height="310.6" rx="2" fill="#f5f0e8" stroke="#2a2a2a" stroke-width="1.5"/>
<path d="M501.0,612.5 Q501.0,569.0 566.3,563.6 L609.7,563.6 Q675.0,569.0 675.0,612.5 L675.0,652.9 L501.0,652.9 Z" fill="#c87533" opacity="0.25"/>
<path d="M569.0,563.6 L588.0,590.8 L607.0,563.6" fill="none" stroke="#c87533" stroke-width="1" opacity="0.3"/>
<circle cx="588.0" cy="503.8" r="54.3" fill="#c87533" opacity="0.35"/>
<path d="M533.6,514.7 Q541.8,563.6 588.0,566.3 Q634.2,563.6 642.4,514.7" fill="none" stroke="#c87533" stroke-width="1.2" opacity="0.3"/>
<path d="M530.9,498.4 Q588.0,433.1 645.1,498.4" fill="none" stroke="#c87533" stroke-width="2" opacity="0.4"/>
<ellipse cx="531.6" cy="506.5" rx="2.5" ry="4" fill="#c87533" opacity="0.25"/>
<ellipse cx="644.4" cy="506.5" rx="2.5" ry="4" fill="#c87533" opacity="0.25"/>
<rect x="411.0" y="387.6" width="354.0" height="54.0" rx="6" fill="white" stroke="#c87533" stroke-width="1.0" opacity="0.92"/>
<polygon points="517.2,441.6 525.2,441.6 514.2,449.6" fill="white" stroke="#c87533" stroke-width="0.8"/>
<line x1="516.7" y1="441.6" x2="525.7" y2="441.6" stroke="white" stroke-width="1.5"/>
<text x="417.0" y="404.6" font-size="11.0" fill="#c87533" font-weight="700">WREN</text>
<text x="417.0" y="418.6" font-size="11.0" fill="#333333">I see the clock. Twenty feet of open floor between me and</text>
<text x="417.0" y="432.6" font-size="11.0" fill="#333333">the target. The clockmaker is at his bench.</text>
<rect x="595.7" y="451.6" width="169.3" height="40.0" rx="6" fill="white" stroke="#c87533" stroke-width="1.0" opacity="0.92"/>
<polygon points="646.5,491.6 654.5,491.6 643.5,499.6" fill="white" stroke="#c87533" stroke-width="0.8"/>
<line x1="646.0" y1="491.6" x2="655.0" y2="491.6" stroke="white" stroke-width="1.5"/>
<text x="601.7" y="468.6" font-size="11.0" fill="#c87533" font-weight="700">WREN</text>
<text x="601.7" y="482.6" font-size="11.0" fill="#333333">I'll wait for him to move.</text>
<text x="759.0" y="395.6" text-anchor="end" font-size="12" font-weight="bold" fill="#888888" opacity="0.6">3</text>
<text x="765.0" y="684.1" text-anchor="end" font-size="9" fill="#888888" opacity="0.5">MCU</text>
<rect x="29.0" y="700.1" width="742.0" height="310.6" rx="2" fill="#f5f0e8" stroke="#2a2a2a" stroke-width="1.5"/>
<line x1="35.0" y1="942.4" x2="765.0" y2="942.4" stroke="#a89888" stroke-width="1.0" opacity="0.5"/>
<ellipse cx="214.5" cy="944.4" rx="11.2" ry="2.7" fill="#a89888" opacity="0.2"/>
<line x1="211.8" y1="926.6" x2="207.8" y2="942.4" stroke="#c0b8a8" stroke-width="2" opacity="0.5"/>
<line x1="217.2" y1="926.6" x2="221.2" y2="942.4" stroke="#c0b8a8" stroke-width="2" opacity="0.5"/>
<line x1="214.5" y1="913.6" x2="214.5" y2="926.6" stroke="#c0b8a8" stroke-width="2.5" opacity="0.6"/>
<line x1="201.0" y1="915.6" x2="228.0" y2="915.6" stroke="#c0b8a8" stroke-width="2" opacity="0.5"/>
<line x1="201.0" y1="915.6" x2="196.5" y2="927.1" stroke="#c0b8a8" stroke-width="1.5" opacity="0.4"/>
<line x1="228.0" y1="915.6" x2="232.5" y2="927.1" stroke="#c0b8a8" stroke-width="1.5" opacity="0.4"/>
<circle cx="214.5" cy="897.4" r="8.1" fill="#c0b8a8" opacity="0.6"/>
<ellipse cx="400.0" cy="944.4" rx="11.2" ry="2.7" fill="#a89888" opacity="0.2"/>
<line x1="397.3" y1="926.6" x2="393.2" y2="942.4" stroke="#c0b8a8" stroke-width="2" opacity="0.5"/>
<line x1="402.7" y1="926.6" x2="406.8" y2="942.4" stroke="#c0b8a8" stroke-width="2" opacity="0.5"/>
<line x1="400.0" y1="913.6" x2="400.0" y2="926.6" stroke="#c0b8a8" stroke-width="2.5" opacity="0.6"/>
<line x1="386.5" y1="915.6" x2="413.5" y2="915.6" stroke="#c0b8a8" stroke-width="2" opacity="0.5"/>
<line x1="386.5" y1="915.6" x2="382.0" y2="927.1" stroke="#c0b8a8" stroke-width="1.5" opacity="0.4"/>
<line x1="413.5" y1="915.6" x2="418.0" y2="927.1" stroke="#c0b8a8" stroke-width="1.5" opacity="0.4"/>
<circle cx="400.0" cy="897.4" r="8.1" fill="#c0b8a8" opacity="0.6"/>
<ellipse cx="585.5" cy="944.4" rx="11.2" ry="2.7" fill="#a89888" opacity="0.2"/>
<line x1="582.8" y1="926.6" x2="578.8" y2="942.4" stroke="#c0b8a8" stroke-width="2" opacity="0.5"/>
<line x1="588.2" y1="926.6" x2="592.2" y2="942.4" stroke="#c0b8a8" stroke-width="2" opacity="0.5"/>
<line x1="585.5" y1="913.6" x2="585.5" y2="926.6" stroke="#c0b8a8" stroke-width="2.5" opacity="0.6"/>
<line x1="572.0" y1="915.6" x2="599.0" y2="915.6" stroke="#c0b8a8" stroke-width="2" opacity="0.5"/>
<line x1="572.0" y1="915.6" x2="567.5" y2="927.1" stroke="#c0b8a8" stroke-width="1.5" opacity="0.4"/>
<line x1="599.0" y1="915.6" x2="603.5" y2="927.1" stroke="#c0b8a8" stroke-width="1.5" opacity="0.4"/>
<circle cx="585.5" cy="897.4" r="8.1" fill="#c0b8a8" opacity="0.6"/>
<rect x="35.0" y="708.1" width="399.2" height="40.0" rx="2" fill="#f5ecd8" stroke="#c8b898" stroke-width="0.8" opacity="0.92"/>
<text x="41.0" y="725.1" font-size="11.0" fill="#5a4a30" font-style="italic" font-weight="500">CAPTION</text>
<text x="41.0" y="739.1" font-size="11.0" fill="#5a4a30" font-style="italic">The workshop of Hoskins and Sons. Precision horology since 1847.</text>
<text x="759.0" y="716.1" text-anchor="end" font-size="12" font-weight="bold" fill="#888888" opacity="0.6">4</text>
<text x="765.0" y="1004.7" text-anchor="end" font-size="9" fill="#888888" opacity="0.5">EST</text>
<rect x="29.0" y="1020.7" width="742.0" height="150.3" rx="2" fill="#f5f0e8" stroke="#2a2a2a" stroke-width="1.5"/>
<ellipse cx="400.0" cy="1083.8" rx="47.3" ry="67.6" fill="#c87533" opacity="0.18"/>
<path d="M350.3,1060.2 Q400.0,1006.1 449.7,1060.2" fill="none" stroke="#c87533" stroke-width="3" opacity="0.35"/>
<line x1="383.4" y1="1069.0" x2="397.6" y2="1067.0" stroke="#a89888" stroke-width="1.5" opacity="0.45"/>
<line x1="402.4" y1="1067.0" x2="416.6" y2="1069.0" stroke="#a89888" stroke-width="1.5" opacity="0.45"/>
<ellipse cx="386.7" cy="1075.7" rx="5.7" ry="3.4" fill="#a89888" opacity="0.45"/>
<ellipse cx="413.3" cy="1075.7" rx="5.7" ry="3.4" fill="#a89888" opacity="0.45"/>
<line x1="400.0" y1="1085.2" x2="400.0" y2="1096.0" stroke="#a89888" stroke-width="1.2" opacity="0.35"/>
<path d="M397.2,1096.0 Q400.0,1099.0 402.8,1096.0" fill="none" stroke="#a89888" stroke-width="1" opacity="0.3"/>
<line x1="388.2" y1="1105.5" x2="411.8" y2="1105.5" stroke="#a89888" stroke-width="1.2" opacity="0.35"/>
<rect x="35.0" y="1028.7" width="62.0" height="40.0" rx="6" fill="white" stroke="#c87533" stroke-width="1.0" opacity="0.92"/>
<polygon points="53.6,1068.7 61.6,1068.7 50.6,1076.7" fill="white" stroke="#c87533" stroke-width="0.8"/>
<line x1="53.1" y1="1068.7" x2="62.1" y2="1068.7" stroke="white" stroke-width="1.5"/>
<text x="41.0" y="1045.7" font-size="11.0" fill="#c87533" font-weight="700">WREN</text>
<text x="41.0" y="1059.7" font-size="11.0" fill="#333333">Moving.</text>
<text x="759.0" y="1036.7" text-anchor="end" font-size="12" font-weight="bold" fill="#888888" opacity="0.6">5</text>
<text x="765.0" y="1165.0" text-anchor="end" font-size="9" fill="#888888" opacity="0.5">CU</text>
</svg>