<svg xmlns="http://www.w3.org/2000/svg" viewBox="0 0 800 1200" width="800" height="1200" style="background:#ffffff">
<style>
  text { font-family: "Helvetica Neue", Helvetica, Arial, sans-serif; }
</style>
<text x="400.0" y="22" text-anchor="middle" font-size="16" fill="#888888" font-weight="500">PAGE 18  (4 panels)</text>
<rect x="29.0" y="59.0" width="742.0" height="470.9" rx="2" fill="#f5f0e8" stroke="#2a2a2a" stroke-width="1.5"/>
<path d="M324.3,398.0 L331.1,336.7 Q338.0,332.7 379.1,332.7 L420.9,332.7 Q462.0,332.7 468.9,336.7 L475.7,398.0 Z" fill="#999999" opacity="0.35"/>
<line x1="331.1" y1="366.2" x2="468.9" y2="366.2" stroke="#999999" stroke-width="1" opacity="0.3"/>
<line x1="331.1" y1="336.7" x2="303.6" y2="389.6" stroke="#999999" stroke-width="2" opacity="0.3"/>
<line x1="303.6" y1="389.6" x2="324.3" y2="421.4" stroke="#999999" stroke-width="2" opacity="0.3"/>
<line x1="468.9" y1="336.7" x2="496.4" y2="389.6" stroke="#999999" stroke-width="2" opacity="0.3"/>
<line x1="496.4" y1="389.6" x2="475.7" y2="421.4" stroke="#999999" stroke-width="2" opacity="0.3"/>
<line x1="400.0" y1="238.5" x2="400.0" y2="332.7" stroke="#999999" stroke-width="3" opacity="0.35"/>
<circle cx="400.0" cy="186.1" r="52.3" fill="#999999" opacity="0.4"/>
<rect x="35.0" y="67.0" width="423.4" height="40.0" rx="6" fill="white" stroke="#999999" stroke-width="1.0" opacity="0.92"/>
<polygon points="162.0,107.0 170.0,107.0 159.0,115.0" fill="white" stroke="#999999" stroke-width="0.8"/>
<line x1="161.5" y1="107.0" x2="170.5" y2="107.0" stroke="white" stroke-width="1.5"/>
<text x="41.0" y="84.0" font-size="11.0" fill="#999999" font-weight="700">CLOCKMAKER</text>
<text x="41.0" y="98.0" font-size="11.0" fill="#333333">You've a good eye, lad. Better than most apprentices twice your age.</text>
<rect x="619.9" y="117.0" width="145.1" height="40.0" rx="6" fill="white" stroke="#c49a6c" stroke-width="1.0" opacity="0.92"/>
<polygon points="663.4,157.0 671.4,157.0 660.4,165.0" fill="white" stroke="#c49a6c" stroke-width="0.8"/>
<line x1="662.9" y1="157.0" x2="671.9" y2="157.0" stroke="white" stroke-width="1.5"/>
<text x="625.9" y="134.0" font-size="11.0" fill="#c49a6c" font-weight="700">THEODORE</text>
<text x="625.9" y="148.0" font-size="11.0" fill="#333333">Thank you, sir. Truly.</text>
<rect x="35.0" y="167.0" width="459.7" height="40.0" rx="6" fill="white" stroke="#999999" stroke-width="1.0" opacity="0.92"/>
<polygon points="172.9,207.0 180.9,207.0 169.9,215.0" fill="white" stroke="#999999" stroke-width="0.8"/>
<line x1="172.4" y1="207.0" x2="181.4" y2="207.0" stroke="white" stroke-width="1.5"/>
<text x="41.0" y="184.0" font-size="11.0" fill="#999999" font-weight="700">CLOCKMAKER</text>
<text x="41.0" y="198.0" font-size="11.0" fill="#333333">If you've a mind to learn proper clockwork, you come back. Daylight hours.</text>
<rect x="474.7" y="217.0" width="290.3" height="40.0" rx="6" fill="white" stroke="#999999" stroke-width="1.0" opacity="0.92"/>
<polygon points="561.8,257.0 569.8,257.0 558.8,265.0" fill="white" stroke="#999999" stroke-width="0.8"/>
<line x1="561.3" y1="257.0" x2="570.3" y2="257.0" stroke="white" stroke-width="1.5"/>
<text x="480.7" y="234.0" font-size="11.0" fill="#999999" font-weight="700">CLOCKMAKER</text>
<text x="480.7" y="248.0" font-size="11.0" fill="#333333">I could use someone who sees how things think.</text>
<text x="759.0" y="75.0" text-anchor="end" font-size="12" font-weight="bold" fill="#888888" opacity="0.6">1</text>
<text x="765.0" y="523.9" text-anchor="end" font-size="9" fill="#888888" opacity="0.5">MED</text>
<rect x="29.0" y="539.9" width="742.0" height="310.6" rx="2" fill="#f5f0e8" stroke="#2a2a2a" stroke-width="1.5"/>
<line x1="35.0" y1="782.1" x2="765.0" y2="782.1" stroke="#a89888" stroke-width="1.0" opacity="0.5"/>
<ellipse cx="276.3" cy="784.1" rx="11.2" ry="2.7" fill="#a89888" opacity="0.2"/>
<line x1="273.6" y1="766.4" x2="269.6" y2="782.1" stroke="#2e8b57" stroke-width="2" opacity="0.5"/>
<line x1="279.0" y1="766.4" x2="283.1" y2="782.1" stroke="#2e8b57" stroke-width="2" opacity="0.5"/>
<line x1="276.3" y1="753.3" x2="276.3" y2="766.4" stroke="#2e8b57" stroke-width="2.5" opacity="0.6"/>
<line x1="262.8" y1="755.3" x2="289.8" y2="755.3" stroke="#2e8b57" stroke-width="2" opacity="0.5"/>
<line x1="262.8" y1="755.3" x2="258.3" y2="766.8" stroke="#2e8b57" stroke-width="1.5" opacity="0.4"/>
<line x1="289.8" y1="755.3" x2="294.3" y2="766.8" stroke="#2e8b57" stroke-width="1.5" opacity="0.4"/>
<circle cx="276.3" cy="737.1" r="8.1" fill="#2e8b57" opacity="0.6"/>
<ellipse cx="523.7" cy="784.1" rx="11.2" ry="2.7" fill="#a89888" opacity="0.2"/>
<line x1="521.0" y1="766.4" x2="516.9" y2="782.1" stroke="#c49a6c" stroke-width="2" opacity="0.5"/>
<line x1="526.4" y1="766.4" x2="530.4" y2="782.1" stroke="#c49a6c" stroke-width="2" opacity="0.5"/>
<line x1="523.7" y1="753.3" x2="523.7" y2="766.4" stroke="#c49a6c" stroke-width="2.5" opacity="0.6"/>
<line x1="510.2" y1="755.3" x2="537.2" y2="755.3" stroke="#c49a6c" stroke-width="2" opacity="0.5"/>
<line x1="510.2" y1="755.3" x2="505.7" y2="766.8" stroke="#c49a6c" stroke-width="1.5" opacity="0.4"/>
<line x1="537.2" y1="755.3" x2="541.7" y2="766.8" stroke="#c49a6c" stroke-width="1.5" opacity="0.4"/>
<circle cx="523.7" cy="737.1" r="8.1" fill="#c49a6c" opacity="0.6"/>
<rect x="35.0" y="547.9" width="290.3" height="40.0" rx="6" fill="white" stroke="#2e8b57" stroke-width="1.0" opacity="0.92"/>
<polygon points="122.1,587.9 130.1,587.9 119.1,595.9" fill="white" stroke="#2e8b57" stroke-width="0.8"/>
<line x1="121.6" y1="587.9" x2="130.6" y2="587.9" stroke="white" stroke-width="1.5"/>
<text x="41.0" y="564.9" font-size="11.0" fill="#2e8b57" font-weight="700">JINK</text>
<text x="41.0" y="578.9" font-size="11.0" fill="#333333">That was brilliant. The tweezers bit? Perfect.</text>
<rect x="613.9" y="597.9" width="151.2" height="40.0" rx="6" fill="white" stroke="#c49a6c" stroke-width="1.0" opacity="0.92"/>
<polygon points="659.2,637.9 667.2,637.9 656.2,645.9" fill="white" stroke="#c49a6c" stroke-width="0.8"/>
<line x1="658.7" y1="637.9" x2="667.7" y2="637.9" stroke="white" stroke-width="1.5"/>
<text x="619.9" y="614.9" font-size="11.0" fill="#c49a6c" font-weight="700">THEODORE</text>
<text x="619.9" y="628.9" font-size="11.0" fill="#333333">He offered to teach me.</text>
<rect x="35.0" y="647.9" width="62.0" height="40.0" rx="6" fill="white" stroke="#2e8b57" stroke-width="1.0" opacity="0.92"/>
<polygon points="53.6,687.9 61.6,687.9 50.6,695.9" fill="white" stroke="#2e8b57" stroke-width="0.8"/>
<line x1="53.1" y1="687.9" x2="62.1" y2="687.9" stroke="white" stroke-width="1.5"/>
<text x="41.0" y="664.9" font-size="11.0" fill="#2e8b57" font-weight="700">JINK</text>
<text x="41.0" y="678.9" font-size="11.0" fill="#333333">...Oh.</text>
<text x="759.0" y="555.9" text-anchor="end" font-size="12" font-weight="bold" fill="#888888" opacity="0.6">2</text>
<text x="765.0" y="844.4" text-anchor="end" font-size="9" fill="#888888" opacity="0.5">WIDE</text>
<rect x="29.0" y="860.4" width="366.0" height="310.6" rx="2" fill="#f5f0e8" stroke="#2a2a2a" stroke-width="1.5"/>
<path d="M162.0,1084.0 L166.6,1044.9 Q171.1,1040.9 198.2,1040.9 L225.8,1040.9 Q252.9,1040.9 257.4,1044.9 L262.0,1084.0 Z" fill="#999999" opacity="0.35"/>
<line x1="166.6" y1="1063.1" x2="257.4" y2="1063.1" stroke="#999999" stroke-width="1" opacity="0.3"/>
<line x1="166.6" y1="1044.9" x2="148.4" y2="1079.9" stroke="#999999" stroke-width="2" opacity="0.3"/>
<line x1="148.4" y1="1079.9" x2="162.0" y2="1100.8" stroke="#999999" stroke-width="2" opacity="0.3"/>
<line x1="257.4" y1="1044.9" x2="275.6" y2="1079.9" stroke="#999999" stroke-width="2" opacity="0.3"/>
<line x1="275.6" y1="1079.9" x2="262.0" y2="1100.8" stroke="#999999" stroke-width="2" opacity="0.3"/>
<line x1="212.0" y1="978.8" x2="212.0" y2="1040.9" stroke="#999999" stroke-width="3" opacity="0.35"/>
<circle cx="212.0" cy="944.3" r="34.5" fill="#999999" opacity="0.4"/>
<rect x="35.0" y="868.4" width="66.5" height="40.0" rx="6" fill="white" stroke="#999999" stroke-width="1.0" opacity="0.92"/>
<polygon points="54.9,908.4 62.9,908.4 51.9,916.4" fill="white" stroke="#999999" stroke-width="0.8"/>
<line x1="54.4" y1="908.4" x2="63.4" y2="908.4" stroke="white" stroke-width="1.5"/>
<text x="41.0" y="885.4" font-size="11.0" fill="#999999" font-weight="700">CLOCKMAKER</text>
<text x="41.0" y="899.4" font-size="11.0" fill="#333333">Good lad.</text>
<text x="383.0" y="876.4" text-anchor="end" font-size="12" font-weight="bold" fill="#888888" opacity="0.6">3</text>
<text x="389.0" y="1165.0" text-anchor="end" font-size="9" fill="#888888" opacity="0.5">MED</text>
<rect x="405.0" y="860.4" width="366.0" height="310.6" rx="2" fill="#f5f0e8" stroke="#2a2a2a" stroke-width="1.5"/>
<path d="M538.0,1084.0 L542.6,1044.9 Q547.1,1040.9 574.2,1040.9 L601.8,1040.9 Q628.9,1040.9 633.4,1044.9 L638.0,1084.0 Z" fill="#c87533" opacity="0.35"/>
<line x1="542.6" y1="1063.1" x2="633.4" y2="1063.1" stroke="#c87533" stroke-width="1" opacity="0.3"/>
<line x1="542.6" y1="1044.9" x2="524.4" y2="1079.9" stroke="#c87533" stroke-width="2" opacity="0.3"/>
<line x1="524.4" y1="1079.9" x2="538.0" y2="1100.8" stroke="#c87533" stroke-width="2" opacity="0.3"/>
<line x1="633.4" y1="1044.9" x2="651.6" y2="1079.9" stroke="#c87533" stroke-width="2" opacity="0.3"/>
<line x1="651.6" y1="1079.9" x2="638.0" y2="1100.8" stroke="#c87533" stroke-width="2" opacity="0.3"/>
<line x1="588.0" y1="978.8" x2="588.0" y2="1040.9" stroke="#c87533" stroke-width="3" opacity="0.35"/>
<circle cx="588.0" cy="944.3" r="34.5" fill="#c87533" opacity="0.4"/>
<rect x="411.0" y="868.4" width="62.0" height="40.0" rx="6" fill="white" stroke="#c87533" stroke-width="1.0" opacity="0.92"/>
<polygon points="429.6,908.4 437.6,908.4 426.6,916.4" fill="white" stroke="#c87533" stroke-width="0.8"/>
<line x1="429.1" y1="908.4" x2="438.1" y2="908.4" stroke="white" stroke-width="1.5"/>
<text x="417.0" y="885.4" font-size="11.0" fill="#c87533" font-weight="700">WREN</text>
<text x="417.0" y="899.4" font-size="11.0" fill="#333333">Damn.</text>
<text x="759.0" y="876.4" text-anchor="end" font-size="12" font-weight="bold" fill="#888888" opacity="0.6">4</text>
<text x="765.0" y="1165.0" text-anchor="end" font-size="9" fill="#888888" opacity="0.5">MED</text>
</svg>