<svg xmlns="http://www.w3.org/2000/svg" viewBox="0 0 800 1200" width="800" height="1200" style="background:#ffffff">
<style>
  text { font-family: "Helvetica Neue", Helvetica, Arial, sans-serif; }
</style>
<text x="400.0" y="22" text-anchor="middle" font-size="16" fill="#888888" font-weight="500">PAGE 6  (4 panels)</text>
<rect x="29.0" y="59.0" width="742.0" height="421.5" rx="2" fill="#f5f0e8" stroke="#2a2a2a" stroke-width="1.5"/>
<line x1="35.0" y1="387.8" x2="765.0" y2="387.8" stroke="#a89888" stroke-width="1.0" opacity="0.5"/>
<ellipse cx="276.3" cy="389.8" rx="11.2" ry="2.7" fill="#a89888" opacity="0.2"/>
<line x1="273.6" y1="372.0" x2="269.6" y2="387.8" stroke="#b22222" stroke-width="2" opacity="0.5"/>
<line x1="279.0" y1="372.0" x2="283.1" y2="387.8" stroke="#b22222" stroke-width="2" opacity="0.5"/>
<line x1="276.3" y1="359.0" x2="276.3" y2="372.0" stroke="#b22222" stroke-width="2.5" opacity="0.6"/>
<line x1="262.8" y1="361.0" x2="289.8" y2="361.0" stroke="#b22222" stroke-width="2" opacity="0.5"/>
<line x1="262.8" y1="361.0" x2="258.3" y2="372.5" stroke="#b22222" stroke-width="1.5" opacity="0.4"/>
<line x1="289.8" y1="361.0" x2="294.3" y2="372.5" stroke="#b22222" stroke-width="1.5" opacity="0.4"/>
<circle cx="276.3" cy="342.8" r="8.1" fill="#b22222" opacity="0.6"/>
<ellipse cx="523.7" cy="389.8" rx="11.2" ry="2.7" fill="#a89888" opacity="0.2"/>
<line x1="521.0" y1="372.0" x2="516.9" y2="387.8" stroke="#b0b0b0" stroke-width="2" opacity="0.5"/>
<line x1="526.4" y1="372.0" x2="530.4" y2="387.8" stroke="#b0b0b0" stroke-width="2" opacity="0.5"/>
<line x1="523.7" y1="359.0" x2="523.7" y2="372.0" stroke="#b0b0b0" stroke-width="2.5" opacity="0.6"/>
<line x1="510.2" y1="361.0" x2="537.2" y2="361.0" stroke="#b0b0b0" stroke-width="2" opacity="0.5"/>
<line x1="510.2" y1="361.0" x2="505.7" y2="372.5" stroke="#b0b0b0" stroke-width="1.5" opacity="0.4"/>
<line x1="537.2" y1="361.0" x2="541.7" y2="372.5" stroke="#b0b0b0" stroke-width="1.5" opacity="0.4"/>
<circle cx="523.7" cy="342.8" r="8.1" fill="#b0b0b0" opacity="0.6"/>
<rect x="35.0" y="67.0" width="211.7" height="40.0" rx="6" fill="white" stroke="#b22222" stroke-width="1.0" opacity="0.92"/>
<polygon points="98.5,107.0 106.5,107.0 95.5,115.0" fill="white" stroke="#b22222" stroke-width="0.8"/>
<line x1="98.0" y1="107.0" x2="107.0" y2="107.0" stroke="white" stroke-width="1.5"/>
<text x="41.0" y="84.0" font-size="11.0" fill="#b22222" font-weight="700">THRESH</text>
<text x="41.0" y="98.0" font-size="11.0" fill="#333333">Overwatch set. I have the street.</text>
<rect x="626.0" y="117.0" width="139.1" height="40.0" rx="6" fill="white" stroke="#b22222" stroke-width="1.0" opacity="0.92"/>
<polygon points="667.7,157.0 675.7,157.0 664.7,165.0" fill="white" stroke="#b22222" stroke-width="0.8"/>
<line x1="667.2" y1="157.0" x2="676.2" y2="157.0" stroke="white" stroke-width="1.5"/>
<text x="632.0" y="134.0" font-size="11.0" fill="#b22222" font-weight="700">THRESH</text>
<text x="632.0" y="148.0" font-size="11.0" fill="#333333">It's... open up here.</text>
<rect x="35.0" y="167.0" width="278.2" height="40.0" rx="6" fill="white" stroke="#b0b0b0" stroke-width="1.0" opacity="0.92"/>
<polygon points="118.5,207.0 126.5,207.0 115.5,215.0" fill="white" stroke="#b0b0b0" stroke-width="0.8"/>
<line x1="118.0" y1="207.0" x2="127.0" y2="207.0" stroke="white" stroke-width="1.5"/>
<text x="41.0" y="184.0" font-size="11.0" fill="#b0b0b0" font-weight="700">SABLE</text>
<text x="41.0" y="198.0" font-size="11.0" fill="#333333">That's why you're there. You see everything.</text>
<text x="759.0" y="75.0" text-anchor="end" font-size="12" font-weight="bold" fill="#888888" opacity="0.6">1</text>
<text x="765.0" y="474.5" text-anchor="end" font-size="9" fill="#888888" opacity="0.5">WIDE</text>
<rect x="29.0" y="490.5" width="366.0" height="421.5" rx="2" fill="#f5f0e8" stroke="#2a2a2a" stroke-width="1.5"/>
<ellipse cx="212.0" cy="667.6" rx="132.8" ry="189.7" fill="#c0b8a8" opacity="0.18"/>
<path d="M72.6,601.2 Q212.0,449.4 351.4,601.2" fill="none" stroke="#c0b8a8" stroke-width="3" opacity="0.35"/>
<line x1="165.5" y1="625.9" x2="205.4" y2="623.9" stroke="#a89888" stroke-width="1.5" opacity="0.45"/>
<line x1="218.6" y1="623.9" x2="258.5" y2="625.9" stroke="#a89888" stroke-width="1.5" opacity="0.45"/>
<ellipse cx="174.8" cy="644.8" rx="15.9" ry="9.5" fill="#a89888" opacity="0.45"/>
<ellipse cx="249.2" cy="644.8" rx="15.9" ry="9.5" fill="#a89888" opacity="0.45"/>
<line x1="212.0" y1="671.4" x2="212.0" y2="701.7" stroke="#a89888" stroke-width="1.2" opacity="0.35"/>
<path d="M204.0,701.7 Q212.0,704.7 220.0,701.7" fill="none" stroke="#a89888" stroke-width="1" opacity="0.3"/>
<line x1="178.8" y1="728.3" x2="245.2" y2="728.3" stroke="#a89888" stroke-width="1.2" opacity="0.35"/>
<text x="383.0" y="506.5" text-anchor="end" font-size="12" font-weight="bold" fill="#888888" opacity="0.6">2</text>
<text x="389.0" y="906.1" text-anchor="end" font-size="9" fill="#888888" opacity="0.5">CU</text>
<rect x="405.0" y="490.5" width="366.0" height="421.5" rx="2" fill="#f5f0e8" stroke="#2a2a2a" stroke-width="1.5"/>
<line x1="413.0" y1="638.1" x2="763.0" y2="638.1" stroke="#a89888" stroke-width="0.6" opacity="0.2"/>
<line x1="588.0" y1="638.1" x2="441.6" y2="869.9" stroke="#a89888" stroke-width="0.8" opacity="0.25"/>
<line x1="588.0" y1="638.1" x2="514.8" y2="869.9" stroke="#a89888" stroke-width="0.8" opacity="0.25"/>
<line x1="588.0" y1="638.1" x2="562.4" y2="869.9" stroke="#a89888" stroke-width="0.8" opacity="0.25"/>
<line x1="588.0" y1="638.1" x2="613.6" y2="869.9" stroke="#a89888" stroke-width="0.8" opacity="0.25"/>
<line x1="588.0" y1="638.1" x2="661.2" y2="869.9" stroke="#a89888" stroke-width="0.8" opacity="0.25"/>
<line x1="588.0" y1="638.1" x2="734.4" y2="869.9" stroke="#a89888" stroke-width="0.8" opacity="0.25"/>
<circle cx="588.0" cy="638.1" r="3" fill="#a89888" opacity="0.3"/>
<rect x="411.0" y="498.5" width="272.2" height="40.0" rx="6" fill="white" stroke="#b22222" stroke-width="1.0" opacity="0.92"/>
<polygon points="492.6,538.5 500.6,538.5 489.6,546.5" fill="white" stroke="#b22222" stroke-width="0.8"/>
<line x1="492.1" y1="538.5" x2="501.1" y2="538.5" stroke="white" stroke-width="1.5"/>
<text x="417.0" y="515.5" font-size="11.0" fill="#b22222" font-weight="700">THRESH</text>
<text x="417.0" y="529.5" font-size="11.0" fill="#333333">Pedestrian passing. Bowler hat. He's clear.</text>
<rect x="589.6" y="548.5" width="175.4" height="40.0" rx="6" fill="white" stroke="#b22222" stroke-width="1.0" opacity="0.92"/>
<polygon points="642.3,588.5 650.3,588.5 639.3,596.5" fill="white" stroke="#b22222" stroke-width="0.8"/>
<line x1="641.8" y1="588.5" x2="650.8" y2="588.5" stroke="white" stroke-width="1.5"/>
<text x="595.6" y="565.5" font-size="11.0" fill="#b22222" font-weight="700">THRESH</text>
<text x="595.6" y="579.5" font-size="11.0" fill="#333333">Clockmaker is at his bench.</text>
<text x="759.0" y="506.5" text-anchor="end" font-size="12" font-weight="bold" fill="#888888" opacity="0.6">3</text>
<text x="765.0" y="906.1" text-anchor="end" font-size="9" fill="#888888" opacity="0.5">POV</text>
<rect x="29.0" y="922.1" width="742.0" height="248.9" rx="2" fill="#f5f0e8" stroke="#2a2a2a" stroke-width="1.5"/>
<line x1="35.0" y1="1116.2" x2="765.0" y2="1116.2" stroke="#a89888" stroke-width="1.0" opacity="0.5"/>
<ellipse cx="276.3" cy="1118.2" rx="11.2" ry="2.7" fill="#a89888" opacity="0.2"/>
<line x1="273.6" y1="1100.6" x2="269.6" y2="1116.2" stroke="#c87533" stroke-width="2" opacity="0.5"/>
<line x1="279.0" y1="1100.6" x2="283.1" y2="1116.2" stroke="#c87533" stroke-width="2" opacity="0.5"/>
<line x1="276.3" y1="1087.6" x2="276.3" y2="1100.6" stroke="#c87533" stroke-width="2.5" opacity="0.6"/>
<line x1="262.9" y1="1089.6" x2="289.8" y2="1089.6" stroke="#c87533" stroke-width="2" opacity="0.5"/>
<line x1="262.9" y1="1089.6" x2="258.4" y2="1101.0" stroke="#c87533" stroke-width="1.5" opacity="0.4"/>
<line x1="289.8" y1="1089.6" x2="294.3" y2="1101.0" stroke="#c87533" stroke-width="1.5" opacity="0.4"/>
<circle cx="276.3" cy="1071.4" r="8.1" fill="#c87533" opacity="0.6"/>
<ellipse cx="523.7" cy="1118.2" rx="11.2" ry="2.7" fill="#a89888" opacity="0.2"/>
<line x1="521.0" y1="1100.6" x2="516.9" y2="1116.2" stroke="#b0b0b0" stroke-width="2" opacity="0.5"/>
<line x1="526.4" y1="1100.6" x2="530.4" y2="1116.2" stroke="#b0b0b0" stroke-width="2" opacity="0.5"/>
<line x1="523.7" y1="1087.6" x2="523.7" y2="1100.6" stroke="#b0b0b0" stroke-width="2.5" opacity="0.6"/>
<line x1="510.2" y1="1089.6" x2="537.1" y2="1089.6" stroke="#b0b0b0" stroke-width="2" opacity="0.5"/>
<line x1="510.2" y1="1089.6" x2="505.7" y2="1101.0" stroke="#b0b0b0" stroke-width="1.5" opacity="0.4"/>
<line x1="537.1" y1="1089.6" x2="541.6" y2="1101.0" stroke="#b0b0b0" stroke-width="1.5" opacity="0.4"/>
<circle cx="523.7" cy="1071.4" r="8.1" fill="#b0b0b0" opacity="0.6"/>
<rect x="35.0" y="930.1" width="344.8" height="40.0" rx="6" fill="white" stroke="#c87533" stroke-width="1.0" opacity="0.92"/>
<polygon points="138.4,970.1 146.4,970.1 135.4,978.1" fill="white" stroke="#c87533" stroke-width="0.8"/>
<line x1="137.9" y1="970.1" x2="146.9" y2="970.1" stroke="white" stroke-width="1.5"/>
<text x="41.0" y="947.1" font-size="11.0" fill="#c87533" font-weight="700">WREN</text>
<text x="41.0" y="961.1" font-size="11.0" fill="#333333">Approaching entry point. West side of the window frame.</text>
<rect x="577.5" y="980.1" width="187.5" height="40.0" rx="6" fill="white" stroke="#b0b0b0" stroke-width="1.0" opacity="0.92"/>
<polygon points="633.8,1020.1 641.8,1020.1 630.8,1028.1" fill="white" stroke="#b0b0b0" stroke-width="0.8"/>
<line x1="633.3" y1="1020.1" x2="642.3" y2="1020.1" stroke="white" stroke-width="1.5"/>
<text x="583.5" y="997.1" font-size="11.0" fill="#b0b0b0" font-weight="700">SABLE</text>
<text x="583.5" y="1011.1" font-size="11.0" fill="#333333">You're clear. Take your time.</text>
<rect x="35.0" y="1030.1" width="84.6" height="40.0" rx="6" fill="white" stroke="#c87533" stroke-width="1.0" opacity="0.92"/>
<polygon points="60.4,1070.1 68.4,1070.1 57.4,1078.1" fill="white" stroke="#c87533" stroke-width="0.8"/>
<line x1="59.9" y1="1070.1" x2="68.9" y2="1070.1" stroke="white" stroke-width="1.5"/>
<text x="41.0" y="1047.1" font-size="11.0" fill="#c87533" font-weight="700">WREN</text>
<text x="41.0" y="1061.1" font-size="11.0" fill="#333333">I intend to.</text>
<text x="759.0" y="938.1" text-anchor="end" font-size="12" font-weight="bold" fill="#888888" opacity="0.6">4</text>
<text x="765.0" y="1165.0" text-anchor="end" font-size="9" fill="#888888" opacity="0.5">WIDE</text>
</svg>