<svg xmlns="http://www.w3.org/2000/svg" viewBox="0 0 800 1200" width="800" height="1200" style="background:#ffffff">
<style>
  text { font-family: "Helvetica Neue", Helvetica, Arial, sans-serif; }
</style>
<text x="400.0" y="22" text-anchor="middle" font-size="16" fill="#888888" font-weight="500">PAGE 12  (4 panels)</text>
<rect x="29.0" y="59.0" width="742.0" height="470.9" rx="2" fill="#f5f0e8" stroke="#2a2a2a" stroke-width="1.5"/>
<line x1="35.0" y1="426.3" x2="765.0" y2="426.3" stroke="#a89888" stroke-width="1.0" opacity="0.5"/>
<ellipse cx="276.3" cy="428.3" rx="11.2" ry="2.7" fill="#a89888" opacity="0.2"/>
<line x1="273.6" y1="410.5" x2="269.6" y2="426.3" stroke="#999999" stroke-width="2" opacity="0.5"/>
<line x1="279.0" y1="410.5" x2="283.1" y2="426.3" stroke="#999999" stroke-width="2" opacity="0.5"/>
<line x1="276.3" y1="397.5" x2="276.3" y2="410.5" stroke="#999999" stroke-width="2.5" opacity="0.6"/>
<line x1="262.8" y1="399.5" x2="289.8" y2="399.5" stroke="#999999" stroke-width="2" opacity="0.5"/>
<line x1="262.8" y1="399.5" x2="258.3" y2="411.0" stroke="#999999" stroke-width="1.5" opacity="0.4"/>
<line x1="289.8" y1="399.5" x2="294.3" y2="411.0" stroke="#999999" stroke-width="1.5" opacity="0.4"/>
<circle cx="276.3" cy="381.3" r="8.1" fill="#999999" opacity="0.6"/>
<ellipse cx="523.7" cy="428.3" rx="11.2" ry="2.7" fill="#a89888" opacity="0.2"/>
<line x1="521.0" y1="410.5" x2="516.9" y2="426.3" stroke="#c87533" stroke-width="2" opacity="0.5"/>
<line x1="526.4" y1="410.5" x2="530.4" y2="426.3" stroke="#c87533" stroke-width="2" opacity="0.5"/>
<line x1="523.7" y1="397.5" x2="523.7" y2="410.5" stroke="#c87533" stroke-width="2.5" opacity="0.6"/>
<line x1="510.2" y1="399.5" x2="537.2" y2="399.5" stroke="#c87533" stroke-width="2" opacity="0.5"/>
<line x1="510.2" y1="399.5" x2="505.7" y2="411.0" stroke="#c87533" stroke-width="1.5" opacity="0.4"/>
<line x1="537.2" y1="399.5" x2="541.7" y2="411.0" stroke="#c87533" stroke-width="1.5" opacity="0.4"/>
<circle cx="523.7" cy="381.3" r="8.1" fill="#c87533" opacity="0.6"/>
<rect x="35.0" y="67.0" width="90.7" height="40.0" rx="6" fill="white" stroke="#999999" stroke-width="1.0" opacity="0.92"/>
<polygon points="62.2,107.0 70.2,107.0 59.2,115.0" fill="white" stroke="#999999" stroke-width="0.8"/>
<line x1="61.7" y1="107.0" x2="70.7" y2="107.0" stroke="white" stroke-width="1.5"/>
<text x="41.0" y="84.0" font-size="11.0" fill="#999999" font-weight="700">SFX</text>
<text x="41.0" y="98.0" font-size="11.0" fill="#333333">*TING-a-ling*</text>
<rect x="703.0" y="117.0" width="62.0" height="40.0" rx="6" fill="white" stroke="#c87533" stroke-width="1.0" opacity="0.92"/>
<polygon points="721.6,157.0 729.6,157.0 718.6,165.0" fill="white" stroke="#c87533" stroke-width="0.8"/>
<line x1="721.1" y1="157.0" x2="730.1" y2="157.0" stroke="white" stroke-width="1.5"/>
<text x="709.0" y="134.0" font-size="11.0" fill="#c87533" font-weight="700">WREN</text>
<text x="709.0" y="148.0" font-size="11.0" fill="#333333">No.</text>
<text x="759.0" y="75.0" text-anchor="end" font-size="12" font-weight="bold" fill="#888888" opacity="0.6">1</text>
<text x="765.0" y="523.9" text-anchor="end" font-size="9" fill="#888888" opacity="0.5">WIDE</text>
<rect x="29.0" y="539.9" width="742.0" height="310.6" rx="2" fill="#f5f0e8" stroke="#2a2a2a" stroke-width="1.5"/>
<path d="M350.0,763.5 L354.6,724.4 Q359.1,720.4 386.2,720.4 L413.8,720.4 Q440.9,720.4 445.4,724.4 L450.0,763.5 Z" fill="#999999" opacity="0.35"/>
<line x1="354.6" y1="742.5" x2="445.4" y2="742.5" stroke="#999999" stroke-width="1" opacity="0.3"/>
<line x1="354.6" y1="724.4" x2="336.4" y2="759.3" stroke="#999999" stroke-width="2" opacity="0.3"/>
<line x1="336.4" y1="759.3" x2="350.0" y2="780.3" stroke="#999999" stroke-width="2" opacity="0.3"/>
<line x1="445.4" y1="724.4" x2="463.6" y2="759.3" stroke="#999999" stroke-width="2" opacity="0.3"/>
<line x1="463.6" y1="759.3" x2="450.0" y2="780.3" stroke="#999999" stroke-width="2" opacity="0.3"/>
<line x1="400.0" y1="658.2" x2="400.0" y2="720.4" stroke="#999999" stroke-width="3" opacity="0.35"/>
<circle cx="400.0" cy="623.7" r="34.5" fill="#999999" opacity="0.4"/>
<rect x="35.0" y="547.9" width="266.1" height="40.0" rx="6" fill="white" stroke="#999999" stroke-width="1.0" opacity="0.92"/>
<polygon points="114.8,587.9 122.8,587.9 111.8,595.9" fill="white" stroke="#999999" stroke-width="0.8"/>
<line x1="114.3" y1="587.9" x2="123.3" y2="587.9" stroke="white" stroke-width="1.5"/>
<text x="41.0" y="564.9" font-size="11.0" fill="#999999" font-weight="700">CLOCKMAKER</text>
<text x="41.0" y="578.9" font-size="11.0" fill="#333333">Now then. Let's see about that escapement.</text>
<text x="759.0" y="555.9" text-anchor="end" font-size="12" font-weight="bold" fill="#888888" opacity="0.6">2</text>
<text x="765.0" y="844.4" text-anchor="end" font-size="9" fill="#888888" opacity="0.5">MW</text>
<rect x="29.0" y="860.4" width="493.8" height="310.6" rx="2" fill="#f5f0e8" stroke="#2a2a2a" stroke-width="1.5"/>
<path d="M226.0,1084.0 L230.5,1044.9 Q235.0,1040.9 262.1,1040.9 L289.7,1040.9 Q316.8,1040.9 321.3,1044.9 L325.9,1084.0 Z" fill="#6a5acd" opacity="0.35"/>
<line x1="230.5" y1="1063.1" x2="321.3" y2="1063.1" stroke="#6a5acd" stroke-width="1" opacity="0.3"/>
<line x1="230.5" y1="1044.9" x2="212.3" y2="1079.9" stroke="#6a5acd" stroke-width="2" opacity="0.3"/>
<line x1="212.3" y1="1079.9" x2="226.0" y2="1100.8" stroke="#6a5acd" stroke-width="2" opacity="0.3"/>
<line x1="321.3" y1="1044.9" x2="339.5" y2="1079.9" stroke="#6a5acd" stroke-width="2" opacity="0.3"/>
<line x1="339.5" y1="1079.9" x2="325.9" y2="1100.8" stroke="#6a5acd" stroke-width="2" opacity="0.3"/>
<line x1="275.9" y1="978.8" x2="275.9" y2="1040.9" stroke="#6a5acd" stroke-width="3" opacity="0.35"/>
<circle cx="275.9" cy="944.3" r="34.5" fill="#6a5acd" opacity="0.4"/>
<rect x="35.0" y="868.4" width="151.2" height="40.0" rx="6" fill="white" stroke="#6a5acd" stroke-width="1.0" opacity="0.92"/>
<polygon points="80.3,908.4 88.3,908.4 77.3,916.4" fill="white" stroke="#6a5acd" stroke-width="0.8"/>
<line x1="79.8" y1="908.4" x2="88.8" y2="908.4" stroke="white" stroke-width="1.5"/>
<text x="41.0" y="885.4" font-size="11.0" fill="#6a5acd" font-weight="700">LUMA</text>
<text x="41.0" y="899.4" font-size="11.0" fill="#333333">Wren. Your heart rate--</text>
<rect x="450.4" y="918.4" width="66.5" height="40.0" rx="6" fill="white" stroke="#c87533" stroke-width="1.0" opacity="0.92"/>
<polygon points="470.3,958.4 478.3,958.4 467.3,966.4" fill="white" stroke="#c87533" stroke-width="0.8"/>
<line x1="469.8" y1="958.4" x2="478.8" y2="958.4" stroke="white" stroke-width="1.5"/>
<text x="456.4" y="935.4" font-size="11.0" fill="#c87533" font-weight="700">WREN</text>
<text x="456.4" y="949.4" font-size="11.0" fill="#333333">Shut. Up.</text>
<text x="510.8" y="876.4" text-anchor="end" font-size="12" font-weight="bold" fill="#888888" opacity="0.6">3</text>
<text x="516.8" y="1165.0" text-anchor="end" font-size="9" fill="#888888" opacity="0.5">MED</text>
<rect x="532.8" y="860.4" width="238.2" height="310.6" rx="2" fill="#f5f0e8" stroke="#2a2a2a" stroke-width="1.5"/>
<ellipse cx="651.9" cy="990.9" rx="95.3" ry="139.8" fill="#999999" opacity="0.18"/>
<path d="M551.9,942.0 Q651.9,830.1 751.9,942.0" fill="none" stroke="#999999" stroke-width="3" opacity="0.35"/>
<line x1="618.6" y1="960.1" x2="647.2" y2="958.1" stroke="#a89888" stroke-width="1.5" opacity="0.45"/>
<line x1="656.7" y1="958.1" x2="685.3" y2="960.1" stroke="#a89888" stroke-width="1.5" opacity="0.45"/>
<ellipse cx="625.2" cy="974.1" rx="11.4" ry="7.0" fill="#a89888" opacity="0.45"/>
<ellipse cx="678.6" cy="974.1" rx="11.4" ry="7.0" fill="#a89888" opacity="0.45"/>
<line x1="651.9" y1="993.7" x2="651.9" y2="1016.0" stroke="#a89888" stroke-width="1.2" opacity="0.35"/>
<path d="M646.2,1016.0 Q651.9,1019.0 657.6,1016.0" fill="none" stroke="#a89888" stroke-width="1" opacity="0.3"/>
<line x1="628.1" y1="1035.6" x2="675.7" y2="1035.6" stroke="#a89888" stroke-width="1.2" opacity="0.35"/>
<rect x="538.8" y="868.4" width="149.5" height="38.0" rx="6" fill="white" stroke="#999999" stroke-width="1.0" opacity="0.92"/>
<polygon points="583.7,906.4 591.7,906.4 580.7,914.4" fill="white" stroke="#999999" stroke-width="0.8"/>
<line x1="583.2" y1="906.4" x2="592.2" y2="906.4" stroke="white" stroke-width="1.5"/>
<text x="544.8" y="884.4" font-size="10.0" fill="#999999" font-weight="700">CLOCKMAKER</text>
<text x="544.8" y="897.4" font-size="10.0" fill="#333333">Hmm. Something's shifted.</text>
<text x="759.0" y="876.4" text-anchor="end" font-size="12" font-weight="bold" fill="#888888" opacity="0.6">4</text>
<text x="765.0" y="1165.0" text-anchor="end" font-size="9" fill="#888888" opacity="0.5">ECU</text>
</svg>