<svg xmlns="http://www.w3.org/2000/svg" viewBox="0 0 800 1200" width="800" height="1200" style="background:#ffffff">
<style>
  text { font-family: "Helvetica Neue", Helvetica, Arial, sans-serif; }
</style>
<text x="400.0" y="22" text-anchor="middle" font-size="16" fill="#888888" font-weight="500">PAGE 20  (3 panels)</text>
<rect x="29.0" y="59.0" width="742.0" height="364.0" rx="2" fill="#f5f0e8" stroke="#2a2a2a" stroke-width="1.5"/>
<ellipse cx="400.0" cy="211.9" rx="114.7" ry="163.8" fill="#c87533" opacity="0.18"/>
<path d="M279.6,154.6 Q400.0,23.5 520.4,154.6" fill="none" stroke="#c87533" stroke-width="3" opacity="0.35"/>
<line x1="359.9" y1="175.8" x2="394.3" y2="173.8" stroke="#a89888" stroke-width="1.5" opacity="0.45"/>
<line x1="405.7" y1="173.8" x2="440.1" y2="175.8" stroke="#a89888" stroke-width="1.5" opacity="0.45"/>
<ellipse cx="367.9" cy="192.2" rx="13.8" ry="8.2" fill="#a89888" opacity="0.45"/>
<ellipse cx="432.1" cy="192.2" rx="13.8" ry="8.2" fill="#a89888" opacity="0.45"/>
<line x1="400.0" y1="215.2" x2="400.0" y2="241.4" stroke="#a89888" stroke-width="1.2" opacity="0.35"/>
<path d="M393.1,241.4 Q400.0,244.4 406.9,241.4" fill="none" stroke="#a89888" stroke-width="1" opacity="0.3"/>
<line x1="371.3" y1="264.3" x2="428.7" y2="264.3" stroke="#a89888" stroke-width="1.2" opacity="0.35"/>
<rect x="35.0" y="67.0" width="592.8" height="40.0" rx="6" fill="white" stroke="#c87533" stroke-width="1.0" opacity="0.92"/>
<polygon points="212.8,107.0 220.8,107.0 209.8,115.0" fill="white" stroke="#c87533" stroke-width="0.8"/>
<line x1="212.3" y1="107.0" x2="221.3" y2="107.0" stroke="white" stroke-width="1.5"/>
<text x="41.0" y="84.0" font-size="11.0" fill="#c87533" font-weight="700">WREN</text>
<text x="41.0" y="98.0" font-size="11.0" fill="#333333">*&quot;In my time, this would be printed in a fabricator. Molecular deposition. Perfect every time.&quot;*</text>
<text x="759.0" y="75.0" text-anchor="end" font-size="12" font-weight="bold" fill="#888888" opacity="0.6">1</text>
<text x="765.0" y="417.0" text-anchor="end" font-size="9" fill="#888888" opacity="0.5">CU</text>
<rect x="29.0" y="433.0" width="742.0" height="364.0" rx="2" fill="#f5f0e8" stroke="#2a2a2a" stroke-width="1.5"/>
<path d="M341.4,695.1 L346.8,648.6 Q352.1,644.6 383.8,644.6 L416.2,644.6 Q447.9,644.6 453.2,648.6 L458.6,695.1 Z" fill="#c87533" opacity="0.35"/>
<line x1="346.8" y1="670.5" x2="453.2" y2="670.5" stroke="#c87533" stroke-width="1" opacity="0.3"/>
<line x1="346.8" y1="648.6" x2="325.5" y2="689.5" stroke="#c87533" stroke-width="2" opacity="0.3"/>
<line x1="325.5" y1="689.5" x2="341.4" y2="714.1" stroke="#c87533" stroke-width="2" opacity="0.3"/>
<line x1="453.2" y1="648.6" x2="474.5" y2="689.5" stroke="#c87533" stroke-width="2" opacity="0.3"/>
<line x1="474.5" y1="689.5" x2="458.6" y2="714.1" stroke="#c87533" stroke-width="2" opacity="0.3"/>
<line x1="400.0" y1="571.7" x2="400.0" y2="644.6" stroke="#c87533" stroke-width="3" opacity="0.35"/>
<circle cx="400.0" cy="531.3" r="40.5" fill="#c87533" opacity="0.4"/>
<rect x="35.0" y="441.0" width="350.8" height="40.0" rx="6" fill="white" stroke="#c87533" stroke-width="1.0" opacity="0.92"/>
<polygon points="140.2,481.0 148.2,481.0 137.2,489.0" fill="white" stroke="#c87533" stroke-width="0.8"/>
<line x1="139.7" y1="481.0" x2="148.7" y2="481.0" stroke="white" stroke-width="1.5"/>
<text x="41.0" y="458.0" font-size="11.0" fill="#c87533" font-weight="700">WREN</text>
<text x="41.0" y="472.0" font-size="11.0" fill="#333333">*&quot;He made this for a clock. A machine to measure time.&quot;*</text>
<rect x="517.0" y="491.0" width="248.0" height="40.0" rx="6" fill="white" stroke="#c87533" stroke-width="1.0" opacity="0.92"/>
<polygon points="591.4,531.0 599.4,531.0 588.4,539.0" fill="white" stroke="#c87533" stroke-width="0.8"/>
<line x1="590.9" y1="531.0" x2="599.9" y2="531.0" stroke="white" stroke-width="1.5"/>
<text x="523.0" y="508.0" font-size="11.0" fill="#c87533" font-weight="700">WREN</text>
<text x="523.0" y="522.0" font-size="11.0" fill="#333333">*&quot;I'm going to use it to escape time.&quot;*</text>
<rect x="35.0" y="541.0" width="417.4" height="40.0" rx="6" fill="white" stroke="#c87533" stroke-width="1.0" opacity="0.92"/>
<polygon points="160.2,581.0 168.2,581.0 157.2,589.0" fill="white" stroke="#c87533" stroke-width="0.8"/>
<line x1="159.7" y1="581.0" x2="168.7" y2="581.0" stroke="white" stroke-width="1.5"/>
<text x="41.0" y="558.0" font-size="11.0" fill="#c87533" font-weight="700">WREN</text>
<text x="41.0" y="572.0" font-size="11.0" fill="#333333">*&quot;I don't think he would mind. I think he would want to know how.&quot;*</text>
<text x="759.0" y="449.0" text-anchor="end" font-size="12" font-weight="bold" fill="#888888" opacity="0.6">2</text>
<text x="765.0" y="791.0" text-anchor="end" font-size="9" fill="#888888" opacity="0.5">MED</text>
<rect x="29.0" y="807.0" width="742.0" height="364.0" rx="2" fill="#f5f0e8" stroke="#2a2a2a" stroke-width="1.5"/>
<line x1="35.0" y1="1090.9" x2="765.0" y2="1090.9" stroke="#a89888" stroke-width="1.0" opacity="0.5"/>
<ellipse cx="400.0" cy="1092.9" rx="11.2" ry="2.7" fill="#a89888" opacity="0.2"/>
<line x1="397.3" y1="1075.2" x2="393.2" y2="1090.9" stroke="#c87533" stroke-width="2" opacity="0.5"/>
<line x1="402.7" y1="1075.2" x2="406.8" y2="1090.9" stroke="#c87533" stroke-width="2" opacity="0.5"/>
<line x1="400.0" y1="1062.1" x2="400.0" y2="1075.2" stroke="#c87533" stroke-width="2.5" opacity="0.6"/>
<line x1="386.5" y1="1064.1" x2="413.5" y2="1064.1" stroke="#c87533" stroke-width="2" opacity="0.5"/>
<line x1="386.5" y1="1064.1" x2="382.0" y2="1075.6" stroke="#c87533" stroke-width="1.5" opacity="0.4"/>
<line x1="413.5" y1="1064.1" x2="418.0" y2="1075.6" stroke="#c87533" stroke-width="1.5" opacity="0.4"/>
<circle cx="400.0" cy="1045.9" r="8.1" fill="#c87533" opacity="0.6"/>
<rect x="35.0" y="815.0" width="296.4" height="40.0" rx="6" fill="white" stroke="#c87533" stroke-width="1.0" opacity="0.92"/>
<polygon points="123.9,855.0 131.9,855.0 120.9,863.0" fill="white" stroke="#c87533" stroke-width="0.8"/>
<line x1="123.4" y1="855.0" x2="132.4" y2="855.0" stroke="white" stroke-width="1.5"/>
<text x="41.0" y="832.0" font-size="11.0" fill="#c87533" font-weight="700">WREN</text>
<text x="41.0" y="846.0" font-size="11.0" fill="#333333">How did you solve the temperature compensation?</text>
<rect x="626.0" y="865.0" width="139.1" height="40.0" rx="6" fill="white" stroke="#c87533" stroke-width="1.0" opacity="0.92"/>
<polygon points="667.7,905.0 675.7,905.0 664.7,913.0" fill="white" stroke="#c87533" stroke-width="0.8"/>
<line x1="667.2" y1="905.0" x2="676.2" y2="905.0" stroke="white" stroke-width="1.5"/>
<text x="632.0" y="882.0" font-size="11.0" fill="#c87533" font-weight="700">WREN</text>
<text x="632.0" y="896.0" font-size="11.0" fill="#333333">...Oh. That's clever.</text>
<rect x="35.0" y="915.0" width="133.0" height="40.0" rx="6" fill="white" stroke="#c87533" stroke-width="1.0" opacity="0.92"/>
<polygon points="74.9,955.0 82.9,955.0 71.9,963.0" fill="white" stroke="#c87533" stroke-width="0.8"/>
<line x1="74.4" y1="955.0" x2="83.4" y2="955.0" stroke="white" stroke-width="1.5"/>
<text x="41.0" y="932.0" font-size="11.0" fill="#c87533" font-weight="700">WREN</text>
<text x="41.0" y="946.0" font-size="11.0" fill="#333333">That is very clever.</text>
<text x="759.0" y="823.0" text-anchor="end" font-size="12" font-weight="bold" fill="#888888" opacity="0.6">3</text>
<text x="765.0" y="1165.0" text-anchor="end" font-size="9" fill="#888888" opacity="0.5">WIDE</text>
</svg>