<svg xmlns="http://www.w3.org/2000/svg" viewBox="0 0 800 1200" width="800" height="1200" style="background:#ffffff">
<style>
  text { font-family: "Helvetica Neue", Helvetica, Arial, sans-serif; }
</style>
<text x="400.0" y="22" text-anchor="middle" font-size="16" fill="#888888" font-weight="500">PAGE 13  (5 panels)</text>
<rect x="29.0" y="59.0" width="366.0" height="310.6" rx="2" fill="#f5f0e8" stroke="#2a2a2a" stroke-width="1.5"/>
<ellipse cx="212.0" cy="189.4" rx="97.8" ry="139.8" fill="#c87533" opacity="0.18"/>
<path d="M109.3,140.5 Q212.0,28.7 314.7,140.5" fill="none" stroke="#c87533" stroke-width="3" opacity="0.35"/>
<line x1="177.8" y1="158.7" x2="207.1" y2="156.7" stroke="#a89888" stroke-width="1.5" opacity="0.45"/>
<line x1="216.9" y1="156.7" x2="246.2" y2="158.7" stroke="#a89888" stroke-width="1.5" opacity="0.45"/>
<ellipse cx="184.6" cy="172.7" rx="11.7" ry="7.0" fill="#a89888" opacity="0.45"/>
<ellipse cx="239.4" cy="172.7" rx="11.7" ry="7.0" fill="#a89888" opacity="0.45"/>
<line x1="212.0" y1="192.2" x2="212.0" y2="214.6" stroke="#a89888" stroke-width="1.2" opacity="0.35"/>
<path d="M206.1,214.6 Q212.0,217.6 217.9,214.6" fill="none" stroke="#a89888" stroke-width="1" opacity="0.3"/>
<line x1="187.5" y1="234.2" x2="236.5" y2="234.2" stroke="#a89888" stroke-width="1.2" opacity="0.35"/>
<rect x="35.0" y="67.0" width="211.7" height="40.0" rx="6" fill="white" stroke="#c87533" stroke-width="1.0" opacity="0.92"/>
<polygon points="98.5,107.0 106.5,107.0 95.5,115.0" fill="white" stroke="#c87533" stroke-width="0.8"/>
<line x1="98.0" y1="107.0" x2="107.0" y2="107.0" stroke="white" stroke-width="1.5"/>
<text x="41.0" y="84.0" font-size="11.0" fill="#c87533" font-weight="700">WREN</text>
<text x="41.0" y="98.0" font-size="11.0" fill="#333333">*&quot;Oil. Dust. The dirt saved me.&quot;*</text>
<text x="383.0" y="75.0" text-anchor="end" font-size="12" font-weight="bold" fill="#888888" opacity="0.6">1</text>
<text x="389.0" y="363.6" text-anchor="end" font-size="9" fill="#888888" opacity="0.5">CU</text>
<rect x="405.0" y="59.0" width="366.0" height="310.6" rx="2" fill="#f5f0e8" stroke="#2a2a2a" stroke-width="1.5"/>
<path d="M538.0,282.6 L542.6,243.5 Q547.1,239.5 574.2,239.5 L601.8,239.5 Q628.9,239.5 633.4,243.5 L638.0,282.6 Z" fill="#999999" opacity="0.35"/>
<line x1="542.6" y1="261.6" x2="633.4" y2="261.6" stroke="#999999" stroke-width="1" opacity="0.3"/>
<line x1="542.6" y1="243.5" x2="524.4" y2="278.4" stroke="#999999" stroke-width="2" opacity="0.3"/>
<line x1="524.4" y1="278.4" x2="538.0" y2="299.4" stroke="#999999" stroke-width="2" opacity="0.3"/>
<line x1="633.4" y1="243.5" x2="651.6" y2="278.4" stroke="#999999" stroke-width="2" opacity="0.3"/>
<line x1="651.6" y1="278.4" x2="638.0" y2="299.4" stroke="#999999" stroke-width="2" opacity="0.3"/>
<line x1="588.0" y1="177.4" x2="588.0" y2="239.5" stroke="#999999" stroke-width="3" opacity="0.35"/>
<circle cx="588.0" cy="142.9" r="34.5" fill="#999999" opacity="0.4"/>
<rect x="411.0" y="67.0" width="145.1" height="40.0" rx="6" fill="white" stroke="#999999" stroke-width="1.0" opacity="0.92"/>
<polygon points="454.5,107.0 462.5,107.0 451.5,115.0" fill="white" stroke="#999999" stroke-width="0.8"/>
<line x1="454.0" y1="107.0" x2="463.0" y2="107.0" stroke="white" stroke-width="1.5"/>
<text x="417.0" y="84.0" font-size="11.0" fill="#999999" font-weight="700">CLOCKMAKER</text>
<text x="417.0" y="98.0" font-size="11.0" fill="#333333">Quarter turn... there.</text>
<rect x="601.8" y="117.0" width="163.2" height="40.0" rx="6" fill="white" stroke="#999999" stroke-width="1.0" opacity="0.92"/>
<polygon points="650.7,157.0 658.7,157.0 647.7,165.0" fill="white" stroke="#999999" stroke-width="0.8"/>
<line x1="650.2" y1="157.0" x2="659.2" y2="157.0" stroke="white" stroke-width="1.5"/>
<text x="607.8" y="134.0" font-size="11.0" fill="#999999" font-weight="700">SFX</text>
<text x="607.8" y="148.0" font-size="11.0" fill="#333333">*tick... tick... tick...*</text>
<text x="759.0" y="75.0" text-anchor="end" font-size="12" font-weight="bold" fill="#888888" opacity="0.6">2</text>
<text x="765.0" y="363.6" text-anchor="end" font-size="9" fill="#888888" opacity="0.5">MED</text>
<rect x="29.0" y="379.6" width="742.0" height="470.9" rx="2" fill="#f5f0e8" stroke="#2a2a2a" stroke-width="1.5"/>
<line x1="35.0" y1="746.8" x2="765.0" y2="746.8" stroke="#a89888" stroke-width="1.0" opacity="0.5"/>
<ellipse cx="400.0" cy="748.8" rx="11.2" ry="2.7" fill="#a89888" opacity="0.2"/>
<line x1="397.3" y1="731.1" x2="393.2" y2="746.8" stroke="#c87533" stroke-width="2" opacity="0.5"/>
<line x1="402.7" y1="731.1" x2="406.8" y2="746.8" stroke="#c87533" stroke-width="2" opacity="0.5"/>
<line x1="400.0" y1="718.0" x2="400.0" y2="731.1" stroke="#c87533" stroke-width="2.5" opacity="0.6"/>
<line x1="386.5" y1="720.0" x2="413.5" y2="720.0" stroke="#c87533" stroke-width="2" opacity="0.5"/>
<line x1="386.5" y1="720.0" x2="382.0" y2="731.5" stroke="#c87533" stroke-width="1.5" opacity="0.4"/>
<line x1="413.5" y1="720.0" x2="418.0" y2="731.5" stroke="#c87533" stroke-width="1.5" opacity="0.4"/>
<circle cx="400.0" cy="701.8" r="8.1" fill="#c87533" opacity="0.6"/>
<rect x="35.0" y="387.6" width="465.8" height="40.0" rx="6" fill="white" stroke="#c87533" stroke-width="1.0" opacity="0.92"/>
<polygon points="174.7,427.6 182.7,427.6 171.7,435.6" fill="white" stroke="#c87533" stroke-width="0.8"/>
<line x1="174.2" y1="427.6" x2="183.2" y2="427.6" stroke="white" stroke-width="1.5"/>
<text x="41.0" y="404.6" font-size="11.0" fill="#c87533" font-weight="700">WREN</text>
<text x="41.0" y="418.6" font-size="11.0" fill="#333333">*&quot;Twelve-tooth pinion driving a sixty-tooth wheel. Five-to-one reduction.&quot;*</text>
<rect x="571.5" y="437.6" width="193.5" height="40.0" rx="6" fill="white" stroke="#c87533" stroke-width="1.0" opacity="0.92"/>
<polygon points="629.5,477.6 637.5,477.6 626.5,485.6" fill="white" stroke="#c87533" stroke-width="0.8"/>
<line x1="629.0" y1="477.6" x2="638.0" y2="477.6" stroke="white" stroke-width="1.5"/>
<text x="577.5" y="454.6" font-size="11.0" fill="#c87533" font-weight="700">WREN</text>
<text x="577.5" y="468.6" font-size="11.0" fill="#333333">*&quot;He machined these by hand.&quot;*</text>
<text x="759.0" y="395.6" text-anchor="end" font-size="12" font-weight="bold" fill="#888888" opacity="0.6">3</text>
<text x="765.0" y="844.4" text-anchor="end" font-size="9" fill="#888888" opacity="0.5">WIDE</text>
<rect x="29.0" y="860.4" width="238.2" height="310.6" rx="2" fill="#f5f0e8" stroke="#2a2a2a" stroke-width="1.5"/>
<ellipse cx="148.1" cy="990.9" rx="95.3" ry="139.8" fill="#c87533" opacity="0.18"/>
<path d="M48.1,942.0 Q148.1,830.1 248.1,942.0" fill="none" stroke="#c87533" stroke-width="3" opacity="0.35"/>
<line x1="114.7" y1="960.1" x2="143.3" y2="958.1" stroke="#a89888" stroke-width="1.5" opacity="0.45"/>
<line x1="152.8" y1="958.1" x2="181.4" y2="960.1" stroke="#a89888" stroke-width="1.5" opacity="0.45"/>
<ellipse cx="121.4" cy="974.1" rx="11.4" ry="7.0" fill="#a89888" opacity="0.45"/>
<ellipse cx="174.8" cy="974.1" rx="11.4" ry="7.0" fill="#a89888" opacity="0.45"/>
<line x1="148.1" y1="993.7" x2="148.1" y2="1016.0" stroke="#a89888" stroke-width="1.2" opacity="0.35"/>
<path d="M142.4,1016.0 Q148.1,1019.0 153.8,1016.0" fill="none" stroke="#a89888" stroke-width="1" opacity="0.3"/>
<line x1="124.3" y1="1035.6" x2="171.9" y2="1035.6" stroke="#a89888" stroke-width="1.2" opacity="0.35"/>
<rect x="35.0" y="868.4" width="215.5" height="38.0" rx="6" fill="white" stroke="#c87533" stroke-width="1.0" opacity="0.92"/>
<polygon points="99.7,906.4 107.7,906.4 96.7,914.4" fill="white" stroke="#c87533" stroke-width="0.8"/>
<line x1="99.2" y1="906.4" x2="108.2" y2="906.4" stroke="white" stroke-width="1.5"/>
<text x="41.0" y="884.4" font-size="10.0" fill="#c87533" font-weight="700">WREN</text>
<text x="41.0" y="897.4" font-size="10.0" fill="#333333">Sable. He's at the bench. I'm pinned.</text>
<text x="255.2" y="876.4" text-anchor="end" font-size="12" font-weight="bold" fill="#888888" opacity="0.6">4</text>
<text x="261.2" y="1165.0" text-anchor="end" font-size="9" fill="#888888" opacity="0.5">CU</text>
<rect x="277.2" y="860.4" width="493.8" height="310.6" rx="2" fill="#f5f0e8" stroke="#2a2a2a" stroke-width="1.5"/>
<path d="M437.1,1093.4 Q437.1,1049.9 502.3,1044.4 L545.8,1044.4 Q611.0,1049.9 611.0,1093.4 L611.0,1133.7 L437.1,1133.7 Z" fill="#b0b0b0" opacity="0.25"/>
<path d="M505.1,1044.4 L524.1,1071.6 L543.1,1044.4" fill="none" stroke="#b0b0b0" stroke-width="1" opacity="0.3"/>
<circle cx="524.1" cy="984.7" r="54.3" fill="#b0b0b0" opacity="0.35"/>
<path d="M469.7,995.5 Q477.9,1044.4 524.1,1047.2 Q570.3,1044.4 578.4,995.5" fill="none" stroke="#b0b0b0" stroke-width="1.2" opacity="0.3"/>
<path d="M467.0,979.2 Q524.1,914.0 581.1,979.2" fill="none" stroke="#b0b0b0" stroke-width="2" opacity="0.4"/>
<ellipse cx="467.7" cy="987.4" rx="2.5" ry="4" fill="#b0b0b0" opacity="0.25"/>
<ellipse cx="580.4" cy="987.4" rx="2.5" ry="4" fill="#b0b0b0" opacity="0.25"/>
<rect x="283.2" y="868.4" width="223.8" height="40.0" rx="6" fill="white" stroke="#b0b0b0" stroke-width="1.0" opacity="0.92"/>
<polygon points="350.3,908.4 358.3,908.4 347.3,916.4" fill="white" stroke="#b0b0b0" stroke-width="0.8"/>
<line x1="349.8" y1="908.4" x2="358.8" y2="908.4" stroke="white" stroke-width="1.5"/>
<text x="289.2" y="885.4" font-size="11.0" fill="#b0b0b0" font-weight="700">SABLE</text>
<text x="289.2" y="899.4" font-size="11.0" fill="#333333">Copy. Hold position. Do not engage.</text>
<rect x="680.4" y="918.4" width="84.6" height="40.0" rx="6" fill="white" stroke="#b0b0b0" stroke-width="1.0" opacity="0.92"/>
<polygon points="705.8,958.4 713.8,958.4 702.8,966.4" fill="white" stroke="#b0b0b0" stroke-width="0.8"/>
<line x1="705.3" y1="958.4" x2="714.3" y2="958.4" stroke="white" stroke-width="1.5"/>
<text x="686.4" y="935.4" font-size="11.0" fill="#b0b0b0" font-weight="700">SABLE</text>
<text x="686.4" y="949.4" font-size="11.0" fill="#333333">Get the boy.</text>
<rect x="283.2" y="968.4" width="62.0" height="40.0" rx="6" fill="white" stroke="#2e8b57" stroke-width="1.0" opacity="0.92"/>
<polygon points="301.8,1008.4 309.8,1008.4 298.8,1016.4" fill="white" stroke="#2e8b57" stroke-width="0.8"/>
<line x1="301.3" y1="1008.4" x2="310.3" y2="1008.4" stroke="white" stroke-width="1.5"/>
<text x="289.2" y="985.4" font-size="11.0" fill="#2e8b57" font-weight="700">JINK</text>
<text x="289.2" y="999.4" font-size="11.0" fill="#333333">On it.</text>
<text x="759.0" y="876.4" text-anchor="end" font-size="12" font-weight="bold" fill="#888888" opacity="0.6">5</text>
<text x="765.0" y="1165.0" text-anchor="end" font-size="9" fill="#888888" opacity="0.5">MCU</text>
</svg>