<svg xmlns="http://www.w3.org/2000/svg" viewBox="0 0 800 1200" width="800" height="1200" style="background:#ffffff">
<style>
  text { font-family: "Helvetica Neue", Helvetica, Arial, sans-serif; }
</style>
<text x="400.0" y="22" text-anchor="middle" font-size="16" fill="#888888" font-weight="500">PAGE 16  (4 panels)</text>
<rect x="29.0" y="59.0" width="742.0" height="470.9" rx="2" fill="#f5f0e8" stroke="#2a2a2a" stroke-width="1.5"/>
<path d="M324.3,398.0 L331.1,336.7 Q338.0,332.7 379.1,332.7 L420.9,332.7 Q462.0,332.7 468.9,336.7 L475.7,398.0 Z" fill="#999999" opacity="0.35"/>
<line x1="331.1" y1="366.2" x2="468.9" y2="366.2" stroke="#999999" stroke-width="1" opacity="0.3"/>
<line x1="331.1" y1="336.7" x2="303.6" y2="389.6" stroke="#999999" stroke-width="2" opacity="0.3"/>
<line x1="303.6" y1="389.6" x2="324.3" y2="421.4" stroke="#999999" stroke-width="2" opacity="0.3"/>
<line x1="468.9" y1="336.7" x2="496.4" y2="389.6" stroke="#999999" stroke-width="2" opacity="0.3"/>
<line x1="496.4" y1="389.6" x2="475.7" y2="421.4" stroke="#999999" stroke-width="2" opacity="0.3"/>
<line x1="400.0" y1="238.5" x2="400.0" y2="332.7" stroke="#999999" stroke-width="3" opacity="0.35"/>
<circle cx="400.0" cy="186.1" r="52.3" fill="#999999" opacity="0.4"/>
<rect x="35.0" y="67.0" width="647.2" height="40.0" rx="6" fill="white" stroke="#999999" stroke-width="1.0" opacity="0.92"/>
<polygon points="229.2,107.0 237.2,107.0 226.2,115.0" fill="white" stroke="#999999" stroke-width="0.8"/>
<line x1="228.7" y1="107.0" x2="237.7" y2="107.0" stroke="white" stroke-width="1.5"/>
<text x="41.0" y="84.0" font-size="11.0" fill="#999999" font-weight="700">CLOCKMAKER</text>
<text x="41.0" y="98.0" font-size="11.0" fill="#333333">The standard Graham profile loses energy at the impulse face. I reshaped the tooth to extend contact by--</text>
<rect x="480.8" y="117.0" width="284.2" height="40.0" rx="6" fill="white" stroke="#c49a6c" stroke-width="1.0" opacity="0.92"/>
<polygon points="566.0,157.0 574.0,157.0 563.0,165.0" fill="white" stroke="#c49a6c" stroke-width="0.8"/>
<line x1="565.5" y1="157.0" x2="574.5" y2="157.0" stroke="white" stroke-width="1.5"/>
<text x="486.8" y="134.0" font-size="11.0" fill="#c49a6c" font-weight="700">THEODORE</text>
<text x="486.8" y="148.0" font-size="11.0" fill="#333333">--by a half-degree? To keep the arc constant?</text>
<rect x="35.0" y="167.0" width="235.9" height="40.0" rx="6" fill="white" stroke="#999999" stroke-width="1.0" opacity="0.92"/>
<polygon points="105.8,207.0 113.8,207.0 102.8,215.0" fill="white" stroke="#999999" stroke-width="0.8"/>
<line x1="105.3" y1="207.0" x2="114.3" y2="207.0" stroke="white" stroke-width="1.5"/>
<text x="41.0" y="184.0" font-size="11.0" fill="#999999" font-weight="700">CLOCKMAKER</text>
<text x="41.0" y="198.0" font-size="11.0" fill="#333333">...Just so. Where did you learn that?</text>
<rect x="438.4" y="217.0" width="326.6" height="40.0" rx="6" fill="white" stroke="#c49a6c" stroke-width="1.0" opacity="0.92"/>
<polygon points="536.4,257.0 544.4,257.0 533.4,265.0" fill="white" stroke="#c49a6c" stroke-width="0.8"/>
<line x1="535.9" y1="257.0" x2="544.9" y2="257.0" stroke="white" stroke-width="1.5"/>
<text x="444.4" y="234.0" font-size="11.0" fill="#c49a6c" font-weight="700">THEODORE</text>
<text x="444.4" y="248.0" font-size="11.0" fill="#333333">I-- I take things apart, sir. To see how they think.</text>
<rect x="35.0" y="267.0" width="175.4" height="40.0" rx="6" fill="white" stroke="#999999" stroke-width="1.0" opacity="0.92"/>
<polygon points="87.6,307.0 95.6,307.0 84.6,315.0" fill="white" stroke="#999999" stroke-width="0.8"/>
<line x1="87.1" y1="307.0" x2="96.1" y2="307.0" stroke="white" stroke-width="1.5"/>
<text x="41.0" y="284.0" font-size="11.0" fill="#999999" font-weight="700">CLOCKMAKER</text>
<text x="41.0" y="298.0" font-size="11.0" fill="#333333">To see how they think. Yes.</text>
<text x="759.0" y="75.0" text-anchor="end" font-size="12" font-weight="bold" fill="#888888" opacity="0.6">1</text>
<text x="765.0" y="523.9" text-anchor="end" font-size="9" fill="#888888" opacity="0.5">MED</text>
<rect x="29.0" y="539.9" width="366.0" height="310.6" rx="2" fill="#f5f0e8" stroke="#2a2a2a" stroke-width="1.5"/>
<rect x="35.0" y="547.9" width="157.2" height="40.0" rx="6" fill="white" stroke="#2e8b57" stroke-width="1.0" opacity="0.92"/>
<polygon points="82.2,587.9 90.2,587.9 79.2,595.9" fill="white" stroke="#2e8b57" stroke-width="0.8"/>
<line x1="81.7" y1="587.9" x2="90.7" y2="587.9" stroke="white" stroke-width="1.5"/>
<text x="41.0" y="564.9" font-size="11.0" fill="#2e8b57" font-weight="700">JINK</text>
<text x="41.0" y="578.9" font-size="11.0" fill="#333333">His hands are clear. Go.</text>
<text x="383.0" y="555.9" text-anchor="end" font-size="12" font-weight="bold" fill="#888888" opacity="0.6">2</text>
<rect x="405.0" y="539.9" width="366.0" height="310.6" rx="2" fill="#f5f0e8" stroke="#2a2a2a" stroke-width="1.5"/>
<path d="M538.0,763.5 L542.6,724.4 Q547.1,720.4 574.2,720.4 L601.8,720.4 Q628.9,720.4 633.4,724.4 L638.0,763.5 Z" fill="#c87533" opacity="0.35"/>
<line x1="542.6" y1="742.5" x2="633.4" y2="742.5" stroke="#c87533" stroke-width="1" opacity="0.3"/>
<line x1="542.6" y1="724.4" x2="524.4" y2="759.3" stroke="#c87533" stroke-width="2" opacity="0.3"/>
<line x1="524.4" y1="759.3" x2="538.0" y2="780.3" stroke="#c87533" stroke-width="2" opacity="0.3"/>
<line x1="633.4" y1="724.4" x2="651.6" y2="759.3" stroke="#c87533" stroke-width="2" opacity="0.3"/>
<line x1="651.6" y1="759.3" x2="638.0" y2="780.3" stroke="#c87533" stroke-width="2" opacity="0.3"/>
<line x1="588.0" y1="658.2" x2="588.0" y2="720.4" stroke="#c87533" stroke-width="3" opacity="0.35"/>
<circle cx="588.0" cy="623.7" r="34.5" fill="#c87533" opacity="0.4"/>
<rect x="411.0" y="547.9" width="127.0" height="40.0" rx="6" fill="white" stroke="#c87533" stroke-width="1.0" opacity="0.92"/>
<polygon points="449.1,587.9 457.1,587.9 446.1,595.9" fill="white" stroke="#c87533" stroke-width="0.8"/>
<line x1="448.6" y1="587.9" x2="457.6" y2="587.9" stroke="white" stroke-width="1.5"/>
<text x="417.0" y="564.9" font-size="11.0" fill="#c87533" font-weight="700">WREN</text>
<text x="417.0" y="578.9" font-size="11.0" fill="#333333">*&quot;Thirty seconds.&quot;*</text>
<text x="759.0" y="555.9" text-anchor="end" font-size="12" font-weight="bold" fill="#888888" opacity="0.6">3</text>
<text x="765.0" y="844.4" text-anchor="end" font-size="9" fill="#888888" opacity="0.5">MED</text>
<rect x="29.0" y="860.4" width="742.0" height="310.6" rx="2" fill="#f5f0e8" stroke="#2a2a2a" stroke-width="1.5"/>
<line x1="35.0" y1="1102.7" x2="765.0" y2="1102.7" stroke="#a89888" stroke-width="1.0" opacity="0.5"/>
<ellipse cx="214.5" cy="1104.7" rx="11.2" ry="2.7" fill="#a89888" opacity="0.2"/>
<line x1="211.8" y1="1086.9" x2="207.8" y2="1102.7" stroke="#999999" stroke-width="2" opacity="0.5"/>
<line x1="217.2" y1="1086.9" x2="221.2" y2="1102.7" stroke="#999999" stroke-width="2" opacity="0.5"/>
<line x1="214.5" y1="1073.9" x2="214.5" y2="1086.9" stroke="#999999" stroke-width="2.5" opacity="0.6"/>
<line x1="201.0" y1="1075.9" x2="228.0" y2="1075.9" stroke="#999999" stroke-width="2" opacity="0.5"/>
<line x1="201.0" y1="1075.9" x2="196.5" y2="1087.4" stroke="#999999" stroke-width="1.5" opacity="0.4"/>
<line x1="228.0" y1="1075.9" x2="232.5" y2="1087.4" stroke="#999999" stroke-width="1.5" opacity="0.4"/>
<circle cx="214.5" cy="1057.7" r="8.1" fill="#999999" opacity="0.6"/>
<ellipse cx="400.0" cy="1104.7" rx="11.2" ry="2.7" fill="#a89888" opacity="0.2"/>
<line x1="397.3" y1="1086.9" x2="393.2" y2="1102.7" stroke="#c49a6c" stroke-width="2" opacity="0.5"/>
<line x1="402.7" y1="1086.9" x2="406.8" y2="1102.7" stroke="#c49a6c" stroke-width="2" opacity="0.5"/>
<line x1="400.0" y1="1073.9" x2="400.0" y2="1086.9" stroke="#c49a6c" stroke-width="2.5" opacity="0.6"/>
<line x1="386.5" y1="1075.9" x2="413.5" y2="1075.9" stroke="#c49a6c" stroke-width="2" opacity="0.5"/>
<line x1="386.5" y1="1075.9" x2="382.0" y2="1087.4" stroke="#c49a6c" stroke-width="1.5" opacity="0.4"/>
<line x1="413.5" y1="1075.9" x2="418.0" y2="1087.4" stroke="#c49a6c" stroke-width="1.5" opacity="0.4"/>
<circle cx="400.0" cy="1057.7" r="8.1" fill="#c49a6c" opacity="0.6"/>
<ellipse cx="585.5" cy="1104.7" rx="11.2" ry="2.7" fill="#a89888" opacity="0.2"/>
<line x1="582.8" y1="1086.9" x2="578.8" y2="1102.7" stroke="#c87533" stroke-width="2" opacity="0.5"/>
<line x1="588.2" y1="1086.9" x2="592.2" y2="1102.7" stroke="#c87533" stroke-width="2" opacity="0.5"/>
<line x1="585.5" y1="1073.9" x2="585.5" y2="1086.9" stroke="#c87533" stroke-width="2.5" opacity="0.6"/>
<line x1="572.0" y1="1075.9" x2="599.0" y2="1075.9" stroke="#c87533" stroke-width="2" opacity="0.5"/>
<line x1="572.0" y1="1075.9" x2="567.5" y2="1087.4" stroke="#c87533" stroke-width="1.5" opacity="0.4"/>
<line x1="599.0" y1="1075.9" x2="603.5" y2="1087.4" stroke="#c87533" stroke-width="1.5" opacity="0.4"/>
<circle cx="585.5" cy="1057.7" r="8.1" fill="#c87533" opacity="0.6"/>
<rect x="35.0" y="868.4" width="435.5" height="40.0" rx="6" fill="white" stroke="#999999" stroke-width="1.0" opacity="0.92"/>
<polygon points="165.7,908.4 173.7,908.4 162.7,916.4" fill="white" stroke="#999999" stroke-width="0.8"/>
<line x1="165.2" y1="908.4" x2="174.2" y2="908.4" stroke="white" stroke-width="1.5"/>
<text x="41.0" y="885.4" font-size="11.0" fill="#999999" font-weight="700">CLOCKMAKER</text>
<text x="41.0" y="899.4" font-size="11.0" fill="#333333">The mainspring's my own alloy. Took two years to get the temper right.</text>
<rect x="692.5" y="918.4" width="72.5" height="40.0" rx="6" fill="white" stroke="#c49a6c" stroke-width="1.0" opacity="0.92"/>
<polygon points="714.2,958.4 722.2,958.4 711.2,966.4" fill="white" stroke="#c49a6c" stroke-width="0.8"/>
<line x1="713.8" y1="958.4" x2="722.8" y2="958.4" stroke="white" stroke-width="1.5"/>
<text x="698.5" y="935.4" font-size="11.0" fill="#c49a6c" font-weight="700">THEODORE</text>
<text x="698.5" y="949.4" font-size="11.0" fill="#333333">Two years?</text>
<rect x="35.0" y="968.4" width="84.6" height="40.0" rx="6" fill="white" stroke="#c87533" stroke-width="1.0" opacity="0.92"/>
<polygon points="60.4,1008.4 68.4,1008.4 57.4,1016.4" fill="white" stroke="#c87533" stroke-width="0.8"/>
<line x1="59.9" y1="1008.4" x2="68.9" y2="1008.4" stroke="white" stroke-width="1.5"/>
<text x="41.0" y="985.4" font-size="11.0" fill="#c87533" font-weight="700">WREN</text>
<text x="41.0" y="999.4" font-size="11.0" fill="#333333">*&quot;Contact.&quot;*</text>
<text x="759.0" y="876.4" text-anchor="end" font-size="12" font-weight="bold" fill="#888888" opacity="0.6">4</text>
<text x="765.0" y="1165.0" text-anchor="end" font-size="9" fill="#888888" opacity="0.5">WIDE</text>
</svg>