<svg xmlns="http://www.w3.org/2000/svg" viewBox="0 0 800 1200" width="800" height="1200" style="background:#ffffff">
<style>
  text { font-family: "Helvetica Neue", Helvetica, Arial, sans-serif; }
</style>
<text x="400.0" y="22" text-anchor="middle" font-size="16" fill="#888888" font-weight="500">PAGE 10  (4 panels)</text>
<rect x="29.0" y="59.0" width="742.0" height="421.5" rx="2" fill="#f5f0e8" stroke="#2a2a2a" stroke-width="1.5"/>
<path d="M332.2,362.5 L338.4,308.0 Q344.5,304.0 381.3,304.0 L418.7,304.0 Q455.5,304.0 461.6,308.0 L467.8,362.5 Z" fill="#c87533" opacity="0.35"/>
<line x1="338.4" y1="334.1" x2="461.6" y2="334.1" stroke="#c87533" stroke-width="1" opacity="0.3"/>
<line x1="338.4" y1="308.0" x2="313.7" y2="355.4" stroke="#c87533" stroke-width="2" opacity="0.3"/>
<line x1="313.7" y1="355.4" x2="332.2" y2="383.9" stroke="#c87533" stroke-width="2" opacity="0.3"/>
<line x1="461.6" y1="308.0" x2="486.3" y2="355.4" stroke="#c87533" stroke-width="2" opacity="0.3"/>
<line x1="486.3" y1="355.4" x2="467.8" y2="383.9" stroke="#c87533" stroke-width="2" opacity="0.3"/>
<line x1="400.0" y1="219.7" x2="400.0" y2="304.0" stroke="#c87533" stroke-width="3" opacity="0.35"/>
<circle cx="400.0" cy="172.8" r="46.9" fill="#c87533" opacity="0.4"/>
<rect x="35.0" y="67.0" width="381.1" height="40.0" rx="6" fill="white" stroke="#c87533" stroke-width="1.0" opacity="0.92"/>
<polygon points="149.3,107.0 157.3,107.0 146.3,115.0" fill="white" stroke="#c87533" stroke-width="0.8"/>
<line x1="148.8" y1="107.0" x2="157.8" y2="107.0" stroke="white" stroke-width="1.5"/>
<text x="41.0" y="84.0" font-size="11.0" fill="#c87533" font-weight="700">WREN</text>
<text x="41.0" y="98.0" font-size="11.0" fill="#333333">Beginning extraction. I need four minutes. Nobody talk to me.</text>
<text x="759.0" y="75.0" text-anchor="end" font-size="12" font-weight="bold" fill="#888888" opacity="0.6">1</text>
<text x="765.0" y="474.5" text-anchor="end" font-size="9" fill="#888888" opacity="0.5">MW</text>
<rect x="29.0" y="490.5" width="742.0" height="248.9" rx="2" fill="#f5f0e8" stroke="#2a2a2a" stroke-width="1.5"/>
<line x1="35.0" y1="684.7" x2="765.0" y2="684.7" stroke="#a89888" stroke-width="1.0" opacity="0.5"/>
<ellipse cx="214.5" cy="686.7" rx="11.2" ry="2.7" fill="#a89888" opacity="0.2"/>
<line x1="211.8" y1="669.0" x2="207.8" y2="684.7" stroke="#b22222" stroke-width="2" opacity="0.5"/>
<line x1="217.2" y1="669.0" x2="221.2" y2="684.7" stroke="#b22222" stroke-width="2" opacity="0.5"/>
<line x1="214.5" y1="656.0" x2="214.5" y2="669.0" stroke="#b22222" stroke-width="2.5" opacity="0.6"/>
<line x1="201.1" y1="658.0" x2="227.9" y2="658.0" stroke="#b22222" stroke-width="2" opacity="0.5"/>
<line x1="201.1" y1="658.0" x2="196.6" y2="669.5" stroke="#b22222" stroke-width="1.5" opacity="0.4"/>
<line x1="227.9" y1="658.0" x2="232.4" y2="669.5" stroke="#b22222" stroke-width="1.5" opacity="0.4"/>
<circle cx="214.5" cy="639.9" r="8.1" fill="#b22222" opacity="0.6"/>
<ellipse cx="400.0" cy="686.7" rx="11.2" ry="2.7" fill="#a89888" opacity="0.2"/>
<line x1="397.3" y1="669.0" x2="393.3" y2="684.7" stroke="#2e8b57" stroke-width="2" opacity="0.5"/>
<line x1="402.7" y1="669.0" x2="406.7" y2="684.7" stroke="#2e8b57" stroke-width="2" opacity="0.5"/>
<line x1="400.0" y1="656.0" x2="400.0" y2="669.0" stroke="#2e8b57" stroke-width="2.5" opacity="0.6"/>
<line x1="386.6" y1="658.0" x2="413.4" y2="658.0" stroke="#2e8b57" stroke-width="2" opacity="0.5"/>
<line x1="386.6" y1="658.0" x2="382.1" y2="669.5" stroke="#2e8b57" stroke-width="1.5" opacity="0.4"/>
<line x1="413.4" y1="658.0" x2="417.9" y2="669.5" stroke="#2e8b57" stroke-width="1.5" opacity="0.4"/>
<circle cx="400.0" cy="639.9" r="8.1" fill="#2e8b57" opacity="0.6"/>
<ellipse cx="585.5" cy="686.7" rx="11.2" ry="2.7" fill="#a89888" opacity="0.2"/>
<line x1="582.8" y1="669.0" x2="578.8" y2="684.7" stroke="#b0b0b0" stroke-width="2" opacity="0.5"/>
<line x1="588.2" y1="669.0" x2="592.2" y2="684.7" stroke="#b0b0b0" stroke-width="2" opacity="0.5"/>
<line x1="585.5" y1="656.0" x2="585.5" y2="669.0" stroke="#b0b0b0" stroke-width="2.5" opacity="0.6"/>
<line x1="572.1" y1="658.0" x2="598.9" y2="658.0" stroke="#b0b0b0" stroke-width="2" opacity="0.5"/>
<line x1="572.1" y1="658.0" x2="567.6" y2="669.5" stroke="#b0b0b0" stroke-width="1.5" opacity="0.4"/>
<line x1="598.9" y1="658.0" x2="603.4" y2="669.5" stroke="#b0b0b0" stroke-width="1.5" opacity="0.4"/>
<circle cx="585.5" cy="639.9" r="8.1" fill="#b0b0b0" opacity="0.6"/>
<rect x="35.0" y="498.5" width="453.7" height="40.0" rx="6" fill="white" stroke="#b22222" stroke-width="1.0" opacity="0.92"/>
<polygon points="171.1,538.5 179.1,538.5 168.1,546.5" fill="white" stroke="#b22222" stroke-width="0.8"/>
<line x1="170.6" y1="538.5" x2="179.6" y2="538.5" stroke="white" stroke-width="1.5"/>
<text x="41.0" y="515.5" font-size="11.0" fill="#b22222" font-weight="700">THRESH</text>
<text x="41.0" y="529.5" font-size="11.0" fill="#333333">Street is clear. Policeman passed two minutes ago. Next patrol in twenty.</text>
<rect x="517.0" y="548.5" width="248.0" height="40.0" rx="6" fill="white" stroke="#2e8b57" stroke-width="1.0" opacity="0.92"/>
<polygon points="591.4,588.5 599.4,588.5 588.4,596.5" fill="white" stroke="#2e8b57" stroke-width="0.8"/>
<line x1="590.9" y1="588.5" x2="599.9" y2="588.5" stroke="white" stroke-width="1.5"/>
<text x="523.0" y="565.5" font-size="11.0" fill="#2e8b57" font-weight="700">JINK</text>
<text x="523.0" y="579.5" font-size="11.0" fill="#333333">Shop is quiet. No movement at the door.</text>
<rect x="35.0" y="598.5" width="241.9" height="40.0" rx="6" fill="white" stroke="#b0b0b0" stroke-width="1.0" opacity="0.92"/>
<polygon points="107.6,638.5 115.6,638.5 104.6,646.5" fill="white" stroke="#b0b0b0" stroke-width="0.8"/>
<line x1="107.1" y1="638.5" x2="116.1" y2="638.5" stroke="white" stroke-width="1.5"/>
<text x="41.0" y="615.5" font-size="11.0" fill="#b0b0b0" font-weight="700">SABLE</text>
<text x="41.0" y="629.5" font-size="11.0" fill="#333333">Hold positions. Wren has four minutes.</text>
<text x="759.0" y="506.5" text-anchor="end" font-size="12" font-weight="bold" fill="#888888" opacity="0.6">2</text>
<text x="765.0" y="733.5" text-anchor="end" font-size="9" fill="#888888" opacity="0.5">WIDE</text>
<rect x="29.0" y="749.5" width="366.0" height="421.5" rx="2" fill="#f5f0e8" stroke="#2a2a2a" stroke-width="1.5"/>
<ellipse cx="212.0" cy="926.5" rx="132.8" ry="189.7" fill="#c0b8a8" opacity="0.18"/>
<path d="M72.6,860.1 Q212.0,708.4 351.4,860.1" fill="none" stroke="#c0b8a8" stroke-width="3" opacity="0.35"/>
<line x1="165.5" y1="884.8" x2="205.4" y2="882.8" stroke="#a89888" stroke-width="1.5" opacity="0.45"/>
<line x1="218.6" y1="882.8" x2="258.5" y2="884.8" stroke="#a89888" stroke-width="1.5" opacity="0.45"/>
<ellipse cx="174.8" cy="903.7" rx="15.9" ry="9.5" fill="#a89888" opacity="0.45"/>
<ellipse cx="249.2" cy="903.7" rx="15.9" ry="9.5" fill="#a89888" opacity="0.45"/>
<line x1="212.0" y1="930.3" x2="212.0" y2="960.7" stroke="#a89888" stroke-width="1.2" opacity="0.35"/>
<path d="M204.0,960.7 Q212.0,963.7 220.0,960.7" fill="none" stroke="#a89888" stroke-width="1" opacity="0.3"/>
<line x1="178.8" y1="987.2" x2="245.2" y2="987.2" stroke="#a89888" stroke-width="1.2" opacity="0.35"/>
<text x="383.0" y="765.5" text-anchor="end" font-size="12" font-weight="bold" fill="#888888" opacity="0.6">3</text>
<text x="389.0" y="1165.0" text-anchor="end" font-size="9" fill="#888888" opacity="0.5">CU</text>
<rect x="405.0" y="749.5" width="366.0" height="421.5" rx="2" fill="#f5f0e8" stroke="#2a2a2a" stroke-width="1.5"/>
<path d="M520.2,1053.0 L526.4,998.5 Q532.5,994.5 569.3,994.5 L606.7,994.5 Q643.5,994.5 649.6,998.5 L655.8,1053.0 Z" fill="#c87533" opacity="0.35"/>
<line x1="526.4" y1="1024.5" x2="649.6" y2="1024.5" stroke="#c87533" stroke-width="1" opacity="0.3"/>
<line x1="526.4" y1="998.5" x2="501.7" y2="1045.9" stroke="#c87533" stroke-width="2" opacity="0.3"/>
<line x1="501.7" y1="1045.9" x2="520.2" y2="1074.3" stroke="#c87533" stroke-width="2" opacity="0.3"/>
<line x1="649.6" y1="998.5" x2="674.3" y2="1045.9" stroke="#c87533" stroke-width="2" opacity="0.3"/>
<line x1="674.3" y1="1045.9" x2="655.8" y2="1074.3" stroke="#c87533" stroke-width="2" opacity="0.3"/>
<line x1="588.0" y1="910.1" x2="588.0" y2="994.5" stroke="#c87533" stroke-width="3" opacity="0.35"/>
<circle cx="588.0" cy="863.3" r="46.9" fill="#c87533" opacity="0.4"/>
<rect x="411.0" y="757.5" width="266.1" height="40.0" rx="6" fill="white" stroke="#c87533" stroke-width="1.0" opacity="0.92"/>
<polygon points="490.8,797.5 498.8,797.5 487.8,805.5" fill="white" stroke="#c87533" stroke-width="0.8"/>
<line x1="490.3" y1="797.5" x2="499.3" y2="797.5" stroke="white" stroke-width="1.5"/>
<text x="417.0" y="774.5" font-size="11.0" fill="#c87533" font-weight="700">WREN</text>
<text x="417.0" y="788.5" font-size="11.0" fill="#333333">He's moving. The clockmaker is getting up.</text>
<rect x="619.9" y="807.5" width="145.1" height="40.0" rx="6" fill="white" stroke="#b0b0b0" stroke-width="1.0" opacity="0.92"/>
<polygon points="663.4,847.5 671.4,847.5 660.4,855.5" fill="white" stroke="#b0b0b0" stroke-width="0.8"/>
<line x1="662.9" y1="847.5" x2="671.9" y2="847.5" stroke="white" stroke-width="1.5"/>
<text x="625.9" y="824.5" font-size="11.0" fill="#b0b0b0" font-weight="700">SABLE</text>
<text x="625.9" y="838.5" font-size="11.0" fill="#333333">How far along are you?</text>
<rect x="411.0" y="857.5" width="248.0" height="40.0" rx="6" fill="white" stroke="#c87533" stroke-width="1.0" opacity="0.92"/>
<polygon points="485.4,897.5 493.4,897.5 482.4,905.5" fill="white" stroke="#c87533" stroke-width="0.8"/>
<line x1="484.9" y1="897.5" x2="493.9" y2="897.5" stroke="white" stroke-width="1.5"/>
<text x="417.0" y="874.5" font-size="11.0" fill="#c87533" font-weight="700">WREN</text>
<text x="417.0" y="888.5" font-size="11.0" fill="#333333">Seventy percent. I need another minute.</text>
<rect x="680.4" y="907.5" width="84.6" height="40.0" rx="6" fill="white" stroke="#b0b0b0" stroke-width="1.0" opacity="0.92"/>
<polygon points="705.8,947.5 713.8,947.5 702.8,955.5" fill="white" stroke="#b0b0b0" stroke-width="0.8"/>
<line x1="705.3" y1="947.5" x2="714.3" y2="947.5" stroke="white" stroke-width="1.5"/>
<text x="686.4" y="924.5" font-size="11.0" fill="#b0b0b0" font-weight="700">SABLE</text>
<text x="686.4" y="938.5" font-size="11.0" fill="#333333">...Theodore.</text>
<text x="759.0" y="765.5" text-anchor="end" font-size="12" font-weight="bold" fill="#888888" opacity="0.6">4</text>
<text x="765.0" y="1165.0" text-anchor="end" font-size="9" fill="#888888" opacity="0.5">MED</text>
</svg>