<svg xmlns="http://www.w3.org/2000/svg" viewBox="0 0 800 1200" width="800" height="1200" style="background:#ffffff">
<style>
  text { font-family: "Helvetica Neue", Helvetica, Arial, sans-serif; }
</style>
<text x="400.0" y="22" text-anchor="middle" font-size="16" fill="#888888" font-weight="500">PAGE 8  (5 panels)</text>
<rect x="29.0" y="59.0" width="742.0" height="364.0" rx="2" fill="#f5f0e8" stroke="#2a2a2a" stroke-width="1.5"/>
<line x1="35.0" y1="342.9" x2="765.0" y2="342.9" stroke="#a89888" stroke-width="1.0" opacity="0.5"/>
<ellipse cx="276.3" cy="344.9" rx="11.2" ry="2.7" fill="#a89888" opacity="0.2"/>
<line x1="273.6" y1="327.2" x2="269.6" y2="342.9" stroke="#c87533" stroke-width="2" opacity="0.5"/>
<line x1="279.0" y1="327.2" x2="283.1" y2="342.9" stroke="#c87533" stroke-width="2" opacity="0.5"/>
<line x1="276.3" y1="314.1" x2="276.3" y2="327.2" stroke="#c87533" stroke-width="2.5" opacity="0.6"/>
<line x1="262.8" y1="316.1" x2="289.8" y2="316.1" stroke="#c87533" stroke-width="2" opacity="0.5"/>
<line x1="262.8" y1="316.1" x2="258.3" y2="327.6" stroke="#c87533" stroke-width="1.5" opacity="0.4"/>
<line x1="289.8" y1="316.1" x2="294.3" y2="327.6" stroke="#c87533" stroke-width="1.5" opacity="0.4"/>
<circle cx="276.3" cy="297.9" r="8.1" fill="#c87533" opacity="0.6"/>
<ellipse cx="523.7" cy="344.9" rx="11.2" ry="2.7" fill="#a89888" opacity="0.2"/>
<line x1="521.0" y1="327.2" x2="516.9" y2="342.9" stroke="#b0b0b0" stroke-width="2" opacity="0.5"/>
<line x1="526.4" y1="327.2" x2="530.4" y2="342.9" stroke="#b0b0b0" stroke-width="2" opacity="0.5"/>
<line x1="523.7" y1="314.1" x2="523.7" y2="327.2" stroke="#b0b0b0" stroke-width="2.5" opacity="0.6"/>
<line x1="510.2" y1="316.1" x2="537.2" y2="316.1" stroke="#b0b0b0" stroke-width="2" opacity="0.5"/>
<line x1="510.2" y1="316.1" x2="505.7" y2="327.6" stroke="#b0b0b0" stroke-width="1.5" opacity="0.4"/>
<line x1="537.2" y1="316.1" x2="541.7" y2="327.6" stroke="#b0b0b0" stroke-width="1.5" opacity="0.4"/>
<circle cx="523.7" cy="297.9" r="8.1" fill="#b0b0b0" opacity="0.6"/>
<rect x="35.0" y="67.0" width="441.6" height="40.0" rx="6" fill="white" stroke="#c87533" stroke-width="1.0" opacity="0.92"/>
<polygon points="167.5,107.0 175.5,107.0 164.5,115.0" fill="white" stroke="#c87533" stroke-width="0.8"/>
<line x1="167.0" y1="107.0" x2="176.0" y2="107.0" stroke="white" stroke-width="1.5"/>
<text x="41.0" y="84.0" font-size="11.0" fill="#c87533" font-weight="700">WREN</text>
<text x="41.0" y="98.0" font-size="11.0" fill="#333333">Crossing. Clockmaker is at the bench. His feet are four inches from me.</text>
<rect x="662.2" y="117.0" width="102.8" height="40.0" rx="6" fill="white" stroke="#b0b0b0" stroke-width="1.0" opacity="0.92"/>
<polygon points="693.1,157.0 701.1,157.0 690.1,165.0" fill="white" stroke="#b0b0b0" stroke-width="0.8"/>
<line x1="692.6" y1="157.0" x2="701.6" y2="157.0" stroke="white" stroke-width="1.5"/>
<text x="668.2" y="134.0" font-size="11.0" fill="#b0b0b0" font-weight="700">SABLE</text>
<text x="668.2" y="148.0" font-size="11.0" fill="#333333">Take your time.</text>
<text x="759.0" y="75.0" text-anchor="end" font-size="12" font-weight="bold" fill="#888888" opacity="0.6">1</text>
<text x="765.0" y="417.0" text-anchor="end" font-size="9" fill="#888888" opacity="0.5">WIDE</text>
<rect x="29.0" y="433.0" width="366.0" height="364.0" rx="2" fill="#f5f0e8" stroke="#2a2a2a" stroke-width="1.5"/>
<ellipse cx="212.0" cy="585.9" rx="114.7" ry="163.8" fill="#c0b8a8" opacity="0.18"/>
<path d="M91.6,528.5 Q212.0,397.5 332.4,528.5" fill="none" stroke="#c0b8a8" stroke-width="3" opacity="0.35"/>
<line x1="171.9" y1="549.8" x2="206.3" y2="547.8" stroke="#a89888" stroke-width="1.5" opacity="0.45"/>
<line x1="217.7" y1="547.8" x2="252.1" y2="549.8" stroke="#a89888" stroke-width="1.5" opacity="0.45"/>
<ellipse cx="179.9" cy="566.2" rx="13.8" ry="8.2" fill="#a89888" opacity="0.45"/>
<ellipse cx="244.1" cy="566.2" rx="13.8" ry="8.2" fill="#a89888" opacity="0.45"/>
<line x1="212.0" y1="589.2" x2="212.0" y2="615.4" stroke="#a89888" stroke-width="1.2" opacity="0.35"/>
<path d="M205.1,615.4 Q212.0,618.4 218.9,615.4" fill="none" stroke="#a89888" stroke-width="1" opacity="0.3"/>
<line x1="183.3" y1="638.3" x2="240.7" y2="638.3" stroke="#a89888" stroke-width="1.2" opacity="0.35"/>
<text x="383.0" y="449.0" text-anchor="end" font-size="12" font-weight="bold" fill="#888888" opacity="0.6">2</text>
<text x="389.0" y="791.0" text-anchor="end" font-size="9" fill="#888888" opacity="0.5">CU</text>
<rect x="405.0" y="433.0" width="366.0" height="364.0" rx="2" fill="#f5f0e8" stroke="#2a2a2a" stroke-width="1.5"/>
<path d="M529.4,695.1 L534.8,648.6 Q540.1,644.6 571.8,644.6 L604.2,644.6 Q635.9,644.6 641.2,648.6 L646.6,695.1 Z" fill="#c87533" opacity="0.35"/>
<line x1="534.8" y1="670.5" x2="641.2" y2="670.5" stroke="#c87533" stroke-width="1" opacity="0.3"/>
<line x1="534.8" y1="648.6" x2="513.5" y2="689.5" stroke="#c87533" stroke-width="2" opacity="0.3"/>
<line x1="513.5" y1="689.5" x2="529.4" y2="714.1" stroke="#c87533" stroke-width="2" opacity="0.3"/>
<line x1="641.2" y1="648.6" x2="662.5" y2="689.5" stroke="#c87533" stroke-width="2" opacity="0.3"/>
<line x1="662.5" y1="689.5" x2="646.6" y2="714.1" stroke="#c87533" stroke-width="2" opacity="0.3"/>
<line x1="588.0" y1="571.7" x2="588.0" y2="644.6" stroke="#c87533" stroke-width="3" opacity="0.35"/>
<circle cx="588.0" cy="531.3" r="40.5" fill="#c87533" opacity="0.4"/>
<rect x="411.0" y="441.0" width="308.5" height="40.0" rx="6" fill="white" stroke="#c87533" stroke-width="1.0" opacity="0.92"/>
<polygon points="503.5,481.0 511.5,481.0 500.5,489.0" fill="white" stroke="#c87533" stroke-width="0.8"/>
<line x1="503.0" y1="481.0" x2="512.0" y2="481.0" stroke="white" stroke-width="1.5"/>
<text x="417.0" y="458.0" font-size="11.0" fill="#c87533" font-weight="700">WREN</text>
<text x="417.0" y="472.0" font-size="11.0" fill="#333333">At the clock. Access panel is open. I'm going in.</text>
<rect x="411.0" y="491.0" width="350.8" height="40.0" rx="6" fill="white" stroke="#6a5acd" stroke-width="1.0" opacity="0.92"/>
<polygon points="516.2,531.0 524.2,531.0 513.2,539.0" fill="white" stroke="#6a5acd" stroke-width="0.8"/>
<line x1="515.7" y1="531.0" x2="524.7" y2="531.0" stroke="white" stroke-width="1.5"/>
<text x="417.0" y="508.0" font-size="11.0" fill="#6a5acd" font-weight="700">LUMA</text>
<text x="417.0" y="522.0" font-size="11.0" fill="#333333">Heart rate elevated, Wren. Not dangerously. Just noting.</text>
<rect x="411.0" y="541.0" width="62.0" height="40.0" rx="6" fill="white" stroke="#c87533" stroke-width="1.0" opacity="0.92"/>
<polygon points="429.6,581.0 437.6,581.0 426.6,589.0" fill="white" stroke="#c87533" stroke-width="0.8"/>
<line x1="429.1" y1="581.0" x2="438.1" y2="581.0" stroke="white" stroke-width="1.5"/>
<text x="417.0" y="558.0" font-size="11.0" fill="#c87533" font-weight="700">WREN</text>
<text x="417.0" y="572.0" font-size="11.0" fill="#333333">Noted.</text>
<text x="759.0" y="449.0" text-anchor="end" font-size="12" font-weight="bold" fill="#888888" opacity="0.6">3</text>
<text x="765.0" y="791.0" text-anchor="end" font-size="9" fill="#888888" opacity="0.5">MED</text>
<rect x="29.0" y="807.0" width="238.2" height="364.0" rx="2" fill="#f5f0e8" stroke="#2a2a2a" stroke-width="1.5"/>
<path d="M102.2,1069.1 L106.4,998.0 Q110.6,994.0 135.4,994.0 L160.8,994.0 Q185.6,994.0 189.8,998.0 L193.9,1069.1 Z" fill="#c0b8a8" opacity="0.35"/>
<line x1="106.4" y1="1044.5" x2="189.8" y2="1044.5" stroke="#c0b8a8" stroke-width="1" opacity="0.3"/>
<line x1="106.4" y1="998.0" x2="89.7" y2="1038.9" stroke="#c0b8a8" stroke-width="2" opacity="0.3"/>
<line x1="89.7" y1="1038.9" x2="102.2" y2="1063.5" stroke="#c0b8a8" stroke-width="2" opacity="0.3"/>
<line x1="189.8" y1="998.0" x2="206.4" y2="1038.9" stroke="#c0b8a8" stroke-width="2" opacity="0.3"/>
<line x1="206.4" y1="1038.9" x2="193.9" y2="1063.5" stroke="#c0b8a8" stroke-width="2" opacity="0.3"/>
<line x1="148.1" y1="937.0" x2="148.1" y2="994.0" stroke="#c0b8a8" stroke-width="3" opacity="0.35"/>
<circle cx="148.1" cy="905.3" r="31.7" fill="#c0b8a8" opacity="0.4"/>
<text x="255.2" y="823.0" text-anchor="end" font-size="12" font-weight="bold" fill="#888888" opacity="0.6">4</text>
<text x="261.2" y="1165.0" text-anchor="end" font-size="9" fill="#888888" opacity="0.5">MED</text>
<rect x="277.2" y="807.0" width="493.8" height="364.0" rx="2" fill="#f5f0e8" stroke="#2a2a2a" stroke-width="1.5"/>
<line x1="283.2" y1="1090.9" x2="765.0" y2="1090.9" stroke="#a89888" stroke-width="1.0" opacity="0.5"/>
<ellipse cx="524.1" cy="1092.9" rx="11.2" ry="2.7" fill="#a89888" opacity="0.2"/>
<line x1="521.4" y1="1075.2" x2="517.3" y2="1090.9" stroke="#c87533" stroke-width="2" opacity="0.5"/>
<line x1="526.8" y1="1075.2" x2="530.8" y2="1090.9" stroke="#c87533" stroke-width="2" opacity="0.5"/>
<line x1="524.1" y1="1062.1" x2="524.1" y2="1075.2" stroke="#c87533" stroke-width="2.5" opacity="0.6"/>
<line x1="510.6" y1="1064.1" x2="537.6" y2="1064.1" stroke="#c87533" stroke-width="2" opacity="0.5"/>
<line x1="510.6" y1="1064.1" x2="506.1" y2="1075.6" stroke="#c87533" stroke-width="1.5" opacity="0.4"/>
<line x1="537.6" y1="1064.1" x2="542.1" y2="1075.6" stroke="#c87533" stroke-width="1.5" opacity="0.4"/>
<circle cx="524.1" cy="1045.9" r="8.1" fill="#c87533" opacity="0.6"/>
<rect x="283.2" y="815.0" width="62.0" height="40.0" rx="6" fill="white" stroke="#c87533" stroke-width="1.0" opacity="0.92"/>
<polygon points="301.8,855.0 309.8,855.0 298.8,863.0" fill="white" stroke="#c87533" stroke-width="0.8"/>
<line x1="301.3" y1="855.0" x2="310.3" y2="855.0" stroke="white" stroke-width="1.5"/>
<text x="289.2" y="832.0" font-size="11.0" fill="#c87533" font-weight="700">WREN</text>
<text x="289.2" y="846.0" font-size="11.0" fill="#333333">...oh.</text>
<text x="759.0" y="823.0" text-anchor="end" font-size="12" font-weight="bold" fill="#888888" opacity="0.6">5</text>
<text x="765.0" y="1165.0" text-anchor="end" font-size="9" fill="#888888" opacity="0.5">WIDE</text>
</svg>