<svg xmlns="http://www.w3.org/2000/svg" viewBox="0 0 800 1200" width="800" height="1200" style="background:#ffffff">
<style>
  text { font-family: "Helvetica Neue", Helvetica, Arial, sans-serif; }
</style>
<text x="400.0" y="22" text-anchor="middle" font-size="16" fill="#888888" font-weight="500">PAGE 5  (5 panels)</text>
<rect x="29.0" y="59.0" width="493.8" height="364.0" rx="2" fill="#f5f0e8" stroke="#2a2a2a" stroke-width="1.5"/>
<path d="M217.4,321.1 L222.7,274.6 Q228.0,270.6 259.7,270.6 L292.1,270.6 Q323.8,270.6 329.2,274.6 L334.5,321.1 Z" fill="#c87533" opacity="0.35"/>
<line x1="222.7" y1="296.5" x2="329.2" y2="296.5" stroke="#c87533" stroke-width="1" opacity="0.3"/>
<line x1="222.7" y1="274.6" x2="201.4" y2="315.5" stroke="#c87533" stroke-width="2" opacity="0.3"/>
<line x1="201.4" y1="315.5" x2="217.4" y2="340.1" stroke="#c87533" stroke-width="2" opacity="0.3"/>
<line x1="329.2" y1="274.6" x2="350.4" y2="315.5" stroke="#c87533" stroke-width="2" opacity="0.3"/>
<line x1="350.4" y1="315.5" x2="334.5" y2="340.1" stroke="#c87533" stroke-width="2" opacity="0.3"/>
<line x1="275.9" y1="197.7" x2="275.9" y2="270.6" stroke="#c87533" stroke-width="3" opacity="0.35"/>
<circle cx="275.9" cy="157.3" r="40.5" fill="#c87533" opacity="0.4"/>
<rect x="35.0" y="67.0" width="481.8" height="54.0" rx="6" fill="white" stroke="#c87533" stroke-width="1.0" opacity="0.92"/>
<polygon points="179.6,121.0 187.6,121.0 176.6,129.0" fill="white" stroke="#c87533" stroke-width="0.8"/>
<line x1="179.1" y1="121.0" x2="188.1" y2="121.0" stroke="white" stroke-width="1.5"/>
<text x="41.0" y="84.0" font-size="11.0" fill="#c87533" font-weight="700">WREN</text>
<text x="41.0" y="98.0" font-size="11.0" fill="#333333">There it is. The grandfather clock is in the back — past the display window, past</text>
<text x="41.0" y="112.0" font-size="11.0" fill="#333333">the workbench.</text>
<rect x="208.4" y="131.0" width="308.5" height="40.0" rx="6" fill="white" stroke="#c87533" stroke-width="1.0" opacity="0.92"/>
<polygon points="300.9,171.0 308.9,171.0 297.9,179.0" fill="white" stroke="#c87533" stroke-width="0.8"/>
<line x1="300.4" y1="171.0" x2="309.4" y2="171.0" stroke="white" stroke-width="1.5"/>
<text x="214.4" y="148.0" font-size="11.0" fill="#c87533" font-weight="700">WREN</text>
<text x="214.4" y="162.0" font-size="11.0" fill="#333333">I need to get inside that mechanism. Deep inside.</text>
<text x="510.8" y="75.0" text-anchor="end" font-size="12" font-weight="bold" fill="#888888" opacity="0.6">1</text>
<text x="516.8" y="417.0" text-anchor="end" font-size="9" fill="#888888" opacity="0.5">MW</text>
<rect x="532.8" y="59.0" width="238.2" height="364.0" rx="2" fill="#f5f0e8" stroke="#2a2a2a" stroke-width="1.5"/>
<path d="M583.3,290.3 Q583.3,256.0 634.8,251.8 L669.1,251.8 Q720.5,256.0 720.5,290.3 L720.5,379.3 L583.3,379.3 Z" fill="#c87533" opacity="0.25"/>
<path d="M636.9,251.8 L651.9,273.2 L666.9,251.8" fill="none" stroke="#c87533" stroke-width="1" opacity="0.3"/>
<circle cx="651.9" cy="204.6" r="42.9" fill="#c87533" opacity="0.35"/>
<path d="M609.1,213.2 Q615.5,251.8 651.9,253.9 Q688.4,251.8 694.8,213.2" fill="none" stroke="#c87533" stroke-width="1.2" opacity="0.3"/>
<path d="M606.9,200.3 Q651.9,148.9 696.9,200.3" fill="none" stroke="#c87533" stroke-width="2" opacity="0.4"/>
<ellipse cx="607.1" cy="206.7" rx="2.5" ry="4" fill="#c87533" opacity="0.25"/>
<ellipse cx="696.8" cy="206.7" rx="2.5" ry="4" fill="#c87533" opacity="0.25"/>
<rect x="538.8" y="67.0" width="62.0" height="38.0" rx="6" fill="white" stroke="#c87533" stroke-width="1.0" opacity="0.92"/>
<polygon points="557.4,105.0 565.4,105.0 554.4,113.0" fill="white" stroke="#c87533" stroke-width="0.8"/>
<line x1="556.9" y1="105.0" x2="565.9" y2="105.0" stroke="white" stroke-width="1.5"/>
<text x="544.8" y="83.0" font-size="10.0" fill="#c87533" font-weight="700">WREN</text>
<text x="544.8" y="96.0" font-size="10.0" fill="#333333">Hm.</text>
<text x="759.0" y="75.0" text-anchor="end" font-size="12" font-weight="bold" fill="#888888" opacity="0.6">2</text>
<text x="765.0" y="417.0" text-anchor="end" font-size="9" fill="#888888" opacity="0.5">MCU</text>
<rect x="29.0" y="433.0" width="742.0" height="364.0" rx="2" fill="#f5f0e8" stroke="#2a2a2a" stroke-width="1.5"/>
<path d="M341.4,695.1 L346.8,648.6 Q352.1,644.6 383.8,644.6 L416.2,644.6 Q447.9,644.6 453.2,648.6 L458.6,695.1 Z" fill="#2e8b57" opacity="0.35"/>
<line x1="346.8" y1="670.5" x2="453.2" y2="670.5" stroke="#2e8b57" stroke-width="1" opacity="0.3"/>
<line x1="346.8" y1="648.6" x2="325.5" y2="689.5" stroke="#2e8b57" stroke-width="2" opacity="0.3"/>
<line x1="325.5" y1="689.5" x2="341.4" y2="714.1" stroke="#2e8b57" stroke-width="2" opacity="0.3"/>
<line x1="453.2" y1="648.6" x2="474.5" y2="689.5" stroke="#2e8b57" stroke-width="2" opacity="0.3"/>
<line x1="474.5" y1="689.5" x2="458.6" y2="714.1" stroke="#2e8b57" stroke-width="2" opacity="0.3"/>
<line x1="400.0" y1="571.7" x2="400.0" y2="644.6" stroke="#2e8b57" stroke-width="3" opacity="0.35"/>
<circle cx="400.0" cy="531.3" r="40.5" fill="#2e8b57" opacity="0.4"/>
<rect x="35.0" y="441.0" width="217.7" height="40.0" rx="6" fill="white" stroke="#2e8b57" stroke-width="1.0" opacity="0.92"/>
<polygon points="100.3,481.0 108.3,481.0 97.3,489.0" fill="white" stroke="#2e8b57" stroke-width="0.8"/>
<line x1="99.8" y1="481.0" x2="108.8" y2="481.0" stroke="white" stroke-width="1.5"/>
<text x="41.0" y="458.0" font-size="11.0" fill="#2e8b57" font-weight="700">JINK</text>
<text x="41.0" y="472.0" font-size="11.0" fill="#333333">Sign bracket is solid. Good perch.</text>
<rect x="160.1" y="491.0" width="604.9" height="40.0" rx="6" fill="white" stroke="#2e8b57" stroke-width="1.0" opacity="0.92"/>
<polygon points="341.6,531.0 349.6,531.0 338.6,539.0" fill="white" stroke="#2e8b57" stroke-width="0.8"/>
<line x1="341.1" y1="531.0" x2="350.1" y2="531.0" stroke="white" stroke-width="1.5"/>
<text x="166.1" y="508.0" font-size="11.0" fill="#2e8b57" font-weight="700">JINK</text>
<text x="166.1" y="522.0" font-size="11.0" fill="#333333">First-floor window — gap at the bottom sash. Three inches, maybe four. Thresh can squeeze through.</text>
<rect x="35.0" y="541.0" width="78.6" height="40.0" rx="6" fill="white" stroke="#b22222" stroke-width="1.0" opacity="0.92"/>
<polygon points="58.6,581.0 66.6,581.0 55.6,589.0" fill="white" stroke="#b22222" stroke-width="0.8"/>
<line x1="58.1" y1="581.0" x2="67.1" y2="581.0" stroke="white" stroke-width="1.5"/>
<text x="41.0" y="558.0" font-size="11.0" fill="#b22222" font-weight="700">THRESH</text>
<text x="41.0" y="572.0" font-size="11.0" fill="#333333">Delightful.</text>
<text x="759.0" y="449.0" text-anchor="end" font-size="12" font-weight="bold" fill="#888888" opacity="0.6">3</text>
<text x="765.0" y="791.0" text-anchor="end" font-size="9" fill="#888888" opacity="0.5">MW</text>
<rect x="29.0" y="807.0" width="366.0" height="364.0" rx="2" fill="#f5f0e8" stroke="#2a2a2a" stroke-width="1.5"/>
<path d="M153.4,1069.1 L158.8,1022.6 Q164.1,1018.6 195.8,1018.6 L228.2,1018.6 Q259.9,1018.6 265.2,1022.6 L270.6,1069.1 Z" fill="#b22222" opacity="0.35"/>
<line x1="158.8" y1="1044.5" x2="265.2" y2="1044.5" stroke="#b22222" stroke-width="1" opacity="0.3"/>
<line x1="158.8" y1="1022.6" x2="137.5" y2="1063.5" stroke="#b22222" stroke-width="2" opacity="0.3"/>
<line x1="137.5" y1="1063.5" x2="153.4" y2="1088.1" stroke="#b22222" stroke-width="2" opacity="0.3"/>
<line x1="265.2" y1="1022.6" x2="286.5" y2="1063.5" stroke="#b22222" stroke-width="2" opacity="0.3"/>
<line x1="286.5" y1="1063.5" x2="270.6" y2="1088.1" stroke="#b22222" stroke-width="2" opacity="0.3"/>
<line x1="212.0" y1="945.7" x2="212.0" y2="1018.6" stroke="#b22222" stroke-width="3" opacity="0.35"/>
<circle cx="212.0" cy="905.3" r="40.5" fill="#b22222" opacity="0.4"/>
<rect x="35.0" y="815.0" width="66.5" height="40.0" rx="6" fill="white" stroke="#b22222" stroke-width="1.0" opacity="0.92"/>
<polygon points="54.9,855.0 62.9,855.0 51.9,863.0" fill="white" stroke="#b22222" stroke-width="0.8"/>
<line x1="54.4" y1="855.0" x2="63.4" y2="855.0" stroke="white" stroke-width="1.5"/>
<text x="41.0" y="832.0" font-size="11.0" fill="#b22222" font-weight="700">THRESH</text>
<text x="41.0" y="846.0" font-size="11.0" fill="#333333">Climbing.</text>
<text x="383.0" y="823.0" text-anchor="end" font-size="12" font-weight="bold" fill="#888888" opacity="0.6">4</text>
<text x="389.0" y="1165.0" text-anchor="end" font-size="9" fill="#888888" opacity="0.5">MED</text>
<rect x="405.0" y="807.0" width="366.0" height="364.0" rx="2" fill="#f5f0e8" stroke="#2a2a2a" stroke-width="1.5"/>
<path d="M529.4,1069.1 L534.8,1022.6 Q540.1,1018.6 571.8,1018.6 L604.2,1018.6 Q635.9,1018.6 641.2,1022.6 L646.6,1069.1 Z" fill="#b0b0b0" opacity="0.35"/>
<line x1="534.8" y1="1044.5" x2="641.2" y2="1044.5" stroke="#b0b0b0" stroke-width="1" opacity="0.3"/>
<line x1="534.8" y1="1022.6" x2="513.5" y2="1063.5" stroke="#b0b0b0" stroke-width="2" opacity="0.3"/>
<line x1="513.5" y1="1063.5" x2="529.4" y2="1088.1" stroke="#b0b0b0" stroke-width="2" opacity="0.3"/>
<line x1="641.2" y1="1022.6" x2="662.5" y2="1063.5" stroke="#b0b0b0" stroke-width="2" opacity="0.3"/>
<line x1="662.5" y1="1063.5" x2="646.6" y2="1088.1" stroke="#b0b0b0" stroke-width="2" opacity="0.3"/>
<line x1="588.0" y1="945.7" x2="588.0" y2="1018.6" stroke="#b0b0b0" stroke-width="3" opacity="0.35"/>
<circle cx="588.0" cy="905.3" r="40.5" fill="#b0b0b0" opacity="0.4"/>
<rect x="411.0" y="815.0" width="354.0" height="54.0" rx="6" fill="white" stroke="#b0b0b0" stroke-width="1.0" opacity="0.92"/>
<polygon points="517.2,869.0 525.2,869.0 514.2,877.0" fill="white" stroke="#b0b0b0" stroke-width="0.8"/>
<line x1="516.7" y1="869.0" x2="525.7" y2="869.0" stroke="white" stroke-width="1.5"/>
<text x="417.0" y="832.0" font-size="11.0" fill="#b0b0b0" font-weight="700">SABLE</text>
<text x="417.0" y="846.0" font-size="11.0" fill="#333333">Luma, I have eyes on the shop. Jink is on the sign bracket.</text>
<text x="417.0" y="860.0" font-size="11.0" fill="#333333">Thresh is climbing to overwatch.</text>
<rect x="559.4" y="879.0" width="205.6" height="40.0" rx="6" fill="white" stroke="#6a5acd" stroke-width="1.0" opacity="0.92"/>
<polygon points="621.1,919.0 629.1,919.0 618.1,927.0" fill="white" stroke="#6a5acd" stroke-width="0.8"/>
<line x1="620.6" y1="919.0" x2="629.6" y2="919.0" stroke="white" stroke-width="1.5"/>
<text x="565.4" y="896.0" font-size="11.0" fill="#6a5acd" font-weight="700">LUMA</text>
<text x="565.4" y="910.0" font-size="11.0" fill="#333333">Copy. All vitals holding steady.</text>
<rect x="411.0" y="929.0" width="205.6" height="40.0" rx="6" fill="white" stroke="#b0b0b0" stroke-width="1.0" opacity="0.92"/>
<polygon points="472.7,969.0 480.7,969.0 469.7,977.0" fill="white" stroke="#b0b0b0" stroke-width="0.8"/>
<line x1="472.2" y1="969.0" x2="481.2" y2="969.0" stroke="white" stroke-width="1.5"/>
<text x="417.0" y="946.0" font-size="11.0" fill="#b0b0b0" font-weight="700">SABLE</text>
<text x="417.0" y="960.0" font-size="11.0" fill="#333333">Wren, you are clear to approach.</text>
<text x="759.0" y="823.0" text-anchor="end" font-size="12" font-weight="bold" fill="#888888" opacity="0.6">5</text>
<text x="765.0" y="1165.0" text-anchor="end" font-size="9" fill="#888888" opacity="0.5">MED</text>
</svg>