<svg xmlns="http://www.w3.org/2000/svg" viewBox="0 0 800 1200" width="800" height="1200" style="background:#ffffff">
<style>
  text { font-family: "Helvetica Neue", Helvetica, Arial, sans-serif; }
</style>
<text x="400.0" y="22" text-anchor="middle" font-size="16" fill="#888888" font-weight="500">PAGE 9  (5 panels)</text>
<rect x="29.0" y="59.0" width="742.0" height="248.9" rx="2" fill="#f5f0e8" stroke="#2a2a2a" stroke-width="1.5"/>
<line x1="35.0" y1="253.2" x2="765.0" y2="253.2" stroke="#a89888" stroke-width="1.0" opacity="0.5"/>
<ellipse cx="276.3" cy="255.2" rx="11.2" ry="2.7" fill="#a89888" opacity="0.2"/>
<line x1="273.6" y1="237.5" x2="269.6" y2="253.2" stroke="#c87533" stroke-width="2" opacity="0.5"/>
<line x1="279.0" y1="237.5" x2="283.1" y2="253.2" stroke="#c87533" stroke-width="2" opacity="0.5"/>
<line x1="276.3" y1="224.5" x2="276.3" y2="237.5" stroke="#c87533" stroke-width="2.5" opacity="0.6"/>
<line x1="262.9" y1="226.5" x2="289.8" y2="226.5" stroke="#c87533" stroke-width="2" opacity="0.5"/>
<line x1="262.9" y1="226.5" x2="258.4" y2="237.9" stroke="#c87533" stroke-width="1.5" opacity="0.4"/>
<line x1="289.8" y1="226.5" x2="294.3" y2="237.9" stroke="#c87533" stroke-width="1.5" opacity="0.4"/>
<circle cx="276.3" cy="208.4" r="8.1" fill="#c87533" opacity="0.6"/>
<ellipse cx="523.7" cy="255.2" rx="11.2" ry="2.7" fill="#a89888" opacity="0.2"/>
<line x1="521.0" y1="237.5" x2="516.9" y2="253.2" stroke="#b0b0b0" stroke-width="2" opacity="0.5"/>
<line x1="526.4" y1="237.5" x2="530.4" y2="253.2" stroke="#b0b0b0" stroke-width="2" opacity="0.5"/>
<line x1="523.7" y1="224.5" x2="523.7" y2="237.5" stroke="#b0b0b0" stroke-width="2.5" opacity="0.6"/>
<line x1="510.2" y1="226.5" x2="537.1" y2="226.5" stroke="#b0b0b0" stroke-width="2" opacity="0.5"/>
<line x1="510.2" y1="226.5" x2="505.7" y2="237.9" stroke="#b0b0b0" stroke-width="1.5" opacity="0.4"/>
<line x1="537.1" y1="226.5" x2="541.6" y2="237.9" stroke="#b0b0b0" stroke-width="1.5" opacity="0.4"/>
<circle cx="523.7" cy="208.4" r="8.1" fill="#b0b0b0" opacity="0.6"/>
<rect x="35.0" y="67.0" width="562.6" height="40.0" rx="6" fill="white" stroke="#c87533" stroke-width="1.0" opacity="0.92"/>
<polygon points="203.8,107.0 211.8,107.0 200.8,115.0" fill="white" stroke="#c87533" stroke-width="0.8"/>
<line x1="203.3" y1="107.0" x2="212.3" y2="107.0" stroke="white" stroke-width="1.5"/>
<text x="41.0" y="84.0" font-size="11.0" fill="#c87533" font-weight="700">WREN</text>
<text x="41.0" y="98.0" font-size="11.0" fill="#333333">The mechanism is... it's remarkable. The tolerances are extraordinary for hand-fitted work.</text>
<rect x="626.0" y="117.0" width="139.1" height="40.0" rx="6" fill="white" stroke="#b0b0b0" stroke-width="1.0" opacity="0.92"/>
<polygon points="667.7,157.0 675.7,157.0 664.7,165.0" fill="white" stroke="#b0b0b0" stroke-width="0.8"/>
<line x1="667.2" y1="157.0" x2="676.2" y2="157.0" stroke="white" stroke-width="1.5"/>
<text x="632.0" y="134.0" font-size="11.0" fill="#b0b0b0" font-weight="700">SABLE</text>
<text x="632.0" y="148.0" font-size="11.0" fill="#333333">Can you get the gear?</text>
<rect x="35.0" y="167.0" width="229.8" height="40.0" rx="6" fill="white" stroke="#c87533" stroke-width="1.0" opacity="0.92"/>
<polygon points="103.9,207.0 111.9,207.0 100.9,215.0" fill="white" stroke="#c87533" stroke-width="0.8"/>
<line x1="103.4" y1="207.0" x2="112.4" y2="207.0" stroke="white" stroke-width="1.5"/>
<text x="41.0" y="184.0" font-size="11.0" fill="#c87533" font-weight="700">WREN</text>
<text x="41.0" y="198.0" font-size="11.0" fill="#333333">Yes. Moving to the fourth wheel now.</text>
<text x="759.0" y="75.0" text-anchor="end" font-size="12" font-weight="bold" fill="#888888" opacity="0.6">1</text>
<text x="765.0" y="301.9" text-anchor="end" font-size="9" fill="#888888" opacity="0.5">WIDE</text>
<rect x="29.0" y="317.9" width="238.2" height="421.5" rx="2" fill="#f5f0e8" stroke="#2a2a2a" stroke-width="1.5"/>
<ellipse cx="148.1" cy="495.0" rx="95.3" ry="189.7" fill="#c87533" opacity="0.18"/>
<path d="M48.1,428.6 Q148.1,276.8 248.1,428.6" fill="none" stroke="#c87533" stroke-width="3" opacity="0.35"/>
<line x1="114.7" y1="453.2" x2="143.3" y2="451.2" stroke="#a89888" stroke-width="1.5" opacity="0.45"/>
<line x1="152.8" y1="451.2" x2="181.4" y2="453.2" stroke="#a89888" stroke-width="1.5" opacity="0.45"/>
<ellipse cx="121.4" cy="472.2" rx="11.4" ry="9.5" fill="#a89888" opacity="0.45"/>
<ellipse cx="174.8" cy="472.2" rx="11.4" ry="9.5" fill="#a89888" opacity="0.45"/>
<line x1="148.1" y1="498.8" x2="148.1" y2="529.1" stroke="#a89888" stroke-width="1.2" opacity="0.35"/>
<path d="M142.4,529.1 Q148.1,532.1 153.8,529.1" fill="none" stroke="#a89888" stroke-width="1" opacity="0.3"/>
<line x1="124.3" y1="555.7" x2="171.9" y2="555.7" stroke="#a89888" stroke-width="1.2" opacity="0.35"/>
<rect x="35.0" y="325.9" width="226.2" height="51.0" rx="6" fill="white" stroke="#c87533" stroke-width="1.0" opacity="0.92"/>
<polygon points="102.8,376.9 110.8,376.9 99.8,384.9" fill="white" stroke="#c87533" stroke-width="0.8"/>
<line x1="102.3" y1="376.9" x2="111.3" y2="376.9" stroke="white" stroke-width="1.5"/>
<text x="41.0" y="341.9" font-size="10.0" fill="#c87533" font-weight="700">WREN</text>
<text x="41.0" y="354.9" font-size="10.0" fill="#333333">Hand-lapped. Even the tooth profiles are</text>
<text x="41.0" y="367.9" font-size="10.0" fill="#333333">finished by hand.</text>
<text x="255.2" y="333.9" text-anchor="end" font-size="12" font-weight="bold" fill="#888888" opacity="0.6">2</text>
<text x="261.2" y="733.5" text-anchor="end" font-size="9" fill="#888888" opacity="0.5">CU</text>
<rect x="277.2" y="317.9" width="493.8" height="421.5" rx="2" fill="#f5f0e8" stroke="#2a2a2a" stroke-width="1.5"/>
<path d="M456.3,621.4 L462.4,566.9 Q468.6,562.9 505.3,562.9 L542.8,562.9 Q579.6,562.9 585.7,566.9 L591.9,621.4 Z" fill="#c87533" opacity="0.35"/>
<line x1="462.4" y1="593.0" x2="585.7" y2="593.0" stroke="#c87533" stroke-width="1" opacity="0.3"/>
<line x1="462.4" y1="566.9" x2="437.8" y2="614.4" stroke="#c87533" stroke-width="2" opacity="0.3"/>
<line x1="437.8" y1="614.4" x2="456.3" y2="642.8" stroke="#c87533" stroke-width="2" opacity="0.3"/>
<line x1="585.7" y1="566.9" x2="610.4" y2="614.4" stroke="#c87533" stroke-width="2" opacity="0.3"/>
<line x1="610.4" y1="614.4" x2="591.9" y2="642.8" stroke="#c87533" stroke-width="2" opacity="0.3"/>
<line x1="524.1" y1="478.6" x2="524.1" y2="562.9" stroke="#c87533" stroke-width="3" opacity="0.35"/>
<circle cx="524.1" cy="431.7" r="46.9" fill="#c87533" opacity="0.4"/>
<rect x="283.2" y="325.9" width="278.2" height="40.0" rx="6" fill="white" stroke="#c87533" stroke-width="1.0" opacity="0.92"/>
<polygon points="366.6,365.9 374.6,365.9 363.6,373.9" fill="white" stroke="#c87533" stroke-width="0.8"/>
<line x1="366.1" y1="365.9" x2="375.1" y2="365.9" stroke="white" stroke-width="1.5"/>
<text x="289.2" y="342.9" font-size="11.0" fill="#c87533" font-weight="700">WREN</text>
<text x="289.2" y="356.9" font-size="11.0" fill="#333333">Through the mesh point. At the fourth wheel.</text>
<text x="759.0" y="333.9" text-anchor="end" font-size="12" font-weight="bold" fill="#888888" opacity="0.6">3</text>
<text x="765.0" y="733.5" text-anchor="end" font-size="9" fill="#888888" opacity="0.5">MW</text>
<rect x="29.0" y="749.5" width="366.0" height="421.5" rx="2" fill="#f5f0e8" stroke="#2a2a2a" stroke-width="1.5"/>
<path d="M144.2,1053.0 L150.3,998.5 Q156.5,994.5 193.3,994.5 L230.7,994.5 Q267.5,994.5 273.6,998.5 L279.8,1053.0 Z" fill="#c87533" opacity="0.35"/>
<line x1="150.3" y1="1024.5" x2="273.6" y2="1024.5" stroke="#c87533" stroke-width="1" opacity="0.3"/>
<line x1="150.3" y1="998.5" x2="125.7" y2="1045.9" stroke="#c87533" stroke-width="2" opacity="0.3"/>
<line x1="125.7" y1="1045.9" x2="144.2" y2="1074.3" stroke="#c87533" stroke-width="2" opacity="0.3"/>
<line x1="273.6" y1="998.5" x2="298.3" y2="1045.9" stroke="#c87533" stroke-width="2" opacity="0.3"/>
<line x1="298.3" y1="1045.9" x2="279.8" y2="1074.3" stroke="#c87533" stroke-width="2" opacity="0.3"/>
<line x1="212.0" y1="910.1" x2="212.0" y2="994.5" stroke="#c87533" stroke-width="3" opacity="0.35"/>
<circle cx="212.0" cy="863.3" r="46.9" fill="#c87533" opacity="0.4"/>
<rect x="35.0" y="757.5" width="354.0" height="54.0" rx="6" fill="white" stroke="#c87533" stroke-width="1.0" opacity="0.92"/>
<polygon points="141.2,811.5 149.2,811.5 138.2,819.5" fill="white" stroke="#c87533" stroke-width="0.8"/>
<line x1="140.7" y1="811.5" x2="149.7" y2="811.5" stroke="white" stroke-width="1.5"/>
<text x="41.0" y="774.5" font-size="11.0" fill="#c87533" font-weight="700">WREN</text>
<text x="41.0" y="788.5" font-size="11.0" fill="#333333">I have the target. Sixteen-tooth pinion, sixty-four-tooth</text>
<text x="41.0" y="802.5" font-size="11.0" fill="#333333">wheel. The machining is...</text>
<rect x="298.4" y="821.5" width="90.7" height="40.0" rx="6" fill="white" stroke="#c87533" stroke-width="1.0" opacity="0.92"/>
<polygon points="325.5,861.5 333.5,861.5 322.5,869.5" fill="white" stroke="#c87533" stroke-width="0.8"/>
<line x1="325.0" y1="861.5" x2="334.0" y2="861.5" stroke="white" stroke-width="1.5"/>
<text x="304.4" y="838.5" font-size="11.0" fill="#c87533" font-weight="700">WREN</text>
<text x="304.4" y="852.5" font-size="11.0" fill="#333333">...very good.</text>
<rect x="35.0" y="871.5" width="120.9" height="40.0" rx="6" fill="white" stroke="#b0b0b0" stroke-width="1.0" opacity="0.92"/>
<polygon points="71.3,911.5 79.3,911.5 68.3,919.5" fill="white" stroke="#b0b0b0" stroke-width="0.8"/>
<line x1="70.8" y1="911.5" x2="79.8" y2="911.5" stroke="white" stroke-width="1.5"/>
<text x="41.0" y="888.5" font-size="11.0" fill="#b0b0b0" font-weight="700">SABLE</text>
<text x="41.0" y="902.5" font-size="11.0" fill="#333333">High praise, Wren.</text>
<rect x="327.0" y="921.5" width="62.0" height="40.0" rx="6" fill="white" stroke="#c87533" stroke-width="1.0" opacity="0.92"/>
<polygon points="345.6,961.5 353.6,961.5 342.6,969.5" fill="white" stroke="#c87533" stroke-width="0.8"/>
<line x1="345.1" y1="961.5" x2="354.1" y2="961.5" stroke="white" stroke-width="1.5"/>
<text x="333.0" y="938.5" font-size="11.0" fill="#c87533" font-weight="700">WREN</text>
<text x="333.0" y="952.5" font-size="11.0" fill="#333333">It is.</text>
<text x="383.0" y="765.5" text-anchor="end" font-size="12" font-weight="bold" fill="#888888" opacity="0.6">4</text>
<text x="389.0" y="1165.0" text-anchor="end" font-size="9" fill="#888888" opacity="0.5">MED</text>
<rect x="405.0" y="749.5" width="366.0" height="421.5" rx="2" fill="#f5f0e8" stroke="#2a2a2a" stroke-width="1.5"/>
<ellipse cx="588.0" cy="926.5" rx="132.8" ry="189.7" fill="#c87533" opacity="0.18"/>
<path d="M448.6,860.1 Q588.0,708.4 727.4,860.1" fill="none" stroke="#c87533" stroke-width="3" opacity="0.35"/>
<line x1="541.5" y1="884.8" x2="581.4" y2="882.8" stroke="#a89888" stroke-width="1.5" opacity="0.45"/>
<line x1="594.6" y1="882.8" x2="634.5" y2="884.8" stroke="#a89888" stroke-width="1.5" opacity="0.45"/>
<ellipse cx="550.8" cy="903.7" rx="15.9" ry="9.5" fill="#a89888" opacity="0.45"/>
<ellipse cx="625.2" cy="903.7" rx="15.9" ry="9.5" fill="#a89888" opacity="0.45"/>
<line x1="588.0" y1="930.3" x2="588.0" y2="960.7" stroke="#a89888" stroke-width="1.2" opacity="0.35"/>
<path d="M580.0,960.7 Q588.0,963.7 596.0,960.7" fill="none" stroke="#a89888" stroke-width="1" opacity="0.3"/>
<line x1="554.8" y1="987.2" x2="621.2" y2="987.2" stroke="#a89888" stroke-width="1.2" opacity="0.35"/>
<rect x="411.0" y="757.5" width="354.0" height="54.0" rx="6" fill="white" stroke="#c87533" stroke-width="1.0" opacity="0.92"/>
<polygon points="517.2,811.5 525.2,811.5 514.2,819.5" fill="white" stroke="#c87533" stroke-width="0.8"/>
<line x1="516.7" y1="811.5" x2="525.7" y2="811.5" stroke="white" stroke-width="1.5"/>
<text x="417.0" y="774.5" font-size="11.0" fill="#c87533" font-weight="700">WREN</text>
<text x="417.0" y="788.5" font-size="11.0" fill="#333333">How did you do this? With files and hand lathes and — how</text>
<text x="417.0" y="802.5" font-size="11.0" fill="#333333">did you get it this close?</text>
<text x="759.0" y="765.5" text-anchor="end" font-size="12" font-weight="bold" fill="#888888" opacity="0.6">5</text>
<text x="765.0" y="1165.0" text-anchor="end" font-size="9" fill="#888888" opacity="0.5">CU</text>
</svg>