<svg xmlns="http://www.w3.org/2000/svg" viewBox="0 0 800 1200" width="800" height="1200" style="background:#ffffff">
<style>
  text { font-family: "Helvetica Neue", Helvetica, Arial, sans-serif; }
</style>
<text x="400.0" y="22" text-anchor="middle" font-size="16" fill="#888888" font-weight="500">PAGE 15  (5 panels)</text>
<rect x="29.0" y="59.0" width="742.0" height="364.0" rx="2" fill="#f5f0e8" stroke="#2a2a2a" stroke-width="1.5"/>
<path d="M341.4,321.1 L346.8,274.6 Q352.1,270.6 383.8,270.6 L416.2,270.6 Q447.9,270.6 453.2,274.6 L458.6,321.1 Z" fill="#999999" opacity="0.35"/>
<line x1="346.8" y1="296.5" x2="453.2" y2="296.5" stroke="#999999" stroke-width="1" opacity="0.3"/>
<line x1="346.8" y1="274.6" x2="325.5" y2="315.5" stroke="#999999" stroke-width="2" opacity="0.3"/>
<line x1="325.5" y1="315.5" x2="341.4" y2="340.1" stroke="#999999" stroke-width="2" opacity="0.3"/>
<line x1="453.2" y1="274.6" x2="474.5" y2="315.5" stroke="#999999" stroke-width="2" opacity="0.3"/>
<line x1="474.5" y1="315.5" x2="458.6" y2="340.1" stroke="#999999" stroke-width="2" opacity="0.3"/>
<line x1="400.0" y1="197.7" x2="400.0" y2="270.6" stroke="#999999" stroke-width="3" opacity="0.35"/>
<circle cx="400.0" cy="157.3" r="40.5" fill="#999999" opacity="0.4"/>
<rect x="35.0" y="67.0" width="90.7" height="40.0" rx="6" fill="white" stroke="#999999" stroke-width="1.0" opacity="0.92"/>
<polygon points="62.2,107.0 70.2,107.0 59.2,115.0" fill="white" stroke="#999999" stroke-width="0.8"/>
<line x1="61.7" y1="107.0" x2="70.7" y2="107.0" stroke="white" stroke-width="1.5"/>
<text x="41.0" y="84.0" font-size="11.0" fill="#999999" font-weight="700">SFX</text>
<text x="41.0" y="98.0" font-size="11.0" fill="#333333">*TING-a-ling*</text>
<rect x="668.3" y="117.0" width="96.7" height="40.0" rx="6" fill="white" stroke="#999999" stroke-width="1.0" opacity="0.92"/>
<polygon points="697.3,157.0 705.3,157.0 694.3,165.0" fill="white" stroke="#999999" stroke-width="0.8"/>
<line x1="696.8" y1="157.0" x2="705.8" y2="157.0" stroke="white" stroke-width="1.5"/>
<text x="674.3" y="134.0" font-size="11.0" fill="#999999" font-weight="700">CLOCKMAKER</text>
<text x="674.3" y="148.0" font-size="11.0" fill="#333333">Shop's closed.</text>
<rect x="35.0" y="167.0" width="429.5" height="40.0" rx="6" fill="white" stroke="#c49a6c" stroke-width="1.0" opacity="0.92"/>
<polygon points="163.8,207.0 171.8,207.0 160.8,215.0" fill="white" stroke="#c49a6c" stroke-width="0.8"/>
<line x1="163.3" y1="207.0" x2="172.3" y2="207.0" stroke="white" stroke-width="1.5"/>
<text x="41.0" y="184.0" font-size="11.0" fill="#c49a6c" font-weight="700">THEODORE</text>
<text x="41.0" y="198.0" font-size="11.0" fill="#333333">I-- yes, sir. Sorry, sir. I saw your light. I-- wanted to ask about--</text>
<rect x="644.1" y="217.0" width="120.9" height="40.0" rx="6" fill="white" stroke="#c49a6c" stroke-width="1.0" opacity="0.92"/>
<polygon points="680.4,257.0 688.4,257.0 677.4,265.0" fill="white" stroke="#c49a6c" stroke-width="0.8"/>
<line x1="679.9" y1="257.0" x2="688.9" y2="257.0" stroke="white" stroke-width="1.5"/>
<text x="650.1" y="234.0" font-size="11.0" fill="#c49a6c" font-weight="700">THEODORE</text>
<text x="650.1" y="248.0" font-size="11.0" fill="#333333">--about your work.</text>
<text x="759.0" y="75.0" text-anchor="end" font-size="12" font-weight="bold" fill="#888888" opacity="0.6">1</text>
<text x="765.0" y="417.0" text-anchor="end" font-size="9" fill="#888888" opacity="0.5">MW</text>
<rect x="29.0" y="433.0" width="240.7" height="364.0" rx="2" fill="#f5f0e8" stroke="#2a2a2a" stroke-width="1.5"/>
<ellipse cx="149.3" cy="585.9" rx="96.3" ry="163.8" fill="#999999" opacity="0.18"/>
<path d="M48.3,528.5 Q149.3,397.5 250.4,528.5" fill="none" stroke="#999999" stroke-width="3" opacity="0.35"/>
<line x1="115.6" y1="549.8" x2="144.5" y2="547.8" stroke="#a89888" stroke-width="1.5" opacity="0.45"/>
<line x1="154.1" y1="547.8" x2="183.0" y2="549.8" stroke="#a89888" stroke-width="1.5" opacity="0.45"/>
<ellipse cx="122.4" cy="566.2" rx="11.6" ry="8.2" fill="#a89888" opacity="0.45"/>
<ellipse cx="176.3" cy="566.2" rx="11.6" ry="8.2" fill="#a89888" opacity="0.45"/>
<line x1="149.3" y1="589.2" x2="149.3" y2="615.4" stroke="#a89888" stroke-width="1.2" opacity="0.35"/>
<path d="M143.6,615.4 Q149.3,618.4 155.1,615.4" fill="none" stroke="#a89888" stroke-width="1" opacity="0.3"/>
<line x1="125.3" y1="638.3" x2="173.4" y2="638.3" stroke="#a89888" stroke-width="1.2" opacity="0.35"/>
<rect x="35.0" y="441.0" width="62.0" height="38.0" rx="6" fill="white" stroke="#999999" stroke-width="1.0" opacity="0.92"/>
<polygon points="53.6,479.0 61.6,479.0 50.6,487.0" fill="white" stroke="#999999" stroke-width="0.8"/>
<line x1="53.1" y1="479.0" x2="62.1" y2="479.0" stroke="white" stroke-width="1.5"/>
<text x="41.0" y="457.0" font-size="10.0" fill="#999999" font-weight="700">CLOCKMAKER</text>
<text x="41.0" y="470.0" font-size="10.0" fill="#333333">My work.</text>
<rect x="42.7" y="489.0" width="221.0" height="51.0" rx="6" fill="white" stroke="#999999" stroke-width="1.0" opacity="0.92"/>
<polygon points="109.0,540.0 117.0,540.0 106.0,548.0" fill="white" stroke="#999999" stroke-width="0.8"/>
<line x1="108.5" y1="540.0" x2="117.5" y2="540.0" stroke="white" stroke-width="1.5"/>
<text x="48.7" y="505.0" font-size="10.0" fill="#999999" font-weight="700">CLOCKMAKER</text>
<text x="48.7" y="518.0" font-size="10.0" fill="#333333">And what would you know about my work,</text>
<text x="48.7" y="531.0" font-size="10.0" fill="#333333">boy?</text>
<text x="257.7" y="449.0" text-anchor="end" font-size="12" font-weight="bold" fill="#888888" opacity="0.6">2</text>
<text x="263.7" y="791.0" text-anchor="end" font-size="9" fill="#888888" opacity="0.5">CU</text>
<rect x="279.7" y="433.0" width="240.7" height="364.0" rx="2" fill="#f5f0e8" stroke="#2a2a2a" stroke-width="1.5"/>
<ellipse cx="400.0" cy="585.9" rx="96.3" ry="163.8" fill="#c49a6c" opacity="0.18"/>
<path d="M298.9,528.5 Q400.0,397.5 501.1,528.5" fill="none" stroke="#c49a6c" stroke-width="3" opacity="0.35"/>
<line x1="366.3" y1="549.8" x2="395.2" y2="547.8" stroke="#a89888" stroke-width="1.5" opacity="0.45"/>
<line x1="404.8" y1="547.8" x2="433.7" y2="549.8" stroke="#a89888" stroke-width="1.5" opacity="0.45"/>
<ellipse cx="373.0" cy="566.2" rx="11.6" ry="8.2" fill="#a89888" opacity="0.45"/>
<ellipse cx="427.0" cy="566.2" rx="11.6" ry="8.2" fill="#a89888" opacity="0.45"/>
<line x1="400.0" y1="589.2" x2="400.0" y2="615.4" stroke="#a89888" stroke-width="1.2" opacity="0.35"/>
<path d="M394.2,615.4 Q400.0,618.4 405.8,615.4" fill="none" stroke="#a89888" stroke-width="1" opacity="0.3"/>
<line x1="375.9" y1="638.3" x2="424.1" y2="638.3" stroke="#a89888" stroke-width="1.2" opacity="0.35"/>
<rect x="285.7" y="441.0" width="228.7" height="51.0" rx="6" fill="white" stroke="#c49a6c" stroke-width="1.0" opacity="0.92"/>
<polygon points="354.3,492.0 362.3,492.0 351.3,500.0" fill="white" stroke="#c49a6c" stroke-width="0.8"/>
<line x1="353.8" y1="492.0" x2="362.8" y2="492.0" stroke="white" stroke-width="1.5"/>
<text x="291.7" y="457.0" font-size="10.0" fill="#c49a6c" font-weight="700">THEODORE</text>
<text x="291.7" y="470.0" font-size="10.0" fill="#333333">Is that a dead-beat escapement? On-- on a</text>
<text x="291.7" y="483.0" font-size="10.0" fill="#333333">regulator?</text>
<text x="508.3" y="449.0" text-anchor="end" font-size="12" font-weight="bold" fill="#888888" opacity="0.6">3</text>
<text x="514.3" y="791.0" text-anchor="end" font-size="9" fill="#888888" opacity="0.5">CU</text>
<rect x="530.3" y="433.0" width="240.7" height="364.0" rx="2" fill="#f5f0e8" stroke="#2a2a2a" stroke-width="1.5"/>
<ellipse cx="650.7" cy="585.9" rx="96.3" ry="163.8" fill="#999999" opacity="0.18"/>
<path d="M549.6,528.5 Q650.7,397.5 751.7,528.5" fill="none" stroke="#999999" stroke-width="3" opacity="0.35"/>
<line x1="617.0" y1="549.8" x2="645.9" y2="547.8" stroke="#a89888" stroke-width="1.5" opacity="0.45"/>
<line x1="655.5" y1="547.8" x2="684.4" y2="549.8" stroke="#a89888" stroke-width="1.5" opacity="0.45"/>
<ellipse cx="623.7" cy="566.2" rx="11.6" ry="8.2" fill="#a89888" opacity="0.45"/>
<ellipse cx="677.6" cy="566.2" rx="11.6" ry="8.2" fill="#a89888" opacity="0.45"/>
<line x1="650.7" y1="589.2" x2="650.7" y2="615.4" stroke="#a89888" stroke-width="1.2" opacity="0.35"/>
<path d="M644.9,615.4 Q650.7,618.4 656.4,615.4" fill="none" stroke="#a89888" stroke-width="1" opacity="0.3"/>
<line x1="626.6" y1="638.3" x2="674.7" y2="638.3" stroke="#a89888" stroke-width="1.2" opacity="0.35"/>
<rect x="536.3" y="441.0" width="62.0" height="38.0" rx="6" fill="white" stroke="#999999" stroke-width="1.0" opacity="0.92"/>
<polygon points="554.9,479.0 562.9,479.0 551.9,487.0" fill="white" stroke="#999999" stroke-width="0.8"/>
<line x1="554.4" y1="479.0" x2="563.4" y2="479.0" stroke="white" stroke-width="1.5"/>
<text x="542.3" y="457.0" font-size="10.0" fill="#999999" font-weight="700">CLOCKMAKER</text>
<text x="542.3" y="470.0" font-size="10.0" fill="#333333">...It is.</text>
<rect x="536.3" y="489.0" width="226.5" height="38.0" rx="6" fill="white" stroke="#999999" stroke-width="1.0" opacity="0.92"/>
<polygon points="604.3,527.0 612.3,527.0 601.3,535.0" fill="white" stroke="#999999" stroke-width="0.8"/>
<line x1="603.8" y1="527.0" x2="612.8" y2="527.0" stroke="white" stroke-width="1.5"/>
<text x="542.3" y="505.0" font-size="10.0" fill="#999999" font-weight="700">CLOCKMAKER</text>
<text x="542.3" y="518.0" font-size="10.0" fill="#333333">Come here, then. If you know that much.</text>
<text x="759.0" y="449.0" text-anchor="end" font-size="12" font-weight="bold" fill="#888888" opacity="0.6">4</text>
<text x="765.0" y="791.0" text-anchor="end" font-size="9" fill="#888888" opacity="0.5">CU</text>
<rect x="29.0" y="807.0" width="742.0" height="364.0" rx="2" fill="#f5f0e8" stroke="#2a2a2a" stroke-width="1.5"/>
<path d="M341.4,1069.1 L346.8,1022.6 Q352.1,1018.6 383.8,1018.6 L416.2,1018.6 Q447.9,1018.6 453.2,1022.6 L458.6,1069.1 Z" fill="#c49a6c" opacity="0.35"/>
<line x1="346.8" y1="1044.5" x2="453.2" y2="1044.5" stroke="#c49a6c" stroke-width="1" opacity="0.3"/>
<line x1="346.8" y1="1022.6" x2="325.5" y2="1063.5" stroke="#c49a6c" stroke-width="2" opacity="0.3"/>
<line x1="325.5" y1="1063.5" x2="341.4" y2="1088.1" stroke="#c49a6c" stroke-width="2" opacity="0.3"/>
<line x1="453.2" y1="1022.6" x2="474.5" y2="1063.5" stroke="#c49a6c" stroke-width="2" opacity="0.3"/>
<line x1="474.5" y1="1063.5" x2="458.6" y2="1088.1" stroke="#c49a6c" stroke-width="2" opacity="0.3"/>
<line x1="400.0" y1="945.7" x2="400.0" y2="1018.6" stroke="#c49a6c" stroke-width="3" opacity="0.35"/>
<circle cx="400.0" cy="905.3" r="40.5" fill="#c49a6c" opacity="0.4"/>
<rect x="35.0" y="815.0" width="453.7" height="40.0" rx="6" fill="white" stroke="#c49a6c" stroke-width="1.0" opacity="0.92"/>
<polygon points="171.1,855.0 179.1,855.0 168.1,863.0" fill="white" stroke="#c49a6c" stroke-width="0.8"/>
<line x1="170.6" y1="855.0" x2="179.6" y2="855.0" stroke="white" stroke-width="1.5"/>
<text x="41.0" y="832.0" font-size="11.0" fill="#c49a6c" font-weight="700">THEODORE</text>
<text x="41.0" y="846.0" font-size="11.0" fill="#333333">The pinwheel-- it's modified, isn't it? You've changed the tooth profile.</text>
<rect x="583.6" y="865.0" width="181.4" height="40.0" rx="6" fill="white" stroke="#999999" stroke-width="1.0" opacity="0.92"/>
<polygon points="638.0,905.0 646.0,905.0 635.0,913.0" fill="white" stroke="#999999" stroke-width="0.8"/>
<line x1="637.5" y1="905.0" x2="646.5" y2="905.0" stroke="white" stroke-width="1.5"/>
<text x="589.6" y="882.0" font-size="11.0" fill="#999999" font-weight="700">CLOCKMAKER</text>
<text x="589.6" y="896.0" font-size="11.0" fill="#333333">You can see that from there?</text>
<text x="759.0" y="823.0" text-anchor="end" font-size="12" font-weight="bold" fill="#888888" opacity="0.6">5</text>
<text x="765.0" y="1165.0" text-anchor="end" font-size="9" fill="#888888" opacity="0.5">MW</text>
</svg>