<svg xmlns="http://www.w3.org/2000/svg" viewBox="0 0 800 1200" width="800" height="1200" style="background:#ffffff">
<style>
  text { font-family: "Helvetica Neue", Helvetica, Arial, sans-serif; }
</style>
<text x="400.0" y="22" text-anchor="middle" font-size="16" fill="#888888" font-weight="500">PAGE 10  (5 panels)</text>
<rect x="29.0" y="59.0" width="238.2" height="364.0" rx="2" fill="#f5f0e8" stroke="#2a2a2a" stroke-width="1.5"/>
<path d="M79.5,290.3 Q79.5,256.0 130.9,251.8 L165.2,251.8 Q216.7,256.0 216.7,290.3 L216.7,379.3 L79.5,379.3 Z" fill="#c87533" opacity="0.25"/>
<path d="M133.1,251.8 L148.1,273.2 L163.1,251.8" fill="none" stroke="#c87533" stroke-width="1" opacity="0.3"/>
<circle cx="148.1" cy="204.6" r="42.9" fill="#c87533" opacity="0.35"/>
<path d="M105.2,213.2 Q111.6,251.8 148.1,253.9 Q184.5,251.8 190.9,213.2" fill="none" stroke="#c87533" stroke-width="1.2" opacity="0.3"/>
<path d="M103.1,200.3 Q148.1,148.9 193.1,200.3" fill="none" stroke="#c87533" stroke-width="2" opacity="0.4"/>
<ellipse cx="103.2" cy="206.7" rx="2.5" ry="4" fill="#c87533" opacity="0.25"/>
<ellipse cx="192.9" cy="206.7" rx="2.5" ry="4" fill="#c87533" opacity="0.25"/>
<rect x="35.0" y="67.0" width="100.0" height="38.0" rx="6" fill="white" stroke="#c87533" stroke-width="1.0" opacity="0.92"/>
<polygon points="65.0,105.0 73.0,105.0 62.0,113.0" fill="white" stroke="#c87533" stroke-width="0.8"/>
<line x1="64.5" y1="105.0" x2="73.5" y2="105.0" stroke="white" stroke-width="1.5"/>
<text x="41.0" y="83.0" font-size="10.0" fill="#c87533" font-weight="700">WREN</text>
<text x="41.0" y="96.0" font-size="10.0" fill="#333333">Sable. It's bad.</text>
<text x="255.2" y="75.0" text-anchor="end" font-size="12" font-weight="bold" fill="#888888" opacity="0.6">1</text>
<text x="261.2" y="417.0" text-anchor="end" font-size="9" fill="#888888" opacity="0.5">MCU</text>
<rect x="277.2" y="59.0" width="493.8" height="364.0" rx="2" fill="#f5f0e8" stroke="#2a2a2a" stroke-width="1.5"/>
<line x1="283.2" y1="342.9" x2="765.0" y2="342.9" stroke="#a89888" stroke-width="1.0" opacity="0.5"/>
<ellipse cx="524.1" cy="344.9" rx="11.2" ry="2.7" fill="#a89888" opacity="0.2"/>
<line x1="521.4" y1="327.2" x2="517.3" y2="342.9" stroke="#c87533" stroke-width="2" opacity="0.5"/>
<line x1="526.8" y1="327.2" x2="530.8" y2="342.9" stroke="#c87533" stroke-width="2" opacity="0.5"/>
<line x1="524.1" y1="314.1" x2="524.1" y2="327.2" stroke="#c87533" stroke-width="2.5" opacity="0.6"/>
<line x1="510.6" y1="316.1" x2="537.6" y2="316.1" stroke="#c87533" stroke-width="2" opacity="0.5"/>
<line x1="510.6" y1="316.1" x2="506.1" y2="327.6" stroke="#c87533" stroke-width="1.5" opacity="0.4"/>
<line x1="537.6" y1="316.1" x2="542.1" y2="327.6" stroke="#c87533" stroke-width="1.5" opacity="0.4"/>
<circle cx="524.1" cy="297.9" r="8.1" fill="#c87533" opacity="0.6"/>
<rect x="283.2" y="67.0" width="481.8" height="54.0" rx="6" fill="white" stroke="#c87533" stroke-width="1.0" opacity="0.92"/>
<polygon points="427.7,121.0 435.7,121.0 424.7,129.0" fill="white" stroke="#c87533" stroke-width="0.8"/>
<line x1="427.2" y1="121.0" x2="436.2" y2="121.0" stroke="white" stroke-width="1.5"/>
<text x="289.2" y="84.0" font-size="11.0" fill="#c87533" font-weight="700">WREN</text>
<text x="289.2" y="98.0" font-size="11.0" fill="#333333">The temporal drive housing has separated from the frame. Power distribution is</text>
<text x="289.2" y="112.0" font-size="11.0" fill="#333333">severed across all primary buses. Communications array is--</text>
<rect x="504.9" y="131.0" width="260.1" height="40.0" rx="6" fill="white" stroke="#c87533" stroke-width="1.0" opacity="0.92"/>
<polygon points="583.0,171.0 591.0,171.0 580.0,179.0" fill="white" stroke="#c87533" stroke-width="0.8"/>
<line x1="582.5" y1="171.0" x2="591.5" y2="171.0" stroke="white" stroke-width="1.5"/>
<text x="510.9" y="148.0" font-size="11.0" fill="#c87533" font-weight="700">WREN</text>
<text x="510.9" y="162.0" font-size="11.0" fill="#333333">There's nothing here to call anyone with.</text>
<text x="759.0" y="75.0" text-anchor="end" font-size="12" font-weight="bold" fill="#888888" opacity="0.6">2</text>
<text x="765.0" y="417.0" text-anchor="end" font-size="9" fill="#888888" opacity="0.5">WIDE</text>
<rect x="29.0" y="433.0" width="742.0" height="364.0" rx="2" fill="#f5f0e8" stroke="#2a2a2a" stroke-width="1.5"/>
<path d="M341.4,695.1 L346.8,648.6 Q352.1,644.6 383.8,644.6 L416.2,644.6 Q447.9,644.6 453.2,648.6 L458.6,695.1 Z" fill="#c87533" opacity="0.35"/>
<line x1="346.8" y1="670.5" x2="453.2" y2="670.5" stroke="#c87533" stroke-width="1" opacity="0.3"/>
<line x1="346.8" y1="648.6" x2="325.5" y2="689.5" stroke="#c87533" stroke-width="2" opacity="0.3"/>
<line x1="325.5" y1="689.5" x2="341.4" y2="714.1" stroke="#c87533" stroke-width="2" opacity="0.3"/>
<line x1="453.2" y1="648.6" x2="474.5" y2="689.5" stroke="#c87533" stroke-width="2" opacity="0.3"/>
<line x1="474.5" y1="689.5" x2="458.6" y2="714.1" stroke="#c87533" stroke-width="2" opacity="0.3"/>
<line x1="400.0" y1="571.7" x2="400.0" y2="644.6" stroke="#c87533" stroke-width="3" opacity="0.35"/>
<circle cx="400.0" cy="531.3" r="40.5" fill="#c87533" opacity="0.4"/>
<rect x="35.0" y="441.0" width="730.0" height="54.0" rx="6" fill="white" stroke="#c87533" stroke-width="1.0" opacity="0.92"/>
<polygon points="254.0,495.0 262.0,495.0 251.0,503.0" fill="white" stroke="#c87533" stroke-width="0.8"/>
<line x1="253.5" y1="495.0" x2="262.5" y2="495.0" stroke="white" stroke-width="1.5"/>
<text x="41.0" y="458.0" font-size="11.0" fill="#c87533" font-weight="700">WREN</text>
<text x="41.0" y="472.0" font-size="11.0" fill="#333333">Comms are dead. Navigation is dead. The temporal drive is intact but separated from every system that makes it functional.</text>
<text x="41.0" y="486.0" font-size="11.0" fill="#333333">We're not calling for extraction. We're not leaving without a full rebuild.</text>
<rect x="650.1" y="505.0" width="114.9" height="40.0" rx="6" fill="white" stroke="#b0b0b0" stroke-width="1.0" opacity="0.92"/>
<polygon points="684.6,545.0 692.6,545.0 681.6,553.0" fill="white" stroke="#b0b0b0" stroke-width="0.8"/>
<line x1="684.1" y1="545.0" x2="693.1" y2="545.0" stroke="white" stroke-width="1.5"/>
<text x="656.1" y="522.0" font-size="11.0" fill="#b0b0b0" font-weight="700">SABLE</text>
<text x="656.1" y="536.0" font-size="11.0" fill="#333333">What do you need?</text>
<rect x="35.0" y="555.0" width="120.9" height="40.0" rx="6" fill="white" stroke="#c87533" stroke-width="1.0" opacity="0.92"/>
<polygon points="71.3,595.0 79.3,595.0 68.3,603.0" fill="white" stroke="#c87533" stroke-width="0.8"/>
<line x1="70.8" y1="595.0" x2="79.8" y2="595.0" stroke="white" stroke-width="1.5"/>
<text x="41.0" y="572.0" font-size="11.0" fill="#c87533" font-weight="700">WREN</text>
<text x="41.0" y="586.0" font-size="11.0" fill="#333333">More than we have.</text>
<text x="759.0" y="449.0" text-anchor="end" font-size="12" font-weight="bold" fill="#888888" opacity="0.6">3</text>
<text x="765.0" y="791.0" text-anchor="end" font-size="9" fill="#888888" opacity="0.5">MW</text>
<rect x="29.0" y="807.0" width="366.0" height="364.0" rx="2" fill="#f5f0e8" stroke="#2a2a2a" stroke-width="1.5"/>
<ellipse cx="212.0" cy="959.9" rx="114.7" ry="163.8" fill="#c87533" opacity="0.18"/>
<path d="M91.6,902.5 Q212.0,771.5 332.4,902.5" fill="none" stroke="#c87533" stroke-width="3" opacity="0.35"/>
<line x1="171.9" y1="923.8" x2="206.3" y2="921.8" stroke="#a89888" stroke-width="1.5" opacity="0.45"/>
<line x1="217.7" y1="921.8" x2="252.1" y2="923.8" stroke="#a89888" stroke-width="1.5" opacity="0.45"/>
<ellipse cx="179.9" cy="940.2" rx="13.8" ry="8.2" fill="#a89888" opacity="0.45"/>
<ellipse cx="244.1" cy="940.2" rx="13.8" ry="8.2" fill="#a89888" opacity="0.45"/>
<line x1="212.0" y1="963.2" x2="212.0" y2="989.4" stroke="#a89888" stroke-width="1.2" opacity="0.35"/>
<path d="M205.1,989.4 Q212.0,992.4 218.9,989.4" fill="none" stroke="#a89888" stroke-width="1" opacity="0.3"/>
<line x1="183.3" y1="1012.3" x2="240.7" y2="1012.3" stroke="#a89888" stroke-width="1.2" opacity="0.35"/>
<rect x="35.0" y="815.0" width="354.0" height="54.0" rx="6" fill="white" stroke="#c87533" stroke-width="1.0" opacity="0.92"/>
<polygon points="141.2,869.0 149.2,869.0 138.2,877.0" fill="white" stroke="#c87533" stroke-width="0.8"/>
<line x1="140.7" y1="869.0" x2="149.7" y2="869.0" stroke="white" stroke-width="1.5"/>
<text x="41.0" y="832.0" font-size="11.0" fill="#c87533" font-weight="700">WREN</text>
<text x="41.0" y="846.0" font-size="11.0" fill="#333333">The communications crystal is shattered. Even if everything</text>
<text x="41.0" y="860.0" font-size="11.0" fill="#333333">else worked, we couldn't send a signal.</text>
<text x="383.0" y="823.0" text-anchor="end" font-size="12" font-weight="bold" fill="#888888" opacity="0.6">4</text>
<text x="389.0" y="1165.0" text-anchor="end" font-size="9" fill="#888888" opacity="0.5">CU</text>
<rect x="405.0" y="807.0" width="366.0" height="364.0" rx="2" fill="#f5f0e8" stroke="#2a2a2a" stroke-width="1.5"/>
<path d="M529.4,1069.1 L534.8,1022.6 Q540.1,1018.6 571.8,1018.6 L604.2,1018.6 Q635.9,1018.6 641.2,1022.6 L646.6,1069.1 Z" fill="#b0b0b0" opacity="0.35"/>
<line x1="534.8" y1="1044.5" x2="641.2" y2="1044.5" stroke="#b0b0b0" stroke-width="1" opacity="0.3"/>
<line x1="534.8" y1="1022.6" x2="513.5" y2="1063.5" stroke="#b0b0b0" stroke-width="2" opacity="0.3"/>
<line x1="513.5" y1="1063.5" x2="529.4" y2="1088.1" stroke="#b0b0b0" stroke-width="2" opacity="0.3"/>
<line x1="641.2" y1="1022.6" x2="662.5" y2="1063.5" stroke="#b0b0b0" stroke-width="2" opacity="0.3"/>
<line x1="662.5" y1="1063.5" x2="646.6" y2="1088.1" stroke="#b0b0b0" stroke-width="2" opacity="0.3"/>
<line x1="588.0" y1="945.7" x2="588.0" y2="1018.6" stroke="#b0b0b0" stroke-width="3" opacity="0.35"/>
<circle cx="588.0" cy="905.3" r="40.5" fill="#b0b0b0" opacity="0.4"/>
<rect x="411.0" y="815.0" width="354.0" height="82.0" rx="6" fill="white" stroke="#b0b0b0" stroke-width="1.0" opacity="0.92"/>
<polygon points="517.2,897.0 525.2,897.0 514.2,905.0" fill="white" stroke="#b0b0b0" stroke-width="0.8"/>
<line x1="516.7" y1="897.0" x2="525.7" y2="897.0" stroke="white" stroke-width="1.5"/>
<text x="417.0" y="832.0" font-size="11.0" fill="#b0b0b0" font-weight="700">SABLE</text>
<text x="417.0" y="846.0" font-size="11.0" fill="#333333">Then we work with what we have. Wren, full inventory at</text>
<text x="417.0" y="860.0" font-size="11.0" fill="#333333">first light. Everything salvageable, everything functional.</text>
<text x="417.0" y="874.0" font-size="11.0" fill="#333333">Luma, I need medical status on everyone -- who can move,</text>
<text x="417.0" y="888.0" font-size="11.0" fill="#333333">who can't. Jink--</text>
<rect x="692.5" y="907.0" width="72.5" height="40.0" rx="6" fill="white" stroke="#2e8b57" stroke-width="1.0" opacity="0.92"/>
<polygon points="714.2,947.0 722.2,947.0 711.2,955.0" fill="white" stroke="#2e8b57" stroke-width="0.8"/>
<line x1="713.8" y1="947.0" x2="722.8" y2="947.0" stroke="white" stroke-width="1.5"/>
<text x="698.5" y="924.0" font-size="11.0" fill="#2e8b57" font-weight="700">JINK</text>
<text x="698.5" y="938.0" font-size="11.0" fill="#333333">I can fly.</text>
<text x="759.0" y="823.0" text-anchor="end" font-size="12" font-weight="bold" fill="#888888" opacity="0.6">5</text>
<text x="765.0" y="1165.0" text-anchor="end" font-size="9" fill="#888888" opacity="0.5">MED</text>
</svg>