<svg xmlns="http://www.w3.org/2000/svg" viewBox="0 0 800 1200" width="800" height="1200" style="background:#ffffff">
<style>
  text { font-family: "Helvetica Neue", Helvetica, Arial, sans-serif; }
</style>
<text x="400.0" y="22" text-anchor="middle" font-size="16" fill="#888888" font-weight="500">PAGE 14  (4 panels)</text>
<rect x="29.0" y="59.0" width="742.0" height="421.5" rx="2" fill="#f5f0e8" stroke="#2a2a2a" stroke-width="1.5"/>
<path d="M332.2,362.5 L338.4,308.0 Q344.5,304.0 381.3,304.0 L418.7,304.0 Q455.5,304.0 461.6,308.0 L467.8,362.5 Z" fill="#2e8b57" opacity="0.35"/>
<line x1="338.4" y1="334.1" x2="461.6" y2="334.1" stroke="#2e8b57" stroke-width="1" opacity="0.3"/>
<line x1="338.4" y1="308.0" x2="313.7" y2="355.4" stroke="#2e8b57" stroke-width="2" opacity="0.3"/>
<line x1="313.7" y1="355.4" x2="332.2" y2="383.9" stroke="#2e8b57" stroke-width="2" opacity="0.3"/>
<line x1="461.6" y1="308.0" x2="486.3" y2="355.4" stroke="#2e8b57" stroke-width="2" opacity="0.3"/>
<line x1="486.3" y1="355.4" x2="467.8" y2="383.9" stroke="#2e8b57" stroke-width="2" opacity="0.3"/>
<line x1="400.0" y1="219.7" x2="400.0" y2="304.0" stroke="#2e8b57" stroke-width="3" opacity="0.35"/>
<circle cx="400.0" cy="172.8" r="46.9" fill="#2e8b57" opacity="0.4"/>
<rect x="35.0" y="67.0" width="730.0" height="68.0" rx="6" fill="white" stroke="#2e8b57" stroke-width="1.0" opacity="0.92"/>
<polygon points="254.0,135.0 262.0,135.0 251.0,143.0" fill="white" stroke="#2e8b57" stroke-width="0.8"/>
<line x1="253.5" y1="135.0" x2="262.5" y2="135.0" stroke="white" stroke-width="1.5"/>
<text x="41.0" y="84.0" font-size="11.0" fill="#2e8b57" font-weight="700">JINK</text>
<text x="41.0" y="98.0" font-size="11.0" fill="#333333">We're on a rooftop in what looks like a major city -- dense, industrial, goes on for miles. Big river to the south, maybe</text>
<text x="41.0" y="112.0" font-size="11.0" fill="#333333">half a mile. There's a church with a tall spire two blocks southeast. I saw gas lighting, horse-drawn vehicles, chimneys</text>
<text x="41.0" y="126.0" font-size="11.0" fill="#333333">everywhere.</text>
<rect x="504.9" y="145.0" width="260.1" height="40.0" rx="6" fill="white" stroke="#b0b0b0" stroke-width="1.0" opacity="0.92"/>
<polygon points="583.0,185.0 591.0,185.0 580.0,193.0" fill="white" stroke="#b0b0b0" stroke-width="0.8"/>
<line x1="582.5" y1="185.0" x2="591.5" y2="185.0" stroke="white" stroke-width="1.5"/>
<text x="510.9" y="162.0" font-size="11.0" fill="#b0b0b0" font-weight="700">SABLE</text>
<text x="510.9" y="176.0" font-size="11.0" fill="#333333">Any sign of the other wreckage fragments?</text>
<rect x="35.0" y="195.0" width="730.0" height="40.0" rx="6" fill="white" stroke="#2e8b57" stroke-width="1.0" opacity="0.92"/>
<polygon points="254.0,235.0 262.0,235.0 251.0,243.0" fill="white" stroke="#2e8b57" stroke-width="0.8"/>
<line x1="253.5" y1="235.0" x2="262.5" y2="235.0" stroke="white" stroke-width="1.5"/>
<text x="41.0" y="212.0" font-size="11.0" fill="#2e8b57" font-weight="700">JINK</text>
<text x="41.0" y="226.0" font-size="11.0" fill="#333333">Scattered. I saw at least two impact points within a few blocks. One in what looks like a courtyard. One I couldn't identify.</text>
<text x="759.0" y="75.0" text-anchor="end" font-size="12" font-weight="bold" fill="#888888" opacity="0.6">1</text>
<text x="765.0" y="474.5" text-anchor="end" font-size="9" fill="#888888" opacity="0.5">MW</text>
<rect x="29.0" y="490.5" width="366.0" height="421.5" rx="2" fill="#f5f0e8" stroke="#2a2a2a" stroke-width="1.5"/>
<path d="M106.6,790.9 Q106.6,738.2 185.6,731.6 L238.4,731.6 Q317.4,738.2 317.4,790.9 L317.4,861.5 L106.6,861.5 Z" fill="#c87533" opacity="0.25"/>
<path d="M188.9,731.6 L212.0,764.6 L235.1,731.6" fill="none" stroke="#c87533" stroke-width="1" opacity="0.3"/>
<circle cx="212.0" cy="659.2" r="65.9" fill="#c87533" opacity="0.35"/>
<path d="M146.1,672.3 Q156.0,731.6 212.0,734.9 Q268.0,731.6 277.9,672.3" fill="none" stroke="#c87533" stroke-width="1.2" opacity="0.3"/>
<path d="M142.8,652.6 Q212.0,573.5 281.2,652.6" fill="none" stroke="#c87533" stroke-width="2" opacity="0.4"/>
<ellipse cx="144.1" cy="662.4" rx="2.5" ry="4" fill="#c87533" opacity="0.25"/>
<ellipse cx="279.9" cy="662.4" rx="2.5" ry="4" fill="#c87533" opacity="0.25"/>
<rect x="35.0" y="498.5" width="354.0" height="96.0" rx="6" fill="white" stroke="#c87533" stroke-width="1.0" opacity="0.92"/>
<polygon points="141.2,594.5 149.2,594.5 138.2,602.5" fill="white" stroke="#c87533" stroke-width="0.8"/>
<line x1="140.7" y1="594.5" x2="149.7" y2="594.5" stroke="white" stroke-width="1.5"/>
<text x="41.0" y="515.5" font-size="11.0" fill="#c87533" font-weight="700">WREN</text>
<text x="41.0" y="529.5" font-size="11.0" fill="#333333">Here's where we are. The temporal drive core is intact --</text>
<text x="41.0" y="543.5" font-size="11.0" fill="#333333">that's the one good piece. The drive assembly that makes it</text>
<text x="41.0" y="557.5" font-size="11.0" fill="#333333">functional is destroyed. The navigation array is gone.</text>
<text x="41.0" y="571.5" font-size="11.0" fill="#333333">Communications are gone. Power distribution is severed.</text>
<text x="41.0" y="585.5" font-size="11.0" fill="#333333">Half the hull is in pieces I haven't found yet.</text>
<rect x="35.0" y="604.5" width="354.0" height="54.0" rx="6" fill="white" stroke="#c87533" stroke-width="1.0" opacity="0.92"/>
<polygon points="141.2,658.5 149.2,658.5 138.2,666.5" fill="white" stroke="#c87533" stroke-width="0.8"/>
<line x1="140.7" y1="658.5" x2="149.7" y2="658.5" stroke="white" stroke-width="1.5"/>
<text x="41.0" y="621.5" font-size="11.0" fill="#c87533" font-weight="700">WREN</text>
<text x="41.0" y="635.5" font-size="11.0" fill="#333333">We're not flying out of here tonight. We're not flying out</text>
<text x="41.0" y="649.5" font-size="11.0" fill="#333333">of here this month.</text>
<text x="383.0" y="506.5" text-anchor="end" font-size="12" font-weight="bold" fill="#888888" opacity="0.6">2</text>
<text x="389.0" y="906.1" text-anchor="end" font-size="9" fill="#888888" opacity="0.5">MCU</text>
<rect x="405.0" y="490.5" width="366.0" height="421.5" rx="2" fill="#f5f0e8" stroke="#2a2a2a" stroke-width="1.5"/>
<ellipse cx="588.0" cy="667.6" rx="132.8" ry="189.7" fill="#b0b0b0" opacity="0.18"/>
<path d="M448.6,601.2 Q588.0,449.4 727.4,601.2" fill="none" stroke="#b0b0b0" stroke-width="3" opacity="0.35"/>
<line x1="541.5" y1="625.9" x2="581.4" y2="623.9" stroke="#a89888" stroke-width="1.5" opacity="0.45"/>
<line x1="594.6" y1="623.9" x2="634.5" y2="625.9" stroke="#a89888" stroke-width="1.5" opacity="0.45"/>
<ellipse cx="550.8" cy="644.8" rx="15.9" ry="9.5" fill="#a89888" opacity="0.45"/>
<ellipse cx="625.2" cy="644.8" rx="15.9" ry="9.5" fill="#a89888" opacity="0.45"/>
<line x1="588.0" y1="671.4" x2="588.0" y2="701.7" stroke="#a89888" stroke-width="1.2" opacity="0.35"/>
<path d="M580.0,701.7 Q588.0,704.7 596.0,701.7" fill="none" stroke="#a89888" stroke-width="1" opacity="0.3"/>
<line x1="554.8" y1="728.3" x2="621.2" y2="728.3" stroke="#a89888" stroke-width="1.2" opacity="0.35"/>
<rect x="411.0" y="498.5" width="120.9" height="40.0" rx="6" fill="white" stroke="#b0b0b0" stroke-width="1.0" opacity="0.92"/>
<polygon points="447.3,538.5 455.3,538.5 444.3,546.5" fill="white" stroke="#b0b0b0" stroke-width="0.8"/>
<line x1="446.8" y1="538.5" x2="455.8" y2="538.5" stroke="white" stroke-width="1.5"/>
<text x="417.0" y="515.5" font-size="11.0" fill="#b0b0b0" font-weight="700">SABLE</text>
<text x="417.0" y="529.5" font-size="11.0" fill="#333333">Can it be rebuilt?</text>
<rect x="411.0" y="548.5" width="350.8" height="68.0" rx="6" fill="white" stroke="#c87533" stroke-width="1.0" opacity="0.92"/>
<polygon points="516.2,616.5 524.2,616.5 513.2,624.5" fill="white" stroke="#c87533" stroke-width="0.8"/>
<line x1="515.7" y1="616.5" x2="524.7" y2="616.5" stroke="white" stroke-width="1.5"/>
<text x="417.0" y="565.5" font-size="11.0" fill="#c87533" font-weight="700">WREN</text>
<text x="417.0" y="579.5" font-size="11.0" fill="#333333">With the right components. Nothing we have. I'll need to</text>
<text x="417.0" y="593.5" font-size="11.0" fill="#333333">source equivalent parts from whatever technology exists</text>
<text x="417.0" y="607.5" font-size="11.0" fill="#333333">here.</text>
<rect x="411.0" y="626.5" width="151.2" height="40.0" rx="6" fill="white" stroke="#b0b0b0" stroke-width="1.0" opacity="0.92"/>
<polygon points="456.3,666.5 464.3,666.5 453.3,674.5" fill="white" stroke="#b0b0b0" stroke-width="0.8"/>
<line x1="455.8" y1="666.5" x2="464.8" y2="666.5" stroke="white" stroke-width="1.5"/>
<text x="417.0" y="643.5" font-size="11.0" fill="#b0b0b0" font-weight="700">SABLE</text>
<text x="417.0" y="657.5" font-size="11.0" fill="#333333">Then that's what we do.</text>
<text x="759.0" y="506.5" text-anchor="end" font-size="12" font-weight="bold" fill="#888888" opacity="0.6">3</text>
<text x="765.0" y="906.1" text-anchor="end" font-size="9" fill="#888888" opacity="0.5">CU</text>
<rect x="29.0" y="922.1" width="742.0" height="248.9" rx="2" fill="#f5f0e8" stroke="#2a2a2a" stroke-width="1.5"/>
<line x1="35.0" y1="1116.2" x2="765.0" y2="1116.2" stroke="#a89888" stroke-width="1.0" opacity="0.5"/>
<ellipse cx="400.0" cy="1118.2" rx="11.2" ry="2.7" fill="#a89888" opacity="0.2"/>
<line x1="397.3" y1="1100.6" x2="393.3" y2="1116.2" stroke="#b0b0b0" stroke-width="2" opacity="0.5"/>
<line x1="402.7" y1="1100.6" x2="406.7" y2="1116.2" stroke="#b0b0b0" stroke-width="2" opacity="0.5"/>
<line x1="400.0" y1="1087.6" x2="400.0" y2="1100.6" stroke="#b0b0b0" stroke-width="2.5" opacity="0.6"/>
<line x1="386.6" y1="1089.6" x2="413.4" y2="1089.6" stroke="#b0b0b0" stroke-width="2" opacity="0.5"/>
<line x1="386.6" y1="1089.6" x2="382.1" y2="1101.0" stroke="#b0b0b0" stroke-width="1.5" opacity="0.4"/>
<line x1="413.4" y1="1089.6" x2="417.9" y2="1101.0" stroke="#b0b0b0" stroke-width="1.5" opacity="0.4"/>
<circle cx="400.0" cy="1071.4" r="8.1" fill="#b0b0b0" opacity="0.6"/>
<rect x="35.0" y="930.1" width="730.0" height="40.0" rx="6" fill="white" stroke="#b0b0b0" stroke-width="1.0" opacity="0.92"/>
<polygon points="254.0,970.1 262.0,970.1 251.0,978.1" fill="white" stroke="#b0b0b0" stroke-width="0.8"/>
<line x1="253.5" y1="970.1" x2="262.5" y2="970.1" stroke="white" stroke-width="1.5"/>
<text x="41.0" y="947.1" font-size="11.0" fill="#b0b0b0" font-weight="700">SABLE</text>
<text x="41.0" y="961.1" font-size="11.0" fill="#333333">We survive the night. We salvage what we can at first light. We find the rest of the wreckage. And we get ourselves home.</text>
<rect x="692.5" y="980.1" width="72.5" height="40.0" rx="6" fill="white" stroke="#b0b0b0" stroke-width="1.0" opacity="0.92"/>
<polygon points="714.2,1020.1 722.2,1020.1 711.2,1028.1" fill="white" stroke="#b0b0b0" stroke-width="0.8"/>
<line x1="713.8" y1="1020.1" x2="722.8" y2="1020.1" stroke="white" stroke-width="1.5"/>
<text x="698.5" y="997.1" font-size="11.0" fill="#b0b0b0" font-weight="700">SABLE</text>
<text x="698.5" y="1011.1" font-size="11.0" fill="#333333">Questions?</text>
<text x="759.0" y="938.1" text-anchor="end" font-size="12" font-weight="bold" fill="#888888" opacity="0.6">4</text>
<text x="765.0" y="1165.0" text-anchor="end" font-size="9" fill="#888888" opacity="0.5">XWIDE</text>
</svg>