<svg xmlns="http://www.w3.org/2000/svg" viewBox="0 0 800 1200" width="800" height="1200" style="background:#ffffff">
<style>
  text { font-family: "Helvetica Neue", Helvetica, Arial, sans-serif; }
</style>
<text x="400.0" y="22" text-anchor="middle" font-size="16" fill="#888888" font-weight="500">PAGE 9  (5 panels)</text>
<rect x="29.0" y="59.0" width="742.0" height="248.9" rx="2" fill="#f5f0e8" stroke="#2a2a2a" stroke-width="1.5"/>
<line x1="35.0" y1="253.2" x2="765.0" y2="253.2" stroke="#a89888" stroke-width="1.0" opacity="0.5"/>
<ellipse cx="400.0" cy="255.2" rx="11.2" ry="2.7" fill="#a89888" opacity="0.2"/>
<line x1="397.3" y1="237.5" x2="393.3" y2="253.2" stroke="#b0b0b0" stroke-width="2" opacity="0.5"/>
<line x1="402.7" y1="237.5" x2="406.7" y2="253.2" stroke="#b0b0b0" stroke-width="2" opacity="0.5"/>
<line x1="400.0" y1="224.5" x2="400.0" y2="237.5" stroke="#b0b0b0" stroke-width="2.5" opacity="0.6"/>
<line x1="386.6" y1="226.5" x2="413.4" y2="226.5" stroke="#b0b0b0" stroke-width="2" opacity="0.5"/>
<line x1="386.6" y1="226.5" x2="382.1" y2="237.9" stroke="#b0b0b0" stroke-width="1.5" opacity="0.4"/>
<line x1="413.4" y1="226.5" x2="417.9" y2="237.9" stroke="#b0b0b0" stroke-width="1.5" opacity="0.4"/>
<circle cx="400.0" cy="208.4" r="8.1" fill="#b0b0b0" opacity="0.6"/>
<rect x="35.0" y="67.0" width="62.0" height="40.0" rx="6" fill="white" stroke="#b0b0b0" stroke-width="1.0" opacity="0.92"/>
<polygon points="53.6,107.0 61.6,107.0 50.6,115.0" fill="white" stroke="#b0b0b0" stroke-width="0.8"/>
<line x1="53.1" y1="107.0" x2="62.1" y2="107.0" stroke="white" stroke-width="1.5"/>
<text x="41.0" y="84.0" font-size="11.0" fill="#b0b0b0" font-weight="700">SABLE</text>
<text x="41.0" y="98.0" font-size="11.0" fill="#333333">...God.</text>
<text x="759.0" y="75.0" text-anchor="end" font-size="12" font-weight="bold" fill="#888888" opacity="0.6">1</text>
<text x="765.0" y="301.9" text-anchor="end" font-size="9" fill="#888888" opacity="0.5">XWIDE</text>
<rect x="29.0" y="317.9" width="366.0" height="421.5" rx="2" fill="#f5f0e8" stroke="#2a2a2a" stroke-width="1.5"/>
<path d="M144.2,621.4 L150.3,566.9 Q156.5,562.9 193.3,562.9 L230.7,562.9 Q267.5,562.9 273.6,566.9 L279.8,621.4 Z" fill="#b0b0b0" opacity="0.35"/>
<line x1="150.3" y1="593.0" x2="273.6" y2="593.0" stroke="#b0b0b0" stroke-width="1" opacity="0.3"/>
<line x1="150.3" y1="566.9" x2="125.7" y2="614.4" stroke="#b0b0b0" stroke-width="2" opacity="0.3"/>
<line x1="125.7" y1="614.4" x2="144.2" y2="642.8" stroke="#b0b0b0" stroke-width="2" opacity="0.3"/>
<line x1="273.6" y1="566.9" x2="298.3" y2="614.4" stroke="#b0b0b0" stroke-width="2" opacity="0.3"/>
<line x1="298.3" y1="614.4" x2="279.8" y2="642.8" stroke="#b0b0b0" stroke-width="2" opacity="0.3"/>
<line x1="212.0" y1="478.6" x2="212.0" y2="562.9" stroke="#b0b0b0" stroke-width="3" opacity="0.35"/>
<circle cx="212.0" cy="431.7" r="46.9" fill="#b0b0b0" opacity="0.4"/>
<rect x="35.0" y="325.9" width="241.9" height="40.0" rx="6" fill="white" stroke="#b0b0b0" stroke-width="1.0" opacity="0.92"/>
<polygon points="107.6,365.9 115.6,365.9 104.6,373.9" fill="white" stroke="#b0b0b0" stroke-width="0.8"/>
<line x1="107.1" y1="365.9" x2="116.1" y2="365.9" stroke="white" stroke-width="1.5"/>
<text x="41.0" y="342.9" font-size="11.0" fill="#b0b0b0" font-weight="700">SABLE</text>
<text x="41.0" y="356.9" font-size="11.0" fill="#333333">Luma. Do you have a chronological fix?</text>
<rect x="35.0" y="375.9" width="354.0" height="68.0" rx="6" fill="white" stroke="#6a5acd" stroke-width="1.0" opacity="0.92"/>
<polygon points="141.2,443.9 149.2,443.9 138.2,451.9" fill="white" stroke="#6a5acd" stroke-width="0.8"/>
<line x1="140.7" y1="443.9" x2="149.7" y2="443.9" stroke="white" stroke-width="1.5"/>
<text x="41.0" y="392.9" font-size="11.0" fill="#6a5acd" font-weight="700">LUMA</text>
<text x="41.0" y="406.9" font-size="11.0" fill="#333333">Working on it. The atmospheric particulate is consistent</text>
<text x="41.0" y="420.9" font-size="11.0" fill="#333333">with coal-heavy industrial... late 1800s. Earth. Northern</text>
<text x="41.0" y="434.9" font-size="11.0" fill="#333333">hemisphere.</text>
<text x="383.0" y="333.9" text-anchor="end" font-size="12" font-weight="bold" fill="#888888" opacity="0.6">2</text>
<text x="389.0" y="733.5" text-anchor="end" font-size="9" fill="#888888" opacity="0.5">MED</text>
<rect x="405.0" y="317.9" width="366.0" height="421.5" rx="2" fill="#f5f0e8" stroke="#2a2a2a" stroke-width="1.5"/>
<line x1="411.0" y1="646.7" x2="765.0" y2="646.7" stroke="#a89888" stroke-width="1.0" opacity="0.5"/>
<ellipse cx="588.0" cy="648.7" rx="11.2" ry="2.7" fill="#a89888" opacity="0.2"/>
<line x1="585.3" y1="631.0" x2="581.2" y2="646.7" stroke="#6a5acd" stroke-width="2" opacity="0.5"/>
<line x1="590.7" y1="631.0" x2="594.8" y2="646.7" stroke="#6a5acd" stroke-width="2" opacity="0.5"/>
<line x1="588.0" y1="617.9" x2="588.0" y2="631.0" stroke="#6a5acd" stroke-width="2.5" opacity="0.6"/>
<line x1="574.5" y1="619.9" x2="601.5" y2="619.9" stroke="#6a5acd" stroke-width="2" opacity="0.5"/>
<line x1="574.5" y1="619.9" x2="570.0" y2="631.4" stroke="#6a5acd" stroke-width="1.5" opacity="0.4"/>
<line x1="601.5" y1="619.9" x2="606.0" y2="631.4" stroke="#6a5acd" stroke-width="1.5" opacity="0.4"/>
<circle cx="588.0" cy="601.7" r="8.1" fill="#6a5acd" opacity="0.6"/>
<rect x="411.0" y="325.9" width="344.8" height="54.0" rx="6" fill="white" stroke="#6a5acd" stroke-width="1.0" opacity="0.92"/>
<polygon points="514.4,379.9 522.4,379.9 511.4,387.9" fill="white" stroke="#6a5acd" stroke-width="0.8"/>
<line x1="513.9" y1="379.9" x2="522.9" y2="379.9" stroke="white" stroke-width="1.5"/>
<text x="417.0" y="342.9" font-size="11.0" fill="#6a5acd" font-weight="700">LUMA</text>
<text x="417.0" y="356.9" font-size="11.0" fill="#333333">Sable. The atmospheric markers and stellar position are</text>
<text x="417.0" y="370.9" font-size="11.0" fill="#333333">converging on a date. 1886. Possibly 1887.</text>
<text x="759.0" y="333.9" text-anchor="end" font-size="12" font-weight="bold" fill="#888888" opacity="0.6">3</text>
<text x="765.0" y="733.5" text-anchor="end" font-size="9" fill="#888888" opacity="0.5">WIDE</text>
<rect x="29.0" y="749.5" width="238.2" height="421.5" rx="2" fill="#f5f0e8" stroke="#2a2a2a" stroke-width="1.5"/>
<ellipse cx="148.1" cy="926.5" rx="95.3" ry="189.7" fill="#2e8b57" opacity="0.18"/>
<path d="M48.1,860.1 Q148.1,708.4 248.1,860.1" fill="none" stroke="#2e8b57" stroke-width="3" opacity="0.35"/>
<line x1="114.7" y1="884.8" x2="143.3" y2="882.8" stroke="#a89888" stroke-width="1.5" opacity="0.45"/>
<line x1="152.8" y1="882.8" x2="181.4" y2="884.8" stroke="#a89888" stroke-width="1.5" opacity="0.45"/>
<ellipse cx="121.4" cy="903.7" rx="11.4" ry="9.5" fill="#a89888" opacity="0.45"/>
<ellipse cx="174.8" cy="903.7" rx="11.4" ry="9.5" fill="#a89888" opacity="0.45"/>
<line x1="148.1" y1="930.3" x2="148.1" y2="960.7" stroke="#a89888" stroke-width="1.2" opacity="0.35"/>
<path d="M142.4,960.7 Q148.1,963.7 153.8,960.7" fill="none" stroke="#a89888" stroke-width="1" opacity="0.3"/>
<line x1="124.3" y1="987.2" x2="171.9" y2="987.2" stroke="#a89888" stroke-width="1.2" opacity="0.35"/>
<rect x="35.0" y="757.5" width="72.5" height="38.0" rx="6" fill="white" stroke="#2e8b57" stroke-width="1.0" opacity="0.92"/>
<polygon points="56.8,795.5 64.8,795.5 53.8,803.5" fill="white" stroke="#2e8b57" stroke-width="0.8"/>
<line x1="56.2" y1="795.5" x2="65.2" y2="795.5" stroke="white" stroke-width="1.5"/>
<text x="41.0" y="773.5" font-size="10.0" fill="#2e8b57" font-weight="700">JINK</text>
<text x="41.0" y="786.5" font-size="10.0" fill="#333333">Look at it.</text>
<text x="255.2" y="765.5" text-anchor="end" font-size="12" font-weight="bold" fill="#888888" opacity="0.6">4</text>
<text x="261.2" y="1165.0" text-anchor="end" font-size="9" fill="#888888" opacity="0.5">CU</text>
<rect x="277.2" y="749.5" width="493.8" height="421.5" rx="2" fill="#f5f0e8" stroke="#2a2a2a" stroke-width="1.5"/>
<path d="M456.3,1053.0 L462.4,998.5 Q468.6,994.5 505.3,994.5 L542.8,994.5 Q579.6,994.5 585.7,998.5 L591.9,1053.0 Z" fill="#6a5acd" opacity="0.35"/>
<line x1="462.4" y1="1024.5" x2="585.7" y2="1024.5" stroke="#6a5acd" stroke-width="1" opacity="0.3"/>
<line x1="462.4" y1="998.5" x2="437.8" y2="1045.9" stroke="#6a5acd" stroke-width="2" opacity="0.3"/>
<line x1="437.8" y1="1045.9" x2="456.3" y2="1074.3" stroke="#6a5acd" stroke-width="2" opacity="0.3"/>
<line x1="585.7" y1="998.5" x2="610.4" y2="1045.9" stroke="#6a5acd" stroke-width="2" opacity="0.3"/>
<line x1="610.4" y1="1045.9" x2="591.9" y2="1074.3" stroke="#6a5acd" stroke-width="2" opacity="0.3"/>
<line x1="524.1" y1="910.1" x2="524.1" y2="994.5" stroke="#6a5acd" stroke-width="3" opacity="0.35"/>
<circle cx="524.1" cy="863.3" r="46.9" fill="#6a5acd" opacity="0.4"/>
<rect x="283.2" y="757.5" width="481.8" height="54.0" rx="6" fill="white" stroke="#6a5acd" stroke-width="1.0" opacity="0.92"/>
<polygon points="427.7,811.5 435.7,811.5 424.7,819.5" fill="white" stroke="#6a5acd" stroke-width="0.8"/>
<line x1="427.2" y1="811.5" x2="436.2" y2="811.5" stroke="white" stroke-width="1.5"/>
<text x="289.2" y="774.5" font-size="11.0" fill="#6a5acd" font-weight="700">LUMA</text>
<text x="289.2" y="788.5" font-size="11.0" fill="#333333">The material culture alone... the metallurgy of this gutter is consistent with</text>
<text x="289.2" y="802.5" font-size="11.0" fill="#333333">mid-to-late Victorian cast iron. The oxidation pattern suggests--</text>
<rect x="703.0" y="821.5" width="62.0" height="40.0" rx="6" fill="white" stroke="#b0b0b0" stroke-width="1.0" opacity="0.92"/>
<polygon points="721.6,861.5 729.6,861.5 718.6,869.5" fill="white" stroke="#b0b0b0" stroke-width="0.8"/>
<line x1="721.1" y1="861.5" x2="730.1" y2="861.5" stroke="white" stroke-width="1.5"/>
<text x="709.0" y="838.5" font-size="11.0" fill="#b0b0b0" font-weight="700">SABLE</text>
<text x="709.0" y="852.5" font-size="11.0" fill="#333333">Luma.</text>
<rect x="283.2" y="871.5" width="187.5" height="40.0" rx="6" fill="white" stroke="#6a5acd" stroke-width="1.0" opacity="0.92"/>
<polygon points="339.4,911.5 347.4,911.5 336.4,919.5" fill="white" stroke="#6a5acd" stroke-width="0.8"/>
<line x1="338.9" y1="911.5" x2="347.9" y2="911.5" stroke="white" stroke-width="1.5"/>
<text x="289.2" y="888.5" font-size="11.0" fill="#6a5acd" font-weight="700">LUMA</text>
<text x="289.2" y="902.5" font-size="11.0" fill="#333333">Sorry. Right. Injuries first.</text>
<text x="759.0" y="765.5" text-anchor="end" font-size="12" font-weight="bold" fill="#888888" opacity="0.6">5</text>
<text x="765.0" y="1165.0" text-anchor="end" font-size="9" fill="#888888" opacity="0.5">MW</text>
</svg>