<svg xmlns="http://www.w3.org/2000/svg" viewBox="0 0 800 1200" width="800" height="1200" style="background:#ffffff">
<style>
  text { font-family: "Helvetica Neue", Helvetica, Arial, sans-serif; }
</style>
<text x="400.0" y="22" text-anchor="middle" font-size="16" fill="#888888" font-weight="500">PAGE 16  (5 panels)</text>
<rect x="29.0" y="59.0" width="240.7" height="551.0" rx="2" fill="#f5f0e8" stroke="#2a2a2a" stroke-width="1.5"/>
<path d="M103.0,455.7 L107.2,301.4 Q111.4,297.4 136.5,297.4 L162.1,297.4 Q187.2,297.4 191.5,301.4 L195.7,455.7 Z" fill="#b0b0b0" opacity="0.35"/>
<line x1="107.2" y1="418.5" x2="191.5" y2="418.5" stroke="#b0b0b0" stroke-width="1" opacity="0.3"/>
<line x1="107.2" y1="301.4" x2="90.4" y2="363.4" stroke="#b0b0b0" stroke-width="2" opacity="0.3"/>
<line x1="90.4" y1="363.4" x2="103.0" y2="400.6" stroke="#b0b0b0" stroke-width="2" opacity="0.3"/>
<line x1="191.5" y1="301.4" x2="208.3" y2="363.4" stroke="#b0b0b0" stroke-width="2" opacity="0.3"/>
<line x1="208.3" y1="363.4" x2="195.7" y2="400.6" stroke="#b0b0b0" stroke-width="2" opacity="0.3"/>
<line x1="149.3" y1="239.8" x2="149.3" y2="297.4" stroke="#b0b0b0" stroke-width="3" opacity="0.35"/>
<circle cx="149.3" cy="207.8" r="32.0" fill="#b0b0b0" opacity="0.4"/>
<rect x="35.0" y="67.0" width="226.5" height="64.0" rx="6" fill="white" stroke="#b0b0b0" stroke-width="1.0" opacity="0.92"/>
<polygon points="103.0,131.0 111.0,131.0 100.0,139.0" fill="white" stroke="#b0b0b0" stroke-width="0.8"/>
<line x1="102.5" y1="131.0" x2="111.5" y2="131.0" stroke="white" stroke-width="1.5"/>
<text x="41.0" y="83.0" font-size="10.0" fill="#b0b0b0" font-weight="700">SABLE</text>
<text x="41.0" y="96.0" font-size="10.0" fill="#333333">Thresh — perimeter. Jink — high ground,</text>
<text x="41.0" y="109.0" font-size="10.0" fill="#333333">three-sixty scan. Nobody sleeps until I</text>
<text x="41.0" y="122.0" font-size="10.0" fill="#333333">know what's out here.</text>
<text x="257.7" y="75.0" text-anchor="end" font-size="12" font-weight="bold" fill="#888888" opacity="0.6">1</text>
<text x="263.7" y="604.0" text-anchor="end" font-size="9" fill="#888888" opacity="0.5">MED</text>
<rect x="279.7" y="59.0" width="240.7" height="551.0" rx="2" fill="#f5f0e8" stroke="#2a2a2a" stroke-width="1.5"/>
<path d="M353.7,455.7 L357.9,301.4 Q362.1,297.4 387.2,297.4 L412.8,297.4 Q437.9,297.4 442.1,301.4 L446.3,455.7 Z" fill="#b22222" opacity="0.35"/>
<line x1="357.9" y1="418.5" x2="442.1" y2="418.5" stroke="#b22222" stroke-width="1" opacity="0.3"/>
<line x1="357.9" y1="301.4" x2="341.0" y2="363.4" stroke="#b22222" stroke-width="2" opacity="0.3"/>
<line x1="341.0" y1="363.4" x2="353.7" y2="400.6" stroke="#b22222" stroke-width="2" opacity="0.3"/>
<line x1="442.1" y1="301.4" x2="459.0" y2="363.4" stroke="#b22222" stroke-width="2" opacity="0.3"/>
<line x1="459.0" y1="363.4" x2="446.3" y2="400.6" stroke="#b22222" stroke-width="2" opacity="0.3"/>
<line x1="400.0" y1="239.8" x2="400.0" y2="297.4" stroke="#b22222" stroke-width="3" opacity="0.35"/>
<circle cx="400.0" cy="207.8" r="32.0" fill="#b22222" opacity="0.4"/>
<rect x="285.7" y="67.0" width="149.5" height="38.0" rx="6" fill="white" stroke="#b22222" stroke-width="1.0" opacity="0.92"/>
<polygon points="330.5,105.0 338.5,105.0 327.5,113.0" fill="white" stroke="#b22222" stroke-width="0.8"/>
<line x1="330.0" y1="105.0" x2="339.0" y2="105.0" stroke="white" stroke-width="1.5"/>
<text x="291.7" y="83.0" font-size="10.0" fill="#b22222" font-weight="700">THRESH</text>
<text x="291.7" y="96.0" font-size="10.0" fill="#333333">Perimeter is... a gutter.</text>
<rect x="386.8" y="115.0" width="127.5" height="38.0" rx="6" fill="white" stroke="#b0b0b0" stroke-width="1.0" opacity="0.92"/>
<polygon points="425.1,153.0 433.1,153.0 422.1,161.0" fill="white" stroke="#b0b0b0" stroke-width="0.8"/>
<line x1="424.6" y1="153.0" x2="433.6" y2="153.0" stroke="white" stroke-width="1.5"/>
<text x="392.8" y="131.0" font-size="10.0" fill="#b0b0b0" font-weight="700">SABLE</text>
<text x="392.8" y="144.0" font-size="10.0" fill="#333333">Make it work, Thresh.</text>
<rect x="285.7" y="163.0" width="62.0" height="38.0" rx="6" fill="white" stroke="#b22222" stroke-width="1.0" opacity="0.92"/>
<polygon points="304.3,201.0 312.3,201.0 301.3,209.0" fill="white" stroke="#b22222" stroke-width="0.8"/>
<line x1="303.8" y1="201.0" x2="312.8" y2="201.0" stroke="white" stroke-width="1.5"/>
<text x="291.7" y="179.0" font-size="10.0" fill="#b22222" font-weight="700">THRESH</text>
<text x="291.7" y="192.0" font-size="10.0" fill="#333333">Copy.</text>
<text x="508.3" y="75.0" text-anchor="end" font-size="12" font-weight="bold" fill="#888888" opacity="0.6">2</text>
<text x="514.3" y="604.0" text-anchor="end" font-size="9" fill="#888888" opacity="0.5">MED</text>
<rect x="530.3" y="59.0" width="240.7" height="551.0" rx="2" fill="#f5f0e8" stroke="#2a2a2a" stroke-width="1.5"/>
<path d="M604.3,455.7 L608.6,301.4 Q612.8,297.4 637.9,297.4 L663.5,297.4 Q688.6,297.4 692.8,301.4 L697.0,455.7 Z" fill="#c0b8a8" opacity="0.35"/>
<line x1="608.6" y1="418.5" x2="692.8" y2="418.5" stroke="#c0b8a8" stroke-width="1" opacity="0.3"/>
<line x1="608.6" y1="301.4" x2="591.7" y2="363.4" stroke="#c0b8a8" stroke-width="2" opacity="0.3"/>
<line x1="591.7" y1="363.4" x2="604.3" y2="400.6" stroke="#c0b8a8" stroke-width="2" opacity="0.3"/>
<line x1="692.8" y1="301.4" x2="709.6" y2="363.4" stroke="#c0b8a8" stroke-width="2" opacity="0.3"/>
<line x1="709.6" y1="363.4" x2="697.0" y2="400.6" stroke="#c0b8a8" stroke-width="2" opacity="0.3"/>
<line x1="650.7" y1="239.8" x2="650.7" y2="297.4" stroke="#c0b8a8" stroke-width="3" opacity="0.35"/>
<circle cx="650.7" cy="207.8" r="32.0" fill="#c0b8a8" opacity="0.4"/>
<text x="759.0" y="75.0" text-anchor="end" font-size="12" font-weight="bold" fill="#888888" opacity="0.6">3</text>
<text x="765.0" y="604.0" text-anchor="end" font-size="9" fill="#888888" opacity="0.5">MW</text>
<rect x="29.0" y="620.0" width="238.2" height="551.0" rx="2" fill="#f5f0e8" stroke="#2a2a2a" stroke-width="1.5"/>
<ellipse cx="148.1" cy="851.4" rx="95.3" ry="248.0" fill="#6a5acd" opacity="0.18"/>
<path d="M48.1,764.6 Q148.1,566.3 248.1,764.6" fill="none" stroke="#6a5acd" stroke-width="3" opacity="0.35"/>
<line x1="114.7" y1="796.9" x2="143.3" y2="794.9" stroke="#a89888" stroke-width="1.5" opacity="0.45"/>
<line x1="152.8" y1="794.9" x2="181.4" y2="796.9" stroke="#a89888" stroke-width="1.5" opacity="0.45"/>
<ellipse cx="121.4" cy="821.7" rx="11.4" ry="12.4" fill="#a89888" opacity="0.45"/>
<ellipse cx="174.8" cy="821.7" rx="11.4" ry="12.4" fill="#a89888" opacity="0.45"/>
<line x1="148.1" y1="856.4" x2="148.1" y2="896.1" stroke="#a89888" stroke-width="1.2" opacity="0.35"/>
<path d="M142.4,896.1 Q148.1,899.1 153.8,896.1" fill="none" stroke="#a89888" stroke-width="1" opacity="0.3"/>
<line x1="124.3" y1="930.8" x2="171.9" y2="930.8" stroke="#a89888" stroke-width="1.2" opacity="0.35"/>
<rect x="35.0" y="628.0" width="226.2" height="64.0" rx="6" fill="white" stroke="#6a5acd" stroke-width="1.0" opacity="0.92"/>
<polygon points="102.8,692.0 110.8,692.0 99.8,700.0" fill="white" stroke="#6a5acd" stroke-width="0.8"/>
<line x1="102.3" y1="692.0" x2="111.3" y2="692.0" stroke="white" stroke-width="1.5"/>
<text x="41.0" y="644.0" font-size="10.0" fill="#6a5acd" font-weight="700">LUMA</text>
<text x="41.0" y="657.0" font-size="10.0" fill="#333333">Air quality is... remarkable.</text>
<text x="41.0" y="670.0" font-size="10.0" fill="#333333">Pre-industrial particulate levels but the</text>
<text x="41.0" y="683.0" font-size="10.0" fill="#333333">sulfur content — &quot; *(she stops herself)*</text>
<text x="255.2" y="636.0" text-anchor="end" font-size="12" font-weight="bold" fill="#888888" opacity="0.6">4</text>
<text x="261.2" y="1165.0" text-anchor="end" font-size="9" fill="#888888" opacity="0.5">CU</text>
<rect x="277.2" y="620.0" width="493.8" height="551.0" rx="2" fill="#f5f0e8" stroke="#2a2a2a" stroke-width="1.5"/>
<line x1="283.2" y1="1049.8" x2="765.0" y2="1049.8" stroke="#a89888" stroke-width="1.0" opacity="0.5"/>
<ellipse cx="524.1" cy="1051.8" rx="11.2" ry="2.7" fill="#a89888" opacity="0.2"/>
<line x1="521.4" y1="1034.0" x2="517.3" y2="1049.8" stroke="#b0b0b0" stroke-width="2" opacity="0.5"/>
<line x1="526.8" y1="1034.0" x2="530.8" y2="1049.8" stroke="#b0b0b0" stroke-width="2" opacity="0.5"/>
<line x1="524.1" y1="1021.0" x2="524.1" y2="1034.0" stroke="#b0b0b0" stroke-width="2.5" opacity="0.6"/>
<line x1="510.6" y1="1023.0" x2="537.6" y2="1023.0" stroke="#b0b0b0" stroke-width="2" opacity="0.5"/>
<line x1="510.6" y1="1023.0" x2="506.1" y2="1034.5" stroke="#b0b0b0" stroke-width="1.5" opacity="0.4"/>
<line x1="537.6" y1="1023.0" x2="542.1" y2="1034.5" stroke="#b0b0b0" stroke-width="1.5" opacity="0.4"/>
<circle cx="524.1" cy="1004.8" r="8.1" fill="#b0b0b0" opacity="0.6"/>
<rect x="283.2" y="628.0" width="481.8" height="54.0" rx="6" fill="white" stroke="#b0b0b0" stroke-width="1.0" opacity="0.92"/>
<polygon points="427.7,682.0 435.7,682.0 424.7,690.0" fill="white" stroke="#b0b0b0" stroke-width="0.8"/>
<line x1="427.2" y1="682.0" x2="436.2" y2="682.0" stroke="white" stroke-width="1.5"/>
<text x="289.2" y="645.0" font-size="11.0" fill="#b0b0b0" font-weight="700">SABLE</text>
<text x="289.2" y="659.0" font-size="11.0" fill="#333333">Luma, casualty report. Wren, I need that drive assessment in ten. We work with</text>
<text x="289.2" y="673.0" font-size="11.0" fill="#333333">what we have.</text>
<text x="759.0" y="636.0" text-anchor="end" font-size="12" font-weight="bold" fill="#888888" opacity="0.6">5</text>
<text x="765.0" y="1165.0" text-anchor="end" font-size="9" fill="#888888" opacity="0.5">WIDE</text>
</svg>