<svg xmlns="http://www.w3.org/2000/svg" viewBox="0 0 800 1200" width="800" height="1200" style="background:#ffffff">
<style>
  text { font-family: "Helvetica Neue", Helvetica, Arial, sans-serif; }
</style>
<text x="400.0" y="22" text-anchor="middle" font-size="16" fill="#888888" font-weight="500">PAGE 17  (5 panels)</text>
<rect x="29.0" y="59.0" width="742.0" height="364.0" rx="2" fill="#f5f0e8" stroke="#2a2a2a" stroke-width="1.5"/>
<path d="M341.4,321.1 L346.8,274.6 Q352.1,270.6 383.8,270.6 L416.2,270.6 Q447.9,270.6 453.2,274.6 L458.6,321.1 Z" fill="#b22222" opacity="0.35"/>
<line x1="346.8" y1="296.5" x2="453.2" y2="296.5" stroke="#b22222" stroke-width="1" opacity="0.3"/>
<line x1="346.8" y1="274.6" x2="325.5" y2="315.5" stroke="#b22222" stroke-width="2" opacity="0.3"/>
<line x1="325.5" y1="315.5" x2="341.4" y2="340.1" stroke="#b22222" stroke-width="2" opacity="0.3"/>
<line x1="453.2" y1="274.6" x2="474.5" y2="315.5" stroke="#b22222" stroke-width="2" opacity="0.3"/>
<line x1="474.5" y1="315.5" x2="458.6" y2="340.1" stroke="#b22222" stroke-width="2" opacity="0.3"/>
<line x1="400.0" y1="197.7" x2="400.0" y2="270.6" stroke="#b22222" stroke-width="3" opacity="0.35"/>
<circle cx="400.0" cy="157.3" r="40.5" fill="#b22222" opacity="0.4"/>
<rect x="35.0" y="67.0" width="62.0" height="40.0" rx="6" fill="white" stroke="#b22222" stroke-width="1.0" opacity="0.92"/>
<polygon points="53.6,107.0 61.6,107.0 50.6,115.0" fill="white" stroke="#b22222" stroke-width="0.8"/>
<line x1="53.1" y1="107.0" x2="62.1" y2="107.0" stroke="white" stroke-width="1.5"/>
<text x="41.0" y="84.0" font-size="11.0" fill="#b22222" font-weight="700">THRESH</text>
<text x="41.0" y="98.0" font-size="11.0" fill="#333333">Contact.</text>
<rect x="703.0" y="117.0" width="62.0" height="40.0" rx="6" fill="white" stroke="#b0b0b0" stroke-width="1.0" opacity="0.92"/>
<polygon points="721.6,157.0 729.6,157.0 718.6,165.0" fill="white" stroke="#b0b0b0" stroke-width="0.8"/>
<line x1="721.1" y1="157.0" x2="730.1" y2="157.0" stroke="white" stroke-width="1.5"/>
<text x="709.0" y="134.0" font-size="11.0" fill="#b0b0b0" font-weight="700">SABLE</text>
<text x="709.0" y="148.0" font-size="11.0" fill="#333333">Hold.</text>
<text x="759.0" y="75.0" text-anchor="end" font-size="12" font-weight="bold" fill="#888888" opacity="0.6">1</text>
<text x="765.0" y="417.0" text-anchor="end" font-size="9" fill="#888888" opacity="0.5">MW</text>
<rect x="29.0" y="433.0" width="742.0" height="364.0" rx="2" fill="#f5f0e8" stroke="#2a2a2a" stroke-width="1.5"/>
<path d="M298.1,706.0 Q298.1,655.0 374.5,648.7 L425.5,648.7 Q501.9,655.0 501.9,706.0 L501.9,753.3 L298.1,753.3 Z" fill="#c87533" opacity="0.25"/>
<path d="M377.7,648.7 L400.0,680.5 L422.3,648.7" fill="none" stroke="#c87533" stroke-width="1" opacity="0.3"/>
<circle cx="400.0" cy="578.6" r="63.7" fill="#c87533" opacity="0.35"/>
<path d="M336.3,591.3 Q345.9,648.7 400.0,651.9 Q454.1,648.7 463.7,591.3" fill="none" stroke="#c87533" stroke-width="1.2" opacity="0.3"/>
<path d="M333.1,572.2 Q400.0,495.8 466.9,572.2" fill="none" stroke="#c87533" stroke-width="2" opacity="0.4"/>
<ellipse cx="334.3" cy="581.8" rx="2.5" ry="4" fill="#c87533" opacity="0.25"/>
<ellipse cx="465.7" cy="581.8" rx="2.5" ry="4" fill="#c87533" opacity="0.25"/>
<rect x="35.0" y="441.0" width="701.7" height="40.0" rx="6" fill="white" stroke="#c87533" stroke-width="1.0" opacity="0.92"/>
<polygon points="245.5,481.0 253.5,481.0 242.5,489.0" fill="white" stroke="#c87533" stroke-width="0.8"/>
<line x1="245.0" y1="481.0" x2="254.0" y2="481.0" stroke="white" stroke-width="1.5"/>
<text x="41.0" y="458.0" font-size="11.0" fill="#c87533" font-weight="700">WREN</text>
<text x="41.0" y="472.0" font-size="11.0" fill="#333333">The temporal drive is destroyed. Not damaged. Destroyed. The crystal matrix is shattered past coherence threshold.</text>
<rect x="390.0" y="491.0" width="375.0" height="40.0" rx="6" fill="white" stroke="#c87533" stroke-width="1.0" opacity="0.92"/>
<polygon points="502.5,531.0 510.5,531.0 499.5,539.0" fill="white" stroke="#c87533" stroke-width="0.8"/>
<line x1="502.0" y1="531.0" x2="511.0" y2="531.0" stroke="white" stroke-width="1.5"/>
<text x="396.0" y="508.0" font-size="11.0" fill="#c87533" font-weight="700">WREN</text>
<text x="396.0" y="522.0" font-size="11.0" fill="#333333">I can't rebuild it. Not here. Not with anything in this era.</text>
<text x="759.0" y="449.0" text-anchor="end" font-size="12" font-weight="bold" fill="#888888" opacity="0.6">2</text>
<text x="765.0" y="791.0" text-anchor="end" font-size="9" fill="#888888" opacity="0.5">MCU</text>
<rect x="29.0" y="807.0" width="240.7" height="364.0" rx="2" fill="#f5f0e8" stroke="#2a2a2a" stroke-width="1.5"/>
<ellipse cx="149.3" cy="959.9" rx="96.3" ry="163.8" fill="#b0b0b0" opacity="0.18"/>
<path d="M48.3,902.5 Q149.3,771.5 250.4,902.5" fill="none" stroke="#b0b0b0" stroke-width="3" opacity="0.35"/>
<line x1="115.6" y1="923.8" x2="144.5" y2="921.8" stroke="#a89888" stroke-width="1.5" opacity="0.45"/>
<line x1="154.1" y1="921.8" x2="183.0" y2="923.8" stroke="#a89888" stroke-width="1.5" opacity="0.45"/>
<ellipse cx="122.4" cy="940.2" rx="11.6" ry="8.2" fill="#a89888" opacity="0.45"/>
<ellipse cx="176.3" cy="940.2" rx="11.6" ry="8.2" fill="#a89888" opacity="0.45"/>
<line x1="149.3" y1="963.2" x2="149.3" y2="989.4" stroke="#a89888" stroke-width="1.2" opacity="0.35"/>
<path d="M143.6,989.4 Q149.3,992.4 155.1,989.4" fill="none" stroke="#a89888" stroke-width="1" opacity="0.3"/>
<line x1="125.3" y1="1012.3" x2="173.4" y2="1012.3" stroke="#a89888" stroke-width="1.2" opacity="0.35"/>
<rect x="35.0" y="815.0" width="105.5" height="38.0" rx="6" fill="white" stroke="#b0b0b0" stroke-width="1.0" opacity="0.92"/>
<polygon points="66.7,853.0 74.7,853.0 63.7,861.0" fill="white" stroke="#b0b0b0" stroke-width="0.8"/>
<line x1="66.2" y1="853.0" x2="75.2" y2="853.0" stroke="white" stroke-width="1.5"/>
<text x="41.0" y="831.0" font-size="10.0" fill="#b0b0b0" font-weight="700">SABLE</text>
<text x="41.0" y="844.0" font-size="10.0" fill="#333333">What do you need?</text>
<text x="257.7" y="823.0" text-anchor="end" font-size="12" font-weight="bold" fill="#888888" opacity="0.6">3</text>
<text x="263.7" y="1165.0" text-anchor="end" font-size="9" fill="#888888" opacity="0.5">CU</text>
<rect x="279.7" y="807.0" width="240.7" height="364.0" rx="2" fill="#f5f0e8" stroke="#2a2a2a" stroke-width="1.5"/>
<ellipse cx="400.0" cy="959.9" rx="96.3" ry="163.8" fill="#c87533" opacity="0.18"/>
<path d="M298.9,902.5 Q400.0,771.5 501.1,902.5" fill="none" stroke="#c87533" stroke-width="3" opacity="0.35"/>
<line x1="366.3" y1="923.8" x2="395.2" y2="921.8" stroke="#a89888" stroke-width="1.5" opacity="0.45"/>
<line x1="404.8" y1="921.8" x2="433.7" y2="923.8" stroke="#a89888" stroke-width="1.5" opacity="0.45"/>
<ellipse cx="373.0" cy="940.2" rx="11.6" ry="8.2" fill="#a89888" opacity="0.45"/>
<ellipse cx="427.0" cy="940.2" rx="11.6" ry="8.2" fill="#a89888" opacity="0.45"/>
<line x1="400.0" y1="963.2" x2="400.0" y2="989.4" stroke="#a89888" stroke-width="1.2" opacity="0.35"/>
<path d="M394.2,989.4 Q400.0,992.4 405.8,989.4" fill="none" stroke="#a89888" stroke-width="1" opacity="0.3"/>
<line x1="375.9" y1="1012.3" x2="424.1" y2="1012.3" stroke="#a89888" stroke-width="1.2" opacity="0.35"/>
<rect x="285.7" y="815.0" width="210.0" height="64.0" rx="6" fill="white" stroke="#c87533" stroke-width="1.0" opacity="0.92"/>
<polygon points="348.7,879.0 356.7,879.0 345.7,887.0" fill="white" stroke="#c87533" stroke-width="0.8"/>
<line x1="348.2" y1="879.0" x2="357.2" y2="879.0" stroke="white" stroke-width="1.5"/>
<text x="291.7" y="831.0" font-size="10.0" fill="#c87533" font-weight="700">WREN</text>
<text x="291.7" y="844.0" font-size="10.0" fill="#333333">Everything. Precision gears, optical</text>
<text x="291.7" y="857.0" font-size="10.0" fill="#333333">lenses, copper coils, a conductor</text>
<text x="291.7" y="870.0" font-size="10.0" fill="#333333">matrix...&quot; *(she's already listing)*</text>
<text x="508.3" y="823.0" text-anchor="end" font-size="12" font-weight="bold" fill="#888888" opacity="0.6">4</text>
<text x="514.3" y="1165.0" text-anchor="end" font-size="9" fill="#888888" opacity="0.5">CU</text>
<rect x="530.3" y="807.0" width="240.7" height="364.0" rx="2" fill="#f5f0e8" stroke="#2a2a2a" stroke-width="1.5"/>
<path d="M581.4,1039.2 Q581.4,1004.6 633.3,1000.3 L668.0,1000.3 Q720.0,1004.6 720.0,1039.2 L720.0,1127.3 L581.4,1127.3 Z" fill="#c0b8a8" opacity="0.25"/>
<path d="M635.5,1000.3 L650.7,1021.9 L665.8,1000.3" fill="none" stroke="#c0b8a8" stroke-width="1" opacity="0.3"/>
<circle cx="650.7" cy="952.6" r="43.3" fill="#c0b8a8" opacity="0.35"/>
<path d="M607.3,961.3 Q613.8,1000.3 650.7,1002.4 Q687.5,1000.3 694.0,961.3" fill="none" stroke="#c0b8a8" stroke-width="1.2" opacity="0.3"/>
<path d="M605.2,948.3 Q650.7,896.3 696.2,948.3" fill="none" stroke="#c0b8a8" stroke-width="2" opacity="0.4"/>
<ellipse cx="605.3" cy="954.8" rx="2.5" ry="4" fill="#c0b8a8" opacity="0.25"/>
<ellipse cx="696.0" cy="954.8" rx="2.5" ry="4" fill="#c0b8a8" opacity="0.25"/>
<text x="759.0" y="823.0" text-anchor="end" font-size="12" font-weight="bold" fill="#888888" opacity="0.6">5</text>
<text x="765.0" y="1165.0" text-anchor="end" font-size="9" fill="#888888" opacity="0.5">MCU</text>
</svg>