<svg xmlns="http://www.w3.org/2000/svg" viewBox="0 0 800 1200" width="800" height="1200" style="background:#ffffff">
<style>
  text { font-family: "Helvetica Neue", Helvetica, Arial, sans-serif; }
</style>
<text x="400.0" y="22" text-anchor="middle" font-size="16" fill="#888888" font-weight="500">PAGE 19  (4 panels)</text>
<rect x="29.0" y="59.0" width="742.0" height="364.0" rx="2" fill="#f5f0e8" stroke="#2a2a2a" stroke-width="1.5"/>
<path d="M341.4,321.1 L346.8,274.6 Q352.1,270.6 383.8,270.6 L416.2,270.6 Q447.9,270.6 453.2,274.6 L458.6,321.1 Z" fill="#b0b0b0" opacity="0.35"/>
<line x1="346.8" y1="296.5" x2="453.2" y2="296.5" stroke="#b0b0b0" stroke-width="1" opacity="0.3"/>
<line x1="346.8" y1="274.6" x2="325.5" y2="315.5" stroke="#b0b0b0" stroke-width="2" opacity="0.3"/>
<line x1="325.5" y1="315.5" x2="341.4" y2="340.1" stroke="#b0b0b0" stroke-width="2" opacity="0.3"/>
<line x1="453.2" y1="274.6" x2="474.5" y2="315.5" stroke="#b0b0b0" stroke-width="2" opacity="0.3"/>
<line x1="474.5" y1="315.5" x2="458.6" y2="340.1" stroke="#b0b0b0" stroke-width="2" opacity="0.3"/>
<line x1="400.0" y1="197.7" x2="400.0" y2="270.6" stroke="#b0b0b0" stroke-width="3" opacity="0.35"/>
<circle cx="400.0" cy="157.3" r="40.5" fill="#b0b0b0" opacity="0.4"/>
<rect x="35.0" y="67.0" width="483.9" height="40.0" rx="6" fill="white" stroke="#b0b0b0" stroke-width="1.0" opacity="0.92"/>
<polygon points="180.2,107.0 188.2,107.0 177.2,115.0" fill="white" stroke="#b0b0b0" stroke-width="0.8"/>
<line x1="179.7" y1="107.0" x2="188.7" y2="107.0" stroke="white" stroke-width="1.5"/>
<text x="41.0" y="84.0" font-size="11.0" fill="#b0b0b0" font-weight="700">SABLE</text>
<text x="41.0" y="98.0" font-size="11.0" fill="#333333">We're soldiers. This is a hostile environment. We secure, we assess, we adapt.</text>
<rect x="420.2" y="117.0" width="344.8" height="40.0" rx="6" fill="white" stroke="#b0b0b0" stroke-width="1.0" opacity="0.92"/>
<polygon points="523.7,157.0 531.7,157.0 520.7,165.0" fill="white" stroke="#b0b0b0" stroke-width="0.8"/>
<line x1="523.2" y1="157.0" x2="532.2" y2="157.0" stroke="white" stroke-width="1.5"/>
<text x="426.2" y="134.0" font-size="11.0" fill="#b0b0b0" font-weight="700">SABLE</text>
<text x="426.2" y="148.0" font-size="11.0" fill="#333333">The drive is gone. We're not gone. We work the problem.</text>
<text x="759.0" y="75.0" text-anchor="end" font-size="12" font-weight="bold" fill="#888888" opacity="0.6">1</text>
<text x="765.0" y="417.0" text-anchor="end" font-size="9" fill="#888888" opacity="0.5">MED</text>
<rect x="29.0" y="433.0" width="366.0" height="364.0" rx="2" fill="#f5f0e8" stroke="#2a2a2a" stroke-width="1.5"/>
<path d="M110.1,706.0 Q110.1,655.0 186.5,648.7 L237.5,648.7 Q313.9,655.0 313.9,706.0 L313.9,753.3 L110.1,753.3 Z" fill="#c87533" opacity="0.25"/>
<path d="M189.7,648.7 L212.0,680.5 L234.3,648.7" fill="none" stroke="#c87533" stroke-width="1" opacity="0.3"/>
<circle cx="212.0" cy="578.6" r="63.7" fill="#c87533" opacity="0.35"/>
<path d="M148.3,591.3 Q157.9,648.7 212.0,651.9 Q266.1,648.7 275.7,591.3" fill="none" stroke="#c87533" stroke-width="1.2" opacity="0.3"/>
<path d="M145.1,572.2 Q212.0,495.8 278.9,572.2" fill="none" stroke="#c87533" stroke-width="2" opacity="0.4"/>
<ellipse cx="146.3" cy="581.8" rx="2.5" ry="4" fill="#c87533" opacity="0.25"/>
<ellipse cx="277.7" cy="581.8" rx="2.5" ry="4" fill="#c87533" opacity="0.25"/>
<rect x="35.0" y="441.0" width="320.6" height="68.0" rx="6" fill="white" stroke="#c87533" stroke-width="1.0" opacity="0.92"/>
<polygon points="131.2,509.0 139.2,509.0 128.2,517.0" fill="white" stroke="#c87533" stroke-width="0.8"/>
<line x1="130.7" y1="509.0" x2="139.7" y2="509.0" stroke="white" stroke-width="1.5"/>
<text x="41.0" y="458.0" font-size="11.0" fill="#c87533" font-weight="700">WREN</text>
<text x="41.0" y="472.0" font-size="11.0" fill="#333333">If we can't rebuild the drive, we build a new one.</text>
<text x="41.0" y="486.0" font-size="11.0" fill="#333333">Different architecture. I need to source components</text>
<text x="41.0" y="500.0" font-size="11.0" fill="#333333">locally.</text>
<rect x="35.0" y="519.0" width="354.0" height="54.0" rx="6" fill="white" stroke="#c87533" stroke-width="1.0" opacity="0.92"/>
<polygon points="141.2,573.0 149.2,573.0 138.2,581.0" fill="white" stroke="#c87533" stroke-width="0.8"/>
<line x1="140.7" y1="573.0" x2="149.7" y2="573.0" stroke="white" stroke-width="1.5"/>
<text x="41.0" y="536.0" font-size="11.0" fill="#c87533" font-weight="700">WREN</text>
<text x="41.0" y="550.0" font-size="11.0" fill="#333333">Precision gears. Optical lenses. Copper induction coils. A</text>
<text x="41.0" y="564.0" font-size="11.0" fill="#333333">crystalline resonance medium.&quot; *(the list is growing)*</text>
<text x="383.0" y="449.0" text-anchor="end" font-size="12" font-weight="bold" fill="#888888" opacity="0.6">2</text>
<text x="389.0" y="791.0" text-anchor="end" font-size="9" fill="#888888" opacity="0.5">MCU</text>
<rect x="405.0" y="433.0" width="366.0" height="364.0" rx="2" fill="#f5f0e8" stroke="#2a2a2a" stroke-width="1.5"/>
<path d="M529.4,695.1 L534.8,648.6 Q540.1,644.6 571.8,644.6 L604.2,644.6 Q635.9,644.6 641.2,648.6 L646.6,695.1 Z" fill="#6a5acd" opacity="0.35"/>
<line x1="534.8" y1="670.5" x2="641.2" y2="670.5" stroke="#6a5acd" stroke-width="1" opacity="0.3"/>
<line x1="534.8" y1="648.6" x2="513.5" y2="689.5" stroke="#6a5acd" stroke-width="2" opacity="0.3"/>
<line x1="513.5" y1="689.5" x2="529.4" y2="714.1" stroke="#6a5acd" stroke-width="2" opacity="0.3"/>
<line x1="641.2" y1="648.6" x2="662.5" y2="689.5" stroke="#6a5acd" stroke-width="2" opacity="0.3"/>
<line x1="662.5" y1="689.5" x2="646.6" y2="714.1" stroke="#6a5acd" stroke-width="2" opacity="0.3"/>
<line x1="588.0" y1="571.7" x2="588.0" y2="644.6" stroke="#6a5acd" stroke-width="3" opacity="0.35"/>
<circle cx="588.0" cy="531.3" r="40.5" fill="#6a5acd" opacity="0.4"/>
<rect x="411.0" y="441.0" width="354.0" height="82.0" rx="6" fill="white" stroke="#6a5acd" stroke-width="1.0" opacity="0.92"/>
<polygon points="517.2,523.0 525.2,523.0 514.2,531.0" fill="white" stroke="#6a5acd" stroke-width="0.8"/>
<line x1="516.7" y1="523.0" x2="525.7" y2="523.0" stroke="white" stroke-width="1.5"/>
<text x="417.0" y="458.0" font-size="11.0" fill="#6a5acd" font-weight="700">LUMA</text>
<text x="417.0" y="472.0" font-size="11.0" fill="#333333">I'll need Wren's power draw projections. And environmental</text>
<text x="417.0" y="486.0" font-size="11.0" fill="#333333">baselines for this era — atmosphere, pathogens, water</text>
<text x="417.0" y="500.0" font-size="11.0" fill="#333333">composition. We don't know what's safe to breathe</text>
<text x="417.0" y="514.0" font-size="11.0" fill="#333333">long-term.</text>
<text x="759.0" y="449.0" text-anchor="end" font-size="12" font-weight="bold" fill="#888888" opacity="0.6">3</text>
<text x="765.0" y="791.0" text-anchor="end" font-size="9" fill="#888888" opacity="0.5">MED</text>
<rect x="29.0" y="807.0" width="742.0" height="364.0" rx="2" fill="#f5f0e8" stroke="#2a2a2a" stroke-width="1.5"/>
<line x1="35.0" y1="1090.9" x2="765.0" y2="1090.9" stroke="#a89888" stroke-width="1.0" opacity="0.5"/>
<ellipse cx="214.5" cy="1092.9" rx="11.2" ry="2.7" fill="#a89888" opacity="0.2"/>
<line x1="211.8" y1="1075.2" x2="207.8" y2="1090.9" stroke="#c0b8a8" stroke-width="2" opacity="0.5"/>
<line x1="217.2" y1="1075.2" x2="221.2" y2="1090.9" stroke="#c0b8a8" stroke-width="2" opacity="0.5"/>
<line x1="214.5" y1="1062.1" x2="214.5" y2="1075.2" stroke="#c0b8a8" stroke-width="2.5" opacity="0.6"/>
<line x1="201.0" y1="1064.1" x2="228.0" y2="1064.1" stroke="#c0b8a8" stroke-width="2" opacity="0.5"/>
<line x1="201.0" y1="1064.1" x2="196.5" y2="1075.6" stroke="#c0b8a8" stroke-width="1.5" opacity="0.4"/>
<line x1="228.0" y1="1064.1" x2="232.5" y2="1075.6" stroke="#c0b8a8" stroke-width="1.5" opacity="0.4"/>
<circle cx="214.5" cy="1045.9" r="8.1" fill="#c0b8a8" opacity="0.6"/>
<ellipse cx="400.0" cy="1092.9" rx="11.2" ry="2.7" fill="#a89888" opacity="0.2"/>
<line x1="397.3" y1="1075.2" x2="393.2" y2="1090.9" stroke="#c0b8a8" stroke-width="2" opacity="0.5"/>
<line x1="402.7" y1="1075.2" x2="406.8" y2="1090.9" stroke="#c0b8a8" stroke-width="2" opacity="0.5"/>
<line x1="400.0" y1="1062.1" x2="400.0" y2="1075.2" stroke="#c0b8a8" stroke-width="2.5" opacity="0.6"/>
<line x1="386.5" y1="1064.1" x2="413.5" y2="1064.1" stroke="#c0b8a8" stroke-width="2" opacity="0.5"/>
<line x1="386.5" y1="1064.1" x2="382.0" y2="1075.6" stroke="#c0b8a8" stroke-width="1.5" opacity="0.4"/>
<line x1="413.5" y1="1064.1" x2="418.0" y2="1075.6" stroke="#c0b8a8" stroke-width="1.5" opacity="0.4"/>
<circle cx="400.0" cy="1045.9" r="8.1" fill="#c0b8a8" opacity="0.6"/>
<ellipse cx="585.5" cy="1092.9" rx="11.2" ry="2.7" fill="#a89888" opacity="0.2"/>
<line x1="582.8" y1="1075.2" x2="578.8" y2="1090.9" stroke="#c0b8a8" stroke-width="2" opacity="0.5"/>
<line x1="588.2" y1="1075.2" x2="592.2" y2="1090.9" stroke="#c0b8a8" stroke-width="2" opacity="0.5"/>
<line x1="585.5" y1="1062.1" x2="585.5" y2="1075.2" stroke="#c0b8a8" stroke-width="2.5" opacity="0.6"/>
<line x1="572.0" y1="1064.1" x2="599.0" y2="1064.1" stroke="#c0b8a8" stroke-width="2" opacity="0.5"/>
<line x1="572.0" y1="1064.1" x2="567.5" y2="1075.6" stroke="#c0b8a8" stroke-width="1.5" opacity="0.4"/>
<line x1="599.0" y1="1064.1" x2="603.5" y2="1075.6" stroke="#c0b8a8" stroke-width="1.5" opacity="0.4"/>
<circle cx="585.5" cy="1045.9" r="8.1" fill="#c0b8a8" opacity="0.6"/>
<rect x="35.0" y="815.0" width="508.1" height="40.0" rx="2" fill="#f5ecd8" stroke="#c8b898" stroke-width="0.8" opacity="0.92"/>
<text x="41.0" y="832.0" font-size="11.0" fill="#5a4a30" font-style="italic" font-weight="500">CAPTION</text>
<text x="41.0" y="846.0" font-size="11.0" fill="#5a4a30" font-style="italic">The gutter is four inches wide. The city is twenty-seven miles across. They begin.</text>
<text x="759.0" y="823.0" text-anchor="end" font-size="12" font-weight="bold" fill="#888888" opacity="0.6">4</text>
<text x="765.0" y="1165.0" text-anchor="end" font-size="9" fill="#888888" opacity="0.5">WIDE</text>
</svg>