<svg xmlns="http://www.w3.org/2000/svg" viewBox="0 0 800 1200" width="800" height="1200" style="background:#ffffff">
<style>
  text { font-family: "Helvetica Neue", Helvetica, Arial, sans-serif; }
</style>
<text x="400.0" y="22" text-anchor="middle" font-size="16" fill="#888888" font-weight="500">PAGE 4  (4 panels)</text>
<rect x="29.0" y="59.0" width="742.0" height="130.2" rx="2" fill="#f5f0e8" stroke="#2a2a2a" stroke-width="1.5"/>
<line x1="35.0" y1="160.6" x2="765.0" y2="160.6" stroke="#a89888" stroke-width="1.0" opacity="0.5"/>
<ellipse cx="214.5" cy="162.6" rx="5.9" ry="1.4" fill="#a89888" opacity="0.2"/>
<line x1="213.1" y1="152.4" x2="211.0" y2="160.6" stroke="#c0b8a8" stroke-width="2" opacity="0.5"/>
<line x1="215.9" y1="152.4" x2="218.0" y2="160.6" stroke="#c0b8a8" stroke-width="2" opacity="0.5"/>
<line x1="214.5" y1="145.6" x2="214.5" y2="152.4" stroke="#c0b8a8" stroke-width="2.5" opacity="0.6"/>
<line x1="207.5" y1="147.6" x2="221.5" y2="147.6" stroke="#c0b8a8" stroke-width="2" opacity="0.5"/>
<line x1="207.5" y1="147.6" x2="205.1" y2="152.6" stroke="#c0b8a8" stroke-width="1.5" opacity="0.4"/>
<line x1="221.5" y1="147.6" x2="223.9" y2="152.6" stroke="#c0b8a8" stroke-width="1.5" opacity="0.4"/>
<circle cx="214.5" cy="137.2" r="4.2" fill="#c0b8a8" opacity="0.6"/>
<ellipse cx="400.0" cy="162.6" rx="5.9" ry="1.4" fill="#a89888" opacity="0.2"/>
<line x1="398.6" y1="152.4" x2="396.5" y2="160.6" stroke="#c0b8a8" stroke-width="2" opacity="0.5"/>
<line x1="401.4" y1="152.4" x2="403.5" y2="160.6" stroke="#c0b8a8" stroke-width="2" opacity="0.5"/>
<line x1="400.0" y1="145.6" x2="400.0" y2="152.4" stroke="#c0b8a8" stroke-width="2.5" opacity="0.6"/>
<line x1="393.0" y1="147.6" x2="407.0" y2="147.6" stroke="#c0b8a8" stroke-width="2" opacity="0.5"/>
<line x1="393.0" y1="147.6" x2="390.6" y2="152.6" stroke="#c0b8a8" stroke-width="1.5" opacity="0.4"/>
<line x1="407.0" y1="147.6" x2="409.4" y2="152.6" stroke="#c0b8a8" stroke-width="1.5" opacity="0.4"/>
<circle cx="400.0" cy="137.2" r="4.2" fill="#c0b8a8" opacity="0.6"/>
<ellipse cx="585.5" cy="162.6" rx="5.9" ry="1.4" fill="#a89888" opacity="0.2"/>
<line x1="584.1" y1="152.4" x2="582.0" y2="160.6" stroke="#c0b8a8" stroke-width="2" opacity="0.5"/>
<line x1="586.9" y1="152.4" x2="589.0" y2="160.6" stroke="#c0b8a8" stroke-width="2" opacity="0.5"/>
<line x1="585.5" y1="145.6" x2="585.5" y2="152.4" stroke="#c0b8a8" stroke-width="2.5" opacity="0.6"/>
<line x1="578.5" y1="147.6" x2="592.5" y2="147.6" stroke="#c0b8a8" stroke-width="2" opacity="0.5"/>
<line x1="578.5" y1="147.6" x2="576.1" y2="152.6" stroke="#c0b8a8" stroke-width="1.5" opacity="0.4"/>
<line x1="592.5" y1="147.6" x2="594.9" y2="152.6" stroke="#c0b8a8" stroke-width="1.5" opacity="0.4"/>
<circle cx="585.5" cy="137.2" r="4.2" fill="#c0b8a8" opacity="0.6"/>
<rect x="35.0" y="67.0" width="223.8" height="40.0" rx="2" fill="#f5ecd8" stroke="#c8b898" stroke-width="0.8" opacity="0.92"/>
<text x="41.0" y="84.0" font-size="11.0" fill="#5a4a30" font-style="italic" font-weight="500">CAPTION</text>
<text x="41.0" y="98.0" font-size="11.0" fill="#5a4a30" font-style="italic">The corridor collapses behind them.</text>
<text x="759.0" y="75.0" text-anchor="end" font-size="12" font-weight="bold" fill="#888888" opacity="0.6">1</text>
<text x="765.0" y="183.2" text-anchor="end" font-size="9" fill="#888888" opacity="0.5">EST</text>
<rect x="29.0" y="199.2" width="742.0" height="130.2" rx="2" fill="#f5f0e8" stroke="#2a2a2a" stroke-width="1.5"/>
<line x1="35.0" y1="300.8" x2="765.0" y2="300.8" stroke="#a89888" stroke-width="1.0" opacity="0.5"/>
<ellipse cx="276.3" cy="302.8" rx="5.9" ry="1.4" fill="#a89888" opacity="0.2"/>
<line x1="274.9" y1="292.6" x2="272.8" y2="300.8" stroke="#b0b0b0" stroke-width="2" opacity="0.5"/>
<line x1="277.7" y1="292.6" x2="279.9" y2="300.8" stroke="#b0b0b0" stroke-width="2" opacity="0.5"/>
<line x1="276.3" y1="285.8" x2="276.3" y2="292.6" stroke="#b0b0b0" stroke-width="2.5" opacity="0.6"/>
<line x1="269.3" y1="287.8" x2="283.4" y2="287.8" stroke="#b0b0b0" stroke-width="2" opacity="0.5"/>
<line x1="269.3" y1="287.8" x2="267.0" y2="292.9" stroke="#b0b0b0" stroke-width="1.5" opacity="0.4"/>
<line x1="283.4" y1="287.8" x2="285.7" y2="292.9" stroke="#b0b0b0" stroke-width="1.5" opacity="0.4"/>
<circle cx="276.3" cy="277.4" r="4.2" fill="#b0b0b0" opacity="0.6"/>
<ellipse cx="523.7" cy="302.8" rx="5.9" ry="1.4" fill="#a89888" opacity="0.2"/>
<line x1="522.3" y1="292.6" x2="520.1" y2="300.8" stroke="#999999" stroke-width="2" opacity="0.5"/>
<line x1="525.1" y1="292.6" x2="527.2" y2="300.8" stroke="#999999" stroke-width="2" opacity="0.5"/>
<line x1="523.7" y1="285.8" x2="523.7" y2="292.6" stroke="#999999" stroke-width="2.5" opacity="0.6"/>
<line x1="516.6" y1="287.8" x2="530.7" y2="287.8" stroke="#999999" stroke-width="2" opacity="0.5"/>
<line x1="516.6" y1="287.8" x2="514.3" y2="292.9" stroke="#999999" stroke-width="1.5" opacity="0.4"/>
<line x1="530.7" y1="287.8" x2="533.0" y2="292.9" stroke="#999999" stroke-width="1.5" opacity="0.4"/>
<circle cx="523.7" cy="277.4" r="4.2" fill="#999999" opacity="0.6"/>
<rect x="35.0" y="207.2" width="62.0" height="40.0" rx="6" fill="white" stroke="#b0b0b0" stroke-width="1.0" opacity="0.92"/>
<polygon points="53.6,247.2 61.6,247.2 50.6,255.2" fill="white" stroke="#b0b0b0" stroke-width="0.8"/>
<line x1="53.1" y1="247.2" x2="62.1" y2="247.2" stroke="white" stroke-width="1.5"/>
<text x="41.0" y="224.2" font-size="11.0" fill="#b0b0b0" font-weight="700">SABLE</text>
<text x="41.0" y="238.2" font-size="11.0" fill="#333333">HOLD ON!</text>
<rect x="595.7" y="257.2" width="169.3" height="40.0" rx="6" fill="white" stroke="#999999" stroke-width="1.0" opacity="0.92"/>
<polygon points="646.5,297.2 654.5,297.2 643.5,305.2" fill="white" stroke="#999999" stroke-width="0.8"/>
<line x1="646.0" y1="297.2" x2="655.0" y2="297.2" stroke="white" stroke-width="1.5"/>
<text x="601.7" y="274.2" font-size="11.0" fill="#999999" font-weight="700">SFX</text>
<text x="601.7" y="288.2" font-size="11.0" fill="#333333">**RRRRRRR** (hull tearing)</text>
<text x="759.0" y="215.2" text-anchor="end" font-size="12" font-weight="bold" fill="#888888" opacity="0.6">2</text>
<text x="765.0" y="323.5" text-anchor="end" font-size="9" fill="#888888" opacity="0.5">WIDE</text>
<rect x="29.0" y="339.5" width="742.0" height="130.2" rx="2" fill="#f5f0e8" stroke="#2a2a2a" stroke-width="1.5"/>
<line x1="35.0" y1="441.1" x2="765.0" y2="441.1" stroke="#a89888" stroke-width="1.0" opacity="0.5"/>
<ellipse cx="214.5" cy="443.1" rx="5.9" ry="1.4" fill="#a89888" opacity="0.2"/>
<line x1="213.1" y1="432.9" x2="211.0" y2="441.1" stroke="#c0b8a8" stroke-width="2" opacity="0.5"/>
<line x1="215.9" y1="432.9" x2="218.0" y2="441.1" stroke="#c0b8a8" stroke-width="2" opacity="0.5"/>
<line x1="214.5" y1="426.1" x2="214.5" y2="432.9" stroke="#c0b8a8" stroke-width="2.5" opacity="0.6"/>
<line x1="207.5" y1="428.1" x2="221.5" y2="428.1" stroke="#c0b8a8" stroke-width="2" opacity="0.5"/>
<line x1="207.5" y1="428.1" x2="205.1" y2="433.1" stroke="#c0b8a8" stroke-width="1.5" opacity="0.4"/>
<line x1="221.5" y1="428.1" x2="223.9" y2="433.1" stroke="#c0b8a8" stroke-width="1.5" opacity="0.4"/>
<circle cx="214.5" cy="417.7" r="4.2" fill="#c0b8a8" opacity="0.6"/>
<ellipse cx="400.0" cy="443.1" rx="5.9" ry="1.4" fill="#a89888" opacity="0.2"/>
<line x1="398.6" y1="432.9" x2="396.5" y2="441.1" stroke="#c0b8a8" stroke-width="2" opacity="0.5"/>
<line x1="401.4" y1="432.9" x2="403.5" y2="441.1" stroke="#c0b8a8" stroke-width="2" opacity="0.5"/>
<line x1="400.0" y1="426.1" x2="400.0" y2="432.9" stroke="#c0b8a8" stroke-width="2.5" opacity="0.6"/>
<line x1="393.0" y1="428.1" x2="407.0" y2="428.1" stroke="#c0b8a8" stroke-width="2" opacity="0.5"/>
<line x1="393.0" y1="428.1" x2="390.6" y2="433.1" stroke="#c0b8a8" stroke-width="1.5" opacity="0.4"/>
<line x1="407.0" y1="428.1" x2="409.4" y2="433.1" stroke="#c0b8a8" stroke-width="1.5" opacity="0.4"/>
<circle cx="400.0" cy="417.7" r="4.2" fill="#c0b8a8" opacity="0.6"/>
<ellipse cx="585.5" cy="443.1" rx="5.9" ry="1.4" fill="#a89888" opacity="0.2"/>
<line x1="584.1" y1="432.9" x2="582.0" y2="441.1" stroke="#c0b8a8" stroke-width="2" opacity="0.5"/>
<line x1="586.9" y1="432.9" x2="589.0" y2="441.1" stroke="#c0b8a8" stroke-width="2" opacity="0.5"/>
<line x1="585.5" y1="426.1" x2="585.5" y2="432.9" stroke="#c0b8a8" stroke-width="2.5" opacity="0.6"/>
<line x1="578.5" y1="428.1" x2="592.5" y2="428.1" stroke="#c0b8a8" stroke-width="2" opacity="0.5"/>
<line x1="578.5" y1="428.1" x2="576.1" y2="433.1" stroke="#c0b8a8" stroke-width="1.5" opacity="0.4"/>
<line x1="592.5" y1="428.1" x2="594.9" y2="433.1" stroke="#c0b8a8" stroke-width="1.5" opacity="0.4"/>
<circle cx="585.5" cy="417.7" r="4.2" fill="#c0b8a8" opacity="0.6"/>
<text x="759.0" y="355.5" text-anchor="end" font-size="12" font-weight="bold" fill="#888888" opacity="0.6">3</text>
<text x="765.0" y="463.8" text-anchor="end" font-size="9" fill="#888888" opacity="0.5">XWIDE</text>
<rect x="29.0" y="479.8" width="742.0" height="691.2" rx="2" fill="#f5f0e8" stroke="#2a2a2a" stroke-width="1.5"/>
<rect x="35.0" y="487.8" width="90.7" height="40.0" rx="2" fill="#f5ecd8" stroke="#c8b898" stroke-width="0.8" opacity="0.92"/>
<text x="41.0" y="504.8" font-size="11.0" fill="#5a4a30" font-style="italic" font-weight="500">CAPTION</text>
<text x="41.0" y="518.8" font-size="11.0" fill="#5a4a30" font-style="italic">London, 1886.</text>
<text x="759.0" y="495.8" text-anchor="end" font-size="12" font-weight="bold" fill="#888888" opacity="0.6">4</text>
</svg>