<svg xmlns="http://www.w3.org/2000/svg" viewBox="0 0 800 1200" width="800" height="1200" style="background:#ffffff">
<style>
  text { font-family: "Helvetica Neue", Helvetica, Arial, sans-serif; }
</style>
<text x="400.0" y="22" text-anchor="middle" font-size="16" fill="#888888" font-weight="500">PAGE 5  (4 panels)</text>
<rect x="29.0" y="59.0" width="742.0" height="470.9" rx="2" fill="#f5f0e8" stroke="#2a2a2a" stroke-width="1.5"/>
<line x1="35.0" y1="426.3" x2="765.0" y2="426.3" stroke="#a89888" stroke-width="1.0" opacity="0.5"/>
<ellipse cx="214.5" cy="428.3" rx="11.2" ry="2.7" fill="#a89888" opacity="0.2"/>
<line x1="211.8" y1="410.5" x2="207.8" y2="426.3" stroke="#c0b8a8" stroke-width="2" opacity="0.5"/>
<line x1="217.2" y1="410.5" x2="221.2" y2="426.3" stroke="#c0b8a8" stroke-width="2" opacity="0.5"/>
<line x1="214.5" y1="397.5" x2="214.5" y2="410.5" stroke="#c0b8a8" stroke-width="2.5" opacity="0.6"/>
<line x1="201.0" y1="399.5" x2="228.0" y2="399.5" stroke="#c0b8a8" stroke-width="2" opacity="0.5"/>
<line x1="201.0" y1="399.5" x2="196.5" y2="411.0" stroke="#c0b8a8" stroke-width="1.5" opacity="0.4"/>
<line x1="228.0" y1="399.5" x2="232.5" y2="411.0" stroke="#c0b8a8" stroke-width="1.5" opacity="0.4"/>
<circle cx="214.5" cy="381.3" r="8.1" fill="#c0b8a8" opacity="0.6"/>
<ellipse cx="400.0" cy="428.3" rx="11.2" ry="2.7" fill="#a89888" opacity="0.2"/>
<line x1="397.3" y1="410.5" x2="393.2" y2="426.3" stroke="#c0b8a8" stroke-width="2" opacity="0.5"/>
<line x1="402.7" y1="410.5" x2="406.8" y2="426.3" stroke="#c0b8a8" stroke-width="2" opacity="0.5"/>
<line x1="400.0" y1="397.5" x2="400.0" y2="410.5" stroke="#c0b8a8" stroke-width="2.5" opacity="0.6"/>
<line x1="386.5" y1="399.5" x2="413.5" y2="399.5" stroke="#c0b8a8" stroke-width="2" opacity="0.5"/>
<line x1="386.5" y1="399.5" x2="382.0" y2="411.0" stroke="#c0b8a8" stroke-width="1.5" opacity="0.4"/>
<line x1="413.5" y1="399.5" x2="418.0" y2="411.0" stroke="#c0b8a8" stroke-width="1.5" opacity="0.4"/>
<circle cx="400.0" cy="381.3" r="8.1" fill="#c0b8a8" opacity="0.6"/>
<ellipse cx="585.5" cy="428.3" rx="11.2" ry="2.7" fill="#a89888" opacity="0.2"/>
<line x1="582.8" y1="410.5" x2="578.8" y2="426.3" stroke="#c0b8a8" stroke-width="2" opacity="0.5"/>
<line x1="588.2" y1="410.5" x2="592.2" y2="426.3" stroke="#c0b8a8" stroke-width="2" opacity="0.5"/>
<line x1="585.5" y1="397.5" x2="585.5" y2="410.5" stroke="#c0b8a8" stroke-width="2.5" opacity="0.6"/>
<line x1="572.0" y1="399.5" x2="599.0" y2="399.5" stroke="#c0b8a8" stroke-width="2" opacity="0.5"/>
<line x1="572.0" y1="399.5" x2="567.5" y2="411.0" stroke="#c0b8a8" stroke-width="1.5" opacity="0.4"/>
<line x1="599.0" y1="399.5" x2="603.5" y2="411.0" stroke="#c0b8a8" stroke-width="1.5" opacity="0.4"/>
<circle cx="585.5" cy="381.3" r="8.1" fill="#c0b8a8" opacity="0.6"/>
<rect x="35.0" y="67.0" width="223.8" height="40.0" rx="2" fill="#f5ecd8" stroke="#c8b898" stroke-width="0.8" opacity="0.92"/>
<text x="41.0" y="84.0" font-size="11.0" fill="#5a4a30" font-style="italic" font-weight="500">CAPTION</text>
<text x="41.0" y="98.0" font-size="11.0" fill="#5a4a30" font-style="italic">The city sleeps. The gas burns low.</text>
<text x="759.0" y="75.0" text-anchor="end" font-size="12" font-weight="bold" fill="#888888" opacity="0.6">1</text>
<text x="765.0" y="523.9" text-anchor="end" font-size="9" fill="#888888" opacity="0.5">EST</text>
<rect x="29.0" y="539.9" width="493.8" height="310.6" rx="2" fill="#f5f0e8" stroke="#2a2a2a" stroke-width="1.5"/>
<path d="M226.0,763.5 L230.5,724.4 Q235.0,720.4 262.1,720.4 L289.7,720.4 Q316.8,720.4 321.3,724.4 L325.9,763.5 Z" fill="#c0b8a8" opacity="0.35"/>
<line x1="230.5" y1="742.5" x2="321.3" y2="742.5" stroke="#c0b8a8" stroke-width="1" opacity="0.3"/>
<line x1="230.5" y1="724.4" x2="212.3" y2="759.3" stroke="#c0b8a8" stroke-width="2" opacity="0.3"/>
<line x1="212.3" y1="759.3" x2="226.0" y2="780.3" stroke="#c0b8a8" stroke-width="2" opacity="0.3"/>
<line x1="321.3" y1="724.4" x2="339.5" y2="759.3" stroke="#c0b8a8" stroke-width="2" opacity="0.3"/>
<line x1="339.5" y1="759.3" x2="325.9" y2="780.3" stroke="#c0b8a8" stroke-width="2" opacity="0.3"/>
<line x1="275.9" y1="658.2" x2="275.9" y2="720.4" stroke="#c0b8a8" stroke-width="3" opacity="0.35"/>
<circle cx="275.9" cy="623.7" r="34.5" fill="#c0b8a8" opacity="0.4"/>
<text x="510.8" y="555.9" text-anchor="end" font-size="12" font-weight="bold" fill="#888888" opacity="0.6">2</text>
<text x="516.8" y="844.4" text-anchor="end" font-size="9" fill="#888888" opacity="0.5">MED</text>
<rect x="532.8" y="539.9" width="238.2" height="310.6" rx="2" fill="#f5f0e8" stroke="#2a2a2a" stroke-width="1.5"/>
<path d="M583.3,749.8 Q583.3,715.5 634.8,711.2 L669.1,711.2 Q720.5,715.5 720.5,749.8 L720.5,813.2 L583.3,813.2 Z" fill="#c0b8a8" opacity="0.25"/>
<path d="M636.9,711.2 L651.9,732.7 L666.9,711.2" fill="none" stroke="#c0b8a8" stroke-width="1" opacity="0.3"/>
<circle cx="651.9" cy="664.1" r="42.9" fill="#c0b8a8" opacity="0.35"/>
<path d="M609.1,672.7 Q615.5,711.2 651.9,713.4 Q688.4,711.2 694.8,672.7" fill="none" stroke="#c0b8a8" stroke-width="1.2" opacity="0.3"/>
<path d="M606.9,659.8 Q651.9,608.4 696.9,659.8" fill="none" stroke="#c0b8a8" stroke-width="2" opacity="0.4"/>
<ellipse cx="607.1" cy="666.2" rx="2.5" ry="4" fill="#c0b8a8" opacity="0.25"/>
<ellipse cx="696.8" cy="666.2" rx="2.5" ry="4" fill="#c0b8a8" opacity="0.25"/>
<text x="759.0" y="555.9" text-anchor="end" font-size="12" font-weight="bold" fill="#888888" opacity="0.6">3</text>
<text x="765.0" y="844.4" text-anchor="end" font-size="9" fill="#888888" opacity="0.5">MCU</text>
<rect x="29.0" y="860.4" width="742.0" height="310.6" rx="2" fill="#f5f0e8" stroke="#2a2a2a" stroke-width="1.5"/>
<ellipse cx="400.0" cy="990.9" rx="97.8" ry="139.8" fill="#c0b8a8" opacity="0.18"/>
<path d="M297.3,942.0 Q400.0,830.1 502.7,942.0" fill="none" stroke="#c0b8a8" stroke-width="3" opacity="0.35"/>
<line x1="365.8" y1="960.1" x2="395.1" y2="958.1" stroke="#a89888" stroke-width="1.5" opacity="0.45"/>
<line x1="404.9" y1="958.1" x2="434.2" y2="960.1" stroke="#a89888" stroke-width="1.5" opacity="0.45"/>
<ellipse cx="372.6" cy="974.1" rx="11.7" ry="7.0" fill="#a89888" opacity="0.45"/>
<ellipse cx="427.4" cy="974.1" rx="11.7" ry="7.0" fill="#a89888" opacity="0.45"/>
<line x1="400.0" y1="993.7" x2="400.0" y2="1016.0" stroke="#a89888" stroke-width="1.2" opacity="0.35"/>
<path d="M394.1,1016.0 Q400.0,1019.0 405.9,1016.0" fill="none" stroke="#a89888" stroke-width="1" opacity="0.3"/>
<line x1="375.5" y1="1035.6" x2="424.5" y2="1035.6" stroke="#a89888" stroke-width="1.2" opacity="0.35"/>
<rect x="35.0" y="868.4" width="102.8" height="40.0" rx="2" fill="#f5ecd8" stroke="#c8b898" stroke-width="0.8" opacity="0.92"/>
<text x="41.0" y="885.4" font-size="11.0" fill="#5a4a30" font-style="italic" font-weight="500">CAPTION</text>
<text x="41.0" y="899.4" font-size="11.0" fill="#5a4a30" font-style="italic">A falling star.</text>
<text x="759.0" y="876.4" text-anchor="end" font-size="12" font-weight="bold" fill="#888888" opacity="0.6">4</text>
<text x="765.0" y="1165.0" text-anchor="end" font-size="9" fill="#888888" opacity="0.5">CU</text>
</svg>