<svg xmlns="http://www.w3.org/2000/svg" viewBox="0 0 800 1200" width="800" height="1200" style="background:#ffffff">
<style>
  text { font-family: "Helvetica Neue", Helvetica, Arial, sans-serif; }
</style>
<text x="400.0" y="22" text-anchor="middle" font-size="16" fill="#888888" font-weight="500">PAGE 21  (4 panels)</text>
<rect x="29.0" y="59.0" width="178.0" height="1112.0" rx="2" fill="#f5f0e8" stroke="#2a2a2a" stroke-width="1.5"/>
<path d="M66.7,567.9 Q66.7,542.2 105.2,539.0 L130.8,539.0 Q169.3,542.2 169.3,567.9 L169.3,1037.6 L66.7,1037.6 Z" fill="#c0b8a8" opacity="0.25"/>
<path d="M106.8,539.0 L118.0,555.1 L129.2,539.0" fill="none" stroke="#c0b8a8" stroke-width="1" opacity="0.3"/>
<circle cx="118.0" cy="503.8" r="32.0" fill="#c0b8a8" opacity="0.35"/>
<path d="M86.0,510.2 Q90.8,539.0 118.0,540.6 Q145.2,539.0 150.0,510.2" fill="none" stroke="#c0b8a8" stroke-width="1.2" opacity="0.3"/>
<path d="M84.4,500.6 Q118.0,462.1 151.6,500.6" fill="none" stroke="#c0b8a8" stroke-width="2" opacity="0.4"/>
<ellipse cx="84.0" cy="505.4" rx="2.5" ry="4" fill="#c0b8a8" opacity="0.25"/>
<ellipse cx="152.0" cy="505.4" rx="2.5" ry="4" fill="#c0b8a8" opacity="0.25"/>
<text x="195.0" y="75.0" text-anchor="end" font-size="12" font-weight="bold" fill="#888888" opacity="0.6">1</text>
<text x="201.0" y="1165.0" text-anchor="end" font-size="9" fill="#888888" opacity="0.5">MCU</text>
<rect x="217.0" y="59.0" width="178.0" height="1112.0" rx="2" fill="#f5f0e8" stroke="#2a2a2a" stroke-width="1.5"/>
<ellipse cx="306.0" cy="526.0" rx="71.2" ry="500.4" fill="#c0b8a8" opacity="0.18"/>
<path d="M231.2,350.9 Q306.0,-49.4 380.8,350.9" fill="none" stroke="#c0b8a8" stroke-width="3" opacity="0.35"/>
<line x1="281.1" y1="416.0" x2="302.4" y2="414.0" stroke="#a89888" stroke-width="1.5" opacity="0.45"/>
<line x1="309.6" y1="414.0" x2="330.9" y2="416.0" stroke="#a89888" stroke-width="1.5" opacity="0.45"/>
<ellipse cx="286.1" cy="466.0" rx="8.5" ry="25.0" fill="#a89888" opacity="0.45"/>
<ellipse cx="325.9" cy="466.0" rx="8.5" ry="25.0" fill="#a89888" opacity="0.45"/>
<line x1="306.0" y1="536.0" x2="306.0" y2="616.1" stroke="#a89888" stroke-width="1.2" opacity="0.35"/>
<path d="M301.7,616.1 Q306.0,619.1 310.3,616.1" fill="none" stroke="#a89888" stroke-width="1" opacity="0.3"/>
<line x1="288.2" y1="686.2" x2="323.8" y2="686.2" stroke="#a89888" stroke-width="1.2" opacity="0.35"/>
<text x="383.0" y="75.0" text-anchor="end" font-size="12" font-weight="bold" fill="#888888" opacity="0.6">2</text>
<text x="389.0" y="1165.0" text-anchor="end" font-size="9" fill="#888888" opacity="0.5">CU</text>
<rect x="405.0" y="59.0" width="178.0" height="1112.0" rx="2" fill="#f5f0e8" stroke="#2a2a2a" stroke-width="1.5"/>
<ellipse cx="494.0" cy="526.0" rx="71.2" ry="500.4" fill="#c0b8a8" opacity="0.18"/>
<path d="M419.2,350.9 Q494.0,-49.4 568.8,350.9" fill="none" stroke="#c0b8a8" stroke-width="3" opacity="0.35"/>
<line x1="469.1" y1="416.0" x2="490.4" y2="414.0" stroke="#a89888" stroke-width="1.5" opacity="0.45"/>
<line x1="497.6" y1="414.0" x2="518.9" y2="416.0" stroke="#a89888" stroke-width="1.5" opacity="0.45"/>
<ellipse cx="474.1" cy="466.0" rx="8.5" ry="25.0" fill="#a89888" opacity="0.45"/>
<ellipse cx="513.9" cy="466.0" rx="8.5" ry="25.0" fill="#a89888" opacity="0.45"/>
<line x1="494.0" y1="536.0" x2="494.0" y2="616.1" stroke="#a89888" stroke-width="1.2" opacity="0.35"/>
<path d="M489.7,616.1 Q494.0,619.1 498.3,616.1" fill="none" stroke="#a89888" stroke-width="1" opacity="0.3"/>
<line x1="476.2" y1="686.2" x2="511.8" y2="686.2" stroke="#a89888" stroke-width="1.2" opacity="0.35"/>
<text x="571.0" y="75.0" text-anchor="end" font-size="12" font-weight="bold" fill="#888888" opacity="0.6">3</text>
<text x="577.0" y="1165.0" text-anchor="end" font-size="9" fill="#888888" opacity="0.5">ECU</text>
<rect x="593.0" y="59.0" width="178.0" height="1112.0" rx="2" fill="#f5f0e8" stroke="#2a2a2a" stroke-width="1.5"/>
<path d="M630.7,567.9 Q630.7,542.2 669.2,539.0 L694.8,539.0 Q733.3,542.2 733.3,567.9 L733.3,1037.6 L630.7,1037.6 Z" fill="#b0b0b0" opacity="0.25"/>
<path d="M670.8,539.0 L682.0,555.1 L693.2,539.0" fill="none" stroke="#b0b0b0" stroke-width="1" opacity="0.3"/>
<circle cx="682.0" cy="503.8" r="32.0" fill="#b0b0b0" opacity="0.35"/>
<path d="M650.0,510.2 Q654.8,539.0 682.0,540.6 Q709.2,539.0 714.0,510.2" fill="none" stroke="#b0b0b0" stroke-width="1.2" opacity="0.3"/>
<path d="M648.4,500.6 Q682.0,462.1 715.6,500.6" fill="none" stroke="#b0b0b0" stroke-width="2" opacity="0.4"/>
<ellipse cx="648.0" cy="505.4" rx="2.5" ry="4" fill="#b0b0b0" opacity="0.25"/>
<ellipse cx="716.0" cy="505.4" rx="2.5" ry="4" fill="#b0b0b0" opacity="0.25"/>
<rect x="599.0" y="67.0" width="62.0" height="38.0" rx="6" fill="white" stroke="#b0b0b0" stroke-width="1.0" opacity="0.92"/>
<polygon points="617.6,105.0 625.6,105.0 614.6,113.0" fill="white" stroke="#b0b0b0" stroke-width="0.8"/>
<line x1="617.1" y1="105.0" x2="626.1" y2="105.0" stroke="white" stroke-width="1.5"/>
<text x="605.0" y="83.0" font-size="10.0" fill="#b0b0b0" font-weight="700">SABLE</text>
<text x="605.0" y="96.0" font-size="10.0" fill="#333333">...damn.</text>
<text x="759.0" y="75.0" text-anchor="end" font-size="12" font-weight="bold" fill="#888888" opacity="0.6">4</text>
<text x="765.0" y="1165.0" text-anchor="end" font-size="9" fill="#888888" opacity="0.5">MCU</text>
</svg>