<svg xmlns="http://www.w3.org/2000/svg" viewBox="0 0 800 1200" width="800" height="1200" style="background:#ffffff">
<style>
  text { font-family: "Helvetica Neue", Helvetica, Arial, sans-serif; }
</style>
<text x="400.0" y="22" text-anchor="middle" font-size="16" fill="#888888" font-weight="500">PAGE 1  (6 panels)</text>
<rect x="29.0" y="59.0" width="742.0" height="364.0" rx="2" fill="#f5f0e8" stroke="#2a2a2a" stroke-width="1.5"/>
<line x1="35.0" y1="342.9" x2="765.0" y2="342.9" stroke="#a89888" stroke-width="1.0" opacity="0.5"/>
<ellipse cx="400.0" cy="344.9" rx="11.2" ry="2.7" fill="#a89888" opacity="0.2"/>
<line x1="397.3" y1="327.2" x2="393.2" y2="342.9" stroke="#b0b0b0" stroke-width="2" opacity="0.5"/>
<line x1="402.7" y1="327.2" x2="406.8" y2="342.9" stroke="#b0b0b0" stroke-width="2" opacity="0.5"/>
<line x1="400.0" y1="314.1" x2="400.0" y2="327.2" stroke="#b0b0b0" stroke-width="2.5" opacity="0.6"/>
<line x1="386.5" y1="316.1" x2="413.5" y2="316.1" stroke="#b0b0b0" stroke-width="2" opacity="0.5"/>
<line x1="386.5" y1="316.1" x2="382.0" y2="327.6" stroke="#b0b0b0" stroke-width="1.5" opacity="0.4"/>
<line x1="413.5" y1="316.1" x2="418.0" y2="327.6" stroke="#b0b0b0" stroke-width="1.5" opacity="0.4"/>
<circle cx="400.0" cy="297.9" r="8.1" fill="#b0b0b0" opacity="0.6"/>
<rect x="35.0" y="67.0" width="381.1" height="40.0" rx="2" fill="#f5ecd8" stroke="#c8b898" stroke-width="0.8" opacity="0.92"/>
<text x="41.0" y="84.0" font-size="11.0" fill="#5a4a30" font-style="italic" font-weight="500">CAPTION</text>
<text x="41.0" y="98.0" font-size="11.0" fill="#5a4a30" font-style="italic">Temporal corridor seven. Inbound to convergence point C-1886.</text>
<rect x="35.0" y="111.0" width="266.1" height="40.0" rx="6" fill="white" stroke="#b0b0b0" stroke-width="1.0" opacity="0.92"/>
<polygon points="114.8,151.0 122.8,151.0 111.8,159.0" fill="white" stroke="#b0b0b0" stroke-width="0.8"/>
<line x1="114.3" y1="151.0" x2="123.3" y2="151.0" stroke="white" stroke-width="1.5"/>
<text x="41.0" y="128.0" font-size="11.0" fill="#b0b0b0" font-weight="700">SABLE</text>
<text x="41.0" y="142.0" font-size="11.0" fill="#333333">Final approach in four minutes. Kit check.</text>
<text x="759.0" y="75.0" text-anchor="end" font-size="12" font-weight="bold" fill="#888888" opacity="0.6">1</text>
<text x="765.0" y="417.0" text-anchor="end" font-size="9" fill="#888888" opacity="0.5">EST</text>
<rect x="29.0" y="433.0" width="240.7" height="364.0" rx="2" fill="#f5f0e8" stroke="#2a2a2a" stroke-width="1.5"/>
<path d="M80.0,665.2 Q80.0,630.6 132.0,626.3 L166.7,626.3 Q218.6,630.6 218.6,665.2 L218.6,753.3 L80.0,753.3 Z" fill="#b0b0b0" opacity="0.25"/>
<path d="M134.2,626.3 L149.3,647.9 L164.5,626.3" fill="none" stroke="#b0b0b0" stroke-width="1" opacity="0.3"/>
<circle cx="149.3" cy="578.6" r="43.3" fill="#b0b0b0" opacity="0.35"/>
<path d="M106.0,587.3 Q112.5,626.3 149.3,628.4 Q186.2,626.3 192.7,587.3" fill="none" stroke="#b0b0b0" stroke-width="1.2" opacity="0.3"/>
<path d="M103.8,574.3 Q149.3,522.3 194.8,574.3" fill="none" stroke="#b0b0b0" stroke-width="2" opacity="0.4"/>
<ellipse cx="104.0" cy="580.8" rx="2.5" ry="4" fill="#b0b0b0" opacity="0.25"/>
<ellipse cx="194.7" cy="580.8" rx="2.5" ry="4" fill="#b0b0b0" opacity="0.25"/>
<rect x="35.0" y="441.0" width="116.5" height="38.0" rx="6" fill="white" stroke="#b0b0b0" stroke-width="1.0" opacity="0.92"/>
<polygon points="70.0,479.0 78.0,479.0 67.0,487.0" fill="white" stroke="#b0b0b0" stroke-width="0.8"/>
<line x1="69.5" y1="479.0" x2="78.5" y2="479.0" stroke="white" stroke-width="1.5"/>
<text x="41.0" y="457.0" font-size="10.0" fill="#b0b0b0" font-weight="700">SABLE</text>
<text x="41.0" y="470.0" font-size="10.0" fill="#333333">Wren, drive status.</text>
<text x="257.7" y="449.0" text-anchor="end" font-size="12" font-weight="bold" fill="#888888" opacity="0.6">2</text>
<text x="263.7" y="791.0" text-anchor="end" font-size="9" fill="#888888" opacity="0.5">MCU</text>
<rect x="279.7" y="433.0" width="240.7" height="364.0" rx="2" fill="#f5f0e8" stroke="#2a2a2a" stroke-width="1.5"/>
<path d="M353.7,695.1 L357.9,624.9 Q362.1,620.9 387.2,620.9 L412.8,620.9 Q437.9,620.9 442.1,624.9 L446.3,695.1 Z" fill="#c87533" opacity="0.35"/>
<line x1="357.9" y1="670.5" x2="442.1" y2="670.5" stroke="#c87533" stroke-width="1" opacity="0.3"/>
<line x1="357.9" y1="624.9" x2="341.0" y2="665.9" stroke="#c87533" stroke-width="2" opacity="0.3"/>
<line x1="341.0" y1="665.9" x2="353.7" y2="690.4" stroke="#c87533" stroke-width="2" opacity="0.3"/>
<line x1="442.1" y1="624.9" x2="459.0" y2="665.9" stroke="#c87533" stroke-width="2" opacity="0.3"/>
<line x1="459.0" y1="665.9" x2="446.3" y2="690.4" stroke="#c87533" stroke-width="2" opacity="0.3"/>
<line x1="400.0" y1="563.3" x2="400.0" y2="620.9" stroke="#c87533" stroke-width="3" opacity="0.35"/>
<circle cx="400.0" cy="531.3" r="32.0" fill="#c87533" opacity="0.4"/>
<rect x="285.7" y="441.0" width="228.7" height="51.0" rx="6" fill="white" stroke="#c87533" stroke-width="1.0" opacity="0.92"/>
<polygon points="354.3,492.0 362.3,492.0 351.3,500.0" fill="white" stroke="#c87533" stroke-width="0.8"/>
<line x1="353.8" y1="492.0" x2="362.8" y2="492.0" stroke="white" stroke-width="1.5"/>
<text x="291.7" y="457.0" font-size="10.0" fill="#c87533" font-weight="700">WREN</text>
<text x="291.7" y="470.0" font-size="10.0" fill="#333333">Drive nominal. Ninety-seven percent field</text>
<text x="291.7" y="483.0" font-size="10.0" fill="#333333">coherence. We're clean.</text>
<text x="508.3" y="449.0" text-anchor="end" font-size="12" font-weight="bold" fill="#888888" opacity="0.6">3</text>
<text x="514.3" y="791.0" text-anchor="end" font-size="9" fill="#888888" opacity="0.5">MED</text>
<rect x="530.3" y="433.0" width="240.7" height="364.0" rx="2" fill="#f5f0e8" stroke="#2a2a2a" stroke-width="1.5"/>
<path d="M604.3,695.1 L608.6,624.9 Q612.8,620.9 637.9,620.9 L663.5,620.9 Q688.6,620.9 692.8,624.9 L697.0,695.1 Z" fill="#2e8b57" opacity="0.35"/>
<line x1="608.6" y1="670.5" x2="692.8" y2="670.5" stroke="#2e8b57" stroke-width="1" opacity="0.3"/>
<line x1="608.6" y1="624.9" x2="591.7" y2="665.9" stroke="#2e8b57" stroke-width="2" opacity="0.3"/>
<line x1="591.7" y1="665.9" x2="604.3" y2="690.4" stroke="#2e8b57" stroke-width="2" opacity="0.3"/>
<line x1="692.8" y1="624.9" x2="709.6" y2="665.9" stroke="#2e8b57" stroke-width="2" opacity="0.3"/>
<line x1="709.6" y1="665.9" x2="697.0" y2="690.4" stroke="#2e8b57" stroke-width="2" opacity="0.3"/>
<line x1="650.7" y1="563.3" x2="650.7" y2="620.9" stroke="#2e8b57" stroke-width="3" opacity="0.35"/>
<circle cx="650.7" cy="531.3" r="32.0" fill="#2e8b57" opacity="0.4"/>
<rect x="536.3" y="441.0" width="226.5" height="38.0" rx="6" fill="white" stroke="#2e8b57" stroke-width="1.0" opacity="0.92"/>
<polygon points="604.3,479.0 612.3,479.0 601.3,487.0" fill="white" stroke="#2e8b57" stroke-width="0.8"/>
<line x1="603.8" y1="479.0" x2="612.8" y2="479.0" stroke="white" stroke-width="1.5"/>
<text x="542.3" y="457.0" font-size="10.0" fill="#2e8b57" font-weight="700">JINK</text>
<text x="542.3" y="470.0" font-size="10.0" fill="#333333">How many of these have we done? Twelve?</text>
<rect x="703.0" y="489.0" width="62.0" height="38.0" rx="6" fill="white" stroke="#b0b0b0" stroke-width="1.0" opacity="0.92"/>
<polygon points="721.6,527.0 729.6,527.0 718.6,535.0" fill="white" stroke="#b0b0b0" stroke-width="0.8"/>
<line x1="721.1" y1="527.0" x2="730.1" y2="527.0" stroke="white" stroke-width="1.5"/>
<text x="709.0" y="505.0" font-size="10.0" fill="#b0b0b0" font-weight="700">SABLE</text>
<text x="709.0" y="518.0" font-size="10.0" fill="#333333">Fourteen.</text>
<rect x="536.3" y="537.0" width="149.5" height="38.0" rx="6" fill="white" stroke="#2e8b57" stroke-width="1.0" opacity="0.92"/>
<polygon points="581.2,575.0 589.2,575.0 578.2,583.0" fill="white" stroke="#2e8b57" stroke-width="0.8"/>
<line x1="580.7" y1="575.0" x2="589.7" y2="575.0" stroke="white" stroke-width="1.5"/>
<text x="542.3" y="553.0" font-size="10.0" fill="#2e8b57" font-weight="700">JINK</text>
<text x="542.3" y="566.0" font-size="10.0" fill="#333333">They're starting to blur.</text>
<text x="759.0" y="449.0" text-anchor="end" font-size="12" font-weight="bold" fill="#888888" opacity="0.6">4</text>
<text x="765.0" y="791.0" text-anchor="end" font-size="9" fill="#888888" opacity="0.5">MED</text>
<rect x="29.0" y="807.0" width="493.8" height="364.0" rx="2" fill="#f5f0e8" stroke="#2a2a2a" stroke-width="1.5"/>
<path d="M217.4,1069.1 L222.7,1022.6 Q228.0,1018.6 259.7,1018.6 L292.1,1018.6 Q323.8,1018.6 329.2,1022.6 L334.5,1069.1 Z" fill="#b22222" opacity="0.35"/>
<line x1="222.7" y1="1044.5" x2="329.2" y2="1044.5" stroke="#b22222" stroke-width="1" opacity="0.3"/>
<line x1="222.7" y1="1022.6" x2="201.4" y2="1063.5" stroke="#b22222" stroke-width="2" opacity="0.3"/>
<line x1="201.4" y1="1063.5" x2="217.4" y2="1088.1" stroke="#b22222" stroke-width="2" opacity="0.3"/>
<line x1="329.2" y1="1022.6" x2="350.4" y2="1063.5" stroke="#b22222" stroke-width="2" opacity="0.3"/>
<line x1="350.4" y1="1063.5" x2="334.5" y2="1088.1" stroke="#b22222" stroke-width="2" opacity="0.3"/>
<line x1="275.9" y1="945.7" x2="275.9" y2="1018.6" stroke="#b22222" stroke-width="3" opacity="0.35"/>
<circle cx="275.9" cy="905.3" r="40.5" fill="#b22222" opacity="0.4"/>
<rect x="35.0" y="815.0" width="96.7" height="40.0" rx="6" fill="white" stroke="#b22222" stroke-width="1.0" opacity="0.92"/>
<polygon points="64.0,855.0 72.0,855.0 61.0,863.0" fill="white" stroke="#b22222" stroke-width="0.8"/>
<line x1="63.5" y1="855.0" x2="72.5" y2="855.0" stroke="white" stroke-width="1.5"/>
<text x="41.0" y="832.0" font-size="11.0" fill="#b22222" font-weight="700">THRESH</text>
<text x="41.0" y="846.0" font-size="11.0" fill="#333333">Weapons green.</text>
<text x="510.8" y="823.0" text-anchor="end" font-size="12" font-weight="bold" fill="#888888" opacity="0.6">5</text>
<text x="516.8" y="1165.0" text-anchor="end" font-size="9" fill="#888888" opacity="0.5">MW</text>
<rect x="532.8" y="807.0" width="238.2" height="364.0" rx="2" fill="#f5f0e8" stroke="#2a2a2a" stroke-width="1.5"/>
<ellipse cx="651.9" cy="959.9" rx="95.3" ry="163.8" fill="#6a5acd" opacity="0.18"/>
<path d="M551.9,902.5 Q651.9,771.5 751.9,902.5" fill="none" stroke="#6a5acd" stroke-width="3" opacity="0.35"/>
<line x1="618.6" y1="923.8" x2="647.2" y2="921.8" stroke="#a89888" stroke-width="1.5" opacity="0.45"/>
<line x1="656.7" y1="921.8" x2="685.3" y2="923.8" stroke="#a89888" stroke-width="1.5" opacity="0.45"/>
<ellipse cx="625.2" cy="940.2" rx="11.4" ry="8.2" fill="#a89888" opacity="0.45"/>
<ellipse cx="678.6" cy="940.2" rx="11.4" ry="8.2" fill="#a89888" opacity="0.45"/>
<line x1="651.9" y1="963.2" x2="651.9" y2="989.4" stroke="#a89888" stroke-width="1.2" opacity="0.35"/>
<path d="M646.2,989.4 Q651.9,992.4 657.6,989.4" fill="none" stroke="#a89888" stroke-width="1" opacity="0.3"/>
<line x1="628.1" y1="1012.3" x2="675.7" y2="1012.3" stroke="#a89888" stroke-width="1.2" opacity="0.35"/>
<rect x="538.8" y="815.0" width="221.0" height="51.0" rx="6" fill="white" stroke="#6a5acd" stroke-width="1.0" opacity="0.92"/>
<polygon points="605.1,866.0 613.1,866.0 602.1,874.0" fill="white" stroke="#6a5acd" stroke-width="0.8"/>
<line x1="604.6" y1="866.0" x2="613.6" y2="866.0" stroke="white" stroke-width="1.5"/>
<text x="544.8" y="831.0" font-size="10.0" fill="#6a5acd" font-weight="700">LUMA</text>
<text x="544.8" y="844.0" font-size="10.0" fill="#333333">The convergence data is extraordinary.</text>
<text x="544.8" y="857.0" font-size="10.0" fill="#333333">The temporal density at this node...</text>
<rect x="593.5" y="876.0" width="171.5" height="38.0" rx="6" fill="white" stroke="#b0b0b0" stroke-width="1.0" opacity="0.92"/>
<polygon points="645.0,914.0 653.0,914.0 642.0,922.0" fill="white" stroke="#b0b0b0" stroke-width="0.8"/>
<line x1="644.5" y1="914.0" x2="653.5" y2="914.0" stroke="white" stroke-width="1.5"/>
<text x="599.5" y="892.0" font-size="10.0" fill="#b0b0b0" font-weight="700">SABLE</text>
<text x="599.5" y="905.0" font-size="10.0" fill="#333333">Save it for the report, Luma.</text>
<rect x="538.8" y="924.0" width="62.0" height="38.0" rx="6" fill="white" stroke="#6a5acd" stroke-width="1.0" opacity="0.92"/>
<polygon points="557.4,962.0 565.4,962.0 554.4,970.0" fill="white" stroke="#6a5acd" stroke-width="0.8"/>
<line x1="556.9" y1="962.0" x2="565.9" y2="962.0" stroke="white" stroke-width="1.5"/>
<text x="544.8" y="940.0" font-size="10.0" fill="#6a5acd" font-weight="700">LUMA</text>
<text x="544.8" y="953.0" font-size="10.0" fill="#333333">...right.</text>
<text x="759.0" y="823.0" text-anchor="end" font-size="12" font-weight="bold" fill="#888888" opacity="0.6">6</text>
<text x="765.0" y="1165.0" text-anchor="end" font-size="9" fill="#888888" opacity="0.5">CU</text>
</svg>