<svg xmlns="http://www.w3.org/2000/svg" viewBox="0 0 800 1200" width="800" height="1200" style="background:#ffffff">
<style>
  text { font-family: "Helvetica Neue", Helvetica, Arial, sans-serif; }
</style>
<text x="400.0" y="22" text-anchor="middle" font-size="16" fill="#888888" font-weight="500">PAGE 20  (4 panels)</text>
<rect x="29.0" y="59.0" width="742.0" height="248.9" rx="2" fill="#f5f0e8" stroke="#2a2a2a" stroke-width="1.5"/>
<line x1="35.0" y1="253.2" x2="765.0" y2="253.2" stroke="#a89888" stroke-width="1.0" opacity="0.5"/>
<ellipse cx="214.5" cy="255.2" rx="11.2" ry="2.7" fill="#a89888" opacity="0.2"/>
<line x1="211.8" y1="237.5" x2="207.8" y2="253.2" stroke="#c0b8a8" stroke-width="2" opacity="0.5"/>
<line x1="217.2" y1="237.5" x2="221.2" y2="253.2" stroke="#c0b8a8" stroke-width="2" opacity="0.5"/>
<line x1="214.5" y1="224.5" x2="214.5" y2="237.5" stroke="#c0b8a8" stroke-width="2.5" opacity="0.6"/>
<line x1="201.1" y1="226.5" x2="227.9" y2="226.5" stroke="#c0b8a8" stroke-width="2" opacity="0.5"/>
<line x1="201.1" y1="226.5" x2="196.6" y2="237.9" stroke="#c0b8a8" stroke-width="1.5" opacity="0.4"/>
<line x1="227.9" y1="226.5" x2="232.4" y2="237.9" stroke="#c0b8a8" stroke-width="1.5" opacity="0.4"/>
<circle cx="214.5" cy="208.4" r="8.1" fill="#c0b8a8" opacity="0.6"/>
<ellipse cx="400.0" cy="255.2" rx="11.2" ry="2.7" fill="#a89888" opacity="0.2"/>
<line x1="397.3" y1="237.5" x2="393.3" y2="253.2" stroke="#c0b8a8" stroke-width="2" opacity="0.5"/>
<line x1="402.7" y1="237.5" x2="406.7" y2="253.2" stroke="#c0b8a8" stroke-width="2" opacity="0.5"/>
<line x1="400.0" y1="224.5" x2="400.0" y2="237.5" stroke="#c0b8a8" stroke-width="2.5" opacity="0.6"/>
<line x1="386.6" y1="226.5" x2="413.4" y2="226.5" stroke="#c0b8a8" stroke-width="2" opacity="0.5"/>
<line x1="386.6" y1="226.5" x2="382.1" y2="237.9" stroke="#c0b8a8" stroke-width="1.5" opacity="0.4"/>
<line x1="413.4" y1="226.5" x2="417.9" y2="237.9" stroke="#c0b8a8" stroke-width="1.5" opacity="0.4"/>
<circle cx="400.0" cy="208.4" r="8.1" fill="#c0b8a8" opacity="0.6"/>
<ellipse cx="585.5" cy="255.2" rx="11.2" ry="2.7" fill="#a89888" opacity="0.2"/>
<line x1="582.8" y1="237.5" x2="578.8" y2="253.2" stroke="#c0b8a8" stroke-width="2" opacity="0.5"/>
<line x1="588.2" y1="237.5" x2="592.2" y2="253.2" stroke="#c0b8a8" stroke-width="2" opacity="0.5"/>
<line x1="585.5" y1="224.5" x2="585.5" y2="237.5" stroke="#c0b8a8" stroke-width="2.5" opacity="0.6"/>
<line x1="572.1" y1="226.5" x2="598.9" y2="226.5" stroke="#c0b8a8" stroke-width="2" opacity="0.5"/>
<line x1="572.1" y1="226.5" x2="567.6" y2="237.9" stroke="#c0b8a8" stroke-width="1.5" opacity="0.4"/>
<line x1="598.9" y1="226.5" x2="603.4" y2="237.9" stroke="#c0b8a8" stroke-width="1.5" opacity="0.4"/>
<circle cx="585.5" cy="208.4" r="8.1" fill="#c0b8a8" opacity="0.6"/>
<rect x="35.0" y="67.0" width="393.2" height="40.0" rx="2" fill="#f5ecd8" stroke="#c8b898" stroke-width="0.8" opacity="0.92"/>
<text x="41.0" y="84.0" font-size="11.0" fill="#5a4a30" font-style="italic" font-weight="500">CAPTION</text>
<text x="41.0" y="98.0" font-size="11.0" fill="#5a4a30" font-style="italic">London. 1886. Population: four million, eight hundred thousand.</text>
<rect x="35.0" y="111.0" width="66.5" height="40.0" rx="2" fill="#f5ecd8" stroke="#c8b898" stroke-width="0.8" opacity="0.92"/>
<text x="41.0" y="128.0" font-size="11.0" fill="#5a4a30" font-style="italic" font-weight="500">CAPTION</text>
<text x="41.0" y="142.0" font-size="11.0" fill="#5a4a30" font-style="italic">And five.</text>
<text x="759.0" y="75.0" text-anchor="end" font-size="12" font-weight="bold" fill="#888888" opacity="0.6">1</text>
<text x="765.0" y="301.9" text-anchor="end" font-size="9" fill="#888888" opacity="0.5">XWIDE</text>
<rect x="29.0" y="317.9" width="366.0" height="421.5" rx="2" fill="#f5f0e8" stroke="#2a2a2a" stroke-width="1.5"/>
<path d="M144.2,621.4 L150.3,566.9 Q156.5,562.9 193.3,562.9 L230.7,562.9 Q267.5,562.9 273.6,566.9 L279.8,621.4 Z" fill="#c87533" opacity="0.35"/>
<line x1="150.3" y1="593.0" x2="273.6" y2="593.0" stroke="#c87533" stroke-width="1" opacity="0.3"/>
<line x1="150.3" y1="566.9" x2="125.7" y2="614.4" stroke="#c87533" stroke-width="2" opacity="0.3"/>
<line x1="125.7" y1="614.4" x2="144.2" y2="642.8" stroke="#c87533" stroke-width="2" opacity="0.3"/>
<line x1="273.6" y1="566.9" x2="298.3" y2="614.4" stroke="#c87533" stroke-width="2" opacity="0.3"/>
<line x1="298.3" y1="614.4" x2="279.8" y2="642.8" stroke="#c87533" stroke-width="2" opacity="0.3"/>
<line x1="212.0" y1="478.6" x2="212.0" y2="562.9" stroke="#c87533" stroke-width="3" opacity="0.35"/>
<circle cx="212.0" cy="431.7" r="46.9" fill="#c87533" opacity="0.4"/>
<rect x="35.0" y="325.9" width="354.0" height="68.0" rx="6" fill="white" stroke="#c87533" stroke-width="1.0" opacity="0.92"/>
<polygon points="141.2,393.9 149.2,393.9 138.2,401.9" fill="white" stroke="#c87533" stroke-width="0.8"/>
<line x1="140.7" y1="393.9" x2="149.7" y2="393.9" stroke="white" stroke-width="1.5"/>
<text x="41.0" y="342.9" font-size="11.0" fill="#c87533" font-weight="700">WREN</text>
<text x="41.0" y="356.9" font-size="11.0" fill="#333333">Every component means a mission. Every mission means</text>
<text x="41.0" y="370.9" font-size="11.0" fill="#333333">exposure. I need time and access and luck — and those are</text>
<text x="41.0" y="384.9" font-size="11.0" fill="#333333">the three things we don't have.</text>
<rect x="50.3" y="403.9" width="338.7" height="54.0" rx="6" fill="white" stroke="#b0b0b0" stroke-width="1.0" opacity="0.92"/>
<polygon points="151.9,457.9 159.9,457.9 148.9,465.9" fill="white" stroke="#b0b0b0" stroke-width="0.8"/>
<line x1="151.4" y1="457.9" x2="160.4" y2="457.9" stroke="white" stroke-width="1.5"/>
<text x="56.3" y="420.9" font-size="11.0" fill="#b0b0b0" font-weight="700">SABLE</text>
<text x="56.3" y="434.9" font-size="11.0" fill="#333333">Make the list. Prioritize by survival impact. We start</text>
<text x="56.3" y="448.9" font-size="11.0" fill="#333333">tomorrow.</text>
<text x="383.0" y="333.9" text-anchor="end" font-size="12" font-weight="bold" fill="#888888" opacity="0.6">2</text>
<text x="389.0" y="733.5" text-anchor="end" font-size="9" fill="#888888" opacity="0.5">MED</text>
<rect x="405.0" y="317.9" width="366.0" height="421.5" rx="2" fill="#f5f0e8" stroke="#2a2a2a" stroke-width="1.5"/>
<path d="M520.2,621.4 L526.4,566.9 Q532.5,562.9 569.3,562.9 L606.7,562.9 Q643.5,562.9 649.6,566.9 L655.8,621.4 Z" fill="#6a5acd" opacity="0.35"/>
<line x1="526.4" y1="593.0" x2="649.6" y2="593.0" stroke="#6a5acd" stroke-width="1" opacity="0.3"/>
<line x1="526.4" y1="566.9" x2="501.7" y2="614.4" stroke="#6a5acd" stroke-width="2" opacity="0.3"/>
<line x1="501.7" y1="614.4" x2="520.2" y2="642.8" stroke="#6a5acd" stroke-width="2" opacity="0.3"/>
<line x1="649.6" y1="566.9" x2="674.3" y2="614.4" stroke="#6a5acd" stroke-width="2" opacity="0.3"/>
<line x1="674.3" y1="614.4" x2="655.8" y2="642.8" stroke="#6a5acd" stroke-width="2" opacity="0.3"/>
<line x1="588.0" y1="478.6" x2="588.0" y2="562.9" stroke="#6a5acd" stroke-width="3" opacity="0.35"/>
<circle cx="588.0" cy="431.7" r="46.9" fill="#6a5acd" opacity="0.4"/>
<rect x="411.0" y="325.9" width="354.0" height="54.0" rx="6" fill="white" stroke="#6a5acd" stroke-width="1.0" opacity="0.92"/>
<polygon points="517.2,379.9 525.2,379.9 514.2,387.9" fill="white" stroke="#6a5acd" stroke-width="0.8"/>
<line x1="516.7" y1="379.9" x2="525.7" y2="379.9" stroke="white" stroke-width="1.5"/>
<text x="417.0" y="342.9" font-size="11.0" fill="#6a5acd" font-weight="700">LUMA</text>
<text x="417.0" y="356.9" font-size="11.0" fill="#333333">The atmospheric composition is... actually quite good. For</text>
<text x="417.0" y="370.9" font-size="11.0" fill="#333333">a pre-filtration era.</text>
<rect x="703.0" y="389.9" width="62.0" height="40.0" rx="6" fill="white" stroke="#b22222" stroke-width="1.0" opacity="0.92"/>
<polygon points="721.6,429.9 729.6,429.9 718.6,437.9" fill="white" stroke="#b22222" stroke-width="0.8"/>
<line x1="721.1" y1="429.9" x2="730.1" y2="429.9" stroke="white" stroke-width="1.5"/>
<text x="709.0" y="406.9" font-size="11.0" fill="#b22222" font-weight="700">THRESH</text>
<text x="709.0" y="420.9" font-size="11.0" fill="#333333">Great.</text>
<text x="759.0" y="333.9" text-anchor="end" font-size="12" font-weight="bold" fill="#888888" opacity="0.6">3</text>
<text x="765.0" y="733.5" text-anchor="end" font-size="9" fill="#888888" opacity="0.5">MED</text>
<rect x="29.0" y="749.5" width="742.0" height="421.5" rx="2" fill="#f5f0e8" stroke="#2a2a2a" stroke-width="1.5"/>
<line x1="35.0" y1="1078.3" x2="765.0" y2="1078.3" stroke="#a89888" stroke-width="1.0" opacity="0.5"/>
<ellipse cx="214.5" cy="1080.3" rx="11.2" ry="2.7" fill="#a89888" opacity="0.2"/>
<line x1="211.8" y1="1062.5" x2="207.8" y2="1078.3" stroke="#c0b8a8" stroke-width="2" opacity="0.5"/>
<line x1="217.2" y1="1062.5" x2="221.2" y2="1078.3" stroke="#c0b8a8" stroke-width="2" opacity="0.5"/>
<line x1="214.5" y1="1049.5" x2="214.5" y2="1062.5" stroke="#c0b8a8" stroke-width="2.5" opacity="0.6"/>
<line x1="201.0" y1="1051.5" x2="228.0" y2="1051.5" stroke="#c0b8a8" stroke-width="2" opacity="0.5"/>
<line x1="201.0" y1="1051.5" x2="196.5" y2="1063.0" stroke="#c0b8a8" stroke-width="1.5" opacity="0.4"/>
<line x1="228.0" y1="1051.5" x2="232.5" y2="1063.0" stroke="#c0b8a8" stroke-width="1.5" opacity="0.4"/>
<circle cx="214.5" cy="1033.3" r="8.1" fill="#c0b8a8" opacity="0.6"/>
<ellipse cx="400.0" cy="1080.3" rx="11.2" ry="2.7" fill="#a89888" opacity="0.2"/>
<line x1="397.3" y1="1062.5" x2="393.2" y2="1078.3" stroke="#c0b8a8" stroke-width="2" opacity="0.5"/>
<line x1="402.7" y1="1062.5" x2="406.8" y2="1078.3" stroke="#c0b8a8" stroke-width="2" opacity="0.5"/>
<line x1="400.0" y1="1049.5" x2="400.0" y2="1062.5" stroke="#c0b8a8" stroke-width="2.5" opacity="0.6"/>
<line x1="386.5" y1="1051.5" x2="413.5" y2="1051.5" stroke="#c0b8a8" stroke-width="2" opacity="0.5"/>
<line x1="386.5" y1="1051.5" x2="382.0" y2="1063.0" stroke="#c0b8a8" stroke-width="1.5" opacity="0.4"/>
<line x1="413.5" y1="1051.5" x2="418.0" y2="1063.0" stroke="#c0b8a8" stroke-width="1.5" opacity="0.4"/>
<circle cx="400.0" cy="1033.3" r="8.1" fill="#c0b8a8" opacity="0.6"/>
<ellipse cx="585.5" cy="1080.3" rx="11.2" ry="2.7" fill="#a89888" opacity="0.2"/>
<line x1="582.8" y1="1062.5" x2="578.8" y2="1078.3" stroke="#c0b8a8" stroke-width="2" opacity="0.5"/>
<line x1="588.2" y1="1062.5" x2="592.2" y2="1078.3" stroke="#c0b8a8" stroke-width="2" opacity="0.5"/>
<line x1="585.5" y1="1049.5" x2="585.5" y2="1062.5" stroke="#c0b8a8" stroke-width="2.5" opacity="0.6"/>
<line x1="572.0" y1="1051.5" x2="599.0" y2="1051.5" stroke="#c0b8a8" stroke-width="2" opacity="0.5"/>
<line x1="572.0" y1="1051.5" x2="567.5" y2="1063.0" stroke="#c0b8a8" stroke-width="1.5" opacity="0.4"/>
<line x1="599.0" y1="1051.5" x2="603.5" y2="1063.0" stroke="#c0b8a8" stroke-width="1.5" opacity="0.4"/>
<circle cx="585.5" cy="1033.3" r="8.1" fill="#c0b8a8" opacity="0.6"/>
<rect x="35.0" y="757.5" width="593.6" height="40.0" rx="2" fill="#f5ecd8" stroke="#c8b898" stroke-width="0.8" opacity="0.92"/>
<text x="41.0" y="774.5" font-size="11.0" fill="#5a4a30" font-style="italic" font-weight="500">CAPTION</text>
<text x="41.0" y="788.5" font-size="11.0" fill="#5a4a30" font-style="italic">Thresh watches. Sable waits. The city breathes around them — vast, warm, and utterly indifferent.</text>
<text x="759.0" y="765.5" text-anchor="end" font-size="12" font-weight="bold" fill="#888888" opacity="0.6">4</text>
<text x="765.0" y="1165.0" text-anchor="end" font-size="9" fill="#888888" opacity="0.5">WIDE</text>
</svg>