<svg xmlns="http://www.w3.org/2000/svg" viewBox="0 0 800 1200" width="800" height="1200" style="background:#ffffff">
<style>
  text { font-family: "Helvetica Neue", Helvetica, Arial, sans-serif; }
</style>
<text x="400.0" y="22" text-anchor="middle" font-size="16" fill="#888888" font-weight="500">PAGE 22  (1 panels)</text>
<rect x="24.0" y="54.0" width="752.0" height="1122.0" rx="2" fill="#f5f0e8" stroke="#2a2a2a" stroke-width="1.5"/>
<line x1="30.0" y1="929.2" x2="770.0" y2="929.2" stroke="#a89888" stroke-width="1.0" opacity="0.5"/>
<ellipse cx="400.0" cy="931.2" rx="11.2" ry="2.7" fill="#a89888" opacity="0.2"/>
<line x1="397.3" y1="913.4" x2="393.2" y2="929.2" stroke="#e8dcc8" stroke-width="2" opacity="0.5"/>
<line x1="402.7" y1="913.4" x2="406.8" y2="929.2" stroke="#e8dcc8" stroke-width="2" opacity="0.5"/>
<line x1="400.0" y1="900.4" x2="400.0" y2="913.4" stroke="#e8dcc8" stroke-width="2.5" opacity="0.6"/>
<line x1="386.5" y1="902.4" x2="413.5" y2="902.4" stroke="#e8dcc8" stroke-width="2" opacity="0.5"/>
<line x1="386.5" y1="902.4" x2="382.0" y2="913.9" stroke="#e8dcc8" stroke-width="1.5" opacity="0.4"/>
<line x1="413.5" y1="902.4" x2="418.0" y2="913.9" stroke="#e8dcc8" stroke-width="1.5" opacity="0.4"/>
<circle cx="400.0" cy="884.2" r="8.1" fill="#e8dcc8" opacity="0.6"/>
<rect x="30.0" y="62.0" width="483.9" height="40.0" rx="6" fill="white" stroke="#e8dcc8" stroke-width="1.0" opacity="0.92"/>
<polygon points="175.2,102.0 183.2,102.0 172.2,110.0" fill="white" stroke="#e8dcc8" stroke-width="0.8"/>
<line x1="174.7" y1="102.0" x2="183.7" y2="102.0" stroke="white" stroke-width="1.5"/>
<text x="36.0" y="79.0" font-size="11.0" fill="#e8dcc8" font-weight="700">CAPTION</text>
<text x="36.0" y="93.0" font-size="11.0" fill="#333333">*&quot;They were soldiers from the end of time, stranded at the start of a story.&quot;*</text>
<rect x="497.8" y="112.0" width="272.2" height="40.0" rx="6" fill="white" stroke="#e8dcc8" stroke-width="1.0" opacity="0.92"/>
<polygon points="579.5,152.0 587.5,152.0 576.5,160.0" fill="white" stroke="#e8dcc8" stroke-width="0.8"/>
<line x1="579.0" y1="152.0" x2="588.0" y2="152.0" stroke="white" stroke-width="1.5"/>
<text x="503.8" y="129.0" font-size="11.0" fill="#e8dcc8" font-weight="700">CAPTION</text>
<text x="503.8" y="143.0" font-size="11.0" fill="#333333">*&quot;The city below would call them fairies.&quot;*</text>
<text x="764.0" y="70.0" text-anchor="end" font-size="12" font-weight="bold" fill="#888888" opacity="0.6">1</text>
<text x="770.0" y="1170.0" text-anchor="end" font-size="9" fill="#888888" opacity="0.5">EST</text>
</svg>