<svg xmlns="http://www.w3.org/2000/svg" viewBox="0 0 800 1200" width="800" height="1200" style="background:#ffffff">
<style>
  text { font-family: "Helvetica Neue", Helvetica, Arial, sans-serif; }
</style>
<text x="400.0" y="22" text-anchor="middle" font-size="16" fill="#888888" font-weight="500">PAGE 12  (4 panels)</text>
<rect x="29.0" y="59.0" width="742.0" height="663.2" rx="2" fill="#f5f0e8" stroke="#2a2a2a" stroke-width="1.5"/>
<line x1="37.0" y1="291.1" x2="763.0" y2="291.1" stroke="#a89888" stroke-width="0.6" opacity="0.2"/>
<line x1="400.0" y1="291.1" x2="103.2" y2="655.9" stroke="#a89888" stroke-width="0.8" opacity="0.25"/>
<line x1="400.0" y1="291.1" x2="251.6" y2="655.9" stroke="#a89888" stroke-width="0.8" opacity="0.25"/>
<line x1="400.0" y1="291.1" x2="348.1" y2="655.9" stroke="#a89888" stroke-width="0.8" opacity="0.25"/>
<line x1="400.0" y1="291.1" x2="451.9" y2="655.9" stroke="#a89888" stroke-width="0.8" opacity="0.25"/>
<line x1="400.0" y1="291.1" x2="548.4" y2="655.9" stroke="#a89888" stroke-width="0.8" opacity="0.25"/>
<line x1="400.0" y1="291.1" x2="696.8" y2="655.9" stroke="#a89888" stroke-width="0.8" opacity="0.25"/>
<circle cx="400.0" cy="291.1" r="3" fill="#a89888" opacity="0.3"/>
<rect x="35.0" y="67.0" width="62.0" height="40.0" rx="6" fill="white" stroke="#2e8b57" stroke-width="1.0" opacity="0.92"/>
<polygon points="53.6,107.0 61.6,107.0 50.6,115.0" fill="white" stroke="#2e8b57" stroke-width="0.8"/>
<line x1="53.1" y1="107.0" x2="62.1" y2="107.0" stroke="white" stroke-width="1.5"/>
<text x="41.0" y="84.0" font-size="11.0" fill="#2e8b57" font-weight="700">JINK</text>
<text x="41.0" y="98.0" font-size="11.0" fill="#333333">Captain.</text>
<rect x="626.0" y="117.0" width="139.1" height="40.0" rx="6" fill="white" stroke="#2e8b57" stroke-width="1.0" opacity="0.92"/>
<polygon points="667.7,157.0 675.7,157.0 664.7,165.0" fill="white" stroke="#2e8b57" stroke-width="0.8"/>
<line x1="667.2" y1="157.0" x2="676.2" y2="157.0" stroke="white" stroke-width="1.5"/>
<text x="632.0" y="134.0" font-size="11.0" fill="#2e8b57" font-weight="700">JINK</text>
<text x="632.0" y="148.0" font-size="11.0" fill="#333333">You need to see this.</text>
<text x="759.0" y="75.0" text-anchor="end" font-size="12" font-weight="bold" fill="#888888" opacity="0.6">1</text>
<text x="765.0" y="716.2" text-anchor="end" font-size="9" fill="#888888" opacity="0.5">POV</text>
<rect x="29.0" y="732.2" width="240.7" height="438.8" rx="2" fill="#f5f0e8" stroke="#2a2a2a" stroke-width="1.5"/>
<line x1="142.1" y1="990.0" x2="120.5" y2="1038.3" stroke="#c0b8a8" stroke-width="3" opacity="0.35"/>
<line x1="120.5" y1="1038.3" x2="134.9" y2="1074.5" stroke="#c0b8a8" stroke-width="3" opacity="0.35"/>
<line x1="156.6" y1="990.0" x2="185.4" y2="1026.2" stroke="#c0b8a8" stroke-width="3" opacity="0.35"/>
<line x1="185.4" y1="1026.2" x2="192.7" y2="1055.2" stroke="#c0b8a8" stroke-width="3" opacity="0.35"/>
<line x1="163.8" y1="875.5" x2="145.0" y2="990.0" stroke="#c0b8a8" stroke-width="3.5" opacity="0.4"/>
<circle cx="163.8" cy="833.1" r="19.3" fill="#c0b8a8" opacity="0.4"/>
<line x1="156.6" y1="911.7" x2="192.7" y2="876.6" stroke="#c0b8a8" stroke-width="2.5" opacity="0.35"/>
<line x1="156.6" y1="911.7" x2="115.6" y2="938.0" stroke="#c0b8a8" stroke-width="2.5" opacity="0.35"/>
<path d="M156.6,899.6 Q127.7,855.7 137.3,820.6" fill="none" stroke="#c0b8a8" stroke-width="1.5" opacity="0.25"/>
<path d="M156.6,899.6 Q185.4,855.7 175.8,820.6" fill="none" stroke="#c0b8a8" stroke-width="1.5" opacity="0.25"/>
<line x1="216.7" y1="872.6" x2="257.6" y2="872.6" stroke="#a89888" stroke-width="1.2" opacity="0.3"/>
<line x1="216.7" y1="916.5" x2="257.6" y2="916.5" stroke="#a89888" stroke-width="1.2" opacity="0.3"/>
<line x1="216.7" y1="960.4" x2="257.6" y2="960.4" stroke="#a89888" stroke-width="1.2" opacity="0.3"/>
<line x1="216.7" y1="1004.3" x2="257.6" y2="1004.3" stroke="#a89888" stroke-width="1.2" opacity="0.3"/>
<line x1="41.0" y1="820.0" x2="72.3" y2="820.0" stroke="#a89888" stroke-width="1" opacity="0.2"/>
<line x1="41.0" y1="885.8" x2="72.3" y2="885.8" stroke="#a89888" stroke-width="1" opacity="0.2"/>
<line x1="41.0" y1="1017.4" x2="72.3" y2="1017.4" stroke="#a89888" stroke-width="1" opacity="0.2"/>
<line x1="41.0" y1="1083.2" x2="72.3" y2="1083.2" stroke="#a89888" stroke-width="1" opacity="0.2"/>
<text x="257.7" y="748.2" text-anchor="end" font-size="12" font-weight="bold" fill="#888888" opacity="0.6">2</text>
<text x="263.7" y="1165.0" text-anchor="end" font-size="9" fill="#888888" opacity="0.5">DYN</text>
<rect x="279.7" y="732.2" width="240.7" height="438.8" rx="2" fill="#f5f0e8" stroke="#2a2a2a" stroke-width="1.5"/>
<line x1="285.7" y1="1074.5" x2="514.3" y2="1074.5" stroke="#a89888" stroke-width="1.0" opacity="0.5"/>
<ellipse cx="400.0" cy="1076.5" rx="11.2" ry="2.7" fill="#a89888" opacity="0.2"/>
<line x1="397.3" y1="1058.7" x2="393.2" y2="1074.5" stroke="#2e8b57" stroke-width="2" opacity="0.5"/>
<line x1="402.7" y1="1058.7" x2="406.8" y2="1074.5" stroke="#2e8b57" stroke-width="2" opacity="0.5"/>
<line x1="400.0" y1="1045.7" x2="400.0" y2="1058.7" stroke="#2e8b57" stroke-width="2.5" opacity="0.6"/>
<line x1="386.5" y1="1047.7" x2="413.5" y2="1047.7" stroke="#2e8b57" stroke-width="2" opacity="0.5"/>
<line x1="386.5" y1="1047.7" x2="382.0" y2="1059.2" stroke="#2e8b57" stroke-width="1.5" opacity="0.4"/>
<line x1="413.5" y1="1047.7" x2="418.0" y2="1059.2" stroke="#2e8b57" stroke-width="1.5" opacity="0.4"/>
<circle cx="400.0" cy="1029.5" r="8.1" fill="#2e8b57" opacity="0.6"/>
<rect x="285.7" y="740.2" width="226.5" height="90.0" rx="6" fill="white" stroke="#2e8b57" stroke-width="1.0" opacity="0.92"/>
<polygon points="353.6,830.2 361.6,830.2 350.6,838.2" fill="white" stroke="#2e8b57" stroke-width="0.8"/>
<line x1="353.1" y1="830.2" x2="362.1" y2="830.2" stroke="white" stroke-width="1.5"/>
<text x="291.7" y="756.2" font-size="10.0" fill="#2e8b57" font-weight="700">JINK</text>
<text x="291.7" y="769.2" font-size="10.0" fill="#333333">I can see our position. We're on a</text>
<text x="291.7" y="782.2" font-size="10.0" fill="#333333">rooftop near... there's a church to the</text>
<text x="291.7" y="795.2" font-size="10.0" fill="#333333">southeast. Big river to the south. The</text>
<text x="291.7" y="808.2" font-size="10.0" fill="#333333">wreckage trail runs along the gutter</text>
<text x="291.7" y="821.2" font-size="10.0" fill="#333333">about forty meters -- uh, at our scale.</text>
<text x="508.3" y="748.2" text-anchor="end" font-size="12" font-weight="bold" fill="#888888" opacity="0.6">3</text>
<text x="514.3" y="1165.0" text-anchor="end" font-size="9" fill="#888888" opacity="0.5">WIDE</text>
<rect x="530.3" y="732.2" width="240.7" height="438.8" rx="2" fill="#f5f0e8" stroke="#2a2a2a" stroke-width="1.5"/>
<line x1="643.4" y1="990.0" x2="621.8" y2="1038.3" stroke="#2e8b57" stroke-width="3" opacity="0.35"/>
<line x1="621.8" y1="1038.3" x2="636.2" y2="1074.5" stroke="#2e8b57" stroke-width="3" opacity="0.35"/>
<line x1="657.9" y1="990.0" x2="686.8" y2="1026.2" stroke="#2e8b57" stroke-width="3" opacity="0.35"/>
<line x1="686.8" y1="1026.2" x2="694.0" y2="1055.2" stroke="#2e8b57" stroke-width="3" opacity="0.35"/>
<line x1="665.1" y1="875.5" x2="646.3" y2="990.0" stroke="#2e8b57" stroke-width="3.5" opacity="0.4"/>
<circle cx="665.1" cy="833.1" r="19.3" fill="#2e8b57" opacity="0.4"/>
<line x1="657.9" y1="911.7" x2="694.0" y2="876.6" stroke="#2e8b57" stroke-width="2.5" opacity="0.35"/>
<line x1="657.9" y1="911.7" x2="617.0" y2="938.0" stroke="#2e8b57" stroke-width="2.5" opacity="0.35"/>
<path d="M657.9,899.6 Q629.0,855.7 638.6,820.6" fill="none" stroke="#2e8b57" stroke-width="1.5" opacity="0.25"/>
<path d="M657.9,899.6 Q686.8,855.7 677.1,820.6" fill="none" stroke="#2e8b57" stroke-width="1.5" opacity="0.25"/>
<line x1="718.1" y1="872.6" x2="759.0" y2="872.6" stroke="#a89888" stroke-width="1.2" opacity="0.3"/>
<line x1="718.1" y1="916.5" x2="759.0" y2="916.5" stroke="#a89888" stroke-width="1.2" opacity="0.3"/>
<line x1="718.1" y1="960.4" x2="759.0" y2="960.4" stroke="#a89888" stroke-width="1.2" opacity="0.3"/>
<line x1="718.1" y1="1004.3" x2="759.0" y2="1004.3" stroke="#a89888" stroke-width="1.2" opacity="0.3"/>
<line x1="542.4" y1="820.0" x2="573.7" y2="820.0" stroke="#a89888" stroke-width="1" opacity="0.2"/>
<line x1="542.4" y1="885.8" x2="573.7" y2="885.8" stroke="#a89888" stroke-width="1" opacity="0.2"/>
<line x1="542.4" y1="1017.4" x2="573.7" y2="1017.4" stroke="#a89888" stroke-width="1" opacity="0.2"/>
<line x1="542.4" y1="1083.2" x2="573.7" y2="1083.2" stroke="#a89888" stroke-width="1" opacity="0.2"/>
<rect x="536.3" y="740.2" width="155.0" height="38.0" rx="6" fill="white" stroke="#2e8b57" stroke-width="1.0" opacity="0.92"/>
<polygon points="582.8,778.2 590.8,778.2 579.8,786.2" fill="white" stroke="#2e8b57" stroke-width="0.8"/>
<line x1="582.3" y1="778.2" x2="591.3" y2="778.2" stroke="white" stroke-width="1.5"/>
<text x="542.3" y="756.2" font-size="10.0" fill="#2e8b57" font-weight="700">JINK</text>
<text x="542.3" y="769.2" font-size="10.0" fill="#333333">Sable. It goes on forever.</text>
<text x="759.0" y="748.2" text-anchor="end" font-size="12" font-weight="bold" fill="#888888" opacity="0.6">4</text>
<text x="765.0" y="1165.0" text-anchor="end" font-size="9" fill="#888888" opacity="0.5">DYN</text>
</svg>