<svg xmlns="http://www.w3.org/2000/svg" viewBox="0 0 800 1200" width="800" height="1200" style="background:#ffffff">
<style>
  text { font-family: "Helvetica Neue", Helvetica, Arial, sans-serif; }
</style>
<text x="400.0" y="22" text-anchor="middle" font-size="16" fill="#888888" font-weight="500">PAGE 7  (5 panels)</text>
<rect x="29.0" y="59.0" width="742.0" height="248.9" rx="2" fill="#f5f0e8" stroke="#2a2a2a" stroke-width="1.5"/>
<line x1="35.0" y1="253.2" x2="765.0" y2="253.2" stroke="#a89888" stroke-width="1.0" opacity="0.5"/>
<ellipse cx="214.5" cy="255.2" rx="11.2" ry="2.7" fill="#a89888" opacity="0.2"/>
<line x1="211.8" y1="237.5" x2="207.8" y2="253.2" stroke="#c0b8a8" stroke-width="2" opacity="0.5"/>
<line x1="217.2" y1="237.5" x2="221.2" y2="253.2" stroke="#c0b8a8" stroke-width="2" opacity="0.5"/>
<line x1="214.5" y1="224.5" x2="214.5" y2="237.5" stroke="#c0b8a8" stroke-width="2.5" opacity="0.6"/>
<line x1="201.1" y1="226.5" x2="227.9" y2="226.5" stroke="#c0b8a8" stroke-width="2" opacity="0.5"/>
<line x1="201.1" y1="226.5" x2="196.6" y2="237.9" stroke="#c0b8a8" stroke-width="1.5" opacity="0.4"/>
<line x1="227.9" y1="226.5" x2="232.4" y2="237.9" stroke="#c0b8a8" stroke-width="1.5" opacity="0.4"/>
<circle cx="214.5" cy="208.4" r="8.1" fill="#c0b8a8" opacity="0.6"/>
<ellipse cx="400.0" cy="255.2" rx="11.2" ry="2.7" fill="#a89888" opacity="0.2"/>
<line x1="397.3" y1="237.5" x2="393.3" y2="253.2" stroke="#c0b8a8" stroke-width="2" opacity="0.5"/>
<line x1="402.7" y1="237.5" x2="406.7" y2="253.2" stroke="#c0b8a8" stroke-width="2" opacity="0.5"/>
<line x1="400.0" y1="224.5" x2="400.0" y2="237.5" stroke="#c0b8a8" stroke-width="2.5" opacity="0.6"/>
<line x1="386.6" y1="226.5" x2="413.4" y2="226.5" stroke="#c0b8a8" stroke-width="2" opacity="0.5"/>
<line x1="386.6" y1="226.5" x2="382.1" y2="237.9" stroke="#c0b8a8" stroke-width="1.5" opacity="0.4"/>
<line x1="413.4" y1="226.5" x2="417.9" y2="237.9" stroke="#c0b8a8" stroke-width="1.5" opacity="0.4"/>
<circle cx="400.0" cy="208.4" r="8.1" fill="#c0b8a8" opacity="0.6"/>
<ellipse cx="585.5" cy="255.2" rx="11.2" ry="2.7" fill="#a89888" opacity="0.2"/>
<line x1="582.8" y1="237.5" x2="578.8" y2="253.2" stroke="#c0b8a8" stroke-width="2" opacity="0.5"/>
<line x1="588.2" y1="237.5" x2="592.2" y2="253.2" stroke="#c0b8a8" stroke-width="2" opacity="0.5"/>
<line x1="585.5" y1="224.5" x2="585.5" y2="237.5" stroke="#c0b8a8" stroke-width="2.5" opacity="0.6"/>
<line x1="572.1" y1="226.5" x2="598.9" y2="226.5" stroke="#c0b8a8" stroke-width="2" opacity="0.5"/>
<line x1="572.1" y1="226.5" x2="567.6" y2="237.9" stroke="#c0b8a8" stroke-width="1.5" opacity="0.4"/>
<line x1="598.9" y1="226.5" x2="603.4" y2="237.9" stroke="#c0b8a8" stroke-width="1.5" opacity="0.4"/>
<circle cx="585.5" cy="208.4" r="8.1" fill="#c0b8a8" opacity="0.6"/>
<rect x="35.0" y="67.0" width="133.0" height="40.0" rx="2" fill="#f5ecd8" stroke="#c8b898" stroke-width="0.8" opacity="0.92"/>
<text x="41.0" y="84.0" font-size="11.0" fill="#5a4a30" font-style="italic" font-weight="500">CAPTION</text>
<text x="41.0" y="98.0" font-size="11.0" fill="#5a4a30" font-style="italic">No caption. Silence.</text>
<text x="759.0" y="75.0" text-anchor="end" font-size="12" font-weight="bold" fill="#888888" opacity="0.6">1</text>
<text x="765.0" y="301.9" text-anchor="end" font-size="9" fill="#888888" opacity="0.5">EST</text>
<rect x="29.0" y="317.9" width="178.0" height="421.5" rx="2" fill="#f5f0e8" stroke="#2a2a2a" stroke-width="1.5"/>
<ellipse cx="118.0" cy="495.0" rx="71.2" ry="189.7" fill="#c0b8a8" opacity="0.18"/>
<path d="M43.2,428.6 Q118.0,276.8 192.8,428.6" fill="none" stroke="#c0b8a8" stroke-width="3" opacity="0.35"/>
<line x1="93.1" y1="453.2" x2="114.4" y2="451.2" stroke="#a89888" stroke-width="1.5" opacity="0.45"/>
<line x1="121.6" y1="451.2" x2="142.9" y2="453.2" stroke="#a89888" stroke-width="1.5" opacity="0.45"/>
<ellipse cx="98.1" cy="472.2" rx="8.5" ry="9.5" fill="#a89888" opacity="0.45"/>
<ellipse cx="137.9" cy="472.2" rx="8.5" ry="9.5" fill="#a89888" opacity="0.45"/>
<line x1="118.0" y1="498.8" x2="118.0" y2="529.1" stroke="#a89888" stroke-width="1.2" opacity="0.35"/>
<path d="M113.7,529.1 Q118.0,532.1 122.3,529.1" fill="none" stroke="#a89888" stroke-width="1" opacity="0.3"/>
<line x1="100.2" y1="555.7" x2="135.8" y2="555.7" stroke="#a89888" stroke-width="1.2" opacity="0.35"/>
<text x="195.0" y="333.9" text-anchor="end" font-size="12" font-weight="bold" fill="#888888" opacity="0.6">2</text>
<text x="201.0" y="733.5" text-anchor="end" font-size="9" fill="#888888" opacity="0.5">ECU</text>
<rect x="217.0" y="317.9" width="366.0" height="421.5" rx="2" fill="#f5f0e8" stroke="#2a2a2a" stroke-width="1.5"/>
<path d="M332.2,621.4 L338.4,566.9 Q344.5,562.9 381.3,562.9 L418.7,562.9 Q455.5,562.9 461.6,566.9 L467.8,621.4 Z" fill="#b0b0b0" opacity="0.35"/>
<line x1="338.4" y1="593.0" x2="461.6" y2="593.0" stroke="#b0b0b0" stroke-width="1" opacity="0.3"/>
<line x1="338.4" y1="566.9" x2="313.7" y2="614.4" stroke="#b0b0b0" stroke-width="2" opacity="0.3"/>
<line x1="313.7" y1="614.4" x2="332.2" y2="642.8" stroke="#b0b0b0" stroke-width="2" opacity="0.3"/>
<line x1="461.6" y1="566.9" x2="486.3" y2="614.4" stroke="#b0b0b0" stroke-width="2" opacity="0.3"/>
<line x1="486.3" y1="614.4" x2="467.8" y2="642.8" stroke="#b0b0b0" stroke-width="2" opacity="0.3"/>
<line x1="400.0" y1="478.6" x2="400.0" y2="562.9" stroke="#b0b0b0" stroke-width="3" opacity="0.35"/>
<circle cx="400.0" cy="431.7" r="46.9" fill="#b0b0b0" opacity="0.4"/>
<rect x="223.0" y="325.9" width="72.5" height="40.0" rx="6" fill="white" stroke="#b0b0b0" stroke-width="1.0" opacity="0.92"/>
<polygon points="244.8,365.9 252.8,365.9 241.8,373.9" fill="white" stroke="#b0b0b0" stroke-width="0.8"/>
<line x1="244.2" y1="365.9" x2="253.2" y2="365.9" stroke="white" stroke-width="1.5"/>
<text x="229.0" y="342.9" font-size="11.0" fill="#b0b0b0" font-weight="700">SABLE</text>
<text x="229.0" y="356.9" font-size="11.0" fill="#333333">...status.</text>
<text x="571.0" y="333.9" text-anchor="end" font-size="12" font-weight="bold" fill="#888888" opacity="0.6">3</text>
<text x="577.0" y="733.5" text-anchor="end" font-size="9" fill="#888888" opacity="0.5">MED</text>
<rect x="593.0" y="317.9" width="178.0" height="421.5" rx="2" fill="#f5f0e8" stroke="#2a2a2a" stroke-width="1.5"/>
<ellipse cx="682.0" cy="495.0" rx="71.2" ry="189.7" fill="#b0b0b0" opacity="0.18"/>
<path d="M607.2,428.6 Q682.0,276.8 756.8,428.6" fill="none" stroke="#b0b0b0" stroke-width="3" opacity="0.35"/>
<line x1="657.1" y1="453.2" x2="678.4" y2="451.2" stroke="#a89888" stroke-width="1.5" opacity="0.45"/>
<line x1="685.6" y1="451.2" x2="706.9" y2="453.2" stroke="#a89888" stroke-width="1.5" opacity="0.45"/>
<ellipse cx="662.1" cy="472.2" rx="8.5" ry="9.5" fill="#a89888" opacity="0.45"/>
<ellipse cx="701.9" cy="472.2" rx="8.5" ry="9.5" fill="#a89888" opacity="0.45"/>
<line x1="682.0" y1="498.8" x2="682.0" y2="529.1" stroke="#a89888" stroke-width="1.2" opacity="0.35"/>
<path d="M677.7,529.1 Q682.0,532.1 686.3,529.1" fill="none" stroke="#a89888" stroke-width="1" opacity="0.3"/>
<line x1="664.2" y1="555.7" x2="699.8" y2="555.7" stroke="#a89888" stroke-width="1.2" opacity="0.35"/>
<rect x="599.0" y="325.9" width="67.0" height="38.0" rx="6" fill="white" stroke="#b0b0b0" stroke-width="1.0" opacity="0.92"/>
<polygon points="619.1,363.9 627.1,363.9 616.1,371.9" fill="white" stroke="#b0b0b0" stroke-width="0.8"/>
<line x1="618.6" y1="363.9" x2="627.6" y2="363.9" stroke="white" stroke-width="1.5"/>
<text x="605.0" y="341.9" font-size="10.0" fill="#b0b0b0" font-weight="700">SABLE</text>
<text x="605.0" y="354.9" font-size="10.0" fill="#333333">Sound off.</text>
<text x="759.0" y="333.9" text-anchor="end" font-size="12" font-weight="bold" fill="#888888" opacity="0.6">4</text>
<text x="765.0" y="733.5" text-anchor="end" font-size="9" fill="#888888" opacity="0.5">CU</text>
<rect x="29.0" y="749.5" width="742.0" height="421.5" rx="2" fill="#f5f0e8" stroke="#2a2a2a" stroke-width="1.5"/>
<line x1="35.0" y1="1078.3" x2="765.0" y2="1078.3" stroke="#a89888" stroke-width="1.0" opacity="0.5"/>
<ellipse cx="214.5" cy="1080.3" rx="11.2" ry="2.7" fill="#a89888" opacity="0.2"/>
<line x1="211.8" y1="1062.5" x2="207.8" y2="1078.3" stroke="#c87533" stroke-width="2" opacity="0.5"/>
<line x1="217.2" y1="1062.5" x2="221.2" y2="1078.3" stroke="#c87533" stroke-width="2" opacity="0.5"/>
<line x1="214.5" y1="1049.5" x2="214.5" y2="1062.5" stroke="#c87533" stroke-width="2.5" opacity="0.6"/>
<line x1="201.0" y1="1051.5" x2="228.0" y2="1051.5" stroke="#c87533" stroke-width="2" opacity="0.5"/>
<line x1="201.0" y1="1051.5" x2="196.5" y2="1063.0" stroke="#c87533" stroke-width="1.5" opacity="0.4"/>
<line x1="228.0" y1="1051.5" x2="232.5" y2="1063.0" stroke="#c87533" stroke-width="1.5" opacity="0.4"/>
<circle cx="214.5" cy="1033.3" r="8.1" fill="#c87533" opacity="0.6"/>
<ellipse cx="400.0" cy="1080.3" rx="11.2" ry="2.7" fill="#a89888" opacity="0.2"/>
<line x1="397.3" y1="1062.5" x2="393.2" y2="1078.3" stroke="#b22222" stroke-width="2" opacity="0.5"/>
<line x1="402.7" y1="1062.5" x2="406.8" y2="1078.3" stroke="#b22222" stroke-width="2" opacity="0.5"/>
<line x1="400.0" y1="1049.5" x2="400.0" y2="1062.5" stroke="#b22222" stroke-width="2.5" opacity="0.6"/>
<line x1="386.5" y1="1051.5" x2="413.5" y2="1051.5" stroke="#b22222" stroke-width="2" opacity="0.5"/>
<line x1="386.5" y1="1051.5" x2="382.0" y2="1063.0" stroke="#b22222" stroke-width="1.5" opacity="0.4"/>
<line x1="413.5" y1="1051.5" x2="418.0" y2="1063.0" stroke="#b22222" stroke-width="1.5" opacity="0.4"/>
<circle cx="400.0" cy="1033.3" r="8.1" fill="#b22222" opacity="0.6"/>
<ellipse cx="585.5" cy="1080.3" rx="11.2" ry="2.7" fill="#a89888" opacity="0.2"/>
<line x1="582.8" y1="1062.5" x2="578.8" y2="1078.3" stroke="#2e8b57" stroke-width="2" opacity="0.5"/>
<line x1="588.2" y1="1062.5" x2="592.2" y2="1078.3" stroke="#2e8b57" stroke-width="2" opacity="0.5"/>
<line x1="585.5" y1="1049.5" x2="585.5" y2="1062.5" stroke="#2e8b57" stroke-width="2.5" opacity="0.6"/>
<line x1="572.0" y1="1051.5" x2="599.0" y2="1051.5" stroke="#2e8b57" stroke-width="2" opacity="0.5"/>
<line x1="572.0" y1="1051.5" x2="567.5" y2="1063.0" stroke="#2e8b57" stroke-width="1.5" opacity="0.4"/>
<line x1="599.0" y1="1051.5" x2="603.5" y2="1063.0" stroke="#2e8b57" stroke-width="1.5" opacity="0.4"/>
<circle cx="585.5" cy="1033.3" r="8.1" fill="#2e8b57" opacity="0.6"/>
<rect x="35.0" y="757.5" width="62.0" height="40.0" rx="6" fill="white" stroke="#c87533" stroke-width="1.0" opacity="0.92"/>
<polygon points="53.6,797.5 61.6,797.5 50.6,805.5" fill="white" stroke="#c87533" stroke-width="0.8"/>
<line x1="53.1" y1="797.5" x2="62.1" y2="797.5" stroke="white" stroke-width="1.5"/>
<text x="41.0" y="774.5" font-size="11.0" fill="#c87533" font-weight="700">WREN</text>
<text x="41.0" y="788.5" font-size="11.0" fill="#333333">Here.</text>
<rect x="703.0" y="807.5" width="62.0" height="40.0" rx="6" fill="white" stroke="#b22222" stroke-width="1.0" opacity="0.92"/>
<polygon points="721.6,847.5 729.6,847.5 718.6,855.5" fill="white" stroke="#b22222" stroke-width="0.8"/>
<line x1="721.1" y1="847.5" x2="730.1" y2="847.5" stroke="white" stroke-width="1.5"/>
<text x="709.0" y="824.5" font-size="11.0" fill="#b22222" font-weight="700">THRESH</text>
<text x="709.0" y="838.5" font-size="11.0" fill="#333333">...here.</text>
<rect x="35.0" y="857.5" width="84.6" height="40.0" rx="6" fill="white" stroke="#2e8b57" stroke-width="1.0" opacity="0.92"/>
<polygon points="60.4,897.5 68.4,897.5 57.4,905.5" fill="white" stroke="#2e8b57" stroke-width="0.8"/>
<line x1="59.9" y1="897.5" x2="68.9" y2="897.5" stroke="white" stroke-width="1.5"/>
<text x="41.0" y="874.5" font-size="11.0" fill="#2e8b57" font-weight="700">JINK</text>
<text x="41.0" y="888.5" font-size="11.0" fill="#333333">Present. Ow.</text>
<rect x="638.0" y="907.5" width="127.0" height="40.0" rx="6" fill="white" stroke="#6a5acd" stroke-width="1.0" opacity="0.92"/>
<polygon points="676.1,947.5 684.1,947.5 673.1,955.5" fill="white" stroke="#6a5acd" stroke-width="0.8"/>
<line x1="675.6" y1="947.5" x2="684.6" y2="947.5" stroke="white" stroke-width="1.5"/>
<text x="644.0" y="924.5" font-size="11.0" fill="#6a5acd" font-weight="700">LUMA</text>
<text x="644.0" y="938.5" font-size="11.0" fill="#333333">Here. Is everyone--</text>
<rect x="35.0" y="957.5" width="157.2" height="40.0" rx="6" fill="white" stroke="#b0b0b0" stroke-width="1.0" opacity="0.92"/>
<polygon points="82.2,997.5 90.2,997.5 79.2,1005.5" fill="white" stroke="#b0b0b0" stroke-width="0.8"/>
<line x1="81.7" y1="997.5" x2="90.7" y2="997.5" stroke="white" stroke-width="1.5"/>
<text x="41.0" y="974.5" font-size="11.0" fill="#b0b0b0" font-weight="700">SABLE</text>
<text x="41.0" y="988.5" font-size="11.0" fill="#333333">One at a time. Injuries.</text>
<text x="759.0" y="765.5" text-anchor="end" font-size="12" font-weight="bold" fill="#888888" opacity="0.6">5</text>
<text x="765.0" y="1165.0" text-anchor="end" font-size="9" fill="#888888" opacity="0.5">WIDE</text>
</svg>