<svg xmlns="http://www.w3.org/2000/svg" viewBox="0 0 800 1200" width="800" height="1200" style="background:#ffffff">
<style>
  text { font-family: "Helvetica Neue", Helvetica, Arial, sans-serif; }
</style>
<text x="400.0" y="22" text-anchor="middle" font-size="16" fill="#888888" font-weight="500">PAGE 11  (5 panels)</text>
<rect x="29.0" y="59.0" width="742.0" height="364.0" rx="2" fill="#f5f0e8" stroke="#2a2a2a" stroke-width="1.5"/>
<path d="M341.4,321.1 L346.8,274.6 Q352.1,270.6 383.8,270.6 L416.2,270.6 Q447.9,270.6 453.2,274.6 L458.6,321.1 Z" fill="#2e8b57" opacity="0.35"/>
<line x1="346.8" y1="296.5" x2="453.2" y2="296.5" stroke="#2e8b57" stroke-width="1" opacity="0.3"/>
<line x1="346.8" y1="274.6" x2="325.5" y2="315.5" stroke="#2e8b57" stroke-width="2" opacity="0.3"/>
<line x1="325.5" y1="315.5" x2="341.4" y2="340.1" stroke="#2e8b57" stroke-width="2" opacity="0.3"/>
<line x1="453.2" y1="274.6" x2="474.5" y2="315.5" stroke="#2e8b57" stroke-width="2" opacity="0.3"/>
<line x1="474.5" y1="315.5" x2="458.6" y2="340.1" stroke="#2e8b57" stroke-width="2" opacity="0.3"/>
<line x1="400.0" y1="197.7" x2="400.0" y2="270.6" stroke="#2e8b57" stroke-width="3" opacity="0.35"/>
<circle cx="400.0" cy="157.3" r="40.5" fill="#2e8b57" opacity="0.4"/>
<rect x="35.0" y="67.0" width="562.6" height="40.0" rx="6" fill="white" stroke="#2e8b57" stroke-width="1.0" opacity="0.92"/>
<polygon points="203.8,107.0 211.8,107.0 200.8,115.0" fill="white" stroke="#2e8b57" stroke-width="0.8"/>
<line x1="203.3" y1="107.0" x2="212.3" y2="107.0" stroke="white" stroke-width="1.5"/>
<text x="41.0" y="84.0" font-size="11.0" fill="#2e8b57" font-weight="700">JINK</text>
<text x="41.0" y="98.0" font-size="11.0" fill="#333333">Wing-pack's intact. Primary lattice reads green. Secondary's at eighty percent but flyable.</text>
<rect x="184.3" y="117.0" width="580.7" height="40.0" rx="6" fill="white" stroke="#b0b0b0" stroke-width="1.0" opacity="0.92"/>
<polygon points="358.5,157.0 366.5,157.0 355.5,165.0" fill="white" stroke="#b0b0b0" stroke-width="0.8"/>
<line x1="358.0" y1="157.0" x2="367.0" y2="157.0" stroke="white" stroke-width="1.5"/>
<text x="190.3" y="134.0" font-size="11.0" fill="#b0b0b0" font-weight="700">SABLE</text>
<text x="190.3" y="148.0" font-size="11.0" fill="#333333">Jink. Reconnaissance only. Establish our position, identify landmarks, get back. No exploring.</text>
<rect x="35.0" y="167.0" width="62.0" height="40.0" rx="6" fill="white" stroke="#2e8b57" stroke-width="1.0" opacity="0.92"/>
<polygon points="53.6,207.0 61.6,207.0 50.6,215.0" fill="white" stroke="#2e8b57" stroke-width="0.8"/>
<line x1="53.1" y1="207.0" x2="62.1" y2="207.0" stroke="white" stroke-width="1.5"/>
<text x="41.0" y="184.0" font-size="11.0" fill="#2e8b57" font-weight="700">JINK</text>
<text x="41.0" y="198.0" font-size="11.0" fill="#333333">Copy.</text>
<text x="759.0" y="75.0" text-anchor="end" font-size="12" font-weight="bold" fill="#888888" opacity="0.6">1</text>
<text x="765.0" y="417.0" text-anchor="end" font-size="9" fill="#888888" opacity="0.5">MW</text>
<rect x="29.0" y="433.0" width="366.0" height="364.0" rx="2" fill="#f5f0e8" stroke="#2a2a2a" stroke-width="1.5"/>
<ellipse cx="212.0" cy="585.9" rx="114.7" ry="163.8" fill="#c0b8a8" opacity="0.18"/>
<path d="M91.6,528.5 Q212.0,397.5 332.4,528.5" fill="none" stroke="#c0b8a8" stroke-width="3" opacity="0.35"/>
<line x1="171.9" y1="549.8" x2="206.3" y2="547.8" stroke="#a89888" stroke-width="1.5" opacity="0.45"/>
<line x1="217.7" y1="547.8" x2="252.1" y2="549.8" stroke="#a89888" stroke-width="1.5" opacity="0.45"/>
<ellipse cx="179.9" cy="566.2" rx="13.8" ry="8.2" fill="#a89888" opacity="0.45"/>
<ellipse cx="244.1" cy="566.2" rx="13.8" ry="8.2" fill="#a89888" opacity="0.45"/>
<line x1="212.0" y1="589.2" x2="212.0" y2="615.4" stroke="#a89888" stroke-width="1.2" opacity="0.35"/>
<path d="M205.1,615.4 Q212.0,618.4 218.9,615.4" fill="none" stroke="#a89888" stroke-width="1" opacity="0.3"/>
<line x1="183.3" y1="638.3" x2="240.7" y2="638.3" stroke="#a89888" stroke-width="1.2" opacity="0.35"/>
<text x="383.0" y="449.0" text-anchor="end" font-size="12" font-weight="bold" fill="#888888" opacity="0.6">2</text>
<text x="389.0" y="791.0" text-anchor="end" font-size="9" fill="#888888" opacity="0.5">CU</text>
<rect x="405.0" y="433.0" width="366.0" height="364.0" rx="2" fill="#f5f0e8" stroke="#2a2a2a" stroke-width="1.5"/>
<line x1="577.0" y1="646.9" x2="544.1" y2="686.9" stroke="#2e8b57" stroke-width="3" opacity="0.35"/>
<line x1="544.1" y1="686.9" x2="566.0" y2="716.9" stroke="#2e8b57" stroke-width="3" opacity="0.35"/>
<line x1="599.0" y1="646.9" x2="642.9" y2="676.9" stroke="#2e8b57" stroke-width="3" opacity="0.35"/>
<line x1="642.9" y1="676.9" x2="653.9" y2="700.9" stroke="#2e8b57" stroke-width="3" opacity="0.35"/>
<line x1="610.0" y1="560.7" x2="581.4" y2="646.9" stroke="#2e8b57" stroke-width="3.5" opacity="0.4"/>
<circle cx="610.0" cy="516.7" r="20.0" fill="#2e8b57" opacity="0.4"/>
<line x1="599.0" y1="590.8" x2="653.9" y2="561.6" stroke="#2e8b57" stroke-width="2.5" opacity="0.35"/>
<line x1="599.0" y1="590.8" x2="536.8" y2="612.6" stroke="#2e8b57" stroke-width="2.5" opacity="0.35"/>
<path d="M599.0,580.7 Q555.1,544.3 569.7,515.2" fill="none" stroke="#2e8b57" stroke-width="1.5" opacity="0.25"/>
<path d="M599.0,580.7 Q642.9,544.3 628.3,515.2" fill="none" stroke="#2e8b57" stroke-width="1.5" opacity="0.25"/>
<line x1="690.5" y1="549.5" x2="752.7" y2="549.5" stroke="#a89888" stroke-width="1.2" opacity="0.3"/>
<line x1="690.5" y1="585.9" x2="752.7" y2="585.9" stroke="#a89888" stroke-width="1.2" opacity="0.3"/>
<line x1="690.5" y1="622.3" x2="752.7" y2="622.3" stroke="#a89888" stroke-width="1.2" opacity="0.3"/>
<line x1="690.5" y1="658.7" x2="752.7" y2="658.7" stroke="#a89888" stroke-width="1.2" opacity="0.3"/>
<line x1="423.3" y1="505.8" x2="470.9" y2="505.8" stroke="#a89888" stroke-width="1" opacity="0.2"/>
<line x1="423.3" y1="560.4" x2="470.9" y2="560.4" stroke="#a89888" stroke-width="1" opacity="0.2"/>
<line x1="423.3" y1="669.6" x2="470.9" y2="669.6" stroke="#a89888" stroke-width="1" opacity="0.2"/>
<line x1="423.3" y1="724.2" x2="470.9" y2="724.2" stroke="#a89888" stroke-width="1" opacity="0.2"/>
<rect x="411.0" y="441.0" width="62.0" height="40.0" rx="6" fill="white" stroke="#2e8b57" stroke-width="1.0" opacity="0.92"/>
<polygon points="429.6,481.0 437.6,481.0 426.6,489.0" fill="white" stroke="#2e8b57" stroke-width="0.8"/>
<line x1="429.1" y1="481.0" x2="438.1" y2="481.0" stroke="white" stroke-width="1.5"/>
<text x="417.0" y="458.0" font-size="11.0" fill="#2e8b57" font-weight="700">JINK</text>
<text x="417.0" y="472.0" font-size="11.0" fill="#333333">Oh--</text>
<text x="759.0" y="449.0" text-anchor="end" font-size="12" font-weight="bold" fill="#888888" opacity="0.6">3</text>
<text x="765.0" y="791.0" text-anchor="end" font-size="9" fill="#888888" opacity="0.5">DYN</text>
<rect x="29.0" y="807.0" width="493.8" height="364.0" rx="2" fill="#f5f0e8" stroke="#2a2a2a" stroke-width="1.5"/>
<line x1="37.0" y1="934.4" x2="514.8" y2="934.4" stroke="#a89888" stroke-width="0.6" opacity="0.2"/>
<line x1="275.9" y1="934.4" x2="78.4" y2="1134.6" stroke="#a89888" stroke-width="0.8" opacity="0.25"/>
<line x1="275.9" y1="934.4" x2="177.2" y2="1134.6" stroke="#a89888" stroke-width="0.8" opacity="0.25"/>
<line x1="275.9" y1="934.4" x2="241.4" y2="1134.6" stroke="#a89888" stroke-width="0.8" opacity="0.25"/>
<line x1="275.9" y1="934.4" x2="310.5" y2="1134.6" stroke="#a89888" stroke-width="0.8" opacity="0.25"/>
<line x1="275.9" y1="934.4" x2="374.7" y2="1134.6" stroke="#a89888" stroke-width="0.8" opacity="0.25"/>
<line x1="275.9" y1="934.4" x2="473.5" y2="1134.6" stroke="#a89888" stroke-width="0.8" opacity="0.25"/>
<circle cx="275.9" cy="934.4" r="3" fill="#a89888" opacity="0.3"/>
<rect x="35.0" y="815.0" width="381.1" height="40.0" rx="6" fill="white" stroke="#6a5acd" stroke-width="1.0" opacity="0.92"/>
<polygon points="149.3,855.0 157.3,855.0 146.3,863.0" fill="white" stroke="#6a5acd" stroke-width="0.8"/>
<line x1="148.8" y1="855.0" x2="157.8" y2="855.0" stroke="white" stroke-width="1.5"/>
<text x="41.0" y="832.0" font-size="11.0" fill="#6a5acd" font-weight="700">LUMA</text>
<text x="41.0" y="846.0" font-size="11.0" fill="#333333">Telemetry is solid. Wing efficiency at seventy-eight percent.</text>
<rect x="371.7" y="865.0" width="145.1" height="40.0" rx="6" fill="white" stroke="#b0b0b0" stroke-width="1.0" opacity="0.92"/>
<polygon points="415.3,905.0 423.3,905.0 412.3,913.0" fill="white" stroke="#b0b0b0" stroke-width="0.8"/>
<line x1="414.8" y1="905.0" x2="423.8" y2="905.0" stroke="white" stroke-width="1.5"/>
<text x="377.7" y="882.0" font-size="11.0" fill="#b0b0b0" font-weight="700">SABLE</text>
<text x="377.7" y="896.0" font-size="11.0" fill="#333333">Jink, what do you see?</text>
<text x="510.8" y="823.0" text-anchor="end" font-size="12" font-weight="bold" fill="#888888" opacity="0.6">4</text>
<text x="516.8" y="1165.0" text-anchor="end" font-size="9" fill="#888888" opacity="0.5">POV</text>
<rect x="532.8" y="807.0" width="238.2" height="364.0" rx="2" fill="#f5f0e8" stroke="#2a2a2a" stroke-width="1.5"/>
<ellipse cx="651.9" cy="959.9" rx="95.3" ry="163.8" fill="#c87533" opacity="0.18"/>
<path d="M551.9,902.5 Q651.9,771.5 751.9,902.5" fill="none" stroke="#c87533" stroke-width="3" opacity="0.35"/>
<line x1="618.6" y1="923.8" x2="647.2" y2="921.8" stroke="#a89888" stroke-width="1.5" opacity="0.45"/>
<line x1="656.7" y1="921.8" x2="685.3" y2="923.8" stroke="#a89888" stroke-width="1.5" opacity="0.45"/>
<ellipse cx="625.2" cy="940.2" rx="11.4" ry="8.2" fill="#a89888" opacity="0.45"/>
<ellipse cx="678.6" cy="940.2" rx="11.4" ry="8.2" fill="#a89888" opacity="0.45"/>
<line x1="651.9" y1="963.2" x2="651.9" y2="989.4" stroke="#a89888" stroke-width="1.2" opacity="0.35"/>
<path d="M646.2,989.4 Q651.9,992.4 657.6,989.4" fill="none" stroke="#a89888" stroke-width="1" opacity="0.3"/>
<line x1="628.1" y1="1012.3" x2="675.7" y2="1012.3" stroke="#a89888" stroke-width="1.2" opacity="0.35"/>
<rect x="538.8" y="815.0" width="226.2" height="64.0" rx="6" fill="white" stroke="#c87533" stroke-width="1.0" opacity="0.92"/>
<polygon points="606.7,879.0 614.7,879.0 603.7,887.0" fill="white" stroke="#c87533" stroke-width="0.8"/>
<line x1="606.2" y1="879.0" x2="615.2" y2="879.0" stroke="white" stroke-width="1.5"/>
<text x="544.8" y="831.0" font-size="10.0" fill="#c87533" font-weight="700">WREN</text>
<text x="544.8" y="844.0" font-size="10.0" fill="#333333">Drive coupling... sheared clean. Housing</text>
<text x="544.8" y="857.0" font-size="10.0" fill="#333333">fractured at three points. The</text>
<text x="544.8" y="870.0" font-size="10.0" fill="#333333">containment ring...</text>
<text x="759.0" y="823.0" text-anchor="end" font-size="12" font-weight="bold" fill="#888888" opacity="0.6">5</text>
<text x="765.0" y="1165.0" text-anchor="end" font-size="9" fill="#888888" opacity="0.5">ECU</text>
</svg>