<svg xmlns="http://www.w3.org/2000/svg" viewBox="0 0 800 1200" width="800" height="1200" style="background:#ffffff">
<style>
  text { font-family: "Helvetica Neue", Helvetica, Arial, sans-serif; }
</style>
<text x="400.0" y="22" text-anchor="middle" font-size="16" fill="#888888" font-weight="500">PAGE 8  (5 panels)</text>
<rect x="29.0" y="59.0" width="493.8" height="364.0" rx="2" fill="#f5f0e8" stroke="#2a2a2a" stroke-width="1.5"/>
<path d="M217.4,321.1 L222.7,274.6 Q228.0,270.6 259.7,270.6 L292.1,270.6 Q323.8,270.6 329.2,274.6 L334.5,321.1 Z" fill="#b0b0b0" opacity="0.35"/>
<line x1="222.7" y1="296.5" x2="329.2" y2="296.5" stroke="#b0b0b0" stroke-width="1" opacity="0.3"/>
<line x1="222.7" y1="274.6" x2="201.4" y2="315.5" stroke="#b0b0b0" stroke-width="2" opacity="0.3"/>
<line x1="201.4" y1="315.5" x2="217.4" y2="340.1" stroke="#b0b0b0" stroke-width="2" opacity="0.3"/>
<line x1="329.2" y1="274.6" x2="350.4" y2="315.5" stroke="#b0b0b0" stroke-width="2" opacity="0.3"/>
<line x1="350.4" y1="315.5" x2="334.5" y2="340.1" stroke="#b0b0b0" stroke-width="2" opacity="0.3"/>
<line x1="275.9" y1="197.7" x2="275.9" y2="270.6" stroke="#b0b0b0" stroke-width="3" opacity="0.35"/>
<circle cx="275.9" cy="157.3" r="40.5" fill="#b0b0b0" opacity="0.4"/>
<rect x="35.0" y="67.0" width="66.5" height="40.0" rx="6" fill="white" stroke="#b0b0b0" stroke-width="1.0" opacity="0.92"/>
<polygon points="54.9,107.0 62.9,107.0 51.9,115.0" fill="white" stroke="#b0b0b0" stroke-width="0.8"/>
<line x1="54.4" y1="107.0" x2="63.4" y2="107.0" stroke="white" stroke-width="1.5"/>
<text x="41.0" y="84.0" font-size="11.0" fill="#b0b0b0" font-weight="700">SABLE</text>
<text x="41.0" y="98.0" font-size="11.0" fill="#333333">Shoulder?</text>
<rect x="274.9" y="117.0" width="241.9" height="40.0" rx="6" fill="white" stroke="#b22222" stroke-width="1.0" opacity="0.92"/>
<polygon points="347.5,157.0 355.5,157.0 344.5,165.0" fill="white" stroke="#b22222" stroke-width="0.8"/>
<line x1="347.0" y1="157.0" x2="356.0" y2="157.0" stroke="white" stroke-width="1.5"/>
<text x="280.9" y="134.0" font-size="11.0" fill="#b22222" font-weight="700">THRESH</text>
<text x="280.9" y="148.0" font-size="11.0" fill="#333333">Dislocated on impact. Luma can set it.</text>
<rect x="35.0" y="167.0" width="96.7" height="40.0" rx="6" fill="white" stroke="#b0b0b0" stroke-width="1.0" opacity="0.92"/>
<polygon points="64.0,207.0 72.0,207.0 61.0,215.0" fill="white" stroke="#b0b0b0" stroke-width="0.8"/>
<line x1="63.5" y1="207.0" x2="72.5" y2="207.0" stroke="white" stroke-width="1.5"/>
<text x="41.0" y="184.0" font-size="11.0" fill="#b0b0b0" font-weight="700">SABLE</text>
<text x="41.0" y="198.0" font-size="11.0" fill="#333333">Can you fight?</text>
<rect x="454.8" y="217.0" width="62.0" height="40.0" rx="6" fill="white" stroke="#b22222" stroke-width="1.0" opacity="0.92"/>
<polygon points="473.4,257.0 481.4,257.0 470.4,265.0" fill="white" stroke="#b22222" stroke-width="0.8"/>
<line x1="472.9" y1="257.0" x2="481.9" y2="257.0" stroke="white" stroke-width="1.5"/>
<text x="460.8" y="234.0" font-size="11.0" fill="#b22222" font-weight="700">THRESH</text>
<text x="460.8" y="248.0" font-size="11.0" fill="#333333">Yes.</text>
<text x="510.8" y="75.0" text-anchor="end" font-size="12" font-weight="bold" fill="#888888" opacity="0.6">1</text>
<text x="516.8" y="417.0" text-anchor="end" font-size="9" fill="#888888" opacity="0.5">MW</text>
<rect x="532.8" y="59.0" width="238.2" height="364.0" rx="2" fill="#f5f0e8" stroke="#2a2a2a" stroke-width="1.5"/>
<path d="M583.3,290.3 Q583.3,256.0 634.8,251.8 L669.1,251.8 Q720.5,256.0 720.5,290.3 L720.5,379.3 L583.3,379.3 Z" fill="#c87533" opacity="0.25"/>
<path d="M636.9,251.8 L651.9,273.2 L666.9,251.8" fill="none" stroke="#c87533" stroke-width="1" opacity="0.3"/>
<circle cx="651.9" cy="204.6" r="42.9" fill="#c87533" opacity="0.35"/>
<path d="M609.1,213.2 Q615.5,251.8 651.9,253.9 Q688.4,251.8 694.8,213.2" fill="none" stroke="#c87533" stroke-width="1.2" opacity="0.3"/>
<path d="M606.9,200.3 Q651.9,148.9 696.9,200.3" fill="none" stroke="#c87533" stroke-width="2" opacity="0.4"/>
<ellipse cx="607.1" cy="206.7" rx="2.5" ry="4" fill="#c87533" opacity="0.25"/>
<ellipse cx="696.8" cy="206.7" rx="2.5" ry="4" fill="#c87533" opacity="0.25"/>
<rect x="538.8" y="67.0" width="122.0" height="38.0" rx="6" fill="white" stroke="#c87533" stroke-width="1.0" opacity="0.92"/>
<polygon points="575.4,105.0 583.4,105.0 572.4,113.0" fill="white" stroke="#c87533" stroke-width="0.8"/>
<line x1="574.9" y1="105.0" x2="583.9" y2="105.0" stroke="white" stroke-width="1.5"/>
<text x="544.8" y="83.0" font-size="10.0" fill="#c87533" font-weight="700">WREN</text>
<text x="544.8" y="96.0" font-size="10.0" fill="#333333">The drive housing...</text>
<text x="759.0" y="75.0" text-anchor="end" font-size="12" font-weight="bold" fill="#888888" opacity="0.6">2</text>
<text x="765.0" y="417.0" text-anchor="end" font-size="9" fill="#888888" opacity="0.5">MCU</text>
<rect x="29.0" y="433.0" width="742.0" height="364.0" rx="2" fill="#f5f0e8" stroke="#2a2a2a" stroke-width="1.5"/>
<path d="M341.4,695.1 L346.8,648.6 Q352.1,644.6 383.8,644.6 L416.2,644.6 Q447.9,644.6 453.2,648.6 L458.6,695.1 Z" fill="#6a5acd" opacity="0.35"/>
<line x1="346.8" y1="670.5" x2="453.2" y2="670.5" stroke="#6a5acd" stroke-width="1" opacity="0.3"/>
<line x1="346.8" y1="648.6" x2="325.5" y2="689.5" stroke="#6a5acd" stroke-width="2" opacity="0.3"/>
<line x1="325.5" y1="689.5" x2="341.4" y2="714.1" stroke="#6a5acd" stroke-width="2" opacity="0.3"/>
<line x1="453.2" y1="648.6" x2="474.5" y2="689.5" stroke="#6a5acd" stroke-width="2" opacity="0.3"/>
<line x1="474.5" y1="689.5" x2="458.6" y2="714.1" stroke="#6a5acd" stroke-width="2" opacity="0.3"/>
<line x1="400.0" y1="571.7" x2="400.0" y2="644.6" stroke="#6a5acd" stroke-width="3" opacity="0.35"/>
<circle cx="400.0" cy="531.3" r="40.5" fill="#6a5acd" opacity="0.4"/>
<rect x="35.0" y="441.0" width="241.9" height="40.0" rx="6" fill="white" stroke="#6a5acd" stroke-width="1.0" opacity="0.92"/>
<polygon points="107.6,481.0 115.6,481.0 104.6,489.0" fill="white" stroke="#6a5acd" stroke-width="0.8"/>
<line x1="107.1" y1="481.0" x2="116.1" y2="481.0" stroke="white" stroke-width="1.5"/>
<text x="41.0" y="458.0" font-size="11.0" fill="#6a5acd" font-weight="700">LUMA</text>
<text x="41.0" y="472.0" font-size="11.0" fill="#333333">Hold still. I need to check your ribs.</text>
<rect x="595.7" y="491.0" width="169.3" height="40.0" rx="6" fill="white" stroke="#2e8b57" stroke-width="1.0" opacity="0.92"/>
<polygon points="646.5,531.0 654.5,531.0 643.5,539.0" fill="white" stroke="#2e8b57" stroke-width="0.8"/>
<line x1="646.0" y1="531.0" x2="655.0" y2="531.0" stroke="white" stroke-width="1.5"/>
<text x="601.7" y="508.0" font-size="11.0" fill="#2e8b57" font-weight="700">JINK</text>
<text x="601.7" y="522.0" font-size="11.0" fill="#333333">They're where I left them.</text>
<rect x="35.0" y="541.0" width="181.4" height="40.0" rx="6" fill="white" stroke="#6a5acd" stroke-width="1.0" opacity="0.92"/>
<polygon points="89.4,581.0 97.4,581.0 86.4,589.0" fill="white" stroke="#6a5acd" stroke-width="0.8"/>
<line x1="88.9" y1="581.0" x2="97.9" y2="581.0" stroke="white" stroke-width="1.5"/>
<text x="41.0" y="558.0" font-size="11.0" fill="#6a5acd" font-weight="700">LUMA</text>
<text x="41.0" y="572.0" font-size="11.0" fill="#333333">Two are cracked. Hold still.</text>
<rect x="674.4" y="591.0" width="90.7" height="40.0" rx="6" fill="white" stroke="#2e8b57" stroke-width="1.0" opacity="0.92"/>
<polygon points="701.5,631.0 709.5,631.0 698.5,639.0" fill="white" stroke="#2e8b57" stroke-width="0.8"/>
<line x1="701.0" y1="631.0" x2="710.0" y2="631.0" stroke="white" stroke-width="1.5"/>
<text x="680.4" y="608.0" font-size="11.0" fill="#2e8b57" font-weight="700">JINK</text>
<text x="680.4" y="622.0" font-size="11.0" fill="#333333">Where are we?</text>
<rect x="35.0" y="641.0" width="199.6" height="40.0" rx="6" fill="white" stroke="#6a5acd" stroke-width="1.0" opacity="0.92"/>
<polygon points="94.9,681.0 102.9,681.0 91.9,689.0" fill="white" stroke="#6a5acd" stroke-width="0.8"/>
<line x1="94.4" y1="681.0" x2="103.4" y2="681.0" stroke="white" stroke-width="1.5"/>
<text x="41.0" y="658.0" font-size="11.0" fill="#6a5acd" font-weight="700">LUMA</text>
<text x="41.0" y="672.0" font-size="11.0" fill="#333333">I don't know yet. Hold *still.*</text>
<text x="759.0" y="449.0" text-anchor="end" font-size="12" font-weight="bold" fill="#888888" opacity="0.6">3</text>
<text x="765.0" y="791.0" text-anchor="end" font-size="9" fill="#888888" opacity="0.5">MED</text>
<rect x="29.0" y="807.0" width="366.0" height="364.0" rx="2" fill="#f5f0e8" stroke="#2a2a2a" stroke-width="1.5"/>
<ellipse cx="212.0" cy="959.9" rx="114.7" ry="163.8" fill="#c0b8a8" opacity="0.18"/>
<path d="M91.6,902.5 Q212.0,771.5 332.4,902.5" fill="none" stroke="#c0b8a8" stroke-width="3" opacity="0.35"/>
<line x1="171.9" y1="923.8" x2="206.3" y2="921.8" stroke="#a89888" stroke-width="1.5" opacity="0.45"/>
<line x1="217.7" y1="921.8" x2="252.1" y2="923.8" stroke="#a89888" stroke-width="1.5" opacity="0.45"/>
<ellipse cx="179.9" cy="940.2" rx="13.8" ry="8.2" fill="#a89888" opacity="0.45"/>
<ellipse cx="244.1" cy="940.2" rx="13.8" ry="8.2" fill="#a89888" opacity="0.45"/>
<line x1="212.0" y1="963.2" x2="212.0" y2="989.4" stroke="#a89888" stroke-width="1.2" opacity="0.35"/>
<path d="M205.1,989.4 Q212.0,992.4 218.9,989.4" fill="none" stroke="#a89888" stroke-width="1" opacity="0.3"/>
<line x1="183.3" y1="1012.3" x2="240.7" y2="1012.3" stroke="#a89888" stroke-width="1.2" opacity="0.35"/>
<text x="383.0" y="823.0" text-anchor="end" font-size="12" font-weight="bold" fill="#888888" opacity="0.6">4</text>
<text x="389.0" y="1165.0" text-anchor="end" font-size="9" fill="#888888" opacity="0.5">CU</text>
<rect x="405.0" y="807.0" width="366.0" height="364.0" rx="2" fill="#f5f0e8" stroke="#2a2a2a" stroke-width="1.5"/>
<path d="M529.4,1069.1 L534.8,1022.6 Q540.1,1018.6 571.8,1018.6 L604.2,1018.6 Q635.9,1018.6 641.2,1022.6 L646.6,1069.1 Z" fill="#b0b0b0" opacity="0.35"/>
<line x1="534.8" y1="1044.5" x2="641.2" y2="1044.5" stroke="#b0b0b0" stroke-width="1" opacity="0.3"/>
<line x1="534.8" y1="1022.6" x2="513.5" y2="1063.5" stroke="#b0b0b0" stroke-width="2" opacity="0.3"/>
<line x1="513.5" y1="1063.5" x2="529.4" y2="1088.1" stroke="#b0b0b0" stroke-width="2" opacity="0.3"/>
<line x1="641.2" y1="1022.6" x2="662.5" y2="1063.5" stroke="#b0b0b0" stroke-width="2" opacity="0.3"/>
<line x1="662.5" y1="1063.5" x2="646.6" y2="1088.1" stroke="#b0b0b0" stroke-width="2" opacity="0.3"/>
<line x1="588.0" y1="945.7" x2="588.0" y2="1018.6" stroke="#b0b0b0" stroke-width="3" opacity="0.35"/>
<circle cx="588.0" cy="905.3" r="40.5" fill="#b0b0b0" opacity="0.4"/>
<rect x="411.0" y="815.0" width="320.6" height="54.0" rx="6" fill="white" stroke="#b0b0b0" stroke-width="1.0" opacity="0.92"/>
<polygon points="507.2,869.0 515.2,869.0 504.2,877.0" fill="white" stroke="#b0b0b0" stroke-width="0.8"/>
<line x1="506.7" y1="869.0" x2="515.7" y2="869.0" stroke="white" stroke-width="1.5"/>
<text x="417.0" y="832.0" font-size="11.0" fill="#b0b0b0" font-weight="700">SABLE</text>
<text x="417.0" y="846.0" font-size="11.0" fill="#333333">We're down. We're alive. Wren, I need a preliminary</text>
<text x="417.0" y="860.0" font-size="11.0" fill="#333333">assessment in ten minutes.</text>
<rect x="613.9" y="879.0" width="151.2" height="40.0" rx="6" fill="white" stroke="#c87533" stroke-width="1.0" opacity="0.92"/>
<polygon points="659.2,919.0 667.2,919.0 656.2,927.0" fill="white" stroke="#c87533" stroke-width="0.8"/>
<line x1="658.7" y1="919.0" x2="667.7" y2="919.0" stroke="white" stroke-width="1.5"/>
<text x="619.9" y="896.0" font-size="11.0" fill="#c87533" font-weight="700">WREN</text>
<text x="619.9" y="910.0" font-size="11.0" fill="#333333">You'll have it in five.</text>
<text x="759.0" y="823.0" text-anchor="end" font-size="12" font-weight="bold" fill="#888888" opacity="0.6">5</text>
<text x="765.0" y="1165.0" text-anchor="end" font-size="9" fill="#888888" opacity="0.5">MED</text>
</svg>