<svg xmlns="http://www.w3.org/2000/svg" viewBox="0 0 800 1200" width="800" height="1200" style="background:#ffffff">
<style>
  text { font-family: "Helvetica Neue", Helvetica, Arial, sans-serif; }
</style>
<text x="400.0" y="22" text-anchor="middle" font-size="16" fill="#888888" font-weight="500">PAGE 18  (4 panels)</text>
<rect x="29.0" y="59.0" width="366.0" height="551.0" rx="2" fill="#f5f0e8" stroke="#2a2a2a" stroke-width="1.5"/>
<path d="M141.5,455.7 L147.9,348.1 Q154.4,344.1 192.5,344.1 L231.5,344.1 Q269.6,344.1 276.1,348.1 L282.5,455.7 Z" fill="#2e8b57" opacity="0.35"/>
<line x1="147.9" y1="418.5" x2="276.1" y2="418.5" stroke="#2e8b57" stroke-width="1" opacity="0.3"/>
<line x1="147.9" y1="348.1" x2="122.3" y2="410.1" stroke="#2e8b57" stroke-width="2" opacity="0.3"/>
<line x1="122.3" y1="410.1" x2="141.5" y2="447.2" stroke="#2e8b57" stroke-width="2" opacity="0.3"/>
<line x1="276.1" y1="348.1" x2="301.7" y2="410.1" stroke="#2e8b57" stroke-width="2" opacity="0.3"/>
<line x1="301.7" y1="410.1" x2="282.5" y2="447.2" stroke="#2e8b57" stroke-width="2" opacity="0.3"/>
<line x1="212.0" y1="256.4" x2="212.0" y2="344.1" stroke="#2e8b57" stroke-width="3" opacity="0.35"/>
<circle cx="212.0" cy="207.8" r="48.7" fill="#2e8b57" opacity="0.4"/>
<rect x="35.0" y="67.0" width="199.6" height="40.0" rx="6" fill="white" stroke="#2e8b57" stroke-width="1.0" opacity="0.92"/>
<polygon points="94.9,107.0 102.9,107.0 91.9,115.0" fill="white" stroke="#2e8b57" stroke-width="0.8"/>
<line x1="94.4" y1="107.0" x2="103.4" y2="107.0" stroke="white" stroke-width="1.5"/>
<text x="41.0" y="84.0" font-size="11.0" fill="#2e8b57" font-weight="700">JINK</text>
<text x="41.0" y="98.0" font-size="11.0" fill="#333333">...it is a lot of city, though.</text>
<text x="383.0" y="75.0" text-anchor="end" font-size="12" font-weight="bold" fill="#888888" opacity="0.6">1</text>
<text x="389.0" y="604.0" text-anchor="end" font-size="9" fill="#888888" opacity="0.5">MED</text>
<rect x="405.0" y="59.0" width="366.0" height="551.0" rx="2" fill="#f5f0e8" stroke="#2a2a2a" stroke-width="1.5"/>
<ellipse cx="588.0" cy="290.4" rx="146.4" ry="248.0" fill="#6a5acd" opacity="0.18"/>
<path d="M434.3,203.6 Q588.0,5.3 741.7,203.6" fill="none" stroke="#6a5acd" stroke-width="3" opacity="0.35"/>
<line x1="536.8" y1="235.9" x2="580.7" y2="233.9" stroke="#a89888" stroke-width="1.5" opacity="0.45"/>
<line x1="595.3" y1="233.9" x2="639.2" y2="235.9" stroke="#a89888" stroke-width="1.5" opacity="0.45"/>
<ellipse cx="547.0" cy="260.7" rx="17.6" ry="12.4" fill="#a89888" opacity="0.45"/>
<ellipse cx="629.0" cy="260.7" rx="17.6" ry="12.4" fill="#a89888" opacity="0.45"/>
<line x1="588.0" y1="295.4" x2="588.0" y2="335.1" stroke="#a89888" stroke-width="1.2" opacity="0.35"/>
<path d="M579.2,335.1 Q588.0,338.1 596.8,335.1" fill="none" stroke="#a89888" stroke-width="1" opacity="0.3"/>
<line x1="551.4" y1="369.8" x2="624.6" y2="369.8" stroke="#a89888" stroke-width="1.2" opacity="0.35"/>
<rect x="411.0" y="67.0" width="133.0" height="40.0" rx="6" fill="white" stroke="#6a5acd" stroke-width="1.0" opacity="0.92"/>
<polygon points="450.9,107.0 458.9,107.0 447.9,115.0" fill="white" stroke="#6a5acd" stroke-width="0.8"/>
<line x1="450.4" y1="107.0" x2="459.4" y2="107.0" stroke="white" stroke-width="1.5"/>
<text x="417.0" y="84.0" font-size="11.0" fill="#6a5acd" font-weight="700">LUMA</text>
<text x="417.0" y="98.0" font-size="11.0" fill="#333333">How long do we have?</text>
<rect x="432.3" y="117.0" width="332.7" height="54.0" rx="6" fill="white" stroke="#6a5acd" stroke-width="1.0" opacity="0.92"/>
<polygon points="532.1,171.0 540.1,171.0 529.1,179.0" fill="white" stroke="#6a5acd" stroke-width="0.8"/>
<line x1="531.6" y1="171.0" x2="540.6" y2="171.0" stroke="white" stroke-width="1.5"/>
<text x="438.3" y="134.0" font-size="11.0" fill="#6a5acd" font-weight="700">LUMA</text>
<text x="438.3" y="148.0" font-size="11.0" fill="#333333">Suit power. Medical supplies. Holographic degradation</text>
<text x="438.3" y="162.0" font-size="11.0" fill="#333333">rates.</text>
<text x="759.0" y="75.0" text-anchor="end" font-size="12" font-weight="bold" fill="#888888" opacity="0.6">2</text>
<text x="765.0" y="604.0" text-anchor="end" font-size="9" fill="#888888" opacity="0.5">CU</text>
<rect x="29.0" y="620.0" width="493.8" height="551.0" rx="2" fill="#f5f0e8" stroke="#2a2a2a" stroke-width="1.5"/>
<path d="M187.3,1016.7 L195.3,944.3 Q203.4,940.3 251.4,940.3 L300.4,940.3 Q348.4,940.3 356.5,944.3 L364.6,1016.7 Z" fill="#b0b0b0" opacity="0.35"/>
<line x1="195.3" y1="979.5" x2="356.5" y2="979.5" stroke="#b0b0b0" stroke-width="1" opacity="0.3"/>
<line x1="195.3" y1="944.3" x2="163.1" y2="1006.2" stroke="#b0b0b0" stroke-width="2" opacity="0.3"/>
<line x1="163.1" y1="1006.2" x2="187.3" y2="1043.4" stroke="#b0b0b0" stroke-width="2" opacity="0.3"/>
<line x1="356.5" y1="944.3" x2="388.7" y2="1006.2" stroke="#b0b0b0" stroke-width="2" opacity="0.3"/>
<line x1="388.7" y1="1006.2" x2="364.6" y2="1043.4" stroke="#b0b0b0" stroke-width="2" opacity="0.3"/>
<line x1="275.9" y1="830.0" x2="275.9" y2="940.3" stroke="#b0b0b0" stroke-width="3" opacity="0.35"/>
<circle cx="275.9" cy="768.8" r="61.2" fill="#b0b0b0" opacity="0.4"/>
<rect x="35.0" y="628.0" width="481.8" height="68.0" rx="6" fill="white" stroke="#b0b0b0" stroke-width="1.0" opacity="0.92"/>
<polygon points="179.6,696.0 187.6,696.0 176.6,704.0" fill="white" stroke="#b0b0b0" stroke-width="0.8"/>
<line x1="179.1" y1="696.0" x2="188.1" y2="696.0" stroke="white" stroke-width="1.5"/>
<text x="41.0" y="645.0" font-size="11.0" fill="#b0b0b0" font-weight="700">SABLE</text>
<text x="41.0" y="659.0" font-size="11.0" fill="#333333">Wren builds a list. Luma inventories medical supplies and suit power reserves.</text>
<text x="41.0" y="673.0" font-size="11.0" fill="#333333">Thresh, maintain watch. Jink...&quot; *(a pause — she's deciding whether to order Jink</text>
<text x="41.0" y="687.0" font-size="11.0" fill="#333333">inside or let them be)* &quot;...stay close.</text>
<text x="510.8" y="636.0" text-anchor="end" font-size="12" font-weight="bold" fill="#888888" opacity="0.6">3</text>
<text x="516.8" y="1165.0" text-anchor="end" font-size="9" fill="#888888" opacity="0.5">MW</text>
<rect x="532.8" y="620.0" width="238.2" height="551.0" rx="2" fill="#f5f0e8" stroke="#2a2a2a" stroke-width="1.5"/>
<ellipse cx="651.9" cy="851.4" rx="95.3" ry="248.0" fill="#c0b8a8" opacity="0.18"/>
<path d="M551.9,764.6 Q651.9,566.3 751.9,764.6" fill="none" stroke="#c0b8a8" stroke-width="3" opacity="0.35"/>
<line x1="618.6" y1="796.9" x2="647.2" y2="794.9" stroke="#a89888" stroke-width="1.5" opacity="0.45"/>
<line x1="656.7" y1="794.9" x2="685.3" y2="796.9" stroke="#a89888" stroke-width="1.5" opacity="0.45"/>
<ellipse cx="625.2" cy="821.7" rx="11.4" ry="12.4" fill="#a89888" opacity="0.45"/>
<ellipse cx="678.6" cy="821.7" rx="11.4" ry="12.4" fill="#a89888" opacity="0.45"/>
<line x1="651.9" y1="856.4" x2="651.9" y2="896.1" stroke="#a89888" stroke-width="1.2" opacity="0.35"/>
<path d="M646.2,896.1 Q651.9,899.1 657.6,896.1" fill="none" stroke="#a89888" stroke-width="1" opacity="0.3"/>
<line x1="628.1" y1="930.8" x2="675.7" y2="930.8" stroke="#a89888" stroke-width="1.2" opacity="0.35"/>
<text x="759.0" y="636.0" text-anchor="end" font-size="12" font-weight="bold" fill="#888888" opacity="0.6">4</text>
<text x="765.0" y="1165.0" text-anchor="end" font-size="9" fill="#888888" opacity="0.5">ECU</text>
</svg>